<?xml version="1.0" encoding="utf-8"?>
<!-- Generator: Adobe Illustrator 18.0.0, SVG Export Plug-In . SVG Version: 6.00 Build 0)  -->
<!DOCTYPE svg PUBLIC "-//W3C//DTD SVG 1.1//EN" "http://www.w3.org/Graphics/SVG/1.1/DTD/svg11.dtd" [
	<!ENTITY ns_flows "http://ns.adobe.com/Flows/1.0/">
	<!ENTITY ns_extend "http://ns.adobe.com/Extensibility/1.0/">
	<!ENTITY ns_ai "http://ns.adobe.com/AdobeIllustrator/10.0/">
	<!ENTITY ns_graphs "http://ns.adobe.com/Graphs/1.0/">
]>
<svg version="1.1" id="Capa_1" xmlns:x="&ns_extend;" xmlns:i="&ns_ai;" xmlns:graph="&ns_graphs;"
	 xmlns="http://www.w3.org/2000/svg" xmlns:xlink="http://www.w3.org/1999/xlink" xmlns:a="http://ns.adobe.com/AdobeSVGViewerExtensions/3.0/"
	 x="0px" y="0px" viewBox="0 321.9 595.3 198.1" enable-background="new 0 321.9 595.3 198.1" xml:space="preserve">
<g>
	<g>
		<path fill="#FFFFFF" stroke="#FFFFFF" stroke-miterlimit="10" d="M55.3,466.8v-30.9h7.1c2.8,0,4.8,0.6,6.3,1.9
			c1.4,1.3,2.1,3.2,2.1,5.9c0,4-1.5,6.1-4.4,6.5c1.8,0.5,3.2,1.3,4,2.5c0.8,1.3,1.3,3,1.3,5.2c0,2.8-0.6,4.9-2,6.5
			c-1.3,1.6-3.3,2.3-6,2.3H55.3L55.3,466.8z M59.6,448.7h2.5c1.7,0,3-0.4,3.7-1.2s1-2.1,1-4c0-0.6-0.1-1.1-0.2-1.6s-0.2-0.9-0.3-1.2
			s-0.3-0.6-0.6-0.8c-0.3-0.2-0.6-0.4-0.9-0.6c-0.3-0.2-0.6-0.2-1.2-0.3c-0.6-0.1-1-0.1-1.4-0.2c-0.5-0.1-1,0-1.7,0h-1L59.6,448.7
			L59.6,448.7z M59.6,463.7h2.9c1.8,0,3.1-0.5,3.8-1.3c0.7-0.9,1-2.4,1-4.4c0-2-0.4-3.4-1.2-4.4c-0.8-1-2.1-1.4-4-1.4h-2.5
			L59.6,463.7L59.6,463.7z"/>
		<path fill="#FFFFFF" stroke="#FFFFFF" stroke-miterlimit="10" d="M86.9,467.1c-1.5,0-2.9-0.2-4-0.7c-1.1-0.5-2-1.1-2.6-2.1
			c-0.6-1-1.1-1.9-1.4-3.1s-0.5-2.5-0.5-4.1v-11.7c0-3.2,0.6-5.6,2-7.3s3.5-2.5,6.4-2.5c3,0,5.2,0.9,6.4,2.5s2,4.1,2,7.3v11.7
			c0,3.2-0.6,5.7-2,7.4C91.9,466.2,89.9,467.1,86.9,467.1z M84.8,463.3c0.6,0.2,1.3,0.4,2.1,0.4c0.8,0,1.5-0.2,2.1-0.4
			c0.6-0.2,1-0.6,1.3-1.2c0.3-0.6,0.5-1.1,0.6-1.7c0.1-0.6,0.2-1.4,0.2-2.4v-13.5c0-1-0.1-1.7-0.2-2.3c-0.1-0.6-0.3-1.2-0.6-1.7
			c-0.2-0.6-0.7-0.9-1.3-1.1s-1.3-0.4-2.1-0.4c-0.8,0-1.5,0.2-2.1,0.4c-0.6,0.2-1,0.6-1.3,1.1c-0.3,0.5-0.5,1.1-0.6,1.7
			c-0.1,0.6-0.2,1.4-0.2,2.3V458c0,1,0.1,1.7,0.2,2.4c0.1,0.6,0.3,1.2,0.6,1.7C83.8,462.7,84.3,463,84.8,463.3z"/>
		<path fill="#FFFFFF" stroke="#FFFFFF" stroke-miterlimit="10" d="M103.4,466.8v-30.9h6.2c3.1,0,5.4,0.6,6.9,1.9
			c1.5,1.3,2.2,3.3,2.2,6.3c0,4-1.3,6.3-3.8,7.2l4.4,15.5h-4.1l-4-14.4h-3.3v14.4H103.4z M107.7,449.2h1.6c1.9,0,3.2-0.4,4-1.1
			s1.2-2.1,1.2-4c0-1.9-0.3-3.2-1-4c-0.7-0.8-2-1.1-3.9-1.1h-1.9L107.7,449.2L107.7,449.2z"/>
		<path fill="#FFFFFF" stroke="#FFFFFF" stroke-miterlimit="10" d="M127,466.8v-30.9h6.7c3.3,0,5.7,0.8,7.1,2.3
			c1.3,1.5,2.1,3.9,2.1,7.1v11.4c0,3.4-0.7,5.9-2.1,7.6c-1.3,1.7-3.7,2.5-6.7,2.5L127,466.8L127,466.8z M131.3,463.7h2.4
			c0.6,0,1.3-0.1,1.7-0.2c0.5-0.1,1-0.3,1.3-0.5s0.6-0.5,0.9-0.9s0.4-0.8,0.6-1.1c0.2-0.3,0.2-0.8,0.2-1.5s0.1-1.2,0.1-1.7
			s0-1.1,0-2v-10c0-0.7,0-1.3,0-1.9c0-0.6-0.1-1-0.2-1.5c-0.1-0.5-0.2-1-0.3-1.3c-0.2-0.3-0.3-0.6-0.6-1s-0.6-0.5-0.9-0.6
			c-0.3-0.2-0.8-0.2-1.2-0.4c-0.4-0.2-1-0.2-1.7-0.2h-2.3L131.3,463.7L131.3,463.7z"/>
		<path fill="#FFFFFF" stroke="#FFFFFF" stroke-miterlimit="10" d="M150.9,466.8v-30.9h11.9v3.2h-7.6v10.2h6.2v3.1h-6.2v11.3h7.8
			v3.1L150.9,466.8L150.9,466.8z"/>
		<path fill="#FFFFFF" stroke="#FFFFFF" stroke-miterlimit="10" d="M195.3,466.8v-30.9h4.3v27.8h7.9v3.1H195.3z"/>
		<path fill="#FFFFFF" stroke="#FFFFFF" stroke-miterlimit="10" d="M214.4,466.8v-30.9h4.2v30.9H214.4z"/>
		<path fill="#FFFFFF" stroke="#FFFFFF" stroke-miterlimit="10" d="M234.7,467.1c-2.6,0-4.6-0.8-6-2.4c-1.3-1.6-2.1-3.8-2.3-6.6
			l3.8-1c0.2,4.4,1.7,6.6,4.4,6.6c1.1,0,1.9-0.3,2.5-1c0.6-0.6,0.9-1.5,0.9-2.7c0-0.6-0.1-1.3-0.2-1.8c-0.2-0.6-0.4-1-0.8-1.6
			c-0.4-0.6-0.7-0.9-1-1.3s-0.8-0.8-1.3-1.3l-5.2-4.6c-1-1-1.8-1.9-2.3-3c-0.5-1.1-0.7-2.3-0.7-3.8c0-2.2,0.6-4,1.9-5.2
			c1.3-1.3,3.1-1.9,5.3-1.9c2.5,0,4.3,0.6,5.6,1.9c1.3,1.3,2,3.3,2.2,6.1l-3.7,1c-0.1-0.6-0.1-1.3-0.2-1.7s-0.2-1-0.4-1.6
			c-0.2-0.6-0.5-1-0.7-1.3c-0.2-0.3-0.6-0.6-1.1-0.8c-0.5-0.2-1-0.2-1.7-0.2c-2.3,0.2-3.4,1.3-3.4,3.4c0,0.9,0.2,1.7,0.5,2.3
			c0.3,0.6,0.8,1.3,1.6,1.9l5.2,4.6c1.3,1.2,2.5,2.5,3.3,3.9s1.2,2.9,1.2,4.8c0,2.2-0.7,4-2.1,5.4
			C238.6,466.4,236.8,467.1,234.7,467.1z"/>
		<path fill="#FFFFFF" stroke="#FFFFFF" stroke-miterlimit="10" d="M257.1,467.1c-1.5,0-2.9-0.2-4-0.7c-1.1-0.5-2-1.1-2.6-2.1
			c-0.6-1-1.1-1.9-1.4-3.1s-0.5-2.5-0.5-4.1v-11.7c0-3.2,0.6-5.6,2-7.3s3.5-2.5,6.4-2.5c3,0,5.2,0.9,6.4,2.5s2,4.1,2,7.3v11.7
			c0,3.2-0.6,5.7-2,7.4C262.1,466.2,260.1,467.1,257.1,467.1z M255,463.3c0.6,0.2,1.3,0.4,2.1,0.4c0.8,0,1.5-0.2,2.1-0.4
			c0.6-0.2,1-0.6,1.3-1.2c0.3-0.6,0.5-1.1,0.6-1.7c0.1-0.6,0.2-1.4,0.2-2.4v-13.5c0-1-0.1-1.7-0.2-2.3c-0.1-0.6-0.3-1.2-0.6-1.7
			c-0.2-0.6-0.7-0.9-1.3-1.1s-1.3-0.4-2.1-0.4c-0.8,0-1.5,0.2-2.1,0.4c-0.6,0.2-1,0.6-1.3,1.1c-0.3,0.5-0.5,1.1-0.6,1.7
			c-0.1,0.6-0.2,1.4-0.2,2.3V458c0,1,0.1,1.7,0.2,2.4c0.1,0.6,0.3,1.2,0.6,1.7C254,462.7,254.5,463,255,463.3z"/>
	</g>
	<g>
		<g>
			<g>
				<path fill="#59704B" d="M373.1,450.1c7.1,4.4,7.1,2.9,12.4,5.6c5.3,2.7,11.4,3.3,17.4,3.7c14.1,1.2,28.9,2.1,42.1-3.3
					c18.7-7.6,30.3-26.2,38.8-44.4c8.5-18.3,15.5-38,29.6-52.4c-13.4-6-28.8-6.2-43.2-3.1c-14.4,3.1-27.8,9.4-40.8,16.1
					c-20.6,10.7-41,23.4-54.8,42.1c-4,5.4-7.5,11.6-7.7,18.3C366.6,439.3,362.8,441,373.1,450.1"/>
			</g>
		</g>
		<g>
			<g>
				<path fill="#59704B" d="M360.4,465.1c2.9-4.4,5.6-8.9,8.5-13.3c2.1-3.3,5.2-8.6,9.9-7.5c0-2.5,0-5.1,0-7.6
					c-17,5.9-28.7,23.3-26.7,41.4c0.6,5,8.5,5.1,7.9,0c-1.6-14.4,7.1-29,21-33.7c3.4-1.2,4-6.7,0-7.6c-6.1-1.3-11.4,1.3-15.2,6
					c-4.7,5.6-8.2,12.4-12.1,18.6C350.8,465.4,357.6,469.4,360.4,465.1L360.4,465.1z"/>
			</g>
		</g>
	</g>
</g>
</svg>
