<?xml version="1.0" encoding="utf-8"?>
<!-- Generator: Adobe Illustrator 18.0.0, SVG Export Plug-In . SVG Version: 6.00 Build 0)  -->
<!DOCTYPE svg PUBLIC "-//W3C//DTD SVG 1.1//EN" "http://www.w3.org/Graphics/SVG/1.1/DTD/svg11.dtd" [
	<!ENTITY ns_flows "http://ns.adobe.com/Flows/1.0/">
	<!ENTITY ns_extend "http://ns.adobe.com/Extensibility/1.0/">
	<!ENTITY ns_ai "http://ns.adobe.com/AdobeIllustrator/10.0/">
	<!ENTITY ns_graphs "http://ns.adobe.com/Graphs/1.0/">
]>
<svg version="1.1" id="Capa_1" xmlns:x="&ns_extend;" xmlns:i="&ns_ai;" xmlns:graph="&ns_graphs;"
	 xmlns="http://www.w3.org/2000/svg" xmlns:xlink="http://www.w3.org/1999/xlink" xmlns:a="http://ns.adobe.com/AdobeSVGViewerExtensions/3.0/"
	 x="0px" y="0px" viewBox="0 0 595.3 841.9" enable-background="new 0 0 595.3 841.9" xml:space="preserve">
<g>
	<path fill="#FFFFFF" stroke="#FFFFFF" stroke-miterlimit="10" d="M247.6,407.2c-3.4,0-6.2-0.5-8.6-1.4c-2.4-0.9-4.2-2.3-5.6-4.1
		c-1.4-1.8-2.4-3.9-3-6.3s-0.9-5.2-0.9-8.4v-21.5c0-3.3,0.3-6.1,0.9-8.5c0.6-2.4,1.6-4.5,3-6.3c1.4-1.8,3.2-3.2,5.6-4.1
		c2.4-0.9,5.2-1.4,8.6-1.4c3.2,0,6,0.4,8.3,1.2c2.3,0.8,4.1,2,5.4,3.6c1.3,1.6,2.2,3.4,2.8,5.4c0.6,2,0.9,4.4,0.9,7.1v5.3h-13V362
		c0-0.9,0-1.7,0-2.1c0-0.5-0.1-1.1-0.3-1.9c-0.1-0.8-0.4-1.3-0.6-1.7c-0.3-0.4-0.7-0.7-1.3-1c-0.6-0.3-1.3-0.5-2.1-0.5
		c-0.8,0-1.5,0.2-2.1,0.5c-0.6,0.3-1,0.7-1.3,1.1c-0.3,0.4-0.5,1-0.7,1.7s-0.3,1.4-0.3,2c0,0.6-0.1,1.4-0.1,2.3v28.1
		c0,2.4,0.3,4.3,0.9,5.5c0.6,1.3,1.8,1.9,3.6,1.9c0.8,0,1.5-0.2,2.1-0.5c0.6-0.3,1-0.7,1.3-1.1s0.5-1,0.7-1.7c0.2-0.8,0.2-1.4,0.3-2
		c0-0.6,0-1.3,0-2.2v-6.3h13v5.2c0,2.2-0.2,4.1-0.5,5.8c-0.3,1.7-0.9,3.4-1.7,4.9s-1.9,2.8-3.2,3.9c-1.3,1-2.9,1.9-5,2.5
		C252.6,406.9,250.2,407.2,247.6,407.2z"/>
	<path fill="#FFFFFF" stroke="#FFFFFF" stroke-miterlimit="10" d="M296.9,407.2c-3.3,0-6.2-0.4-8.6-1.3s-4.2-2.2-5.6-4
		c-1.4-1.8-2.4-3.8-3-6.2c-0.6-2.4-0.9-5.2-0.9-8.4v-22.2c0-3.2,0.3-6,0.9-8.4c0.6-2.4,1.6-4.4,3-6.2c1.4-1.7,3.3-3.1,5.6-3.9
		s5.2-1.3,8.6-1.3c6.5,0,11.2,1.7,14,5c2.8,3.3,4.2,8.3,4.2,14.8v22.2c0,6.5-1.4,11.5-4.2,14.8C308.1,405.6,303.4,407.2,296.9,407.2
		z M294.8,397.4c0.6,0.3,1.3,0.4,2.1,0.4s1.5-0.1,2.1-0.4c0.6-0.3,1-0.6,1.3-1.1c0.3-0.4,0.6-1,0.7-1.7s0.3-1.3,0.3-1.9
		c0-0.6,0.1-1.3,0.1-2.1v-28.9c0-0.8,0-1.5-0.1-2.1c0-0.6-0.2-1.2-0.3-1.9c-0.2-0.7-0.4-1.2-0.7-1.6c-0.3-0.4-0.8-0.8-1.3-1
		c-0.6-0.3-1.3-0.4-2.1-0.4s-1.5,0.1-2.1,0.4c-0.6,0.3-1,0.6-1.3,1c-0.3,0.4-0.6,0.9-0.7,1.6c-0.2,0.7-0.3,1.3-0.3,1.9
		c0,0.6-0.1,1.3-0.1,2.1v28.9c0,0.8,0,1.6,0.1,2.1c0,0.6,0.1,1.2,0.3,1.9c0.2,0.7,0.4,1.2,0.7,1.7
		C293.8,396.8,294.3,397.1,294.8,397.4z"/>
	<path fill="#FFFFFF" stroke="#FFFFFF" stroke-miterlimit="10" d="M330.6,406.4v-60.2h9.4l12.4,28.9v-28.9h11v60.2h-9l-12.4-31.2
		v31.2H330.6z"/>
	<path fill="#FFFFFF" stroke="#FFFFFF" stroke-miterlimit="10" d="M108.3,496.6c-3.1,0-5.7-0.5-7.8-1.5c-2.2-1-3.9-2.4-5.1-4.3
		c-1.3-1.9-2.2-4.1-2.7-6.5c-0.6-2.5-0.9-5.3-0.9-8.6v-20c0-2.7,0.2-5,0.6-7.2s1-4,1.9-5.8c0.9-1.8,2-3.2,3.4-4.4
		c1.4-1.2,3.1-2.1,5.2-2.7c2.1-0.6,4.4-1,7.2-1c2.6,0,4.9,0.3,6.9,0.8c2,0.6,3.7,1.3,5,2.3s2.4,2.2,3.3,3.7c0.8,1.5,1.5,3.1,1.8,4.9
		c0.4,1.8,0.5,3.7,0.5,5.9v3.8h-13v-4.8c0-0.9,0-1.7-0.1-2.3c0-0.6-0.1-1.2-0.3-1.9c-0.2-0.7-0.4-1.2-0.7-1.6
		c-0.3-0.4-0.7-0.7-1.3-1c-0.6-0.3-1.3-0.4-2.1-0.4c-0.8,0-1.6,0.2-2.2,0.5c-0.6,0.3-1,0.7-1.4,1.1c-0.3,0.4-0.6,1-0.7,1.8
		s-0.3,1.4-0.3,2.1c0,0.6-0.1,1.4-0.1,2.3v27.6c0,2.4,0.4,4.3,1.1,5.7c0.7,1.4,2,2.1,3.9,2.1c3.5,0,5.2-2.7,5.2-8v-6.8h-5.4v-8h17.5
		v31.3h-8.8l-0.8-5C116.2,494.6,113,496.6,108.3,496.6z"/>
	<path fill="#FFFFFF" stroke="#FFFFFF" stroke-miterlimit="10" d="M143.2,495.7v-60.2h13.3v51.2h13.8v9H143.2z"/>
	<path fill="#FFFFFF" stroke="#FFFFFF" stroke-miterlimit="10" d="M180.7,495.7l11.4-60.2h15l11.3,60.2h-12.3l-2.1-12.8h-8.8
		l-2,12.8H180.7z M195.8,430.2l4.6-15h12.4l-9.4,15H195.8z M196.5,474.9h6.4l-3.2-23.3L196.5,474.9z"/>
	<path fill="#FFFFFF" stroke="#FFFFFF" stroke-miterlimit="10" d="M232,495.7v-60.2h9.4l12.4,28.9v-28.9h11v60.2h-9l-12.4-31.2v31.2
		H232z"/>
	<path fill="#FFFFFF" stroke="#FFFFFF" stroke-miterlimit="10" d="M281,495.7v-60.2h15.1c3.9,0,7.2,0.4,9.8,1.1
		c2.6,0.7,4.7,1.9,6.2,3.5c1.5,1.6,2.6,3.6,3.3,5.9c0.6,2.3,0.9,5.2,0.9,8.7v21.7c0,3.5-0.3,6.4-1,8.8c-0.6,2.4-1.7,4.4-3.3,6
		s-3.6,2.8-6.2,3.5c-2.6,0.7-5.8,1.1-9.7,1.1H281z M294.3,486.5h2c1,0,1.9-0.1,2.6-0.2c0.7-0.1,1.3-0.4,1.8-0.7
		c0.5-0.3,0.8-0.7,1.1-1.1c0.3-0.4,0.5-0.9,0.6-1.6c0.1-0.7,0.2-1.4,0.3-2c0-0.6,0.1-1.5,0.1-2.6v-25.9c0-1.5-0.1-2.7-0.2-3.5
		c-0.1-0.8-0.4-1.6-0.8-2.3s-1.1-1.1-1.9-1.4c-0.9-0.3-2-0.4-3.5-0.4h-2V486.5z"/>
	<path fill="#FFFFFF" stroke="#FFFFFF" stroke-miterlimit="10" d="M349.3,496.5c-2.7,0-5.1-0.3-7.2-0.9c-2-0.6-3.7-1.4-5.1-2.4
		c-1.3-1-2.4-2.4-3.3-4.1c-0.8-1.7-1.4-3.5-1.8-5.5c-0.3-2-0.5-4.3-0.5-7v-41.3h13.2v43.2c0,0.9,0,1.8,0.1,2.4
		c0,0.7,0.2,1.4,0.3,2.2s0.4,1.4,0.7,1.9c0.3,0.5,0.8,0.9,1.4,1.2c0.6,0.3,1.3,0.5,2.1,0.5c0.8,0,1.5-0.2,2.1-0.5
		c0.6-0.3,1-0.7,1.3-1.2c0.3-0.5,0.6-1.1,0.7-1.9s0.3-1.5,0.3-2.2c0-0.7,0.1-1.5,0.1-2.4v-43.2h13.2v41.3c0,3.3-0.3,6.2-0.9,8.5
		c-0.6,2.3-1.5,4.4-2.9,6.1c-1.3,1.7-3.2,3-5.5,3.9C355.6,496.1,352.7,496.5,349.3,496.5z"/>
	<path fill="#FFFFFF" stroke="#FFFFFF" stroke-miterlimit="10" d="M383,495.7v-60.2h13.3v51.2h13.8v9H383z"/>
	<path fill="#FFFFFF" stroke="#FFFFFF" stroke-miterlimit="10" d="M420.5,495.7l11.4-60.2h15l11.3,60.2H446l-2.1-12.8h-8.8l-2,12.8
		H420.5z M436.3,474.9h6.4l-3.2-23.3L436.3,474.9z"/>
	<path fill="#FFFFFF" stroke="#FFFFFF" stroke-miterlimit="10" d="M487.8,496.5c-5.7,0-10-1.5-12.8-4.6c-2.8-3-4.3-7.9-4.5-14.6
		l11.4-1.7c0,3.8,0.5,6.5,1.4,8.2c0.9,1.7,2.1,2.6,3.9,2.6c2.3,0,3.4-1.5,3.4-4.4c0-1.6-0.3-3.1-0.9-4.5c-0.6-1.4-1.3-2.5-2.1-3.5
		c-0.8-1-2-2.1-3.6-3.4l-5.3-4.6c-1.3-1.1-2.3-2.1-3.2-3.1c-0.8-0.9-1.7-2-2.5-3.3c-0.8-1.3-1.4-2.7-1.8-4.2
		c-0.4-1.5-0.6-3.3-0.6-5.1c0-5,1.5-8.9,4.5-11.6c3-2.7,7.1-4.1,12.4-4.1c1.8,0,3.4,0.2,4.9,0.6c1.5,0.4,2.7,0.9,3.7,1.5
		c1,0.6,1.9,1.4,2.7,2.4c0.8,1,1.4,1.9,1.8,2.9c0.4,1,0.8,2,1.1,3.2c0.3,1.2,0.5,2.3,0.6,3.3c0.1,1,0.2,2.1,0.2,3.2l-11.5,1.5
		c0-1-0.1-1.9-0.1-2.5c0-0.7-0.1-1.4-0.2-2.1c-0.1-0.8-0.2-1.4-0.4-1.8c-0.2-0.5-0.4-0.9-0.7-1.3s-0.6-0.7-1.1-0.9
		c-0.4-0.2-0.9-0.2-1.5-0.2c-1.2,0-2.1,0.5-2.7,1.5c-0.6,1-0.9,2-0.9,3.2c0,1.1,0.1,2.2,0.4,3.1s0.8,1.8,1.5,2.7
		c0.7,0.9,1.3,1.5,1.7,2c0.4,0.4,1.2,1.1,2.2,2l5.1,4.5c1.4,1.3,2.6,2.5,3.6,3.6c1,1.2,2,2.5,2.9,3.9c0.9,1.5,1.6,3.1,2.1,4.8
		c0.5,1.8,0.7,3.6,0.7,5.6c0,4.4-1.5,8-4.4,10.8C496.3,495.1,492.5,496.5,487.8,496.5z"/>
</g>
</svg>
