<?xml version="1.0" encoding="utf-8"?>
<!-- Generator: Adobe Illustrator 18.0.0, SVG Export Plug-In . SVG Version: 6.00 Build 0)  -->
<!DOCTYPE svg PUBLIC "-//W3C//DTD SVG 1.1//EN" "http://www.w3.org/Graphics/SVG/1.1/DTD/svg11.dtd" [
	<!ENTITY ns_flows "http://ns.adobe.com/Flows/1.0/">
	<!ENTITY ns_extend "http://ns.adobe.com/Extensibility/1.0/">
	<!ENTITY ns_ai "http://ns.adobe.com/AdobeIllustrator/10.0/">
	<!ENTITY ns_graphs "http://ns.adobe.com/Graphs/1.0/">
]>
<svg version="1.1" id="Capa_1" xmlns:x="&ns_extend;" xmlns:i="&ns_ai;" xmlns:graph="&ns_graphs;"
	 xmlns="http://www.w3.org/2000/svg" xmlns:xlink="http://www.w3.org/1999/xlink" xmlns:a="http://ns.adobe.com/AdobeSVGViewerExtensions/3.0/"
	 x="0px" y="0px" viewBox="0 0 595.3 841.9" enable-background="new 0 0 595.3 841.9" xml:space="preserve">
<g>
	<g>
		<path fill="#FFFFFF" stroke="#FFFFFF" stroke-miterlimit="10" d="M53,229.2v-46h6.4V203h11.8v-19.9h6.4v46h-6.4v-21.6H59.4v21.6
			H53z"/>
		<path fill="#FFFFFF" stroke="#FFFFFF" stroke-miterlimit="10" d="M102.2,229.7c-2.3,0-4.3-0.3-5.9-1c-1.6-0.7-2.9-1.7-3.9-3
			s-1.7-2.9-2.1-4.7c-0.4-1.8-0.7-3.8-0.7-6.2v-17.4c0-4.8,1-8.4,2.9-10.9s5.2-3.7,9.6-3.7c4.5,0,7.7,1.2,9.6,3.7s2.9,6.1,2.9,10.9
			v17.5c0,4.8-1,8.5-3,11C109.9,228.4,106.7,229.7,102.2,229.7z M99.1,224c0.8,0.4,1.9,0.6,3.1,0.6c1.3,0,2.3-0.2,3.1-0.6
			c0.8-0.4,1.4-1,1.9-1.8c0.4-0.8,0.7-1.7,0.9-2.6c0.2-1,0.2-2.1,0.2-3.5V196c0-1.4-0.1-2.5-0.2-3.5c-0.2-0.9-0.4-1.8-0.9-2.6
			c-0.4-0.8-1.1-1.3-1.9-1.7c-0.8-0.4-1.9-0.5-3.1-0.5c-1.3,0-2.3,0.2-3.1,0.5c-0.8,0.4-1.4,0.9-1.9,1.7c-0.4,0.8-0.7,1.6-0.9,2.6
			c-0.2,0.9-0.2,2.1-0.2,3.5v20.1c0,1.4,0.1,2.6,0.2,3.5c0.2,1,0.4,1.8,0.9,2.6C97.7,223.1,98.3,223.7,99.1,224z"/>
		<path fill="#FFFFFF" stroke="#FFFFFF" stroke-miterlimit="10" d="M123.6,230.2v-4.6c1.5,0,2.6-0.1,3.4-0.3c0.8-0.2,1.5-0.5,2-1.1
			c0.5-0.5,0.9-1.2,1-2.1c0.2-0.9,0.2-2,0.2-3.6v-35.5h6.4v35.6c0,2.1-0.2,3.8-0.5,5.1c-0.3,1.4-0.8,2.5-1.6,3.5
			c-0.8,1-1.8,1.7-3.1,2.1c-1.3,0.4-2.9,0.7-4.9,0.7H123.6z"/>
		<path fill="#FFFFFF" stroke="#FFFFFF" stroke-miterlimit="10" d="M147.1,229.2l9.8-46h6.2l9.8,46h-6.1l-2.1-11.6h-9.4l-2.2,11.6
			H147.1z M156.2,213h7.7l-3.9-20.8L156.2,213z"/>
		<path fill="#FFFFFF" stroke="#FFFFFF" stroke-miterlimit="10" d="M194.1,229.7c-3.9,0-6.8-1.2-8.8-3.6c-2-2.4-3.2-5.7-3.4-9.8
			l5.7-1.6c0.4,6.6,2.6,9.9,6.5,9.9c1.6,0,2.9-0.5,3.8-1.4s1.3-2.3,1.3-4c0-1-0.1-1.9-0.3-2.7c-0.2-0.8-0.6-1.6-1.1-2.3
			c-0.5-0.7-1-1.4-1.5-1.8s-1.1-1.1-2-2l-7.7-6.9c-1.6-1.4-2.7-2.9-3.4-4.5c-0.7-1.6-1.1-3.5-1.1-5.7c0-3.3,1-5.9,2.9-7.8
			c1.9-1.9,4.6-2.8,7.9-2.8c3.7-0.1,6.4,0.9,8.3,2.8c1.8,2,2.9,5,3.3,9.1l-5.4,1.5c-0.1-1-0.2-1.9-0.3-2.7c-0.1-0.8-0.3-1.6-0.6-2.3
			c-0.3-0.8-0.7-1.4-1.1-1.9c-0.4-0.5-1-0.9-1.7-1.2c-0.7-0.3-1.5-0.4-2.4-0.3c-3.4,0.2-5.1,1.9-5.1,5.1c0,1.4,0.2,2.5,0.7,3.4
			c0.5,0.9,1.2,1.9,2.3,2.9l7.8,6.9c2,1.8,3.6,3.8,4.8,5.8c1.2,2.1,1.8,4.4,1.8,7c0,3.4-1,6-3.1,8
			C200,228.7,197.4,229.7,194.1,229.7z"/>
		<path fill="#FFFFFF" stroke="#FFFFFF" stroke-miterlimit="10" d="M245.5,229.7c-4.2,0-7.2-1.3-9-4c-1.9-2.6-2.8-6.5-2.8-11.7
			v-15.4c0-2.1,0.1-4,0.3-5.5s0.6-3.1,1.2-4.4c0.6-1.3,1.3-2.5,2.2-3.3c0.9-0.9,2.1-1.5,3.5-2c1.4-0.5,3.1-0.7,5-0.7
			c4.3,0,7.3,1.1,9.2,3.2c1.9,2.2,2.8,5.6,2.8,10.2v1.7h-6v-1.4c0-1.3,0-2.4-0.1-3.2c-0.1-0.8-0.2-1.6-0.5-2.4
			c-0.2-0.8-0.6-1.3-1-1.8c-0.4-0.4-1-0.7-1.7-1s-1.6-0.4-2.6-0.4c-0.8,0-1.5,0.1-2.1,0.3c-0.6,0.2-1.1,0.4-1.6,0.7
			s-0.8,0.7-1.1,1.2s-0.5,1-0.7,1.5c-0.2,0.5-0.3,1.1-0.4,1.9c-0.1,0.8-0.1,1.5-0.2,2.1c0,0.6,0,1.4,0,2.4v17c0,3.5,0.4,6.1,1.3,7.6
			c0.9,1.5,2.5,2.3,4.9,2.3c2.4,0,4.1-0.8,4.9-2.5c0.9-1.7,1.3-4.3,1.3-8v-3.2h-5.8v-4.6h11.7v22.8h-4.1l-0.6-5.3
			C252.3,227.8,249.5,229.7,245.5,229.7z"/>
		<path fill="#FFFFFF" stroke="#FFFFFF" stroke-miterlimit="10" d="M270.6,229.2v-46h9.2c4.7,0,8.1,1,10.3,2.9s3.3,5,3.3,9.3
			c0,5.9-1.9,9.5-5.7,10.7l6.6,23.1H288l-6-21.6h-5v21.6H270.6z M277,203h2.4c2.8,0,4.8-0.5,6-1.7s1.8-3.1,1.8-6
			c0-2.8-0.5-4.8-1.5-5.9c-1-1.1-3-1.7-5.8-1.7H277V203z"/>
		<path fill="#FFFFFF" stroke="#FFFFFF" stroke-miterlimit="10" d="M303.3,229.2l9.8-46h6.2l9.8,46H323l-2.1-11.6h-9.4l-2.2,11.6
			H303.3z M312.4,213h7.7l-3.9-20.8L312.4,213z"/>
		<path fill="#FFFFFF" stroke="#FFFFFF" stroke-miterlimit="10" d="M339.4,229.2v-46h4.4l13.1,30.6v-30.6h5.4v46h-4.1l-13.3-31.4
			v31.4H339.4z"/>
		<path fill="#FFFFFF" stroke="#FFFFFF" stroke-miterlimit="10" d="M375.1,229.2v-46h10c5,0,8.5,1.1,10.5,3.4
			c2,2.3,3.1,5.8,3.1,10.7v16.9c0,5-1,8.8-3,11.3c-2,2.5-5.4,3.7-10.1,3.7H375.1z M381.5,224.5h3.6c1,0,1.8-0.1,2.6-0.3
			c0.7-0.2,1.4-0.4,1.9-0.7c0.5-0.3,0.9-0.7,1.3-1.3c0.3-0.6,0.6-1.1,0.8-1.6c0.2-0.5,0.3-1.2,0.4-2.2c0.1-1,0.1-1.8,0.2-2.5
			c0-0.7,0-1.7,0-3v-15c0-1.1,0-2-0.1-2.8s-0.1-1.5-0.2-2.3c-0.1-0.8-0.3-1.4-0.5-1.9c-0.2-0.5-0.5-0.9-0.9-1.4
			c-0.4-0.4-0.8-0.8-1.3-1c-0.5-0.2-1.1-0.4-1.8-0.5c-0.7-0.1-1.5-0.2-2.5-0.2h-3.5V224.5z"/>
		<path fill="#FFFFFF" stroke="#FFFFFF" stroke-miterlimit="10" d="M410.7,229.2v-46h17.8v4.7h-11.4v15.2h9.3v4.6h-9.3v16.9h11.5
			v4.6H410.7z"/>
		<path fill="#FFFFFF" stroke="#FFFFFF" stroke-miterlimit="10" d="M450.4,229.7c-3.9,0-6.8-1.2-8.8-3.6c-2-2.4-3.2-5.7-3.4-9.8
			l5.7-1.6c0.4,6.6,2.6,9.9,6.5,9.9c1.6,0,2.9-0.5,3.8-1.4s1.3-2.3,1.3-4c0-1-0.1-1.9-0.3-2.7c-0.2-0.8-0.6-1.6-1.1-2.3
			c-0.5-0.7-1-1.4-1.5-1.8s-1.1-1.1-2-2l-7.7-6.9c-1.6-1.4-2.7-2.9-3.4-4.5c-0.7-1.6-1.1-3.5-1.1-5.7c0-3.3,1-5.9,2.9-7.8
			c1.9-1.9,4.6-2.8,7.9-2.8c3.7-0.1,6.4,0.9,8.3,2.8c1.8,2,2.9,5,3.3,9.1l-5.4,1.5c-0.1-1-0.2-1.9-0.3-2.7c-0.1-0.8-0.3-1.6-0.6-2.3
			c-0.3-0.8-0.7-1.4-1.1-1.9c-0.4-0.5-1-0.9-1.7-1.2c-0.7-0.3-1.5-0.4-2.4-0.3c-3.4,0.2-5.1,1.9-5.1,5.1c0,1.4,0.2,2.5,0.7,3.4
			c0.5,0.9,1.2,1.9,2.3,2.9l7.8,6.9c2,1.8,3.6,3.8,4.8,5.8c1.2,2.1,1.8,4.4,1.8,7c0,3.4-1,6-3.1,8
			C456.3,228.7,453.7,229.7,450.4,229.7z"/>
	</g>
	<g opacity="0.51"  a:adobe-blending-mode="multiply">
		<circle fill="#7CAA9A"  a:adobe-blending-mode="normal" cx="428.3" cy="545.2" r="114"/>
	</g>
	<g>
		<g>
			<g>
				<path fill="#59704B" d="M136.1,537.6c17.8,11.1,17.7,7.3,31,13.9c13.3,6.6,28.5,8,43.4,9.2c35.4,2.9,72.3,5.1,105.2-8.3
					c46.7-19,75.8-65.5,97.1-111.2s38.7-95,74-131c-33.5-14.8-72.1-15.5-107.9-7.8c-35.9,7.7-69.5,23.4-102,40.3
					c-51.6,26.9-102.6,58.5-137.1,105.4c-10,13.5-18.6,28.9-19.2,45.7C119.9,510.6,110.4,515,136.1,537.6"/>
			</g>
		</g>
		<g>
			<g>
				<path fill="#59704B" d="M100.1,572.7c7.7-12.1,15.3-24.2,23-36.2c6.2-9.5,15.5-21.7,28.5-18.4c0-3.2,0-6.4,0-9.6
					c-40.4,13.5-68.3,56.2-63.3,98.7c0.7,6.3,10.8,6.4,10,0c-4.5-38,19.4-76.9,55.9-89.1c4.5-1.5,5-8.4,0-9.6
					c-14.4-3.7-26.8,5.1-35.1,16.1c-10.2,13.6-18.6,28.7-27.7,43C88,573.1,96.7,578.1,100.1,572.7L100.1,572.7z"/>
			</g>
		</g>
	</g>
	<g>
		<g>
			<path fill="#FFFFFF" stroke="#FFFFFF" stroke-miterlimit="10" d="M439.6,576.3c-0.8,1.9-2,3.6-3.4,5.1c-1.5,1.5-3.1,2.6-5.1,3.4
				s-4,1.2-6.2,1.2h-2.8c-2.2,0-4.3-0.4-6.2-1.2c-2-0.8-3.7-2-5.1-3.4c-1.5-1.5-2.6-3.1-3.4-5.1c-0.8-1.9-1.2-4-1.2-6.2v-1.7
				l5.9-0.9v2.6c0,1.5,0.3,2.8,0.8,4.1c0.5,1.3,1.3,2.4,2.2,3.3c1,1,2.1,1.7,3.3,2.2c1.3,0.5,2.6,0.8,4.1,0.8h2.2
				c1.5,0,2.8-0.3,4.1-0.8s2.4-1.3,3.3-2.2c0.9-1,1.7-2.1,2.2-3.3c0.5-1.3,0.8-2.6,0.8-4.1v-5.4c0-1.5-0.3-2.8-0.8-4.1
				c-0.5-1.3-1.3-2.4-2.2-3.3c-0.9-0.9-2-1.7-3.3-2.2c-1.3-0.5-2.6-0.8-4.1-0.8h-4.4v-5.6h4.4c1.5,0,2.8-0.3,4.1-0.8
				s2.4-1.3,3.3-2.2c0.9-0.9,1.7-2,2.2-3.3c0.5-1.3,0.8-2.6,0.8-4.1v-3.2c0-1.5-0.3-2.8-0.8-4.1s-1.3-2.4-2.2-3.3
				c-0.9-0.9-2-1.7-3.3-2.2s-2.6-0.8-4.1-0.8h-2.2c-1.5,0-2.8,0.3-4.1,0.8c-1.3,0.5-2.4,1.3-3.3,2.2c-1,0.9-1.7,2-2.2,3.3
				c-0.5,1.3-0.8,2.6-0.8,4.1v2.6l-5.9-1v-1.7c0-2.2,0.4-4.3,1.2-6.2c0.8-1.9,2-3.6,3.4-5.1c1.5-1.5,3.2-2.6,5.1-3.4
				c2-0.8,4-1.2,6.2-1.2h2.8c2.2,0,4.3,0.4,6.2,1.2c1.9,0.8,3.6,2,5.1,3.4s2.6,3.1,3.4,5.1c0.8,1.9,1.2,4,1.2,6.2v2.2
				c0,1.5-0.2,3-0.6,4.4c-0.4,1.4-1,2.7-1.7,3.9c-0.7,1.2-1.6,2.3-2.7,3.3c-1,1-2.2,1.8-3.4,2.5c1.3,0.7,2.4,1.5,3.4,2.5
				c1,1,1.9,2.1,2.7,3.3c0.7,1.2,1.3,2.5,1.7,3.9c0.4,1.4,0.6,2.9,0.6,4.4v4.4C440.9,572.3,440.4,574.4,439.6,576.3z"/>
		</g>
		<g>
			<path fill="#FFFFFF" stroke="#FFFFFF" stroke-miterlimit="10" d="M466.3,581.5c-0.3,0.8-0.8,1.4-1.3,2c-0.6,0.6-1.2,1-2,1.3
				c-0.8,0.3-1.6,0.5-2.4,0.5h-1.8c-0.9,0-1.7-0.2-2.4-0.5c-0.8-0.3-1.4-0.8-2-1.3c-0.6-0.6-1-1.2-1.3-2s-0.5-1.6-0.5-2.4v-13.7
				c0-0.9,0.2-1.7,0.5-2.4s0.8-1.4,1.3-2c0.6-0.6,1.2-1,2-1.3c0.8-0.3,1.6-0.5,2.4-0.5h1.8c0.9,0,1.7,0.2,2.4,0.5s1.4,0.8,2,1.3
				c0.6,0.6,1,1.2,1.3,2c0.3,0.8,0.5,1.6,0.5,2.4v1l-2.3,0.4v-1.4c0-0.6-0.1-1.1-0.3-1.6c-0.2-0.5-0.5-0.9-0.9-1.3
				c-0.4-0.4-0.8-0.7-1.3-0.9s-1-0.3-1.6-0.3h-1.6c-0.6,0-1.1,0.1-1.6,0.3s-0.9,0.5-1.3,0.9c-0.4,0.4-0.7,0.8-0.9,1.3
				c-0.2,0.5-0.3,1-0.3,1.6v13.7c0,0.6,0.1,1.1,0.3,1.6s0.5,0.9,0.9,1.3s0.8,0.7,1.3,0.9s1,0.3,1.6,0.3h1.6c0.6,0,1.1-0.1,1.6-0.3
				s0.9-0.5,1.3-0.9s0.7-0.8,0.9-1.3s0.3-1,0.3-1.6v-1.4l2.3,0.4v1C466.8,579.9,466.7,580.7,466.3,581.5z"/>
			<path fill="#FFFFFF" stroke="#FFFFFF" stroke-miterlimit="10" d="M494.8,585v-17.4l-0.2,1.1l-5.9,16.4h-1.2l-6-16.4l-0.1-1.1V585
				h-2.3v-25.4h1.2l7.7,20.9l0.1,0.9l0.1-0.9l7.7-20.9h1.2V585H494.8z"/>
		</g>
		<g>
			<g>
				<line fill="#FFFFFF" x1="362.3" y1="555" x2="404.3" y2="555"/>
				<rect x="362.3" y="551" fill="#FFFFFF" width="42" height="8"/>
			</g>
			<g>
				<line fill="#FFFFFF" x1="383.3" y1="534.2" x2="383.3" y2="576.2"/>
				<rect x="379.3" y="534.2" fill="#FFFFFF" width="8" height="42"/>
			</g>
		</g>
	</g>
</g>
</svg>
