<?xml version="1.0" encoding="utf-8"?>
<!-- Generator: Adobe Illustrator 18.0.0, SVG Export Plug-In . SVG Version: 6.00 Build 0)  -->
<!DOCTYPE svg PUBLIC "-//W3C//DTD SVG 1.1//EN" "http://www.w3.org/Graphics/SVG/1.1/DTD/svg11.dtd" [
	<!ENTITY ns_flows "http://ns.adobe.com/Flows/1.0/">
	<!ENTITY ns_extend "http://ns.adobe.com/Extensibility/1.0/">
	<!ENTITY ns_ai "http://ns.adobe.com/AdobeIllustrator/10.0/">
	<!ENTITY ns_graphs "http://ns.adobe.com/Graphs/1.0/">
]>
<svg version="1.1" id="Capa_1" xmlns:x="&ns_extend;" xmlns:i="&ns_ai;" xmlns:graph="&ns_graphs;"
	 xmlns="http://www.w3.org/2000/svg" xmlns:xlink="http://www.w3.org/1999/xlink" xmlns:a="http://ns.adobe.com/AdobeSVGViewerExtensions/3.0/"
	 x="0px" y="0px" viewBox="0 0 595.3 841.9" enable-background="new 0 0 595.3 841.9" xml:space="preserve">
<g>
	<g>
		<path fill="#FFFFFF" stroke="#FFFFFF" stroke-miterlimit="10" d="M176,231.1v-60.2h13.3v24.3h9.3v-24.3h13.3v60.2h-13.3v-26.4
			h-9.3v26.4H176z"/>
		<path fill="#FFFFFF" stroke="#FFFFFF" stroke-miterlimit="10" d="M245.8,232c-3.3,0-6.2-0.4-8.6-1.3s-4.2-2.2-5.6-4
			c-1.4-1.8-2.4-3.8-3-6.2s-0.9-5.2-0.9-8.4v-22.2c0-3.2,0.3-6,0.9-8.4c0.6-2.4,1.6-4.4,3-6.2c1.4-1.7,3.3-3.1,5.6-3.9
			s5.2-1.3,8.6-1.3c6.5,0,11.2,1.7,14,5c2.8,3.3,4.2,8.3,4.2,14.8v22.2c0,6.5-1.4,11.5-4.2,14.8C256.9,230.3,252.3,232,245.8,232z
			 M243.7,222.1c0.6,0.3,1.3,0.4,2.1,0.4s1.5-0.1,2.1-0.4c0.6-0.3,1-0.6,1.3-1.1c0.3-0.4,0.6-1,0.7-1.7s0.3-1.3,0.3-1.9
			s0.1-1.3,0.1-2.1v-28.9c0-0.8,0-1.5-0.1-2.1c0-0.6-0.2-1.2-0.3-1.9c-0.2-0.7-0.4-1.2-0.7-1.6c-0.3-0.4-0.8-0.8-1.3-1
			c-0.6-0.3-1.3-0.4-2.1-0.4s-1.5,0.1-2.1,0.4s-1,0.6-1.3,1c-0.3,0.4-0.6,0.9-0.7,1.6c-0.2,0.7-0.3,1.3-0.3,1.9
			c0,0.6-0.1,1.3-0.1,2.1v28.9c0,0.8,0,1.6,0.1,2.1s0.1,1.2,0.3,1.9c0.2,0.7,0.4,1.2,0.7,1.7C242.7,221.5,243.1,221.8,243.7,222.1z"
			/>
		<path fill="#FFFFFF" stroke="#FFFFFF" stroke-miterlimit="10" d="M275.9,232.6v-9.3c0.2,0,0.3,0,0.5,0c2.6,0,4.3-0.4,5.3-1.1
			c1-0.8,1.5-2.5,1.5-5v-46.3h13.3v46.8c0,2.6-0.3,4.8-0.7,6.5c-0.4,1.8-1.2,3.3-2.3,4.6c-1.1,1.3-2.5,2.2-4.3,2.9s-4.1,0.9-6.8,0.9
			H275.9z"/>
		<path fill="#FFFFFF" stroke="#FFFFFF" stroke-miterlimit="10" d="M310,231.1l11.4-60.2h15l11.3,60.2h-12.3l-2.1-12.8h-8.8l-2,12.8
			H310z M325.8,210.4h6.4L329,187L325.8,210.4z"/>
		<path fill="#FFFFFF" stroke="#FFFFFF" stroke-miterlimit="10" d="M377.2,232c-5.7,0-10-1.5-12.8-4.6c-2.8-3-4.3-7.9-4.5-14.6
			l11.4-1.7c0,3.8,0.5,6.5,1.4,8.2c0.9,1.7,2.1,2.6,3.9,2.6c2.3,0,3.4-1.5,3.4-4.4c0-1.6-0.3-3.1-0.9-4.5c-0.6-1.4-1.3-2.5-2.1-3.5
			c-0.8-1-2-2.1-3.6-3.4l-5.3-4.6c-1.3-1.1-2.3-2.1-3.2-3.1c-0.8-0.9-1.7-2-2.5-3.3s-1.4-2.7-1.8-4.2s-0.6-3.3-0.6-5.1
			c0-5,1.5-8.9,4.5-11.6c3-2.7,7.1-4.1,12.4-4.1c1.8,0,3.4,0.2,4.9,0.6c1.5,0.4,2.7,0.9,3.7,1.5c1,0.6,1.9,1.4,2.7,2.4
			c0.8,1,1.4,1.9,1.8,2.9c0.4,1,0.8,2,1.1,3.2c0.3,1.2,0.5,2.3,0.6,3.3s0.2,2.1,0.2,3.2l-11.5,1.5c0-1-0.1-1.9-0.1-2.5
			c0-0.7-0.1-1.4-0.2-2.1c-0.1-0.8-0.2-1.4-0.4-1.8c-0.2-0.5-0.4-0.9-0.7-1.3s-0.6-0.7-1.1-0.9c-0.4-0.2-0.9-0.2-1.5-0.2
			c-1.2,0-2.1,0.5-2.7,1.5c-0.6,1-0.9,2-0.9,3.2c0,1.1,0.1,2.2,0.4,3.1s0.8,1.8,1.5,2.7c0.7,0.9,1.3,1.5,1.7,2
			c0.4,0.4,1.2,1.1,2.2,2l5.1,4.5c1.4,1.3,2.6,2.5,3.6,3.6c1,1.2,2,2.5,2.9,3.9c0.9,1.5,1.6,3.1,2.1,4.8c0.5,1.8,0.7,3.6,0.7,5.6
			c0,4.4-1.5,8-4.4,10.8S381.9,232,377.2,232z"/>
		<path fill="#FFFFFF" stroke="#FFFFFF" stroke-miterlimit="10" d="M40.7,320.4v-60.2h16.4c2.5,0,4.8,0.1,6.8,0.4
			c2,0.3,3.8,0.8,5.5,1.5c1.7,0.7,3.1,1.7,4.2,2.9c1.1,1.2,2,2.7,2.6,4.6s0.9,4,0.9,6.5c0,3.9-0.5,7.1-1.6,9.5
			c-1.1,2.4-3,4.3-5.8,5.6l8.3,29.2H64.4l-6.6-27H54v27H40.7z M54,285.8h3.4c2.7,0,4.6-0.7,5.7-2.1c1.1-1.4,1.7-3.5,1.7-6.4
			c0-2.8-0.5-4.9-1.5-6.2c-1-1.3-2.7-2-5.2-2H54V285.8z"/>
		<path fill="#FFFFFF" stroke="#FFFFFF" stroke-miterlimit="10" d="M92.7,320.4v-60.2h27.1v9.1H106v14.9h10.5v9.3H106v18h13.9v9
			H92.7z"/>
		<path fill="#FFFFFF" stroke="#FFFFFF" stroke-miterlimit="10" d="M133.3,320.4v-60.2h15.2c3.9,0,7.2,0.4,9.8,1.1
			c2.6,0.7,4.7,1.9,6.2,3.5c1.5,1.6,2.6,3.6,3.3,5.9c0.6,2.3,0.9,5.2,0.9,8.7V301c0,3.5-0.3,6.4-1,8.8s-1.7,4.4-3.3,6
			c-1.5,1.6-3.6,2.8-6.2,3.5c-2.6,0.7-5.8,1.1-9.7,1.1H133.3z M146.6,311.2h2c1,0,1.9-0.1,2.6-0.2c0.7-0.1,1.3-0.4,1.8-0.7
			c0.5-0.3,0.8-0.7,1.1-1.1c0.3-0.4,0.5-0.9,0.6-1.6c0.1-0.7,0.2-1.4,0.3-2s0.1-1.5,0.1-2.6V277c0-1.5-0.1-2.7-0.2-3.5
			c-0.1-0.8-0.4-1.6-0.8-2.3s-1.1-1.1-1.9-1.4c-0.9-0.3-2-0.4-3.5-0.4h-2V311.2z"/>
		<path fill="#FFFFFF" stroke="#FFFFFF" stroke-miterlimit="10" d="M201.5,321.2c-3.3,0-6.2-0.4-8.6-1.3s-4.2-2.2-5.6-4
			s-2.4-3.8-3-6.2c-0.6-2.4-0.9-5.2-0.9-8.4v-22.2c0-3.2,0.3-6,0.9-8.4c0.6-2.4,1.6-4.4,3-6.2c1.4-1.7,3.3-3.1,5.6-3.9
			s5.2-1.3,8.6-1.3c6.5,0,11.2,1.7,14,5c2.8,3.3,4.2,8.3,4.2,14.8v22.2c0,6.5-1.4,11.5-4.2,14.8C212.7,319.6,208,321.2,201.5,321.2z
			 M199.5,311.4c0.6,0.3,1.3,0.4,2.1,0.4s1.5-0.1,2.1-0.4c0.6-0.3,1-0.6,1.3-1.1c0.3-0.4,0.6-1,0.7-1.7s0.3-1.3,0.3-1.9
			c0-0.6,0.1-1.3,0.1-2.1v-28.9c0-0.8,0-1.5-0.1-2.1c0-0.6-0.2-1.2-0.3-1.9c-0.2-0.7-0.4-1.2-0.7-1.6c-0.3-0.4-0.8-0.8-1.3-1
			c-0.6-0.3-1.3-0.4-2.1-0.4s-1.5,0.1-2.1,0.4c-0.6,0.3-1,0.6-1.3,1c-0.3,0.4-0.6,0.9-0.7,1.6c-0.2,0.7-0.3,1.3-0.3,1.9
			c0,0.6-0.1,1.3-0.1,2.1v28.9c0,0.8,0,1.6,0.1,2.1c0,0.6,0.1,1.2,0.3,1.9s0.4,1.2,0.7,1.7S198.9,311.1,199.5,311.4z"/>
		<path fill="#FFFFFF" stroke="#FFFFFF" stroke-miterlimit="10" d="M235.2,320.4v-60.2h9.4l12.4,28.9v-28.9h11v60.2h-9l-12.4-31.2
			v31.2H235.2z"/>
		<path fill="#FFFFFF" stroke="#FFFFFF" stroke-miterlimit="10" d="M284.3,320.4v-60.2h15.2c3.9,0,7.2,0.4,9.8,1.1
			c2.6,0.7,4.7,1.9,6.2,3.5c1.5,1.6,2.6,3.6,3.3,5.9c0.6,2.3,0.9,5.2,0.9,8.7V301c0,3.5-0.3,6.4-1,8.8c-0.6,2.4-1.7,4.4-3.3,6
			s-3.6,2.8-6.2,3.5c-2.6,0.7-5.8,1.1-9.7,1.1H284.3z M297.6,311.2h2c1,0,1.9-0.1,2.6-0.2c0.7-0.1,1.3-0.4,1.8-0.7
			c0.5-0.3,0.8-0.7,1.1-1.1c0.3-0.4,0.5-0.9,0.6-1.6c0.1-0.7,0.2-1.4,0.3-2c0-0.6,0.1-1.5,0.1-2.6V277c0-1.5-0.1-2.7-0.2-3.5
			c-0.1-0.8-0.4-1.6-0.8-2.3c-0.4-0.7-1.1-1.1-1.9-1.4c-0.9-0.3-2-0.4-3.5-0.4h-2V311.2z"/>
		<path fill="#FFFFFF" stroke="#FFFFFF" stroke-miterlimit="10" d="M335.2,320.4v-60.2h27.1v9.1h-13.8v14.9H359v9.3h-10.5v18h13.9v9
			H335.2z"/>
		<path fill="#FFFFFF" stroke="#FFFFFF" stroke-miterlimit="10" d="M373,320.4l11.4-60.2h15l11.3,60.2h-12.3l-2.1-12.8h-8.8l-2,12.8
			H373z M388.8,299.7h6.4l-3.2-23.3L388.8,299.7z"/>
		<path fill="#FFFFFF" stroke="#FFFFFF" stroke-miterlimit="10" d="M424.2,320.4v-60.2h15.2c3.9,0,7.2,0.4,9.8,1.1
			c2.6,0.7,4.7,1.9,6.2,3.5c1.5,1.6,2.6,3.6,3.3,5.9c0.6,2.3,0.9,5.2,0.9,8.7V301c0,3.5-0.3,6.4-1,8.8s-1.7,4.4-3.3,6
			c-1.5,1.6-3.6,2.8-6.2,3.5c-2.6,0.7-5.8,1.1-9.7,1.1H424.2z M437.5,311.2h2c1,0,1.9-0.1,2.6-0.2c0.7-0.1,1.3-0.4,1.8-0.7
			c0.5-0.3,0.8-0.7,1.1-1.1c0.3-0.4,0.5-0.9,0.6-1.6c0.1-0.7,0.2-1.4,0.3-2s0.1-1.5,0.1-2.6V277c0-1.5-0.1-2.7-0.2-3.5
			c-0.1-0.8-0.4-1.6-0.8-2.3s-1.1-1.1-1.9-1.4c-0.9-0.3-2-0.4-3.5-0.4h-2V311.2z"/>
		<path fill="#FFFFFF" stroke="#FFFFFF" stroke-miterlimit="10" d="M471.5,320.4l11.4-60.2h15l11.3,60.2H497l-2.1-12.8h-8.8l-2,12.8
			H471.5z M487.3,299.7h6.4l-3.2-23.3L487.3,299.7z"/>
		<path fill="#FFFFFF" stroke="#FFFFFF" stroke-miterlimit="10" d="M538.7,321.2c-5.7,0-10-1.5-12.8-4.6c-2.8-3-4.3-7.9-4.5-14.6
			l11.4-1.7c0,3.8,0.5,6.5,1.4,8.2c0.9,1.7,2.2,2.6,3.9,2.6c2.3,0,3.4-1.5,3.4-4.4c0-1.6-0.3-3.1-0.9-4.5c-0.6-1.4-1.3-2.5-2.1-3.5
			c-0.8-1-2-2.1-3.6-3.4l-5.3-4.6c-1.3-1.1-2.3-2.1-3.2-3.1c-0.8-0.9-1.7-2-2.5-3.3c-0.8-1.3-1.4-2.7-1.8-4.2
			c-0.4-1.5-0.6-3.3-0.6-5.1c0-5,1.5-8.9,4.5-11.6c3-2.7,7.1-4.1,12.4-4.1c1.8,0,3.4,0.2,4.9,0.6c1.5,0.4,2.7,0.9,3.7,1.5
			c1,0.6,1.9,1.4,2.7,2.4c0.8,1,1.4,1.9,1.8,2.9c0.4,1,0.8,2,1.1,3.2c0.3,1.2,0.5,2.3,0.6,3.3c0.1,1,0.2,2.1,0.2,3.2l-11.5,1.5
			c0-1-0.1-1.9-0.1-2.5c0-0.7-0.1-1.4-0.2-2.1c-0.1-0.8-0.2-1.4-0.4-1.8c-0.2-0.5-0.4-0.9-0.7-1.3c-0.3-0.4-0.6-0.7-1.1-0.9
			c-0.4-0.2-0.9-0.2-1.5-0.2c-1.2,0-2.1,0.5-2.7,1.5c-0.6,1-0.9,2-0.9,3.2c0,1.1,0.1,2.2,0.4,3.1c0.3,0.9,0.8,1.8,1.5,2.7
			s1.3,1.5,1.7,2c0.4,0.4,1.2,1.1,2.2,2l5.1,4.5c1.4,1.3,2.6,2.5,3.6,3.6c1,1.2,2,2.5,2.9,3.9c0.9,1.5,1.6,3.1,2.1,4.8
			c0.5,1.8,0.7,3.6,0.7,5.6c0,4.4-1.5,8-4.4,10.8C547.3,319.8,543.5,321.2,538.7,321.2z"/>
	</g>
	<g>
		<g>
			<g>
				<g>
					<path fill="#59704B" d="M230.6,641.6c7.6-8.2,15.1-16.5,22.7-24.7c5.9-6.3,14.9-15.7,24.5-11.5c0.4-3,0.8-6.1,1.2-9.1
						c-34.6,5.2-62,36.2-64.1,70.8c-0.4,6.4,9.6,6.4,10,0c1.9-30.6,26.7-56.7,56.8-61.2c4.1-0.6,5-7.5,1.2-9.1
						c-11.1-4.9-22-0.7-30.7,7c-10.4,9.2-19.3,20.5-28.7,30.8C219.1,639.2,226.2,646.3,230.6,641.6L230.6,641.6z"/>
				</g>
			</g>
			<g>
				<g>
					<path fill="#59704B" d="M232.2,601.5c-14.1-14.1-22.6-40.9-17.7-67.5c3.2-16.9,9.8-32.8,19.9-46.7c22-30.4,48.9-59.3,84.1-72.4
						c28.3-10.5,59.3-9.9,89.5-9.1c20.9,0.5,46.3,4,54.2,23.4c2.8,6.8,2.7,14.5,2.3,21.8c-3,49.5-20.1,98-48.8,138.4
						c-6.9,9.7-14.5,19-24.2,25.8c-14.8,10.4-33.1,14.3-51.1,16.3c-22.1,2.5-44.9,2.7-66.3-3.7c-21.3-6.4-41.2-19.9-51.7-39.6"/>
				</g>
				<g>
					<g>
						<path fill="#59704B" d="M232.6,601.1c-17.6-18.1-22-46.4-16.8-70.3c5.5-25.6,20.2-46.5,37.1-66c15.6-18.1,33.9-34.5,55.7-45
							c24.8-11.9,52.4-13.9,79.5-13.7c20.5,0.1,46.7-1.8,64.1,11.2c11,8.2,12.6,20.9,11.8,33.8c-0.8,13.2-2.6,26.3-5.3,39.2
							c-5.4,25.3-14.5,49.8-26.9,72.5c-12.1,22.1-27.2,46.6-50.6,57.9c-13.8,6.6-29.2,9.2-44.3,10.7c-15.3,1.6-30.9,1.9-46.2-0.4
							c-27.3-4.2-53.9-18-67.6-42.9c-0.4-0.7-1.5-0.1-1.1,0.6c26.5,48.4,92.9,51.5,140.5,39.8c12.7-3.1,24.9-8.3,34.9-16.9
							c9.9-8.5,17.7-19.4,24.8-30.3c15.2-23.2,26.6-48.8,34-75.5c3.5-12.8,6.1-25.9,7.7-39.1c1.5-12.3,4-27.1-1.5-38.8
							c-8.6-18.4-32.4-21.5-50.3-22.3c-28.2-1.3-57.7-1.8-85.1,6.1c-24.7,7.2-46.1,22.3-64,40.5c-20.3,20.7-39.7,45-47.2,73.5
							c-6.8,25.8-3.4,56.7,16,76.5C232.3,602.5,233.2,601.7,232.6,601.1L232.6,601.1z"/>
					</g>
				</g>
			</g>
		</g>
		<g opacity="0.4">
			<g>
				<path fill="#8B9D80" d="M255.9,602.1c29.2-58.6,76.9-107.4,134.6-138.5c16.5-8.9,33.7-16.2,51.5-22c-0.2-0.8-0.4-1.6-0.7-2.4
					c-61.2,24.7-115.6,65.5-156.6,117.3c-11.4,14.4-21.7,29.6-30.9,45.5c-0.8,1.4,1.4,2.7,2.2,1.3c32.6-56.4,79.8-103.8,135.9-136.9
					c16.1-9.5,32.9-17.8,50.2-24.8c1.5-0.6,0.9-2.9-0.7-2.4c-62.8,20.4-118.5,60.8-158.1,113.7c-11.3,15.1-21.1,31.2-29.5,48
					C253,602.3,255.2,603.5,255.9,602.1L255.9,602.1z"/>
			</g>
		</g>
	</g>
</g>
</svg>
