<?xml version="1.0" encoding="utf-8"?>
<!-- Generator: Adobe Illustrator 18.0.0, SVG Export Plug-In . SVG Version: 6.00 Build 0)  -->
<!DOCTYPE svg PUBLIC "-//W3C//DTD SVG 1.1//EN" "http://www.w3.org/Graphics/SVG/1.1/DTD/svg11.dtd" [
	<!ENTITY ns_flows "http://ns.adobe.com/Flows/1.0/">
	<!ENTITY ns_extend "http://ns.adobe.com/Extensibility/1.0/">
	<!ENTITY ns_ai "http://ns.adobe.com/AdobeIllustrator/10.0/">
	<!ENTITY ns_graphs "http://ns.adobe.com/Graphs/1.0/">
]>
<svg version="1.1" id="Capa_1" xmlns:x="&ns_extend;" xmlns:i="&ns_ai;" xmlns:graph="&ns_graphs;"
	 xmlns="http://www.w3.org/2000/svg" xmlns:xlink="http://www.w3.org/1999/xlink" xmlns:a="http://ns.adobe.com/AdobeSVGViewerExtensions/3.0/"
	 x="0px" y="0px" viewBox="0 0 595.3 841.9" enable-background="new 0 0 595.3 841.9" xml:space="preserve">
<g>
	<g>
		<path fill="#FFFFFF" stroke="#FFFFFF" stroke-miterlimit="10" d="M87.1,216.6l8.2-43.3h10.8l8.2,43.3h-8.8l-1.5-9.2h-6.3l-1.5,9.2
			H87.1z M98.4,201.7h4.6l-2.3-16.8L98.4,201.7z"/>
		<path fill="#FFFFFF" stroke="#FFFFFF" stroke-miterlimit="10" d="M143,216.6v-43.3h9.6v36.9h9.9v6.5H143z"/>
		<path fill="#FFFFFF" stroke="#FFFFFF" stroke-miterlimit="10" d="M184,217.2c-2.4,0-4.5-0.3-6.2-1c-1.7-0.6-3.1-1.6-4.1-2.8
			s-1.7-2.7-2.2-4.5c-0.4-1.7-0.7-3.7-0.7-6v-16c0-2.3,0.2-4.4,0.7-6.1c0.4-1.7,1.2-3.2,2.2-4.4s2.4-2.2,4.1-2.8
			c1.7-0.6,3.8-0.9,6.2-0.9c4.7,0,8,1.2,10.1,3.6s3,5.9,3,10.7v16c0,4.7-1,8.3-3,10.7C192,216,188.7,217.2,184,217.2z M182.5,210.1
			c0.4,0.2,0.9,0.3,1.5,0.3c0.6,0,1.1-0.1,1.5-0.3c0.4-0.2,0.7-0.5,1-0.8c0.2-0.3,0.4-0.7,0.5-1.2c0.1-0.5,0.2-0.9,0.2-1.4
			c0-0.4,0.1-0.9,0.1-1.5v-20.8c0-0.6,0-1.1-0.1-1.5c0-0.4-0.1-0.9-0.2-1.4c-0.1-0.5-0.3-0.9-0.5-1.2c-0.2-0.3-0.5-0.5-1-0.7
			c-0.4-0.2-0.9-0.3-1.5-0.3c-0.6,0-1.1,0.1-1.5,0.3c-0.4,0.2-0.7,0.4-1,0.7c-0.2,0.3-0.4,0.7-0.5,1.2c-0.1,0.5-0.2,0.9-0.2,1.3
			c0,0.4,0,0.9,0,1.5v20.8c0,0.6,0,1.1,0,1.5s0.1,0.9,0.2,1.4c0.1,0.5,0.3,0.9,0.5,1.2C181.8,209.7,182.1,209.9,182.5,210.1z"/>
		<path fill="#FFFFFF" stroke="#FFFFFF" stroke-miterlimit="10" d="M227.3,216.6v-43.3h9.6v36.9h9.9v6.5H227.3z"/>
		<path fill="#FFFFFF" stroke="#FFFFFF" stroke-miterlimit="10" d="M254.3,216.6l8.2-43.3h10.8l8.2,43.3h-8.8l-1.5-9.2h-6.3
			l-1.5,9.2H254.3z M265.7,201.7h4.6l-2.3-16.8L265.7,201.7z"/>
		<path fill="#FFFFFF" stroke="#FFFFFF" stroke-miterlimit="10" d="M291.2,216.6v-43.3H303c1.8,0,3.5,0.1,4.9,0.3s2.7,0.6,4,1.1
			c1.2,0.5,2.3,1.2,3.1,2.1c0.8,0.9,1.4,2,1.9,3.3c0.5,1.3,0.7,2.9,0.7,4.7c0,2.8-0.4,5.1-1.2,6.8c-0.8,1.7-2.2,3.1-4.2,4l6,21h-9.9
			l-4.8-19.4h-2.7v19.4H291.2z M300.7,191.7h2.5c2,0,3.3-0.5,4.1-1.5c0.8-1,1.2-2.5,1.2-4.6c0-2-0.4-3.5-1.1-4.5
			c-0.7-1-2-1.5-3.8-1.5h-3V191.7z"/>
		<path fill="#FFFFFF" stroke="#FFFFFF" stroke-miterlimit="10" d="M339.9,217.3c-2.2,0-4.1-0.4-5.6-1.1c-1.6-0.7-2.8-1.7-3.7-3.1
			s-1.6-2.9-2-4.7c-0.4-1.8-0.6-3.8-0.6-6.2v-14.4c0-1.9,0.1-3.6,0.4-5.1s0.7-2.9,1.3-4.2s1.4-2.3,2.4-3.2c1-0.8,2.2-1.5,3.7-1.9
			c1.5-0.5,3.2-0.7,5.1-0.7c1.9,0,3.5,0.2,5,0.6c1.4,0.4,2.7,1,3.6,1.7c1,0.7,1.8,1.6,2.4,2.7c0.6,1.1,1,2.2,1.3,3.5
			c0.3,1.3,0.4,2.7,0.4,4.2v2.7h-9.4v-3.5c0-0.7,0-1.2,0-1.6c0-0.4-0.1-0.9-0.2-1.4c-0.1-0.5-0.3-0.9-0.5-1.2
			c-0.2-0.3-0.5-0.5-0.9-0.7c-0.4-0.2-0.9-0.3-1.5-0.3c-0.6,0-1.1,0.1-1.6,0.3c-0.4,0.2-0.8,0.5-1,0.8s-0.4,0.8-0.5,1.3
			s-0.2,1-0.2,1.5c0,0.4,0,1,0,1.6v19.8c0,1.7,0.3,3.1,0.8,4.1c0.5,1,1.5,1.5,2.8,1.5c2.5,0,3.8-1.9,3.8-5.8v-4.9h-3.9v-5.7h12.6
			v22.5h-6.4l-0.5-3.6C345.6,215.8,343.2,217.3,339.9,217.3z"/>
		<path fill="#FFFFFF" stroke="#FFFFFF" stroke-miterlimit="10" d="M377.4,217.2c-2.4,0-4.5-0.3-6.2-1c-1.7-0.6-3.1-1.6-4.1-2.8
			s-1.7-2.7-2.2-4.5c-0.4-1.7-0.7-3.7-0.7-6v-16c0-2.3,0.2-4.4,0.7-6.1c0.4-1.7,1.2-3.2,2.2-4.4s2.4-2.2,4.1-2.8
			c1.7-0.6,3.8-0.9,6.2-0.9c4.7,0,8,1.2,10.1,3.6s3,5.9,3,10.7v16c0,4.7-1,8.3-3,10.7C385.5,216,382.1,217.2,377.4,217.2z
			 M376,210.1c0.4,0.2,0.9,0.3,1.5,0.3c0.6,0,1.1-0.1,1.5-0.3c0.4-0.2,0.7-0.5,1-0.8c0.2-0.3,0.4-0.7,0.5-1.2
			c0.1-0.5,0.2-0.9,0.2-1.4c0-0.4,0.1-0.9,0.1-1.5v-20.8c0-0.6,0-1.1-0.1-1.5c0-0.4-0.1-0.9-0.2-1.4c-0.1-0.5-0.3-0.9-0.5-1.2
			c-0.2-0.3-0.5-0.5-1-0.7c-0.4-0.2-0.9-0.3-1.5-0.3c-0.6,0-1.1,0.1-1.5,0.3c-0.4,0.2-0.7,0.4-1,0.7c-0.2,0.3-0.4,0.7-0.5,1.2
			c-0.1,0.5-0.2,0.9-0.2,1.3c0,0.4,0,0.9,0,1.5v20.8c0,0.6,0,1.1,0,1.5s0.1,0.9,0.2,1.4c0.1,0.5,0.3,0.9,0.5,1.2
			C375.2,209.7,375.6,209.9,376,210.1z"/>
		<path fill="#FFFFFF" stroke="#FFFFFF" stroke-miterlimit="10" d="M420.8,216.6v-43.3h10.9c2.8,0,5.2,0.3,7.1,0.8
			c1.9,0.5,3.4,1.3,4.5,2.5s1.9,2.6,2.4,4.2c0.5,1.7,0.7,3.8,0.7,6.3v15.6c0,2.5-0.2,4.6-0.7,6.3c-0.5,1.7-1.2,3.1-2.4,4.3
			s-2.6,2-4.4,2.5c-1.9,0.5-4.2,0.8-7,0.8H420.8z M430.3,210h1.5c0.7,0,1.4,0,1.9-0.1c0.5-0.1,0.9-0.3,1.3-0.5
			c0.3-0.2,0.6-0.5,0.8-0.8c0.2-0.3,0.3-0.7,0.4-1.2c0.1-0.5,0.2-1,0.2-1.5c0-0.5,0-1.1,0-1.9v-18.6c0-1.1,0-1.9-0.1-2.5
			c-0.1-0.6-0.3-1.1-0.6-1.6c-0.3-0.5-0.8-0.8-1.4-1c-0.6-0.2-1.5-0.3-2.5-0.3h-1.4V210z"/>
		<path fill="#FFFFFF" stroke="#FFFFFF" stroke-miterlimit="10" d="M457.4,216.6v-43.3h19.5v6.5H467v10.7h7.6v6.7H467v12.9h10v6.5
			H457.4z"/>
		<path fill="#FFFFFF" stroke="#FFFFFF" stroke-miterlimit="10" d="M486.7,216.6v-43.3h9.6v36.9h9.9v6.5H486.7z"/>
		<path fill="#FFFFFF" stroke="#FFFFFF" stroke-miterlimit="10" d="M80.9,280.9v-43.3h6.7l8.9,20.8v-20.8h7.9v43.3h-6.5l-8.9-22.4
			v22.4H80.9z"/>
		<path fill="#FFFFFF" stroke="#FFFFFF" stroke-miterlimit="10" d="M116.2,280.9v-43.3h19.5v6.5h-9.9v10.7h7.6v6.7h-7.6v12.9h10v6.5
			H116.2z"/>
		<path fill="#FFFFFF" stroke="#FFFFFF" stroke-miterlimit="10" d="M145.5,280.9v-43.3h11.8c1.8,0,3.5,0.1,4.9,0.3
			c1.4,0.2,2.7,0.6,4,1.1c1.2,0.5,2.3,1.2,3.1,2.1c0.8,0.9,1.4,2,1.9,3.3s0.7,2.9,0.7,4.7c0,2.8-0.4,5.1-1.2,6.8
			c-0.8,1.7-2.2,3.1-4.2,4l6,21h-9.9l-4.8-19.4h-2.7v19.4H145.5z M155.1,256h2.5c2,0,3.3-0.5,4.1-1.5c0.8-1,1.2-2.5,1.2-4.6
			c0-2-0.4-3.5-1.1-4.5c-0.7-1-2-1.5-3.8-1.5h-3V256z"/>
		<path fill="#FFFFFF" stroke="#FFFFFF" stroke-miterlimit="10" d="M188.5,280.9l-7.8-43.3h8.2l4.7,29.2l4.3-29.2h8.7l-7.9,43.3
			H188.5z"/>
		<path fill="#FFFFFF" stroke="#FFFFFF" stroke-miterlimit="10" d="M216.3,280.9v-43.3h9.6v43.3H216.3z"/>
		<path fill="#FFFFFF" stroke="#FFFFFF" stroke-miterlimit="10" d="M250.1,281.5c-2.4,0-4.5-0.3-6.2-1c-1.7-0.6-3.1-1.6-4.1-2.8
			s-1.7-2.7-2.2-4.5c-0.4-1.7-0.7-3.7-0.7-6v-16c0-2.3,0.2-4.4,0.7-6.1c0.4-1.7,1.2-3.2,2.2-4.4s2.4-2.2,4.1-2.8
			c1.7-0.6,3.8-0.9,6.2-0.9c4.7,0,8,1.2,10.1,3.6s3,5.9,3,10.7v16c0,4.7-1,8.3-3,10.7C258.1,280.3,254.8,281.5,250.1,281.5z
			 M248.6,274.4c0.4,0.2,0.9,0.3,1.5,0.3c0.6,0,1.1-0.1,1.5-0.3c0.4-0.2,0.7-0.5,1-0.8c0.2-0.3,0.4-0.7,0.5-1.2
			c0.1-0.5,0.2-0.9,0.2-1.4c0-0.4,0.1-0.9,0.1-1.5v-20.8c0-0.6,0-1.1-0.1-1.5c0-0.4-0.1-0.9-0.2-1.4c-0.1-0.5-0.3-0.9-0.5-1.2
			c-0.2-0.3-0.5-0.5-1-0.7c-0.4-0.2-0.9-0.3-1.5-0.3c-0.6,0-1.1,0.1-1.5,0.3c-0.4,0.2-0.7,0.4-1,0.7c-0.2,0.3-0.4,0.7-0.5,1.2
			c-0.1,0.5-0.2,0.9-0.2,1.3c0,0.4,0,0.9,0,1.5v20.8c0,0.6,0,1.1,0,1.5s0.1,0.9,0.2,1.4c0.1,0.5,0.3,0.9,0.5,1.2
			C247.9,273.9,248.2,274.2,248.6,274.4z"/>
		<path fill="#FFFFFF" stroke="#FFFFFF" stroke-miterlimit="10" d="M305.8,281.5c-2.4,0-4.5-0.3-6.2-1s-3.1-1.7-4-3
			c-1-1.3-1.7-2.8-2.1-4.5c-0.4-1.7-0.7-3.7-0.7-6v-15.5c0-2.4,0.2-4.4,0.7-6.1c0.4-1.7,1.1-3.2,2.1-4.5c1-1.3,2.3-2.3,4-2.9
			s3.8-1,6.2-1c2.3,0,4.3,0.3,6,0.9c1.6,0.6,2.9,1.5,3.9,2.6c0.9,1.2,1.6,2.5,2,3.9s0.6,3.2,0.6,5.1v3.8h-9.4v-4.4
			c0-0.7,0-1.2,0-1.5s-0.1-0.8-0.2-1.3c-0.1-0.5-0.3-1-0.5-1.2c-0.2-0.3-0.5-0.5-0.9-0.7s-0.9-0.3-1.5-0.3s-1.1,0.1-1.5,0.3
			c-0.4,0.2-0.7,0.5-1,0.8c-0.2,0.3-0.4,0.7-0.5,1.3c-0.1,0.5-0.2,1-0.2,1.5s0,1,0,1.6v20.2c0,1.7,0.2,3.1,0.7,4
			c0.5,0.9,1.3,1.4,2.6,1.4c0.6,0,1.1-0.1,1.5-0.3c0.4-0.2,0.7-0.5,0.9-0.8c0.2-0.3,0.4-0.7,0.5-1.3c0.1-0.5,0.2-1,0.2-1.4
			c0-0.4,0-0.9,0-1.6v-4.5h9.4v3.7c0,1.6-0.1,3-0.4,4.2s-0.7,2.4-1.2,3.5c-0.6,1.1-1.3,2-2.3,2.8s-2.1,1.3-3.6,1.8
			S307.7,281.5,305.8,281.5z"/>
		<path fill="#FFFFFF" stroke="#FFFFFF" stroke-miterlimit="10" d="M328.8,280.9v-43.3h19.5v6.5h-9.9v10.7h7.6v6.7h-7.6v12.9h10v6.5
			H328.8z"/>
		<path fill="#FFFFFF" stroke="#FFFFFF" stroke-miterlimit="10" d="M358.1,280.9v-43.3h6.7l8.9,20.8v-20.8h7.9v43.3h-6.5l-8.9-22.4
			v22.4H358.1z"/>
		<path fill="#FFFFFF" stroke="#FFFFFF" stroke-miterlimit="10" d="M397.4,280.9v-36.3h-6.7v-7.1h22.8v7.1H407v36.3H397.4z"/>
		<path fill="#FFFFFF" stroke="#FFFFFF" stroke-miterlimit="10" d="M422.7,280.9v-43.3h11.8c1.8,0,3.5,0.1,4.9,0.3s2.7,0.6,4,1.1
			c1.2,0.5,2.3,1.2,3.1,2.1c0.8,0.9,1.4,2,1.9,3.3c0.5,1.3,0.7,2.9,0.7,4.7c0,2.8-0.4,5.1-1.2,6.8c-0.8,1.7-2.2,3.1-4.2,4l6,21h-9.9
			l-4.8-19.4h-2.7v19.4H422.7z M432.2,256h2.5c2,0,3.3-0.5,4.1-1.5c0.8-1,1.2-2.5,1.2-4.6c0-2-0.4-3.5-1.1-4.5c-0.7-1-2-1.5-3.8-1.5
			h-3V256z"/>
		<path fill="#FFFFFF" stroke="#FFFFFF" stroke-miterlimit="10" d="M458,280.9l8.2-43.3H477l8.2,43.3h-8.8l-1.5-9.2h-6.3l-1.5,9.2
			H458z M469.3,265.9h4.6l-2.3-16.8L469.3,265.9z"/>
		<path fill="#FFFFFF" stroke="#FFFFFF" stroke-miterlimit="10" d="M494.8,280.9v-43.3h9.6v36.9h9.9v6.5H494.8z"/>
	</g>
	<g>
		<g>
			<path fill="#59704B" d="M142.9,596.6c17.3,10.8,17.3,7.1,30.3,13.6c13,6.5,27.9,7.8,42.3,9c34.6,2.8,70.6,5,102.7-8.1
				c45.6-18.6,74-63.9,94.7-108.5s37.7-92.7,72.2-127.8c-32.7-14.5-70.3-15.1-105.3-7.6c-35,7.5-67.8,22.8-99.5,39.3
				c-50.3,26.2-100.1,57.1-133.8,102.8c-9.7,13.2-18.2,28.2-18.8,44.5S117.8,574.5,142.9,596.6"/>
		</g>
	</g>
	<g>
		<g>
			<path fill="#59704B" d="M107.9,630.8c7.3-11.5,14.6-23.1,22-34.6c6.1-9.4,15.2-21.8,28.1-18.5c0-3.2,0-6.4,0-9.6
				c-39.5,13.2-66.7,54.9-61.8,96.5c0.7,6.3,10.8,6.4,10,0c-4.4-37,18.9-74.9,54.5-86.8c4.5-1.5,5-8.4,0-9.6
				c-14.5-3.6-26.6,5.4-34.8,16.5c-9.7,13.1-17.8,27.6-26.6,41.3C95.8,631.2,104.4,636.2,107.9,630.8L107.9,630.8z"/>
		</g>
	</g>
	<g opacity="0.4">
		<g>
			<path fill="#8B9D80" d="M140,578c18.3-30.7,50.2-50.7,82.7-65.7c32.5-15,66.8-26.4,96.8-45.8c43.8-28.4,78.4-73.8,129-86.6
				c-55,10.5-86.8,68.2-135,96.6c-14.6,8.6-30.7,14.5-46.5,20.7c-26,10.2-51.6,21.5-76.6,34c-22,10.9-46.3,26.7-48.1,51.2
				c-2.1,1.8-5.4-2.6-3-4.1"/>
		</g>
		<g>
			<g>
				<path fill="#8B9D80" d="M141.3,578.7c26.2-43.4,75.5-62.7,120-81.5c23.8-10.1,47.4-20.8,68.4-36c18.2-13.1,34.8-28.3,52.2-42.5
					c20.1-16.2,41.7-31,67-37.6c1.9-0.5,1.1-3.3-0.8-2.9c-45,8.9-74.4,47.7-107.3,76.1c-9.3,8-19,15.5-29.6,21.6
					c-13.1,7.5-27.2,12.8-41.2,18.3c-27.7,10.8-55.1,22.7-81.7,36.1c-11.3,5.7-22.5,12.2-31.7,21.1c-4.4,4.2-8.3,9-11.1,14.4
					c-1.3,2.5-2.4,5.1-3.2,7.8c-0.4,1.3-0.7,2.6-0.9,4c-0.1,0.6-0.2,1.2-0.3,1.8c0,1.9-0.3,1.9-0.8-0.2c1.4-1.4-0.8-3.5-2.1-2.1
					c-1.9,1.9-1.4,5.1,1.1,6.5c3.6,2,4.4-1.2,4.8-4c1.9-13.2,10.9-23.6,21-31.6c10.5-8.2,22.6-14.1,34.5-19.9
					c14.8-7.2,29.8-14,45-20.4c27.5-11.6,56.9-20.2,81.4-37.8c19.5-13.9,36-31.4,53.5-47.6c20-18.5,42-35.8,69.4-41.2
					c-0.3-1-0.5-1.9-0.8-2.9c-45.5,11.8-77.6,48.4-113.7,75.8c-20.9,15.8-44,27.4-68,37.7c-23.8,10.2-48.1,19.5-70.5,32.6
					c-22.7,13.2-43.4,30.1-57.1,52.8C137.7,578.9,140.3,580.4,141.3,578.7L141.3,578.7z"/>
			</g>
		</g>
	</g>
	<g opacity="0.4">
		<g>
			<path fill="#8B9D80" d="M156.8,574.1c-2.4-1-5.3,1.7-5,4.3c0.3,2.6,3,4.5,5.6,4.7c1,0.1,2.1-0.1,2.9-0.7c1.9-1.3,1.8-4.4,0.3-6.1
				s-4.1-2.2-6.4-2"/>
		</g>
		<g>
			<g>
				<path fill="#8B9D80" d="M157.2,572.6c-3.3-1.1-6.9,1.8-6.9,5.3c0,3.9,3.9,6.6,7.4,6.7c3.7,0.1,6.3-2.9,5.5-6.5
					c-0.9-4-5.2-5.5-8.9-5.3c-1.9,0.1-1.9,3.1,0,3c1.9-0.1,4.5,0.1,5.6,2c1,1.6,0.4,3.6-1.6,3.8c-1.8,0.2-4-0.8-4.7-2.5
					c-0.8-1.8,0.9-4.1,2.8-3.5C158.2,576.1,159,573.2,157.2,572.6L157.2,572.6z"/>
			</g>
		</g>
	</g>
	<g opacity="0.4">
		<g>
			<path fill="#8B9D80" d="M190.9,543.8c-1.5-0.2-3.1-0.4-4.4,0.3s-2.1,2.6-1.1,3.8c0.3,0.4,0.7,0.6,1.1,0.8c2.5,1.4,6,2.4,8,0.3
				c1.5-1.6,1-4.4-0.6-6s-3.9-2-6.2-2c-0.3,0.9-0.5,1.8-0.8,2.7"/>
		</g>
		<g>
			<g>
				<path fill="#8B9D80" d="M190.9,542.3c-3.2-0.4-8,0.5-7.5,4.9c0.4,3.3,5.7,4.7,8.4,4.5c3.6-0.3,5.7-3.6,4.7-7
					c-1.2-3.8-5.2-5.1-8.8-5.1c-0.7,0-1.3,0.5-1.4,1.1c-0.3,0.9-0.5,1.8-0.8,2.7c-0.6,1.9,2.3,2.6,2.9,0.8c0.3-0.9,0.5-1.8,0.8-2.7
					c-0.5,0.4-1,0.7-1.4,1.1c1.9,0,4.3,0.3,5.5,2c1.1,1.5,0.8,3.8-1.2,4.2c-1.5,0.3-3.7-0.5-5-1.4c-1-0.7-0.4-1.6,0.6-2
					c1-0.4,2.3-0.2,3.3,0C192.8,545.6,192.8,542.6,190.9,542.3L190.9,542.3z"/>
			</g>
		</g>
	</g>
	<g opacity="0.4">
		<g>
			<path fill="#8B9D80" d="M236,523.5c-1.8-1.5-5,0.6-4.8,3c0.2,2.4,2.8,4,5.2,3.8c2.5-0.2,4.8-2.2,5.3-4.7c0.5-2.5-0.7-5.2-2.9-6.5
				c-1-0.6-2.2-0.8-3.2-0.5c-1.4,0.5-2.3,1.9-2.6,3.3"/>
		</g>
		<g>
			<g>
				<path fill="#8B9D80" d="M236.8,522.2c-3.4-2.2-7.9,1.4-6.9,5.2c1.2,4.4,6.9,5.3,10.2,3c3.7-2.6,4.3-7.9,1.3-11.2
					c-3.4-3.8-8.4-2.4-9.8,2.3c-0.6,1.9,2.3,2.6,2.9,0.8c0.9-3,3.9-2.7,5.3-0.2c0.9,1.7,0.8,3.7-0.5,5.2c-1.2,1.4-3.3,2-5,1.1
					c-1-0.5-1.9-1.5-1.4-2.7c0.4-1,1.6-1.4,2.4-0.8C236.9,525.8,238.4,523.2,236.8,522.2L236.8,522.2z"/>
			</g>
		</g>
	</g>
	<g opacity="0.4">
		<g>
			<path fill="#8B9D80" d="M292.9,497.7c-2.7,1-4,4.6-2.6,7.1c1.4,2.5,5.1,3.3,7.4,1.6c1.7-1.3,2.5-3.8,1.5-5.8
				c-0.9-1.9-3.6-2.9-5.5-1.9"/>
		</g>
		<g>
			<g>
				<path fill="#8B9D80" d="M292.2,496.4c-3,1.3-4.6,4.9-3.7,8c1,3.2,4.6,5,7.8,4.3c3.4-0.8,5.6-4.4,4.6-7.7c-1-3.5-4.8-4.9-7.9-3.5
					c-1.8,0.8-0.2,3.3,1.5,2.6c1.7-0.7,3.7,0.8,3.6,2.6c0,2-1.7,3.4-3.6,3.3c-4-0.3-4.2-5.4-0.9-6.8
					C295.5,498.2,293.9,495.6,292.2,496.4L292.2,496.4z"/>
			</g>
		</g>
	</g>
	<g opacity="0.4">
		<g>
			<path fill="#8B9D80" d="M342.3,471.4c-2.8,0.2-3.8,4.5-1.8,6.5c2,2,5.6,1.5,7.7-0.5c1.9-1.8,2.8-5,1.3-7.1
				c-1.5-2.2-5.5-2.1-6.4,0.4"/>
		</g>
		<g>
			<g>
				<path fill="#8B9D80" d="M341.9,470c-3.4,0.5-4.9,4.9-3.3,7.8c1.9,3.6,6.9,3.5,9.8,1.4c3.1-2.1,4.7-7.2,1.9-10.3
					c-2.3-2.4-7.1-2.3-8.5,1c-0.8,1.8,1.8,3.3,2.6,1.5c0.6-1.5,2.8-1.6,3.8-0.4c1.5,1.8,0,4.8-1.7,5.8c-1.5,0.9-4.2,1.3-5.2-0.5
					c-0.8-1.3-0.1-3.3,1.5-3.5C344.6,472.6,343.8,469.7,341.9,470L341.9,470z"/>
			</g>
		</g>
	</g>
	<g opacity="0.4">
		<g>
			<path fill="#8B9D80" d="M389.6,423.8c-1.8-0.8-3.3,1.6-3.9,3.5c-0.8,2.7-1.4,6.2,0.8,7.9c2.7,2.1,6.5-0.5,8.4-3.3
				c0.6-0.9,1.2-1.9,1.3-3c0.2-2-1.1-3.9-2.8-4.9s-3.8-1.1-5.8-1"/>
		</g>
		<g>
			<g>
				<path fill="#8B9D80" d="M390,422.4c-7.4-2-9.9,16.9-0.1,15c3.9-0.8,8.3-5.3,7.9-9.4c-0.5-5-5.8-6.7-10.1-6.4
					c-1.9,0.1-1.9,3.1,0,3c2.4-0.2,5.3,0,6.7,2.3c1.4,2.5-1.1,5.5-3.1,6.8c-2.4,1.5-4.7,0.6-4.7-2.3c0-1,0.8-6.6,2.7-6
					C391.1,425.8,391.9,422.9,390,422.4L390,422.4z"/>
			</g>
		</g>
	</g>
	<g opacity="0.4">
		<g>
			<path fill="#8B9D80" d="M134.8,551.6c-2.8,3-4.6,7.8-2,11c2.4,2.9,8.1,1.7,9-2c1-3.7-3.3-7.6-6.8-6.3"/>
		</g>
		<g>
			<g>
				<path fill="#8B9D80" d="M133.8,550.6c-2.5,2.9-4.6,7-3.2,10.9c1.2,3.4,4.9,4.9,8.3,3.9c3.3-1,5.5-4.2,4.5-7.6
					c-1.1-3.6-5-5.9-8.6-4.9c-1.8,0.5-1.1,3.4,0.8,2.9c2.1-0.6,4.5,0.8,5,3c0.5,2.2-1.5,3.7-3.5,3.9c-2.2,0.2-3.8-1.3-3.9-3.5
					c-0.1-2.4,1.3-4.7,2.8-6.4C137.1,551.3,135,549.1,133.8,550.6L133.8,550.6z"/>
			</g>
		</g>
	</g>
	<g opacity="0.4">
		<g>
			<path fill="#8B9D80" d="M178.2,521.7c-2.1-1.6-5.4,0.8-5.2,3.3c0.2,2.6,2.8,4.5,5.4,4.7c1.9,0.1,4.1-0.7,4.7-2.6
				c0.5-1.6-0.5-3.5-1.9-4.4c-1.4-1-3.2-1.2-4.9-1.5"/>
		</g>
		<g>
			<g>
				<path fill="#8B9D80" d="M179,520.4c-2.8-1.7-6.5,0.2-7.3,3.3c-1,3.6,2.5,6.8,5.8,7.4c3.2,0.6,7.3-1.1,7.3-4.8
					c0.1-4.6-4.8-6.1-8.5-6.6c-1.9-0.2-1.9,2.8,0,3c1.8,0.2,4.4,0.6,5.2,2.4c1,2.1-1.3,3.2-3.1,3c-1.6-0.1-3.8-1.4-3.9-3.2
					c-0.1-1.5,1.6-2.9,2.9-2C179.1,524.1,180.6,521.5,179,520.4L179,520.4z"/>
			</g>
		</g>
	</g>
	<g opacity="0.4">
		<g>
			<path fill="#8B9D80" d="M224,496.9c-3.4-1.7-8.1,1.9-7.3,5.7s6.3,5.3,9.1,2.6c2.7-2.7,1.4-8.1-2.2-9.4"/>
		</g>
		<g>
			<g>
				<path fill="#8B9D80" d="M224.8,495.6c-3.7-1.6-8.1,0.4-9.3,4.3c-1.2,3.7,1.5,7.1,5.1,7.9c3.6,0.8,7.2-1.1,8-4.8
					c0.8-3.6-1.2-7.3-4.6-8.7c-1.8-0.7-2.6,2.2-0.8,2.9c3.9,1.5,3.3,8.2-1.4,7.8c-1.8-0.2-3.8-1.6-3.6-3.6c0.2-2.2,2.9-4.1,5.1-3.2
					C225,499,226.6,496.4,224.8,495.6L224.8,495.6z"/>
			</g>
		</g>
	</g>
	<g opacity="0.4">
		<g>
			<path fill="#8B9D80" d="M277.5,469.8c-2.7,0.9-4.4,4-3.6,6.7c0.7,2.7,3.8,4.6,6.5,3.9s4.7-3.6,4.2-6.4c-0.1-0.6-0.3-1.1-0.5-1.6
				c-1.6-3.2-6.4-4.2-9.2-1.9"/>
		</g>
		<g>
			<g>
				<path fill="#8B9D80" d="M277.1,468.4c-3.8,1.5-6.1,5.9-4.2,9.7c1.9,3.7,6.8,5.2,10.3,2.7c3.3-2.3,4.1-7.1,1.5-10.2
					c-2.5-3-7.3-3.7-10.5-1.3c-1.5,1.1,0,3.7,1.5,2.6c3.9-2.9,10.2,1.6,6.5,5.8c-1.7,2-4.8,1.7-6.3-0.4c-1.5-2.1-0.3-5.1,2-6
					C279.7,470.6,278.9,467.7,277.1,468.4L277.1,468.4z"/>
			</g>
		</g>
	</g>
	<g opacity="0.4">
		<g>
			<path fill="#8B9D80" d="M324,443.5c-1.6,1.1-3.4,2.5-3.2,4.4c0.3,2.6,3.7,3.1,6.3,3c0.7,0,1.5-0.1,2.1-0.5
				c0.5-0.4,0.7-0.9,0.9-1.5c0.5-2.1-0.4-4.5-2.2-5.7s-4.3-1.1-6.1,0.1"/>
		</g>
		<g>
			<g>
				<path fill="#8B9D80" d="M323.2,442.2c-2.5,1.7-5.4,4.8-3.1,7.9c1.8,2.3,5.8,2.8,8.5,2.2c3.8-0.9,3.6-5.9,1.9-8.5
					c-2.1-3.1-6.4-3.7-9.5-1.7c-1.6,1-0.1,3.6,1.5,2.6c1.6-1,3.7-1.1,5.1,0.3c0.7,0.7,1,1.6,1.1,2.6c0.1,1.4-0.8,1.9-2,1.9
					c-1.2,0-2.8,0-3.7-0.8c-1.8-1.3,0.7-3.1,1.8-3.9C326.3,443.7,324.8,441.1,323.2,442.2L323.2,442.2z"/>
			</g>
		</g>
	</g>
	<g opacity="0.4">
		<g>
			<path fill="#8B9D80" d="M374.2,403.5c-2.8,0.5-5.6,2.4-6.2,5.2s2.2,6,4.9,5.1c1.2-0.4,2.1-1.5,2.8-2.5c1.2-1.8,2.2-4.1,1.6-6.2
				s-3.8-3.3-5.1-1.6"/>
		</g>
		<g>
			<g>
				<path fill="#8B9D80" d="M373.8,402c-3.6,0.8-7.5,3.6-7.4,7.7c0.1,3.4,3.6,6.6,7,5.4c3.6-1.2,6.4-6.9,5.3-10.5
					c-1-3.1-5.2-4.7-7.6-2.2c-1.3,1.4,0.8,3.5,2.1,2.1c0.6-0.6,1.5-0.4,2.1,0.2c0.8,0.7,0.8,1.8,0.5,2.8c-0.4,1.7-2.2,5.3-4.3,4.8
					c-2-0.4-2.5-3-1.6-4.5c1-1.7,2.9-2.5,4.7-3C376.5,404.5,375.7,401.6,373.8,402L373.8,402z"/>
			</g>
		</g>
	</g>
</g>
</svg>
