<?xml version="1.0" encoding="utf-8"?>
<!-- Generator: Adobe Illustrator 18.0.0, SVG Export Plug-In . SVG Version: 6.00 Build 0)  -->
<!DOCTYPE svg PUBLIC "-//W3C//DTD SVG 1.1//EN" "http://www.w3.org/Graphics/SVG/1.1/DTD/svg11.dtd">
<svg version="1.1" id="Capa_1" xmlns="http://www.w3.org/2000/svg" xmlns:xlink="http://www.w3.org/1999/xlink" x="0px" y="0px"
	 viewBox="0 0 500 500" enable-background="new 0 0 500 500" xml:space="preserve">
<g>
	<g>
		<g>
			<path fill="#FFFFFF" stroke="#FFFFFF" stroke-miterlimit="10" d="M136.5,130.3V53.4H152v66.2h15.3v10.7H136.5z"/>
			<path fill="#FFFFFF" stroke="#FFFFFF" stroke-miterlimit="10" d="M181.6,130.3V53.4h15.5v76.9H181.6z"/>
			<path fill="#FFFFFF" stroke="#FFFFFF" stroke-miterlimit="10" d="M212.9,108.3l15.8-3c0,6.7,0.6,14.7,5.9,14.7
				c3.7,0,4.6-2.6,4.6-5.9c0-6.4-4.6-12.1-9.1-16.1l-4.8-4.1c-6.1-5.1-12.3-10.8-12.3-21.8c0-12.6,8.8-20.2,21.7-20.2
				c10.9,0,19.6,8.9,19.6,19.8c0,0.3,0,0.6,0,1.8l-16.1,2.2c0-1,0.1-1.9,0.1-3.1c0-3.6-0.8-8.8-4.9-8.8c-3.7,0-5.1,3.5-5.1,6.7
				c0,5.5,2.9,8.9,6.6,12c2,1.7,3.9,3.2,5.7,4.9c7.9,7,13.8,14.3,13.8,26.1c0,11-9.1,18.4-19.8,18.4
				C219.8,131.9,213.5,120.3,212.9,108.3z"/>
			<path fill="#FFFFFF" stroke="#FFFFFF" stroke-miterlimit="10" d="M264.7,130.3l16.6-76.9H295l16.6,76.9h-15.3l-3.2-16.4h-10
				l-3,16.4H264.7z M284.1,104.3h7.9l-3.9-28.5L284.1,104.3z"/>
		</g>
	</g>
	<g>
		<g>
			<g>
				<path fill="#59704B" d="M151.9,403.8c11.3,7.1,11.3,4.6,19.8,8.9c8.5,4.2,18.2,5.1,27.7,5.9c22.6,1.8,46.2,3.3,67.2-5.3
					c29.8-12.1,48.4-41.8,62-71s24.7-60.6,47.2-83.6c-21.4-9.5-46-9.9-68.9-5c-22.9,4.9-44.4,14.9-65.1,25.7
					c-32.9,17.2-65.5,37.4-87.5,67.3c-6.4,8.6-11.9,18.4-12.3,29.1C141.5,386.5,135.5,389.3,151.9,403.8"/>
			</g>
		</g>
		<g>
			<g>
				<path fill="#59704B" d="M130.5,427c4.5-7.1,9-14.2,13.6-21.3c3.7-5.8,9.1-14.6,17.3-12.7c0-3.2,0-6.4,0-9.6
					c-26.6,9-44.9,36.7-41.7,64.8c0.7,6.3,10.7,6.4,10,0c-2.7-23.6,11.7-47.4,34.4-55.1c4.4-1.5,5.1-8.5,0-9.6
					c-9.3-2.2-17.4,2.4-23.1,9.5c-7.3,8.9-12.9,19.5-19,29.1C118.4,427.5,127.1,432.5,130.5,427L130.5,427z"/>
			</g>
		</g>
	</g>
</g>
</svg>
