<?xml version="1.0" encoding="utf-8"?>
<!-- Generator: Adobe Illustrator 18.0.0, SVG Export Plug-In . SVG Version: 6.00 Build 0)  -->
<!DOCTYPE svg PUBLIC "-//W3C//DTD SVG 1.1//EN" "http://www.w3.org/Graphics/SVG/1.1/DTD/svg11.dtd" [
	<!ENTITY ns_flows "http://ns.adobe.com/Flows/1.0/">
	<!ENTITY ns_extend "http://ns.adobe.com/Extensibility/1.0/">
	<!ENTITY ns_ai "http://ns.adobe.com/AdobeIllustrator/10.0/">
	<!ENTITY ns_graphs "http://ns.adobe.com/Graphs/1.0/">
]>
<svg version="1.1" id="Capa_1" xmlns:x="&ns_extend;" xmlns:i="&ns_ai;" xmlns:graph="&ns_graphs;"
	 xmlns="http://www.w3.org/2000/svg" xmlns:xlink="http://www.w3.org/1999/xlink" xmlns:a="http://ns.adobe.com/AdobeSVGViewerExtensions/3.0/"
	 x="0px" y="0px" viewBox="0 0 595.3 841.9" enable-background="new 0 0 595.3 841.9" xml:space="preserve">
<g>
	<g>
		<path fill="#FFFFFF" stroke="#FFFFFF" stroke-miterlimit="10" d="M93.5,237l1-60.2h14.2l6.7,35.2l7.2-35.2h13.8l1,60.2h-9.5l-1-40
			l-7.1,40h-8.3l-7.4-40.3l-0.9,40.3H93.5z"/>
		<path fill="#FFFFFF" stroke="#FFFFFF" stroke-miterlimit="10" d="M150.6,237l11.4-60.2h15l11.3,60.2h-12.3l-2.1-12.8h-8.8l-2,12.8
			H150.6z M166.4,216.3h6.4l-3.2-23.3L166.4,216.3z"/>
		<path fill="#FFFFFF" stroke="#FFFFFF" stroke-miterlimit="10" d="M207.4,237v-24.6l-11.5-35.6h12.5l5.7,19.1l5.2-19.1h12.1
			l-11.3,35.6V237H207.4z"/>
		<path fill="#FFFFFF" stroke="#FFFFFF" stroke-miterlimit="10" d="M261.2,237.8c-3.3,0-6.2-0.4-8.6-1.3s-4.2-2.2-5.6-4
			s-2.4-3.8-3-6.2s-0.9-5.2-0.9-8.4v-22.2c0-3.2,0.3-6,0.9-8.4c0.6-2.4,1.6-4.4,3-6.2c1.4-1.7,3.3-3.1,5.6-3.9s5.2-1.3,8.6-1.3
			c6.5,0,11.2,1.7,14,5c2.8,3.3,4.2,8.3,4.2,14.8V218c0,6.5-1.4,11.5-4.2,14.8C272.4,236.2,267.8,237.8,261.2,237.8z M259.2,228
			c0.6,0.3,1.3,0.4,2.1,0.4c0.8,0,1.5-0.1,2.1-0.4c0.6-0.3,1-0.6,1.3-1.1c0.3-0.4,0.6-1,0.7-1.7s0.3-1.3,0.3-1.9
			c0-0.6,0.1-1.3,0.1-2.1v-28.9c0-0.8,0-1.5-0.1-2.1c0-0.6-0.2-1.2-0.3-1.9c-0.2-0.7-0.4-1.2-0.7-1.6c-0.3-0.4-0.8-0.8-1.3-1
			c-0.6-0.3-1.3-0.4-2.1-0.4c-0.8,0-1.5,0.1-2.1,0.4c-0.6,0.3-1,0.6-1.3,1c-0.3,0.4-0.6,0.9-0.7,1.6c-0.2,0.7-0.3,1.3-0.3,1.9
			c0,0.6-0.1,1.3-0.1,2.1v28.9c0,0.8,0,1.6,0.1,2.1c0,0.6,0.1,1.2,0.3,1.9c0.2,0.7,0.4,1.2,0.7,1.7
			C258.2,227.4,258.6,227.7,259.2,228z"/>
		<path fill="#FFFFFF" stroke="#FFFFFF" stroke-miterlimit="10" d="M294.9,237v-60.2h16.4c2.5,0,4.8,0.1,6.8,0.4
			c2,0.3,3.8,0.8,5.5,1.5c1.7,0.7,3.1,1.7,4.2,2.9c1.1,1.2,2,2.7,2.6,4.6c0.6,1.9,0.9,4,0.9,6.5c0,3.9-0.5,7.1-1.6,9.5
			s-3,4.3-5.8,5.6l8.3,29.2h-13.8l-6.6-27h-3.7v27H294.9z M308.2,202.4h3.4c2.7,0,4.6-0.7,5.7-2.1c1.1-1.4,1.7-3.5,1.7-6.4
			c0-2.8-0.5-4.9-1.5-6.2c-1-1.3-2.7-2-5.2-2h-4.1V202.4z"/>
		<path fill="#FFFFFF" stroke="#FFFFFF" stroke-miterlimit="10" d="M346.8,237v-60.2h27.1v9.1h-13.8v14.9h10.5v9.3h-10.5v18H374v9
			H346.8z"/>
		<path fill="#FFFFFF" stroke="#FFFFFF" stroke-miterlimit="10" d="M403.5,237.8c-5.7,0-10-1.5-12.8-4.6c-2.8-3-4.3-7.9-4.5-14.6
			l11.4-1.7c0,3.8,0.5,6.5,1.4,8.2c0.9,1.7,2.1,2.6,3.9,2.6c2.3,0,3.4-1.5,3.4-4.4c0-1.6-0.3-3.1-0.9-4.5c-0.6-1.4-1.3-2.5-2.1-3.5
			c-0.8-1-2-2.1-3.6-3.4l-5.3-4.6c-1.3-1.1-2.3-2.1-3.2-3.1c-0.8-0.9-1.7-2-2.5-3.3s-1.4-2.7-1.8-4.2s-0.6-3.3-0.6-5.1
			c0-5,1.5-8.9,4.5-11.6c3-2.7,7.1-4.1,12.4-4.1c1.8,0,3.4,0.2,4.9,0.6c1.5,0.4,2.7,0.9,3.7,1.5c1,0.6,1.9,1.4,2.7,2.4
			c0.8,1,1.4,1.9,1.8,2.9c0.4,1,0.8,2,1.1,3.2c0.3,1.2,0.5,2.3,0.6,3.3s0.2,2.1,0.2,3.2l-11.5,1.5c0-1-0.1-1.9-0.1-2.5
			c0-0.7-0.1-1.4-0.2-2.1c-0.1-0.8-0.2-1.4-0.4-1.8c-0.2-0.5-0.4-0.9-0.7-1.3s-0.6-0.7-1.1-0.9c-0.4-0.2-0.9-0.2-1.5-0.2
			c-1.2,0-2.1,0.5-2.7,1.5c-0.6,1-0.9,2-0.9,3.2c0,1.1,0.1,2.2,0.4,3.1s0.8,1.8,1.5,2.7c0.7,0.9,1.3,1.5,1.7,2
			c0.4,0.4,1.2,1.1,2.2,2l5.1,4.5c1.4,1.3,2.6,2.5,3.6,3.6c1,1.2,2,2.5,2.9,3.9c0.9,1.5,1.6,3.1,2.1,4.8c0.5,1.8,0.7,3.6,0.7,5.6
			c0,4.4-1.5,8-4.4,10.8S408.2,237.8,403.5,237.8z"/>
	</g>
	<g opacity="0.51"  a:adobe-blending-mode="multiply">
		<circle fill="#7CAA9A"  a:adobe-blending-mode="normal" cx="425.4" cy="549.6" r="114"/>
	</g>
	<g>
		<g>
			<line fill="#FFFFFF" x1="347.6" y1="561.3" x2="399.4" y2="561.3"/>
			<rect x="347.6" y="557.8" fill="#FFFFFF" width="51.7" height="7"/>
		</g>
		<g>
			<line fill="#FFFFFF" x1="373.5" y1="535.4" x2="373.5" y2="587.2"/>
			<rect x="370" y="535.4" fill="#FFFFFF" width="7" height="51.7"/>
		</g>
	</g>
	<g>
		<g>
			<path fill="#FFFFFF" stroke="#FFFFFF" stroke-miterlimit="10" d="M409.3,584.6v-4.9h13.6v-47.4l-13.6,5.7v-4.9l13.6-5.7h5.1v52.3
				h13.6v4.9H409.3z"/>
			<path fill="#FFFFFF" stroke="#FFFFFF" stroke-miterlimit="10" d="M474,576.8c-0.7,1.7-1.7,3.2-3,4.5c-1.3,1.3-2.8,2.3-4.5,3
				c-1.7,0.7-3.5,1.1-5.5,1.1h-2.4c-1.9,0-3.8-0.4-5.5-1.1s-3.2-1.7-4.5-3c-1.3-1.3-2.3-2.8-3-4.5c-0.7-1.7-1.1-3.5-1.1-5.5v-30.7
				c0-1.9,0.4-3.8,1.1-5.5c0.7-1.7,1.7-3.2,3-4.5c1.3-1.3,2.8-2.3,4.5-3s3.5-1.1,5.5-1.1h2.4c1.9,0,3.8,0.4,5.5,1.1
				c1.7,0.7,3.2,1.7,4.5,3c1.3,1.3,2.3,2.8,3,4.5c0.7,1.7,1.1,3.5,1.1,5.5v30.7C475.1,573.3,474.7,575.1,474,576.8z M469.9,540.6
				c0-1.3-0.2-2.5-0.7-3.6c-0.5-1.1-1.1-2.1-2-2.9c-0.8-0.8-1.8-1.5-2.9-2c-1.1-0.5-2.3-0.7-3.6-0.7h-2c-1.3,0-2.5,0.2-3.6,0.7
				s-2.1,1.1-2.9,2c-0.8,0.8-1.5,1.8-2,2.9c-0.5,1.1-0.7,2.3-0.7,3.6v30.7c0,1.3,0.2,2.5,0.7,3.6c0.5,1.1,1.1,2.1,2,2.9
				c0.8,0.8,1.8,1.5,2.9,2c1.1,0.5,2.3,0.7,3.6,0.7h2c1.3,0,2.5-0.2,3.6-0.7c1.1-0.5,2.1-1.1,2.9-2c0.8-0.8,1.5-1.8,2-2.9
				c0.5-1.1,0.7-2.3,0.7-3.6V540.6z"/>
		</g>
		<g>
			<path fill="#FFFFFF" stroke="#FFFFFF" stroke-miterlimit="10" d="M492.3,582.5c-0.2,0.5-0.5,1-0.9,1.4s-0.9,0.7-1.4,0.9
				s-1.1,0.3-1.7,0.3h-1.3c-0.6,0-1.2-0.1-1.7-0.3c-0.5-0.2-1-0.5-1.4-0.9s-0.7-0.9-0.9-1.4s-0.3-1.1-0.3-1.7v-9.5
				c0-0.6,0.1-1.2,0.3-1.7c0.2-0.5,0.5-1,0.9-1.4s0.9-0.7,1.4-0.9c0.5-0.2,1.1-0.3,1.7-0.3h1.3c0.6,0,1.2,0.1,1.7,0.3s1,0.5,1.4,0.9
				s0.7,0.9,0.9,1.4c0.2,0.5,0.3,1.1,0.3,1.7v0.7l-1.6,0.2v-1c0-0.4-0.1-0.8-0.2-1.1s-0.4-0.6-0.6-0.9c-0.3-0.3-0.6-0.5-0.9-0.6
				c-0.3-0.1-0.7-0.2-1.1-0.2h-1.1c-0.4,0-0.8,0.1-1.1,0.2s-0.6,0.4-0.9,0.6s-0.5,0.6-0.6,0.9s-0.2,0.7-0.2,1.1v9.5
				c0,0.4,0.1,0.8,0.2,1.1c0.1,0.3,0.4,0.6,0.6,0.9s0.6,0.5,0.9,0.6c0.3,0.1,0.7,0.2,1.1,0.2h1.1c0.4,0,0.8-0.1,1.1-0.2
				c0.3-0.1,0.6-0.4,0.9-0.6c0.3-0.3,0.5-0.6,0.6-0.9c0.1-0.3,0.2-0.7,0.2-1.1v-1l1.6,0.3v0.7C492.7,581.4,492.6,582,492.3,582.5z"
				/>
			<path fill="#FFFFFF" stroke="#FFFFFF" stroke-miterlimit="10" d="M512.2,584.9v-12.2l-0.1,0.8l-4.1,11.4h-0.8l-4.2-11.4l-0.1-0.8
				v12.2h-1.6v-17.7h0.8l5.4,14.5l0,0.7l0-0.7l5.4-14.5h0.8v17.7H512.2z"/>
		</g>
	</g>
	<g>
		<g>
			<g>
				<path fill="#59704B" d="M114.1,622.4c2.2,1.4,4.6,2.6,7,3.7c31.3-4.7,62-13.7,91.2-26.2c36.6-15.7,70.9-36.7,102.5-60.9
					c30.4-23.3,57.8-48.7,79.4-80.6c30.6-45.5,51.7-99,85.2-142.8c-0.1-3-0.2-6.1-0.3-9.1c-0.3-4-0.7-8.2-3.2-11.5
					c-5.4-7.3-16.9-6.2-26.1-4.3c-67,14.1-133.8,33-192.8,66.2c-59,33.2-110.1,82.1-134.6,142.9c-13.1,32.5-18,44.3-23,78.8l-0.2,0
					C90.3,593.3,99.3,613,114.1,622.4z"/>
			</g>
			<g>
				<g>
					<path fill="#59704B" d="M113.8,622.9c2,1.2,5,3.6,7.4,3.8c4.2,0.4,9.8-1.6,13.9-2.4c9.5-1.8,18.8-4,28.1-6.5
						c18-5,35.7-11.3,52.8-18.8c34.3-15.1,66.4-34.7,96.3-57.3c26.9-20.4,52.4-43,73-69.9c22-28.7,38-61.4,55.2-93
						c8.7-15.9,17.7-31.7,27.8-46.7c2.4-3.6,4.9-7.2,7.5-10.7c1.1-1.6,2.8-3.2,3.6-4.9c0.8-1.6,0.6-2.6,0.5-4.6
						c-0.2-6.3,0-14-4.9-18.8c-9.5-9.3-27.9-2.5-38.8-0.2c-18.1,4-36.1,8.4-53.9,13.3c-67.3,18.8-133.6,46.6-186.7,92.9
						c-23.8,20.8-44.8,45.1-60.5,72.6c-7.9,13.9-13.8,28.6-19.7,43.4c-5,12.7-9.5,25.5-12.4,38.8c-0.5,2.2-4.3,23.9-4,23.9
						c-0.2,0-0.4,0.1-0.5,0.3C89.4,594.5,99.6,613.6,113.8,622.9c0.7,0.4,1.3-0.6,0.6-1.1c-7.2-4.7-13-11.5-16.1-19.5
						c-1.4-3.6-2.2-7.5-2.1-11.4c0-2.1,0.3-4.2,0.9-6.2c0.2-0.6,1.6-5.6,2.2-5.6c0.2,0,0.6-0.2,0.6-0.5
						c8.7-59.1,34.7-115.9,76.1-159.2c46.4-48.4,107.2-79.8,170.1-101c33.3-11.2,67.5-19.7,101.9-27c7.4-1.5,16.7-3.6,23.7,0.6
						c7.5,4.4,9.3,19.9,4.4,26.5c-10.3,13.8-19.3,28.5-27.9,43.4c-16.8,29.5-31.6,60.1-50,88.7c-18.3,28.5-41.4,52.9-67.3,74.5
						c-55.3,45.9-120,82.2-190.8,96.8c-4.3,0.9-8.5,1.7-12.8,2.4c-5.4,0.9-8.3,0.2-13-2.6C113.8,621.4,113.1,622.5,113.8,622.9z"/>
				</g>
			</g>
		</g>
		<g>
			<g>
				<path fill="#59704B" d="M171.5,555.3c-42.3,11.5-80.7,36.6-108.1,70.8c-1.9,2.4-3.9,4.9-4.6,7.9c-2.7,10.6,9.8,18.9,12.7,29.5
					c6.3-19.7,12.8-39.8,25-56.5c8.1-11.1,18.5-20.3,29.4-28.8c13.7-10.7,28.2-20.3,43.4-28.7"/>
			</g>
			<g>
				<g>
					<path fill="#59704B" d="M170.8,552.9c-30.1,8.3-58.1,23.2-81.9,43.3c-5.9,5-11.5,10.3-16.8,16c-5,5.3-11.1,11.1-14.4,17.7
						c-6.8,13.2,7.8,22.8,11.3,34.3c0.7,2.4,4.1,2.4,4.8,0c7.7-24,16-47.9,33.8-66.5c17.9-18.6,40.4-33.4,62.8-45.9
						c2.8-1.6,0.3-5.9-2.5-4.3c-23.2,13-46.8,28.4-65,48c-17.7,19-26.1,43.2-33.9,67.5c1.6,0,3.2,0,4.8,0c-1.8-6-5.7-10.7-9.1-15.9
						c-1.5-2.3-3-4.7-3.6-7.5c-1-4.6,1.3-8.2,4-11.6c8.8-11.1,18.9-21.1,29.8-30.1c22.6-18.6,49-32.2,77.2-40
						C175.3,556.9,174,552.1,170.8,552.9L170.8,552.9z"/>
				</g>
			</g>
		</g>
		<g opacity="0.4">
			<g>
				<path fill="#8B9D80" d="M115.9,579.6c35.9-45.7,77.9-86.1,122.3-123.5c47-39.6,95.9-77.2,146.2-112.5
					c25.5-17.8,53-33.8,84.2-38.3c1.6-0.2,0.9-2.6-0.7-2.4c-27.4,4-52.2,16.7-75,31.8c-25.5,16.9-49.9,35.5-74.3,53.9
					c-47.6,36.1-94.6,73.7-137.6,115.4c-23.9,23.1-46.4,47.6-67,73.8C113.1,579,114.9,580.8,115.9,579.6L115.9,579.6z"/>
			</g>
		</g>
	</g>
</g>
</svg>
