<?xml version="1.0" encoding="utf-8"?>
<!-- Generator: Adobe Illustrator 18.0.0, SVG Export Plug-In . SVG Version: 6.00 Build 0)  -->
<!DOCTYPE svg PUBLIC "-//W3C//DTD SVG 1.1//EN" "http://www.w3.org/Graphics/SVG/1.1/DTD/svg11.dtd" [
	<!ENTITY ns_flows "http://ns.adobe.com/Flows/1.0/">
	<!ENTITY ns_extend "http://ns.adobe.com/Extensibility/1.0/">
	<!ENTITY ns_ai "http://ns.adobe.com/AdobeIllustrator/10.0/">
	<!ENTITY ns_graphs "http://ns.adobe.com/Graphs/1.0/">
]>
<svg version="1.1" id="Capa_1" xmlns:x="&ns_extend;" xmlns:i="&ns_ai;" xmlns:graph="&ns_graphs;"
	 xmlns="http://www.w3.org/2000/svg" xmlns:xlink="http://www.w3.org/1999/xlink" xmlns:a="http://ns.adobe.com/AdobeSVGViewerExtensions/3.0/"
	 x="0px" y="0px" viewBox="0 0 595.3 841.9" enable-background="new 0 0 595.3 841.9" xml:space="preserve">
<g>
	<path fill="#FFFFFF" stroke="#FFFFFF" stroke-miterlimit="10" d="M144.6,948.8V903h7.1l9.4,22v-22h8.4v45.8h-6.8l-9.4-23.7v23.7
		H144.6z"/>
	<path fill="#FFFFFF" stroke="#FFFFFF" stroke-miterlimit="10" d="M181.9,948.8V903h20.6v6.9H192v11.3h8v7h-8v13.7h10.6v6.8H181.9z"
		/>
	<path fill="#FFFFFF" stroke="#FFFFFF" stroke-miterlimit="10" d="M212.8,948.8V903h12.5c1.9,0,3.6,0.1,5.1,0.3
		c1.5,0.2,2.9,0.6,4.2,1.2c1.3,0.6,2.4,1.3,3.2,2.2c0.8,0.9,1.5,2.1,2,3.5c0.5,1.4,0.7,3.1,0.7,5c0,3-0.4,5.4-1.2,7.2
		c-0.8,1.8-2.3,3.2-4.4,4.2l6.3,22.2h-10.5l-5-20.5h-2.8v20.5H212.8z M222.9,922.5h2.6c2.1,0,3.5-0.5,4.4-1.6
		c0.8-1.1,1.3-2.7,1.3-4.8c0-2.1-0.4-3.7-1.1-4.7c-0.8-1-2.1-1.5-4-1.5h-3.1V922.5z"/>
	<path fill="#FFFFFF" stroke="#FFFFFF" stroke-miterlimit="10" d="M258.2,948.8l-8.3-45.8h8.6l4.9,30.8L268,903h9.2l-8.4,45.8H258.2
		z"/>
	<path fill="#FFFFFF" stroke="#FFFFFF" stroke-miterlimit="10" d="M287.4,948.8V903h10.1v45.8H287.4z"/>
	<path fill="#FFFFFF" stroke="#FFFFFF" stroke-miterlimit="10" d="M323.1,949.4c-2.5,0-4.7-0.3-6.5-1c-1.8-0.7-3.2-1.7-4.3-3
		s-1.8-2.9-2.3-4.7s-0.7-3.9-0.7-6.4v-16.9c0-2.5,0.2-4.6,0.7-6.4c0.5-1.8,1.2-3.4,2.3-4.7s2.5-2.3,4.3-3c1.8-0.7,4-1,6.5-1
		c4.9,0,8.5,1.3,10.6,3.8c2.1,2.5,3.2,6.3,3.2,11.2v16.9c0,5-1.1,8.7-3.2,11.3C331.6,948.1,328.1,949.4,323.1,949.4z M321.6,941.9
		c0.4,0.2,1,0.3,1.6,0.3s1.1-0.1,1.6-0.3s0.8-0.5,1-0.8c0.2-0.3,0.4-0.7,0.6-1.3c0.1-0.5,0.2-1,0.3-1.4c0-0.5,0.1-1,0.1-1.6v-21.9
		c0-0.6,0-1.1-0.1-1.6c0-0.5-0.1-0.9-0.3-1.4c-0.1-0.5-0.3-0.9-0.6-1.2s-0.6-0.6-1-0.8c-0.4-0.2-1-0.3-1.6-0.3s-1.1,0.1-1.6,0.3
		c-0.4,0.2-0.8,0.5-1,0.8s-0.4,0.7-0.6,1.2s-0.2,1-0.2,1.4c0,0.4,0,1,0,1.6v21.9c0,0.6,0,1.2,0,1.6c0,0.4,0.1,0.9,0.2,1.4
		c0.1,0.5,0.3,0.9,0.6,1.3C320.8,941.4,321.1,941.7,321.6,941.9z"/>
	<path fill="#FFFFFF" stroke="#FFFFFF" stroke-miterlimit="10" d="M382,949.4c-2.6,0-4.7-0.4-6.5-1.1s-3.2-1.8-4.3-3.1
		c-1-1.4-1.8-3-2.2-4.8s-0.7-3.9-0.7-6.3v-16.3c0-2.5,0.2-4.6,0.7-6.5c0.5-1.8,1.2-3.4,2.2-4.8c1-1.4,2.5-2.4,4.2-3.1
		c1.8-0.7,4-1,6.6-1c2.5,0,4.6,0.3,6.3,0.9c1.7,0.6,3.1,1.5,4.1,2.8c1,1.2,1.7,2.6,2.1,4.1c0.4,1.5,0.6,3.3,0.6,5.4v4h-9.9V915
		c0-0.7,0-1.3,0-1.6c0-0.4-0.1-0.8-0.2-1.4c-0.1-0.6-0.3-1-0.5-1.3c-0.2-0.3-0.5-0.6-1-0.8s-1-0.3-1.6-0.3c-0.6,0-1.2,0.1-1.6,0.3
		s-0.8,0.5-1,0.8c-0.2,0.3-0.4,0.8-0.6,1.3c-0.1,0.6-0.2,1.1-0.2,1.5c0,0.5,0,1,0,1.7v21.3c0,1.8,0.2,3.2,0.7,4.2
		c0.5,1,1.4,1.4,2.7,1.4c0.6,0,1.1-0.1,1.6-0.3c0.4-0.2,0.8-0.5,1-0.8s0.4-0.8,0.5-1.3c0.1-0.6,0.2-1.1,0.2-1.5s0-1,0-1.7v-4.8h9.9
		v3.9c0,1.6-0.1,3.1-0.4,4.4c-0.3,1.3-0.7,2.6-1.3,3.7c-0.6,1.2-1.4,2.1-2.4,2.9c-1,0.8-2.2,1.4-3.8,1.9
		C385.7,949.2,384,949.4,382,949.4z"/>
	<path fill="#FFFFFF" stroke="#FFFFFF" stroke-miterlimit="10" d="M406.3,948.8V903h20.6v6.9h-10.5v11.3h8v7h-8v13.7h10.6v6.8H406.3
		z"/>
	<path fill="#FFFFFF" stroke="#FFFFFF" stroke-miterlimit="10" d="M437.2,948.8V903h7.1l9.4,22v-22h8.4v45.8h-6.8l-9.4-23.7v23.7
		H437.2z"/>
	<path fill="#FFFFFF" stroke="#FFFFFF" stroke-miterlimit="10" d="M478.7,948.8v-38.3h-7V903h24.1v7.5h-7v38.3H478.7z"/>
	<path fill="#FFFFFF" stroke="#FFFFFF" stroke-miterlimit="10" d="M505.3,948.8V903h12.5c1.9,0,3.6,0.1,5.1,0.3
		c1.5,0.2,2.9,0.6,4.2,1.2c1.3,0.6,2.4,1.3,3.2,2.2c0.8,0.9,1.5,2.1,2,3.5c0.5,1.4,0.7,3.1,0.7,5c0,3-0.4,5.4-1.2,7.2
		c-0.8,1.8-2.3,3.2-4.4,4.2l6.3,22.2h-10.5l-5-20.5h-2.8v20.5H505.3z M515.4,922.5h2.6c2.1,0,3.5-0.5,4.4-1.6
		c0.8-1.1,1.3-2.7,1.3-4.8c0-2.1-0.4-3.7-1.1-4.7c-0.8-1-2.1-1.5-4-1.5h-3.1V922.5z"/>
	<path fill="#FFFFFF" stroke="#FFFFFF" stroke-miterlimit="10" d="M542.6,948.8l8.7-45.8h11.4l8.6,45.8h-9.3l-1.6-9.7h-6.7l-1.5,9.7
		H542.6z M554.6,933h4.9l-2.5-17.7L554.6,933z"/>
	<path fill="#FFFFFF" stroke="#FFFFFF" stroke-miterlimit="10" d="M581.5,948.8V903h10.1v38.9h10.5v6.8H581.5z"/>
	<path fill="#FFFFFF" stroke="#FFFFFF" stroke-miterlimit="10" d="M116,1016.6v-45.8h12.5c1.9,0,3.6,0.1,5.1,0.3s2.9,0.6,4.2,1.2
		c1.3,0.6,2.4,1.3,3.2,2.2c0.8,0.9,1.5,2.1,2,3.5c0.5,1.4,0.7,3.1,0.7,5c0,3-0.4,5.4-1.2,7.2c-0.8,1.8-2.3,3.2-4.4,4.2l6.3,22.2
		h-10.5l-5-20.5h-2.8v20.5H116z M126.1,990.3h2.6c2.1,0,3.5-0.5,4.4-1.6c0.8-1.1,1.3-2.7,1.3-4.8c0-2.1-0.4-3.7-1.1-4.7
		c-0.8-1-2.1-1.5-4-1.5h-3.1V990.3z"/>
	<path fill="#FFFFFF" stroke="#FFFFFF" stroke-miterlimit="10" d="M168.5,1017.2c-2.5,0-4.7-0.3-6.5-1c-1.8-0.7-3.2-1.7-4.3-3
		s-1.8-2.9-2.3-4.7s-0.7-3.9-0.7-6.4v-16.9c0-2.5,0.2-4.6,0.7-6.4c0.5-1.8,1.2-3.4,2.3-4.7s2.5-2.3,4.3-3c1.8-0.7,4-1,6.5-1
		c4.9,0,8.5,1.3,10.6,3.8c2.1,2.5,3.2,6.3,3.2,11.2v16.9c0,5-1.1,8.7-3.2,11.3C177,1015.9,173.5,1017.2,168.5,1017.2z M167,1009.7
		c0.4,0.2,1,0.3,1.6,0.3s1.1-0.1,1.6-0.3s0.8-0.5,1-0.8c0.2-0.3,0.4-0.7,0.6-1.3c0.1-0.5,0.2-1,0.3-1.4c0-0.5,0.1-1,0.1-1.6v-21.9
		c0-0.6,0-1.1-0.1-1.6c0-0.5-0.1-0.9-0.3-1.4c-0.1-0.5-0.3-0.9-0.6-1.2s-0.6-0.6-1-0.8c-0.4-0.2-1-0.3-1.6-0.3s-1.1,0.1-1.6,0.3
		c-0.4,0.2-0.8,0.5-1,0.8s-0.4,0.7-0.6,1.2s-0.2,1-0.2,1.4c0,0.4,0,1,0,1.6v21.9c0,0.6,0,1.2,0,1.6c0,0.4,0.1,0.9,0.2,1.4
		c0.1,0.5,0.3,0.9,0.6,1.3C166.2,1009.2,166.5,1009.5,167,1009.7z"/>
	<path fill="#FFFFFF" stroke="#FFFFFF" stroke-miterlimit="10" d="M191.4,1017.7v-7c0.1,0,0.2,0,0.4,0c2,0,3.3-0.3,4-0.9
		c0.8-0.6,1.2-1.9,1.2-3.8v-35.2h10.1v35.6c0,2-0.2,3.6-0.6,5c-0.3,1.3-0.9,2.5-1.7,3.5c-0.8,1-1.9,1.7-3.3,2.2
		c-1.4,0.5-3.1,0.7-5.2,0.7H191.4z"/>
	<path fill="#FFFFFF" stroke="#FFFFFF" stroke-miterlimit="10" d="M219.6,1016.6v-45.8h10.1v45.8H219.6z"/>
	<path fill="#FFFFFF" stroke="#FFFFFF" stroke-miterlimit="10" d="M240.4,1016.6v-6.1l11.1-32.8h-10.7v-6.9h20.7v5.6l-11.4,33.3
		h11.5v6.8H240.4z"/>
	<path fill="#FFFFFF" stroke="#FFFFFF" stroke-miterlimit="10" d="M285.3,1017.2c-2.5,0-4.7-0.3-6.5-1c-1.8-0.7-3.2-1.7-4.3-3
		s-1.8-2.9-2.3-4.7s-0.7-3.9-0.7-6.4v-16.9c0-2.5,0.2-4.6,0.7-6.4c0.5-1.8,1.2-3.4,2.3-4.7s2.5-2.3,4.3-3c1.8-0.7,4-1,6.5-1
		c4.9,0,8.5,1.3,10.6,3.8c2.1,2.5,3.2,6.3,3.2,11.2v16.9c0,5-1.1,8.7-3.2,11.3C293.8,1015.9,290.2,1017.2,285.3,1017.2z
		 M283.7,1009.7c0.4,0.2,1,0.3,1.6,0.3s1.1-0.1,1.6-0.3s0.8-0.5,1-0.8c0.2-0.3,0.4-0.7,0.6-1.3c0.1-0.5,0.2-1,0.3-1.4
		c0-0.5,0.1-1,0.1-1.6v-21.9c0-0.6,0-1.1-0.1-1.6c0-0.5-0.1-0.9-0.3-1.4c-0.1-0.5-0.3-0.9-0.6-1.2s-0.6-0.6-1-0.8
		c-0.4-0.2-1-0.3-1.6-0.3s-1.1,0.1-1.6,0.3c-0.4,0.2-0.8,0.5-1,0.8s-0.4,0.7-0.6,1.2s-0.2,1-0.2,1.4c0,0.4,0,1,0,1.6v21.9
		c0,0.6,0,1.2,0,1.6c0,0.4,0.1,0.9,0.2,1.4c0.1,0.5,0.3,0.9,0.6,1.3C283,1009.2,283.3,1009.5,283.7,1009.7z"/>
	<path fill="#FFFFFF" stroke="#FFFFFF" stroke-miterlimit="10" d="M336.8,1016.6v-18.7l-8.7-27h9.5l4.4,14.5l3.9-14.5h9.2l-8.6,27
		v18.7H336.8z"/>
	<path fill="#FFFFFF" stroke="#FFFFFF" stroke-miterlimit="10" d="M384.8,1016.6v-45.8H400c4,0,7.1,1.1,9.1,3.4s3,5.6,3,9.9
		c0,1.7-0.2,3.2-0.5,4.6s-0.8,2.5-1.3,3.4c-0.6,0.9-1.3,1.7-2,2.4c-0.8,0.7-1.7,1.2-2.7,1.5c-1,0.4-2.1,0.6-3.2,0.8
		c-1.1,0.2-2.3,0.2-3.6,0.2h-4v19.5H384.8z M394.9,990h3.2c1.8,0,3-0.5,3.6-1.4s0.9-2.5,0.9-4.7c0-0.8,0-1.5-0.1-2
		c0-0.5-0.2-1.1-0.3-1.6c-0.2-0.6-0.4-1-0.7-1.3c-0.3-0.3-0.8-0.6-1.3-0.8s-1.3-0.3-2.1-0.3h-3.2V990z"/>
	<path fill="#FFFFFF" stroke="#FFFFFF" stroke-miterlimit="10" d="M422.5,1016.6v-45.8H443v6.9h-10.5V989h8v7h-8v13.7h10.6v6.8
		H422.5z"/>
	<path fill="#FFFFFF" stroke="#FFFFFF" stroke-miterlimit="10" d="M453.4,1016.6v-45.8h10.1v38.9H474v6.8H453.4z"/>
	<path fill="#FFFFFF" stroke="#FFFFFF" stroke-miterlimit="10" d="M484.1,1016.6v-45.8h10.1v45.8H484.1z"/>
	<path fill="#FFFFFF" stroke="#FFFFFF" stroke-miterlimit="10" d="M506.6,1016.6v-45.8h10.1v38.9h10.5v6.8H506.6z"/>
	<path fill="#FFFFFF" stroke="#FFFFFF" stroke-miterlimit="10" d="M537.3,1016.6v-45.8h10.1v38.9h10.5v6.8H537.3z"/>
	<path fill="#FFFFFF" stroke="#FFFFFF" stroke-miterlimit="10" d="M580.5,1017.2c-2.5,0-4.7-0.3-6.5-1c-1.8-0.7-3.2-1.7-4.3-3
		c-1.1-1.3-1.8-2.9-2.3-4.7c-0.5-1.8-0.7-3.9-0.7-6.4v-16.9c0-2.5,0.2-4.6,0.7-6.4c0.5-1.8,1.2-3.4,2.3-4.7c1.1-1.3,2.5-2.3,4.3-3
		c1.8-0.7,4-1,6.5-1c4.9,0,8.5,1.3,10.6,3.8c2.1,2.5,3.2,6.3,3.2,11.2v16.9c0,5-1.1,8.7-3.2,11.3
		C589,1015.9,585.5,1017.2,580.5,1017.2z M579,1009.7c0.4,0.2,1,0.3,1.6,0.3c0.6,0,1.1-0.1,1.6-0.3s0.8-0.5,1-0.8
		c0.2-0.3,0.4-0.7,0.6-1.3s0.2-1,0.3-1.4c0-0.5,0.1-1,0.1-1.6v-21.9c0-0.6,0-1.1-0.1-1.6c0-0.5-0.1-0.9-0.3-1.4s-0.3-0.9-0.6-1.2
		c-0.2-0.3-0.6-0.6-1-0.8c-0.4-0.2-1-0.3-1.6-0.3c-0.6,0-1.1,0.1-1.6,0.3c-0.4,0.2-0.8,0.5-1,0.8c-0.2,0.3-0.4,0.7-0.6,1.2
		c-0.1,0.5-0.2,1-0.2,1.4c0,0.4,0,1,0,1.6v21.9c0,0.6,0,1.2,0,1.6c0,0.4,0.1,0.9,0.2,1.4c0.1,0.5,0.3,0.9,0.6,1.3
		C578.2,1009.2,578.5,1009.5,579,1009.7z"/>
	<path fill="#FFFFFF" stroke="#FFFFFF" stroke-miterlimit="10" d="M618.2,1017.2c-4.3,0-7.6-1.2-9.7-3.5c-2.1-2.3-3.3-6-3.4-11.1
		l8.7-1.3c0,2.9,0.4,5,1,6.2c0.7,1.3,1.6,1.9,2.9,1.9c1.7,0,2.6-1.1,2.6-3.3c0-1.2-0.2-2.4-0.7-3.4s-1-1.9-1.6-2.7
		c-0.6-0.7-1.5-1.6-2.7-2.6l-4.1-3.5c-1-0.8-1.8-1.6-2.4-2.3c-0.6-0.7-1.3-1.5-1.9-2.5c-0.6-1-1.1-2-1.4-3.2
		c-0.3-1.2-0.4-2.5-0.4-3.9c0-3.8,1.1-6.8,3.4-8.8c2.3-2.1,5.4-3.1,9.4-3.1c1.4,0,2.6,0.1,3.7,0.4c1.1,0.3,2.1,0.7,2.8,1.2
		c0.8,0.5,1.4,1.1,2,1.8c0.6,0.7,1,1.5,1.4,2.2c0.3,0.7,0.6,1.5,0.9,2.5c0.2,0.9,0.4,1.7,0.5,2.5c0.1,0.8,0.1,1.6,0.2,2.4l-8.7,1.1
		c0-0.8,0-1.4-0.1-1.9c0-0.5-0.1-1-0.2-1.6c-0.1-0.6-0.2-1-0.3-1.4s-0.3-0.7-0.5-1c-0.2-0.3-0.5-0.5-0.8-0.6
		c-0.3-0.1-0.7-0.2-1.1-0.2c-0.9,0-1.6,0.4-2,1.1c-0.5,0.7-0.7,1.5-0.7,2.4c0,0.9,0.1,1.7,0.3,2.4c0.2,0.7,0.6,1.4,1.1,2.1
		c0.5,0.7,1,1.2,1.3,1.5c0.3,0.3,0.9,0.8,1.7,1.5l3.9,3.4c1.1,1,2,1.9,2.8,2.7c0.8,0.9,1.5,1.9,2.2,3s1.2,2.3,1.6,3.7
		c0.4,1.3,0.5,2.8,0.5,4.3c0,3.3-1.1,6.1-3.3,8.2C624.7,1016.1,621.8,1017.2,618.2,1017.2z"/>
	<path fill="#FFFFFF" stroke="#FFFFFF" stroke-miterlimit="10" d="M129.1,1084.4v-45.8h20.6v6.9h-10.5v11.3h8v7h-8v13.7h10.6v6.8
		H129.1z"/>
	<path fill="#FFFFFF" stroke="#FFFFFF" stroke-miterlimit="10" d="M160,1084.4v-45.8h7.1l9.4,22v-22h8.4v45.8h-6.8l-9.4-23.7v23.7
		H160z"/>
	<path fill="#FFFFFF" stroke="#FFFFFF" stroke-miterlimit="10" d="M217.5,1084.4v-45.8H238v6.9h-10.5v11.3h8v7h-8v13.7h10.6v6.8
		H217.5z"/>
	<path fill="#FFFFFF" stroke="#FFFFFF" stroke-miterlimit="10" d="M248.4,1084.4v-45.8h10.1v38.9H269v6.8H248.4z"/>
	<path fill="#FFFFFF" stroke="#FFFFFF" stroke-miterlimit="10" d="M299.2,1084.4v-45.8h15.3c4,0,7.1,1.1,9.1,3.4c2,2.3,3,5.6,3,9.9
		c0,1.7-0.2,3.2-0.5,4.6c-0.3,1.4-0.7,2.5-1.3,3.4s-1.3,1.7-2,2.4c-0.8,0.7-1.7,1.2-2.7,1.5c-1,0.4-2.1,0.6-3.2,0.8
		c-1.1,0.2-2.3,0.2-3.6,0.2h-4v19.5H299.2z M309.3,1057.9h3.2c1.8,0,3-0.5,3.6-1.4s0.9-2.5,0.9-4.7c0-0.8,0-1.5-0.1-2
		c0-0.5-0.2-1.1-0.3-1.6s-0.4-1-0.7-1.3c-0.3-0.3-0.8-0.6-1.3-0.8c-0.6-0.2-1.3-0.3-2.1-0.3h-3.2V1057.9z"/>
	<path fill="#FFFFFF" stroke="#FFFFFF" stroke-miterlimit="10" d="M336.9,1084.4v-45.8h20.6v6.9H347v11.3h8v7h-8v13.7h10.6v6.8
		H336.9z"/>
	<path fill="#FFFFFF" stroke="#FFFFFF" stroke-miterlimit="10" d="M367.8,1084.4v-45.8h11.5c3,0,5.5,0.3,7.5,0.8s3.6,1.4,4.7,2.6
		c1.2,1.2,2,2.7,2.5,4.5c0.5,1.8,0.7,4,0.7,6.6v16.5c0,2.7-0.2,4.9-0.7,6.7c-0.5,1.8-1.3,3.3-2.5,4.6c-1.2,1.2-2.7,2.1-4.7,2.7
		c-2,0.6-4.4,0.8-7.4,0.8H367.8z M377.9,1077.4h1.5c0.8,0,1.4-0.1,2-0.2c0.5-0.1,1-0.3,1.4-0.5s0.6-0.5,0.9-0.8
		c0.2-0.3,0.4-0.7,0.5-1.2c0.1-0.5,0.2-1.1,0.2-1.5c0-0.5,0-1.1,0-2v-19.7c0-1.2,0-2.1-0.1-2.7c-0.1-0.6-0.3-1.2-0.6-1.7
		c-0.3-0.5-0.8-0.9-1.5-1.1c-0.7-0.2-1.5-0.3-2.7-0.3h-1.5V1077.4z"/>
	<path fill="#FFFFFF" stroke="#FFFFFF" stroke-miterlimit="10" d="M419.7,1085c-2.1,0-3.9-0.2-5.4-0.6c-1.6-0.4-2.8-1-3.9-1.8
		c-1-0.8-1.8-1.8-2.5-3.1c-0.6-1.3-1.1-2.6-1.3-4.2c-0.3-1.5-0.4-3.3-0.4-5.3v-31.3h10v32.8c0,0.7,0,1.3,0.1,1.8
		c0,0.5,0.1,1.1,0.3,1.6c0.1,0.6,0.3,1.1,0.6,1.4c0.2,0.4,0.6,0.7,1,0.9c0.5,0.2,1,0.4,1.6,0.4c0.6,0,1.2-0.1,1.6-0.4
		c0.4-0.2,0.8-0.6,1-0.9c0.2-0.4,0.4-0.9,0.6-1.4s0.2-1.1,0.3-1.7c0-0.5,0.1-1.1,0.1-1.8v-32.8h10v31.3c0,2.5-0.2,4.7-0.6,6.5
		c-0.4,1.8-1.2,3.3-2.2,4.7s-2.4,2.3-4.2,2.9S422.3,1085,419.7,1085z M416.8,1034.6l3.5-11.4h9.4l-7.1,11.4H416.8z"/>
	<path fill="#FFFFFF" stroke="#FFFFFF" stroke-miterlimit="10" d="M445.3,1084.4v-45.8h7.1l9.4,22v-22h8.4v45.8h-6.8l-9.4-23.7v23.7
		H445.3z"/>
	<path fill="#FFFFFF" stroke="#FFFFFF" stroke-miterlimit="10" d="M495.7,1085c-2.6,0-4.7-0.4-6.5-1.1s-3.2-1.8-4.3-3.1
		c-1-1.4-1.8-3-2.2-4.8s-0.7-3.9-0.7-6.3v-16.3c0-2.5,0.2-4.6,0.7-6.5c0.5-1.8,1.2-3.4,2.2-4.8c1-1.4,2.5-2.4,4.2-3.1
		c1.8-0.7,4-1,6.6-1c2.5,0,4.6,0.3,6.3,0.9c1.7,0.6,3.1,1.5,4.1,2.8c1,1.2,1.7,2.6,2.1,4.1c0.4,1.5,0.6,3.3,0.6,5.4v4h-9.9v-4.6
		c0-0.7,0-1.3,0-1.6c0-0.4-0.1-0.8-0.2-1.4c-0.1-0.6-0.3-1-0.5-1.3c-0.2-0.3-0.5-0.6-1-0.8s-1-0.3-1.6-0.3c-0.6,0-1.2,0.1-1.6,0.3
		s-0.8,0.5-1,0.8c-0.2,0.3-0.4,0.8-0.6,1.3c-0.1,0.6-0.2,1.1-0.2,1.5c0,0.5,0,1,0,1.7v21.3c0,1.8,0.2,3.2,0.7,4.2
		c0.5,1,1.4,1.4,2.7,1.4c0.6,0,1.1-0.1,1.6-0.3c0.4-0.2,0.8-0.5,1-0.8s0.4-0.8,0.5-1.3c0.1-0.6,0.2-1.1,0.2-1.5s0-1,0-1.7v-4.8h9.9
		v3.9c0,1.6-0.1,3.1-0.4,4.4c-0.3,1.3-0.7,2.6-1.3,3.7c-0.6,1.2-1.4,2.1-2.4,2.9c-1,0.8-2.2,1.4-3.8,1.9
		C499.4,1084.8,497.7,1085,495.7,1085z"/>
	<path fill="#FFFFFF" stroke="#FFFFFF" stroke-miterlimit="10" d="M533.2,1085c-2.1,0-3.9-0.2-5.5-0.6c-1.6-0.4-2.8-1-3.9-1.8
		c-1-0.8-1.8-1.8-2.5-3.1c-0.6-1.3-1.1-2.6-1.3-4.2s-0.4-3.3-0.4-5.3v-31.3h10v32.8c0,0.7,0,1.3,0.1,1.8c0,0.5,0.1,1.1,0.3,1.6
		s0.3,1.1,0.6,1.4s0.6,0.7,1,0.9c0.5,0.2,1,0.4,1.6,0.4c0.6,0,1.2-0.1,1.6-0.4c0.4-0.2,0.8-0.6,1-0.9s0.4-0.9,0.6-1.4
		c0.1-0.6,0.2-1.1,0.3-1.7c0-0.5,0.1-1.1,0.1-1.8v-32.8h10v31.3c0,2.5-0.2,4.7-0.6,6.5c-0.4,1.8-1.2,3.3-2.2,4.7s-2.4,2.3-4.2,2.9
		C538,1084.7,535.8,1085,533.2,1085z"/>
	<path fill="#FFFFFF" stroke="#FFFFFF" stroke-miterlimit="10" d="M558.8,1084.4v-45.8h10.1v38.9h10.5v6.8H558.8z"/>
	<path fill="#FFFFFF" stroke="#FFFFFF" stroke-miterlimit="10" d="M602,1085c-2.5,0-4.7-0.3-6.5-1c-1.8-0.7-3.2-1.7-4.3-3
		s-1.8-2.9-2.3-4.7s-0.7-3.9-0.7-6.4V1053c0-2.5,0.2-4.6,0.7-6.4c0.5-1.8,1.2-3.4,2.3-4.7s2.5-2.3,4.3-3c1.8-0.7,4-1,6.5-1
		c4.9,0,8.5,1.3,10.6,3.8c2.1,2.5,3.2,6.3,3.2,11.2v16.9c0,5-1.1,8.7-3.2,11.3C610.5,1083.7,607,1085,602,1085z M600.5,1077.5
		c0.4,0.2,1,0.3,1.6,0.3s1.1-0.1,1.6-0.3s0.8-0.5,1-0.8c0.2-0.3,0.4-0.7,0.6-1.3c0.1-0.5,0.2-1,0.3-1.4c0-0.5,0.1-1,0.1-1.6v-21.9
		c0-0.6,0-1.1-0.1-1.6c0-0.5-0.1-0.9-0.3-1.4c-0.1-0.5-0.3-0.9-0.6-1.2s-0.6-0.6-1-0.8c-0.4-0.2-1-0.3-1.6-0.3s-1.1,0.1-1.6,0.3
		c-0.4,0.2-0.8,0.5-1,0.8s-0.4,0.7-0.6,1.2s-0.2,1-0.2,1.4c0,0.4,0,1,0,1.6v21.9c0,0.6,0,1.2,0,1.6c0,0.4,0.1,0.9,0.2,1.4
		c0.1,0.5,0.3,0.9,0.6,1.3C599.7,1077,600,1077.3,600.5,1077.5z"/>
</g>
<g>
	<path fill="#FFFFFF" stroke="#FFFFFF" stroke-miterlimit="10" d="M69.1,376v-45.8h7.1l9.4,22v-22h8.4V376h-6.8l-9.4-23.7V376H69.1z
		"/>
	<path fill="#FFFFFF" stroke="#FFFFFF" stroke-miterlimit="10" d="M106.4,376v-45.8H127v6.9h-10.5v11.3h8v7h-8v13.7h10.6v6.8H106.4z
		"/>
	<path fill="#FFFFFF" stroke="#FFFFFF" stroke-miterlimit="10" d="M137.3,376v-45.8h12.5c1.9,0,3.6,0.1,5.1,0.3
		c1.5,0.2,2.9,0.6,4.2,1.2c1.3,0.6,2.4,1.3,3.2,2.2c0.8,0.9,1.5,2.1,2,3.5c0.5,1.4,0.7,3.1,0.7,5c0,3-0.4,5.4-1.2,7.2
		c-0.8,1.8-2.3,3.2-4.4,4.2l6.3,22.2h-10.5l-5-20.5h-2.8V376H137.3z M147.4,349.7h2.6c2.1,0,3.5-0.5,4.4-1.6
		c0.8-1.1,1.3-2.7,1.3-4.8c0-2.1-0.4-3.7-1.1-4.7c-0.8-1-2.1-1.5-4-1.5h-3.1V349.7z"/>
	<path fill="#FFFFFF" stroke="#FFFFFF" stroke-miterlimit="10" d="M182.7,376l-8.3-45.8h8.6l4.9,30.8l4.6-30.8h9.2l-8.4,45.8H182.7z
		"/>
	<path fill="#FFFFFF" stroke="#FFFFFF" stroke-miterlimit="10" d="M212,376v-45.8h10.1V376H212z"/>
	<path fill="#FFFFFF" stroke="#FFFFFF" stroke-miterlimit="10" d="M247.7,376.6c-2.5,0-4.7-0.3-6.5-1c-1.8-0.7-3.2-1.7-4.3-3
		s-1.8-2.9-2.3-4.7s-0.7-3.9-0.7-6.4v-16.9c0-2.5,0.2-4.6,0.7-6.4c0.5-1.8,1.2-3.4,2.3-4.7s2.5-2.3,4.3-3c1.8-0.7,4-1,6.5-1
		c4.9,0,8.5,1.3,10.6,3.8c2.1,2.5,3.2,6.3,3.2,11.2v16.9c0,5-1.1,8.7-3.2,11.3C256.2,375.4,252.6,376.6,247.7,376.6z M246.1,369.2
		c0.4,0.2,1,0.3,1.6,0.3s1.1-0.1,1.6-0.3s0.8-0.5,1-0.8c0.2-0.3,0.4-0.7,0.6-1.3c0.1-0.5,0.2-1,0.3-1.4c0-0.5,0.1-1,0.1-1.6v-21.9
		c0-0.6,0-1.1-0.1-1.6c0-0.5-0.1-0.9-0.3-1.4c-0.1-0.5-0.3-0.9-0.6-1.2s-0.6-0.6-1-0.8c-0.4-0.2-1-0.3-1.6-0.3s-1.1,0.1-1.6,0.3
		c-0.4,0.2-0.8,0.5-1,0.8s-0.4,0.7-0.6,1.2s-0.2,1-0.2,1.4c0,0.4,0,1,0,1.6v21.9c0,0.6,0,1.2,0,1.6c0,0.4,0.1,0.9,0.2,1.4
		c0.1,0.5,0.3,0.9,0.6,1.3C245.3,368.7,245.7,368.9,246.1,369.2z"/>
	<path fill="#FFFFFF" stroke="#FFFFFF" stroke-miterlimit="10" d="M306.5,376.6c-2.6,0-4.7-0.4-6.5-1.1s-3.2-1.8-4.3-3.1
		c-1-1.4-1.8-3-2.2-4.8s-0.7-3.9-0.7-6.3V345c0-2.5,0.2-4.6,0.7-6.5c0.5-1.8,1.2-3.4,2.2-4.8c1-1.4,2.5-2.4,4.2-3.1
		c1.8-0.7,4-1,6.6-1c2.5,0,4.6,0.3,6.3,0.9c1.7,0.6,3.1,1.5,4.1,2.8c1,1.2,1.7,2.6,2.1,4.1c0.4,1.5,0.6,3.3,0.6,5.4v4h-9.9v-4.6
		c0-0.7,0-1.3,0-1.6c0-0.4-0.1-0.8-0.2-1.4c-0.1-0.6-0.3-1-0.5-1.3c-0.2-0.3-0.5-0.6-1-0.8s-1-0.3-1.6-0.3c-0.6,0-1.2,0.1-1.6,0.3
		s-0.8,0.5-1,0.8c-0.2,0.3-0.4,0.8-0.6,1.3c-0.1,0.6-0.2,1.1-0.2,1.5c0,0.5,0,1,0,1.7v21.3c0,1.8,0.2,3.2,0.7,4.2
		c0.5,1,1.4,1.4,2.7,1.4c0.6,0,1.1-0.1,1.6-0.3c0.4-0.2,0.8-0.5,1-0.8s0.4-0.8,0.5-1.3c0.1-0.6,0.2-1.1,0.2-1.5s0-1,0-1.7V359h9.9
		v3.9c0,1.6-0.1,3.1-0.4,4.4c-0.3,1.3-0.7,2.6-1.3,3.7c-0.6,1.2-1.4,2.1-2.4,2.9c-1,0.8-2.2,1.4-3.8,1.9
		C310.3,376.4,308.5,376.6,306.5,376.6z"/>
	<path fill="#FFFFFF" stroke="#FFFFFF" stroke-miterlimit="10" d="M330.8,376v-45.8h20.6v6.9h-10.5v11.3h8v7h-8v13.7h10.6v6.8H330.8
		z"/>
	<path fill="#FFFFFF" stroke="#FFFFFF" stroke-miterlimit="10" d="M361.7,376v-45.8h7.1l9.4,22v-22h8.4V376h-6.8l-9.4-23.7V376
		H361.7z"/>
	<path fill="#FFFFFF" stroke="#FFFFFF" stroke-miterlimit="10" d="M403.2,376v-38.3h-7v-7.5h24.1v7.5h-7V376H403.2z"/>
	<path fill="#FFFFFF" stroke="#FFFFFF" stroke-miterlimit="10" d="M429.9,376v-45.8h12.5c1.9,0,3.6,0.1,5.1,0.3
		c1.5,0.2,2.9,0.6,4.2,1.2c1.3,0.6,2.4,1.3,3.2,2.2c0.8,0.9,1.5,2.1,2,3.5c0.5,1.4,0.7,3.1,0.7,5c0,3-0.4,5.4-1.2,7.2
		c-0.8,1.8-2.3,3.2-4.4,4.2l6.3,22.2h-10.5l-5-20.5H440V376H429.9z M440,349.7h2.6c2.1,0,3.5-0.5,4.4-1.6c0.8-1.1,1.3-2.7,1.3-4.8
		c0-2.1-0.4-3.7-1.1-4.7c-0.8-1-2.1-1.5-4-1.5H440V349.7z"/>
	<path fill="#FFFFFF" stroke="#FFFFFF" stroke-miterlimit="10" d="M467.1,376l8.7-45.8h11.4l8.6,45.8h-9.3l-1.6-9.7h-6.7l-1.5,9.7
		H467.1z M479.1,360.3h4.9l-2.5-17.7L479.1,360.3z"/>
	<path fill="#FFFFFF" stroke="#FFFFFF" stroke-miterlimit="10" d="M506,376v-45.8h10.1v38.9h10.5v6.8H506z"/>
	<path fill="#FFFFFF" stroke="#FFFFFF" stroke-miterlimit="10" d="M40.5,443.8v-45.8H53c1.9,0,3.6,0.1,5.1,0.3s2.9,0.6,4.2,1.2
		c1.3,0.6,2.4,1.3,3.2,2.2c0.8,0.9,1.5,2.1,2,3.5c0.5,1.4,0.7,3.1,0.7,5c0,3-0.4,5.4-1.2,7.2c-0.8,1.8-2.3,3.2-4.4,4.2l6.3,22.2
		H58.5l-5-20.5h-2.8v20.5H40.5z M50.6,417.5h2.6c2.1,0,3.5-0.5,4.4-1.6c0.8-1.1,1.3-2.7,1.3-4.8c0-2.1-0.4-3.7-1.1-4.7
		c-0.8-1-2.1-1.5-4-1.5h-3.1V417.5z"/>
	<path fill="#FFFFFF" stroke="#FFFFFF" stroke-miterlimit="10" d="M93.1,444.5c-2.5,0-4.7-0.3-6.5-1c-1.8-0.7-3.2-1.7-4.3-3
		s-1.8-2.9-2.3-4.7s-0.7-3.9-0.7-6.4v-16.9c0-2.5,0.2-4.6,0.7-6.4c0.5-1.8,1.2-3.4,2.3-4.7s2.5-2.3,4.3-3c1.8-0.7,4-1,6.5-1
		c4.9,0,8.5,1.3,10.6,3.8c2.1,2.5,3.2,6.3,3.2,11.2v16.9c0,5-1.1,8.7-3.2,11.3C101.6,443.2,98,444.5,93.1,444.5z M91.5,437
		c0.4,0.2,1,0.3,1.6,0.3s1.1-0.1,1.6-0.3s0.8-0.5,1-0.8c0.2-0.3,0.4-0.7,0.6-1.3c0.1-0.5,0.2-1,0.3-1.4c0-0.5,0.1-1,0.1-1.6v-21.9
		c0-0.6,0-1.1-0.1-1.6c0-0.5-0.1-0.9-0.3-1.4c-0.1-0.5-0.3-0.9-0.6-1.2s-0.6-0.6-1-0.8c-0.4-0.2-1-0.3-1.6-0.3s-1.1,0.1-1.6,0.3
		c-0.4,0.2-0.8,0.5-1,0.8s-0.4,0.7-0.6,1.2s-0.2,1-0.2,1.4c0,0.4,0,1,0,1.6v21.9c0,0.6,0,1.2,0,1.6c0,0.4,0.1,0.9,0.2,1.4
		c0.1,0.5,0.3,0.9,0.6,1.3C90.7,436.5,91.1,436.8,91.5,437z"/>
	<path fill="#FFFFFF" stroke="#FFFFFF" stroke-miterlimit="10" d="M116,444.9v-7c0.1,0,0.2,0,0.4,0c2,0,3.3-0.3,4-0.9
		c0.8-0.6,1.2-1.9,1.2-3.8v-35.2h10.1v35.6c0,2-0.2,3.6-0.6,5c-0.3,1.3-0.9,2.5-1.7,3.5c-0.8,1-1.9,1.7-3.3,2.2
		c-1.4,0.5-3.1,0.7-5.2,0.7H116z"/>
	<path fill="#FFFFFF" stroke="#FFFFFF" stroke-miterlimit="10" d="M144.1,443.8v-45.8h10.1v45.8H144.1z"/>
	<path fill="#FFFFFF" stroke="#FFFFFF" stroke-miterlimit="10" d="M165,443.8v-6.1l11.1-32.8h-10.7v-6.9h20.7v5.6L174.7,437h11.5
		v6.8H165z"/>
	<path fill="#FFFFFF" stroke="#FFFFFF" stroke-miterlimit="10" d="M209.8,444.5c-2.5,0-4.7-0.3-6.5-1c-1.8-0.7-3.2-1.7-4.3-3
		s-1.8-2.9-2.3-4.7s-0.7-3.9-0.7-6.4v-16.9c0-2.5,0.2-4.6,0.7-6.4c0.5-1.8,1.2-3.4,2.3-4.7s2.5-2.3,4.3-3c1.8-0.7,4-1,6.5-1
		c4.9,0,8.5,1.3,10.6,3.8c2.1,2.5,3.2,6.3,3.2,11.2v16.9c0,5-1.1,8.7-3.2,11.3C218.3,443.2,214.8,444.5,209.8,444.5z M208.3,437
		c0.4,0.2,1,0.3,1.6,0.3s1.1-0.1,1.6-0.3s0.8-0.5,1-0.8c0.2-0.3,0.4-0.7,0.6-1.3c0.1-0.5,0.2-1,0.3-1.4c0-0.5,0.1-1,0.1-1.6v-21.9
		c0-0.6,0-1.1-0.1-1.6c0-0.5-0.1-0.9-0.3-1.4c-0.1-0.5-0.3-0.9-0.6-1.2s-0.6-0.6-1-0.8c-0.4-0.2-1-0.3-1.6-0.3s-1.1,0.1-1.6,0.3
		c-0.4,0.2-0.8,0.5-1,0.8s-0.4,0.7-0.6,1.2s-0.2,1-0.2,1.4c0,0.4,0,1,0,1.6v21.9c0,0.6,0,1.2,0,1.6c0,0.4,0.1,0.9,0.2,1.4
		c0.1,0.5,0.3,0.9,0.6,1.3C207.5,436.5,207.8,436.8,208.3,437z"/>
	<path fill="#FFFFFF" stroke="#FFFFFF" stroke-miterlimit="10" d="M261.4,443.8v-18.7l-8.7-27h9.5l4.4,14.5l3.9-14.5h9.2l-8.6,27
		v18.7H261.4z"/>
	<path fill="#FFFFFF" stroke="#FFFFFF" stroke-miterlimit="10" d="M309.3,443.8v-45.8h15.3c4,0,7.1,1.1,9.1,3.4s3,5.6,3,9.9
		c0,1.7-0.2,3.2-0.5,4.6s-0.8,2.5-1.3,3.4c-0.6,0.9-1.3,1.7-2,2.4c-0.8,0.7-1.7,1.2-2.7,1.5c-1,0.4-2.1,0.6-3.2,0.8
		c-1.1,0.2-2.3,0.2-3.6,0.2h-4v19.5H309.3z M319.4,417.3h3.2c1.8,0,3-0.5,3.6-1.4s0.9-2.5,0.9-4.7c0-0.8,0-1.5-0.1-2
		c0-0.5-0.2-1.1-0.3-1.6c-0.2-0.6-0.4-1-0.7-1.3c-0.3-0.3-0.8-0.6-1.3-0.8s-1.3-0.3-2.1-0.3h-3.2V417.3z"/>
	<path fill="#FFFFFF" stroke="#FFFFFF" stroke-miterlimit="10" d="M347,443.8v-45.8h20.6v6.9h-10.5v11.3h8v7h-8V437h10.6v6.8H347z"
		/>
	<path fill="#FFFFFF" stroke="#FFFFFF" stroke-miterlimit="10" d="M377.9,443.8v-45.8H388V437h10.5v6.8H377.9z"/>
	<path fill="#FFFFFF" stroke="#FFFFFF" stroke-miterlimit="10" d="M408.6,443.8v-45.8h10.1v45.8H408.6z"/>
	<path fill="#FFFFFF" stroke="#FFFFFF" stroke-miterlimit="10" d="M431.2,443.8v-45.8h10.1V437h10.5v6.8H431.2z"/>
	<path fill="#FFFFFF" stroke="#FFFFFF" stroke-miterlimit="10" d="M461.8,443.8v-45.8h10.1V437h10.5v6.8H461.8z"/>
	<path fill="#FFFFFF" stroke="#FFFFFF" stroke-miterlimit="10" d="M505.1,444.5c-2.5,0-4.7-0.3-6.5-1c-1.8-0.7-3.2-1.7-4.3-3
		c-1.1-1.3-1.8-2.9-2.3-4.7c-0.5-1.8-0.7-3.9-0.7-6.4v-16.9c0-2.5,0.2-4.6,0.7-6.4c0.5-1.8,1.2-3.4,2.3-4.7c1.1-1.3,2.5-2.3,4.3-3
		c1.8-0.7,4-1,6.5-1c4.9,0,8.5,1.3,10.6,3.8c2.1,2.5,3.2,6.3,3.2,11.2v16.9c0,5-1.1,8.7-3.2,11.3C513.6,443.2,510,444.5,505.1,444.5
		z M503.5,437c0.4,0.2,1,0.3,1.6,0.3c0.6,0,1.1-0.1,1.6-0.3s0.8-0.5,1-0.8c0.2-0.3,0.4-0.7,0.6-1.3s0.2-1,0.3-1.4
		c0-0.5,0.1-1,0.1-1.6v-21.9c0-0.6,0-1.1-0.1-1.6c0-0.5-0.1-0.9-0.3-1.4s-0.3-0.9-0.6-1.2c-0.2-0.3-0.6-0.6-1-0.8
		c-0.4-0.2-1-0.3-1.6-0.3c-0.6,0-1.1,0.1-1.6,0.3c-0.4,0.2-0.8,0.5-1,0.8c-0.2,0.3-0.4,0.7-0.6,1.2c-0.1,0.5-0.2,1-0.2,1.4
		c0,0.4,0,1,0,1.6v21.9c0,0.6,0,1.2,0,1.6c0,0.4,0.1,0.9,0.2,1.4c0.1,0.5,0.3,0.9,0.6,1.3C502.7,436.5,503.1,436.8,503.5,437z"/>
	<path fill="#FFFFFF" stroke="#FFFFFF" stroke-miterlimit="10" d="M542.8,444.5c-4.3,0-7.6-1.2-9.7-3.5c-2.1-2.3-3.3-6-3.4-11.1
		l8.7-1.3c0,2.9,0.4,5,1,6.2c0.7,1.3,1.6,1.9,2.9,1.9c1.7,0,2.6-1.1,2.6-3.3c0-1.2-0.2-2.4-0.7-3.4s-1-1.9-1.6-2.7
		c-0.6-0.7-1.5-1.6-2.7-2.6l-4.1-3.5c-1-0.8-1.8-1.6-2.4-2.3c-0.6-0.7-1.3-1.5-1.9-2.5c-0.6-1-1.1-2-1.4-3.2
		c-0.3-1.2-0.4-2.5-0.4-3.9c0-3.8,1.1-6.8,3.4-8.8c2.3-2.1,5.4-3.1,9.4-3.1c1.4,0,2.6,0.1,3.7,0.4c1.1,0.3,2.1,0.7,2.8,1.2
		c0.8,0.5,1.4,1.1,2,1.8c0.6,0.7,1,1.5,1.4,2.2c0.3,0.7,0.6,1.5,0.9,2.5c0.2,0.9,0.4,1.7,0.5,2.5c0.1,0.8,0.1,1.6,0.2,2.4l-8.7,1.1
		c0-0.8,0-1.4-0.1-1.9c0-0.5-0.1-1-0.2-1.6c-0.1-0.6-0.2-1-0.3-1.4s-0.3-0.7-0.5-1c-0.2-0.3-0.5-0.5-0.8-0.6
		c-0.3-0.1-0.7-0.2-1.1-0.2c-0.9,0-1.6,0.4-2,1.1c-0.5,0.7-0.7,1.5-0.7,2.4c0,0.9,0.1,1.7,0.3,2.4c0.2,0.7,0.6,1.4,1.1,2.1
		c0.5,0.7,1,1.2,1.3,1.5c0.3,0.3,0.9,0.8,1.7,1.5l3.9,3.4c1.1,1,2,1.9,2.8,2.7c0.8,0.9,1.5,1.9,2.2,3s1.2,2.3,1.6,3.7
		c0.4,1.3,0.5,2.8,0.5,4.3c0,3.3-1.1,6.1-3.3,8.2C549.3,443.4,546.4,444.5,542.8,444.5z"/>
	<path fill="#FFFFFF" stroke="#FFFFFF" stroke-miterlimit="10" d="M53.7,511.6v-45.8h20.6v6.9H63.8v11.3h8v7h-8v13.7h10.6v6.8H53.7z
		"/>
	<path fill="#FFFFFF" stroke="#FFFFFF" stroke-miterlimit="10" d="M84.6,511.6v-45.8h7.1l9.4,22v-22h8.4v45.8h-6.8L93.2,488v23.7
		H84.6z"/>
	<path fill="#FFFFFF" stroke="#FFFFFF" stroke-miterlimit="10" d="M142,511.6v-45.8h20.6v6.9h-10.5v11.3h8v7h-8v13.7h10.6v6.8H142z"
		/>
	<path fill="#FFFFFF" stroke="#FFFFFF" stroke-miterlimit="10" d="M172.9,511.6v-45.8H183v38.9h10.5v6.8H172.9z"/>
	<path fill="#FFFFFF" stroke="#FFFFFF" stroke-miterlimit="10" d="M223.7,511.6v-45.8H239c4,0,7.1,1.1,9.1,3.4c2,2.3,3,5.6,3,9.9
		c0,1.7-0.2,3.2-0.5,4.6c-0.3,1.4-0.7,2.5-1.3,3.4s-1.3,1.7-2,2.4c-0.8,0.7-1.7,1.2-2.7,1.5c-1,0.4-2.1,0.6-3.2,0.8
		c-1.1,0.2-2.3,0.2-3.6,0.2h-4v19.5H223.7z M233.8,485.1h3.2c1.8,0,3-0.5,3.6-1.4s0.9-2.5,0.9-4.7c0-0.8,0-1.5-0.1-2
		c0-0.5-0.2-1.1-0.3-1.6s-0.4-1-0.7-1.3c-0.3-0.3-0.8-0.6-1.3-0.8c-0.6-0.2-1.3-0.3-2.1-0.3h-3.2V485.1z"/>
	<path fill="#FFFFFF" stroke="#FFFFFF" stroke-miterlimit="10" d="M261.5,511.6v-45.8H282v6.9h-10.5v11.3h8v7h-8v13.7h10.6v6.8
		H261.5z"/>
	<path fill="#FFFFFF" stroke="#FFFFFF" stroke-miterlimit="10" d="M292.3,511.6v-45.8h11.5c3,0,5.5,0.3,7.5,0.8s3.6,1.4,4.7,2.6
		c1.2,1.2,2,2.7,2.5,4.5c0.5,1.8,0.7,4,0.7,6.6v16.5c0,2.7-0.2,4.9-0.7,6.7c-0.5,1.8-1.3,3.3-2.5,4.6c-1.2,1.2-2.7,2.1-4.7,2.7
		c-2,0.6-4.4,0.8-7.4,0.8H292.3z M302.4,504.6h1.5c0.8,0,1.4-0.1,2-0.2c0.5-0.1,1-0.3,1.4-0.5s0.6-0.5,0.9-0.8
		c0.2-0.3,0.4-0.7,0.5-1.2c0.1-0.5,0.2-1.1,0.2-1.5c0-0.5,0-1.1,0-2v-19.7c0-1.2,0-2.1-0.1-2.7c-0.1-0.6-0.3-1.2-0.6-1.7
		c-0.3-0.5-0.8-0.9-1.5-1.1c-0.7-0.2-1.5-0.3-2.7-0.3h-1.5V504.6z"/>
	<path fill="#FFFFFF" stroke="#FFFFFF" stroke-miterlimit="10" d="M344.2,512.3c-2.1,0-3.9-0.2-5.4-0.6c-1.6-0.4-2.8-1-3.9-1.8
		c-1-0.8-1.8-1.8-2.5-3.1c-0.6-1.3-1.1-2.6-1.3-4.2c-0.3-1.5-0.4-3.3-0.4-5.3v-31.3h10v32.8c0,0.7,0,1.3,0.1,1.8
		c0,0.5,0.1,1.1,0.3,1.6c0.1,0.6,0.3,1.1,0.6,1.4c0.2,0.4,0.6,0.7,1,0.9c0.5,0.2,1,0.4,1.6,0.4c0.6,0,1.2-0.1,1.6-0.4
		c0.4-0.2,0.8-0.6,1-0.9c0.2-0.4,0.4-0.9,0.6-1.4s0.2-1.1,0.3-1.7c0-0.5,0.1-1.1,0.1-1.8v-32.8h10v31.3c0,2.5-0.2,4.7-0.6,6.5
		c-0.4,1.8-1.2,3.3-2.2,4.7s-2.4,2.3-4.2,2.9S346.8,512.3,344.2,512.3z M341.3,461.9l3.5-11.4h9.4l-7.1,11.4H341.3z"/>
	<path fill="#FFFFFF" stroke="#FFFFFF" stroke-miterlimit="10" d="M369.8,511.6v-45.8h7.1l9.4,22v-22h8.4v45.8h-6.8l-9.4-23.7v23.7
		H369.8z"/>
	<path fill="#FFFFFF" stroke="#FFFFFF" stroke-miterlimit="10" d="M420.2,512.3c-2.6,0-4.7-0.4-6.5-1.1s-3.2-1.8-4.3-3.1
		c-1-1.4-1.8-3-2.2-4.8s-0.7-3.9-0.7-6.3v-16.3c0-2.5,0.2-4.6,0.7-6.5c0.5-1.8,1.2-3.4,2.2-4.8c1-1.4,2.5-2.4,4.2-3.1
		c1.8-0.7,4-1,6.6-1c2.5,0,4.6,0.3,6.3,0.9c1.7,0.6,3.1,1.5,4.1,2.8c1,1.2,1.7,2.6,2.1,4.1c0.4,1.5,0.6,3.3,0.6,5.4v4h-9.9v-4.6
		c0-0.7,0-1.3,0-1.6c0-0.4-0.1-0.8-0.2-1.4c-0.1-0.6-0.3-1-0.5-1.3c-0.2-0.3-0.5-0.6-1-0.8s-1-0.3-1.6-0.3c-0.6,0-1.2,0.1-1.6,0.3
		s-0.8,0.5-1,0.8c-0.2,0.3-0.4,0.8-0.6,1.3c-0.1,0.6-0.2,1.1-0.2,1.5c0,0.5,0,1,0,1.7v21.3c0,1.8,0.2,3.2,0.7,4.2
		c0.5,1,1.4,1.4,2.7,1.4c0.6,0,1.1-0.1,1.6-0.3c0.4-0.2,0.8-0.5,1-0.8s0.4-0.8,0.5-1.3c0.1-0.6,0.2-1.1,0.2-1.5s0-1,0-1.7v-4.8h9.9
		v3.9c0,1.6-0.1,3.1-0.4,4.4c-0.3,1.3-0.7,2.6-1.3,3.7c-0.6,1.2-1.4,2.1-2.4,2.9c-1,0.8-2.2,1.4-3.8,1.9
		C424,512,422.2,512.3,420.2,512.3z"/>
	<path fill="#FFFFFF" stroke="#FFFFFF" stroke-miterlimit="10" d="M457.7,512.3c-2.1,0-3.9-0.2-5.5-0.6c-1.6-0.4-2.8-1-3.9-1.8
		c-1-0.8-1.8-1.8-2.5-3.1c-0.6-1.3-1.1-2.6-1.3-4.2s-0.4-3.3-0.4-5.3v-31.3h10v32.8c0,0.7,0,1.3,0.1,1.8c0,0.5,0.1,1.1,0.3,1.6
		s0.3,1.1,0.6,1.4s0.6,0.7,1,0.9c0.5,0.2,1,0.4,1.6,0.4c0.6,0,1.2-0.1,1.6-0.4c0.4-0.2,0.8-0.6,1-0.9s0.4-0.9,0.6-1.4
		c0.1-0.6,0.2-1.1,0.3-1.7c0-0.5,0.1-1.1,0.1-1.8v-32.8h10v31.3c0,2.5-0.2,4.7-0.6,6.5c-0.4,1.8-1.2,3.3-2.2,4.7s-2.4,2.3-4.2,2.9
		C462.5,512,460.3,512.3,457.7,512.3z"/>
	<path fill="#FFFFFF" stroke="#FFFFFF" stroke-miterlimit="10" d="M483.3,511.6v-45.8h10.1v38.9h10.5v6.8H483.3z"/>
	<path fill="#FFFFFF" stroke="#FFFFFF" stroke-miterlimit="10" d="M526.6,512.3c-2.5,0-4.7-0.3-6.5-1c-1.8-0.7-3.2-1.7-4.3-3
		s-1.8-2.9-2.3-4.7s-0.7-3.9-0.7-6.4v-16.9c0-2.5,0.2-4.6,0.7-6.4c0.5-1.8,1.2-3.4,2.3-4.7s2.5-2.3,4.3-3c1.8-0.7,4-1,6.5-1
		c4.9,0,8.5,1.3,10.6,3.8c2.1,2.5,3.2,6.3,3.2,11.2v16.9c0,5-1.1,8.7-3.2,11.3C535.1,511,531.5,512.3,526.6,512.3z M525,504.8
		c0.4,0.2,1,0.3,1.6,0.3s1.1-0.1,1.6-0.3s0.8-0.5,1-0.8c0.2-0.3,0.4-0.7,0.6-1.3c0.1-0.5,0.2-1,0.3-1.4c0-0.5,0.1-1,0.1-1.6v-21.9
		c0-0.6,0-1.1-0.1-1.6c0-0.5-0.1-0.9-0.3-1.4c-0.1-0.5-0.3-0.9-0.6-1.2s-0.6-0.6-1-0.8c-0.4-0.2-1-0.3-1.6-0.3s-1.1,0.1-1.6,0.3
		c-0.4,0.2-0.8,0.5-1,0.8s-0.4,0.7-0.6,1.2s-0.2,1-0.2,1.4c0,0.4,0,1,0,1.6v21.9c0,0.6,0,1.2,0,1.6c0,0.4,0.1,0.9,0.2,1.4
		c0.1,0.5,0.3,0.9,0.6,1.3C524.2,504.3,524.6,504.6,525,504.8z"/>
</g>
</svg>
