<?xml version="1.0" encoding="utf-8"?>
<!-- Generator: Adobe Illustrator 18.0.0, SVG Export Plug-In . SVG Version: 6.00 Build 0)  -->
<!DOCTYPE svg PUBLIC "-//W3C//DTD SVG 1.1//EN" "http://www.w3.org/Graphics/SVG/1.1/DTD/svg11.dtd" [
	<!ENTITY ns_flows "http://ns.adobe.com/Flows/1.0/">
	<!ENTITY ns_extend "http://ns.adobe.com/Extensibility/1.0/">
	<!ENTITY ns_ai "http://ns.adobe.com/AdobeIllustrator/10.0/">
	<!ENTITY ns_graphs "http://ns.adobe.com/Graphs/1.0/">
]>
<svg version="1.1" id="Capa_1" xmlns:x="&ns_extend;" xmlns:i="&ns_ai;" xmlns:graph="&ns_graphs;"
	 xmlns="http://www.w3.org/2000/svg" xmlns:xlink="http://www.w3.org/1999/xlink" xmlns:a="http://ns.adobe.com/AdobeSVGViewerExtensions/3.0/"
	 x="0px" y="0px" viewBox="0 0 595.3 841.9" enable-background="new 0 0 595.3 841.9" xml:space="preserve">
<g>
	<g>
		<path fill="#FFFFFF" stroke="#FFFFFF" stroke-miterlimit="10" d="M163.9,244v-60.2H184c5.3,0,9.3,1.5,12,4.5s4,7.3,4,13
			c0,2.3-0.2,4.3-0.6,6.1c-0.4,1.8-1,3.3-1.8,4.5s-1.7,2.3-2.7,3.1c-1,0.9-2.2,1.5-3.6,2c-1.4,0.5-2.7,0.8-4.2,1
			c-1.4,0.2-3,0.3-4.7,0.3h-5.2V244H163.9z M177.2,209.1h4.3c2.4,0,4-0.6,4.8-1.8c0.8-1.2,1.2-3.3,1.2-6.2c0-1,0-1.9-0.1-2.6
			c-0.1-0.7-0.2-1.4-0.4-2.1c-0.2-0.7-0.6-1.3-1-1.7s-1-0.8-1.8-1c-0.8-0.3-1.7-0.4-2.7-0.4h-4.2V209.1z"/>
		<path fill="#FFFFFF" stroke="#FFFFFF" stroke-miterlimit="10" d="M231,244.9c-2.7,0-5.1-0.3-7.2-0.9c-2-0.6-3.7-1.4-5.1-2.4
			c-1.3-1-2.4-2.4-3.3-4.1c-0.8-1.7-1.4-3.5-1.8-5.5s-0.5-4.3-0.5-7v-41.3h13.2V227c0,0.9,0,1.8,0.1,2.4c0,0.7,0.2,1.4,0.3,2.2
			s0.4,1.4,0.7,1.9c0.3,0.5,0.8,0.9,1.4,1.2s1.3,0.5,2.1,0.5s1.5-0.2,2.1-0.5c0.6-0.3,1-0.7,1.3-1.2c0.3-0.5,0.6-1.1,0.7-1.9
			s0.3-1.5,0.3-2.2c0-0.7,0.1-1.5,0.1-2.4v-43.2h13.2v41.3c0,3.3-0.3,6.2-0.9,8.5c-0.6,2.3-1.5,4.4-2.9,6.1c-1.3,1.7-3.2,3-5.5,3.9
			C237.3,244.5,234.4,244.9,231,244.9z"/>
		<path fill="#FFFFFF" stroke="#FFFFFF" stroke-miterlimit="10" d="M264.7,244v-60.2h9.4l12.4,28.9v-28.9h11V244h-9l-12.4-31.2V244
			H264.7z"/>
		<path fill="#FFFFFF" stroke="#FFFFFF" stroke-miterlimit="10" d="M319.3,244v-50.4h-9.3v-9.8h31.8v9.8h-9.2V244H319.3z"/>
		<path fill="#FFFFFF" stroke="#FFFFFF" stroke-miterlimit="10" d="M351.2,244l11.4-60.2h15L389,244h-12.3l-2.1-12.8h-8.8l-2,12.8
			H351.2z M367,223.3h6.4l-3.2-23.3L367,223.3z"/>
		<path fill="#FFFFFF" stroke="#FFFFFF" stroke-miterlimit="10" d="M418.4,244.9c-5.7,0-10-1.5-12.8-4.6c-2.8-3-4.3-7.9-4.5-14.6
			l11.4-1.7c0,3.8,0.5,6.5,1.4,8.2c0.9,1.7,2.1,2.6,3.9,2.6c2.3,0,3.4-1.5,3.4-4.4c0-1.6-0.3-3.1-0.9-4.5c-0.6-1.4-1.3-2.5-2.1-3.5
			c-0.8-1-2-2.1-3.6-3.4l-5.3-4.6c-1.3-1.1-2.3-2.1-3.2-3.1c-0.8-0.9-1.7-2-2.5-3.3s-1.4-2.7-1.8-4.2s-0.6-3.3-0.6-5.1
			c0-5,1.5-8.9,4.5-11.6c3-2.7,7.1-4.1,12.4-4.1c1.8,0,3.4,0.2,4.9,0.6c1.5,0.4,2.7,0.9,3.7,1.5c1,0.6,1.9,1.4,2.7,2.4
			c0.8,1,1.4,1.9,1.8,2.9c0.4,1,0.8,2,1.1,3.2c0.3,1.2,0.5,2.3,0.6,3.3s0.2,2.1,0.2,3.2l-11.5,1.5c0-1-0.1-1.9-0.1-2.5
			c0-0.7-0.1-1.4-0.2-2.1c-0.1-0.8-0.2-1.4-0.4-1.8c-0.2-0.5-0.4-0.9-0.7-1.3s-0.6-0.7-1.1-0.9c-0.4-0.2-0.9-0.2-1.5-0.2
			c-1.2,0-2.1,0.5-2.7,1.5c-0.6,1-0.9,2-0.9,3.2c0,1.1,0.1,2.2,0.4,3.1s0.8,1.8,1.5,2.7c0.7,0.9,1.3,1.5,1.7,2
			c0.4,0.4,1.2,1.1,2.2,2l5.1,4.5c1.4,1.3,2.6,2.5,3.6,3.6c1,1.2,2,2.5,2.9,3.9c0.9,1.5,1.6,3.1,2.1,4.8c0.5,1.8,0.7,3.6,0.7,5.6
			c0,4.4-1.5,8-4.4,10.8S423.1,244.9,418.4,244.9z"/>
		<path fill="#FFFFFF" stroke="#FFFFFF" stroke-miterlimit="10" d="M127.8,333.3l11.4-60.2h15l11.3,60.2h-12.3l-2.1-12.8h-8.8
			l-2,12.8H127.8z M143.6,312.6h6.4l-3.2-23.3L143.6,312.6z"/>
		<path fill="#FFFFFF" stroke="#FFFFFF" stroke-miterlimit="10" d="M179,333.3v-60.2h26.1v9h-12.8v15.2h11v9.3h-11v26.7H179z"/>
		<path fill="#FFFFFF" stroke="#FFFFFF" stroke-miterlimit="10" d="M218.8,333.3v-60.2h13.3v60.2H218.8z"/>
		<path fill="#FFFFFF" stroke="#FFFFFF" stroke-miterlimit="10" d="M248.5,333.3v-60.2h13.3v51.2h13.8v9H248.5z"/>
		<path fill="#FFFFFF" stroke="#FFFFFF" stroke-miterlimit="10" d="M286,333.3l11.4-60.2h15l11.3,60.2h-12.3l-2.1-12.8h-8.8l-2,12.8
			H286z M301.8,312.6h6.4l-3.2-23.3L301.8,312.6z"/>
		<path fill="#FFFFFF" stroke="#FFFFFF" stroke-miterlimit="10" d="M337.2,333.3v-60.2h15.1c3.9,0,7.2,0.4,9.8,1.1
			c2.6,0.7,4.7,1.9,6.2,3.5s2.6,3.6,3.3,5.9c0.6,2.3,0.9,5.2,0.9,8.7v21.7c0,3.5-0.3,6.4-1,8.8c-0.6,2.4-1.7,4.4-3.3,6
			c-1.5,1.6-3.6,2.8-6.2,3.5s-5.8,1.1-9.7,1.1H337.2z M350.5,324.1h2c1,0,1.9-0.1,2.6-0.2c0.7-0.1,1.3-0.4,1.8-0.7
			c0.5-0.3,0.8-0.7,1.1-1.1c0.3-0.4,0.5-0.9,0.6-1.6c0.1-0.7,0.2-1.4,0.3-2c0-0.6,0.1-1.5,0.1-2.6v-25.9c0-1.5-0.1-2.7-0.2-3.5
			c-0.1-0.8-0.4-1.6-0.8-2.3s-1.1-1.1-1.9-1.4c-0.9-0.3-2-0.4-3.5-0.4h-2V324.1z"/>
		<path fill="#FFFFFF" stroke="#FFFFFF" stroke-miterlimit="10" d="M384.5,333.3l11.4-60.2h15l11.3,60.2H410l-2.1-12.8h-8.8l-2,12.8
			H384.5z M400.3,312.6h6.4l-3.2-23.3L400.3,312.6z"/>
		<path fill="#FFFFFF" stroke="#FFFFFF" stroke-miterlimit="10" d="M451.7,334.2c-5.7,0-10-1.5-12.8-4.6c-2.8-3-4.3-7.9-4.5-14.6
			l11.4-1.7c0,3.8,0.5,6.5,1.4,8.2c0.9,1.7,2.1,2.6,3.9,2.6c2.3,0,3.4-1.5,3.4-4.4c0-1.6-0.3-3.1-0.9-4.5c-0.6-1.4-1.3-2.5-2.1-3.5
			s-2-2.1-3.6-3.4l-5.3-4.6c-1.3-1.1-2.3-2.1-3.2-3.1c-0.8-0.9-1.7-2-2.5-3.3s-1.4-2.7-1.8-4.2c-0.4-1.5-0.6-3.3-0.6-5.1
			c0-5,1.5-8.9,4.5-11.6c3-2.7,7.1-4.1,12.4-4.1c1.8,0,3.4,0.2,4.9,0.6c1.5,0.4,2.7,0.9,3.7,1.5c1,0.6,1.9,1.4,2.7,2.4
			c0.8,1,1.4,1.9,1.8,2.9c0.4,1,0.8,2,1.1,3.2s0.5,2.3,0.6,3.3s0.2,2.1,0.2,3.2l-11.5,1.5c0-1-0.1-1.9-0.1-2.5
			c0-0.7-0.1-1.4-0.2-2.1c-0.1-0.8-0.2-1.4-0.4-1.8c-0.2-0.5-0.4-0.9-0.7-1.3c-0.3-0.4-0.6-0.7-1.1-0.9c-0.4-0.2-0.9-0.2-1.5-0.2
			c-1.2,0-2.1,0.5-2.7,1.5c-0.6,1-0.9,2-0.9,3.2c0,1.1,0.1,2.2,0.4,3.1c0.3,0.9,0.8,1.8,1.5,2.7c0.7,0.9,1.3,1.5,1.7,2
			c0.4,0.4,1.2,1.1,2.2,2l5.1,4.5c1.4,1.3,2.6,2.5,3.6,3.6c1,1.2,2,2.5,2.9,3.9c0.9,1.5,1.6,3.1,2.1,4.8c0.5,1.8,0.7,3.6,0.7,5.6
			c0,4.4-1.5,8-4.4,10.8S456.4,334.2,451.7,334.2z"/>
	</g>
	<g>
		<g>
			<g>
				<path fill="#59704B" d="M208.7,631.4c0.3-0.1,0.6-0.2,0.9-0.3c21.1-4,42.1-9.6,62.1-17.6c32.4-13,61.9-32.1,86.2-57.3
					c5.5-5.7,10.6-11.6,15.5-17.8c19.6-33.5,38.4-67.6,55.8-102.4c-24.3,0.8-48.6,2.7-72.4,7.8c-1.2,0.3-2.4,0.5-3.5,0.8
					c-19.9,6.5-39.3,14.5-57.4,24.7c-36,20.3-67.2,50.1-82.2,87.2c-8,19.9-11,27.1-14.1,48.1l-0.1,0
					C194.2,613.6,199.7,625.6,208.7,631.4C208.7,631.4,208.7,631.4,208.7,631.4z"/>
			</g>
			<g>
				<g>
					<path fill="#59704B" d="M208.9,632c4.4-1.5,9.4-2,13.9-3c5.6-1.2,11.1-2.6,16.6-4.1c10.4-2.8,20.6-6.2,30.7-10.1
						c17.1-6.7,33.5-15.1,48.8-25.3c15.3-10.2,29.4-22.1,42-35.5c6.9-7.4,12.9-14.9,18-23.7c5.5-9.5,11-19.1,16.3-28.7
						c12-21.5,23.6-43.2,34.6-65.2c0.2-0.4,0-1-0.5-0.9c-23.4,0.8-46.8,2.6-69.7,7.2c-11.1,2.2-21.9,6.6-32.3,10.9
						c-10,4.1-19.7,8.7-29.2,13.9c-33.2,18.2-63.3,44.7-80.4,79c-4.6,9.2-8.3,19-11.7,28.7c-0.9,2.7-7.6,28.9-6.3,28.9
						c-0.2,0-0.4,0.1-0.5,0.3c-5.3,9.8,0.2,22.2,9.4,27.6c0.7,0.4,1.3-0.7,0.6-1.1c-3.8-2.2-7.1-6.1-9-10.1c-1.1-2.3-1.9-4.8-2-7.4
						c0-0.5,0.5-8.2,1.6-8.1c0.2,0,0.6-0.2,0.6-0.5c5.2-34.7,20-68.4,43.8-94.3c26.5-28.8,61.5-48.2,98-61.4
						c20.5-7.4,42.5-9.8,64.1-11.3c5.4-0.4,10.9-0.7,16.3-0.9c1.1,0,2.8-0.5,3.8-0.1c1.6,0.6,1.1-0.2,1,1.6c-0.1,2.1-3,5.9-4,7.8
						c-5,9.8-10.1,19.6-15.3,29.3c-10.4,19.4-21.2,38.6-32.3,57.7c-10,17.2-26.6,31.9-42.1,44.1c-16.9,13.3-35.6,24.3-55.3,32.8
						c-11.3,4.9-22.9,9-34.7,12.4c-5.8,1.7-11.6,3.2-17.5,4.6c-5.8,1.4-12,2-17.6,3.8C207.8,631,208.1,632.2,208.9,632z"/>
				</g>
			</g>
		</g>
		<g>
			<g>
				<path fill="#59704B" d="M243.7,590.4c-25.8,7-49.3,22.4-66,43.2c-1.2,1.5-2.4,3-2.8,4.8c-1.7,6.5,6,11.5,7.7,18
					c3.8-12,7.8-24.3,15.3-34.5c5-6.8,11.3-12.4,17.9-17.6c8.4-6.5,17.2-12.4,26.5-17.5"/>
			</g>
			<g>
				<g>
					<path fill="#59704B" d="M243.1,588c-19,5.3-36.7,14.7-51.6,27.7c-3.6,3.2-7.1,6.5-10.3,10.1c-2.8,3.1-6.4,6.5-8.1,10.4
						c-3.5,8.3,4.8,13.8,7.1,21c0.8,2.4,4.1,2.4,4.8,0c4.7-14.6,9.7-29.1,20.6-40.4c10.8-11.2,24.4-20.1,37.9-27.7
						c2.8-1.6,0.3-5.9-2.5-4.3c-14.3,8-28.9,17.5-40.1,29.7c-10.8,11.7-16,26.5-20.7,41.4c1.6,0,3.2,0,4.8,0
						c-2.3-7-11.2-13-5.6-20.4c5.2-6.7,11.5-12.8,18-18.2c13.7-11.3,29.8-19.6,46.9-24.3C247.5,592,246.2,587.2,243.1,588L243.1,588
						z"/>
				</g>
			</g>
		</g>
		<g opacity="0.4">
			<g>
				<path fill="#8B9D80" d="M202.1,615.6c21.9-27.7,47.3-52.3,74.3-75c28.7-24.2,58.5-47.1,89.2-68.7c15.6-11,32.5-20.7,51.6-23.5
					c1.6-0.2,0.9-2.6-0.7-2.4c-16.5,2.5-31.4,10-45.2,19c-15.5,10.2-30.4,21.5-45.2,32.8c-29.2,22.1-58.1,45.2-84.5,70.7
					c-14.7,14.2-28.6,29.3-41.3,45.4C199.4,615.1,201.1,616.8,202.1,615.6L202.1,615.6z"/>
			</g>
		</g>
	</g>
</g>
</svg>
