<?xml version="1.0" encoding="utf-8"?>
<!-- Generator: Adobe Illustrator 18.0.0, SVG Export Plug-In . SVG Version: 6.00 Build 0)  -->
<!DOCTYPE svg PUBLIC "-//W3C//DTD SVG 1.1//EN" "http://www.w3.org/Graphics/SVG/1.1/DTD/svg11.dtd" [
	<!ENTITY ns_flows "http://ns.adobe.com/Flows/1.0/">
	<!ENTITY ns_extend "http://ns.adobe.com/Extensibility/1.0/">
	<!ENTITY ns_ai "http://ns.adobe.com/AdobeIllustrator/10.0/">
	<!ENTITY ns_graphs "http://ns.adobe.com/Graphs/1.0/">
]>
<svg version="1.1" id="Capa_1" xmlns:x="&ns_extend;" xmlns:i="&ns_ai;" xmlns:graph="&ns_graphs;"
	 xmlns="http://www.w3.org/2000/svg" xmlns:xlink="http://www.w3.org/1999/xlink" xmlns:a="http://ns.adobe.com/AdobeSVGViewerExtensions/3.0/"
	 x="0px" y="0px" viewBox="0 0 595.3 841.9" enable-background="new 0 0 595.3 841.9" xml:space="preserve">
<g>
	<g>
		<path fill="#FFFFFF" stroke="#FFFFFF" stroke-miterlimit="10" d="M162.5,249.4v-60.2h20.1c5.3,0,9.3,1.5,12,4.5s4,7.3,4,13
			c0,2.3-0.2,4.3-0.6,6.1c-0.4,1.8-1,3.3-1.8,4.5s-1.7,2.3-2.7,3.1c-1,0.9-2.2,1.5-3.6,2c-1.4,0.5-2.7,0.8-4.2,1
			c-1.4,0.2-3,0.3-4.7,0.3h-5.2v25.6H162.5z M175.8,214.5h4.3c2.4,0,4-0.6,4.8-1.8c0.8-1.2,1.2-3.3,1.2-6.2c0-1,0-1.9-0.1-2.6
			c-0.1-0.7-0.2-1.4-0.4-2.1c-0.2-0.7-0.6-1.3-1-1.7s-1-0.8-1.8-1c-0.8-0.3-1.7-0.4-2.7-0.4h-4.2V214.5z"/>
		<path fill="#FFFFFF" stroke="#FFFFFF" stroke-miterlimit="10" d="M229.5,250.2c-2.7,0-5.1-0.3-7.2-0.9c-2-0.6-3.7-1.4-5.1-2.4
			c-1.3-1-2.4-2.4-3.3-4.1c-0.8-1.7-1.4-3.5-1.8-5.5s-0.5-4.3-0.5-7v-41.3h13.2v43.2c0,0.9,0,1.8,0.1,2.4c0,0.7,0.2,1.4,0.3,2.2
			s0.4,1.4,0.7,1.9c0.3,0.5,0.8,0.9,1.4,1.2s1.3,0.5,2.1,0.5s1.5-0.2,2.1-0.5c0.6-0.3,1-0.7,1.3-1.2c0.3-0.5,0.6-1.1,0.7-1.9
			s0.3-1.5,0.3-2.2c0-0.7,0.1-1.5,0.1-2.4v-43.2h13.2v41.3c0,3.3-0.3,6.2-0.9,8.5c-0.6,2.3-1.5,4.4-2.9,6.1c-1.3,1.7-3.2,3-5.5,3.9
			C235.8,249.8,233,250.2,229.5,250.2z"/>
		<path fill="#FFFFFF" stroke="#FFFFFF" stroke-miterlimit="10" d="M263.3,249.4v-60.2h9.4l12.4,28.9v-28.9h11v60.2h-9l-12.4-31.2
			v31.2H263.3z"/>
		<path fill="#FFFFFF" stroke="#FFFFFF" stroke-miterlimit="10" d="M317.9,249.4V199h-9.3v-9.8h31.8v9.8h-9.2v50.4H317.9z"/>
		<path fill="#FFFFFF" stroke="#FFFFFF" stroke-miterlimit="10" d="M349.7,249.4l11.4-60.2h15l11.3,60.2h-12.3l-2.1-12.8h-8.8
			l-2,12.8H349.7z M365.6,228.7h6.4l-3.2-23.3L365.6,228.7z"/>
		<path fill="#FFFFFF" stroke="#FFFFFF" stroke-miterlimit="10" d="M417,250.2c-5.7,0-10-1.5-12.8-4.6c-2.8-3-4.3-7.9-4.5-14.6
			l11.4-1.7c0,3.8,0.5,6.5,1.4,8.2c0.9,1.7,2.1,2.6,3.9,2.6c2.3,0,3.4-1.5,3.4-4.4c0-1.6-0.3-3.1-0.9-4.5c-0.6-1.4-1.3-2.5-2.1-3.5
			c-0.8-1-2-2.1-3.6-3.4l-5.3-4.6c-1.3-1.1-2.3-2.1-3.2-3.1c-0.8-0.9-1.7-2-2.5-3.3s-1.4-2.7-1.8-4.2s-0.6-3.3-0.6-5.1
			c0-5,1.5-8.9,4.5-11.6c3-2.7,7.1-4.1,12.4-4.1c1.8,0,3.4,0.2,4.9,0.6c1.5,0.4,2.7,0.9,3.7,1.5c1,0.6,1.9,1.4,2.7,2.4
			c0.8,1,1.4,1.9,1.8,2.9c0.4,1,0.8,2,1.1,3.2c0.3,1.2,0.5,2.3,0.6,3.3s0.2,2.1,0.2,3.2l-11.5,1.5c0-1-0.1-1.9-0.1-2.5
			c0-0.7-0.1-1.4-0.2-2.1c-0.1-0.8-0.2-1.4-0.4-1.8c-0.2-0.5-0.4-0.9-0.7-1.3s-0.6-0.7-1.1-0.9c-0.4-0.2-0.9-0.2-1.5-0.2
			c-1.2,0-2.1,0.5-2.7,1.5c-0.6,1-0.9,2-0.9,3.2c0,1.1,0.1,2.2,0.4,3.1s0.8,1.8,1.5,2.7c0.7,0.9,1.3,1.5,1.7,2
			c0.4,0.4,1.2,1.1,2.2,2l5.1,4.5c1.4,1.3,2.6,2.5,3.6,3.6c1,1.2,2,2.5,2.9,3.9c0.9,1.5,1.6,3.1,2.1,4.8c0.5,1.8,0.7,3.6,0.7,5.6
			c0,4.4-1.5,8-4.4,10.8S421.7,250.2,417,250.2z"/>
		<path fill="#FFFFFF" stroke="#FFFFFF" stroke-miterlimit="10" d="M40.7,338.7v-60.2h16.4c2.5,0,4.8,0.1,6.8,0.4
			c2,0.3,3.8,0.8,5.5,1.5c1.7,0.7,3.1,1.7,4.2,2.9c1.1,1.2,2,2.7,2.6,4.6s0.9,4,0.9,6.5c0,3.9-0.5,7.1-1.6,9.5
			c-1.1,2.4-3,4.3-5.8,5.6l8.3,29.2H64.4l-6.6-27H54v27H40.7z M54,304.1h3.4c2.7,0,4.6-0.7,5.7-2.1c1.1-1.4,1.7-3.5,1.7-6.4
			c0-2.8-0.5-4.9-1.5-6.2c-1-1.3-2.7-2-5.2-2H54V304.1z"/>
		<path fill="#FFFFFF" stroke="#FFFFFF" stroke-miterlimit="10" d="M92.7,338.7v-60.2h27.1v9.1H106v14.9h10.5v9.3H106v18h13.9v9
			H92.7z"/>
		<path fill="#FFFFFF" stroke="#FFFFFF" stroke-miterlimit="10" d="M133.3,338.7v-60.2h15.2c3.9,0,7.2,0.4,9.8,1.1
			c2.6,0.7,4.7,1.9,6.2,3.5c1.5,1.6,2.6,3.6,3.3,5.9c0.6,2.3,0.9,5.2,0.9,8.7v21.7c0,3.5-0.3,6.4-1,8.8s-1.7,4.4-3.3,6
			c-1.5,1.6-3.6,2.8-6.2,3.5c-2.6,0.7-5.8,1.1-9.7,1.1H133.3z M146.6,329.5h2c1,0,1.9-0.1,2.6-0.2c0.7-0.1,1.3-0.4,1.8-0.7
			c0.5-0.3,0.8-0.7,1.1-1.1c0.3-0.4,0.5-0.9,0.6-1.6c0.1-0.7,0.2-1.4,0.3-2s0.1-1.5,0.1-2.6v-25.9c0-1.5-0.1-2.7-0.2-3.5
			c-0.1-0.8-0.4-1.6-0.8-2.3s-1.1-1.1-1.9-1.4c-0.9-0.3-2-0.4-3.5-0.4h-2V329.5z"/>
		<path fill="#FFFFFF" stroke="#FFFFFF" stroke-miterlimit="10" d="M201.5,339.5c-3.3,0-6.2-0.4-8.6-1.3s-4.2-2.2-5.6-4
			s-2.4-3.8-3-6.2c-0.6-2.4-0.9-5.2-0.9-8.4v-22.2c0-3.2,0.3-6,0.9-8.4c0.6-2.4,1.6-4.4,3-6.2c1.4-1.7,3.3-3.1,5.6-3.9
			s5.2-1.3,8.6-1.3c6.5,0,11.2,1.7,14,5c2.8,3.3,4.2,8.3,4.2,14.8v22.2c0,6.5-1.4,11.5-4.2,14.8C212.7,337.9,208,339.5,201.5,339.5z
			 M199.5,329.7c0.6,0.3,1.3,0.4,2.1,0.4s1.5-0.1,2.1-0.4c0.6-0.3,1-0.6,1.3-1.1c0.3-0.4,0.6-1,0.7-1.7s0.3-1.3,0.3-1.9
			c0-0.6,0.1-1.3,0.1-2.1v-28.9c0-0.8,0-1.5-0.1-2.1c0-0.6-0.2-1.2-0.3-1.9c-0.2-0.7-0.4-1.2-0.7-1.6c-0.3-0.4-0.8-0.8-1.3-1
			c-0.6-0.3-1.3-0.4-2.1-0.4s-1.5,0.1-2.1,0.4c-0.6,0.3-1,0.6-1.3,1c-0.3,0.4-0.6,0.9-0.7,1.6c-0.2,0.7-0.3,1.3-0.3,1.9
			c0,0.6-0.1,1.3-0.1,2.1V323c0,0.8,0,1.6,0.1,2.1c0,0.6,0.1,1.2,0.3,1.9s0.4,1.2,0.7,1.7S198.9,329.4,199.5,329.7z"/>
		<path fill="#FFFFFF" stroke="#FFFFFF" stroke-miterlimit="10" d="M235.2,338.7v-60.2h9.4l12.4,28.9v-28.9h11v60.2h-9l-12.4-31.2
			v31.2H235.2z"/>
		<path fill="#FFFFFF" stroke="#FFFFFF" stroke-miterlimit="10" d="M284.3,338.7v-60.2h15.2c3.9,0,7.2,0.4,9.8,1.1
			c2.6,0.7,4.7,1.9,6.2,3.5c1.5,1.6,2.6,3.6,3.3,5.9c0.6,2.3,0.9,5.2,0.9,8.7v21.7c0,3.5-0.3,6.4-1,8.8c-0.6,2.4-1.7,4.4-3.3,6
			s-3.6,2.8-6.2,3.5c-2.6,0.7-5.8,1.1-9.7,1.1H284.3z M297.6,329.5h2c1,0,1.9-0.1,2.6-0.2c0.7-0.1,1.3-0.4,1.8-0.7
			c0.5-0.3,0.8-0.7,1.1-1.1c0.3-0.4,0.5-0.9,0.6-1.6c0.1-0.7,0.2-1.4,0.3-2c0-0.6,0.1-1.5,0.1-2.6v-25.9c0-1.5-0.1-2.7-0.2-3.5
			c-0.1-0.8-0.4-1.6-0.8-2.3c-0.4-0.7-1.1-1.1-1.9-1.4c-0.9-0.3-2-0.4-3.5-0.4h-2V329.5z"/>
		<path fill="#FFFFFF" stroke="#FFFFFF" stroke-miterlimit="10" d="M335.2,338.7v-60.2h27.1v9.1h-13.8v14.9H359v9.3h-10.5v18h13.9v9
			H335.2z"/>
		<path fill="#FFFFFF" stroke="#FFFFFF" stroke-miterlimit="10" d="M373,338.7l11.4-60.2h15l11.3,60.2h-12.3l-2.1-12.8h-8.8l-2,12.8
			H373z M388.8,318h6.4l-3.2-23.3L388.8,318z"/>
		<path fill="#FFFFFF" stroke="#FFFFFF" stroke-miterlimit="10" d="M424.2,338.7v-60.2h15.2c3.9,0,7.2,0.4,9.8,1.1
			c2.6,0.7,4.7,1.9,6.2,3.5c1.5,1.6,2.6,3.6,3.3,5.9c0.6,2.3,0.9,5.2,0.9,8.7v21.7c0,3.5-0.3,6.4-1,8.8s-1.7,4.4-3.3,6
			c-1.5,1.6-3.6,2.8-6.2,3.5c-2.6,0.7-5.8,1.1-9.7,1.1H424.2z M437.5,329.5h2c1,0,1.9-0.1,2.6-0.2c0.7-0.1,1.3-0.4,1.8-0.7
			c0.5-0.3,0.8-0.7,1.1-1.1c0.3-0.4,0.5-0.9,0.6-1.6c0.1-0.7,0.2-1.4,0.3-2s0.1-1.5,0.1-2.6v-25.9c0-1.5-0.1-2.7-0.2-3.5
			c-0.1-0.8-0.4-1.6-0.8-2.3s-1.1-1.1-1.9-1.4c-0.9-0.3-2-0.4-3.5-0.4h-2V329.5z"/>
		<path fill="#FFFFFF" stroke="#FFFFFF" stroke-miterlimit="10" d="M471.5,338.7l11.4-60.2h15l11.3,60.2H497l-2.1-12.8h-8.8l-2,12.8
			H471.5z M487.3,318h6.4l-3.2-23.3L487.3,318z"/>
		<path fill="#FFFFFF" stroke="#FFFFFF" stroke-miterlimit="10" d="M538.7,339.5c-5.7,0-10-1.5-12.8-4.6c-2.8-3-4.3-7.9-4.5-14.6
			l11.4-1.7c0,3.8,0.5,6.5,1.4,8.2c0.9,1.7,2.2,2.6,3.9,2.6c2.3,0,3.4-1.5,3.4-4.4c0-1.6-0.3-3.1-0.9-4.5c-0.6-1.4-1.3-2.5-2.1-3.5
			c-0.8-1-2-2.1-3.6-3.4l-5.3-4.6c-1.3-1.1-2.3-2.1-3.2-3.1c-0.8-0.9-1.7-2-2.5-3.3c-0.8-1.3-1.4-2.7-1.8-4.2
			c-0.4-1.5-0.6-3.3-0.6-5.1c0-5,1.5-8.9,4.5-11.6c3-2.7,7.1-4.1,12.4-4.1c1.8,0,3.4,0.2,4.9,0.6c1.5,0.4,2.7,0.9,3.7,1.5
			c1,0.6,1.9,1.4,2.7,2.4c0.8,1,1.4,1.9,1.8,2.9c0.4,1,0.8,2,1.1,3.2c0.3,1.2,0.5,2.3,0.6,3.3c0.1,1,0.2,2.1,0.2,3.2l-11.5,1.5
			c0-1-0.1-1.9-0.1-2.5c0-0.7-0.1-1.4-0.2-2.1c-0.1-0.8-0.2-1.4-0.4-1.8c-0.2-0.5-0.4-0.9-0.7-1.3c-0.3-0.4-0.6-0.7-1.1-0.9
			c-0.4-0.2-0.9-0.2-1.5-0.2c-1.2,0-2.1,0.5-2.7,1.5c-0.6,1-0.9,2-0.9,3.2c0,1.1,0.1,2.2,0.4,3.1c0.3,0.9,0.8,1.8,1.5,2.7
			s1.3,1.5,1.7,2c0.4,0.4,1.2,1.1,2.2,2l5.1,4.5c1.4,1.3,2.6,2.5,3.6,3.6c1,1.2,2,2.5,2.9,3.9c0.9,1.5,1.6,3.1,2.1,4.8
			c0.5,1.8,0.7,3.6,0.7,5.6c0,4.4-1.5,8-4.4,10.8C547.3,338.1,543.5,339.5,538.7,339.5z"/>
	</g>
	<g>
		<g>
			<g>
				<g>
					<path fill="#59704B" d="M390.5,468.1c1.5-8.8,1.9-18.3-3.1-25.3c-7.5-10.7-24.3-10.4-35.9-9.1c-26.4,7.4-52.1,16.9-75.7,30.3
						c-36,20.3-67.2,50.1-82.2,87.2c-8,19.9-11,27.1-14.1,48.1l-0.1,0c-5.4,9,0.1,21,9.2,26.7c1.4,0.9,2.8,1.6,4.3,2.3
						c19.1-2.9,37.8-8.3,55.7-16c22.4-9.6,43.3-22.4,62.5-37.2c18.6-14.3,35.3-29.7,48.4-49.2c10.6-15.7,19.3-33.1,28.6-50
						C389,473.3,389.7,470.7,390.5,468.1z"/>
				</g>
				<g>
					<g>
						<path fill="#59704B" d="M391.1,468.3c1.4-9,2.1-19.4-4-27c-5.2-6.3-13.6-8.3-21.4-8.8c-10.7-0.6-19.9,2.1-30,5.3
							c-11.6,3.7-23,7.9-34.2,12.8c-40.3,17.5-78.3,44.8-100.3,83.7c-5.7,10.1-9.9,20.9-13.9,31.7c-1.8,4.9-3.5,9.9-4.7,14.9
							c-0.4,1.6-3.7,17.8-3,17.8c-0.2,0-0.4,0.1-0.5,0.3c-3.3,6.1-2.6,13,1,18.9c1.6,2.7,3.7,5.1,6.2,7.1c3.9,3.1,6,4.2,10.7,3.4
							c21.7-3.7,42.8-10.7,62.6-20.3c19-9.2,36.8-20.6,53.5-33.5c15.8-12.3,30.7-25.9,42.7-42c7.4-10,13.7-20.8,19.7-31.6
							C381.1,490.3,387.8,479.9,391.1,468.3c0.2-0.8-1-1.1-1.2-0.3c-2.7,9.8-8.1,18.4-12.9,27.4c-4.7,8.7-9.6,17.3-14.9,25.7
							c-10.1,15.8-22.7,29.6-36.9,41.9c-29.5,25.5-64,46.5-101.4,57.8c-5.4,1.6-10.8,3-16.3,4.3c-4.8,1.1-11.7,3.6-16.4,1.7
							c-4.6-1.8-8.5-6.4-10.8-10.7c-1.3-2.5-2.2-5.2-2.3-8c0-0.7,0.4-8.2,1.6-8.1c0.2,0,0.6-0.2,0.6-0.5
							c5.7-38.3,23.1-74.5,51-101.6c31.4-30.6,72-49.1,113.5-61.5c9.9-3,21.2-4.1,31.3-0.8c14.6,4.8,16.1,19.1,14,32.4
							C389.7,468.7,390.9,469.1,391.1,468.3z"/>
					</g>
				</g>
			</g>
			<g>
				<g>
					<path fill="#59704B" d="M223.6,585.1c-25.8,7-49.3,22.4-66,43.2c-1.2,1.5-2.4,3-2.8,4.8c-1.7,6.5,6,11.5,7.7,18
						c3.8-12,7.8-24.3,15.3-34.5c5-6.8,11.3-12.4,17.9-17.6c8.4-6.5,17.2-12.4,26.5-17.5"/>
				</g>
				<g>
					<g>
						<path fill="#59704B" d="M222.9,582.7c-19,5.3-36.7,14.7-51.6,27.7c-3.6,3.2-7.1,6.5-10.3,10.1c-2.8,3.1-6.4,6.5-8.1,10.4
							c-3.5,8.3,4.8,13.8,7.1,21c0.8,2.4,4.1,2.4,4.8,0c4.7-14.6,9.7-29.1,20.6-40.4c10.8-11.2,24.4-20.1,37.9-27.7
							c2.8-1.6,0.3-5.9-2.5-4.3c-14.3,8-28.9,17.5-40.1,29.7c-10.8,11.7-16,26.5-20.7,41.4c1.6,0,3.2,0,4.8,0
							c-2.3-7-11.2-13-5.6-20.4c5.2-6.7,11.5-12.8,18-18.2c13.7-11.3,29.8-19.6,46.9-24.3C227.4,586.6,226.1,581.8,222.9,582.7
							L222.9,582.7z"/>
					</g>
				</g>
			</g>
			<g opacity="0.4">
				<g>
					<path fill="#8B9D80" d="M190,600.2c39.7-50.3,90.9-90.6,142.3-128.4c14.5-10.7,28.9-21.7,45.1-29.9c1.4-0.7,0.2-2.9-1.3-2.2
						c-14.2,7.2-27.1,16.6-39.9,26.1c-12.8,9.5-25.6,19-38.2,28.8c-25.8,20.1-51,41-74.2,64c-12.6,12.6-24.6,25.8-35.6,39.8
						C187.2,599.7,189,601.5,190,600.2L190,600.2z"/>
				</g>
			</g>
		</g>
		<g opacity="0.4">
			<g>
				<path fill="#506045" d="M384.4,440.5c-20.7,9.1-39.5,21.9-57.1,36c-17.1,13.8-33.2,28.8-50.2,42.7c-14.6,12-30,23-44.8,34.8
					c-14.2,11.4-28.1,23.6-39.1,38.2c-5.7,7.6-10.5,15.6-14.5,24.1c2,3.9,5.1,7.3,8.9,9.7c1.4,0.9,2.8,1.6,4.3,2.3
					c19.1-2.9,37.8-8.3,55.7-16c22.4-9.6,43.3-22.4,62.5-37.2c18.6-14.3,35.3-29.7,48.4-49.2c10.6-15.7,19.3-33.1,28.6-50
					c0.8-2.6,1.6-5.2,2.3-7.8c1.5-8.8,1.9-18.3-3.1-25.3C385.8,441.9,385.1,441.2,384.4,440.5z"/>
			</g>
			<g>
				<g>
					<path fill="#506045" d="M384.1,439.9c-37.8,16.8-67.6,45.1-98.8,71.6c-30.9,26.2-67.9,47.6-92.7,80.4
						c-2.8,3.8-5.5,7.7-7.9,11.7c-1.2,2-2.4,4-3.5,6.1c-0.8,1.5-3.3,4.8-3.2,6.4c0.3,4.6,9.3,11.9,13.4,12.7c2.8,0.5,6.9-1,9.7-1.5
						c5.5-1.1,11-2.4,16.4-3.9c9.7-2.7,19.2-6,28.5-9.9c35.2-14.8,69.1-37.6,95.3-65.5c15.2-16.2,26.3-35.2,36.9-54.6
						c5-9.2,10.9-18,12.2-28.6c1.1-8.8,0.6-18-5.7-24.8c-0.5-0.6-1.4,0.3-0.9,0.9c7,7.7,7,19.8,4.2,29.4
						c-2.7,9.4-8.5,18.1-13.2,26.6c-9,16.4-18.5,32.5-31,46.6c-23.8,26.7-54.9,48.4-87.1,63.9c-17.5,8.4-36,14.8-55.1,18.6
						c-4.9,1-9.4,2.5-13.9-0.4c-1.8-1.2-3.5-2.6-5-4.2c-2.6-2.9-3.5-4.2-2.2-7.8c3.2-8.6,9.9-17.2,15.6-24.3
						c23.7-29.4,56.9-49.2,85.5-73.1c32.8-27.3,63.4-57.4,102.9-75C385.5,440.7,384.8,439.6,384.1,439.9z"/>
				</g>
			</g>
		</g>
	</g>
</g>
</svg>
