<?xml version="1.0" encoding="utf-8"?>
<!-- Generator: Adobe Illustrator 18.0.0, SVG Export Plug-In . SVG Version: 6.00 Build 0)  -->
<!DOCTYPE svg PUBLIC "-//W3C//DTD SVG 1.1//EN" "http://www.w3.org/Graphics/SVG/1.1/DTD/svg11.dtd" [
	<!ENTITY ns_flows "http://ns.adobe.com/Flows/1.0/">
	<!ENTITY ns_extend "http://ns.adobe.com/Extensibility/1.0/">
	<!ENTITY ns_ai "http://ns.adobe.com/AdobeIllustrator/10.0/">
	<!ENTITY ns_graphs "http://ns.adobe.com/Graphs/1.0/">
]>
<svg version="1.1" id="Capa_1" xmlns:x="&ns_extend;" xmlns:i="&ns_ai;" xmlns:graph="&ns_graphs;"
	 xmlns="http://www.w3.org/2000/svg" xmlns:xlink="http://www.w3.org/1999/xlink" xmlns:a="http://ns.adobe.com/AdobeSVGViewerExtensions/3.0/"
	 x="0px" y="0px" viewBox="0 0 595.3 841.9" enable-background="new 0 0 595.3 841.9" xml:space="preserve">
<g>
	<g>
		<path fill="#FFFFFF" stroke="#FFFFFF" stroke-miterlimit="10" d="M286.3,238.1c-5.7,0-10-1.5-12.8-4.6c-2.8-3-4.3-7.9-4.5-14.6
			l11.4-1.7c0,3.8,0.5,6.5,1.4,8.2c0.9,1.7,2.2,2.6,3.9,2.6c2.3,0,3.4-1.5,3.4-4.4c0-1.6-0.3-3.1-0.9-4.5s-1.3-2.5-2.1-3.5
			c-0.9-1-2-2.1-3.6-3.4l-5.4-4.6c-1.3-1.1-2.4-2.1-3.2-3.1c-0.9-0.9-1.7-2-2.5-3.3c-0.8-1.3-1.4-2.7-1.8-4.2
			c-0.4-1.6-0.6-3.3-0.6-5.1c0-5,1.5-8.9,4.5-11.7c3-2.7,7.1-4.1,12.4-4.2c1.8,0,3.4,0.2,4.9,0.6c1.5,0.4,2.7,0.9,3.7,1.5
			c1,0.6,1.9,1.4,2.7,2.4s1.4,1.9,1.8,2.9c0.4,1,0.8,2,1.1,3.2s0.5,2.3,0.6,3.3c0.1,1,0.2,2.1,0.2,3.2l-11.5,1.5
			c0-1-0.1-1.9-0.1-2.5c0-0.7-0.1-1.4-0.2-2.1c-0.1-0.8-0.2-1.4-0.4-1.8s-0.4-0.9-0.7-1.3c-0.3-0.4-0.6-0.7-1.1-0.9
			s-0.9-0.2-1.5-0.2c-1.2,0-2.1,0.5-2.7,1.5s-0.9,2-0.9,3.2c0,1.1,0.1,2.2,0.4,3.1c0.3,0.9,0.8,1.8,1.5,2.7c0.7,0.9,1.3,1.5,1.7,2
			c0.4,0.4,1.2,1.1,2.2,2l5.1,4.5c1.4,1.3,2.6,2.5,3.6,3.6c1,1.2,2,2.5,2.9,3.9s1.6,3.1,2.1,4.8c0.5,1.8,0.7,3.6,0.7,5.7
			c0,4.4-1.5,8-4.4,10.9C294.8,236.6,291,238.1,286.3,238.1z"/>
		<path fill="#FFFFFF" stroke="#FFFFFF" stroke-miterlimit="10" d="M316.1,237.2v-60.4h13.3v60.4H316.1z"/>
		<path fill="#FFFFFF" stroke="#FFFFFF" stroke-miterlimit="10" d="M345.9,237.2v-60.4h9.4l12.4,29v-29h11.1v60.4h-9L357.3,206v31.3
			H345.9z"/>
		<path fill="#FFFFFF" stroke="#FFFFFF" stroke-miterlimit="10" d="M4.9,326.8l11.4-60.4h15.1l11.4,60.4H30.5l-2.1-12.8h-8.8
			l-2,12.8H4.9z M20.8,306h6.4L24,282.6L20.8,306z"/>
		<path fill="#FFFFFF" stroke="#FFFFFF" stroke-miterlimit="10" d="M56.3,326.8v-60.4H72c2.3,0,4.3,0.1,6,0.3s3.5,0.7,5.2,1.4
			c1.7,0.7,3.2,1.6,4.3,2.7c1.1,1.1,2,2.7,2.7,4.6c0.6,1.8,0.9,3.9,0.9,6.3c0,0.2,0,0.3,0,0.5c-0.1,7-3,11.1-8.9,12.1
			c3.5,0.5,6.1,1.9,7.9,4.4c1.8,2.5,2.8,5.8,2.8,10.2c0,0.1,0,0.3,0,0.4c0,5.9-1.6,10.3-4.6,13.1c-3.2,2.9-7.7,4.4-13.6,4.4H56.3z
			 M69.6,290.5h2.5c2.9,0,4.8-0.6,5.8-1.9c1-1.3,1.5-3.3,1.5-6.1c0-4.8-2.6-7.1-7.8-7.1h-2.1V290.5z M69.6,317.4h2.8
			c2.9,0,4.9-0.7,6.1-2.1c1.2-1.4,1.7-3.6,1.7-6.7c0-3.4-0.6-5.8-1.8-7.2s-3.3-2.1-6.2-2.1h-2.6V317.4z"/>
		<path fill="#FFFFFF" stroke="#FFFFFF" stroke-miterlimit="10" d="M125.1,327.6c-2.7,0-5.1-0.3-7.2-0.9c-2.1-0.6-3.8-1.4-5.1-2.4
			s-2.4-2.4-3.3-4.1c-0.8-1.7-1.4-3.5-1.8-5.5c-0.3-2-0.5-4.3-0.5-7v-41.4h13.2v43.3c0,0.9,0,1.8,0.1,2.4c0,0.7,0.2,1.4,0.3,2.2
			c0.2,0.8,0.4,1.4,0.7,1.9c0.3,0.5,0.8,0.9,1.4,1.2c0.6,0.3,1.3,0.5,2.1,0.5c0.8,0,1.5-0.2,2.1-0.5c0.6-0.3,1-0.7,1.3-1.2
			c0.3-0.5,0.6-1.1,0.7-1.9c0.2-0.8,0.3-1.5,0.3-2.2c0-0.7,0.1-1.5,0.1-2.4v-43.3h13.2v41.4c0,3.4-0.3,6.2-0.9,8.6
			c-0.6,2.4-1.5,4.4-2.9,6.2c-1.3,1.7-3.2,3-5.5,3.9S128.5,327.6,125.1,327.6z"/>
		<path fill="#FFFFFF" stroke="#FFFFFF" stroke-miterlimit="10" d="M158.9,326.8v-60.4h13.3v51.4H186v9H158.9z"/>
		<path fill="#FFFFFF" stroke="#FFFFFF" stroke-miterlimit="10" d="M203.5,326.8v-50.5h-9.3v-9.9h31.8v9.9h-9.2v50.5H203.5z"/>
		<path fill="#FFFFFF" stroke="#FFFFFF" stroke-miterlimit="10" d="M235.5,326.8l11.4-60.4H262l11.4,60.4H261l-2.1-12.8h-8.8
			l-2,12.8H235.5z M251.3,306h6.4l-3.2-23.4L251.3,306z"/>
		<path fill="#FFFFFF" stroke="#FFFFFF" stroke-miterlimit="10" d="M286.7,326.8l1-60.4h14.3l6.7,35.3l7.2-35.3h13.8l1,60.4h-9.5
			l-1-40.1l-7.1,40.1h-8.3l-7.4-40.4l-0.9,40.4H286.7z"/>
		<path fill="#FFFFFF" stroke="#FFFFFF" stroke-miterlimit="10" d="M346.9,326.8v-60.4h13.3v60.4H346.9z"/>
		<path fill="#FFFFFF" stroke="#FFFFFF" stroke-miterlimit="10" d="M376.7,326.8v-60.4h27.1v9.1H390v14.9h10.5v9.3H390v18h14v9
			H376.7z"/>
		<path fill="#FFFFFF" stroke="#FFFFFF" stroke-miterlimit="10" d="M417.4,326.8v-60.4h9.4l12.4,29v-29h11.1v60.4h-9l-12.5-31.3
			v31.3H417.4z"/>
		<path fill="#FFFFFF" stroke="#FFFFFF" stroke-miterlimit="10" d="M472.2,326.8v-50.5h-9.3v-9.9h31.8v9.9h-9.2v50.5H472.2z"/>
		<path fill="#FFFFFF" stroke="#FFFFFF" stroke-miterlimit="10" d="M524.7,327.6c-3.4,0-6.2-0.4-8.6-1.3c-2.4-0.9-4.2-2.2-5.6-4
			c-1.4-1.8-2.4-3.8-3-6.2c-0.6-2.4-0.9-5.2-0.9-8.4v-22.3c0-3.3,0.3-6.1,0.9-8.4c0.6-2.4,1.6-4.4,3-6.2c1.4-1.7,3.3-3.1,5.6-3.9
			s5.2-1.3,8.6-1.3c6.5,0,11.2,1.7,14,5c2.8,3.3,4.2,8.3,4.2,14.8v22.3c0,6.6-1.4,11.5-4.2,14.9
			C535.9,325.9,531.3,327.6,524.7,327.6z M522.7,317.7c0.6,0.3,1.3,0.4,2.1,0.4c0.8,0,1.5-0.1,2.1-0.4c0.6-0.3,1-0.6,1.3-1.1
			c0.3-0.4,0.6-1,0.7-1.7c0.2-0.7,0.3-1.3,0.3-1.9c0-0.6,0.1-1.3,0.1-2.1v-29c0-0.8,0-1.5-0.1-2.1s-0.2-1.2-0.3-1.9
			c-0.2-0.7-0.4-1.2-0.7-1.6c-0.3-0.4-0.8-0.8-1.3-1c-0.6-0.3-1.3-0.4-2.1-0.4c-0.8,0-1.5,0.1-2.1,0.4s-1,0.6-1.3,1
			s-0.6,0.9-0.7,1.6c-0.2,0.7-0.3,1.3-0.3,1.9s-0.1,1.3-0.1,2.1v29c0,0.9,0,1.6,0.1,2.1c0,0.6,0.1,1.2,0.3,1.9
			c0.2,0.7,0.4,1.2,0.7,1.7C521.7,317.1,522.1,317.4,522.7,317.7z"/>
		<path fill="#FFFFFF" stroke="#FFFFFF" stroke-miterlimit="10" d="M574.5,327.6c-5.7,0-10-1.5-12.8-4.6c-2.8-3-4.3-7.9-4.5-14.6
			l11.4-1.7c0,3.8,0.5,6.5,1.4,8.2c0.9,1.7,2.2,2.6,3.9,2.6c2.3,0,3.4-1.5,3.4-4.4c0-1.6-0.3-3.1-0.9-4.5s-1.3-2.5-2.1-3.5
			c-0.9-1-2-2.1-3.6-3.4l-5.4-4.6c-1.3-1.1-2.4-2.1-3.2-3.1c-0.9-0.9-1.7-2-2.5-3.3c-0.8-1.3-1.4-2.7-1.8-4.2
			c-0.4-1.6-0.6-3.3-0.6-5.1c0-5,1.5-8.9,4.5-11.7c3-2.7,7.1-4.1,12.4-4.2c1.8,0,3.4,0.2,4.9,0.6c1.5,0.4,2.7,0.9,3.7,1.5
			c1,0.6,1.9,1.4,2.7,2.4s1.4,1.9,1.8,2.9c0.4,1,0.8,2,1.1,3.2s0.5,2.3,0.6,3.3c0.1,1,0.2,2.1,0.2,3.2l-11.5,1.5
			c0-1-0.1-1.9-0.1-2.5c0-0.7-0.1-1.4-0.2-2.1c-0.1-0.8-0.2-1.4-0.4-1.8s-0.4-0.9-0.7-1.3c-0.3-0.4-0.6-0.7-1.1-0.9
			s-0.9-0.2-1.5-0.2c-1.2,0-2.1,0.5-2.7,1.5s-0.9,2-0.9,3.2c0,1.1,0.1,2.2,0.4,3.1c0.3,0.9,0.8,1.8,1.5,2.7c0.7,0.9,1.3,1.5,1.7,2
			c0.4,0.4,1.2,1.1,2.2,2l5.1,4.5c1.4,1.3,2.6,2.5,3.6,3.6c1,1.2,2,2.5,2.9,3.9s1.6,3.1,2.1,4.8c0.5,1.8,0.7,3.6,0.7,5.7
			c0,4.4-1.5,8-4.4,10.9C583.1,326.2,579.3,327.6,574.5,327.6z"/>
	</g>
	<g>
		<g>
			<g>
				<g>
					<path fill="#59704B" d="M200,605.8c14.1,8.8,14.1,5.8,24.6,11c10.6,5.3,22.7,6.4,34.5,7.3c28.1,2.3,57.5,4.1,83.6-6.6
						c37.1-15.1,60.3-52,77.1-88.4c16.9-36.3,30.7-75.4,58.8-104c-26.6-11.8-57.3-12.3-85.7-6.2s-55.2,18.6-81,32
						c-41,21.3-81.5,46.5-108.9,83.7c-7.9,10.7-14.8,23-15.3,36.3C187.1,584.4,179.5,587.9,200,605.8"/>
				</g>
			</g>
			<g>
				<g>
					<path fill="#59704B" d="M172.2,634.2c5.9-9.3,11.8-18.7,17.8-28c4.8-7.4,11.8-17.4,22-14.9c0-3.2,0-6.4,0-9.6
						c-32.5,10.9-55,45.1-51,79.4c0.7,6.3,10.7,6.4,10,0c-3.4-29.8,15-60.1,43.7-69.8c4.5-1.5,5-8.4,0-9.6
						c-11.6-2.8-21.7,3.7-28.5,12.6c-8.4,10.9-15.2,23.3-22.5,34.8C160.1,634.6,168.8,639.6,172.2,634.2L172.2,634.2z"/>
				</g>
			</g>
		</g>
		<g opacity="0.4">
			<g>
				<path fill="#8B9D80" d="M201,592.7c15-44.8,69.7-50.7,107.1-66.5c36.8-15.6,67.3-42.1,100.1-64.2c18.8-12.6,38.6-23.9,60.3-30.6
					c1.5-0.5,0.9-2.9-0.7-2.4c-39.8,12.4-72.2,39.2-105.7,62.8c-16.6,11.7-33.7,22.8-52.3,31.1c-21.8,9.7-45.5,14.4-67,24.6
					c-19.4,9.2-37.2,23.8-44.2,44.7C198.1,593.5,200.5,594.2,201,592.7L201,592.7z"/>
			</g>
		</g>
	</g>
</g>
</svg>
