<?xml version="1.0" encoding="utf-8"?>
<!-- Generator: Adobe Illustrator 18.0.0, SVG Export Plug-In . SVG Version: 6.00 Build 0)  -->
<!DOCTYPE svg PUBLIC "-//W3C//DTD SVG 1.1//EN" "http://www.w3.org/Graphics/SVG/1.1/DTD/svg11.dtd" [
	<!ENTITY ns_flows "http://ns.adobe.com/Flows/1.0/">
	<!ENTITY ns_extend "http://ns.adobe.com/Extensibility/1.0/">
	<!ENTITY ns_ai "http://ns.adobe.com/AdobeIllustrator/10.0/">
	<!ENTITY ns_graphs "http://ns.adobe.com/Graphs/1.0/">
]>
<svg version="1.1" id="Capa_1" xmlns:x="&ns_extend;" xmlns:i="&ns_ai;" xmlns:graph="&ns_graphs;"
	 xmlns="http://www.w3.org/2000/svg" xmlns:xlink="http://www.w3.org/1999/xlink" xmlns:a="http://ns.adobe.com/AdobeSVGViewerExtensions/3.0/"
	 x="0px" y="0px" viewBox="0 0 749 1334" enable-background="new 0 0 749 1334" xml:space="preserve">
<g>
	<path fill="#FFFFFF" d="M353.2,1171.7l5.6,42.4h-17.4l-3.3-25.3h-17.6L317,1214h-17.3l5.6-42.2l12.2-77.2h23.6L353.2,1171.7z
		 M335.8,1171.7l-6.6-49.7l-6.6,49.7H335.8z"/>
	<path fill="#FFFFFF" d="M417.4,1190.9c0,16.7-8.3,25.1-24.8,25.1c-16.5,0-24.7-8.4-24.7-25.1v-73c0-16.7,8.2-25.1,24.7-25.1
		c16.5,0,24.8,8.4,24.8,25.1v16.1h-17.2v-16.1c0-5.4-2.5-8.1-7.5-8.1h-0.1c-5,0-7.4,2.7-7.4,8.1v73c0,5.4,2.5,8.1,7.5,8.1
		c5,0,7.5-2.7,7.5-8.1v-16.1h17.2V1190.9z"/>
	<path fill="#FFFFFF" d="M431.4,1094.6h44.7v17h-27.5v34.2h23.6v17h-23.6v34.2h27.5v17h-44.7V1094.6z"/>
	<path fill="#FFFFFF" d="M488.9,1094.6h26.5c15.3,0,22.9,8.4,22.9,25.1v18c0,7.8-3.1,13.4-9.4,16.6c6.3,3.2,9.4,8.8,9.4,16.6v18
		c0,16.7-8,25-24,25.1h-25.4V1094.6z M506.1,1111.6v34.2h5.4c2.4,0,4-0.2,4.9-0.5c3.1-1.3,4.7-3.8,4.7-7.6v-18
		c0-5.4-2.5-8.2-7.5-8.2H506.1z M506.1,1162.9v34.2h7.5c5,0,7.5-2.7,7.5-8.1v-18c0-3.8-1.6-6.3-4.7-7.5c-0.9-0.4-2.5-0.5-4.9-0.5
		H506.1z"/>
	<path fill="#FFFFFF" d="M552.7,1094.6h17.2V1214h-17.2V1094.6z"/>
	<path fill="#FFFFFF" d="M586,1094.6h17.2l16.3,69.3v-69.3h15.9V1214h-17.2l-15.7-67.1v67.1H586V1094.6z M598.2,1091.9l-8.3-4.4
		l2.1-4.3c2.7-5.5,6.2-8.3,10.6-8.6h0.4c2.7,0,6.2,1.3,10.5,4c2.1,1.3,3.8,1.9,5.1,1.9c1.1,0,2-0.5,2.6-1.4l2.5-4.1l7.9,5.2
		l-2.5,4.1c-2.6,4.1-5.8,6.3-9.6,6.5h-0.4c-2.7,0-6.2-1.3-10.4-4c-2.7-1.7-4.3-2.5-4.8-2.6h-0.2c-1.1,0-2.3,1.1-3.3,3.3
		L598.2,1091.9z"/>
	<path fill="#FFFFFF" d="M699.6,1190.9c0,16.7-8.3,25.1-24.8,25.1c-16.5,0-24.7-8.4-24.7-25.1v-73c0-16.7,8.2-25.1,24.7-25.1
		c16.5,0,24.8,8.4,24.8,25.1V1190.9z M682.4,1117.8c0-5.4-2.5-8.1-7.5-8.1h-0.1c-5,0-7.4,2.7-7.4,8.1v73c0,5.4,2.5,8.1,7.5,8.1
		c5,0,7.5-2.7,7.5-8.1V1117.8z"/>
</g>
<g>
	<path fill="#FFFFFF" d="M319,1273.6c0,0.1-0.1,0.2-0.2,0.3s-0.2,0.2-0.4,0.2s-0.4,0.1-0.7,0.1s-0.6,0.1-1,0.1c-0.4,0-0.7,0-1-0.1
		s-0.4-0.1-0.6-0.1s-0.2-0.1-0.3-0.2s-0.1-0.2,0-0.3l5.8-29.2c0-0.1,0.1-0.2,0.2-0.3s0.2-0.2,0.4-0.2s0.4-0.1,0.6-0.1
		s0.6-0.1,0.9-0.1s0.7,0,0.9,0.1s0.4,0.1,0.6,0.1s0.2,0.1,0.3,0.2s0.1,0.2,0,0.3L319,1273.6z"/>
	<path fill="#FFFFFF" d="M345.5,1271.5c0,0.1,0,0.2,0,0.4s-0.1,0.4-0.1,0.6s-0.1,0.4-0.1,0.6s-0.1,0.4-0.2,0.6s-0.2,0.3-0.3,0.4
		s-0.3,0.2-0.4,0.2h-13.4c-0.2,0-0.4,0-0.5-0.1s-0.3-0.1-0.4-0.3s-0.2-0.3-0.3-0.5s0-0.5,0-0.8l5.6-28.1c0-0.1,0.1-0.2,0.2-0.3
		s0.2-0.2,0.4-0.2s0.4-0.1,0.7-0.1s0.6-0.1,1-0.1s0.7,0,0.9,0.1s0.5,0.1,0.6,0.1s0.2,0.1,0.3,0.2s0.1,0.2,0,0.3l-5.2,26.2H345
		c0.2,0,0.3,0.1,0.4,0.2S345.5,1271.2,345.5,1271.5z"/>
	<path fill="#FFFFFF" d="M374.4,1244.6c0,0.1,0,0.2,0,0.4s0,0.3-0.1,0.5s-0.1,0.4-0.1,0.6s-0.1,0.4-0.2,0.6s-0.2,0.3-0.3,0.4
		s-0.3,0.2-0.4,0.2h-11.8l-1.9,9.5h10.2c0.2,0,0.3,0.1,0.4,0.2s0.1,0.3,0.1,0.6c0,0.1,0,0.2,0,0.4s-0.1,0.3-0.1,0.5
		s-0.1,0.4-0.1,0.6s-0.1,0.4-0.2,0.5s-0.2,0.3-0.3,0.4s-0.3,0.2-0.4,0.2h-10.2l-2.2,10.9h12.1c0.2,0,0.3,0.1,0.4,0.2
		s0.2,0.3,0.2,0.6c0,0.1,0,0.2,0,0.4s0,0.4-0.1,0.5s-0.1,0.4-0.1,0.6s-0.1,0.4-0.2,0.5s-0.2,0.3-0.3,0.4s-0.3,0.1-0.4,0.1h-14.6
		c-0.2,0-0.3,0-0.5-0.1s-0.3-0.1-0.4-0.3s-0.2-0.3-0.2-0.5s0-0.5,0-0.8l5.4-27c0.1-0.6,0.4-1,0.7-1.3s0.7-0.4,1.1-0.4h14.4
		C374.2,1243.8,374.4,1244.1,374.4,1244.6z"/>
	<path fill="#FFFFFF" d="M391.9,1258.7l5.7,14c0.1,0.3,0.2,0.6,0.2,0.8s-0.1,0.4-0.2,0.5s-0.4,0.2-0.7,0.2s-0.8,0.1-1.3,0.1
		c-0.5,0-0.8,0-1.1,0s-0.5-0.1-0.6-0.1s-0.3-0.1-0.3-0.2s-0.1-0.2-0.2-0.3l-4.6-12.2l-9.2,12.2c-0.1,0.1-0.2,0.3-0.3,0.4
		s-0.3,0.2-0.5,0.2s-0.4,0.1-0.7,0.1s-0.7,0-1.1,0c-0.5,0-0.9,0-1.3-0.1s-0.5-0.1-0.7-0.2s-0.1-0.3-0.1-0.5s0.2-0.5,0.5-0.8
		l11.2-14.2l-5.2-13.3c-0.1-0.3-0.2-0.6-0.2-0.8s0.1-0.4,0.2-0.5s0.4-0.2,0.7-0.2s0.8-0.1,1.3-0.1c0.4,0,0.8,0,1,0s0.5,0.1,0.6,0.2
		s0.3,0.2,0.3,0.3s0.1,0.3,0.2,0.5l4.1,11.1l8.6-11.3c0.1-0.1,0.2-0.2,0.3-0.3s0.3-0.2,0.4-0.2s0.4-0.1,0.7-0.1s0.6,0,1.1,0
		c0.5,0,0.9,0,1.3,0.1s0.5,0.1,0.7,0.2s0.1,0.3,0.1,0.5s-0.2,0.5-0.5,0.8L391.9,1258.7z"/>
	<path fill="#FFFFFF" d="M443.3,1246.9c0,0.3-0.1,0.7-0.2,1.2s-0.3,0.9-0.4,1.1s-0.4,0.4-0.6,0.4c-0.2,0-0.5-0.1-0.8-0.4
		s-0.7-0.6-1.2-0.9s-1.1-0.6-1.9-0.9s-1.8-0.4-3-0.4c-1.3,0-2.5,0.2-3.6,0.7s-2.1,1.2-2.9,2s-1.6,1.8-2.3,2.9s-1.2,2.2-1.6,3.4
		s-0.8,2.4-1,3.6s-0.3,2.4-0.3,3.5c0,1.2,0.2,2.4,0.5,3.3s0.8,1.8,1.4,2.5s1.3,1.2,2.2,1.5s1.8,0.5,2.9,0.5c1.2,0,2.3-0.1,3.2-0.4
		s1.6-0.6,2.3-0.9s1.2-0.6,1.6-0.9s0.8-0.4,1-0.4c0.2,0,0.3,0.1,0.4,0.2s0.1,0.3,0.1,0.6c0,0.1,0,0.2,0,0.3s-0.1,0.3-0.1,0.5
		s-0.1,0.4-0.1,0.6s-0.1,0.4-0.2,0.6s-0.1,0.3-0.2,0.5s-0.2,0.3-0.4,0.5s-0.5,0.4-1,0.7s-1.2,0.6-1.9,0.9s-1.6,0.5-2.6,0.7
		s-1.9,0.3-3,0.3c-1.6,0-3-0.2-4.3-0.7s-2.4-1.2-3.3-2.1s-1.6-2.1-2.1-3.5s-0.7-3-0.7-4.8c0-1.5,0.2-3,0.5-4.6s0.8-3.1,1.4-4.6
		s1.4-2.9,2.3-4.2s2-2.5,3.2-3.5s2.6-1.8,4.1-2.3s3.2-0.9,5-0.9c1.1,0,2.2,0.1,3.2,0.4s1.8,0.6,2.5,1s1.2,0.7,1.5,1
		S443.3,1246.5,443.3,1246.9z"/>
	<path fill="#FFFFFF" d="M468.8,1272.7c0,0.3,0.1,0.6,0,0.8s-0.1,0.4-0.3,0.5s-0.4,0.2-0.7,0.2s-0.7,0-1.3,0c-0.3,0-0.6,0-0.9,0
		s-0.4-0.1-0.6-0.1s-0.2-0.1-0.3-0.2s-0.1-0.2-0.1-0.4l-1.1-7.4H451l-4,7.3c-0.1,0.2-0.2,0.3-0.3,0.4s-0.2,0.2-0.4,0.2
		s-0.4,0.1-0.7,0.1s-0.6,0-1.1,0c-0.5,0-0.8,0-1.1-0.1s-0.5-0.1-0.6-0.2s-0.1-0.3-0.1-0.5s0.2-0.5,0.3-0.8l15.8-28.2
		c0.1-0.2,0.2-0.3,0.4-0.4s0.3-0.2,0.5-0.3s0.5-0.1,0.8-0.1s0.7,0,1.1,0c0.5,0,0.9,0,1.3,0s0.6,0.1,0.8,0.1s0.3,0.2,0.4,0.3
		s0.1,0.3,0.2,0.4L468.8,1272.7z M460.9,1247.9L460.9,1247.9l-8.2,15.1h10.5L460.9,1247.9z"/>
	<path fill="#FFFFFF" d="M499.2,1272.5c0,0.3-0.1,0.6-0.3,0.8s-0.3,0.4-0.5,0.5s-0.4,0.2-0.6,0.3s-0.4,0.1-0.6,0.1h-1.5
		c-0.4,0-0.8,0-1-0.1s-0.5-0.3-0.7-0.5s-0.4-0.5-0.6-0.9s-0.3-0.8-0.5-1.4l-5.7-16.2c-0.4-1.2-0.8-2.3-1.2-3.5s-0.8-2.3-1.1-3.5h0
		c-0.2,1.3-0.4,2.6-0.7,3.8s-0.5,2.5-0.7,3.8l-3.5,17.7c0,0.1-0.1,0.2-0.2,0.3s-0.2,0.2-0.4,0.2s-0.4,0.1-0.6,0.1s-0.6,0.1-0.9,0.1
		s-0.7,0-0.9-0.1s-0.4-0.1-0.6-0.1s-0.2-0.1-0.2-0.2s0-0.2,0-0.3l5.6-28c0.1-0.6,0.4-1.1,0.8-1.3s0.8-0.4,1.2-0.4h1.9
		c0.4,0,0.7,0,1,0.1s0.5,0.2,0.7,0.4s0.4,0.5,0.5,0.8s0.3,0.7,0.5,1.2l5.7,16.4c0.4,1,0.7,2,1.1,3s0.7,2,1,3.1h0
		c0.2-1.3,0.5-2.6,0.7-4s0.5-2.7,0.8-4l3.3-16.4c0-0.1,0.1-0.2,0.2-0.3s0.2-0.2,0.4-0.2s0.4-0.1,0.6-0.1s0.6,0,0.9,0
		c0.4,0,0.7,0,0.9,0s0.4,0.1,0.6,0.1s0.2,0.1,0.3,0.2s0.1,0.2,0,0.3L499.2,1272.5z"/>
	<path fill="#FFFFFF" d="M532.3,1272.7c0,0.3,0.1,0.6,0,0.8s-0.1,0.4-0.3,0.5s-0.4,0.2-0.7,0.2s-0.7,0-1.3,0c-0.3,0-0.6,0-0.9,0
		s-0.4-0.1-0.6-0.1s-0.2-0.1-0.3-0.2s-0.1-0.2-0.1-0.4l-1.1-7.4h-12.6l-4,7.3c-0.1,0.2-0.2,0.3-0.3,0.4s-0.2,0.2-0.4,0.2
		s-0.4,0.1-0.7,0.1s-0.6,0-1.1,0c-0.5,0-0.8,0-1.1-0.1s-0.5-0.1-0.6-0.2s-0.1-0.3-0.1-0.5s0.2-0.5,0.3-0.8l15.8-28.2
		c0.1-0.2,0.2-0.3,0.4-0.4s0.3-0.2,0.5-0.3s0.5-0.1,0.8-0.1s0.7,0,1.1,0c0.5,0,0.9,0,1.3,0s0.6,0.1,0.8,0.1s0.3,0.2,0.4,0.3
		s0.1,0.3,0.2,0.4L532.3,1272.7z M524.4,1247.9L524.4,1247.9l-8.2,15.1h10.5L524.4,1247.9z"/>
	<path fill="#FFFFFF" d="M562.5,1250.2c0,1.1-0.2,2.1-0.5,3.1s-0.8,1.9-1.4,2.7s-1.4,1.5-2.3,2.2s-2,1.1-3.2,1.5
		c0.8,0.3,1.5,0.9,2,1.9s0.9,2.2,1.2,3.8l1.2,6.7c0,0.3,0.1,0.6,0.1,0.8s0.1,0.5,0.1,0.7c0,0.1,0,0.3-0.1,0.4s-0.2,0.2-0.4,0.2
		s-0.4,0.1-0.7,0.1s-0.7,0-1.1,0c-0.4,0-0.7,0-1,0s-0.4-0.1-0.6-0.2s-0.2-0.2-0.3-0.3s-0.1-0.3-0.1-0.5l-1.2-7.1
		c-0.1-0.8-0.3-1.6-0.5-2.2s-0.5-1.3-0.9-1.7s-0.9-0.9-1.6-1.1s-1.4-0.4-2.3-0.4h-2.7l-2.6,12.9c0,0.1-0.1,0.2-0.2,0.3
		s-0.2,0.2-0.4,0.2s-0.4,0.1-0.7,0.1s-0.6,0.1-1,0.1c-0.4,0-0.7,0-0.9,0s-0.5-0.1-0.6-0.1s-0.2-0.1-0.3-0.2s-0.1-0.2,0-0.3l5.6-28.1
		c0.1-0.6,0.4-1,0.8-1.3s0.8-0.4,1.2-0.4h6.6c1.4,0,2.7,0.1,3.8,0.4s2,0.7,2.7,1.2s1.3,1.2,1.7,2S562.5,1249.2,562.5,1250.2z
		 M558.2,1250.8c0-0.5-0.1-1-0.3-1.5s-0.5-0.8-0.9-1.2s-0.9-0.6-1.6-0.8s-1.4-0.3-2.3-0.3h-4.2l-2.1,10.2h3.6c1.4,0,2.6-0.2,3.6-0.6
		s1.8-0.9,2.4-1.5s1.1-1.3,1.4-2.1S558.2,1251.6,558.2,1250.8z"/>
	<path fill="#FFFFFF" d="M572.1,1273.6c0,0.1-0.1,0.2-0.2,0.3s-0.2,0.2-0.4,0.2s-0.4,0.1-0.7,0.1s-0.6,0.1-1,0.1c-0.4,0-0.7,0-1-0.1
		s-0.4-0.1-0.6-0.1s-0.2-0.1-0.3-0.2s-0.1-0.2,0-0.3l5.8-29.2c0-0.1,0.1-0.2,0.2-0.3s0.2-0.2,0.4-0.2s0.4-0.1,0.6-0.1
		s0.6-0.1,0.9-0.1s0.7,0,0.9,0.1s0.4,0.1,0.6,0.1s0.2,0.1,0.3,0.2s0.1,0.2,0,0.3L572.1,1273.6z"/>
	<path fill="#FFFFFF" d="M604.9,1244.6c0,0.1,0,0.2,0,0.4s0,0.3-0.1,0.5s-0.1,0.4-0.1,0.6s-0.1,0.4-0.2,0.6s-0.2,0.3-0.3,0.4
		s-0.3,0.2-0.4,0.2h-11.8l-1.9,9.5h10.2c0.2,0,0.3,0.1,0.4,0.2s0.1,0.3,0.1,0.6c0,0.1,0,0.2,0,0.4s-0.1,0.3-0.1,0.5
		s-0.1,0.4-0.1,0.6s-0.1,0.4-0.2,0.5s-0.2,0.3-0.3,0.4s-0.3,0.2-0.4,0.2h-10.2l-2.2,10.9h12.1c0.2,0,0.3,0.1,0.4,0.2
		s0.2,0.3,0.2,0.6c0,0.1,0,0.2,0,0.4s0,0.4-0.1,0.5s-0.1,0.4-0.1,0.6s-0.1,0.4-0.2,0.5s-0.2,0.3-0.3,0.4s-0.3,0.1-0.4,0.1h-14.6
		c-0.2,0-0.3,0-0.5-0.1s-0.3-0.1-0.4-0.3s-0.2-0.3-0.2-0.5s0-0.5,0-0.8l5.4-27c0.1-0.6,0.4-1,0.7-1.3s0.7-0.4,1.1-0.4h14.4
		C604.8,1243.8,604.9,1244.1,604.9,1244.6z"/>
	<path fill="#FFFFFF" d="M631.5,1272.5c0,0.3-0.1,0.6-0.3,0.8s-0.3,0.4-0.5,0.5s-0.4,0.2-0.6,0.3s-0.4,0.1-0.6,0.1H628
		c-0.4,0-0.8,0-1-0.1s-0.5-0.3-0.7-0.5s-0.4-0.5-0.6-0.9s-0.3-0.8-0.5-1.4l-5.7-16.2c-0.4-1.2-0.8-2.3-1.2-3.5s-0.8-2.3-1.1-3.5h0
		c-0.2,1.3-0.4,2.6-0.7,3.8s-0.5,2.5-0.7,3.8l-3.5,17.7c0,0.1-0.1,0.2-0.2,0.3s-0.2,0.2-0.4,0.2s-0.4,0.1-0.6,0.1s-0.6,0.1-0.9,0.1
		s-0.7,0-0.9-0.1s-0.4-0.1-0.6-0.1s-0.2-0.1-0.2-0.2s0-0.2,0-0.3l5.6-28c0.1-0.6,0.4-1.1,0.8-1.3s0.8-0.4,1.2-0.4h1.9
		c0.4,0,0.7,0,1,0.1s0.5,0.2,0.7,0.4s0.4,0.5,0.5,0.8s0.3,0.7,0.5,1.2l5.7,16.4c0.4,1,0.7,2,1.1,3s0.7,2,1,3.1h0
		c0.2-1.3,0.5-2.6,0.7-4s0.5-2.7,0.8-4l3.3-16.4c0-0.1,0.1-0.2,0.2-0.3s0.2-0.2,0.4-0.2s0.4-0.1,0.6-0.1s0.6,0,0.9,0
		c0.4,0,0.7,0,0.9,0s0.4,0.1,0.6,0.1s0.2,0.1,0.3,0.2s0.1,0.2,0,0.3L631.5,1272.5z"/>
	<path fill="#FFFFFF" d="M661.4,1246.1c0,0.1,0,0.3,0,0.4s0,0.3-0.1,0.5s-0.1,0.4-0.1,0.6s-0.1,0.4-0.2,0.5s-0.2,0.3-0.3,0.4
		s-0.2,0.1-0.3,0.1c-0.2,0-0.4-0.1-0.7-0.3s-0.7-0.4-1.2-0.6s-1-0.4-1.7-0.6s-1.4-0.3-2.3-0.3c-1,0-1.8,0.1-2.5,0.4
		s-1.3,0.7-1.8,1.2s-0.8,1.1-1.1,1.7s-0.4,1.3-0.4,1.9c0,0.7,0.2,1.3,0.5,1.8s0.7,1,1.2,1.4s1.1,0.8,1.7,1.2s1.3,0.8,1.9,1.1
		s1.3,0.8,1.9,1.3s1.2,1,1.7,1.5s0.9,1.3,1.2,2s0.5,1.6,0.5,2.6c0,1.3-0.3,2.6-0.8,3.7s-1.3,2.2-2.3,3s-2.2,1.6-3.6,2.1
		s-3,0.8-4.8,0.8c-1,0-1.8-0.1-2.7-0.2s-1.6-0.4-2.2-0.6s-1.2-0.5-1.7-0.8s-0.8-0.5-1-0.7s-0.3-0.5-0.3-0.9c0-0.1,0-0.2,0-0.4
		s0.1-0.4,0.1-0.6s0.1-0.4,0.2-0.6s0.1-0.4,0.2-0.5s0.2-0.3,0.3-0.4s0.2-0.2,0.4-0.2c0.2,0,0.6,0.1,0.9,0.4s0.8,0.5,1.4,0.8
		s1.2,0.6,2,0.8s1.7,0.4,2.7,0.4c1.1,0,2.1-0.2,2.9-0.5s1.6-0.7,2.2-1.2s1-1.1,1.3-1.8s0.5-1.5,0.5-2.2c0-0.7-0.1-1.3-0.4-1.8
		s-0.7-1-1.2-1.4s-1-0.8-1.7-1.2s-1.3-0.7-1.9-1.1s-1.3-0.8-1.9-1.3s-1.2-1-1.7-1.5s-0.9-1.3-1.2-2s-0.5-1.6-0.5-2.7
		c0-1.2,0.2-2.4,0.7-3.5s1.2-2,2.1-2.8s2-1.5,3.2-1.9s2.7-0.7,4.2-0.7c0.8,0,1.5,0.1,2.1,0.2s1.3,0.3,1.8,0.5s1,0.4,1.4,0.6
		s0.7,0.4,0.8,0.5s0.2,0.3,0.3,0.4S661.4,1245.9,661.4,1246.1z"/>
	<path fill="#FFFFFF" d="M669.9,1273.6c0,0.1-0.1,0.2-0.2,0.3s-0.2,0.2-0.4,0.2s-0.4,0.1-0.7,0.1s-0.6,0.1-1,0.1c-0.4,0-0.7,0-1-0.1
		s-0.4-0.1-0.6-0.1s-0.2-0.1-0.3-0.2s-0.1-0.2,0-0.3l5.8-29.2c0-0.1,0.1-0.2,0.2-0.3s0.2-0.2,0.4-0.2s0.4-0.1,0.6-0.1
		s0.6-0.1,0.9-0.1s0.7,0,0.9,0.1s0.4,0.1,0.6,0.1s0.2,0.1,0.3,0.2s0.1,0.2,0,0.3L669.9,1273.6z"/>
	<path fill="#FFFFFF" d="M700,1246.1c0,0.1,0,0.3,0,0.4s0,0.3-0.1,0.5s-0.1,0.4-0.1,0.6s-0.1,0.4-0.2,0.5s-0.2,0.3-0.3,0.4
		s-0.2,0.1-0.3,0.1c-0.2,0-0.4-0.1-0.7-0.3s-0.7-0.4-1.2-0.6s-1-0.4-1.7-0.6s-1.4-0.3-2.3-0.3c-1,0-1.8,0.1-2.5,0.4
		s-1.3,0.7-1.8,1.2s-0.8,1.1-1.1,1.7s-0.4,1.3-0.4,1.9c0,0.7,0.2,1.3,0.5,1.8s0.7,1,1.2,1.4s1.1,0.8,1.7,1.2s1.3,0.8,1.9,1.1
		s1.3,0.8,1.9,1.3s1.2,1,1.7,1.5s0.9,1.3,1.2,2s0.5,1.6,0.5,2.6c0,1.3-0.3,2.6-0.8,3.7s-1.3,2.2-2.3,3s-2.2,1.6-3.6,2.1
		s-3,0.8-4.8,0.8c-1,0-1.8-0.1-2.7-0.2s-1.6-0.4-2.2-0.6s-1.2-0.5-1.7-0.8s-0.8-0.5-1-0.7s-0.3-0.5-0.3-0.9c0-0.1,0-0.2,0-0.4
		s0.1-0.4,0.1-0.6s0.1-0.4,0.2-0.6s0.1-0.4,0.2-0.5s0.2-0.3,0.3-0.4s0.2-0.2,0.4-0.2c0.2,0,0.6,0.1,0.9,0.4s0.8,0.5,1.4,0.8
		s1.2,0.6,2,0.8s1.7,0.4,2.7,0.4c1.1,0,2.1-0.2,2.9-0.5s1.6-0.7,2.2-1.2s1-1.1,1.3-1.8s0.5-1.5,0.5-2.2c0-0.7-0.1-1.3-0.4-1.8
		s-0.7-1-1.2-1.4s-1-0.8-1.7-1.2s-1.3-0.7-1.9-1.1s-1.3-0.8-1.9-1.3s-1.2-1-1.7-1.5s-0.9-1.3-1.2-2s-0.5-1.6-0.5-2.7
		c0-1.2,0.2-2.4,0.7-3.5s1.2-2,2.1-2.8s2-1.5,3.2-1.9s2.7-0.7,4.2-0.7c0.8,0,1.5,0.1,2.1,0.2s1.3,0.3,1.8,0.5s1,0.4,1.4,0.6
		s0.7,0.4,0.8,0.5s0.2,0.3,0.3,0.4S700,1245.9,700,1246.1z"/>
</g>
<g>
	<g>
		<path fill="#595947" d="M427.3,747.5c-19.2-10.4-40.2-17.4-61.8-20.4c-12.7-1.8-25.5-2.3-38.3-2.7c-18.2-0.6-36.7-1.2-54.3,3.4
			c-20.4,5.3-38.8,17.3-52.3,33.5c-13.5,16.1-22.1,36.2-25.2,57c3-1,5-3.8,6.8-6.4c15.5-21.6,38.6-37,63.3-47s51.1-14.9,77.5-18.8
			c29.8-4.4,61.4-7.4,89.3,4.2"/>
	</g>
	<g>
		<path fill="#7C7F5A" d="M406.5,678.5c7,17.3,12.8,35,17.4,53.1c5.3,21,8.8,42.3,12.4,63.6c10.2,61.2,20.4,122.3,30.5,183.5
			c3.8-2.1,7.6-4.1,11.3-6.2c1.3-0.7,2.6-1.4,3.5-2.6c2.3-2.8,1.2-7,0.1-10.4c-5-15.4-10-30.7-15.1-46.1c-2.5-7.6-5-15.2-6.7-23
			c-1.8-8.1-2.7-16.3-3.8-24.5c-5.7-46.3-12.9-92.4-21.7-138.3c-1.4-7.5-2.9-15-5.3-22.3c-2.2-6.6-5.2-12.9-8.8-18.8
			c-1.6,1-3.2,1.9-4.7,2.9"/>
	</g>
	<g>
		<path fill="#62634C" d="M421.2,682.6c22.7-21.4,50.9-36.9,81.2-44.3c30.3-7.5,62.5-7,92.5,1.5c6.5,1.8,12.9,4,18.9,7.3
			c11.8,6.5,21.3,17.1,26.5,29.6c2.2,5.4,3.6,11.2,5,16.9c2.6,10.4,4.9,22.3-1.2,31.2c4.9-10.8,9.9-21.9,10.3-33.8
			c0.2-7.5-1.5-15-3.2-22.3c-1.2-5.4-2.5-10.9-5-15.9c-5.4-11.1-16-18.8-26.8-24.6c-20.2-10.8-43.1-16.9-66.1-16.8
			c-15.4,0.1-30.7,2.9-45.9,5.7c-11.6,2.1-23.5,4.4-33.3,10.9c-11,7.2-18.2,18.9-28.3,27.3c-4.2,3.5-8.9,6.3-12.9,9.9
			c-5.5,4.9-9.8,11.2-12.4,18.1"/>
	</g>
	<g>
		<path fill="#808566" d="M465.4,638.9c23.8-14.2,51.8-24.1,79.6-24.8c14-0.3,27.6,2.5,41.1,5.8c13.1,3.2,26.2,7.3,38.1,13.9
			c10.8,6,18.6,13.6,23,25.4c3.9,10.4,4.7,21.8,5.2,32.8c0.2,4.7,0.6,10.6,0.5,16.6c2.2-6.2,3.9-12.6,4.1-19.1
			c0.2-7.5-1.5-15-3.2-22.3c-1.2-5.4-2.5-10.9-5-15.9c-5.4-11.1-16-18.8-26.8-24.6c-20.2-10.8-43.1-16.9-66.1-16.8
			c-15.4,0.1-30.7,2.9-45.9,5.7c-11.6,2.1-23.5,4.4-33.3,10.9c-6.6,4.3-11.8,10.3-17.1,16.1C461.5,641.3,463.5,640,465.4,638.9z"/>
	</g>
	<g>
		<path fill="#7C7F5A" d="M444.7,623.8c2.4-5.6,4.8-11.2,7.2-16.8c2.5-5.9,5.1-11.8,9-16.9c4.3-5.6,10.2-9.9,15.9-14.1
			c10.8-7.9,21.7-15.9,33.8-21.6c19.4-9.2,41.2-12.4,62.7-13.8c8.8-0.6,17.7-0.9,26.3,0.5c16.3,2.6,31.5,11.3,41.9,23.9
			c10.4,12.6,15.9,29.1,15.2,45.4c-6-13.9-18.8-24.1-32.9-30c-14.1-5.9-29.5-7.8-44.8-8.8c-7.4-0.5-15-0.8-22.3,0.7
			c-8.3,1.6-15.9,5.4-23.4,9.2c-22.8,11.4-45.7,22.8-68.5,34.2c-6.5,3.2-13.1,6.6-18.1,11.7c-7.1,7.3-10.3,17.4-13.3,27.2
			c-3,10-6.1,20-9.1,30c-4.4-2.6-5.3-8.7-3.7-13.5c1.6-4.8,5-8.7,7.9-12.8c8-11.4,12.1-25,16-38.3"/>
	</g>
	<g>
		<g>
			<path fill="#7C7F5A" d="M460,593.8c-13.8,15.3-15,19.8-21.9,35.8c-6.9,16-11.8,32.9-20.1,48.1c-1.1,2.1-2.4,4.3-2,6.7
				c0.5,3.4,4.2,5.7,4.6,9.1c9.1-30.3,19-61.9,41.7-83.9c0.9-0.9,1.8-1.8,2-3c0.1-0.8-0.2-1.5-0.5-2.3
				C462.6,600.9,461.3,597.3,460,593.8"/>
		</g>
		<g>
			<g>
				<path fill="#7C7F5A" d="M458.2,592c-5.6,6.2-11,12.6-15,20.1c-4.1,7.8-7.4,16.2-10.6,24.4c-4.3,11-8.1,22.2-13.1,32.8
					c-2,4.2-5.6,8.7-6,13.4c-0.5,4.8,3.7,7.3,4.7,11.6c0.6,2.5,4.1,2.3,4.8,0c5.7-18.8,11.4-37.8,20.8-55.2
					c4.5-8.4,9.9-16.5,16.4-23.5c2.2-2.4,6.1-5,6.6-8.5c0.5-4.2-3-10.1-4.4-13.9c-1.1-3-5.9-1.7-4.8,1.3c0.9,2.4,1.7,4.7,2.6,7.1
					c1.3,3.5,1.4,5.3-1.3,8.1c-2.9,3-5.7,6.2-8.2,9.5c-5.5,7.2-10.1,14.9-14.1,23c-7.9,16.2-13.2,33.5-18.4,50.7c1.6,0,3.2,0,4.8,0
					c-0.4-1.8-1.2-3.1-2.1-4.6c-1.8-2.9-2.4-4.9-1.1-8.5c1.7-4.7,4.7-9.1,6.7-13.7c4-9.3,7.3-18.9,11.1-28.3
					c3-7.6,6.1-15.4,9.9-22.7c3.8-7.3,9-13.5,14.4-19.5C463.9,593.1,460.4,589.6,458.2,592L458.2,592z"/>
			</g>
		</g>
	</g>
	<g>
		<path fill="#7C7F5A" d="M347.2,554.3c0-4.2,4.1-7.9,8.2-7.4c2.3,0.3,4.3,1.5,6.2,2.8c6.4,4.2,12.8,8.3,19.3,12.5
			c0.3-10,0.5-20,0.8-30c4.5-1.4,9.2-2.5,13.9-3.1c-5.3,6.4-7.1,15-7.6,23.3c-1.7,24.5,5,48.7,13.2,71.9
			c8.2,23.1,17.9,45.9,22.8,69.9c-5.2,2.4-10.5,4.9-15.7,7.3c-9.8-42.4-19.7-85-35-125.8c-2.2-5.9-4.7-12-9.3-16.4
			c-4.6-4.4-11.8-6.6-17.4-3.5"/>
	</g>
	<g>
		<g>
			<path fill="#7F7F5A" d="M380.8,500.3c12.4-12,31.2-14.3,48.5-14.6c23.6-0.5,47.6,1.4,69.7,9.7c13.7,5.1,26.8,12.8,35.7,24.4
				c8.9,11.6,13.1,27.4,8.3,41.2c-4.3-6-10.2-11-16.9-14.2c-15.6-7.5-34-5.3-51-2c-17,3.3-34.6,7.5-51.4,3.5
				c-21.7-5.1-38.9-24-44.2-45.7"/>
		</g>
		<g>
			<path fill="#868E6C" d="M521.9,540.9c-14.5-5-30.3-3-45.2-1c-15.3,2.1-30.7,2.4-45.9-0.2c-7.4-1.2-14.9-3.4-21.9-6
				c-5.2-2-9.8-4-13.2-8.5c-3.6-4.7-6-10-10.2-14.4c-1.5-1.6-3.1-3-4.8-4.4c6.3,20,22.7,37,43.1,41.8c16.9,4,34.4-0.3,51.4-3.5
				c17-3.3,35.4-5.5,51,2c6.6,3.2,12.4,8,16.8,14C540.9,551.5,529.6,543.5,521.9,540.9z"/>
		</g>
	</g>
	<g>
		<g>
			<path fill="#7F7F5A" d="M310.8,489c-14.9-0.5-30,1.6-44.2,6.1c-8.5,2.7-16.7,6.3-24.9,10c-19.4,8.6-39.5,17.7-52.9,34.1
				c-4.1,5-7.4,10.5-10.7,16c-4.6,7.7-9.2,15.3-13.8,23c-5,8.2-10,16.7-11.6,26.2c-3.1,18.5,7.4,36.3,10,54.8
				c14.2,0.2,28.1-5.1,40-12.8c11.9-7.7,22.1-17.9,31.7-28.3c8.4-9.1,16.4-18.5,24.4-27.9c5-5.9,10.1-11.8,14.5-18.2
				c5.1-7.5,9.3-15.5,13.5-23.6c5.4-10.3,10.8-20.7,14.7-31.7c3.7-10.3,7.1-22.2,16.8-27.1c-4.1-0.2-8.2-0.4-12.3-0.6"/>
		</g>
		<g>
			<path fill="#7C7F5A" d="M299,496.4c-10.6,2.5-20.3,8.6-29.3,14.6c-33.6,22.5-57,56.8-76.9,91.3c-9.7,16.8-18.4,34.2-27.3,51.4
				c-0.9,1.7-1.9,3.5-2.9,5.2c0,0.1,0,0.2,0,0.3c14.2,0.2,28.1-5.1,40-12.8c11.9-7.7,22.1-17.9,31.7-28.3
				c8.4-9.1,16.4-18.5,24.4-27.9c5-5.9,10.1-11.8,14.5-18.2c5.1-7.5,9.3-15.5,13.5-23.6c5.4-10.3,10.8-20.7,14.7-31.7
				c2.7-7.6,5.3-16,10.4-21.9C307.7,494.9,303.3,495.4,299,496.4z"/>
		</g>
	</g>
	<g>
		<path fill="#868E6C" d="M161.3,590.1c2.3-3.3,4.9-6.5,6.7-10.1c2-3.9,3.2-8.3,4.8-12.3c1.7-4.3,3.6-8,6.5-11.6
			c2.4-2.8,5.1-5.3,7.8-7.9c6.1-5.8,11.2-12.4,17.2-18.3c5.7-5.5,11.9-10.5,18.6-14.6c14.7-9.2,32-14.8,48.6-19.2
			c8.7-2.3,17.4-4.2,26.4-5.4c5.3-0.7,10.7-1.4,16-2.3c-2.3-0.1-4.5-0.2-6.8-0.4l4.7,0c-14.9-0.5-30,1.6-44.2,6.1
			c-8.5,2.7-16.7,6.3-24.9,10c-19.4,8.6-39.5,17.7-52.9,34.1c-4.1,5-7.4,10.5-10.7,16c-4.6,7.7-9.2,15.3-13.8,23
			c-5,8.2-10,16.7-11.6,26.2c-0.2,1.5-0.4,3-0.5,4.4C154.8,601.6,157.3,595.6,161.3,590.1z"/>
	</g>
	<g>
		<path fill="#7C7F5A" d="M434.1,389c1.6-10.4,3.1-20.7,4.7-31.1c2.1-13.8,4.3-28.1,12.2-39.6c4.2-6.1,9.8-11.2,15.4-16
			c7.6-6.6,15.5-12.9,24.5-17.6s19-7.6,29.1-6.7c5.6,0.5,11.2,2.2,16.8,1.6c4.8-0.4,10-2.4,14.3-0.2c5.4,2.7,6.2,10,5.5,16
			c-1.9,15.8-9.2,30.6-19,43.2c-16.9,21.8-41.4,37.5-68.2,43.8c-6.6,1.6-13.5,2.6-19.6,5.4c-14.7,6.8-22.9,22.4-30,36.9
			c0.1-5.9,0.3-11.8,0.4-17.7c0.1-2.6,0.2-5.3,1.5-7.5c1-1.6,2.5-2.8,3.9-3.9c3.2-2.5,6.4-5,9.6-7.5"/>
	</g>
	<g>
		<path fill="#808566" d="M422.3,403.2c-0.3-4.7,6-6.4,9-10.1c3.3-4,2-9.8,2.1-15c0.2-10.1,6.9-19.8,16.2-23.6
			c3.4-1.4,7.2-2.1,10.4-4c11.3-6.7,10.9-24.8,21.9-31.9c1.4-0.9,3.1-1.6,4.7-1.5c1.8,0.1,3.5,1.1,5.3,1.5c5.3,1.1,9.7-3.5,13.5-7.4
			c4.3-4.5,9.2-8.6,14.3-12.1c0.7,3.3-2.4,6.1-5,8.3c-4.9,4.2-9.3,9-13.7,13.7c-29.8,32.4-59.8,65.1-82.3,103
			c2.7-7.1,4.1-14.8,4-22.4"/>
	</g>
	<g>
		<path fill="#62634C" d="M426,435.8c44.8-26.3,97-36.3,148-46c6.1-1.1,12.2-2.3,18.4-1.9c6.2,0.4,12.4,2.6,16.6,7.2
			c-0.4-5.8-1.2-11.6-2.5-17.3c-0.3-1.6-0.7-3.2-1.7-4.5c-1.3-1.8-3.3-2.7-5.4-3.5c-8.7-3.2-18.3-3.4-27.5-2.5
			c-11.4,1.1-22.5,3.7-33.6,6.4c-7.1,1.7-14.2,3.4-21.3,5.1c-7.4,1.8-14.9,3.6-22.1,6.3c-8.9,3.4-17.3,8.4-24.5,14.6
			c-5.6,4.8-10.6,10.2-16.1,15c-9.6,8.4-20.7,14.8-31.7,21.2"/>
	</g>
	<g>
		<g>
			<path fill="#808566" d="M437.4,394.8c-16.4,17-27,39.5-29.7,63c-2.6-5.3-0.9-11.7,0.9-17.4c2.2-7.1,4.5-14.3,8-20.9
				c1.6-2.9,3.4-5.7,5.5-8.4c4.6-6.1,10.2-11.4,16.5-15.8"/>
		</g>
		<g>
			<g>
				<path fill="#808566" d="M436.5,393.9c-16.6,17.6-27.1,39.9-30.1,63.9c0.8-0.1,1.6-0.2,2.5-0.3c-2.5-6.1-0.5-12.3,1.4-18.4
					c1.8-5.6,3.6-11.3,6.2-16.6c5.1-10.5,13.2-19.3,22.7-26c1.3-0.9,0.1-3.1-1.3-2.2c-10.3,7.3-19,16.9-24.3,28.5
					c-2.7,5.8-4.6,12-6.5,18.1c-1.7,5.7-3,11.5-0.7,17.3c0.5,1.3,2.3,1.1,2.5-0.3c2.9-23.3,13.2-45,29.4-62.1
					C439.4,394.5,437.6,392.7,436.5,393.9L436.5,393.9z"/>
			</g>
		</g>
	</g>
	<g>
		<g>
			<path fill="#808566" d="M465.1,403.2c-7.7,5.1-15.6,9.9-23.5,14.6c-8.2,4.8-16.5,9.4-23.4,15.9c-6.9,6.5-12.3,15.1-12.6,24.6
				c6.8-7.9,10.6-18.3,18.6-25c9.4-7.9,23.2-9.4,31.8-18.2c2.6-2.7,4.6-5.9,7.1-8.6c4.3-4.7,10.1-8,16.4-9.3"/>
		</g>
		<g>
			<g>
				<path fill="#808566" d="M464.5,402.2c-13.4,8.7-28,15.9-40.8,25.4c-10.2,7.5-18.5,17.7-19.4,30.7c-0.1,1,1.5,1.7,2.1,0.9
					c5.3-6.5,8.9-14.2,14.2-20.6c5.3-6.3,12.3-9.5,19.6-12.7c6.4-2.8,12.8-5.8,17.6-11.1c2.8-3.2,5-6.8,8.3-9.7
					c3.9-3.4,8.6-5.6,13.6-6.7c1.6-0.4,0.9-2.8-0.7-2.4c-7.8,1.8-14.1,5.9-19.1,12.2c-3,3.8-5.7,7.3-9.8,10c-3.5,2.3-7.4,4-11.2,5.6
					c-7,3-13.9,6.1-19.1,11.9c-6,6.6-9.6,14.9-15.3,21.7c0.7,0.3,1.4,0.6,2.1,0.9c1-14.7,12.3-25.1,24-32.6
					c11.5-7.3,23.5-13.9,35-21.4C467.1,403.4,465.9,401.3,464.5,402.2L464.5,402.2z"/>
			</g>
		</g>
	</g>
	<g>
		<path fill="#62634C" d="M372,543.4c-15.6,7-30.3,16.1-43.5,27c-13.7,11.3-25.8,24.3-37.8,37.3c-6,6.5-12,13-16.6,20.5
			c-3.5,5.7-6.2,12-8.5,18.3c-13.2,36.4-14.8,76.9-4.5,114.1c1.3,4.6,2.7,9.2,5.5,13.1c1.3,1.8,3.3,3.7,5.5,3
			c2.1-0.6,2.8-3.1,3.2-5.3c1.7-10.4,2.2-21.1,1.4-31.7c-0.3-3.8-0.6-7.9,1.5-10.9c0.9-1.3,2.1-2.3,3.3-3.3
			c7.8-7.5,9.5-19.1,14.4-28.8c4.7-9.3,12.5-16.7,19.7-24.3c17.4-18.3,33-40,36.5-65c1.7-12.1,0.5-24.4,0.2-36.6
			c-0.1-3.9,0-8.1,2.2-11.3c1.2-1.8,3-3.1,4.7-4.3c6.3-4.7,12.7-9.4,19-14c-2.7,0.2-5.5,0.5-8.2,0.7"/>
	</g>
	<g>
		<path fill="#808566" d="M369.2,543l2.1,1.4c-6.7,3-13.2,6.4-19.5,10.1c-4.2,8.5-3.9,18.7-4,28c-0.1,10.2-0.5,20.4-2.1,30.5
			c-1.6,9.8-4.5,19.3-9.1,28c-4,7.6-9.8,14-15.8,19.9c-6.3,6.2-13.2,12.1-18.4,19.3c-6,8.3-9,18.2-13.3,27.4
			c-4,8.6-10.2,15.8-14.3,24.3c-2.5,5.1-2.8,10.3-3.1,15.8c-0.3,6.6-0.3,13.3,0.4,19.8c0.3,2.7,0.7,5.5,1.5,8.1
			c0.5-1,0.7-2.1,0.9-3.2c1.7-10.4,2.2-21.1,1.4-31.7c-0.3-3.8-0.6-7.9,1.5-10.9c0.9-1.3,2.1-2.3,3.3-3.3
			c7.8-7.5,9.5-19.1,14.4-28.8c4.7-9.3,12.5-16.7,19.7-24.3c17.4-18.3,33-40,36.5-65c1.7-12.1,0.5-24.4,0.2-36.6
			c-0.1-3.9,0-8.1,2.2-11.3c1.2-1.8,3-3.1,4.7-4.3c6.3-4.7,12.7-9.4,19-14C374.7,542.5,371.9,542.8,369.2,543z"/>
	</g>
	<g>
		<path fill="#717752" d="M322.6,446.6c-5.8-7-10.5-15.3-11.8-24.3c-2.5-16.7,6.6-32.9,16.4-46.6c9.8-13.8,21-27.6,23.7-44.3
			c-1.3,15,4.8,29.5,6.4,44.5c0.7,6.9,0.5,13.9,0.9,20.8c0.3,5.7,1,11.5-0.1,17.2c-1.4,6.9-5.7,13.2-11.7,17
			c-7.8,5-18.4,5.9-24.3,13.1"/>
	</g>
	<g>
		<path fill="#B7544D" d="M288.6,457.3c6.4-2.5,10.1-10.1,8.9-16.9c-1.1-6.8-6.5-12.5-12.9-15c-6.4-2.5-13.7-2.2-20.2-0.1
			c-2.8,0.9-5.5,2.2-7.9,4c-11.4,8.9-7.5,26.6,3.1,34.4c2.6,1.9,5.7,3,8.8,3.7c2.7,0.6,5.6,1,8.4,0.7c3.9-0.5,7.6-2.3,10.2-5.1
			c1.8-1.9,3.2-4.5,2.6-7.1c-0.4,0-0.8,0-1.2,0"/>
	</g>
	<g>
		<path fill="#8E3E3E" d="M264.8,425c-0.2,0.1-0.4,0.1-0.6,0.2c-2.8,0.9-5.5,2.2-7.9,4c-7.3,5.7-8.3,14.9-5.4,22.9
			C260.3,447.2,264,435.7,264.8,425z"/>
	</g>
	<g>
		<path fill="#A74845" d="M296.7,450.3c-3.7-1-8.1-1.5-11.1,0c-4.7,2.3-1.3,8.5,1.6,12.1c0.7-0.5,1.4-1.1,2-1.8
			c1.6-1.7,2.9-3.9,2.7-6.2C293.8,453.4,295.4,452,296.7,450.3z"/>
	</g>
	<g>
		<path fill="#808566" d="M307,462.2c-6.8-3-13.1-7-18.7-11.9c-0.9,0.9-1.9,1.8-2.8,2.8c-0.2,0.2-0.5,0.5-0.5,0.8
			c0,0.5,0.5,0.8,0.9,1c3.8,1.6,7.8,2.7,11.5,4.5c3.7,1.8,7.2,4.3,9.2,8c0.3-1.7,0.6-3.5,0.8-5.2"/>
	</g>
	<g>
		<path fill="#773434" d="M374.4,463.7c-4.9-2.7-10.5-5.6-15.9-4.1c-2.8,0.8-5.2,2.7-7.4,4.7c-4.3,4.2-7.7,9.3-9.2,15.1
			s-1,12.2,2.1,17.3c5.4,9,18.5,12,27.7,7c9.2-5,13.9-16.9,11.3-27.1c-1.1-4.4-3.4-8.6-6.7-11.9c-1.6-1.6-3.7-3.1-5.9-2.6"/>
	</g>
	<g>
		<g>
			<path fill="#B7544D" d="M367.6,477.8c5.2,12.5,21.7,18.8,33.9,13c4.5-2.1,8.3-5.7,10.4-10.2c1.1-2.4,1.7-5,2.2-7.6
				c1.1-5.4,1.8-11.1,0.1-16.3c-2.5-7.2-12.4-11.1-19.4-12.4c-10.2-2-17.4,0.4-23.6,8.9C366.1,460.1,364.3,469.7,367.6,477.8z"/>
		</g>
		<g>
			<path fill="#903D3D" d="M400.7,474.6c-1.6-8.3-0.9-17-8.7-22.1c-3.9-2.6-7.4-3.4-12-3.9c-1.3-0.2-2.7-0.3-4-0.6
				c-1.7,1.4-3.4,3.2-5,5.3c-5.1,7-6.9,16.6-3.5,24.7c5.2,12.5,21.7,18.8,33.9,13c2-0.9,3.8-2.2,5.5-3.6
				C403.5,484.1,401.6,479,400.7,474.6z"/>
		</g>
		<g>
			<g>
				<path fill="#685758" d="M394.7,461.5c-0.8-0.5-1.9-0.8-2.7-0.1c-0.7,0.7-0.4,1.8,0.1,2.5c0.5,0.7,1.2,1.4,1.9,1.9
					c0.6,0.4,1.3,0.8,2.1,0.6c0.9-0.3,1.2-1.3,0.9-2.1c-0.3-0.9-1-1.6-1.6-2.2c-0.7-0.6-1.8-1.2-2.7-0.7c-1,0.6-0.9,1.8-0.3,2.6
					c0.2,0.3,0.6,0.7,1.1,0.6c0.5,0,1-0.1,1.6-0.1c0.7-0.1,1.2-0.5,1.2-1.2c0-0.6-0.6-1.3-1.2-1.2c-0.5,0-1,0.1-1.6,0.1
					c0.4,0.2,0.7,0.4,1.1,0.6c-0.1-0.1-0.1-0.2-0.2-0.3c0.3,0.5-0.1,0.9-1.1,1.2c0.1,0.1,0,0,0.2,0.1c0.3,0.2,0.6,0.4,0.8,0.7
					c0.2,0.2,0.3,0.5,0.5,0.7c0-0.1-0.1-0.1,0,0c-0.1-0.3,0.1-0.6,0.6-0.7c0.7-0.3,0.9-0.4,0.5-0.5c0.2,0.1,0.2,0.1,0,0
					c-0.5-0.3-0.9-0.7-1.4-1.2c-0.2-0.2-0.3-0.4-0.4-0.5c0,0,0-0.1,0-0.1c-0.1,0.9-0.5,1.2-1,1.1c0.1,0.1,0.3,0.1,0.4,0.2
					C394.8,464.5,396,462.3,394.7,461.5L394.7,461.5z"/>
			</g>
		</g>
	</g>
	<g>
		<g>
			<g>
				<path fill="#685758" d="M339.6,437.7c-1.2-0.8-3.2-0.5-4.2,0.6c-0.6,0.7-0.7,1.7-0.2,2.4c0.5,0.7,1.4,1.1,2.3,1
					c0.9-0.1,1.8-0.5,2.3-1.3c0.5-0.7,0.4-1.7-0.2-2.3c-1-1-3.1-0.8-4.1,0.2c-0.7,0.8-0.2,2.1,0.9,2.1c1,0,1.9,0,2.9,0
					c1.6,0,1.6-2.5,0-2.5c-1,0-1.9,0-2.9,0c0.3,0.7,0.6,1.4,0.9,2.1c0.1-0.2-0.1,0,0.1-0.1c-0.2,0.1,0.1,0,0.1,0c0.1,0,0,0,0.2,0
					c0.1,0,0.3-0.1,0.2,0c0.2-0.1,0,0.2,0,0c0-0.2-0.4-0.9-0.2-1c-0.1,0-0.3,0.2-0.4,0.2c-0.3,0,0,0-0.1,0c-0.2,0.1-0.1-0.2,0.1,0.1
					c0.1,0.2-0.1,0.6-0.1,0.6c-0.1,0-0.1,0,0,0c0.1,0,0.1,0,0,0c0.2-0.1,0.4-0.1,0.6-0.1c0,0,0.4,0,0.3,0c0.2,0,0,0,0.2,0.1
					C339.7,440.7,341,438.6,339.6,437.7L339.6,437.7z"/>
			</g>
		</g>
		<g>
			<g>
				<path fill="#A94F4C" d="M322.1,442.7c-0.5,8.9,5.1,17.4,13,23c4.7,3.3,10.6,5.8,16.5,4.8c4.8-0.8,8.8-3.9,11.9-7.3
					c3.1-3.4,5.5-7.3,6.7-11.5c4.4-15.2-8.1-30.3-23.2-30.3c-4.9,0-12.2,3.9-16.2,6.7C326,431.4,322.5,436.8,322.1,442.7z"/>
			</g>
			<g>
				<path fill="#A74845" d="M371.3,441.1c-0.1-0.4-0.2-0.9-0.3-1.3c-7.7,0.2-19.3-2.6-23.2,6c-3.2,7-3,16.8-0.8,24.8
					c1.8,0.3,3.5,0.3,5.3,0c4.8-0.8,8.8-3.9,11.9-7.3c3.1-3.4,5.5-7.3,6.7-11.5c0.8-2.9,1.1-5.8,0.8-8.5
					C371.4,442.6,371.3,441.8,371.3,441.1z"/>
			</g>
			<g opacity="5.000000e-02">
				<g>
					<path fill="#DFD6D7" d="M346,433.8c-0.9,2-2,3.8-3.4,5.5c-1.4,1.6-3.3,2.7-4.5,4.4c-2.2,3.1-0.1,7.5,4,6.6
						c2-0.5,3.2-2.2,4.3-3.8c1.5-2.1,3.1-4.1,4.6-6.2c1.2-1.7,2.4-3.6,1.4-5.7c-0.8-1.6-2.7-2.5-4.4-1.8c-2.9,1.2-1.6,6.1,1.3,4.8
						c-0.9-1.6-1.5-1.9-2-0.7c-0.4,0.5-0.8,1-1.2,1.5c-0.8,1-1.5,2.1-2.3,3.1c-0.6,0.8-1.2,1.5-1.7,2.3c-1,0.7-0.9,1.6,0.1,2.5
						c0.3-0.3,0.6-0.6,1-0.9c3-2.6,5.4-5.5,7.1-9.2C351.6,433.4,347.3,430.9,346,433.8L346,433.8z"/>
				</g>
			</g>
		</g>
	</g>
	<g>
		<path fill="#B7544D" d="M430.9,408.8c-3.8,5.4-9.6,7.9-16.1,7.6c-5.9-0.2-12.9-0.1-18-3.7c-4.8-3.3-7.2-9.6-5.3-15.2
			c-4.8-1.5,2.6-13,4.7-15.3c3.7-4.2,8.8-7.3,14.3-8.4c4.9-0.9,10.1-0.4,14.5,2.3c4.9,2.9,8.5,8.5,9.6,14.7
			C435.8,397.1,434.4,403.8,430.9,408.8z"/>
	</g>
	<g>
		<path fill="#A74845" d="M434.7,390.5c-1.1-6.2-4.8-11.8-9.6-14.7c-1.4-0.9-3-1.5-4.5-2c1.3,5.7,1.3,11.9-0.1,16.9
			c-2.5,8.8-11.9,12.9-19.9,7.8c-5.2-3.3-6.5-9.2-5.6-14.9c-2.8,4-7.4,12.3-3.3,13.6c-1.9,5.6,0.5,11.8,5.3,15.2
			c5.1,3.5,12.1,3.4,18,3.7c6.5,0.3,12.3-2.2,16.1-7.6C434.4,403.5,435.8,396.7,434.7,390.5z"/>
	</g>
	<g>
		<path fill="#595B4D" d="M376.4,369.9c5.2-8.5,6-18.9,7.4-28.7c4.7-31.7,19.1-62.3,42.4-84.2c23.3-22,55.8-34.6,87.6-31.7
			c-17,2.5-36.2,17.3-42.3,33.3c-17.6,26.2-43.4,36.9-64.5,60.4c-14.3,15.9-23.5,35.6-32.4,55"/>
	</g>
	<g>
		<g>
			<path fill="#606351" d="M375.3,374.5c-0.8-0.9-1.7-1.8-2.5-2.7c0.1,1,0.3,2,0.4,3c16.5-22,11.7-51.9,25.1-75.3
				c-1.5-0.6-3-1.3-4.6-1.9c-4.6,13.2-7.9,25.9-9.6,39.8c-0.9,7.4-2.5,14.3-5.9,20.9c-2.8,5.5-6,10.8-8.2,16.6
				c-1.1,3,3.7,4.3,4.8,1.3c2.4-6.2,6-11.7,8.9-17.7c2.7-5.8,4.2-11.8,5-18.1c0.9-7,1.6-13.9,3.3-20.8c1.8-7,4.1-13.9,6.5-20.7
				c0.9-2.7-3.2-4.3-4.6-1.9c-13.4,23.4-8.7,53.4-25.1,75.3c-0.7,0.9-0.3,2.3,0.4,3c0.8,0.9,1.7,1.8,2.5,2.7
				C373.9,380.4,377.4,376.8,375.3,374.5L375.3,374.5z"/>
		</g>
	</g>
	<g>
		<path fill="#BE5B5C" d="M368.6,378.7c-1.3-4.8-2-9.8-2.1-14.7c0-2.4,0.1-4.8,1.1-7c1.5-3.1,4.5-5.4,7.5-7.5
			c2.6-1.9,5.3-3.8,8.5-4.8c2.3-0.7,4.7-0.9,7.1-1c2.9-0.1,5.9,0.1,8.6,1.1c4,1.5,6.7,4.7,8.6,8.1c3.9,7,4.8,15.5,1.3,22.7
			s-11.7,12.8-20.7,13c-9,0.2-18-5.5-19.5-13.2"/>
	</g>
	<g>
		<path fill="#984040" d="M407.6,353c-1.9-3.4-4.6-6.6-8.6-8.1c-2.7-1-5.7-1.2-8.6-1.1c-2.4,0.1-4.8,0.3-7.1,1
			c-1.1,0.3-2.1,0.8-3.1,1.3c1.1,1.7,3.4,2.5,6,3.2c4.1,1.2,8.5,2,12.1,4.5c2.5,1.8,4.4,4.3,5,7.3c0.7,3.4-0.9,6.8-0.3,10.2
			c0.5,2.7,2.1,4.8,2.2,7.7c0,0.6,0,1.3-0.1,1.9c1.5-1.6,2.8-3.4,3.7-5.3C412.4,368.5,411.5,360,407.6,353z"/>
	</g>
	<g>
		<path fill="#899073" d="M317.6,530.9c-1.3,5-5.2,9-9.3,12.2c-23.7,18.3-59.1,19.1-78.5,41.9c2.9-10.2,8.2-19.5,14.5-28
			c15.2-20.5,38-37.1,63.4-37.9"/>
	</g>
	<g>
		<path fill="#B7544D" d="M474.8,465.9c-5.4,11.1-19.4,16.4-30.3,11.6c-2.7-1.2-5.2-2.9-7.5-4.9c-2.8-2.4-5.5-5-7.3-8.3
			c-4.1-7.5-2.9-17.7,2.8-23.9c2.4-2.6,5.4-4.5,8.6-5.8c9.7-3.9,21.7-1.6,28.8,6.4c7.1,8,8.1,21.6,1.5,30.1"/>
	</g>
	<g>
		<path fill="#A74845" d="M325.7,483.7c-6.7-7.4-17-11.5-26.8-9.9s-18.5,9.6-20.1,19.4c-0.5,3-0.4,6.1,0.8,8.9
			c2.3,5.8,8.3,9.2,13.9,12.1c4,2.1,8.2,4.3,12.7,4.3"/>
	</g>
	<g>
		<g>
			<path fill="#606351" d="M362.1,374.6c0.8-8.8-2-17-3.8-25.5c-1.7-8.2-1.2-16.7-2.3-25c-1.9-15-10.9-27.3-25.8-31.6
				c-6.2-1.8-8.8,7.8-2.7,9.6c14.5,4.2,18.4,17.1,19.1,30.7c0.3,7,0.7,13.8,2.3,20.6c1.6,7.1,3.8,13.8,3.1,21.1
				C351.5,381.1,361.5,381,362.1,374.6L362.1,374.6z"/>
		</g>
	</g>
	<g>
		<path fill="#7C7F5A" d="M390.2,195c-10.5,2.7-21.4,5.6-30.1,12.1c-15.4,11.5-21.1,32.6-19,51.7c2,19.1-1,37.9,7.4,55.2l17.3,56
			c-4.7-18.3-7.5-37-8.2-55.9c-0.1-3-0.4-5.7-0.6-8.3c-0.7-0.7-1.1-1.6-1-2.9c0.4-28.3,22.9-47.1,47.7-56.2
			c9.4-6.1,19.3-13.2,28.8-22.9c10.4-10.7,10.5-27.8,11.3-42.7C425.8,185.8,408,190.4,390.2,195z"/>
	</g>
	<g>
		<path fill="#606351" d="M335,298.6c-5.3-7.1-9.9-14.7-15.4-21.8c-17.1-22.2-42.6-38.6-70.5-41.6c-27.9-3-57.7,8.6-73.7,31.6
			c24.6-14.4,56-9.5,82.6,0.8S307.1,292.7,335,298.6"/>
	</g>
	<g>
		<path fill="#7C7F5A" d="M398.2,564c23.3-64.8,77.6-98.6,144.5-114.6c20.7-5,45.7-5.4,59.7,10.6c-9.9-9.6-27.9-7-41.6-5
			s-23.2,2.6-35.1,9.4c-30,17.2-57.3,38.5-84.5,59.8C425.8,536.3,410.2,548.5,398.2,564"/>
	</g>
	<g>
		<path fill="#B7544D" d="M511.8,623.6c-7.1-3.4-11.6-10.5-15.6-17.3c-1.5-2.6-3.1-5.2-3.6-8.2c-1.3-7.6,5.2-15,12.7-16.6
			c7.5-1.6,15.4,1.5,21.5,6.1c3.6,2.7,6.9,6.1,8,10.5c2.2,8.3-3.9,16.2-9.6,22.6"/>
	</g>
	<g>
		<g>
			<path fill="#FFFFFF" d="M432.3,685.7c1.6,0,1.6-2.5,0-2.5C430.7,683.2,430.7,685.7,432.3,685.7L432.3,685.7z"/>
		</g>
	</g>
	<g>
		<path fill="#808566" d="M261.4,427.7c-16.1-18.7-21-46.4-12.1-69.4c9.8,6,19.8,12,28.1,20c8.3,8,15,18.1,16.9,29.4
			c1.2,7.1,0.4,14.4,0.5,21.6c0.2,9.3,1.9,18.6,5.1,27.4"/>
	</g>
	<g>
		<path fill="#808566" d="M591.5,365.2c-29.7-0.8-59.6,4.1-87.5,14.3c-8.1,3-16.1,6.4-23.4,11c-4.4,2.7-8.5,5.8-12.7,8.9
			c-2.2,1.6-4.3,3.2-6.5,4.8c0,0,0,0,0,0c-0.1,0.8-0.3,1.6-0.5,2.3c1.8-0.7,3.7-1.3,5.6-1.9c3.5-0.9,7.2-1.5,10.6-2.7
			c4.6-1.7,8.7-4.7,12.8-7.4c9.9-6.4,20.9-10.9,31.8-15.5c7-2.9,14.1-5.9,21.4-8.1c19.9-6,41.4-6.5,61.5-1.3
			C601.7,365.9,596.3,365.3,591.5,365.2z"/>
	</g>
	<g>
		<path fill="#7C7F5A" d="M263.3,388.1c5.4,11.7,13.6,21.8,20.7,32.4c5,7.5,8.6,15.4,12.3,23.5c-1-4.9-1.5-9.8-1.6-14.8
			c-0.1-7.2,0.6-14.5-0.5-21.6c-1.8-11.4-8.6-21.5-16.9-29.4c-7.3-7-15.9-12.5-24.5-17.8C256.2,369.7,259.2,379.2,263.3,388.1z"/>
	</g>
	<g>
		<path fill="#606351" d="M393.4,250.2c-2.8,1.3-5.5,2.5-8.2,3.9c-6.3,3-12.4,6.3-18.6,9.5c-6.2,3.2-12.8,7-15.3,13.5
			c-1.2,3-1.3,6.3-1.4,9.5c-0.6,27,3.5,54,12,79.7c0.8,2.3,2.3,5.1,4.7,4.7l-0.7-0.1c-2.6-18.3-5.3-36.5-7.9-54.8
			c-1.4-9.9-2.8-20.3,1-29.5c3.3-8.2,10.2-14.3,16.8-20.1c4.5-3.9,8.9-7.8,13.4-11.7c1.5-1.3,15.7-8.6,17.2-9.8
			C406.3,244.7,393.5,250.4,393.4,250.2z"/>
	</g>
	<g>
		<path fill="#7C7F5A" d="M333.3,422.4c-3.4,4.9-1.8,12,2.5,16.1c4.3,4.1,10.6,5.4,16.5,5.1c3.9-0.2,7.8-1.2,11.7-1.4
			c9.6-0.5,18.8,3.2,27.6,6.8c3.7,1.5,7.4,3.1,10.5,5.6c3.1,2.6,5.3,6.3,5.1,10.3c5.1-18-0.8-37.7-10.9-53.5
			c-3.1-4.8-6.6-9.4-11.3-12.5s-10.7-4.7-16.1-3c-7.2,2.3-11.6,9.5-18,13.6c-3.5,2.2-7.6,3.5-11.4,5.3c-3.8,1.9-7.4,4.6-8.7,8.6"/>
	</g>
	<g>
		<path fill="#A74845" d="M475.8,457.7c-6.3,6.3-15.6,9.2-24.6,5.1c-5.5-2.4-10.9-7.3-14.7-11.8c-2.1-2.5-3.3-5-3.3-8.3
			c0-1.1,0.2-2.2,0.4-3.3c-0.3,0.3-0.7,0.6-1,1c-5.7,6.2-6.9,16.5-2.8,23.9c1.8,3.3,4.5,6,7.3,8.3c2.3,1.9,4.8,3.6,7.5,4.9
			c9.1,4.1,20.5,1,27.1-6.7l-0.2,0.3c0.1-0.1,0.2-0.2,0.2-0.3c1.2-1.5,2.3-3.1,3.2-4.8l-2,3C474.8,465.5,475.7,461.6,475.8,457.7z"
			/>
	</g>
	<g>
		<g>
			<path fill="#685758" d="M462.4,447.9c-1,1.2-1.2,3.3,0,4.5c0.6,0.6,1.6,0.8,2.3,0.3c0.8-0.5,1.2-1.4,1.2-2.3
				c0-0.8-0.3-1.7-0.9-2.3c-0.7-0.6-1.7-0.7-2.4,0c-1.1,1-1,3-0.1,4.1c0.6,0.7,1.9,0.4,2.1-0.6c0.2-1,0.3-1.9,0.5-2.9
				c0.1-0.7-0.2-1.3-0.9-1.5c-0.6-0.2-1.4,0.2-1.5,0.9c-0.2,1-0.3,1.9-0.5,2.9c0.7-0.2,1.4-0.4,2.1-0.6c0.2,0.2,0,0.2,0.1,0.1
				c0-0.1,0-0.2,0-0.1c0,0.1,0,0,0-0.1c0-0.3,0-0.2,0.1-0.4c-0.1,0.1,0,0.1,0,0c0,0,0,0.1-0.1,0.1c-0.3,0.3-0.6,0.3-0.9,0.1
				c-0.1,0-0.1-0.1-0.2-0.1c0,0,0.2,0.4,0.1,0.5c0,0.1,0,0.1,0,0.1c0,0.3-0.2,0,0,0c0.1,0,0.2-0.1,0.3-0.1c0.1,0,0.3,0.1,0.4,0.1
				c0.1,0,0,0.2,0,0c0-0.1-0.1-0.4-0.1-0.7c0,0,0.1-0.2,0.1-0.3c0,0.1,0.1-0.2,0,0c0.4-0.5,0.5-1.3,0-1.8
				C463.7,447.5,462.8,447.4,462.4,447.9L462.4,447.9z"/>
		</g>
	</g>
	<g opacity="0.16">
		<g>
			<path fill="#DFD6D7" d="M460.6,439.4c-3.2-1.1-6.3,0.6-8.4,3.1c-2,2.3-4.2,5.2-2.8,8.3c0.6,1.3,1.8,2.5,3.3,2.5
				c1.4,0,2.8-1.2,3.4-2.4c0.8-1.5,0.7-3,0.8-4.6c0-0.7,0.3-2,1.4-1.5c2.9,1.4,5.4-2.9,2.5-4.3c-2.4-1.2-5.3-0.9-7.2,1.1
				c-1,1.1-1.5,2.4-1.6,3.8c-0.1,0.9,0.4,2.9-0.5,3.3c0.8,0,1.7,0,2.5,0c-0.3-0.2,1.6-2.4,1.8-2.6c0.9-1.1,2-2.3,3.6-1.8
				C462.4,445.2,463.7,440.4,460.6,439.4L460.6,439.4z"/>
		</g>
	</g>
	<g>
		<g>
			<path fill="#883D3D" d="M388.7,499.4c-7.6-3.3-16.7-0.5-23.7,4c-2.7,1.7-5.2,3.7-6.9,6.4c-2.2,3.6-2.4,8-2.3,12.2
				c0.1,3.9,0.6,8.1,3,11.2c1.5,2,3.7,3.3,6,4.4c5.2,2.5,11,3.7,16.6,2.9c5.7-0.8,11.1-3.8,14.3-8.5c2.4-3.6,3.4-7.8,4.1-12.1
				c0.8-4.8,1.1-10-1.4-14.1c-2.8-4.6-8.6-6.6-14-6.9"/>
		</g>
		<g>
			<g>
				<path fill="#883D3D" d="M389.4,497c-11.8-4.5-30.7,2.3-34.9,15c-1.9,5.9-1.9,14.3,0.7,20c2.9,6.1,10,9.2,16.2,10.5
					c14.3,3.1,27-4.5,30.2-18.8c1.5-6.6,2.5-14.5-1.8-20.3c-3.6-4.8-9.6-6.6-15.4-7c-3.2-0.2-3.2,4.8,0,5c4.9,0.4,10.1,2,12.3,6.8
					c2.2,4.7,0.9,10.9-0.4,15.8c-3,11.6-14.1,16.3-25.3,13.3c-5.4-1.5-10.8-4.1-12.2-10c-1.1-4.5-1.1-10.9,0.9-15.1
					c4.4-9.3,19.1-13.9,28.2-10.4C391,502.9,392.3,498.1,389.4,497L389.4,497z"/>
			</g>
		</g>
	</g>
	<g>
		<path fill="#4F523E" d="M355.2,418.7c-0.8,1.6-1.6,3.7-0.4,5c0.6,0.7,1.6,0.9,2.4,1.1c4.8,0.8,9.7-0.4,14.6-1.2
			c4.8-0.7,10.1-1,14.3,1.6c1.4,0.8,2.6,2,3.8,3.1c2.1,2,4,4.3,5.7,6.6c-0.1-4.3-2.3-8.2-2.9-12.5c-0.4-2.7-0.1-5.5-0.2-8.2
			c-0.2-2.7-0.8-5.6-2.8-7.6c-1.9,5.1-6.1,9.2-11.2,10.9c-2.2,0.7-4.4,1-6.7,1.2c-5.7,0.4-11.5-0.2-17.2-0.8"/>
	</g>
	<g>
		<g>
			<path fill="#B7544D" d="M392.8,397c1.3,6.1-1.5,12.7-6.2,16.9s-10.9,6.4-17.1,7.4c-5.2,0.8-10.7,0.9-15.4-1.4
				c-2.7-1.3-5.1-3.3-7.1-5.6c-5.7-6.5-8.6-15.7-6.6-24.2c2-8.5,9.1-15.7,17.7-16.9c8-1.1,15.8,2.8,22.5,7.3c5.9,3.9,12,9.3,12,16.4
				"/>
		</g>
		<g>
			<path fill="#A74845" d="M392.7,396.7l-0.1-0.1c0-7.1-6.1-12.5-12-16.4c-6.7-4.4-14.5-8.3-22.5-7.3c-8.6,1.2-15.8,8.5-17.7,16.9
				c-0.2,0.9-0.3,1.8-0.4,2.7c1.4,0.4,3.1,0.6,4,0.7c4.7,0.3,8-2.1,12-4.2c9-4.9,19.5-6,25.3,4.1c4.2,7.3,4.3,16.6,0.5,24.1
				c1.7-1,3.4-2.1,4.9-3.4C391.2,409.4,394,402.9,392.7,396.7z"/>
		</g>
		<g>
			<g>
				<path fill="#685758" d="M363.7,380.2c-1.4-0.7-4.7-1.1-4.9,1.2c-0.2,2.4,3.1,2.3,4.7,1.9c0.9-0.3,1.2-1.4,0.6-2.1
					c-0.9-1.1-2.4-1.5-3.8-1.1c-1.5,0.4-0.9,2.8,0.7,2.4c0.6-0.2,1,0,1.4,0.5c0.2-0.7,0.4-1.4,0.6-2.1c-0.4,0.1-0.8,0.2-1.2,0.2
					c-0.1,0-0.4-0.1-0.4,0c-0.2,0.1,0-0.4,0.1,0.2c0,0.2,0,0.4,0,0.7c0,0.2-0.5,0.3-0.2,0.2c0.2,0,0.3,0,0.5,0
					c0.3,0,0.6,0.1,0.9,0.3C363.8,383.1,365.1,381,363.7,380.2L363.7,380.2z"/>
			</g>
		</g>
		<g opacity="0.16">
			<g>
				<path fill="#DFD6D7" d="M364.4,388c-2,1.8-4.2,3.1-6.8,3.8c-2.1,0.6-4.7,0.1-6.7,1.1c-3.1,1.6-2.7,5.7,0.4,7.1
					c7.5,3.3,17.4-1.4,18.1-9.8c0.3-3.2-4.7-3.2-5,0c-0.2,2.8-2.5,4.6-5,5.3c-1.4,0.4-2.9,0.4-4.3,0.2c-1.6-0.7-1.9-0.1-0.8,1.6
					c0.5,0,1-0.1,1.5-0.1c4.6-0.5,8.7-2.5,12.2-5.7C370.3,389.4,366.7,385.8,364.4,388L364.4,388z"/>
			</g>
		</g>
	</g>
	<g opacity="7.000000e-02">
		<g>
			<path fill="#DFD6D7" d="M380.7,505.1c-6.3,0.4-12.1,4.9-14.1,10.9c-0.1,0.4-0.3,0.9-0.2,1.4c0.1,0.5,0.4,0.9,0.8,1.2
				c1.9,1.9,4.6,3,7.2,4c1.8,0.7,3.6,1.4,5.5,1.5c5,0.3,9.7-4.2,9.7-9.2c0-5-4.7-9.4-9.7-9.1"/>
		</g>
	</g>
	<g>
		<g>
			<path fill="#5C4B4B" d="M383.8,514.8c-1.1-1.8-4.1-3.1-6.1-2.1c-1,0.5-1.5,1.6-1.3,2.7c0.3,1.2,1.2,2,2.3,2.5
				c1.7,0.7,5.4,0.3,4.8-2.4c-0.4-2-3.5-3.3-5.3-2.6c-0.9,0.4-1.3,1.7-0.3,2.3c1.5,0.8,3,1.6,4.5,2.4c1.4,0.8,2.7-1.4,1.3-2.2
				c-1.5-0.8-3-1.6-4.5-2.4c-0.1,0.8-0.2,1.5-0.3,2.3c0.4-0.1,0.7-0.1,1.1,0c0.3,0.1,0.5,0.2,0.7,0.3c0,0,0.4,0.3,0.4,0.3
				c0,0,0.2-0.3,0.1-0.4c0,0-0.5,0-0.2,0.1c-0.5-0.1-0.9,0.1-1.4-0.2c-0.2-0.1-0.7-0.4-0.8-0.7c0,0,0,0-0.1,0.1
				c0.1-0.1,0.5-0.1,0.6-0.1c0.8,0,1.9,0.5,2.3,1.2C382.4,517.4,384.6,516.2,383.8,514.8L383.8,514.8z"/>
		</g>
	</g>
	<g>
		<g>
			<path fill="#B7544D" d="M319.1,529.1c-3.6,4.2-4.5,10.1-4.5,15.7c0,3.2,0.3,6.4,1.9,9.2c2.9,5,9.1,6.8,14.9,7.3
				c8,0.7,16.7-0.6,22.8-5.9c6.1-5.2,8.7-15.1,4-21.6c-1.4-1.9-3.3-3.5-5.1-4.9c-3.3-2.7-6.6-5.3-9.9-8"/>
		</g>
		<g>
			<path fill="#913E3F" d="M321,539c4.7-5,11.6-5.6,17.8-3.5c6,2,9.1,7.2,11.1,12.8c0.9,2.5,1.6,5.4,2.7,8.1
				c0.5-0.3,0.9-0.7,1.4-1.1c6.1-5.2,8.7-15.1,4-21.6c-1.4-1.9-3.3-3.5-5.1-4.9c-3.3-2.7-6.6-5.3-9.9-8l-23.9,8.2
				c-3.6,4.2-4.5,10.1-4.5,15.7c0,1.7,0.1,3.4,0.4,5C316.6,545.9,318.2,542,321,539z"/>
		</g>
		<g>
			<path fill="#B7544D" d="M330.7,490.5c-8.6-2.1-18.2,2.2-22.5,9.9c-2.8,5-3.3,11.1-2.7,16.8c0.3,2.6,0.7,5.1,1.9,7.5
				c2.6,5.3,8.3,8.4,14.1,9.4c8.5,1.4,17.6-1.7,23.3-8.1c5.7-6.5,7.4-16.2,4-24.1c-3.4-7.9-12-13.3-20.6-12.6"/>
		</g>
		<g>
			<path fill="#9B4241" d="M349.5,502.1c-2.9-6.6-9.3-11.4-16.4-12.4c-2.8,7.6,0.7,16.9,2.8,25.1c1.3,4.8,2.2,9.9,1.1,14.8
				c-0.2,1-0.5,2.1-0.9,3c3.5-1.4,6.7-3.6,9.3-6.5C351.2,519.7,352.9,509.9,349.5,502.1z"/>
		</g>
		<g opacity="0.16">
			<g>
				<path fill="#DFD6D7" d="M324.6,501.1c-0.9-0.9-2.6,0.2-2.8,1.5c-0.2,1.3,0.5,2.5,1.1,3.7c0.6,1.2,1,2.6,0.3,3.7
					c-0.5,0.8-1.4,1.2-1.8,2c-0.6,1.4,0.9,3,2.4,2.9c1.5-0.1,2.7-1.3,3.5-2.5c1.1-1.8,1.7-4.1,1.2-6.2s-2.1-4-4.1-4.5"/>
			</g>
		</g>
		<g opacity="0.16">
			<g>
				<path fill="#DFD6D7" d="M338.2,538.5c-0.9-0.8-2.2-1.2-3.4-0.9c-1.1,0.3-2,1.1-2.4,2.1c-1,2.5,1,5.1,3.6,5.2
					c2.4,0.1,4.8-2.1,4.1-4.6c-0.3-1.2-1.4-2.1-2.5-2.4c-0.5-0.1-1-0.2-1.6-0.1c-0.4,0-0.7,0.1-1.1,0.2c0.4-0.1-0.1,0-0.2,0
					c-1.3,0-2.6,1.2-2.5,2.5c0.1,1.4,1.1,2.5,2.5,2.5c0.5,0,1-0.1,1.4-0.1c0.1,0,0.5,0,0.2,0c-0.2,0-0.1,0,0.1,0
					c-0.1,0-0.2,0-0.4-0.1c0.3,0.1-0.1,0-0.2-0.1c-0.4-0.2-0.5-0.5-0.6-0.9c-0.2-0.7,0-1.5,0.7-1.7c-0.3,0.1,0,0,0.1,0
					c-0.3,0,0,0,0.1,0c0.5,0.1,0.7,0.5,0.8,1c0,0.2,0,0.2,0,0c-0.1,0.3-0.1,0.5-0.2,0.8c-0.1,0.2-0.3,0.4-0.5,0.5
					c-0.1,0-0.2,0.1-0.3,0.1c-0.4,0-0.5,0-0.3,0c0.2,0,0.1,0-0.4-0.1c-0.3,0-0.5-0.1-0.7-0.3c1,0.9,2.6,1,3.5,0
					C339,541.1,339.2,539.4,338.2,538.5L338.2,538.5z"/>
			</g>
		</g>
		<g>
			<g>
				<path fill="#685758" d="M316.4,506.1c-0.5,1.2-0.5,2.9,0.2,4c0.5,0.7,1.4,1,2.2,0.5c0.8-0.5,1-1.5,0.9-2.4
					c-0.1-0.8-0.3-1.7-0.9-2.2c-0.7-0.7-1.7-0.6-2.2,0.1c-0.7,0.9-0.6,2.8,0,3.7c0.7,1,2.3,0.6,2.3-0.6c0-1,0-1.9,0-2.9
					c0-1.6-2.5-1.6-2.5,0c0,1,0,1.9,0,2.9c0.8-0.2,1.6-0.4,2.3-0.6c-0.1-0.1-0.1-0.1,0,0c0-0.1-0.1-0.2-0.1-0.2c0-0.1,0-0.2-0.1-0.3
					c0,0.1,0,0.1,0-0.1c0-0.2,0-0.4,0-0.5c0,0.1,0,0.1,0,0c-0.1,0.2-0.3,0.4-0.6,0.5c-0.2,0-0.4,0-0.7,0c-0.4-0.4-0.6-0.5-0.4-0.2
					c0-0.1,0,0,0.1,0.2c0,0.1,0.1,0.3,0.1,0.4c0-0.1,0,0.5,0,0.4c0.3-0.4,0.8-0.4,1.5-0.1c0,0.1,0,0.1,0,0c0-0.3-0.1-0.5-0.1-0.8
					c0-0.2,0-0.3,0-0.5c0-0.1,0.1-0.3,0-0.1c0.3-0.6,0.2-1.3-0.4-1.7C317.6,505.4,316.7,505.5,316.4,506.1L316.4,506.1z"/>
			</g>
		</g>
	</g>
	<g>
		<g>
			<path fill="#B7544D" d="M326.8,452.4c-8.3-2.8-18.4,0.6-23.3,7.9c-3.2,4.8-4.3,10.7-4.2,16.5c0,2.6,0.3,5.2,1.2,7.6
				c2.1,5.5,7.5,9.2,13.2,10.6c8.3,2.1,17.7,0,23.9-6c6.2-5.9,8.9-15.5,6.2-23.6S333,451.1,324.4,451"/>
		</g>
		<g>
			<path fill="#9B4241" d="M343.8,465.3c-1.7-5.2-5.6-9.5-10.4-12.1c-4.2,0.8-8.7,1.4-12.3,3.4c-5.5,3.1-3.4,10.5-1.9,15.3
				c1.1,3.6,1.9,7.3,1.4,11.1c-0.5,3.5-2.4,6.5-3.7,9.7c-0.3,0.8-0.6,1.7-0.9,2.5c7.7,1.2,15.9-1.1,21.6-6.4
				C343.9,483,346.5,473.5,343.8,465.3z"/>
		</g>
	</g>
	<g>
		<path fill="#555747" d="M298.1,472.4c-5.5-0.3-11-0.6-16.5-1c-1-0.1-1.9-0.1-2.8-0.5c-1.1-0.4-1.9-1.2-2.8-2
			c-10-8.4-24.5-8.6-37.4-6.6c-11.6,1.8-23,4.9-34.4,8c-6.6,1.8-13.2,3.6-19.8,5.4c-5.7,1.6-11.4,3.1-16.8,5.5
			c-6.4,2.9-12.2,6.9-17.5,11.4c-8.1,7-14.9,15.4-20.6,24.5c4.6-1.5,6.6-6.9,10.3-10c3.1-2.6,7.2-3.5,11.1-4.3
			c35-7.4,69.9-14.7,104.9-22.1c13.5-2.8,27.1-5.7,40.9-5.9c0.7,0,1.5,0,2.1-0.4c0.6-0.4,0.9-1.4,0.4-1.9c-0.5-0.5-1.6,0.2-1.2,0.8"
			/>
	</g>
	<g>
		<path fill="#606351" d="M299.1,472.6c-0.3-0.3-0.7-0.2-1,0l0.1-0.2c-5.5-0.3-11-0.6-16.5-1c-1-0.1-1.9-0.1-2.8-0.5
			c-1.1-0.4-1.9-1.2-2.8-2c-10-8.4-24.5-8.6-37.4-6.6c-11.6,1.8-23,4.9-34.4,8c-6.6,1.8-13.2,3.6-19.8,5.4
			c-5.7,1.6-11.4,3.1-16.8,5.5c-6.4,2.9-12.2,6.9-17.5,11.4c-8.1,7-14.9,15.4-20.6,24.5c0.4-0.1,0.7-0.3,1-0.4
			c2.7-4,6.3-7.4,8.9-11.6c3.6-5.6,7.9-9.6,13.4-13.2c12.1-8,24.7-13.3,38.7-17.1c14.5-3.9,29.4-7.7,44.1-10.5
			c6.8-1.3,14-2.3,20.8-0.4c6.1,1.7,11.2,5.8,17.1,8.1c1.9,0.7,3.2,2.8,3.1,4.7c6.6-1,13.3-1.8,20-1.9c0.7,0,1.5,0,2.1-0.4
			C299.3,474,299.6,473.1,299.1,472.6z"/>
	</g>
	<g>
		<g>
			<path fill="#7C7F5A" d="M413.4,536.3c-4.8,6.3-9.7,12.8-12.4,20.3c-1.5,4.3-2.3,8.8-4.2,13c-2.4,5.3-6.6,9.7-9.1,14.9
				c-2.6,5.3-3.1,12.3,1.1,16.3c2.1-10,5.2-19.8,9.2-29.1c2.1-4.8,4.4-9.6,6-14.6c2.5-7.8,3.6-16.7,9.7-22.2"/>
		</g>
		<g>
			<g>
				<path fill="#7C7F5A" d="M412.4,535.6c-4.5,5.9-9,11.8-11.8,18.7c-2.7,6.6-3.6,13.3-7.6,19.4c-5.2,8.1-13.3,18.9-5.1,27.9
					c0.6,0.7,1.9,0.4,2.1-0.6c2.7-12.6,7.2-24.2,12.3-36c4.1-9.4,4.8-21.9,12.3-29.3c1.1-1.1-0.6-2.9-1.8-1.8
					c-7.7,7.6-8.4,19.6-12.5,29.2c-5.2,12.3-10,24.2-12.8,37.3c0.7-0.2,1.4-0.4,2.1-0.6c-8.9-9.8,5-22,8.7-30.8
					c2.4-5.7,3.3-11.8,6.2-17.3c2.8-5.3,6.4-10.1,10-14.9C415.5,535.6,413.3,534.4,412.4,535.6L412.4,535.6z"/>
			</g>
		</g>
	</g>
	<g>
		<g>
			<path fill="#7C7F5A" d="M428.8,585c2-11.1,4.2-22.6,10.6-31.8c5.8-8.3,14.4-13.9,22.2-20.3c11-9.1,20.8-19.9,33.1-27.1
				c8.5-5,18-8.2,27.6-11c17.8-5.3,36-9.7,54.4-12.5c11.2-1.6,22.7-2.7,33.7,0.1c18.4,4.6,33.6,20.4,37.4,39
				c-4.9-2.4-10.1-4.3-15.4-5.7c-22.9-6.3-47.6-5.4-70.5,1c-22.9,6.4-44.2,18.1-63,32.6c-7.8,6-15.3,12.6-23.4,18.3
				c-12.3,8.7-26,15.5-40.3,20.1"/>
		</g>
		<g>
			<path fill="#62634C" d="M633.3,511.6c-8-4.7-16.2-8.8-25.4-10.3c-9.6-1.5-19.9-0.9-29.5,0.1c-9.9,1-19.6,2.9-29.1,5.7
				c-9.5,2.8-18.8,6.5-27.7,10.9c-8.1,4-16.6,7-24.4,11.5c-8.7,5.1-15.9,12.6-23.1,19.5c-6.9,6.5-13.8,12.8-21.4,18.5
				c-7.7,5.9-16.1,11.6-23.7,18.1l5.7,2.4c14.4-4.5,28-11.3,40.3-20.1c8.1-5.7,15.5-12.3,23.4-18.3c18.9-14.5,40.1-26.2,63-32.6
				c22.9-6.4,47.6-7.4,70.5-1c5.3,1.5,10.5,3.3,15.4,5.7c-0.2-0.7-0.3-1.5-0.5-2.2C642.4,516.7,637.7,514.2,633.3,511.6z"/>
		</g>
	</g>
	<g>
		<path fill="#A74845" d="M495.8,604.9c8.8-10.8,13.2-17.3,39-8.1c-1.3-3.9-4.4-7-7.7-9.5c-6.1-4.6-14-7.7-21.5-6.1
			c-7.5,1.6-14,9-12.7,16.6C493.3,600.4,494.5,602.7,495.8,604.9z"/>
	</g>
	<g>
		<path fill="#9D4746" d="M536.3,619.2c-8.4-1.1-18.2-1.9-24.2,4.2c-3.8,3.9-5.1,9.7-4.9,15.2c0,2.3,0.3,4.6,1.2,6.6
			c2.2,4.9,7.7,7.4,12.9,8.8c4.5,1.2,9.2,2,13.7,1.2s9-3.3,11.3-7.3c2.9-5.2,1.8-11.6,0.6-17.4c-0.7-3.6-1.6-7.4-4.5-9.7
			c-2.8-2.2-6.7-2.3-10.2-2.2"/>
	</g>
	<g opacity="0.16">
		<g>
			<path fill="#DFD6D7" d="M531.3,632.8c-1.9-1.5-4.5-0.4-5.6,1.6c-1,1.7-1.6,4.1-1,6c0.7,2.2,2.9,3.7,5.2,3.1c2-0.5,3-2.5,3.5-4.3
				c0.9-3.3,3-10.3-2.7-10.4c-1.9,0-3.7,1.1-4.5,2.7c-1.2,2.3-0.2,4.9,0.9,7.1c1.4,2.9,5.7,0.4,4.3-2.5c-0.3-0.7-0.4-1.5-0.7-2.2
				c-0.1-0.2,0.1-0.3,0.1-0.2c-1.3-2.4-1.7,1.7-1.8,2.3c-0.1,0.5-0.8,2.3-0.6,2.7c0.9,0.5,1.2,0.5,1.1,0c0-0.1,0.1-0.3,0.1-0.4
				c0.1-0.4,0.2-0.7,0.3-1.1c0.3-0.6-0.1-0.6-1.1,0c1.1,0.8,2.8,0.2,3.4-0.9C533,634.9,532.4,633.6,531.3,632.8L531.3,632.8z"/>
		</g>
	</g>
	<g>
		<g>
			<path fill="#7C7F5A" d="M429.5,616.4c4,6.1,5.2,14,3.2,21c-0.2,0.7-0.4,1.3-0.3,2c0.1,0.7,0.6,1.3,1.3,1.3c0.9,0,1.3-1.1,1.5-2
				c0.7-3.2,1.2-6.5,1.4-9.9c0.2-2.8,0.1-5.6-1-8.1c-1.4-3.1-4.4-5.1-7.2-7"/>
		</g>
		<g>
			<g>
				<path fill="#7C7F5A" d="M427.4,617.6c2.3,3.7,3.7,7.7,3.8,12c0.1,3-1.2,5.8-1.2,8.7c-0.1,3.5,3.5,6.6,6.5,3.5
					c3.1-3.3,3.1-13.1,2.7-17.2c-0.6-6.2-4.5-9.8-9.4-13.2c-2.7-1.8-5.2,2.5-2.5,4.3c4.4,3,7,5.8,7,11.3c0,2.2,0.1,10.5-1.7,11.3
					c0.8,0,1.7,0,2.5,0c0.7,0.3,1-11.2,0.9-12c-0.6-4.1-2-7.9-4.2-11.4C430,612.4,425.7,614.9,427.4,617.6L427.4,617.6z"/>
			</g>
		</g>
	</g>
	<g>
		<g>
			<path fill="#7C7F5A" d="M461.7,626.8c-8.8,10.4-15.2,22.9-18.5,36.2c6.1-12.5,12.2-25.1,18.3-37.6"/>
		</g>
		<g>
			<g>
				<path fill="#7C7F5A" d="M460,625.1c-9.1,11-15.6,23.5-19.2,37.3c-0.7,2.6,3.3,4.6,4.6,1.9c6.1-12.5,12.2-25.1,18.3-37.6
					c1.4-2.9-2.9-5.4-4.3-2.5c-6.1,12.5-12.2,25.1-18.3,37.6c1.5,0.6,3,1.3,4.6,1.9c3.4-12.9,9.4-24.8,17.9-35.1
					C465.5,626.1,462,622.6,460,625.1L460,625.1z"/>
			</g>
		</g>
	</g>
	<g>
		<g>
			<path fill="#B7544D" d="M443.6,579.7c-3.9-3.2-8.9-5-13.9-5.1c-2.7,0-5.4,0.4-7.8,1.6c-3.9,1.9-6.8,5.4-8.7,9.3
				c-1.9,3.9-2.9,8.2-3.8,12.4c-0.4,1.8-0.8,3.7-0.4,5.5c0.3,1.4,1,2.6,1.7,3.8c3.2,5.2,7.3,10.2,13.1,12.2
				c6.8,2.3,14.6-0.3,19.8-5.3c5.3-5,8.2-12.4,7.9-19.7c-0.4-7.6-5.1-15.6-12.6-16.9"/>
		</g>
		<g>
			<path fill="#9B3D3D" d="M451.6,594.4c-0.3-6.3-3.6-12.8-9-15.7c-2.9-2.1-6.4-3.5-10-4c2.8,3.3,4.5,7.7,4.9,12
				c0.8,7.7-2.5,12.8-8,17.5c-4.1,3.5-9.1,7.3-14.5,8.8c2.5,2.8,5.4,5.2,8.9,6.4c6.8,2.3,14.6-0.3,19.8-5.3
				C449,609.1,452,601.7,451.6,594.4z"/>
		</g>
		<g>
			<g>
				<path fill="#5C4B4B" d="M431.2,596.9c1.1-0.7,1.7-2.3,1-3.5c-0.4-0.7-1.2-1-1.9-0.8c-0.7,0.2-1.2,0.7-1.5,1.4
					c-0.5,1.3,0.2,3.4,1.9,3c1.2-0.3,1.9-2,1.5-3.1c-0.2-0.5-0.5-0.8-1-0.9c-0.5-0.1-1,0.1-1.2,0.6c-0.3,0.6-0.6,1.2-0.9,1.8
					c-0.3,0.6-0.2,1.4,0.4,1.7c0.5,0.3,1.4,0.2,1.7-0.4c0.3-0.6,0.6-1.2,0.9-1.8c-0.8-0.1-1.5-0.2-2.3-0.3c0.1,0.2,0,0,0,0
					c0,0,0,0.2,0,0c0,0.1,0,0.2-0.1,0.2c0-0.1,0,0,0,0c0.1,0,0.1-0.1,0.2-0.1c0.4,0.1,0.8,0.2,1.2,0.3c0,0,0,0.1,0,0.1
					c0,0,0-0.2,0,0c0-0.1,0-0.2,0,0c0,0,0.1-0.1,0-0.1c-0.2,0.1-0.2,0.2-0.5,0.2c-0.3,0-0.5-0.2-0.7-0.4c0,0,0-0.1,0-0.1
					c0-0.1,0-0.1,0,0c0,0,0,0,0,0c0,0-0.1,0.2,0,0.2c0-0.1-0.1,0.1-0.1,0.1c0,0.1,0,0,0.1-0.1c-0.6,0.4-0.8,1.1-0.4,1.7
					C429.8,597,430.6,597.3,431.2,596.9L431.2,596.9z"/>
			</g>
		</g>
	</g>
	<g>
		<g>
			<path fill="#B7544D" d="M484.9,595.9c-7.6-0.6-15.7-1.1-22.5,2.1c-7.1,3.3-11.6,10.4-11.8,17.6c-0.2,7.2,3.8,14.3,10.1,18.7
				c2.1,1.5,4.4,2.7,6.9,3.4c6.8,1.8,14.4-0.5,19.5-4.9c5.1-4.4,8-10.6,9.2-16.9c0.9-4.5,0.9-9.3-1.4-13.3c-2.3-4-7.6-6.9-12.4-5.7"
				/>
		</g>
		<g>
			<path fill="#A74845" d="M485.2,610.8c-11.5,11.2-23.7,1.4-31.3-5.3c-2,3.1-3.2,6.6-3.3,10.2c-0.2,7.2,3.8,14.3,10.1,18.7
				c2.1,1.5,4.4,2.7,6.9,3.4c6.8,1.8,14.4-0.5,19.5-4.9c5.1-4.4,8-10.6,9.2-16.9c0.6-3.2,0.8-6.6,0-9.7
				C492.9,608.3,488.2,607.9,485.2,610.8z"/>
		</g>
		<g opacity="0.16">
			<g>
				<path fill="#DFD6D7" d="M484.7,610.4c1-0.5,1-2,0.4-2.8s-1.7-1.3-2.7-1.7c-2-0.8-4.1-1.4-6.3-1.9c-2.6-0.6-5.3-1-7.9-0.5
					c-2.6,0.5-5.1,2-6.3,4.3c-0.5,1.1-0.7,2.5,0,3.5c0.5,0.5,1.1,0.8,1.7,1.2c0.9,0.5,1.6,1.3,2.5,1.9c4.1,2.9,9.6,2.2,14.5,1.3
					c1.4-0.3,3-0.6,3.8-1.8c1-1.4,0.5-3.2,0.1-4.8"/>
			</g>
		</g>
		<g>
			<g>
				<path fill="#5C4B4B" d="M475.5,607.9c-1.6-0.2-3.8,0.1-5,1.3c-0.7,0.6-0.8,1.7-0.1,2.3c0.8,0.7,2,0.6,2.9,0.4
					c0.9-0.2,1.9-0.6,2.6-1.3c0.7-0.7,0.5-1.9-0.4-2.3c-1.2-0.6-3.5,0-4.5,0.7c-1.1,0.8-0.5,2.5,1,2.3c1.4-0.2,2.7-0.5,4.1-0.7
					c1.6-0.3,0.9-2.7-0.7-2.4c-1.4,0.2-2.7,0.5-4.1,0.7c0.3,0.8,0.6,1.5,1,2.3c0.4-0.3,0.8-0.4,1.2-0.5c0.2,0,0.4-0.1,0.6-0.1
					c0.8-0.1,0.1,0.2-0.2-0.7c0-0.2,0-0.4,0-0.7c0.1-0.4,0.3-0.2-0.1-0.1c-0.3,0.1-0.5,0.2-0.8,0.3c-0.3,0.1-0.5,0.1-0.8,0.2
					c-0.6,0-0.4-0.2-0.1,0.3c0.1,0.2,0.1,0.4,0.2,0.6c-0.1,0.2-0.2,0.4-0.3,0.6c0,0,0.1-0.1,0.1-0.1c0.1,0,0.1-0.1,0.2-0.1
					c0.3-0.1,0.6-0.2,0.9-0.3c0.4-0.1,1.1-0.2,1.4-0.2c0.7,0.1,1.3-0.2,1.5-0.9C476.5,608.9,476.2,608,475.5,607.9L475.5,607.9z"/>
			</g>
		</g>
	</g>
	<g>
		<path fill="#899073" d="M416.5,669.1c-6.2-0.7-12.2,2.1-17.5,5.2c-5.7,3.4-11.1,7.4-15.5,12.4c-10,11.5-13.4,27.6-12.2,42.8
			c1.2,15.2,6.6,29.7,12.5,43.8c2.5,5.9,5.1,11.9,9.2,16.9c3.9,4.8,9,8.6,14.1,12.2c6.2,4.5,12.5,8.9,18.7,13.3
			c0.6-7.4-3.5-14.2-6.2-21.1c-6.4-16.3-5.1-35.4,3.4-50.7c7-12.6,18.8-23.6,19-38c0.1-8.1-3.7-15.9-9-22.1s-12-11-18.6-15.7"/>
	</g>
	<g>
		<g>
			<path fill="#808566" d="M431.1,676.3c-4,0.3-6.5,4.2-8.2,7.8c-1.1,2.4-2.2,5-2,7.7c0.4,5.9,6.1,9.8,11.1,12.8
				c13.9,8.1,28.1,16.3,43.6,20.8c7.4,2.1,15.1,3.3,22.7,4.4c9.7,1.4,19.5,2.6,29.3,3.6c6.3,0.6,12.6,1.2,18.5,3.2
				c6.8,2.3,12.8,6.3,18.7,10.2c5.7,3.8,11.6,7.8,15.5,13.5c3.8-7.2,6.8-14.7,9.1-22.5c2.2-7.4,3.7-15.2,3-22.9s-3.7-15.4-9.5-20.6
				c-3.8-3.4-8.5-5.5-13.2-7.5c-36.8-15.2-77.3-21.4-117-18.1c-8.8,0.8-18.1,2.2-25.1,7.6"/>
		</g>
		<g>
			<path fill="#6E6F53" d="M584,749.8c-0.5-3.7-2.5-7.1-4.9-9.9c-4.8-5.4-11.4-8.8-17.5-12.5c-6.9-4.2-13.8-8.3-20.9-12
				c-14.7-7.7-30.2-12.7-46.2-17c-14.7-4-29.6-7-44.6-9.7c-7.2-1.3-15.1-2.9-21.5-6.7c-1.2,1.4-2.1,3.1-2.9,4.8
				c-1.1,2.4-2.2,5-2,7.7c0.4,5.9,6.1,9.8,11.1,12.8c13.9,8.1,28.1,16.3,43.6,20.8c7.4,2.1,15.1,3.3,22.7,4.4
				c9.7,1.4,19.5,2.6,29.3,3.6c6.3,0.6,12.6,1.2,18.5,3.2c6.8,2.3,12.8,6.3,18.7,10.2c5,3.3,10,6.7,13.8,11.3
				C582.4,756.9,584.6,753.9,584,749.8z"/>
		</g>
	</g>
	<g>
		<path fill="#7D7E62" d="M403.6,696c-4,14.8-9.6,29.9-8.3,45.5c0.6,7.4,3.4,14.4,5.4,21.5c2,6.9,3.9,13.9,6.4,20.6
			c2.4,6.3,5.3,12.8,9.6,18c2.6,3.2,5.9,5.9,9.1,8.6c-0.8-5.8-3.9-11.2-6-16.8c-6.4-16.3-5.1-35.4,3.4-50.7c7-12.6,18.8-23.6,19-38
			c0.1-8.1-3.7-15.9-9-22.1c-4.9-5.7-11-10.3-17.2-14.7C409.3,675.6,406.2,686.5,403.6,696z"/>
	</g>
</g>
</svg>
