<?xml version="1.0" encoding="utf-8"?>
<!-- Generator: Adobe Illustrator 18.0.0, SVG Export Plug-In . SVG Version: 6.00 Build 0)  -->
<!DOCTYPE svg PUBLIC "-//W3C//DTD SVG 1.1//EN" "http://www.w3.org/Graphics/SVG/1.1/DTD/svg11.dtd" [
	<!ENTITY ns_flows "http://ns.adobe.com/Flows/1.0/">
	<!ENTITY ns_extend "http://ns.adobe.com/Extensibility/1.0/">
	<!ENTITY ns_ai "http://ns.adobe.com/AdobeIllustrator/10.0/">
	<!ENTITY ns_graphs "http://ns.adobe.com/Graphs/1.0/">
]>
<svg version="1.1" id="Capa_1" xmlns:x="&ns_extend;" xmlns:i="&ns_ai;" xmlns:graph="&ns_graphs;"
	 xmlns="http://www.w3.org/2000/svg" xmlns:xlink="http://www.w3.org/1999/xlink" xmlns:a="http://ns.adobe.com/AdobeSVGViewerExtensions/3.0/"
	 x="0px" y="0px" viewBox="0 0 750 1334" enable-background="new 0 0 750 1334" xml:space="preserve">
<g>
	<path fill="#FFFFFF" d="M381.1,1174.6l5.6,42.4l-17.4,0l-3.3-25.3l-17.6,0l-3.4,25.3l-17.3,0l5.6-42.2l12.2-77.2l23.6,0
		L381.1,1174.6z M363.7,1174.6l-6.6-49.7l-6.6,49.7L363.7,1174.6z"/>
	<path fill="#FFFFFF" d="M397.1,1097.5l26.5,0c15.3,0,22.9,8.4,22.9,25.1l0,69.2c0,16.7-8,25-24.1,25.1l-25.4,0L397.1,1097.5z
		 M414.3,1114.5l0,85.5l7.5,0c5,0,7.5-2.7,7.5-8.1l0-69.2c0-5.4-2.5-8.2-7.5-8.2L414.3,1114.5z"/>
	<path fill="#FFFFFF" d="M461.2,1097.5l44.7,0l0,17l-27.5,0l0,34.2l23.6,0l0,17l-23.6,0l0,34.2l27.5,0l0,17l-44.7,0L461.2,1097.5z"
		/>
	<path fill="#FFFFFF" d="M518.7,1097.6l25.1,0c15.3,0,22.9,8.4,22.9,25.1l0,18c0,10.5-4.5,17.4-13.6,20.8l19.3,55.6l-18.9,0
		l-15.5-52.5l-2.2,0.3l0,52.2l-17.2,0L518.7,1097.6z M535.9,1114.5l0,34.2l4,0c2.4,0,4-0.2,4.9-0.5c3.1-1.3,4.7-3.8,4.7-7.6l0-18
		c0-5.4-2.5-8.2-7.5-8.2L535.9,1114.5z"/>
	<path fill="#FFFFFF" d="M582.2,1097.6l17.2,0l16.3,69.3l0-69.3l15.9,0l-0.1,119.4l-17.2,0l-15.7-67.1l0,67.1l-16.6,0L582.2,1097.6z
		"/>
	<path fill="#FFFFFF" d="M695.8,1193.9c0,16.7-8.3,25.1-24.8,25.1c-16.5,0-24.7-8.4-24.7-25.1l0-73c0-16.7,8.2-25.1,24.7-25.1
		c16.5,0,24.8,8.4,24.8,25.1L695.8,1193.9z M678.6,1120.8c0-5.4-2.5-8.1-7.5-8.1H671c-5,0-7.4,2.7-7.4,8.1l0,73
		c0,5.4,2.5,8.1,7.5,8.1c5,0,7.5-2.7,7.6-8.1L678.6,1120.8z"/>
</g>
<g>
	<path fill="#B42A2A" d="M319,1276.6c0,0.1-0.1,0.2-0.2,0.3s-0.2,0.2-0.4,0.2s-0.4,0.1-0.7,0.1s-0.6,0.1-1,0.1c-0.4,0-0.7,0-1-0.1
		s-0.4-0.1-0.6-0.1s-0.2-0.1-0.3-0.2s-0.1-0.2,0-0.3l5.8-29.2c0-0.1,0.1-0.2,0.2-0.3s0.2-0.2,0.4-0.2s0.4-0.1,0.6-0.1
		s0.6-0.1,0.9-0.1s0.7,0,0.9,0.1s0.4,0.1,0.6,0.1s0.2,0.1,0.3,0.2s0.1,0.2,0,0.3L319,1276.6z"/>
	<path fill="#B42A2A" d="M345.5,1274.5c0,0.1,0,0.2,0,0.4s-0.1,0.4-0.1,0.6s-0.1,0.4-0.1,0.6s-0.1,0.4-0.2,0.6s-0.2,0.3-0.3,0.4
		s-0.3,0.2-0.4,0.2h-13.4c-0.2,0-0.4,0-0.5-0.1s-0.3-0.1-0.4-0.3s-0.2-0.3-0.3-0.5s0-0.5,0-0.8l5.6-28.1c0-0.1,0.1-0.2,0.2-0.3
		s0.2-0.2,0.4-0.2s0.4-0.1,0.7-0.1s0.6-0.1,1-0.1s0.7,0,0.9,0.1s0.5,0.1,0.6,0.1s0.2,0.1,0.3,0.2s0.1,0.2,0,0.3l-5.2,26.2H345
		c0.2,0,0.3,0.1,0.4,0.2S345.5,1274.2,345.5,1274.5z"/>
	<path fill="#B42A2A" d="M374.4,1247.6c0,0.1,0,0.2,0,0.4s0,0.3-0.1,0.5s-0.1,0.4-0.1,0.6s-0.1,0.4-0.2,0.6s-0.2,0.3-0.3,0.4
		s-0.3,0.2-0.4,0.2h-11.8l-1.9,9.5h10.2c0.2,0,0.3,0.1,0.4,0.2s0.1,0.3,0.1,0.6c0,0.1,0,0.2,0,0.4s-0.1,0.3-0.1,0.5
		s-0.1,0.4-0.1,0.6s-0.1,0.4-0.2,0.5s-0.2,0.3-0.3,0.4s-0.3,0.2-0.4,0.2h-10.2l-2.2,10.9h12.1c0.2,0,0.3,0.1,0.4,0.2
		s0.2,0.3,0.2,0.6c0,0.1,0,0.2,0,0.4s0,0.4-0.1,0.5s-0.1,0.4-0.1,0.6s-0.1,0.4-0.2,0.5s-0.2,0.3-0.3,0.4s-0.3,0.1-0.4,0.1h-14.6
		c-0.2,0-0.3,0-0.5-0.1s-0.3-0.1-0.4-0.3s-0.2-0.3-0.2-0.5s0-0.5,0-0.8l5.4-27c0.1-0.6,0.4-1,0.7-1.3s0.7-0.4,1.1-0.4h14.4
		C374.2,1246.8,374.4,1247.1,374.4,1247.6z"/>
	<path fill="#B42A2A" d="M391.9,1261.7l5.7,14c0.1,0.3,0.2,0.6,0.2,0.8s-0.1,0.4-0.2,0.5s-0.4,0.2-0.7,0.2s-0.8,0.1-1.3,0.1
		c-0.5,0-0.8,0-1.1,0s-0.5-0.1-0.6-0.1s-0.3-0.1-0.3-0.2s-0.1-0.2-0.2-0.3l-4.6-12.2l-9.2,12.2c-0.1,0.1-0.2,0.3-0.3,0.4
		s-0.3,0.2-0.5,0.2s-0.4,0.1-0.7,0.1s-0.7,0-1.1,0c-0.5,0-0.9,0-1.3-0.1s-0.5-0.1-0.7-0.2s-0.1-0.3-0.1-0.5s0.2-0.5,0.5-0.8
		l11.2-14.2l-5.2-13.3c-0.1-0.3-0.2-0.6-0.2-0.8s0.1-0.4,0.2-0.5s0.4-0.2,0.7-0.2s0.8-0.1,1.3-0.1c0.4,0,0.8,0,1,0s0.5,0.1,0.6,0.2
		s0.3,0.2,0.3,0.3s0.1,0.3,0.2,0.5l4.1,11.1l8.6-11.3c0.1-0.1,0.2-0.2,0.3-0.3s0.3-0.2,0.4-0.2s0.4-0.1,0.7-0.1s0.6,0,1.1,0
		c0.5,0,0.9,0,1.3,0.1s0.5,0.1,0.7,0.2s0.1,0.3,0.1,0.5s-0.2,0.5-0.5,0.8L391.9,1261.7z"/>
	<path fill="#B42A2A" d="M443.3,1249.9c0,0.3-0.1,0.7-0.2,1.2s-0.3,0.9-0.4,1.1s-0.4,0.4-0.6,0.4c-0.2,0-0.5-0.1-0.8-0.4
		s-0.7-0.6-1.2-0.9s-1.1-0.6-1.9-0.9s-1.8-0.4-3-0.4c-1.3,0-2.5,0.2-3.6,0.7s-2.1,1.2-2.9,2s-1.6,1.8-2.3,2.9s-1.2,2.2-1.6,3.4
		s-0.8,2.4-1,3.6s-0.3,2.4-0.3,3.5c0,1.2,0.2,2.4,0.5,3.3s0.8,1.8,1.4,2.5s1.3,1.2,2.2,1.5s1.8,0.5,2.9,0.5c1.2,0,2.3-0.1,3.2-0.4
		s1.6-0.6,2.3-0.9s1.2-0.6,1.6-0.9s0.8-0.4,1-0.4c0.2,0,0.3,0.1,0.4,0.2s0.1,0.3,0.1,0.6c0,0.1,0,0.2,0,0.3s-0.1,0.3-0.1,0.5
		s-0.1,0.4-0.1,0.6s-0.1,0.4-0.2,0.6s-0.1,0.3-0.2,0.5s-0.2,0.3-0.4,0.5s-0.5,0.4-1,0.7s-1.2,0.6-1.9,0.9s-1.6,0.5-2.6,0.7
		s-1.9,0.3-3,0.3c-1.6,0-3-0.2-4.3-0.7s-2.4-1.2-3.3-2.1s-1.6-2.1-2.1-3.5s-0.7-3-0.7-4.8c0-1.5,0.2-3,0.5-4.6s0.8-3.1,1.4-4.6
		s1.4-2.9,2.3-4.2s2-2.5,3.2-3.5s2.6-1.8,4.1-2.3s3.2-0.9,5-0.9c1.1,0,2.2,0.1,3.2,0.4s1.8,0.6,2.5,1s1.2,0.7,1.5,1
		S443.3,1249.5,443.3,1249.9z"/>
	<path fill="#B42A2A" d="M468.8,1275.7c0,0.3,0.1,0.6,0,0.8s-0.1,0.4-0.3,0.5s-0.4,0.2-0.7,0.2s-0.7,0-1.3,0c-0.3,0-0.6,0-0.9,0
		s-0.4-0.1-0.6-0.1s-0.2-0.1-0.3-0.2s-0.1-0.2-0.1-0.4l-1.1-7.4H451l-4,7.3c-0.1,0.2-0.2,0.3-0.3,0.4s-0.2,0.2-0.4,0.2
		s-0.4,0.1-0.7,0.1s-0.6,0-1.1,0c-0.5,0-0.8,0-1.1-0.1s-0.5-0.1-0.6-0.2s-0.1-0.3-0.1-0.5s0.2-0.5,0.3-0.8l15.8-28.2
		c0.1-0.2,0.2-0.3,0.4-0.4s0.3-0.2,0.5-0.3s0.5-0.1,0.8-0.1s0.7,0,1.1,0c0.5,0,0.9,0,1.3,0s0.6,0.1,0.8,0.1s0.3,0.2,0.4,0.3
		s0.1,0.3,0.2,0.4L468.8,1275.7z M460.9,1250.9L460.9,1250.9l-8.2,15.1h10.5L460.9,1250.9z"/>
	<path fill="#B42A2A" d="M499.2,1275.5c0,0.3-0.1,0.6-0.3,0.8s-0.3,0.4-0.5,0.5s-0.4,0.2-0.6,0.3s-0.4,0.1-0.6,0.1h-1.5
		c-0.4,0-0.8,0-1-0.1s-0.5-0.3-0.7-0.5s-0.4-0.5-0.6-0.9s-0.3-0.8-0.5-1.4l-5.7-16.2c-0.4-1.2-0.8-2.3-1.2-3.5s-0.8-2.3-1.1-3.5h0
		c-0.2,1.3-0.4,2.6-0.7,3.8s-0.5,2.5-0.7,3.8l-3.5,17.7c0,0.1-0.1,0.2-0.2,0.3s-0.2,0.2-0.4,0.2s-0.4,0.1-0.6,0.1s-0.6,0.1-0.9,0.1
		s-0.7,0-0.9-0.1s-0.4-0.1-0.6-0.1s-0.2-0.1-0.2-0.2s0-0.2,0-0.3l5.6-28c0.1-0.6,0.4-1.1,0.8-1.3s0.8-0.4,1.2-0.4h1.9
		c0.4,0,0.7,0,1,0.1s0.5,0.2,0.7,0.4s0.4,0.5,0.5,0.8s0.3,0.7,0.5,1.2l5.7,16.4c0.4,1,0.7,2,1.1,3s0.7,2,1,3.1h0
		c0.2-1.3,0.5-2.6,0.7-4s0.5-2.7,0.8-4l3.3-16.4c0-0.1,0.1-0.2,0.2-0.3s0.2-0.2,0.4-0.2s0.4-0.1,0.6-0.1s0.6,0,0.9,0
		c0.4,0,0.7,0,0.9,0s0.4,0.1,0.6,0.1s0.2,0.1,0.3,0.2s0.1,0.2,0,0.3L499.2,1275.5z"/>
	<path fill="#B42A2A" d="M532.3,1275.7c0,0.3,0.1,0.6,0,0.8s-0.1,0.4-0.3,0.5s-0.4,0.2-0.7,0.2s-0.7,0-1.3,0c-0.3,0-0.6,0-0.9,0
		s-0.4-0.1-0.6-0.1s-0.2-0.1-0.3-0.2s-0.1-0.2-0.1-0.4l-1.1-7.4h-12.6l-4,7.3c-0.1,0.2-0.2,0.3-0.3,0.4s-0.2,0.2-0.4,0.2
		s-0.4,0.1-0.7,0.1s-0.6,0-1.1,0c-0.5,0-0.8,0-1.1-0.1s-0.5-0.1-0.6-0.2s-0.1-0.3-0.1-0.5s0.2-0.5,0.3-0.8l15.8-28.2
		c0.1-0.2,0.2-0.3,0.4-0.4s0.3-0.2,0.5-0.3s0.5-0.1,0.8-0.1s0.7,0,1.1,0c0.5,0,0.9,0,1.3,0s0.6,0.1,0.8,0.1s0.3,0.2,0.4,0.3
		s0.1,0.3,0.2,0.4L532.3,1275.7z M524.4,1250.9L524.4,1250.9l-8.2,15.1h10.5L524.4,1250.9z"/>
	<path fill="#B42A2A" d="M562.5,1253.2c0,1.1-0.2,2.1-0.5,3.1s-0.8,1.9-1.4,2.7s-1.4,1.5-2.3,2.2s-2,1.1-3.2,1.5
		c0.8,0.3,1.5,0.9,2,1.9s0.9,2.2,1.2,3.8l1.2,6.7c0,0.3,0.1,0.6,0.1,0.8s0.1,0.5,0.1,0.7c0,0.1,0,0.3-0.1,0.4s-0.2,0.2-0.4,0.2
		s-0.4,0.1-0.7,0.1s-0.7,0-1.1,0c-0.4,0-0.7,0-1,0s-0.4-0.1-0.6-0.2s-0.2-0.2-0.3-0.3s-0.1-0.3-0.1-0.5l-1.2-7.1
		c-0.1-0.8-0.3-1.6-0.5-2.2s-0.5-1.3-0.9-1.7s-0.9-0.9-1.6-1.1s-1.4-0.4-2.3-0.4h-2.7l-2.6,12.9c0,0.1-0.1,0.2-0.2,0.3
		s-0.2,0.2-0.4,0.2s-0.4,0.1-0.7,0.1s-0.6,0.1-1,0.1c-0.4,0-0.7,0-0.9,0s-0.5-0.1-0.6-0.1s-0.2-0.1-0.3-0.2s-0.1-0.2,0-0.3l5.6-28.1
		c0.1-0.6,0.4-1,0.8-1.3s0.8-0.4,1.2-0.4h6.6c1.4,0,2.7,0.1,3.8,0.4s2,0.7,2.7,1.2s1.3,1.2,1.7,2S562.5,1252.2,562.5,1253.2z
		 M558.2,1253.8c0-0.5-0.1-1-0.3-1.5s-0.5-0.8-0.9-1.2s-0.9-0.6-1.6-0.8s-1.4-0.3-2.3-0.3h-4.2l-2.1,10.2h3.6c1.4,0,2.6-0.2,3.6-0.6
		s1.8-0.9,2.4-1.5s1.1-1.3,1.4-2.1S558.2,1254.6,558.2,1253.8z"/>
	<path fill="#B42A2A" d="M572.1,1276.6c0,0.1-0.1,0.2-0.2,0.3s-0.2,0.2-0.4,0.2s-0.4,0.1-0.7,0.1s-0.6,0.1-1,0.1c-0.4,0-0.7,0-1-0.1
		s-0.4-0.1-0.6-0.1s-0.2-0.1-0.3-0.2s-0.1-0.2,0-0.3l5.8-29.2c0-0.1,0.1-0.2,0.2-0.3s0.2-0.2,0.4-0.2s0.4-0.1,0.6-0.1
		s0.6-0.1,0.9-0.1s0.7,0,0.9,0.1s0.4,0.1,0.6,0.1s0.2,0.1,0.3,0.2s0.1,0.2,0,0.3L572.1,1276.6z"/>
	<path fill="#B42A2A" d="M604.9,1247.6c0,0.1,0,0.2,0,0.4s0,0.3-0.1,0.5s-0.1,0.4-0.1,0.6s-0.1,0.4-0.2,0.6s-0.2,0.3-0.3,0.4
		s-0.3,0.2-0.4,0.2h-11.8l-1.9,9.5h10.2c0.2,0,0.3,0.1,0.4,0.2s0.1,0.3,0.1,0.6c0,0.1,0,0.2,0,0.4s-0.1,0.3-0.1,0.5
		s-0.1,0.4-0.1,0.6s-0.1,0.4-0.2,0.5s-0.2,0.3-0.3,0.4s-0.3,0.2-0.4,0.2h-10.2l-2.2,10.9h12.1c0.2,0,0.3,0.1,0.4,0.2
		s0.2,0.3,0.2,0.6c0,0.1,0,0.2,0,0.4s0,0.4-0.1,0.5s-0.1,0.4-0.1,0.6s-0.1,0.4-0.2,0.5s-0.2,0.3-0.3,0.4s-0.3,0.1-0.4,0.1h-14.6
		c-0.2,0-0.3,0-0.5-0.1s-0.3-0.1-0.4-0.3s-0.2-0.3-0.2-0.5s0-0.5,0-0.8l5.4-27c0.1-0.6,0.4-1,0.7-1.3s0.7-0.4,1.1-0.4h14.4
		C604.8,1246.8,604.9,1247.1,604.9,1247.6z"/>
	<path fill="#B42A2A" d="M631.5,1275.5c0,0.3-0.1,0.6-0.3,0.8s-0.3,0.4-0.5,0.5s-0.4,0.2-0.6,0.3s-0.4,0.1-0.6,0.1H628
		c-0.4,0-0.8,0-1-0.1s-0.5-0.3-0.7-0.5s-0.4-0.5-0.6-0.9s-0.3-0.8-0.5-1.4l-5.7-16.2c-0.4-1.2-0.8-2.3-1.2-3.5s-0.8-2.3-1.1-3.5h0
		c-0.2,1.3-0.4,2.6-0.7,3.8s-0.5,2.5-0.7,3.8l-3.5,17.7c0,0.1-0.1,0.2-0.2,0.3s-0.2,0.2-0.4,0.2s-0.4,0.1-0.6,0.1s-0.6,0.1-0.9,0.1
		s-0.7,0-0.9-0.1s-0.4-0.1-0.6-0.1s-0.2-0.1-0.2-0.2s0-0.2,0-0.3l5.6-28c0.1-0.6,0.4-1.1,0.8-1.3s0.8-0.4,1.2-0.4h1.9
		c0.4,0,0.7,0,1,0.1s0.5,0.2,0.7,0.4s0.4,0.5,0.5,0.8s0.3,0.7,0.5,1.2l5.7,16.4c0.4,1,0.7,2,1.1,3s0.7,2,1,3.1h0
		c0.2-1.3,0.5-2.6,0.7-4s0.5-2.7,0.8-4l3.3-16.4c0-0.1,0.1-0.2,0.2-0.3s0.2-0.2,0.4-0.2s0.4-0.1,0.6-0.1s0.6,0,0.9,0
		c0.4,0,0.7,0,0.9,0s0.4,0.1,0.6,0.1s0.2,0.1,0.3,0.2s0.1,0.2,0,0.3L631.5,1275.5z"/>
	<path fill="#B42A2A" d="M661.4,1249.1c0,0.1,0,0.3,0,0.4s0,0.3-0.1,0.5s-0.1,0.4-0.1,0.6s-0.1,0.4-0.2,0.5s-0.2,0.3-0.3,0.4
		s-0.2,0.1-0.3,0.1c-0.2,0-0.4-0.1-0.7-0.3s-0.7-0.4-1.2-0.6s-1-0.4-1.7-0.6s-1.4-0.3-2.3-0.3c-1,0-1.8,0.1-2.5,0.4
		s-1.3,0.7-1.8,1.2s-0.8,1.1-1.1,1.7s-0.4,1.3-0.4,1.9c0,0.7,0.2,1.3,0.5,1.8s0.7,1,1.2,1.4s1.1,0.8,1.7,1.2s1.3,0.8,1.9,1.1
		s1.3,0.8,1.9,1.3s1.2,1,1.7,1.5s0.9,1.3,1.2,2s0.5,1.6,0.5,2.6c0,1.3-0.3,2.6-0.8,3.7s-1.3,2.2-2.3,3s-2.2,1.6-3.6,2.1
		s-3,0.8-4.8,0.8c-1,0-1.8-0.1-2.7-0.2s-1.6-0.4-2.2-0.6s-1.2-0.5-1.7-0.8s-0.8-0.5-1-0.7s-0.3-0.5-0.3-0.9c0-0.1,0-0.2,0-0.4
		s0.1-0.4,0.1-0.6s0.1-0.4,0.2-0.6s0.1-0.4,0.2-0.5s0.2-0.3,0.3-0.4s0.2-0.2,0.4-0.2c0.2,0,0.6,0.1,0.9,0.4s0.8,0.5,1.4,0.8
		s1.2,0.6,2,0.8s1.7,0.4,2.7,0.4c1.1,0,2.1-0.2,2.9-0.5s1.6-0.7,2.2-1.2s1-1.1,1.3-1.8s0.5-1.5,0.5-2.2c0-0.7-0.1-1.3-0.4-1.8
		s-0.7-1-1.2-1.4s-1-0.8-1.7-1.2s-1.3-0.7-1.9-1.1s-1.3-0.8-1.9-1.3s-1.2-1-1.7-1.5s-0.9-1.3-1.2-2s-0.5-1.6-0.5-2.7
		c0-1.2,0.2-2.4,0.7-3.5s1.2-2,2.1-2.8s2-1.5,3.2-1.9s2.7-0.7,4.2-0.7c0.8,0,1.5,0.1,2.1,0.2s1.3,0.3,1.8,0.5s1,0.4,1.4,0.6
		s0.7,0.4,0.8,0.5s0.2,0.3,0.3,0.4S661.4,1248.9,661.4,1249.1z"/>
	<path fill="#B42A2A" d="M669.9,1276.6c0,0.1-0.1,0.2-0.2,0.3s-0.2,0.2-0.4,0.2s-0.4,0.1-0.7,0.1s-0.6,0.1-1,0.1c-0.4,0-0.7,0-1-0.1
		s-0.4-0.1-0.6-0.1s-0.2-0.1-0.3-0.2s-0.1-0.2,0-0.3l5.8-29.2c0-0.1,0.1-0.2,0.2-0.3s0.2-0.2,0.4-0.2s0.4-0.1,0.6-0.1
		s0.6-0.1,0.9-0.1s0.7,0,0.9,0.1s0.4,0.1,0.6,0.1s0.2,0.1,0.3,0.2s0.1,0.2,0,0.3L669.9,1276.6z"/>
	<path fill="#B42A2A" d="M700,1249.1c0,0.1,0,0.3,0,0.4s0,0.3-0.1,0.5s-0.1,0.4-0.1,0.6s-0.1,0.4-0.2,0.5s-0.2,0.3-0.3,0.4
		s-0.2,0.1-0.3,0.1c-0.2,0-0.4-0.1-0.7-0.3s-0.7-0.4-1.2-0.6s-1-0.4-1.7-0.6s-1.4-0.3-2.3-0.3c-1,0-1.8,0.1-2.5,0.4
		s-1.3,0.7-1.8,1.2s-0.8,1.1-1.1,1.7s-0.4,1.3-0.4,1.9c0,0.7,0.2,1.3,0.5,1.8s0.7,1,1.2,1.4s1.1,0.8,1.7,1.2s1.3,0.8,1.9,1.1
		s1.3,0.8,1.9,1.3s1.2,1,1.7,1.5s0.9,1.3,1.2,2s0.5,1.6,0.5,2.6c0,1.3-0.3,2.6-0.8,3.7s-1.3,2.2-2.3,3s-2.2,1.6-3.6,2.1
		s-3,0.8-4.8,0.8c-1,0-1.8-0.1-2.7-0.2s-1.6-0.4-2.2-0.6s-1.2-0.5-1.7-0.8s-0.8-0.5-1-0.7s-0.3-0.5-0.3-0.9c0-0.1,0-0.2,0-0.4
		s0.1-0.4,0.1-0.6s0.1-0.4,0.2-0.6s0.1-0.4,0.2-0.5s0.2-0.3,0.3-0.4s0.2-0.2,0.4-0.2c0.2,0,0.6,0.1,0.9,0.4s0.8,0.5,1.4,0.8
		s1.2,0.6,2,0.8s1.7,0.4,2.7,0.4c1.1,0,2.1-0.2,2.9-0.5s1.6-0.7,2.2-1.2s1-1.1,1.3-1.8s0.5-1.5,0.5-2.2c0-0.7-0.1-1.3-0.4-1.8
		s-0.7-1-1.2-1.4s-1-0.8-1.7-1.2s-1.3-0.7-1.9-1.1s-1.3-0.8-1.9-1.3s-1.2-1-1.7-1.5s-0.9-1.3-1.2-2s-0.5-1.6-0.5-2.7
		c0-1.2,0.2-2.4,0.7-3.5s1.2-2,2.1-2.8s2-1.5,3.2-1.9s2.7-0.7,4.2-0.7c0.8,0,1.5,0.1,2.1,0.2s1.3,0.3,1.8,0.5s1,0.4,1.4,0.6
		s0.7,0.4,0.8,0.5s0.2,0.3,0.3,0.4S700,1248.9,700,1249.1z"/>
</g>
<g>
	<g>
		<g>
			<path fill="#677F38" d="M332.1,502.3c-0.3-14.8-0.6-29.7,2.8-43.9c0.6-6.3,3.4-11.6,5.1-17.4c2.2-6.8,1.8-13.7,5.1-20
				c1.1,0.5,3.1,1.6,4.2,2.2c3.8-4.7-2.9-17.5-2.3-23.9c1.2-7.4,6.1-14.2,7.7-20c5.5-13.1,12.6-24.1,18.1-37.3
				c2.8-7.9,5.6-15.8,9.9-24.2c3.3-6.3,7.1-11,13-17.3c3.8-4.7,8.6-8.9,11.9-12.5c4.8-4.2,10.8-13.1,17.7-13.5
				c8.5-0.9,13.1,8.2,17.8,14.6c5.7,9.6,8.7,19.2,13.3,30.9c6.6,18.1,15.8,36.3,16,56.4c0.3,14.8-3.7,30.1-7.1,44.3
				c-2.3,9.5-3.5,19.5-5.8,29c-2.8,10.5-8.8,19.4-13.7,28.9c-12,23.1-22.5,48.3-37.7,69.8c-10.3,14.7-20.6,29.3-31.4,42.4
				c-3.2,3.7-3.3,6.3-7.5,4.1c-3.1-1.6-8.3-9.7-12-12.9c-5.7-9.6-12.3-22.4-14.8-33.1s-3.3-21.8-6.4-31.3c-4.6-9.1-1.3-18-4.9-26.5"
				/>
		</g>
		<g opacity="0.6">
			<g>
				<path fill="#B2B14B" d="M370.5,592.4c-5.5-1.4,2.2-15.7,3.5-18.3c2.9-5.9,6.1-11.5,8.4-17.7c2-5.3,3.6-10.8,5.7-16
					c2.4-6,5.6-11.5,8.5-17.2c4.5-8.7,8.5-17.7,9.8-27.6c1.7-12.7,3-25.4,5.1-38.1c2-12.2,4.1-24.4,5.9-36.6
					c1.8-12.3,3.4-24.7,5.5-36.9c2.1-12.1,4.6-24,4.9-36.3c0.4-14.4,0.2-28.2,2.8-42.5c1.9-10.3,3.5-21.4-2.2-30.7
					c-0.3-0.5-1.2,0-0.9,0.5c6.8,11.1,3,24.3,0.9,36.2c-2.1,12.1-1.4,24.3-1.7,36.5c-0.3,14.1-3.6,27.7-5.8,41.6
					c-2,12.3-3.6,24.7-5.4,37c-1.9,12.8-4.2,25.6-6.3,38.4c-0.8,5.3-1.6,10.7-2.3,16c-0.9,7.1-1.2,14.4-2.9,21.4
					c-2.8,11-8.6,20.6-13.7,30.6c-5.4,10.7-7.8,22.7-13.4,33.4c-2,3.8-15.3,25.2-6.9,27.3C370.8,593.6,371.1,592.6,370.5,592.4
					L370.5,592.4z"/>
			</g>
		</g>
		<g opacity="0.2">
			<g>
				<path fill="#B2B14B" d="M395.2,528.3c3.2-12.4-0.6-26.7-5.4-38.2c-6.2-14.7-8.2-30.7-15.5-45.1c-0.3-0.6-1.2-0.1-0.9,0.5
					c6.9,13.6,8.9,28.6,14.4,42.6c4.9,12.4,9.9,26.4,6.4,39.9C394.1,528.7,395,529,395.2,528.3L395.2,528.3z"/>
			</g>
		</g>
		<g opacity="0.2">
			<g>
				<path fill="#B2B14B" d="M408.2,473.4c-2.7,0.8-1.9-4.6-2.2-6.2c-0.6-2.8-1.8-5.4-3.2-7.8c-3-5.2-7-9.8-10.9-14.4
					c-4.2-4.9-7.9-10.3-12.6-14.8c-5.6-5.5-11.6-9.8-17.8-14.6c-0.5-0.4-1.2,0.3-0.7,0.7c5,3.9,10.1,7.5,14.7,11.9
					c4.5,4.2,8.3,8.6,12.1,13.4c7.3,9,19.4,19.3,17.6,32.2c0,0.2,0,0.5,0.2,0.6c1.2,0.6,1.7,0.5,3,0.1
					C409.1,474.2,408.8,473.2,408.2,473.4L408.2,473.4z"/>
			</g>
		</g>
		<g opacity="0.2">
			<g>
				<path fill="#B2B14B" d="M412.7,436.1c-0.8,1.6-4.4-4-4.9-5.1c-1.2-2.6-2.5-4.7-4.1-7.1c-3-4.6-5.6-8.3-9.8-11.8
					c-8.7-7.4-17.9-14-25.7-22.4c-0.4-0.5-1.1,0.2-0.7,0.7c8,8.6,17.5,15.3,26.3,22.9c4.9,4.2,8.6,9.8,11.7,15.5
					c2,3.5,3.2,6.8,6.8,9c0.2,0.1,0.6,0.1,0.7-0.2c0.2-0.3,0.4-0.7,0.5-1C413.9,436.1,413,435.6,412.7,436.1L412.7,436.1z"/>
			</g>
		</g>
		<g opacity="0.2">
			<g>
				<path fill="#B2B14B" d="M416.9,407.6c-0.4,0.6-3.3-6.3-3.6-6.9c-0.7-2-1.5-4.1-2.3-6c-1.5-3.5-3.4-6.6-5.7-9.5
					c-6.1-7.8-13.8-14.2-21.3-20.5c-0.5-0.4-1.2,0.3-0.7,0.7c9.6,8.1,20.7,16.6,26.2,28.2c1.4,2.9,2.4,5.9,3.5,8.9
					c0.4,1.2,1.2,5.4,2.4,6.1c0.9,0.6,1.8,0.4,2.5-0.5C418.1,407.6,417.3,407.1,416.9,407.6L416.9,407.6z"/>
			</g>
		</g>
		<g opacity="0.2">
			<g>
				<path fill="#B2B14B" d="M421.3,382.7c-3-3.6-5.1-9-7-13.3c-2.2-4.9-5.6-8.6-8.6-12.9c-5.8-8.6-10.1-17.7-18-24.7
					c-0.5-0.4-1.2,0.3-0.7,0.7c8.3,7.3,12.3,16.9,18.6,25.7c1.6,2.2,3.5,4.2,5,6.5c1.7,2.6,2.5,5.3,3.9,8c1.8,3.5,3.5,7.6,6.1,10.6
					C421,383.9,421.7,383.2,421.3,382.7L421.3,382.7z"/>
			</g>
		</g>
		<g opacity="0.2">
			<g>
				<path fill="#B2B14B" d="M426.2,350.7c-2.9-7.4-3.2-15.7-7.6-22.4c-4.7-7.4-12.4-12-17.7-18.9c-0.4-0.5-1.3,0-0.9,0.5
					c4.6,6,11,10.3,15.7,16.2c5.9,7.4,6.2,16.3,9.5,24.8C425.4,351.6,426.4,351.3,426.2,350.7L426.2,350.7z"/>
			</g>
		</g>
		<g opacity="0.2">
			<g>
				<path fill="#B2B14B" d="M423.5,314.6c-4.1-6.9-6.4-14.9-11.9-20.9c-0.4-0.5-1.1,0.2-0.7,0.7c5.4,6,7.7,13.9,11.8,20.7
					C423,315.6,423.9,315.1,423.5,314.6L423.5,314.6z"/>
			</g>
		</g>
		<g opacity="0.2">
			<g>
				<path fill="#B2B14B" d="M416.9,422.5c6.4-8.1,19-9.6,27.8-14.1c10.5-5.4,18.7-13.9,24.2-24.3c0.3-0.6-0.6-1.1-0.9-0.5
					c-6.2,11.5-15.5,20.4-27.5,25.7c-8,3.5-18.7,5.3-24.4,12.5C415.8,422.3,416.5,423,416.9,422.5L416.9,422.5z"/>
			</g>
		</g>
		<g opacity="0.2">
			<g>
				<path fill="#B2B14B" d="M408.1,454.3c4.7,0.1,9.6,0.2,14.2-1c4.9-1.3,9.1-4.3,13-7.4c4.2-3.3,7.7-7.4,11.1-11.5
					c2.9-3.5,6.2-9.5,11-10.5c0.6-0.1,0.4-1.1-0.3-1c-3.4,0.7-5.5,3.4-7.5,6c-2.9,3.7-5.9,7.4-9.1,10.8c-4,4.2-8.9,8.4-14.1,11
					c-5.7,2.8-12.1,2.7-18.3,2.6C407.5,453.3,407.5,454.3,408.1,454.3L408.1,454.3z"/>
			</g>
		</g>
		<g opacity="0.2">
			<g>
				<path fill="#B2B14B" d="M404.1,497.6c3.7,0.6,5.7-0.7,8.1-3.5c4.3-4.8,8.7-9.5,12.7-14.6c4.3-5.5,8.7-10.1,14.9-13.4
					c2.8-1.5,5.9-2.6,8.6-4.3c3.4-2.1,5.6-4.2,9.5-5.6c0.6-0.2,0.3-1.2-0.3-1c-4.8,1.7-8.5,4.9-12.9,7.3c-4.8,2.5-9.9,4.7-13.8,8.6
					c-4,4-7.4,8.7-11,13.1c-1.9,2.2-3.8,4.3-5.9,6.4c-2.8,2.9-4.8,6.9-9.8,6.1C403.7,496.5,403.4,497.5,404.1,497.6L404.1,497.6z"/>
			</g>
		</g>
		<g opacity="0.2">
			<g>
				<path fill="#B2B14B" d="M398.5,530.1c-1.5,2.1,6.7,0.7,7.7,0.5c3-0.9,5.9-2.3,8.4-4.1c5.1-3.5,9.1-8.3,12.6-13.4
					c0.4-0.5-0.5-1-0.9-0.5c-6.7,9.9-16.3,18.7-29,17.8c-0.7,0-0.6,0.9,0,1c1,0.1,1.4,0.1,2-0.8
					C399.7,530.1,398.8,529.6,398.5,530.1L398.5,530.1z"/>
			</g>
		</g>
	</g>
	<g>
		<g>
			<path fill="#718A3A" d="M366.6,618.5c5.2,8,13.7,1.8,18.1-3.9c3.8-7.3,1.3-15.3,0.4-23.8c0.1-7.9,1.9-16.4,1.5-25.9
				c-0.4-6.9-0.3-14.8,0.4-21.2c1.2-10,3.5-19.5,5.3-30.6c1.7-8.4,1.4-18,4.7-26.9c6.1-14.2,14.8-31,23-44.1
				c9.8-16.2,19.6-32.5,34.1-45c12.9-12,27.3-19.1,41.2-27.9c8.5-3.6,17-4.5,24.5-8.6c4.8-1.5,7.5-4.1,11.8-7.2
				c4.3-5.8,5.3-2.6,8.9,3.3c8.8,13.9,8.5,27.1,9.3,43.6c-0.3,15.9-1,30.2-9.7,44.3c-5.5,10.5-14.6,20.4-21.1,30.4
				c-4.3,5.8-7.6,9.4-13.5,13c-6.9,3.1-14.4,4.5-19.7,9.7c-10.8,10.4-3.5,22.2-8,33.2c-2.2,6.8-7.6,9.4-11.3,14.1
				c-3.8,4.7-8.1,10.5-11.9,15.2c-7.6,12-13.1,22.5-24.3,31.4c-5.9,3.6-13.4,7.7-19.2,11.3c-6.4,2-13.9,6.1-17.6,10.8
				c-4.3,5.8-5.5,10.5-14,11.4c-7.4,1.5-11.6-0.7-14.7-7.7"/>
		</g>
		<g>
			<path fill="#808A3C" d="M381.7,630.4c7.3,3.8,14.2,3.4,21.2,0.4c9.6-3,12.3-8.3,18.2-14.5c9.7-11,23.6-17.1,35.9-25.3
				c14.4-7.2,29.3-12.7,43.7-19.9c8.5-3.6,17.6-5.5,27.1-5.9c9.5-0.4,18.6-2.3,28.6-3.8c14.9-2.9,30.7-2.7,45,0.7
				c12.7,1.3,25.3,7.8,36.3,12.2c6.3,3.3,12,7.6,17.8,11.9c4.2,2.2,14.2,6.1,9.3,12.9c-4.3,5.8-15,8.2-20.8,11.8
				c-8.5,3.6-14.4,7.2-20.8,11.8c-38.1,32.2-86.9,38.8-135.1,39.1c-11.1,0.9-20.1-2.4-31.2-4.2c-11.6-3.4-23.2-4.1-34.3-8.5
				c-8.9-3.3-17.8-9.3-26.2-13.7c-6.3-3.3-20.6-4-23.6-11"/>
		</g>
		<g opacity="0.6">
			<g>
				<path fill="#B2B14B" d="M375.3,625c12.8,1.8,21.7-17.6,26.3-26.6c4.2-8.1,7.2-16.3,8.8-25.4c1-5.7,1.7-11.1,3.6-16.6
					c2.2-6.2,4.8-12.2,7.1-18.3c4.3-11.6,6.8-23.7,10.4-35.4c3.8-12.3,10.2-21.6,18.6-31.2c8.3-9.5,15-20.5,23.7-29.6
					c8-8.3,17.7-14.8,25.6-23.2c8.6-9.2,15.4-19.8,22-30.5c6.9-11.1,13.5-21.9,14.6-35.3c0.1-0.6-0.9-0.6-1,0
					c-1.1,12.8-7.4,23.3-14,34c-6.1,9.9-12.3,19.8-20,28.5c-7.2,8.2-16.1,14.6-24,22c-8.7,8.1-14.8,18.3-22.4,27.3
					c-6.4,7.6-13.5,14.7-18.4,23.5c-5.2,9.3-7.4,20.2-10.1,30.4c-3,11.2-6.9,21.8-11.1,32.5c-1.7,4.4-3.6,8.9-4.3,13.6
					c-1,6-1.7,12-3.4,17.9c-2.5,8.5-6.9,16.7-11.5,24.3c-4,6.6-11,18.4-20.2,17.1C375,623.9,374.7,624.9,375.3,625L375.3,625z"/>
			</g>
		</g>
		<g opacity="0.6">
			<g>
				<path fill="#B2B14B" d="M394.6,633.9c-1.9-1,1.9,0.8,1.8,0.8c1,0.3,2.3,0.4,3.3,0.6c2,0.4,4,0.8,6,1.1c4.5,0.9,9,1.8,13.5,2.4
					c9,1.3,18,1,27,0.6c9-0.5,18.8,0,27.5-2c8.9-2,17.5-5.3,26.1-8.4c17.3-6.2,35.9-9,52.8-16.3c8.5-3.6,16.7-7.9,25.6-10.5
					c9.3-2.7,18.5-3.2,28-4.1c10.4-1.1,20.9-1.5,31.4-2c9.1-0.4,18.5,2.2,27.6,0.8c0.4-0.1,0.5-0.7,0.1-0.9
					c-0.7-0.4-1.4-0.7-2.1-1.1c-0.6-0.3-1.1,0.6-0.5,0.9c2.2,1.2,0.2,0.4-0.7,0.5c-1,0.1-2.2,0-3.2,0c-1.9-0.1-3.9-0.4-5.8-0.6
					c-4.3-0.5-8.5-0.9-12.8-0.7c-8.9,0.4-17.8,1-26.8,1.5c-8.6,0.4-17.5,0.9-26,2.4c-8.1,1.5-15.8,4.4-23.3,7.7
					c-8.6,3.8-17.1,7.6-26.2,10.3c-8.9,2.6-18,4.7-26.9,7.4c-8.8,2.6-17.3,6.1-26.1,9c-4.3,1.4-8.7,2.9-13.2,3.6
					c-5.5,0.9-11.4,0.7-17,1c-10.2,0.6-20.6,1.4-30.9,0.5c-10.3-1-20.3-3.7-30.5-5.1c-0.5-0.1-0.7,0.7-0.3,0.9
					c0.4,0.2,0.7,0.4,1.1,0.5C394.7,635.1,395.2,634.2,394.6,633.9L394.6,633.9z"/>
			</g>
		</g>
		<g opacity="0.2">
			<g>
				<path fill="#B2B14B" d="M463.9,640.2c5.9-2.8,13.5-0.7,19.4,1c5.3,1.5,10.5,3.4,15.8,5.2c13.8,4.7,28.3,10.2,42.9,5.3
					c0.6-0.2,0.3-1.2-0.3-1c-16.1,5.5-32.8-1.9-47.9-7.2c-8.6-3-21.4-8.4-30.4-4.1C462.8,639.6,463.3,640.4,463.9,640.2L463.9,640.2
					z"/>
			</g>
		</g>
		<g opacity="0.2">
			<g>
				<path fill="#B2B14B" d="M496.6,633.4c25.6,3.1,50.6,12.7,76.7,9.2c0.6-0.1,0.4-1-0.3-1c-26,3.5-51-6.1-76.5-9.2
					C495.9,632.3,495.9,633.3,496.6,633.4L496.6,633.4z"/>
			</g>
		</g>
		<g opacity="0.2">
			<g>
				<path fill="#B2B14B" d="M528.1,621.7c14.4-2.2,26.9,5.5,40.3,9.1c11.5,3.1,23.7,2.2,35.2-0.5c0.6-0.1,0.4-1.1-0.3-1
					c-13.8,3.3-27.4,3.2-40.9-1.6c-11.2-4-22.6-8.9-34.7-7C527.2,620.8,527.5,621.8,528.1,621.7L528.1,621.7z"/>
			</g>
		</g>
		<g opacity="0.2">
			<g>
				<path fill="#B2B14B" d="M557.7,610.5c4.7,1.8,10.1-0.3,15,0.5c6.8,1.1,13.6,2.6,20.3,4.2c12.1,2.9,24.5,3.5,36.3-0.9
					c0.6-0.2,0.3-1.2-0.3-1c-13.2,4.9-25.8,2.8-39.1,0.1c-6.2-1.2-12.5-3.1-18.8-3.7c-4.3-0.4-9.1,1.4-13.2-0.2
					C557.3,609.3,557.1,610.3,557.7,610.5L557.7,610.5z"/>
			</g>
		</g>
		<g opacity="0.2">
			<g>
				<path fill="#B2B14B" d="M589.4,603.1c6.1,2.7,13.3,2.8,19.8,3.6c7.6,1,15,2.2,22.7,2.4c0.6,0,0.6-1,0-1
					c-7.3-0.2-14.5-1.3-21.7-2.3c-6.6-0.9-14.2-0.9-20.3-3.6C589.4,601.9,588.9,602.8,589.4,603.1L589.4,603.1z"/>
			</g>
		</g>
		<g opacity="0.2">
			<g>
				<path fill="#B2B14B" d="M435.5,638.1c-1.2-5.3,2.5-11.1,5.3-15.4c3.1-4.8,6.2-8.6,11.1-11.7c4.7-3,9.7-5.6,13.4-9.8
					c3.8-4.3,6.5-9.4,9.2-14.4c0.3-0.6-0.6-1.1-0.9-0.5c-3.5,6.8-7.3,13.8-13.6,18.4c-4.9,3.6-11.1,6-15.1,10.6
					c-4.7,5.5-12.1,15.4-10.3,23.1C434.7,639,435.7,638.7,435.5,638.1L435.5,638.1z"/>
			</g>
		</g>
		<g opacity="0.2">
			<g>
				<path fill="#B2B14B" d="M458,634.1c1.2-1.7,2.1-5.5,3.2-7.6c1.3-2.4,2.6-4.8,4.1-7.2c3.1-5.1,6.6-9.9,10.3-14.5
					c7.1-8.7,15.2-16.7,24.2-23.3c0.5-0.4,0-1.2-0.5-0.9c-18.5,13.6-34.4,32.7-42.9,54.1c-0.1,0.3,0.2,0.6,0.5,0.6
					c1,0.1,1.4,0.1,2-0.8C459.2,634.1,458.4,633.6,458,634.1L458,634.1z"/>
			</g>
		</g>
		<g opacity="0.2">
			<g>
				<path fill="#B2B14B" d="M479.6,633.2c5.3-12.7,11.8-24.7,21.1-35c4-4.4,9.4-7.1,13.4-11.4c2.7-2.9,4.1-10,8.5-10.8
					c0.6-0.1,0.4-1.1-0.3-1c-3.3,0.6-5.5,5.4-7,8c-3.3,6-10.7,9.4-15.4,14.5c-9.4,10.4-16,22.5-21.3,35.4
					C478.4,633.6,479.3,633.8,479.6,633.2L479.6,633.2z"/>
			</g>
		</g>
		<g opacity="0.2">
			<g>
				<path fill="#B2B14B" d="M499.7,627.9c3.1-5.8,7.9-10.4,11-16.1c3.2-5.8,4.9-11.6,10.4-15.8c4.6-3.5,9.9-7.4,14.8-10.2
					c4.7-2.7,9.6-5.3,13.2-9.4c0.4-0.5-0.3-1.2-0.7-0.7c-4.6,5.2-11,7.4-16.5,11.3c-2.2,1.6-4.2,3.4-6.5,4.9c-2.4,1.5-4.8,3-6.9,4.9
					c-3.9,3.5-5.6,8.4-7.9,13c-3.2,6.3-8.4,11.4-11.8,17.6C498.6,627.9,499.4,628.4,499.7,627.9L499.7,627.9z"/>
			</g>
		</g>
		<g opacity="0.2">
			<g>
				<path fill="#B2B14B" d="M534.2,615.4c9.6-5,12-15.8,16.7-24.7c5.7-10.8,19.5-10.5,26.5-19.8c0.4-0.5-0.5-1-0.9-0.5
					c-6.5,8.6-19.5,8.6-25.5,17.9c-5.8,9-7.1,20.8-17.4,26.2C533.1,614.8,533.6,615.7,534.2,615.4L534.2,615.4z"/>
			</g>
		</g>
		<g opacity="0.2">
			<g>
				<path fill="#B2B14B" d="M565.8,605.8c-1.5-9.7,9.8-16.7,16.8-20.9c6.8-4.1,14-7.2,21-10.7c0.6-0.3,0.1-1.2-0.5-0.9
					c-8.8,4.4-17.9,8.2-26,13.9c-6.1,4.3-13.6,10.5-12.4,18.9C564.9,606.7,565.9,606.4,565.8,605.8L565.8,605.8z"/>
			</g>
		</g>
		<g opacity="0.2">
			<g>
				<path fill="#B2B14B" d="M584.4,595.1c7.9,1.3,13.4-4.9,20.3-7.8c9.2-3.9,18.6-3.4,28-0.4c0.6,0.2,0.9-0.8,0.3-1
					c-7.3-2.3-14.8-3.4-22.3-1.7c-3.5,0.8-6.8,2.2-10,3.8c-5.3,2.8-9.5,7.1-16,6C584,594,583.8,595,584.4,595.1L584.4,595.1z"/>
			</g>
		</g>
		<g opacity="0.2">
			<g>
				<path fill="#B2B14B" d="M406.6,588.8c2.9-3.4,6.7-5.7,10.2-8.4c2.9-2.3,5.5-5.1,8.1-7.7c6.2-6.4,11.1-13.9,16.2-21.1
					c5.3-7.4,9.3-15.5,14.5-22.9c4.3-6.2,10.7-7.5,17.6-9.1c0.6-0.1,0.4-1.1-0.3-1c-5.2,1.2-10.9,2.1-15,5.7c-2.3,2-3.9,4.6-5.3,7.3
					c-2.6,4.7-5.2,9.2-8.3,13.6c-5.8,8.5-11.5,17.2-18.4,24.8c-3.3,3.7-6.9,7.4-10.9,10.4c-3.2,2.4-6.5,4.6-9.2,7.7
					C405.5,588.6,406.2,589.3,406.6,588.8L406.6,588.8z"/>
			</g>
		</g>
		<g opacity="0.2">
			<g>
				<path fill="#B2B14B" d="M420.1,545c5.8-12.6,18.8-18.5,30.3-24.8c6.3-3.5,11.7-7.7,17.4-12c5.9-4.5,11.7-9.2,16.6-14.9
					c0.4-0.5-0.3-1.2-0.7-0.7c-10.1,11.7-23.8,21.3-37.3,28.7c-10.6,5.7-21.9,11.9-27.2,23.3C419,545.1,419.8,545.6,420.1,545
					L420.1,545z"/>
			</g>
		</g>
		<g opacity="0.2">
			<g>
				<path fill="#B2B14B" d="M429.1,504.6c14.3-10.8,30.4-14.7,47-20.2c12.4-4.1,26.6-6.4,35.2-17.1c0.4-0.5-0.3-1.2-0.7-0.7
					c-9,11.3-25.6,14.2-38.7,18.3c-15.5,4.9-30.1,8.9-43.3,18.9C428.1,504.1,428.5,505,429.1,504.6L429.1,504.6z"/>
			</g>
		</g>
		<g opacity="0.2">
			<g>
				<path fill="#B2B14B" d="M453.7,466.9c7.5,1.2,14.3-0.5,21.2-3.2c7.3-2.8,14.4-4.9,22-7c12.5-3.4,23.6-9,31.4-19.6
					c0.4-0.5-0.5-1-0.9-0.5c-8,10.8-19.5,16.2-32.2,19.5c-6.3,1.6-12.2,3.3-18.2,5.7c-7.5,3-14.9,5.4-23,4.1
					C453.3,465.9,453,466.8,453.7,466.9L453.7,466.9z"/>
			</g>
		</g>
		<g opacity="0.2">
			<g>
				<path fill="#B2B14B" d="M482,436.2c2.9-1,5-2.6,7.6-4.2c3.1-1.9,6.7-2.9,10.1-3.9c6.6-1.9,13-4,19.4-6.4
					c10.4-3.9,18.9-9.6,25.6-18.5c0.4-0.5-0.5-1-0.9-0.5c-7.5,10-17.4,15.6-29.1,19.5c-5.6,1.9-11.3,3.7-17,5.5
					c-5.9,1.8-10.4,5.6-16.1,7.6C481.1,435.4,481.3,436.4,482,436.2L482,436.2z"/>
			</g>
		</g>
		<g opacity="0.2">
			<g>
				<path fill="#B2B14B" d="M505.4,409.4c6.6-5.8,15.9-6.9,23.1-11.9c5.6-3.9,9.2-9.3,11.4-15.8c0.2-0.6-0.8-0.9-1-0.3
					c-2.7,8-7.9,13.9-15.3,17.8c-6.3,3.3-13.4,4.7-18.9,9.4C504.2,409.1,504.9,409.9,505.4,409.4L505.4,409.4z"/>
			</g>
		</g>
		<g opacity="0.2">
			<g>
				<path fill="#B2B14B" d="M509.7,405.7c-0.8-1.7-1.6-2.4-3.1-3.4c-4.3-2.8-6.5-5.4-5.5-10.5c1-4.8,3.5-9,3.3-14c0-0.6-1-0.6-1,0
					c0.3,6.2-4.2,11.5-3.5,17.6c0.2,1.9,0.9,3.9,2.2,5.3c2,2.4,5.4,2.4,6.8,5.5C509.1,406.8,510,406.3,509.7,405.7L509.7,405.7z"/>
			</g>
		</g>
		<g opacity="0.2">
			<g>
				<path fill="#B2B14B" d="M479.7,430.1c-5-8.8,7.1-33.5-6.6-36.9c-0.6-0.2-0.9,0.8-0.3,1c12.2,3,1.1,27.9,6,36.4
					C479.1,431.2,480,430.7,479.7,430.1L479.7,430.1z"/>
			</g>
		</g>
		<g opacity="0.2">
			<g>
				<path fill="#B2B14B" d="M454.8,465.7c0.2-0.3,0.4-0.7,0.5-1c0.3-0.6-0.6-1.1-0.9-0.5c-0.2,0.3-0.4,0.7-0.5,1
					C453.6,465.7,454.5,466.2,454.8,465.7L454.8,465.7z"/>
			</g>
		</g>
		<g opacity="0.2">
			<g>
				<path fill="#B2B14B" d="M462.8,454.6c-5.2-5.9-5.7-14.5-6.3-21.9c-0.3-4.3-0.1-7.9,0.8-12.1c0.7-3.3,1-6.4,0.5-9.8
					c-0.1-0.6-1.1-0.4-1,0.3c0.7,5.1-1,9.8-1.6,14.8c-0.4,3.9,0.2,8,0.6,11.8c0.7,6.2,1.9,12.8,6.1,17.6
					C462.5,455.8,463.2,455.1,462.8,454.6L462.8,454.6z"/>
			</g>
		</g>
		<g opacity="0.2">
			<g>
				<path fill="#B2B14B" d="M440,482.7c-2.6-1.8-3.1-6.7-3.7-9.6c-0.7-3.2-1.6-6.6-1.8-9.9c-0.6-9.5,3.3-18.7,2.8-28.3
					c0-0.6-1-0.6-1,0c0.6,10.6-4.4,21.1-2.4,31.7c0.9,4.8,1.2,13.9,5.5,17C440,484,440.5,483.1,440,482.7L440,482.7z"/>
			</g>
		</g>
		<g opacity="0.2">
			<g>
				<path fill="#B2B14B" d="M424.2,517.4c-8.9,3.2-9.4-22.4-9.2-26.2c0.7-9.7,4.6-19.1-0.5-28.3c-0.3-0.6-1.2-0.1-0.9,0.5
					c4.2,7.5,2,15,0.9,23c-0.9,6.4-1.1,13,0.3,19.4c0.9,4.2,3.3,14.8,9.6,12.5C425.1,518.1,424.8,517.2,424.2,517.4L424.2,517.4z"/>
			</g>
		</g>
		<g opacity="0.2">
			<g>
				<path fill="#B2B14B" d="M407.6,575.3c-8.7-2.4-5.5-20.1-4.8-26.9c0.7-6.5,1.6-13.1,0.1-19.5c-1.7-7.2-7-12.3-10.4-18.7
					c-0.3-0.6-1.2-0.1-0.9,0.5c2,3.9,4.9,7.2,7.1,10.9c2.5,4.2,3.7,8.7,3.9,13.6c0.3,6.5-1,13-1.5,19.4c-0.4,6.3-2.1,19.4,6,21.6
					C408,576.5,408.3,575.5,407.6,575.3L407.6,575.3z"/>
			</g>
		</g>
	</g>
	<g>
		<path fill="#677F38" d="M339,663.3c-1.7,8.4,6.6,18.1,9.6,25c3.6,8.5,6.1,16.5,10.2,24c8.7,16.6,13.2,33.6,20.3,50.6
			c8.2,17.6,11,37.8,13.9,57.9c2.4,15.9-0.1,36,7.7,49.4c10.2,21.3,31.1,37.6,46.2,54.8c12,12.9,21.2,28.4,38.6,33.5
			s22.9-8.1,29-22.3c1.1-4.7,0.6-3.7,5.4-5.2c3.7-2.1,6.4-2,8-5.2c3.8-4.7,7.1-13.6,8.8-19.4c4.4-11,1.5-25.9-0.4-37.6
			c-2.9-14.9-5.9-29.7-9.8-45.2c-8.9-39.3-23-78.7-51.1-109.4c-21.8-24.7-51.7-44.3-81.1-59.6c-10.5-5.5-23.6-11-35.8-13.3
			s-26.5-0.4-38.1,1.5c-0.6,3.7,6.2,8.6,8.8,11.3c3.7,3.2,6.2,8.6,9.4,10.2"/>
	</g>
	<g opacity="0.6">
		<g>
			<path fill="#B2B14B" d="M318.4,643.8c10.6,5.3,22.7,6.7,33.2,12c10.6,5.3,20.7,12.7,30.3,19.6c10.7,7.7,21,16.5,26.9,28.5
				c5.6,11.6,8.2,24.3,12.9,36.2c4.6,11.6,9,23.3,13.3,35c2.1,5.8,4.7,11.3,6.7,17.2c2.2,6.9,2.9,13.6,3.2,20.7
				c0.9,21.4,4.3,41.8,19.7,57.9c4.2,4.4,8.7,8.1,12.4,13c3.6,4.9,6.8,10.1,10.3,15c7.6,10.6,16.3,20.2,23.1,31.5
				c0.3,0.6,1.2,0,0.9-0.5c-6.2-10.4-14-19.4-21.3-29.1c-6.1-8-10.8-17.2-17.9-24.4c-4-4.1-8.2-7.5-11.7-12.1
				c-3.7-4.9-6.6-10.4-8.9-16.1c-4.5-11.6-5.1-23.8-5.6-36.1c-0.2-5.7-0.5-11.1-2.1-16.6c-1.9-6.5-4.6-12.7-7-19
				c-4.6-11.6-8.7-23.4-13.4-35.1c-4.5-11.2-7.1-23.1-11.9-34.2c-2.2-5.1-4.7-10.2-8.2-14.5c-4.1-4.8-9-9.1-13.9-13.1
				c-10.1-8.2-21.3-15.6-32.6-22.2c-11.8-6.9-25.7-8.5-37.9-14.6C318.4,642.7,317.9,643.5,318.4,643.8L318.4,643.8z"/>
		</g>
	</g>
	<g opacity="0.1">
		<g>
			<path fill="#B2B14B" d="M536.6,907.6c4.4-11,1.5-25.9-0.4-37.6c-2.9-14.9-5.9-29.7-9.8-45.2c-6.6-29.2-16.1-58.4-32-84
				c-0.7,3.3-1.3,6.6-1.5,9.9c-0.3,5-0.9,10.6,2.2,14.9c1.9,2.7,3.4,5,4.2,8.1c1.6,5.6-3,12.2-2.2,18.1c0.8,6.5,3.8,10.8,7.1,16.2
				c5.3,8.8,6.1,17.7,7.2,27.8c1.4,12.3,6.1,21.7,12.2,32.3c3.7,6.5,8.2,13.6,8.8,21.3c1.2,13.5-7.7,31.5-18.7,39.5
				c-12.8,9.4-28.6-1.1-37.6-10.9c-3.5-3.8-4.6-8.4-5.9-13.2c-2.2-7.8-6.2-11.4-13.1-15.3c-7.8-4.5-10.3-9.8-12.5-18.2
				c-2.7-10.2-4.9-20.7-7.1-31.1c-2.9-13.7-9.1-23.9-18.4-34.3c-8.4-9.4-17.4-18.3-26.2-27.4c-6.3-6.5-13.7-13.9-16.3-22.9
				c-3-10.2-3.7-21.5-8.7-31.1c-3.3-6.4-7.6-12-12.2-17.5c1,2.2,2,4.4,3.2,6.5c8.7,16.6,13.2,33.6,20.3,50.6
				c8.2,17.6,11,37.8,13.9,57.9c2.4,15.9-0.1,36,7.7,49.4c10.2,21.3,31.1,37.6,46.2,54.8c12,12.9,21.2,28.4,38.6,33.5
				c17.4,5.1,22.9-8.1,29-22.3c1.1-4.7,0.6-3.7,5.4-5.2c3.7-2.1,6.4-2,8-5.2C531.6,922.3,534.9,913.4,536.6,907.6z"/>
		</g>
	</g>
	<g>
		<path fill="#718A3A" d="M343.2,632.2c-3.1-1.6-7.4-1.2-11.1-1.8c-6.9,0.4-13.8,0.8-20.7,1.2c-10.6-0.2-19.1,0.7-29.7,3.2
			c-17.5,2.9-33.4,5.3-49.9,11.3c-10.6,2.5-18.7,7.6-29.3,12.7c-7.5,4.1-15.5,6.6-22.9,10.7c-13.4,7.7-22.5,17.6-31.2,29.1
			c-9.2,12.6-15.3,26.7-22.4,40.4c-6.6,12.6-9.4,25.8-13.4,41.1c-1.7,5.8-2.9,13.2-4.5,19c-1.7,8.4-0.8,14.3,8.9,8.6
			c5.3-2.6,13.9-6.1,12.6,3.9c-0.6,3.7-3.8,4.7-1.7,8.4c2.6,2.7,6.8,2.2,10.5,2.8c13.8-0.8,29.2-4.8,44.1-7.7
			c14.3-1.9,29.7-0.6,44.5-3.5c14.9-2.9,28.2-8,40.5-16.3c11.8-7.2,20.9-17.1,30.6-25.4c11.3-8.8,22-16.6,28.5-29.2
			c5.5-10.5,10.9-21,14.3-32.6c4.5-13.7,8.4-26.3,10.2-40.1c-0.4-6.9-2.4-13.3-3.9-20.7C346.2,644.4,341.6,635.3,343.2,632.2"/>
	</g>
	<g opacity="0.6">
		<g>
			<path fill="#B2B14B" d="M339.8,632.7c-17,9-33.5,18.2-48.6,30.1c-15.4,12.2-29.1,26.1-42,40.9c-12,13.7-25.1,26.7-40.5,36.5
				c-7.8,5-16,9.1-23.6,14.5c-7.8,5.5-15.4,11.3-23.7,16.2c-7.7,4.5-16.7,8-22.4,15.1c-5.1,6.3-6,18.2-14.2,21.5
				c-0.6,0.2-0.3,1.2,0.3,1c5.7-2.2,7.9-8.3,10.1-13.5c3.8-8.7,9.7-13.8,17.9-18.4c8.5-4.8,16.8-9.7,24.7-15.4
				c7.5-5.4,14.9-10.8,23.1-15.3c33.3-18,53.7-50.5,81.7-74.8c17.6-15.3,37.1-26.7,57.7-37.5C340.8,633.3,340.3,632.4,339.8,632.7
				L339.8,632.7z"/>
		</g>
	</g>
	<g opacity="0.2">
		<g opacity="0.6">
			<g>
				<path fill="#B2B14B" d="M340.9,708.4c4.5-13.7,8.4-26.3,10.2-40.1c-0.1-2.2-0.4-4.3-0.8-6.4c-6.7,9.6-14.3,19.3-25.1,23.9
					c-10.9,4.7-7.6,15.3-14.2,23c-3.6,4.2-8.1,8.5-13.8,9.2c-8.7,1.1-14.4,2.4-19.5,10.8c-4.5,7.5-7.8,15.6-13.4,22.4
					c-3.4,4.2-9.6,7.9-15.1,8.2c-5.9,0.3-12.5-1.9-18.1,0.7c-9.8,4.5-9.2,14.3-13.4,22.8c-2.5,5.1-7.8,8.2-13,9.6
					c-13.9,3.6-26.8-4.3-40.5,2.9c-12.2,6.3-24.6,15.4-33.2,26.7c2.3,0.7,4.9,0.6,7.3,1c13.8-0.8,29.2-4.8,44.1-7.7
					c14.3-1.9,29.7-0.6,44.5-3.5c14.9-2.9,28.2-8,40.5-16.3c11.8-7.2,20.9-17.1,30.6-25.4c11.3-8.8,22-16.6,28.5-29.2
					C332,730.5,337.5,720,340.9,708.4z"/>
			</g>
		</g>
		<g opacity="0.6">
			<g>
				<path fill="#B2B14B" d="M116.9,808c0.1,0,0.2-0.1,0.3-0.1c1-1.1,1.9-2.2,2.7-3.4c4.3-6.2,5.8-13.8,12.2-18.5
					c7.2-5.3,18.5-7.9,21.6-17.2c2.4-7.1,4.4-13,11.1-16.9c3.6-2.1,8.1-2.9,11.3-5.5c4.7-3.8,6-7.9,7-13.6
					c0.8-4.8,2.7-10.8,7.7-12.9c5.6-2.3,12.5-0.7,17.8-3.4c6.2-3.2-3.6-17.6-5.1-21.8c-0.7-2,0.9-3.7,2.9-3.6
					c15.6,0.9,32.2-2.9,47.1-7.2c7-2,14.1-4.1,20.7-7.2c7.7-3.6,13.3-9.9,19-15.9c9.6-10.2,19.7-17.4,34.2-17.6
					c6.8-0.1,13.4,1.5,19.8,3.9c-1.3-3.6-5.3-11.8-3.8-14.8c-3.1-1.6-7.4-1.2-11.1-1.8c-6.9,0.4-13.8,0.8-20.7,1.2
					c-10.6-0.2-19.1,0.7-29.7,3.2c-17.5,2.9-33.4,5.3-49.9,11.3c-10.6,2.5-18.7,7.6-29.3,12.7c-7.5,4.1-15.5,6.6-22.9,10.7
					c-13.4,7.7-22.5,17.6-31.2,29.1c-9.2,12.6-15.3,26.7-22.4,40.4c-6.6,12.6-9.4,25.8-13.4,41.1c-1.7,5.8-2.9,13.2-4.5,19
					C106.3,807.8,107.3,813.6,116.9,808z"/>
			</g>
		</g>
	</g>
	<g>
		<path fill="#718A3A" d="M310.8,609.9c-2.6-5.3-11.5-8.7-16.8-11.4c-7.3-3.8-14.7-7.7-22-11.5c-11-4.4-24.2-7.3-35.8-10.7
			c-27.9-7.9-57-11-82.1-26.8c-6.3-3.3-13.1-8.2-17.3-13c-6.8-4.9-9.9-11.8-13.5-17.7c-8.8-11.3-18.2-21.5-27-32.7
			c-10.4-13.4-22.9-25.3-29-41.8c-1.5-4.8-0.3-14.8,7.6-12c2.1,1.1,4.2,4.8,6.8,4.9c4.2-0.5,5.4-5.2,6-8.9c0.6-3.7-1-5.8,3.8-7.3
			c2.1-1.6,6.9-0.4,10.1-1.4c6.3,0.6,13.2,0.2,19.6,0.9c15.3,1.3,32.8,1.1,47.5,6.1c25.8,6.8,48.3,25.1,68.1,40.8
			c21.4,17.8,43.4,34.6,53.5,61.2c4.5,14.4,7,27.6,9.9,42.5c1.4,12.7,4.9,23.9,9.5,35.6"/>
	</g>
	<g>
		<path fill="#718A3A" d="M387.7,631.3c2.9-15.8,2.7-33.3,4.5-49.7c1.2-7.4,2.4-14.8,2.5-22.7c0.1-7.9-2.9-17.5-5.4-25.5
			c-2.5-8-2.4-15.9-4.9-23.9c-1.5-4.8-3.6-8.5-5.6-12.3c-1.5-4.8-1.4-10.1-2.9-14.9c-5.5-17.6-15.9-33.6-28.9-47.1
			c-8.3-9.7-17.7-19.9-27.6-29c-10.4-13.4-24.5-22.1-39.2-29.8c-5.2-2.7-10.5-5.5-15.7-8.2c-3.1-1.6-14.7-5-17.9-4
			c-6.4,2-4,17.9-4.1,23.2c-0.1,7.9,0.3,14.8,1.2,23.3c2.2,26.5,10.3,49.4,22.1,72.9c5.1,10.7,11.8,20.8,19.6,28.9
			c0.5,1.6,3.1,4.3,4.2,4.8c2.1,1.1,5.8-1,7.9,0.1c3.1,1.6,4.5,14.4,7.1,17.1c13.4,20.3,29,36.5,44.1,53.7
			c6.8,7.5,11.4,16.6,18.7,23.1c7.3,6.5,16.8,11.4,20.3,22.6c0.5-1,0.5-1-0.5-1.6"/>
	</g>
	<g>
		<path fill="#718A3A" d="M396.8,624c2,6.4,11.5,11.3,16.2,15.1c6.3,5.9,14.1,11.3,22,16.8c11.5,8.7,25.1,15.8,37.2,23.4
			c4.7,3.8,12,7.6,16.2,12.4c3.6,5.9,2.4,13.3,6.5,20.8c6.7,10.2,19.8,21,31.9,25.9c-3.1-4.3-7.3-9.1-12-12.9
			c-5.8-4.3-14.6-12.9-1.3-15.4c14.9-2.9,34.3,5.9,48.5,9.3c10.5,2.8,21.1,5.6,31.1,9.5c6.3,3.3,14.7,5,19.4,8.8
			c2.6,2.7,3.6,5.9,6.8,7.5c3.1,1.6,6.8,2.2,10.5,2.8c5.8,1.7,11,4.4,15.7,8.2c14.7,10.3,23.4,24.2,31.1,40.2
			c7.2,14.4,16.5,27.3,25.3,41.2c8.3,12.3-3.4,14.2-14.5,15.1c-12.7,1.4-27-2-39.6-3.3c-9-0.7-18.5-0.3-28.1,0.1
			c-4.2,0.5-6.9,0.4-10.6-0.2c-5.3-0.1-5.8-1.7-9.4-4.9c-6.8-4.9-12.6-6.6-18-1.4c-7,5.7-10.2,9.4-19.7,7.1
			c-13.7-1.8-23.1-9.4-34.7-15.4c-11.5-6-32.6-14.3-35.5-29.2c-2-9,3.4-14.2-8.7-16.6c-6.8-2.2-16.4,0.8-23.2-4.1
			c-13.1-10.8-18.6-25.7-26.4-39.1c-8.7-16.6-15.3-34.7-17.1-54.3c0-2.6-0.4-6.9-2.5-10.6c-1-3.2-3.6-5.9-5.2-8
			c-3.1-6.9-0.3-14.8-2.3-21.2c-3.1-6.9-11-9.7-16.2-15.1c-2.6-5.3-7.7-13.4-7.6-18.7c1.1-2.1,0-2.6,1.1-4.7
			c3.1,1.6,6.3,3.3,9.4,4.9"/>
	</g>
	<g>
		<g>
			<path fill="#B2B14B" d="M308.7,606.4c0.3,0,0.3-0.5,0-0.5C308.4,605.9,308.4,606.4,308.7,606.4L308.7,606.4z"/>
		</g>
	</g>
	<g opacity="0.6">
		<g>
			<path fill="#B2B14B" d="M308.1,605.9c2.3-4.4-4.4-12.1-7-15.2c-2.7-3.2-5.7-6.1-8.6-9c-3.3-3.4-6.2-7.2-9.5-10.7
				c-13.9-14.5-30.9-25.6-46.5-38.2c-15.2-12.2-30.1-24.8-46.1-36c-9-6.4-17.6-13.4-26.3-20.2c-7.5-5.9-15.2-11-23.4-15.9
				c-9.8-5.9-18.8-13.3-29.2-18.2c-9.4-4.4-20.2-3.7-29.5-8.2c-0.6-0.3-1.1,0.6-0.5,0.9c7.4,3.5,15.6,3.5,23.4,5.8
				c9.5,2.9,17.6,9.1,25.7,14.5c7.5,5.1,15.6,9.2,23,14.3c8.8,6.1,17,13.2,25.4,19.9c14.9,11.7,30.5,22.6,45.2,34.6
				c14.9,12.1,30.7,23.2,45.3,35.6c7.8,6.6,14.2,14.1,21.1,21.5c3.2,3.4,6.7,6.4,9.6,10c2.2,2.7,8.8,10.3,6.8,14
				C306.9,606,307.8,606.5,308.1,605.9L308.1,605.9z"/>
		</g>
	</g>
	<g opacity="0.6">
		<g>
			<path fill="#B2B14B" d="M387.6,630.8c-1.7,0.5-0.7,0.6-1.3-1.2c-0.5-1.3-0.3-3.1-0.4-4.4c-0.2-2.8-0.4-5.6-0.8-8.4
				c-0.7-5-1.8-10-3-14.9c-2.5-10.9-4.4-21.9-7.6-32.6c-3-9.9-6.3-20-10.6-29.4c-4.3-9.5-10.2-18.3-14.5-27.8
				c-8.9-19.6-19.2-38.4-27.7-58.2c-4-9.3-6.4-18.5-12.4-26.7c-5.6-7.7-12.2-14.5-18.7-21.4c-14.5-15.3-26.9-32.9-45.8-43
				c-0.6-0.3-1.1,0.6-0.5,0.9c16.9,9.1,28.6,24,41.2,38.1c6.3,7,12.9,13.6,18.9,20.8c3.3,4,6.4,8.2,8.9,12.8c2.7,5,4,10.5,6.1,15.7
				c7.3,18.3,16.7,35.5,25.2,53.2c4.4,9.1,9,17.9,13.8,26.9c5,9.5,8.8,19.4,12.3,29.5c4,11.5,5.9,23.1,8.8,34.8
				c1.5,5.9,3,11.8,4.1,17.8c1.2,6.2,1.3,12.6,2.2,18.8c0,0.3,0.4,0.4,0.6,0.3c0.5-0.2,1.1-0.3,1.6-0.5
				C388.4,631.6,388.2,630.6,387.6,630.8L387.6,630.8z"/>
		</g>
	</g>
	<g opacity="0.6">
		<g>
			<path fill="#B2B14B" d="M396.1,631.3c0.2,0.7-1-2.4-1-2c0-0.6-1.2-0.1,0.2,0c1,0.1,2.7,1.7,3.5,2.2c4.8,3.1,9.5,6.5,14,10
				c7.9,6.3,15.4,13.2,22.2,20.7c7.4,8.1,15.1,16.5,20.9,25.8c5.6,9.1,11,18.4,17.3,27.1c5.7,8,12.3,15,18.8,22.3
				c6.5,7.3,13.1,14.6,20.2,21.4c14.5,13.6,32.2,25.3,50.2,33.9c21.6,10.4,45,14.2,67.7,21.5c0.6,0.2,0.9-0.8,0.3-1
				c-20.3-6.5-41.4-9.9-61-18.4c-18.6-8.1-36.7-19.4-52-32.7c-7.2-6.3-13.8-13.3-20.2-20.4c-6.4-7.1-13.1-14-19-21.5
				c-6.4-8.2-11.8-17-17.2-25.9c-5.1-8.4-10.6-16-17-23.5c-14.4-16.8-30.3-31.5-49.2-43.1c-0.2-0.1-0.6-0.1-0.7,0.2
				c-0.2,0.4-0.4,0.7-0.5,1.1c-0.1,0.2-0.1,0.5,0.2,0.7c0.4,0.6,0.9,1.2,1.3,1.8C395.4,632.2,396.3,631.9,396.1,631.3L396.1,631.3z"
				/>
		</g>
	</g>
	<g opacity="0.3">
		<g opacity="0.6">
			<g>
				<path fill="#B2B14B" d="M263.5,580.6c-4-6.2-8.9-13.6-16.1-16.4c-5.7-2.2-11.7-2.6-17.4-4.6c-5.8-1.9-10.1-5.2-14.3-9.4
					c-4-4-9.4-11.1-15.6-11.4c-7.7-0.4-15.9,1.4-19.6-7c-1.8-4,0-9-0.4-13.1c-0.6-5.5-3.8-7.9-8.5-9.5c-7.1-2.3-14.5-3-21.7-5.1
					c-14-4-18-13.2-12.7-25.8c-14.3-8.1-32.9-8.2-45.5-19.1c-5.4-4.7-8.9-10.3-12.7-16.2c-3.1-4.9-6.4-7.5-10.7-8.8
					c-1.9,2.8-1.9,7.4-1,10.3c6.1,16.5,18.6,28.4,29,41.8c8.8,11.3,18.2,21.5,27,32.7c3.6,5.9,6.7,12.8,13.5,17.7
					c4.2,4.8,11,9.7,17.3,13c25.1,15.8,54.2,18.9,82.1,26.8c9.6,2.8,20.3,5.3,30,8.5C265.3,583.5,264.4,582,263.5,580.6z"/>
			</g>
		</g>
		<g opacity="0.6">
			<g>
				<path fill="#B2B14B" d="M119.3,435.4c12.1,3.8,26.2-6.4,37.4,1.9c4.7,3.4,7,7.9,8.4,13.4c1.8,7.3,4.4,15.7,14.1,14.5
					c8.1-1,24.4-6.4,28.6,4.8c6.3,16.8,21.6,18.1,35.1,26.3c12.4,7.4,20.3,21.9,28.6,33.4c3.9,5.4,6.6,11.8,11.3,16.7
					c4.5,4.7,9.9,8.3,15.1,12.1c-2-10.1-4.2-19.7-7.4-29.9c-10.1-26.6-32.1-43.4-53.5-61.2c-19.9-15.7-42.3-34-68.1-40.8
					c-14.7-5-32.2-4.8-47.5-6.1c-6.3-0.6-13.2-0.2-19.6-0.9c-1.5,0.5-3.2,0.5-4.9,0.5C103,427.2,113.1,433.5,119.3,435.4z"/>
			</g>
		</g>
	</g>
	<g>
		<path fill="#859247" d="M321.3,553.8c-2,7-9,8.1-10.4,17c-0.8,7.6-0.9,14-4.8,21.5c-3.9,7.6-6.6,15.8-10.6,23.3
			c-2.6,5-3.3,6.3,1.7,12.1c3.1,3.2,7.5,7.1,10.6,10.3c18.8,13,43.6,17.9,59.2,34c5.6,4.5,13.7,19.9,21.5,8c2-3.8,2.8-14.6,2.2-19.7
			c-0.6-5.1-5.5-10.9-6.1-16c5.1-0.6,12.6,6.6,15.7,9.8c5.6,4.5,7.5,10.3,7.4,16.6c0.5,5.1-3.4,12.7-0.9,17.1
			c3.7,5.1,12.7,3.4,17.7,2.8c7-1.2,15.9-2.9,19.2-9.2c5.2-6.9,0.8-10.8-3.5-17.9c-5.6-7.7-15.7-13-21.9-19.4
			c-7.5-7.1-16.3-14.9-19.3-24.5c-6.1-12.8-14.9-20.6-24.9-32.2c-7.5-7.1-15.6-16.1-25-22.7c-2.5-1.3-27.1-12.5-27.1-12.5"/>
	</g>
	<g opacity="0.6">
		<g>
			<path fill="#B2B14B" d="M321.3,561.2c3.6,3.4,8.1,5.6,11.5,9.1c3.7,3.7,4.7,8.3,7.2,12.7c3.9,6.7,8.7,11.6,14.9,16.3
				c12.4,9.4,30.5,17.2,24.8,36c-0.2,0.6,0.8,0.9,1,0.3c4.9-16.3-7.5-24.8-19.5-33c-7.9-5.3-15.3-11-20-19.4c-2.2-4-3.4-8.4-6.4-12
				c-3.6-4.3-8.8-6.8-12.9-10.6C321.5,560.1,320.8,560.8,321.3,561.2L321.3,561.2z"/>
		</g>
	</g>
	<g opacity="0.2">
		<g>
			<path fill="#B2B14B" d="M300.8,657.6c-8.6-10-25.1-9.9-37.2-11.3c-0.6-0.1-0.6,0.9,0,1c11.8,1.4,28.1,1.3,36.5,11.1
				C300.5,658.8,301.2,658.1,300.8,657.6L300.8,657.6z"/>
		</g>
	</g>
	<g opacity="0.2">
		<g>
			<path fill="#B2B14B" d="M283.7,670.1c-3.3-5.6-10.4-5.9-16.1-7.3c-10.3-2.4-19.8-7.3-29.9-10.1c-0.6-0.2-0.9,0.8-0.3,1
				c8.6,2.4,16.7,6.1,25.2,8.8c6.3,2,16.6,1.8,20.3,8.2C283.2,671.2,284.1,670.7,283.7,670.1L283.7,670.1z"/>
		</g>
	</g>
	<g opacity="0.2">
		<g>
			<path fill="#B2B14B" d="M272,678.7c-1.3-0.2-0.6,0.1-1.4,0.1c-0.1,0.1-0.3,0.2-0.4,0.3c-0.3,0.4-0.6,0.2-1.1-0.5
				c-2.6-0.5-5.4-2.3-7.9-3.2c-7-2.6-14.2-4.6-21.4-6.4c-14.8-3.6-29.8-6-44.7-9c-0.6-0.1-0.9,0.8-0.3,1
				c25.3,5.1,51.5,8.4,75.3,19.2c0.3,0.1,0.5,0.1,0.7-0.2c0.4-0.1,0.8-0.2,1.2-0.3C272.7,679.7,272.7,678.7,272,678.7L272,678.7z"/>
		</g>
	</g>
	<g opacity="0.2">
		<g>
			<path fill="#B2B14B" d="M255.9,696.9c-5.1-0.5-8.5-4-13-6c-4-1.7-8.2-2.4-12.5-3.1c-10.4-1.6-21-2-31.3-4.6
				c-0.6-0.2-0.9,0.8-0.3,1c10.8,2.8,22,3.1,33,4.9c4.8,0.8,9.5,1.8,13.7,4.3c3.5,2,6.2,4.1,10.3,4.5
				C256.5,698,256.5,697,255.9,696.9L255.9,696.9z"/>
		</g>
	</g>
	<g opacity="0.2">
		<g>
			<path fill="#B2B14B" d="M237.9,714.2c-9-8.2-19.1-15.1-30.6-19.2c-6-2.1-12.6-2.4-18.8-2.8c-7.9-0.5-15.7-1-23.4-2.6
				c-0.6-0.1-0.9,0.8-0.3,1c12.8,2.6,26.4,1.3,39.1,4.4c12.5,3,24,11.5,33.3,20C237.7,715.4,238.4,714.7,237.9,714.2L237.9,714.2z"
				/>
		</g>
	</g>
	<g opacity="0.2">
		<g>
			<path fill="#B2B14B" d="M221.4,728.4c-4.9-6.9-13.3-9.6-21-12.1c-11.7-3.8-24.3-5.2-35.4-10.7c-0.6-0.3-1.1,0.6-0.5,0.9
				c9.9,4.9,20.7,6.1,31.2,9.4c8.7,2.7,19.4,5.2,24.9,13.1C220.9,729.4,221.7,728.9,221.4,728.4L221.4,728.4z"/>
		</g>
	</g>
	<g opacity="0.2">
		<g>
			<path fill="#B2B14B" d="M204.5,739.5c-9.7-1.8-17.6-7.6-26.8-10.5c-10.8-3.4-21.8-3.2-32.7-5.9c-0.6-0.2-0.9,0.8-0.3,1
				c10.9,2.7,22,2.5,32.7,5.9c9.3,2.9,17.1,8.7,26.8,10.5C204.8,740.6,205.1,739.6,204.5,739.5L204.5,739.5z"/>
		</g>
	</g>
	<g opacity="0.2">
		<g>
			<path fill="#B2B14B" d="M182.9,752.4c-4.3,0.4-8.3-1.5-12.2-3c-4.3-1.7-8.8-2.8-13.3-3.9c-10.9-2.7-22.1-3.3-32.9-6.3
				c-0.6-0.2-0.9,0.8-0.3,1c11.4,3.2,23.3,3.6,34.7,6.7c4.4,1.2,8.5,2.3,12.8,3.9c3.6,1.4,7.2,2.9,11.1,2.5
				C183.6,753.3,183.6,752.3,182.9,752.4L182.9,752.4z"/>
		</g>
	</g>
	<g opacity="0.2">
		<g>
			<path fill="#B2B14B" d="M165.3,768.5c-16.1-2.7-31.8-5.5-48.2-5c-0.6,0-0.6,1,0,1c16.3-0.5,32,2.3,48,5
				C165.7,769.6,166,768.6,165.3,768.5L165.3,768.5z"/>
		</g>
	</g>
	<g opacity="0.2">
		<g>
			<path fill="#B2B14B" d="M142.8,780.4c1.2,8.5-3.4,16.8-6.2,24.5c-0.2,0.6,0.7,0.9,1,0.3c2.9-8,7.5-16.3,6.2-25
				C143.7,779.5,142.7,779.8,142.8,780.4L142.8,780.4z"/>
		</g>
	</g>
	<g opacity="0.2">
		<g>
			<path fill="#B2B14B" d="M171.7,765.8c-1.1,3-0.6,5.8-0.6,8.8c0,3.7-0.8,7.8-1.2,11.5c-0.4,4.3-1.2,8.4-2.7,12.4
				c-1.3,3.3-2.6,6.5-3.1,10.1c-0.1,0.6,0.9,0.9,1,0.3c1-7.2,4.7-13.6,5.7-20.9c0.4-3.4,0.9-7,1.2-10.4c0.3-3.8-0.7-7.8,0.7-11.5
				C172.9,765.4,171.9,765.2,171.7,765.8L171.7,765.8z"/>
		</g>
	</g>
	<g opacity="0.2">
		<g>
			<path fill="#B2B14B" d="M192.6,748.9c2.3,16.4,2,33.7-5.5,48.8c-0.3,0.6,0.6,1.1,0.9,0.5c7.7-15.3,8-32.9,5.6-49.5
				C193.5,748,192.5,748.3,192.6,748.9L192.6,748.9z"/>
		</g>
	</g>
	<g opacity="0.2">
		<g>
			<path fill="#B2B14B" d="M212.8,740.8c0.8,4.8,3.6,8.8,5.1,13.3c1.6,5.1,2.3,10.5,2.9,15.8c1.3,11.1-1.8,22.3-3.2,33.3
				c-0.1,0.6,0.9,0.6,1,0c1.3-10.3,4.5-21.4,3.4-31.9c-0.6-5.2-1.2-10.7-2.6-15.7c-1.4-5.2-4.7-9.8-5.6-15.1
				C213.7,739.9,212.7,740.2,212.8,740.8L212.8,740.8z"/>
		</g>
	</g>
	<g opacity="0.2">
		<g>
			<path fill="#B2B14B" d="M228.5,723.4c-0.2,5.7,2.6,10.4,4.3,15.8c1.8,5.9,2,12.3,3.8,18.3c1.9,6.5,2.6,12.9,2.7,19.6
				c0,5.6-2.5,10.3-2.9,15.8c0,0.6,1,0.6,1,0c0.4-5.5,3.1-10.2,2.9-15.8c-0.2-5.5-0.2-11-1.6-16.4c-1.7-6.4-3.2-12.3-4.2-18.8
				c-1-6.5-5.2-11.7-5-18.5C229.5,722.8,228.5,722.8,228.5,723.4L228.5,723.4z"/>
		</g>
	</g>
	<g opacity="0.2">
		<g>
			<path fill="#B2B14B" d="M244.6,705.2c0.3,5.4,3.3,9.9,5.8,14.6c3.2,6,5.4,12.8,7.3,19.3c2.3,7.6,2.4,16.1,2.7,24
				c0.2,4.1-0.4,7.5-1.8,11.3c-1,2.6-1.8,5-2,7.8c-0.1,0.6,0.9,0.6,1,0c0.3-3.8,2-6.9,3.1-10.5c0.9-2.9,0.9-5.5,0.7-8.6
				c-0.3-6.6-0.7-13.3-1.7-19.9c-1-6.5-3.7-13.4-6.2-19.5c-2.6-6.1-7.5-11.7-7.8-18.5C245.6,704.5,244.6,704.5,244.6,705.2
				L244.6,705.2z"/>
		</g>
	</g>
	<g opacity="0.2">
		<g>
			<path fill="#B2B14B" d="M260.4,691c10.1,9.8,16.1,21.8,19.5,35.4c1.7,6.6,4.3,13.1,5.7,19.7c1.6,7.7-1.6,15.1-0.7,22.8
				c0.1,0.6,1.1,0.6,1,0c-0.9-7.8,2.3-15.2,0.7-23c-1.5-7.1-4.2-14.1-6.1-21.2c-3.5-13.2-9.6-24.8-19.4-34.4
				C260.6,689.8,259.9,690.5,260.4,691L260.4,691z"/>
		</g>
	</g>
	<g opacity="0.2">
		<g>
			<path fill="#B2B14B" d="M273.3,676.4c9.9,9.1,18,22.5,21.8,35.4c1.8,6.2,4.9,12.2,6.3,18.5c1.9,8.6,0.8,17.4-3.1,25.3
				c-0.3,0.6,0.6,1.1,0.9,0.5c3.2-6.6,4.7-13.8,4-21.1c-0.8-7.8-4.5-14.5-6.7-21.9c-4-13.8-11.9-27.6-22.5-37.4
				C273.6,675.2,272.8,675.9,273.3,676.4L273.3,676.4z"/>
		</g>
	</g>
	<g opacity="0.2">
		<g>
			<path fill="#B2B14B" d="M288.2,665.4c3.1,5.2,7,9.9,9.8,15.3c3.1,5.9,4.9,12.3,7,18.6c4,12,10.1,23.6,6.3,36.6
				c-0.2,0.6,0.8,0.9,1,0.3c3.6-12.6-1.7-24-5.8-35.7c-2.1-6-3.7-12.2-6.4-17.9c-2.9-6.3-7.5-11.6-11-17.6
				C288.8,664.3,287.9,664.8,288.2,665.4L288.2,665.4z"/>
		</g>
	</g>
	<g opacity="0.2">
		<g>
			<path fill="#B2B14B" d="M311.9,656.4c10.6,6,14.5,18.4,17.3,29.5c3.5,13.8,4.1,28-0.2,41.7c-0.2,0.6,0.8,0.9,1,0.3
				c4.5-14.4,3.7-29.1-0.1-43.6c-2.9-11-7-22.9-17.4-28.7C311.8,655.3,311.3,656.1,311.9,656.4L311.9,656.4z"/>
		</g>
	</g>
	<g opacity="0.2">
		<g>
			<path fill="#B2B14B" d="M290.8,581.6c-1.3-0.8-2.4-3.6-3.5-4.9c-1.2-1.5-2.6-2.7-4.2-3.8c-4-2.7-8.7-3.9-13.3-4.9
				c-12.8-2.8-25.7-4.7-38.8-5.5c-0.6,0-0.6,1,0,1c12.6,0.7,25.2,2.5,37.6,5.2c4.8,1.1,9.8,2.2,14,5c3.1,2.1,4,4.5,6.3,7.4
				c0.6,0.7,0.5,0.8,1.4,1.3C290.9,582.8,291.4,582,290.8,581.6L290.8,581.6z"/>
		</g>
	</g>
	<g opacity="0.2">
		<g>
			<path fill="#B2B14B" d="M252.9,547.3c-4.2-7.7-18.6-5-25.5-4.2c-8.8,1-17.8,0-26.7,1.1c-8.7,1.1-16.9,4.5-25.6,5.3
				c-0.6,0.1-0.6,1.1,0,1c6.9-0.6,13.3-3.1,20.1-4.4c8.9-1.7,17.9-1.9,27-1.7c4.7,0.1,9.4-0.9,14.1-1.1c4.9-0.1,13-0.5,15.7,4.5
				C252.4,548.4,253.2,547.9,252.9,547.3L252.9,547.3z"/>
		</g>
	</g>
	<g opacity="0.2">
		<g>
			<path fill="#B2B14B" d="M219.6,520.6c-5.5,0.2-10.9-2.4-16.5-2.6c-6-0.2-11.3,1.5-16.9,3.4c-13.4,4.4-26.7,10.1-40.9,11.2
				c-0.6,0-0.6,1,0,1c13.3-1,25.5-6.1,38.1-10.2c6.4-2.1,12.8-4.7,19.7-4.3c5.6,0.3,10.9,2.7,16.5,2.6
				C220.2,521.6,220.2,520.6,219.6,520.6L219.6,520.6z"/>
		</g>
	</g>
	<g opacity="0.2">
		<g>
			<path fill="#B2B14B" d="M198.7,500.3c-4.6-7-18.5-3.3-25-2.1c-15.1,2.9-30.2,5.1-45,9.7c-0.6,0.2-0.4,1.2,0.3,1
				c7.6-2.4,15.2-4.4,23-5.9c5.7-1.1,11.5-1.6,17.2-2.8c4.9-1,9.8-2.1,14.8-2.5c4.3-0.4,11.2-1.1,13.9,3.1
				C198.1,501.4,199,500.9,198.7,500.3L198.7,500.3z"/>
		</g>
	</g>
	<g opacity="0.2">
		<g>
			<path fill="#B2B14B" d="M168.8,480.8c-4.1-7.6-19.9-6.8-27-6.5c-12.3,0.5-25.2,0.7-35.2,9.1c-0.5,0.4,0.2,1.1,0.7,0.7
				c9.6-8.1,21.8-8.1,33.6-8.7c4.6-0.2,9.3-0.1,13.8,0.5c4.2,0.5,11,1.3,13.2,5.5C168.3,481.9,169.1,481.4,168.8,480.8L168.8,480.8z
				"/>
		</g>
	</g>
	<g opacity="0.2">
		<g>
			<path fill="#B2B14B" d="M129.8,455c-8.4-2.1-16.6,0.4-25,1c-6.9,0.5-14.2,0.9-19.9,5.2c-0.5,0.4,0,1.2,0.5,0.9
				c6-4.5,13.6-4.5,20.8-5.1c7.9-0.6,15.5-2.9,23.4-1C130.1,456.2,130.4,455.2,129.8,455L129.8,455z"/>
		</g>
	</g>
	<g opacity="0.2">
		<g>
			<path fill="#B2B14B" d="M264.6,553.6c0.4-7,2-13.4,1.3-20.5c-0.6-5.6-2.7-12.9-5.8-17.6c-1.4-2.1-3.2-3.8-5-5.5
				c-2.3-2.4-3.8-5.1-5.2-8.1c-2.3-5.1-4.3-10.5-8.8-14.2c-0.5-0.4-1.2,0.3-0.7,0.7c4.6,3.8,6.5,9.3,8.9,14.6
				c2.1,4.6,5.1,7.2,8.3,11c4.3,5,7,14.3,7.3,20.8c0.3,6.4-1.1,12.4-1.4,18.8C263.5,554.2,264.5,554.2,264.6,553.6L264.6,553.6z"/>
		</g>
	</g>
	<g opacity="0.2">
		<g>
			<path fill="#B2B14B" d="M226.9,525.9c-0.8-6.2,0.2-12-1.1-18.2c-1.5-7-4.2-13.7-5.4-20.8c-1.7-10.1-2.4-20.3-12.2-25.9
				c-0.6-0.3-1.1,0.5-0.5,0.9c10.6,6,9.9,17.4,12.2,27.8c1.4,6.1,3.6,12.1,5,18.2c1.3,6.1,0.3,11.8,1.1,17.9
				C226,526.6,227,526.6,226.9,525.9L226.9,525.9z"/>
		</g>
	</g>
	<g opacity="0.2">
		<g>
			<path fill="#B2B14B" d="M197.7,500.1c-0.7-6.8,1.5-13.3,0.6-20.1c-0.8-5.7-2.4-12.3-4.8-17.4c-2.5-5.5-4.8-11-7.1-16.6
				c-1.4-3.5-3.3-5.8-7.1-6.5c-0.6-0.1-0.9,0.9-0.3,1c5.7,1,6.7,6.8,8.5,11.4c1.8,4.8,4.8,9.3,6.3,14.2c1.7,5.5,3.3,11.4,3.7,17.1
				c0.4,5.7-1.4,11.2-0.8,16.9C196.7,500.7,197.8,500.7,197.7,500.1L197.7,500.1z"/>
		</g>
	</g>
	<g opacity="0.2">
		<g>
			<path fill="#B2B14B" d="M171.5,483.7c-0.4-7.3,0.4-14.6-2.5-21.4c-2.4-5.7-6.2-11.1-10-15.9c-2.6-3.3-4.8-6.2-6.3-10.1
				c-0.8-2.1-1.5-4.2-2.6-6.1c-2-3.5-4.8-5.3-8.9-5.2c-0.6,0-0.6,1,0,1c6.5-0.3,8.6,5.4,10.5,10.5c1.5,4.1,3.9,7.1,6.5,10.5
				c4,5.1,8.1,11,10.3,17.1c2.3,6.2,1.5,13.1,1.8,19.6C170.5,484.4,171.5,484.4,171.5,483.7L171.5,483.7z"/>
		</g>
	</g>
	<g opacity="0.2">
		<g>
			<path fill="#B2B14B" d="M139.1,458.9c-0.3-5.2-0.4-10.5-2.5-15.4c-2.6-6-6.4-11.5-10.3-16.8c-0.4-0.5-1.2,0-0.9,0.5
				c3.2,4.5,6.3,9,8.8,13.9c3,5.8,3.5,11.4,3.9,17.8C138.1,459.5,139.1,459.5,139.1,458.9L139.1,458.9z"/>
		</g>
	</g>
	<g opacity="0.2">
		<g>
			<path fill="#B2B14B" d="M109.7,443.7c1.4-5.8-1.8-14.7-8-16.6c-0.6-0.2-0.9,0.8-0.3,1c5.6,1.7,8.6,10.1,7.3,15.4
				C108.6,444,109.5,444.3,109.7,443.7L109.7,443.7z"/>
		</g>
	</g>
	<g opacity="0.2">
		<g>
			<path fill="#B2B14B" d="M398.2,690.9c-0.1-0.4-0.2-0.7-0.4-1.1c0.1-0.4-0.3-0.7-0.6-0.6c-8.2,1.7-10.9,8.3-12.8,15.7
				c-2.8,10.8-6.5,22.5-15.1,30c-0.5,0.4,0.2,1.1,0.7,0.7c7.8-6.8,11.9-17.3,14.5-27.1c1.2-4.5,2-9.6,4.8-13.5
				c1.2-1.6,5-5.3,7.2-4.9c0.2,0,0.4,0.8,1,1.5C397.9,692.1,398.6,691.4,398.2,690.9L398.2,690.9z"/>
		</g>
	</g>
	<g opacity="0.2">
		<g>
			<path fill="#B2B14B" d="M410.4,709.7c-3.1,3.3-7.6,5.7-10.3,9.4c-2.9,3.9-4.7,9.1-7,13.4c-4.9,9.2-11.5,17.3-16.4,26.5
				c-0.3,0.6,0.6,1.1,0.9,0.5c4.6-8.7,10.8-16.4,15.6-24.9c2.3-4.1,4.2-8.5,6.6-12.6c2.8-4.9,7.6-7.6,11.4-11.6
				C411.5,709.9,410.8,709.2,410.4,709.7L410.4,709.7z"/>
		</g>
	</g>
	<g opacity="0.2">
		<g>
			<path fill="#B2B14B" d="M420.6,738.9c-7.8,3.8-14.1,11.1-19.4,17.7c-5.6,6.9-5.7,17.5-12.6,23.1c-0.5,0.4,0.2,1.1,0.7,0.7
				c6.8-5.5,6.6-15.2,11.6-21.9c5.3-7,12.2-14.9,20.2-18.8C421.7,739.5,421.2,738.6,420.6,738.9L420.6,738.9z"/>
		</g>
	</g>
	<g opacity="0.2">
		<g>
			<path fill="#B2B14B" d="M431,766.5c0.6,0,0.6-1,0-1C430.4,765.5,430.4,766.5,431,766.5L431,766.5z"/>
		</g>
	</g>
	<g opacity="0.2">
		<g>
			<path fill="#B2B14B" d="M432.3,765c-7.1,4.3-14.7,7.8-20.5,14c-5.6,6-8.1,14.3-12.6,21.1c-0.4,0.5,0.5,1,0.9,0.5
				c4.4-6.7,6.9-15,12.4-20.9c5.7-6.1,13.2-9.6,20.3-13.8C433.4,765.6,432.9,764.7,432.3,765L432.3,765z"/>
		</g>
	</g>
	<g opacity="0.2">
		<g>
			<path fill="#B2B14B" d="M437.9,787.8c-9,1.6-13.1,13.7-16.4,20.8c-5.3,11.1-8.9,25.1-18.6,33.3c-0.5,0.4,0.2,1.1,0.7,0.7
				c9.1-7.6,11.9-19.5,16.9-29.8c3.8-7.7,8-22.4,17.7-24C438.8,788.7,438.5,787.7,437.9,787.8L437.9,787.8z"/>
		</g>
	</g>
	<g opacity="0.2">
		<g>
			<path fill="#B2B14B" d="M447.6,820.2c-1.5,11-14.8,17.3-21.5,24.9c-7.6,8.5-9.7,19.9-12.8,30.5c-0.2,0.6,0.8,0.9,1,0.3
				c3.7-12.9,6.5-25.2,17-34.5c6.4-5.7,16.1-11.9,17.3-21.2C448.7,819.6,447.7,819.6,447.6,820.2L447.6,820.2z"/>
		</g>
	</g>
	<g opacity="0.2">
		<g>
			<path fill="#B2B14B" d="M456.1,855.1c-4,7.4-10.2,13.2-14.5,20.3c-4.2,7-0.4,15-3.7,22.2c-0.3,0.6,0.6,1.1,0.9,0.5
				c3.2-7.2-0.3-15.1,3.7-22.2c4.1-7.3,10.5-13,14.5-20.3C457.3,855,456.4,854.5,456.1,855.1L456.1,855.1z"/>
		</g>
	</g>
	<g opacity="0.2">
		<g>
			<path fill="#B2B14B" d="M464.2,875.6c-1.1,8.8-9.8,13.5-14.4,20.3c-4.9,7.2-2.6,16.3-4.8,24.3c-0.2,0.6,0.8,0.9,1,0.3
				c1.2-4.3,1.2-8.6,1.5-13c0.4-6.1,2.2-10.4,6.3-14.8c4.7-5.1,10.5-9.8,11.5-17C465.2,874.9,464.2,874.9,464.2,875.6L464.2,875.6z"
				/>
		</g>
	</g>
	<g opacity="0.2">
		<g>
			<path fill="#B2B14B" d="M485,894.4c-0.7,7.3-8.9,11.5-12.8,16.9c-4.2,5.9-5.6,14.4-5.8,21.4c0,0.6,1,0.6,1,0
				c0.3-9.6,3-18.2,9.7-25.1c3.5-3.6,8.4-8,8.9-13.3C486.1,893.8,485.1,893.8,485,894.4L485,894.4z"/>
		</g>
	</g>
	<g opacity="0.2">
		<g>
			<path fill="#B2B14B" d="M493.3,911.8c-3.5,6.6-6.8,13.3-9.9,20.1c-2.7,5.9-5.7,11.5-7.2,17.9c-0.1,0.6,0.8,0.9,1,0.3
				c1.6-6.8,5-12.8,7.8-19.2c2.8-6.3,6-12.4,9.2-18.6C494.4,911.7,493.6,911.2,493.3,911.8L493.3,911.8z"/>
		</g>
	</g>
	<g opacity="0.2">
		<g>
			<path fill="#B2B14B" d="M492.8,904.1c7.8-0.2,15.3,2.5,22,6.2c4.5,2.5,8.5,5,13.8,4.4c0.6-0.1,0.6-1.1,0-1
				c-7.2,0.7-12.8-4.4-19.1-7.1c-5.3-2.3-10.9-3.7-16.7-3.6C492.1,903.1,492.1,904.1,492.8,904.1L492.8,904.1z"/>
		</g>
	</g>
	<g opacity="0.2">
		<g>
			<path fill="#B2B14B" d="M475.2,884.2c9.4-1.6,18.4,3.2,27,6.4c7.8,2.9,16.5,4.4,22,11.2c0.4,0.5,1.1-0.2,0.7-0.7
				c-5.6-7-14.5-8.6-22.4-11.5c-8.8-3.2-17.8-8.1-27.5-6.4C474.3,883.3,474.6,884.3,475.2,884.2L475.2,884.2z"/>
		</g>
	</g>
	<g opacity="0.2">
		<g>
			<path fill="#B2B14B" d="M465.1,865.4c7.9-5.6,22.4,2.7,30,5.7c13.1,5.2,25.9,8.9,37.4,17.7c0.5,0.4,1-0.5,0.5-0.9
				c-12.1-9.2-25.6-12.9-39.4-18.5c-7.4-3-21.2-10.4-29-4.9C464.1,864.9,464.6,865.8,465.1,865.4L465.1,865.4z"/>
		</g>
	</g>
	<g opacity="0.2">
		<g>
			<path fill="#B2B14B" d="M449.8,838.5c2-3.8,13.1,2.1,15.8,3.1c6.6,2.4,13.4,4.3,20,6.8c12.8,4.9,24.5,12.6,36.6,19
				c0.6,0.3,1.1-0.6,0.5-0.9c-14.1-7.4-27.5-16-42.6-21.1c-7.1-2.4-14.1-5.2-21.2-7.6c-2.7-0.9-8.3-3.1-10,0.1
				C448.7,838.6,449.5,839.1,449.8,838.5L449.8,838.5z"/>
		</g>
	</g>
	<g opacity="0.2">
		<g>
			<path fill="#B2B14B" d="M445.7,804.8c13.7-0.5,27.3,7.5,38.8,14.2c2.8,1.7,5.9,3.3,8.4,5.5c3.4,3.1,5.7,7.1,8.6,10.6
				c3.7,4.5,9.6,6.6,12.5,11.9c0.3,0.6,1.2,0.1,0.9-0.5c-1.3-2.4-3.1-4.1-5.2-5.7c-3.7-2.9-6.5-5.2-9.4-9c-2.4-3.1-4.7-6.6-7.9-9.1
				c-2.2-1.7-4.9-3.1-7.4-4.5c-11.5-6.8-25.4-14.9-39.3-14.4C445.1,803.8,445.1,804.8,445.7,804.8L445.7,804.8z"/>
		</g>
	</g>
	<g opacity="0.2">
		<g>
			<path fill="#B2B14B" d="M439.5,669.2c0,4.9,0.4,9.3-0.7,14.1c-1,4.4-1.9,8.7-2.3,13.2c-0.5,5-2,9.2-3.6,13.9
				c-1.2,3.6-3.1,6.9-1.6,10.7c0.2,0.6,1.2,0.3,1-0.3c-1.7-4.4,1.7-10,3.2-14.2c1.4-3.9,1.8-7.7,2.2-11.8c0.5-4.9,2.1-9.6,2.9-14.4
				c0.6-3.7,0.1-7.5,0.1-11.2C440.5,668.6,439.5,668.6,439.5,669.2L439.5,669.2z"/>
		</g>
	</g>
	<g opacity="0.2">
		<g>
			<path fill="#B2B14B" d="M456.6,692.9c1.2,5.9-3.3,11.7-5.1,17.1c-1.8,5.6-4.3,11.2-5.2,17c-0.9,6.1,0.2,12.4,0.7,18.4
				c0.4,4.8,0.7,8.6,3.7,12.6c0.4,0.5,1.3,0,0.9-0.5c-3.9-5.1-3.6-11.8-4.1-17.9c-0.5-6.6-0.6-12.7,1.5-19.1
				c1.9-5.7,3.8-11.5,6.2-17.1c1.5-3.5,3.1-7,2.3-10.8C457.4,692,456.5,692.3,456.6,692.9L456.6,692.9z"/>
		</g>
	</g>
	<g opacity="0.2">
		<g>
			<path fill="#B2B14B" d="M472.7,715.6c-5,10.3-7.1,22.9-7.4,34.3c-0.3,10.1,2.2,20.9,7.9,29.2c0.4,0.5,1.2,0,0.9-0.5
				c-5.7-8.2-8.1-18.8-7.8-28.7c0.3-11.2,2.4-23.7,7.2-33.8C473.8,715.5,473,715,472.7,715.6L472.7,715.6z"/>
		</g>
	</g>
	<g opacity="0.2">
		<g>
			<path fill="#B2B14B" d="M489.7,736.8c-0.3,5.9-2.8,11-4,16.7c-0.9,4.2-0.9,8.8-0.7,13.1c0.4,7.7,2,16,7.7,21.5
				c0.5,0.4,1.2-0.3,0.7-0.7c-6.5-6.2-7.6-16.1-7.5-24.7c0.1-4.6,0.6-9,2-13.4c1.3-4.1,2.6-8.1,2.8-12.4
				C490.8,736.1,489.8,736.1,489.7,736.8L489.7,736.8z"/>
		</g>
	</g>
	<g opacity="0.2">
		<g>
			<path fill="#B2B14B" d="M506.3,758.9c1.1,7,4.4,13.6,6.1,20.4c1.6,6.4,3.2,12.6,4.1,19.1c1.4,9.6,3.9,17.2,12.8,22.1
				c0.6,0.3,1.1-0.6,0.5-0.9c-10.2-5.6-11.3-14.9-12.9-25.4c-0.9-5.9-2.7-11.8-4.2-17.6c-1.6-6-4.5-11.8-5.5-17.9
				C507.2,758,506.2,758.2,506.3,758.9L506.3,758.9z"/>
		</g>
	</g>
	<g opacity="0.2">
		<g>
			<path fill="#B2B14B" d="M537.8,780.2c-8.1,17.5,9.9,37.2,22.6,47c0.5,0.4,1.2-0.3,0.7-0.7c-12.3-9.6-30.3-28.8-22.4-45.8
				C538.9,780.1,538.1,779.6,537.8,780.2L537.8,780.2z"/>
		</g>
	</g>
	<g opacity="0.2">
		<g>
			<path fill="#B2B14B" d="M562,793.4c3.3,3.2,7.7,5.7,10.1,9.8c2.3,3.9,2.7,8.9,3.8,13.2c1.9,7.4,5.7,13.1,11.3,18.2
				c0.5,0.4,1.2-0.3,0.7-0.7c-7.3-6.6-10.1-13.9-12.4-23.3c-0.8-3.2-1.4-6.5-3.4-9.2c-2.6-3.5-6.4-5.8-9.5-8.7
				C562.3,792.2,561.5,792.9,562,793.4L562,793.4z"/>
		</g>
	</g>
	<g opacity="0.2">
		<g>
			<path fill="#B2B14B" d="M590.7,808.3c10.3,0.2,15.3,15.9,19.9,23.2c4.5,7.2,10.3,13.3,19.1,14.5c0.6,0.1,0.9-0.9,0.3-1
				c-11.9-1.6-17.7-12.3-23-21.9c-3.5-6.3-7.7-15.7-16.2-15.9C590.1,807.3,590.1,808.3,590.7,808.3L590.7,808.3z"/>
		</g>
	</g>
	<g opacity="0.2">
		<g>
			<path fill="#B2B14B" d="M617.9,811.8c10.4,5.6,19.8,12.9,28.8,20.5c6.6,5.6,12.9,10.2,21.8,11.1c0.6,0.1,0.6-0.9,0-1
				c-11-1.1-18.3-8.6-26.5-15.3c-7.5-6-15-11.7-23.5-16.2C617.9,810.7,617.4,811.5,617.9,811.8L617.9,811.8z"/>
		</g>
	</g>
	<g opacity="0.2">
		<g>
			<path fill="#B2B14B" d="M457.9,693.8c6.8,3.4,14.3,4.9,21,8.3c0.6,0.3,1.1-0.6,0.5-0.9c-6.8-3.4-14.3-4.9-21-8.3
				C457.8,692.6,457.3,693.5,457.9,693.8L457.9,693.8z"/>
		</g>
	</g>
	<g opacity="0.2">
		<g>
			<path fill="#B2B14B" d="M469.8,712c3.8,1.8,7.9,2.3,11.8,3.7c5.4,1.9,10.5,5.2,15.5,7.8c0.6,0.3,1.1-0.6,0.5-0.9
				c-4.9-2.5-9.8-5.7-14.9-7.7c-4-1.6-8.4-1.9-12.5-3.8C469.7,710.8,469.2,711.7,469.8,712L469.8,712z"/>
		</g>
	</g>
	<g opacity="0.2">
		<g>
			<path fill="#B2B14B" d="M494.9,735.7c8.3,2.9,17.2,3.9,25.2,7.8c0.6,0.3,1.1-0.6,0.5-0.9c-8.1-4-17-4.9-25.4-7.9
				C494.6,734.6,494.3,735.5,494.9,735.7L494.9,735.7z"/>
		</g>
	</g>
	<g opacity="0.2">
		<g>
			<path fill="#B2B14B" d="M506.5,752.3c10.3-3.8,22.3-1.4,33-2.6c4.5-0.5,8.4-3,12.7-4.2c5.9-1.7,11.6-1.4,17.6-0.1
				c0.6,0.1,0.9-0.8,0.3-1c-4.6-1-9.2-1.6-13.9-0.9c-5.6,0.9-10.5,4.2-16,5c-2.5,0.4-5,0.1-7.4,0.3c-3.4,0.3-6.6,0.5-10,0.5
				c-5.7,0-11.2,0-16.6,2C505.7,751.6,505.9,752.6,506.5,752.3L506.5,752.3z"/>
		</g>
	</g>
	<g opacity="0.2">
		<g>
			<path fill="#B2B14B" d="M530.2,771.2c7-4.4,13-8.7,21.5-9.6c7.8-0.8,15.7,0,23.4,0.3c3.8,0.1,7.5,0,11.2,0.4
				c4.3,0.5,8.8,1.5,13.1,1.1c6.6-0.7,13-4,19.3-6.1c0.6-0.2,0.3-1.2-0.3-1c-8.1,2.6-15.9,6.6-24.7,5.9c-8.1-0.7-16.1-1.2-24.2-1.6
				c-7.1-0.3-14.6-1-21.6,0.4c-6.9,1.3-12.5,5.6-18.3,9.3C529.1,770.7,529.6,771.5,530.2,771.2L530.2,771.2z"/>
		</g>
	</g>
	<g opacity="0.2">
		<g>
			<path fill="#B2B14B" d="M566,789.6c3-4.7,10.9-5.3,15.9-6.6c7-2,14-3.5,21.3-4.6c6.8-1,13.7-1.8,20.4-3.3
				c5.4-1.2,11.8-0.7,16.2-4.3c0.5-0.4-0.2-1.1-0.7-0.7c-3.3,2.7-8.6,2.5-12.7,3.4c-3.2,0.7-6.5,1.4-9.8,1.9
				c-7.5,1.1-15.1,2.1-22.6,3.5c-6.3,1.2-12.4,3-18.6,4.7c-3.7,1-8.1,2.1-10.3,5.5C564.8,789.6,565.7,790.1,566,789.6L566,789.6z"/>
		</g>
	</g>
	<g opacity="0.2">
		<g>
			<path fill="#B2B14B" d="M592.3,803.3c7.1-10.1,18.7-13,30.3-14c6.2-0.5,12.3-2,18.6-1.8c4.5,0.1,8.9,1,13.2-0.9
				c0.6-0.3,0.1-1.1-0.5-0.9c-6,2.7-14.3,0.5-20.9,1.2c-5.9,0.7-12,1.2-17.8,2.2c-9.4,1.6-18.2,5.8-23.7,13.7
				C591,803.3,591.9,803.8,592.3,803.3L592.3,803.3z"/>
		</g>
	</g>
	<g opacity="0.2">
		<g>
			<path fill="#B2B14B" d="M612.3,807.6c5.7,2.3,11.2-0.7,17-0.8c8-0.1,16.1,4.6,23,8.3c12,6.4,21.5,16.4,33.5,22.8
				c0.6,0.3,1.1-0.6,0.5-0.9c-12.5-6.7-22.6-17.1-35.2-23.7c-6-3.1-12.7-6.8-19.5-7.5c-6.4-0.6-12.8,3.3-19.1,0.7
				C612,806.3,611.7,807.3,612.3,807.6L612.3,807.6z"/>
		</g>
	</g>
	<g opacity="0.2">
		<g>
			<path fill="#B2B14B" d="M380.1,584.1c-5.9-2.3,0-15.1,0.6-19.1c0.9-6.4,0.3-13.1,0.4-19.6c0.2-12.6-0.8-24.3-7.5-35.3
				c-0.3-0.5-1.2,0-0.9,0.5c8.8,14.5,7.1,30.4,7.4,46.7c0.1,7.3-2.4,13.5-3.6,20.5c-0.6,3.4-0.1,5.9,3.3,7.2
				C380.5,585.3,380.7,584.4,380.1,584.1L380.1,584.1z"/>
		</g>
	</g>
	<g opacity="0.2">
		<g>
			<path fill="#B2B14B" d="M359.1,533.4c0-6.6,3.7-12.3,4.5-18.8c0.8-6.6,0.3-13.5-0.6-20.1c-1.8-14-7.6-27.2-8.9-41.2
				c-0.1-0.6-1.1-0.6-1,0c1.3,13.5,6.8,26.2,8.7,39.6c1,7.3,1.9,15.5,0.6,22.8c-1.1,6-4.3,11.3-4.3,17.5
				C358.1,534.1,359.1,534.1,359.1,533.4L359.1,533.4z"/>
		</g>
	</g>
	<g opacity="0.2">
		<g>
			<path fill="#B2B14B" d="M339.2,487.3c4.6-9.6,3.7-20.5,3.3-30.8c-0.3-8.4,0.7-20.4-5.6-27c-0.4-0.5-1.1,0.2-0.7,0.7
				c6.3,6.6,5,19,5.4,27.5c0.4,9.7,1.1,20.1-3.2,29.1C338,487.4,338.9,487.9,339.2,487.3L339.2,487.3z"/>
		</g>
	</g>
	<g opacity="0.2">
		<g>
			<path fill="#B2B14B" d="M321.7,454.2c5.7-11.5,4.4-21.9-2.6-32.5c-6.5-9.9-14.3-18.3-24.2-24.7c-0.5-0.4-1,0.5-0.5,0.9
				c8.9,5.8,16.1,13.1,22.1,21.8c3.1,4.5,5.9,9.1,7.3,14.6c1.8,7,0.1,13.2-3,19.5C320.6,454.3,321.4,454.8,321.7,454.2L321.7,454.2z
				"/>
		</g>
	</g>
	<g opacity="0.2">
		<g>
			<path fill="#B2B14B" d="M307.4,427.8c0.8-6.8-8.3-12-12.9-15.4c-9.8-7.2-20.7-12.9-33.2-12.9c-0.6,0-0.6,1,0,1
				c11,0,21.3,4.6,30.1,10.8c4.8,3.4,15.9,9.5,15,16.4C306.3,428.4,307.3,428.4,307.4,427.8L307.4,427.8z"/>
		</g>
	</g>
	<g opacity="0.2">
		<g>
			<path fill="#B2B14B" d="M311.9,436.5c-9.5-10.4-26-12.7-39.3-12.4c-0.6,0-0.6,1,0,1c13.1-0.2,29.3,2,38.6,12.1
				C311.6,437.7,312.3,437,311.9,436.5L311.9,436.5z"/>
		</g>
	</g>
	<g opacity="0.2">
		<g>
			<path fill="#B2B14B" d="M331.5,477.4c-3.4,0.4-6.4-3.9-8.7-5.8c-2-1.6-4.1-3.1-6.3-4.5c-5.7-3.7-11.9-6.5-18.1-9
				c-7.1-2.9-14.2-3.3-21.6-5c-6.9-1.6-13.4-4.9-20.5-5.4c-0.6,0-0.6,1,0,1c8,0.6,15.7,4.5,23.6,6.1c3.7,0.7,7.6,1,11.3,1.8
				c3.9,0.9,7.9,2.8,11.5,4.4c6.8,3,12.7,6.6,18.7,11c2.9,2.1,6.2,7.1,10.2,6.6C332.1,478.3,332.1,477.3,331.5,477.4L331.5,477.4z"
				/>
		</g>
	</g>
	<g opacity="0.2">
		<g>
			<path fill="#B2B14B" d="M343.7,506.6c-2.9-7.5-12.3-9.4-19.3-10.4c-14.5-2.1-28.9-5.9-43.2-9c-0.6-0.1-0.9,0.8-0.3,1
				c12.8,2.8,25.7,6.1,38.6,8.4c7.7,1.4,19.8,1.6,23.2,10.3C342.9,507.4,343.9,507.2,343.7,506.6L343.7,506.6z"/>
		</g>
	</g>
	<g opacity="0.2">
		<g>
			<path fill="#B2B14B" d="M362.4,541.5c-4.3-2.5-7.3-6.6-11.6-9.3c-4.7-3-9.6-5.7-14.5-8.3c-9.1-4.8-19.6-7.9-29.8-8.8
				c-0.6-0.1-0.6,0.9,0,1c11.4,1,22.4,4.9,32.4,10.3c4.4,2.4,8.8,4.7,12.9,7.6c3.7,2.5,6.2,6.2,10.1,8.4
				C362.5,542.7,363,541.9,362.4,541.5L362.4,541.5z"/>
		</g>
	</g>
	<g opacity="0.2">
		<g>
			<path fill="#B2B14B" d="M368.4,566c-6.5-3.8-11.1-8.9-18.2-11.9c-5.9-2.5-11.9-3.6-18.3-3.1c-0.6,0.1-0.6,1.1,0,1
				c7.5-0.6,14.3,1.1,21,4.4c5.6,2.7,9.7,7.4,15,10.4C368.4,567.2,368.9,566.3,368.4,566L368.4,566z"/>
		</g>
	</g>
	<g opacity="0.2">
		<g>
			<path fill="#B2B14B" d="M427,336.6c-0.4-5.9,7.1-8.4,10.8-11.4c3.8-3.1,5.8-7.9,7-12.5c0.2-0.6-0.8-0.9-1-0.3
				c-1.1,4-2.8,8.4-5.9,11.3c-1.8,1.7-4.3,2.9-6.3,4.3c-2.9,2.1-6,4.6-5.7,8.5C426,337.2,427,337.2,427,336.6L427,336.6z"/>
		</g>
	</g>
	<g opacity="0.2">
		<g>
			<path fill="#B2B14B" d="M427.3,366.7c6.9-4.7,10.4-13.6,15.2-20.3c4.8-6.7,9.9-14.2,8.5-22.8c-0.1-0.6-1.1-0.4-1,0.3
				c1.4,8.8-4.4,16.5-9.2,23.2c-4.5,6.2-7.6,14.4-14,18.7C426.2,366.2,426.7,367,427.3,366.7L427.3,366.7z"/>
		</g>
	</g>
	<g opacity="0.2">
		<g>
			<path fill="#B2B14B" d="M419.9,395.1c8.2,3.6,16-8.4,19.9-13.8c3.5-4.8,7.3-8.9,11.4-13.3c4.4-4.8,8.5-10,9.4-16.6
				c0.1-0.6-0.9-0.6-1,0c-1.4,11.3-12.2,17.6-18.3,26.2c-3.8,5.3-12.5,20.2-20.8,16.6C419.9,394,419.4,394.9,419.9,395.1
				L419.9,395.1z"/>
		</g>
	</g>
	<g opacity="0.2">
		<g>
			<path fill="#B2B14B" d="M326.4,568.6c-4.8,9.5-7.7,19.9-9.1,30.3c-0.6,4.9-0.5,9.6-0.6,14.5c-0.1,6-1.8,10.5-5.6,15.2
				c-0.4,0.5,0.3,1.2,0.7,0.7c5.8-7.2,5.7-13.7,5.8-22.5c0.2-12.8,3.8-26.3,9.5-37.7C327.5,568.6,326.7,568.1,326.4,568.6
				L326.4,568.6z"/>
		</g>
	</g>
	<g opacity="0.2">
		<g>
			<path fill="#B2B14B" d="M337.7,582.9c-0.1,6.6-0.2,13.1,0.2,19.7c0.4,6.4,1.8,12.8,2,19.2c0.2,5.8-1.2,11.9-2.9,17.4
				c-1.1,3.5-2.2,6.9-0.3,10.2c0.3,0.6,1.2,0.1,0.9-0.5c-2.5-4.4,0.9-10.4,1.8-14.9c1-5.3,1.8-10.2,1.3-15.6
				c-1.3-11.9-2.1-23.4-1.9-35.4C338.7,582.2,337.7,582.2,337.7,582.9L337.7,582.9z"/>
		</g>
	</g>
	<g opacity="0.2">
		<g>
			<path fill="#B2B14B" d="M363.9,601.7c-0.8,5.2-4.2,9-6.1,13.7c-1.8,4.6-2.3,9.7-2,14.7c0.3,4.3,1.2,8.2,2.5,12.3
				c1.7,5.1,3.4,11.5-2,15c-0.5,0.3,0,1.2,0.5,0.9c7-4.5,3.4-12.6,1.5-19c-2.1-6.9-2.3-15.2,0-22.1c1.8-5.4,5.7-9.5,6.6-15.2
				C364.9,601.3,364,601,363.9,601.7L363.9,601.7z"/>
		</g>
	</g>
	<g opacity="0.2">
		<g>
			<path fill="#B2B14B" d="M374.1,614.9c1.4-2.6,1-1.4,1.5,0.3c0.6,2.2,0.6,4.8,0.7,7.1c0.2,4.5-0.2,8.9-1,13.3
				c-1.2,7.2-3.3,14.2-5.5,21.2c-0.2,0.6,0.8,0.9,1,0.3c4.8-14.8,8.7-30.2,5-45.7c-0.1-0.4-0.7-0.5-0.9-0.1c-0.5,1-1.1,2.1-1.6,3.1
				C373,615,373.8,615.5,374.1,614.9L374.1,614.9z"/>
		</g>
	</g>
	<g opacity="0.2">
		<g>
			<path fill="#B2B14B" d="M345.3,587.1c4.1,1.9,8.6,2.1,12.7,3.9c4.4,2,8.6,4.8,12.5,7.5c7.8,5.5,12.7,12,16.4,20.8
				c0.3,0.6,1.1,0.1,0.9-0.5c-3.2-7.6-7.3-14.1-13.9-19.1c-4.2-3.2-8.6-5.9-13.2-8.4c-2.1-1.1-3.8-2.1-6-2.6
				c-3.1-0.7-5.9-1.2-8.8-2.5C345.2,586,344.7,586.8,345.3,587.1L345.3,587.1z"/>
		</g>
	</g>
	<g opacity="0.2">
		<g>
			<path fill="#B2B14B" d="M376.5,627.4c5.9,0.9,12.1,1.7,17.6,4.3c3.7,1.8,6.6,4.3,8.9,7.7c1.5,2.3,2.6,5,4.4,7.1
				c2.1,2.4,4.2,3.9,6,6.6c1.8,2.7,2.4,5.3,2.6,8.5c0.1,2.1-0.1,4.1,0,6.2c0.2,4.6-1.4,8.5-2.6,13c-0.2,0.6,0.8,0.9,1,0.3
				c1-3.8,2.7-7.6,2.8-11.7c0.1-2.9-0.1-6.1-0.3-9c-0.5-5.4-2.9-9.4-6.9-12.9c-5.6-5-7-12.3-14-16c-5.9-3.2-12.7-4.1-19.1-5.1
				C376.2,626.3,375.9,627.3,376.5,627.4L376.5,627.4z"/>
		</g>
	</g>
</g>
</svg>
