<?xml version="1.0" encoding="utf-8"?>
<!-- Generator: Adobe Illustrator 18.0.0, SVG Export Plug-In . SVG Version: 6.00 Build 0)  -->
<!DOCTYPE svg PUBLIC "-//W3C//DTD SVG 1.1//EN" "http://www.w3.org/Graphics/SVG/1.1/DTD/svg11.dtd" [
	<!ENTITY ns_flows "http://ns.adobe.com/Flows/1.0/">
	<!ENTITY ns_extend "http://ns.adobe.com/Extensibility/1.0/">
	<!ENTITY ns_ai "http://ns.adobe.com/AdobeIllustrator/10.0/">
	<!ENTITY ns_graphs "http://ns.adobe.com/Graphs/1.0/">
]>
<svg version="1.1" id="Capa_1" xmlns:x="&ns_extend;" xmlns:i="&ns_ai;" xmlns:graph="&ns_graphs;"
	 xmlns="http://www.w3.org/2000/svg" xmlns:xlink="http://www.w3.org/1999/xlink" xmlns:a="http://ns.adobe.com/AdobeSVGViewerExtensions/3.0/"
	 x="0px" y="0px" viewBox="0 0 750.5 1333.7" enable-background="new 0 0 750.5 1333.7" xml:space="preserve">
<g>
	<path fill="#FFFFFF" d="M149.7,1094.6h26.5c15.3,0,22.9,8.4,22.9,25.1v18c0,7.8-3.1,13.4-9.4,16.6c6.3,3.2,9.4,8.8,9.4,16.6v18
		c0,16.7-8,25-24,25.1h-25.4V1094.6z M166.9,1111.6v34.2h5.4c2.4,0,4-0.2,4.9-0.5c3.1-1.3,4.7-3.8,4.7-7.6v-18
		c0-5.4-2.5-8.2-7.5-8.2H166.9z M166.9,1162.9v34.2h7.5c5,0,7.5-2.7,7.5-8.1v-18c0-3.8-1.6-6.3-4.7-7.5c-0.9-0.4-2.5-0.5-4.9-0.5
		H166.9z"/>
	<path fill="#FFFFFF" d="M261.2,1171.7l5.6,42.4h-17.4l-3.3-25.3h-17.6l-3.4,25.3h-17.3l5.6-42.2l12.2-77.2h23.6L261.2,1171.7z
		 M243.8,1171.7l-6.6-49.7l-6.6,49.7H243.8z"/>
	<path fill="#FFFFFF" d="M277.2,1094.6h25.1c15.3,0,22.9,8.4,22.9,25.1v18c0,10.5-4.5,17.4-13.6,20.8L331,1214h-18.9l-15.5-52.5
		l-2.2,0.3v52.2h-17.2V1094.6z M294.4,1111.6v34.2h4c2.4,0,4-0.2,4.9-0.5c3.1-1.3,4.7-3.8,4.7-7.6v-18c0-5.4-2.5-8.2-7.5-8.2H294.4z
		"/>
	<path fill="#FFFFFF" d="M340.7,1094.6h26.5c15.3,0,22.9,8.4,22.9,25.1v18c0,7.8-3.1,13.4-9.4,16.6c6.3,3.2,9.4,8.8,9.4,16.6v18
		c0,16.7-8,25-24,25.1h-25.4V1094.6z M358,1111.6v34.2h5.4c2.4,0,4-0.2,4.9-0.5c3.1-1.3,4.7-3.8,4.7-7.6v-18c0-5.4-2.5-8.2-7.5-8.2
		H358z M358,1162.9v34.2h7.5c5,0,7.5-2.7,7.5-8.1v-18c0-3.8-1.6-6.3-4.7-7.5c-0.9-0.4-2.5-0.5-4.9-0.5H358z"/>
	<path fill="#FFFFFF" d="M453.1,1190.9c0,16.7-8.3,25.1-24.8,25.1c-16.5,0-24.7-8.4-24.7-25.1v-96.2h17.2v96.2
		c0,5.4,2.5,8.1,7.5,8.1c5,0,7.5-2.7,7.5-8.1v-96.2h17.2V1190.9z"/>
	<path fill="#FFFFFF" d="M508.1,1105l-23.4,92.1h24.4v17h-43.8v-10.3l23.4-92.1h-22.6v-17h42V1105z"/>
	<path fill="#FFFFFF" d="M569.9,1171.7l5.6,42.4h-17.4l-3.3-25.3h-17.6l-3.4,25.3h-17.3l5.6-42.2l12.2-77.2h23.6L569.9,1171.7z
		 M552.5,1171.7l-6.6-49.7l-6.6,49.7H552.5z"/>
	<path fill="#FFFFFF" d="M585.9,1094.6h17.2l16.3,69.3v-69.3h15.9V1214h-17.2l-15.7-67.1v67.1h-16.6V1094.6z"/>
	<path fill="#FFFFFF" d="M699.4,1190.9c0,16.7-8.3,25.1-24.8,25.1c-16.5,0-24.7-8.4-24.7-25.1v-73c0-16.7,8.2-25.1,24.7-25.1
		c16.5,0,24.8,8.4,24.8,25.1V1190.9z M682.2,1117.8c0-5.4-2.5-8.1-7.5-8.1h-0.1c-5,0-7.4,2.7-7.4,8.1v73c0,5.4,2.5,8.1,7.5,8.1
		c5,0,7.5-2.7,7.5-8.1V1117.8z"/>
</g>
<g>
	<path fill="#FFFFFF" d="M184.2,1271.7c0,0.3,0.1,0.6,0,0.8s-0.1,0.4-0.3,0.5s-0.4,0.2-0.7,0.2s-0.7,0-1.3,0c-0.3,0-0.6,0-0.9,0
		s-0.4-0.1-0.6-0.1s-0.2-0.1-0.3-0.2s-0.1-0.2-0.1-0.4l-1.1-7.4h-12.6l-4,7.3c-0.1,0.2-0.2,0.3-0.3,0.4s-0.2,0.2-0.4,0.2
		s-0.4,0.1-0.7,0.1s-0.6,0-1.1,0c-0.5,0-0.8,0-1.1-0.1s-0.5-0.1-0.6-0.2s-0.1-0.3-0.1-0.5s0.2-0.5,0.3-0.8l15.8-28.2
		c0.1-0.2,0.2-0.3,0.4-0.4s0.3-0.2,0.5-0.3s0.5-0.1,0.8-0.1s0.7,0,1.1,0c0.5,0,0.9,0,1.3,0s0.6,0.1,0.8,0.1s0.3,0.2,0.4,0.3
		s0.1,0.3,0.2,0.4L184.2,1271.7z M176.3,1246.9L176.3,1246.9l-8.2,15.1h10.5L176.3,1246.9z"/>
	<path fill="#FFFFFF" d="M214.5,1249.9c0,0.8-0.1,1.7-0.3,2.6s-0.5,1.8-0.9,2.7s-1,1.7-1.6,2.5s-1.4,1.5-2.4,2.1s-2,1.1-3.2,1.4
		s-2.6,0.5-4.2,0.5h-4.2l-2.2,10.9c0,0.1-0.1,0.2-0.2,0.3s-0.2,0.2-0.4,0.2s-0.4,0.1-0.7,0.1s-0.6,0.1-1,0.1c-0.4,0-0.7,0-0.9,0
		s-0.4-0.1-0.6-0.1s-0.2-0.1-0.3-0.2s-0.1-0.2,0-0.3l5.6-28c0.1-0.6,0.4-1.1,0.8-1.3s0.8-0.4,1.4-0.4h6c0.8,0,1.5,0,2.1,0.1
		s1.2,0.1,1.7,0.3c0.8,0.2,1.6,0.5,2.3,0.9s1.3,0.9,1.7,1.4s0.8,1.2,1.1,2S214.5,1249,214.5,1249.9z M210.2,1250.4
		c0-1-0.2-1.8-0.7-2.5s-1.2-1.2-2.2-1.5c-0.4-0.1-0.8-0.2-1.2-0.2s-0.9,0-1.5,0h-3.8l-2.4,12.2h3.8c1.1,0,2-0.1,2.8-0.4s1.4-0.6,2-1
		s1.1-0.9,1.5-1.4s0.7-1.1,1-1.7s0.4-1.2,0.6-1.8S210.2,1250.9,210.2,1250.4z"/>
	<path fill="#FFFFFF" d="M247.2,1253c0,1.2-0.1,2.5-0.3,4s-0.6,3-1.1,4.5s-1.2,3-2.1,4.5s-1.9,2.7-3.2,3.8s-2.7,2-4.5,2.7
		s-3.7,1-5.9,1c-1.8,0-3.3-0.2-4.7-0.7s-2.5-1.1-3.4-2s-1.6-2-2-3.3s-0.7-2.8-0.7-4.5c0-1.3,0.1-2.8,0.4-4.3s0.6-3.1,1.2-4.6
		s1.2-3,2.1-4.4s1.9-2.7,3.2-3.8s2.7-2,4.4-2.6s3.6-1,5.8-1c1.8,0,3.3,0.2,4.7,0.7s2.5,1.1,3.4,2s1.6,2,2,3.3
		S247.2,1251.3,247.2,1253z M242.9,1253.3c0-1.1-0.1-2.1-0.4-3s-0.6-1.7-1.2-2.4s-1.3-1.2-2.2-1.5s-2-0.6-3.3-0.6
		c-1.6,0-3.1,0.3-4.3,0.9s-2.3,1.4-3.2,2.4s-1.6,2.1-2.2,3.3s-1.1,2.5-1.4,3.7s-0.6,2.5-0.8,3.6s-0.2,2.2-0.2,3c0,1.1,0.1,2.1,0.4,3
		s0.6,1.7,1.2,2.3s1.3,1.1,2.2,1.5s2,0.5,3.3,0.5c1.6,0,3-0.3,4.2-0.9s2.3-1.4,3.2-2.3s1.6-2,2.2-3.2s1.1-2.4,1.4-3.7
		s0.6-2.4,0.8-3.6S242.9,1254.2,242.9,1253.3z"/>
	<path fill="#FFFFFF" d="M268.6,1270.5c0,0.1,0,0.2,0,0.4s-0.1,0.4-0.1,0.6s-0.1,0.4-0.1,0.6s-0.1,0.4-0.2,0.6s-0.2,0.3-0.3,0.4
		s-0.3,0.2-0.4,0.2h-13.4c-0.2,0-0.4,0-0.5-0.1s-0.3-0.1-0.4-0.3s-0.2-0.3-0.3-0.5s0-0.5,0-0.8l5.6-28.1c0-0.1,0.1-0.2,0.2-0.3
		s0.2-0.2,0.4-0.2s0.4-0.1,0.7-0.1s0.6-0.1,1-0.1s0.7,0,0.9,0.1s0.5,0.1,0.6,0.1s0.2,0.1,0.3,0.2s0.1,0.2,0,0.3l-5.2,26.2H268
		c0.2,0,0.3,0.1,0.4,0.2S268.6,1270.2,268.6,1270.5z"/>
	<path fill="#FFFFFF" d="M291.2,1270.5c0,0.1,0,0.2,0,0.4s-0.1,0.4-0.1,0.6s-0.1,0.4-0.1,0.6s-0.1,0.4-0.2,0.6s-0.2,0.3-0.3,0.4
		s-0.3,0.2-0.4,0.2h-13.4c-0.2,0-0.4,0-0.5-0.1s-0.3-0.1-0.4-0.3s-0.2-0.3-0.3-0.5s0-0.5,0-0.8l5.6-28.1c0-0.1,0.1-0.2,0.2-0.3
		s0.2-0.2,0.4-0.2s0.4-0.1,0.7-0.1s0.6-0.1,1-0.1s0.7,0,0.9,0.1s0.5,0.1,0.6,0.1s0.2,0.1,0.3,0.2s0.1,0.2,0,0.3l-5.2,26.2h10.9
		c0.2,0,0.3,0.1,0.4,0.2S291.2,1270.2,291.2,1270.5z"/>
	<path fill="#FFFFFF" d="M324.6,1253c0,1.2-0.1,2.5-0.3,4s-0.6,3-1.1,4.5s-1.2,3-2.1,4.5s-1.9,2.7-3.2,3.8s-2.7,2-4.5,2.7
		s-3.7,1-5.9,1c-1.8,0-3.3-0.2-4.7-0.7s-2.5-1.1-3.4-2s-1.6-2-2-3.3s-0.7-2.8-0.7-4.5c0-1.3,0.1-2.8,0.4-4.3s0.6-3.1,1.2-4.6
		s1.2-3,2.1-4.4s1.9-2.7,3.2-3.8s2.7-2,4.4-2.6s3.6-1,5.8-1c1.8,0,3.3,0.2,4.7,0.7s2.5,1.1,3.4,2s1.6,2,2,3.3
		S324.6,1251.3,324.6,1253z M320.3,1253.3c0-1.1-0.1-2.1-0.4-3s-0.6-1.7-1.2-2.4s-1.3-1.2-2.2-1.5s-2-0.6-3.3-0.6
		c-1.6,0-3.1,0.3-4.3,0.9s-2.3,1.4-3.2,2.4s-1.6,2.1-2.2,3.3s-1.1,2.5-1.4,3.7s-0.6,2.5-0.8,3.6s-0.2,2.2-0.2,3c0,1.1,0.1,2.1,0.4,3
		s0.6,1.7,1.2,2.3s1.3,1.1,2.2,1.5s2,0.5,3.3,0.5c1.6,0,3-0.3,4.2-0.9s2.3-1.4,3.2-2.3s1.6-2,2.2-3.2s1.1-2.4,1.4-3.7
		s0.6-2.4,0.8-3.6S320.3,1254.2,320.3,1253.3z"/>
	<path fill="#FFFFFF" d="M353,1271.5c0,0.3-0.1,0.6-0.3,0.8s-0.3,0.4-0.5,0.5s-0.4,0.2-0.6,0.3s-0.4,0.1-0.6,0.1h-1.5
		c-0.4,0-0.8,0-1-0.1s-0.5-0.3-0.7-0.5s-0.4-0.5-0.6-0.9s-0.3-0.8-0.5-1.4l-5.7-16.2c-0.4-1.2-0.8-2.3-1.2-3.5s-0.8-2.3-1.1-3.5h0
		c-0.2,1.3-0.4,2.6-0.7,3.8s-0.5,2.5-0.7,3.8l-3.5,17.7c0,0.1-0.1,0.2-0.2,0.3s-0.2,0.2-0.4,0.2s-0.4,0.1-0.6,0.1s-0.6,0.1-0.9,0.1
		s-0.7,0-0.9-0.1s-0.4-0.1-0.6-0.1s-0.2-0.1-0.2-0.2s0-0.2,0-0.3l5.6-28c0.1-0.6,0.4-1.1,0.8-1.3s0.8-0.4,1.2-0.4h1.9
		c0.4,0,0.7,0,1,0.1s0.5,0.2,0.7,0.4s0.4,0.5,0.5,0.8s0.3,0.7,0.5,1.2l5.7,16.4c0.4,1,0.7,2,1.1,3s0.7,2,1,3.1h0
		c0.2-1.3,0.5-2.6,0.7-4s0.5-2.7,0.8-4l3.3-16.4c0-0.1,0.1-0.2,0.2-0.3s0.2-0.2,0.4-0.2s0.4-0.1,0.6-0.1s0.6,0,0.9,0
		c0.4,0,0.7,0,0.9,0s0.4,0.1,0.6,0.1s0.2,0.1,0.3,0.2s0.1,0.2,0,0.3L353,1271.5z"/>
	<path fill="#FFFFFF" d="M367.3,1272.6c0,0.1-0.1,0.2-0.2,0.3s-0.2,0.2-0.4,0.2s-0.4,0.1-0.7,0.1s-0.6,0.1-1,0.1c-0.4,0-0.7,0-1-0.1
		s-0.4-0.1-0.6-0.1s-0.2-0.1-0.3-0.2s-0.1-0.2,0-0.3l5.8-29.2c0-0.1,0.1-0.2,0.2-0.3s0.2-0.2,0.4-0.2s0.4-0.1,0.6-0.1
		s0.6-0.1,0.9-0.1s0.7,0,0.9,0.1s0.4,0.1,0.6,0.1s0.2,0.1,0.3,0.2s0.1,0.2,0,0.3L367.3,1272.6z"/>
	<path fill="#FFFFFF" d="M400.6,1271.7c0,0.3,0.1,0.6,0,0.8s-0.1,0.4-0.3,0.5s-0.4,0.2-0.7,0.2s-0.7,0-1.3,0c-0.3,0-0.6,0-0.9,0
		s-0.4-0.1-0.6-0.1s-0.2-0.1-0.3-0.2s-0.1-0.2-0.1-0.4l-1.1-7.4h-12.6l-4,7.3c-0.1,0.2-0.2,0.3-0.3,0.4s-0.2,0.2-0.4,0.2
		s-0.4,0.1-0.7,0.1s-0.6,0-1.1,0c-0.5,0-0.8,0-1.1-0.1s-0.5-0.1-0.6-0.2s-0.1-0.3-0.1-0.5s0.2-0.5,0.3-0.8l15.8-28.2
		c0.1-0.2,0.2-0.3,0.4-0.4s0.3-0.2,0.5-0.3s0.5-0.1,0.8-0.1s0.7,0,1.1,0c0.5,0,0.9,0,1.3,0s0.6,0.1,0.8,0.1s0.3,0.2,0.4,0.3
		s0.1,0.3,0.2,0.4L400.6,1271.7z M392.7,1246.9L392.7,1246.9l-8.2,15.1H395L392.7,1246.9z"/>
	<path fill="#FFFFFF" d="M427.6,1245.1c0,0.1,0,0.3,0,0.4s0,0.3-0.1,0.5s-0.1,0.4-0.1,0.6s-0.1,0.4-0.2,0.5s-0.2,0.3-0.3,0.4
		s-0.2,0.1-0.3,0.1c-0.2,0-0.4-0.1-0.7-0.3s-0.7-0.4-1.2-0.6s-1-0.4-1.7-0.6s-1.4-0.3-2.3-0.3c-1,0-1.8,0.1-2.5,0.4
		s-1.3,0.7-1.8,1.2s-0.8,1.1-1.1,1.7s-0.4,1.3-0.4,1.9c0,0.7,0.2,1.3,0.5,1.8s0.7,1,1.2,1.4s1.1,0.8,1.7,1.2s1.3,0.8,1.9,1.1
		s1.3,0.8,1.9,1.3s1.2,1,1.7,1.5s0.9,1.3,1.2,2s0.5,1.6,0.5,2.6c0,1.3-0.3,2.6-0.8,3.7s-1.3,2.2-2.3,3s-2.2,1.6-3.6,2.1
		s-3,0.8-4.8,0.8c-1,0-1.8-0.1-2.7-0.2s-1.6-0.4-2.2-0.6s-1.2-0.5-1.7-0.8s-0.8-0.5-1-0.7s-0.3-0.5-0.3-0.9c0-0.1,0-0.2,0-0.4
		s0.1-0.4,0.1-0.6s0.1-0.4,0.2-0.6s0.1-0.4,0.2-0.5s0.2-0.3,0.3-0.4s0.2-0.2,0.4-0.2c0.2,0,0.6,0.1,0.9,0.4s0.8,0.5,1.4,0.8
		s1.2,0.6,2,0.8s1.7,0.4,2.7,0.4c1.1,0,2.1-0.2,2.9-0.5s1.6-0.7,2.2-1.2s1-1.1,1.3-1.8s0.5-1.5,0.5-2.2c0-0.7-0.1-1.3-0.4-1.8
		s-0.7-1-1.2-1.4s-1-0.8-1.7-1.2s-1.3-0.7-1.9-1.1s-1.3-0.8-1.9-1.3s-1.2-1-1.7-1.5s-0.9-1.3-1.2-2s-0.5-1.6-0.5-2.7
		c0-1.2,0.2-2.4,0.7-3.5s1.2-2,2.1-2.8s2-1.5,3.2-1.9s2.7-0.7,4.2-0.7c0.8,0,1.5,0.1,2.1,0.2s1.3,0.3,1.8,0.5s1,0.4,1.4,0.6
		s0.7,0.4,0.8,0.5s0.2,0.3,0.3,0.4S427.6,1244.9,427.6,1245.1z"/>
	<path fill="#FFFFFF" d="M468,1248.7c0,1-0.1,1.9-0.4,2.7s-0.6,1.6-1.1,2.4s-1.1,1.4-1.7,1.9s-1.4,1-2.3,1.4
		c0.7,0.1,1.3,0.4,1.8,0.7s1.1,0.7,1.5,1.2s0.7,1.1,0.9,1.7s0.3,1.4,0.3,2.2c0,0.8-0.1,1.7-0.3,2.5s-0.6,1.6-1,2.4s-1,1.5-1.7,2.1
		s-1.4,1.2-2.3,1.7s-1.9,0.9-3,1.1s-2.4,0.4-3.8,0.4h-8c-0.5,0-0.9-0.1-1.2-0.4s-0.3-0.7-0.2-1.3l5.4-27c0.1-0.6,0.4-1,0.8-1.3
		s0.8-0.4,1.2-0.4h6.5c1.5,0,2.8,0.1,3.9,0.4s1.9,0.6,2.6,1.1s1.2,1.1,1.6,1.9S468,1247.8,468,1248.7z M462.8,1263.2
		c0-1.3-0.5-2.3-1.4-3s-2.3-1.1-4.3-1.1h-5.2l-2.1,10.7h5.6c1.3,0,2.4-0.2,3.2-0.6s1.6-0.9,2.2-1.5s1-1.3,1.4-2.1
		S462.8,1264.1,462.8,1263.2z M463.7,1249.5c0-0.5-0.1-1-0.3-1.4s-0.4-0.8-0.8-1s-0.9-0.5-1.5-0.7s-1.4-0.2-2.3-0.2h-4.3l-1.9,9.8
		h4.6c1.2,0,2.2-0.2,3-0.6s1.4-0.9,2-1.6s0.9-1.3,1.1-2.1S463.7,1250.2,463.7,1249.5z"/>
	<path fill="#FFFFFF" d="M498.7,1262.1c-0.4,1.9-1,3.6-1.8,5s-1.8,2.6-3,3.6s-2.5,1.7-4,2.2s-3.1,0.7-4.8,0.7
		c-1.8,0-3.4-0.2-4.7-0.7s-2.4-1.2-3.2-2.2s-1.3-2.2-1.6-3.6s-0.2-3.1,0.2-5.1l3.7-18.5c0-0.1,0.1-0.2,0.2-0.3s0.2-0.2,0.4-0.2
		s0.4-0.1,0.6-0.1s0.6-0.1,1-0.1s0.7,0,1,0.1s0.4,0.1,0.6,0.1s0.2,0.1,0.3,0.2s0,0.2,0,0.3l-3.7,18.5c-0.3,1.4-0.3,2.6-0.2,3.6
		s0.4,1.9,0.9,2.6s1.2,1.2,2,1.5s1.9,0.5,3.1,0.5c1.2,0,2.3-0.2,3.2-0.5s1.9-0.9,2.6-1.6s1.4-1.6,2-2.6s0.9-2.2,1.2-3.5l3.7-18.5
		c0-0.1,0.1-0.2,0.2-0.3s0.2-0.2,0.4-0.2s0.4-0.1,0.6-0.1s0.6-0.1,1-0.1c0.4,0,0.7,0,0.9,0.1s0.4,0.1,0.6,0.1s0.2,0.1,0.3,0.2
		s0.1,0.2,0,0.3L498.7,1262.1z"/>
	<path fill="#FFFFFF" d="M529.9,1249.2c0,1.1-0.2,2.1-0.5,3.1s-0.8,1.9-1.4,2.7s-1.4,1.5-2.3,2.2s-2,1.1-3.2,1.5
		c0.8,0.3,1.5,0.9,2,1.9s0.9,2.2,1.2,3.8l1.2,6.7c0,0.3,0.1,0.6,0.1,0.8s0.1,0.5,0.1,0.7c0,0.1,0,0.3-0.1,0.4s-0.2,0.2-0.4,0.2
		s-0.4,0.1-0.7,0.1s-0.7,0-1.1,0c-0.4,0-0.7,0-1,0s-0.4-0.1-0.6-0.2s-0.2-0.2-0.3-0.3s-0.1-0.3-0.1-0.5l-1.2-7.1
		c-0.1-0.8-0.3-1.6-0.5-2.2s-0.5-1.3-0.9-1.7s-0.9-0.9-1.6-1.1s-1.4-0.4-2.3-0.4h-2.7l-2.6,12.9c0,0.1-0.1,0.2-0.2,0.3
		s-0.2,0.2-0.4,0.2s-0.4,0.1-0.7,0.1s-0.6,0.1-1,0.1c-0.4,0-0.7,0-0.9,0s-0.5-0.1-0.6-0.1s-0.2-0.1-0.3-0.2s-0.1-0.2,0-0.3l5.6-28.1
		c0.1-0.6,0.4-1,0.8-1.3s0.8-0.4,1.2-0.4h6.6c1.4,0,2.7,0.1,3.8,0.4s2,0.7,2.7,1.2s1.3,1.2,1.7,2S529.9,1248.2,529.9,1249.2z
		 M525.6,1249.8c0-0.5-0.1-1-0.3-1.5s-0.5-0.8-0.9-1.2s-0.9-0.6-1.6-0.8s-1.4-0.3-2.3-0.3h-4.2l-2.1,10.2h3.6c1.4,0,2.6-0.2,3.6-0.6
		s1.8-0.9,2.4-1.5s1.1-1.3,1.4-2.1S525.6,1250.6,525.6,1249.8z"/>
	<path fill="#FFFFFF" d="M558.1,1248.7c0,1-0.1,1.9-0.4,2.7s-0.6,1.6-1.1,2.4s-1.1,1.4-1.7,1.9s-1.4,1-2.3,1.4
		c0.7,0.1,1.3,0.4,1.8,0.7s1.1,0.7,1.5,1.2s0.7,1.1,0.9,1.7s0.3,1.4,0.3,2.2c0,0.8-0.1,1.7-0.3,2.5s-0.6,1.6-1,2.4s-1,1.5-1.7,2.1
		s-1.4,1.2-2.3,1.7s-1.9,0.9-3,1.1s-2.4,0.4-3.8,0.4h-8c-0.5,0-0.9-0.1-1.2-0.4s-0.3-0.7-0.2-1.3l5.4-27c0.1-0.6,0.4-1,0.8-1.3
		s0.8-0.4,1.2-0.4h6.5c1.5,0,2.8,0.1,3.9,0.4s1.9,0.6,2.6,1.1s1.2,1.1,1.6,1.9S558.1,1247.8,558.1,1248.7z M552.9,1263.2
		c0-1.3-0.5-2.3-1.4-3s-2.3-1.1-4.3-1.1h-5.2l-2.1,10.7h5.6c1.3,0,2.4-0.2,3.2-0.6s1.6-0.9,2.2-1.5s1-1.3,1.4-2.1
		S552.9,1264.1,552.9,1263.2z M553.8,1249.5c0-0.5-0.1-1-0.3-1.4s-0.4-0.8-0.8-1s-0.9-0.5-1.5-0.7s-1.4-0.2-2.3-0.2h-4.3l-1.9,9.8
		h4.6c1.2,0,2.2-0.2,3-0.6s1.4-0.9,2-1.6s0.9-1.3,1.1-2.1S553.8,1250.2,553.8,1249.5z"/>
	<path fill="#FFFFFF" d="M588.8,1262.1c-0.4,1.9-1,3.6-1.8,5s-1.8,2.6-3,3.6s-2.5,1.7-4,2.2s-3.1,0.7-4.8,0.7
		c-1.8,0-3.4-0.2-4.7-0.7s-2.4-1.2-3.2-2.2s-1.3-2.2-1.6-3.6s-0.2-3.1,0.2-5.1l3.7-18.5c0-0.1,0.1-0.2,0.2-0.3s0.2-0.2,0.4-0.2
		s0.4-0.1,0.6-0.1s0.6-0.1,1-0.1s0.7,0,1,0.1s0.4,0.1,0.6,0.1s0.2,0.1,0.3,0.2s0,0.2,0,0.3l-3.7,18.5c-0.3,1.4-0.3,2.6-0.2,3.6
		s0.4,1.9,0.9,2.6s1.2,1.2,2,1.5s1.9,0.5,3.1,0.5c1.2,0,2.3-0.2,3.2-0.5s1.9-0.9,2.6-1.6s1.4-1.6,2-2.6s0.9-2.2,1.2-3.5l3.7-18.5
		c0-0.1,0.1-0.2,0.2-0.3s0.2-0.2,0.4-0.2s0.4-0.1,0.6-0.1s0.6-0.1,1-0.1c0.4,0,0.7,0,0.9,0.1s0.4,0.1,0.6,0.1s0.2,0.1,0.3,0.2
		s0.1,0.2,0,0.3L588.8,1262.1z"/>
	<path fill="#FFFFFF" d="M605.4,1265.8c-0.2,1.1-0.5,2.1-0.9,3.1s-0.9,1.8-1.5,2.4s-1.4,1.2-2.3,1.6s-1.9,0.6-3.2,0.6
		c-0.7,0-1.4-0.1-2-0.2s-1.1-0.3-1.5-0.5s-0.7-0.4-0.8-0.5s-0.2-0.4-0.2-0.6c0-0.1,0-0.3,0-0.4s0.1-0.4,0.1-0.6s0.1-0.4,0.2-0.6
		s0.1-0.4,0.2-0.6s0.2-0.3,0.3-0.4s0.2-0.2,0.3-0.2c0.2,0,0.3,0.1,0.5,0.2s0.4,0.2,0.6,0.4s0.5,0.3,0.9,0.4s0.8,0.2,1.3,0.2
		c0.6,0,1.1-0.1,1.5-0.2s0.8-0.4,1.1-0.8s0.6-0.8,0.8-1.4s0.4-1.3,0.6-2.2l4.4-22.1c0-0.1,0.1-0.2,0.2-0.3s0.2-0.2,0.4-0.2
		s0.4-0.1,0.6-0.1s0.6,0,1,0c0.4,0,0.7,0,0.9,0s0.4,0.1,0.6,0.1s0.2,0.1,0.3,0.2s0.1,0.2,0.1,0.3L605.4,1265.8z"/>
	<path fill="#FFFFFF" d="M636.4,1271.7c0,0.3,0.1,0.6,0,0.8s-0.1,0.4-0.3,0.5s-0.4,0.2-0.7,0.2s-0.7,0-1.3,0c-0.3,0-0.6,0-0.9,0
		s-0.4-0.1-0.6-0.1s-0.2-0.1-0.3-0.2s-0.1-0.2-0.1-0.4l-1.1-7.4h-12.6l-4,7.3c-0.1,0.2-0.2,0.3-0.3,0.4s-0.2,0.2-0.4,0.2
		s-0.4,0.1-0.7,0.1s-0.6,0-1.1,0c-0.5,0-0.8,0-1.1-0.1s-0.5-0.1-0.6-0.2s-0.1-0.3-0.1-0.5s0.2-0.5,0.3-0.8l15.8-28.2
		c0.1-0.2,0.2-0.3,0.4-0.4s0.3-0.2,0.5-0.3s0.5-0.1,0.8-0.1s0.7,0,1.1,0c0.5,0,0.9,0,1.3,0s0.6,0.1,0.8,0.1s0.3,0.2,0.4,0.3
		s0.1,0.3,0.2,0.4L636.4,1271.7z M628.5,1246.9L628.5,1246.9l-8.2,15.1h10.5L628.5,1246.9z"/>
	<path fill="#FFFFFF" d="M666.8,1271.5c0,0.3-0.1,0.6-0.3,0.8s-0.3,0.4-0.5,0.5s-0.4,0.2-0.6,0.3s-0.4,0.1-0.6,0.1h-1.5
		c-0.4,0-0.8,0-1-0.1s-0.5-0.3-0.7-0.5s-0.4-0.5-0.6-0.9s-0.3-0.8-0.5-1.4l-5.7-16.2c-0.4-1.2-0.8-2.3-1.2-3.5s-0.8-2.3-1.1-3.5h0
		c-0.2,1.3-0.4,2.6-0.7,3.8s-0.5,2.5-0.7,3.8l-3.5,17.7c0,0.1-0.1,0.2-0.2,0.3s-0.2,0.2-0.4,0.2s-0.4,0.1-0.6,0.1s-0.6,0.1-0.9,0.1
		s-0.7,0-0.9-0.1s-0.4-0.1-0.6-0.1s-0.2-0.1-0.2-0.2s0-0.2,0-0.3l5.6-28c0.1-0.6,0.4-1.1,0.8-1.3s0.8-0.4,1.2-0.4h1.9
		c0.4,0,0.7,0,1,0.1s0.5,0.2,0.7,0.4s0.4,0.5,0.5,0.8s0.3,0.7,0.5,1.2l5.7,16.4c0.4,1,0.7,2,1.1,3s0.7,2,1,3.1h0
		c0.2-1.3,0.5-2.6,0.7-4s0.5-2.7,0.8-4l3.3-16.4c0-0.1,0.1-0.2,0.2-0.3s0.2-0.2,0.4-0.2s0.4-0.1,0.6-0.1s0.6,0,0.9,0
		c0.4,0,0.7,0,0.9,0s0.4,0.1,0.6,0.1s0.2,0.1,0.3,0.2s0.1,0.2,0,0.3L666.8,1271.5z"/>
	<path fill="#FFFFFF" d="M699.9,1271.7c0,0.3,0.1,0.6,0,0.8s-0.1,0.4-0.3,0.5s-0.4,0.2-0.7,0.2s-0.7,0-1.3,0c-0.3,0-0.6,0-0.9,0
		s-0.4-0.1-0.6-0.1s-0.2-0.1-0.3-0.2s-0.1-0.2-0.1-0.4l-1.1-7.4h-12.6l-4,7.3c-0.1,0.2-0.2,0.3-0.3,0.4s-0.2,0.2-0.4,0.2
		s-0.4,0.1-0.7,0.1s-0.6,0-1.1,0c-0.5,0-0.8,0-1.1-0.1s-0.5-0.1-0.6-0.2s-0.1-0.3-0.1-0.5s0.2-0.5,0.3-0.8l15.8-28.2
		c0.1-0.2,0.2-0.3,0.4-0.4s0.3-0.2,0.5-0.3s0.5-0.1,0.8-0.1s0.7,0,1.1,0c0.5,0,0.9,0,1.3,0s0.6,0.1,0.8,0.1s0.3,0.2,0.4,0.3
		s0.1,0.3,0.2,0.4L699.9,1271.7z M692,1246.9L692,1246.9l-8.2,15.1h10.5L692,1246.9z"/>
</g>
<g>
	<g>
		<g>
			<path fill="#687F5A" d="M482.6,507.1c-33.1,29.9-83.5,33.2-118.1,61.4c-8.2,6.7-15.3,14.6-24,20.6c-5.9,4.1-12.5,7.2-18,11.8
				c-6.5,5.5-11.1,12.9-15.2,20.4c-9.8,18.2-16.8,37.9-20.8,58.2c-2.1,10.9-4.8,23.9-15.2,28c7.6,4.5,16.8,4.7,25.6,4.8
				c11.6,0.1,23.3,0.2,34.9,0.1c7.1,0,14.2-0.1,21.1-1.4c20.9-4.1,37.7-19.4,53.2-34c9.4-8.8,18.8-17.6,27-27.5
				c10-12,18.4-25.4,29.8-36c3.4-3.2,7.2-6.2,10-10c3.8-5.1,5.7-11.4,7-17.6c2.1-10,2.8-20.2,2.1-30.4c-1.2-18.8-6.8-39.3,3.3-55.3"
				/>
		</g>
		<g>
			<path fill="#5C7050" d="M403.9,547.6c1.1,3.1,2.2,6.1,3.1,8.8c2.8,9.4,3.2,18.5,2.9,28.3c-0.5,19.1-10.1,35.8-24.1,48.5
				c-6.8,6.2-14.4,11.4-21.5,17.2c-7,5.8-12.7,12.2-17.9,19.6c-4.9,6.9-9.6,14-15.7,19.8c-6.7,6.4-13.9,9.6-22.8,11.8
				c-9.6,2.4-19.1,4.6-28.3,8.3c-0.2,0.1-0.5,0.2-0.7,0.3c6.4,2.1,13.4,2.3,20.2,2.3c11.6,0.1,23.3,0.2,34.9,0.1
				c7.1,0,14.2-0.1,21.1-1.4c20.9-4.1,37.7-19.4,53.2-34c9.4-8.8,18.8-17.6,27-27.5c10-12,18.4-25.4,29.8-36c3.4-3.2,7.2-6.2,10-10
				c3.8-5.1,5.7-11.4,7-17.6c2.1-10,2.8-20.2,2.1-30.4c-1-16-5.2-33.2-0.2-47.8C461.8,527.8,431.7,535.8,403.9,547.6z"/>
		</g>
	</g>
	<g>
		<g>
			<g>
				<path fill="#687F5A" d="M505.1,520.3c-26.3,15.6-49.9,35.7-69.4,59.3c-6.6,7.9-12.7,16.3-17.3,25.5
					c-7.6,15.3-10.7,32.3-13.8,49.1c-1.8,10.1-3.7,20.3-2.8,30.5c1.3,15.8,9,30.4,12,45.9c2.2,11.7,1.8,24,5.8,35.2
					c2.7,7.5,7.1,14.1,10.6,21.2c5.7,11.5,8.9,24.2,9.3,37.1c0,1,0.1,2.2,0.9,2.9c1.3,1.2,3.3,0.1,4.7-1c8.9-7,17.8-14,26.7-21
					c16.2-12.8,32.6-25.7,45.2-42.1c7-9.1,12.7-19.1,18.3-29.1c12.2-21.5,24.6-43.8,27.5-68.3c4.1-35.1-11.8-69.2-28.3-100.5
					c-8.6-16.3-17.6-32.7-30.9-45.5"/>
			</g>
			<g opacity="0.62">
				<g>
					<path fill="#637B55" d="M534.5,564.7c-8.4-15.9-17.2-31.9-29.9-44.5c-26.1,15.5-49.5,35.6-68.9,59
						c-6.6,7.9-12.7,16.3-17.3,25.5c-7.6,15.3-10.7,32.3-13.8,49.1c-1.8,10.1-3.7,20.3-2.8,30.5c1.1,12.8,6.3,24.8,9.9,37.2
						c12.6-6.6,24.3-15.1,34.7-24.8c9.5-8.8,21.8-21.6,35.9-14.1c5.3,2.8,8.3,8,10.6,13.4c2.6,6.4,4.7,12.7,8,18.8
						c7.3,13.6,15.2,28.5,19,43.8c5.7-8,10.5-16.6,15.4-25.1c12.2-21.5,24.6-43.8,27.5-68.3C566.9,630.1,551,596,534.5,564.7z"/>
				</g>
			</g>
		</g>
		<g opacity="0.35">
			<g>
				<path fill="#DBD28C" d="M502.3,521.5c-0.9,39.4-4.9,79.5-14.2,117.8c-2.2,8.9-5.1,17.6-7.7,26.4c-2.4,8.3-3.4,16.6-4,25.2
					c-1.4,19.6-5.7,38.7-10.5,57.7c-5.3,21.2-11.5,42.1-18.5,62.8c-0.3,0.8,0.9,1.1,1.2,0.3c6.3-18.5,11.9-37.3,16.8-56.3
					c4.7-18.1,9.5-36.6,11.4-55.3c1-9.7,1-19.4,3.3-28.9c2.1-8.8,5.3-17.3,7.7-26.1c4.9-18.3,7.9-37.2,10.4-56
					c3-22.4,4.7-45,5.2-67.7C503.6,520.7,502.3,520.7,502.3,521.5L502.3,521.5z"/>
			</g>
		</g>
	</g>
	<g>
		<path fill="#6C7F62" d="M472.6,663.4c-15.6,8.7-31.2,17.4-46.8,26.1c-8,4.4-15.9,8.9-23.4,14.1c-9.8,6.9-18.7,15.1-26.3,24.3
			c-6.8,8.3-12.6,17.4-18.4,26.4c-7.2,11.2-14.3,22.4-21.5,33.6c-4.1,6.5-8.3,12.9-11.3,20c-2.8,6.5-4.5,13.3-6.4,20.1
			c-4.3,15.2-9.5,30.4-18.8,43.1c12.6-3.3,25.3-6.6,37.9-9.9c7.7-2,15.4-4,22.7-7.3c21.9-10.1,36.4-31.1,55.1-46.3
			c9.6-7.9,20.6-14.3,28.6-23.8c12.4-14.5,16.6-34.2,20-53c3.3-18,6.4-36,9.3-54.1c0.8-4.9,1.3-10.6-2-14.3"/>
	</g>
	<g>
		<path fill="#5F7B4E" d="M493.8,662.5c-16.5,33.5-21.4,71.6-22.1,108.9c-0.1,6.1-0.1,12.3,1,18.3c1,5.3,2.8,10.3,4.6,15.4
			c11.2,30.8,24.3,61.2,42.5,88.5c17.1,25.6,38.5,48.1,59.8,70.4c5.4-6.8,6-16.1,6.3-24.8c1.6-43.9,1.9-87.8,1.1-131.7
			c-0.1-7-0.3-14-1.4-20.9c-1.2-7.5-3.4-14.8-5.7-22c-6.8-21.8-13.8-44.2-28.2-62c-5.5-6.8-11.9-12.8-18.3-18.7
			c-11.2-10.2-23.9-20.8-39.1-21.2"/>
	</g>
	<g opacity="0.35">
		<g>
			<path fill="#DBD28C" d="M481.9,645.3c0.3,4.4-0.4,7.7,2.2,11.4c3.9,5.6,10.2,8.7,14.1,14.4c8.8,13,7.5,29.7,9.4,44.5
				c3.6,29.2,21,54.1,28.7,82.1c4.9,17.7,6.6,36.1,5.4,54.5c-0.1,0.8,1.2,0.8,1.2,0c2-30.2-4.9-58.3-17-85.8
				c-6.1-14-12.7-28-15.9-43.1c-3-14.4-1.4-29.7-6.4-43.7c-2.2-6.3-5.7-11.9-10.8-16.2c-3.1-2.6-6.5-5-8.6-8.6
				c-1.7-2.9-1.1-6.4-1.3-9.6C483.1,644.5,481.9,644.5,481.9,645.3L481.9,645.3z"/>
		</g>
	</g>
	<g>
		<g>
			<path fill="#DBD28C" d="M475.6,535.2c-1.7,24.2-2.7,48.4,0.4,72.5c1.2,9.3,4.2,18.3,5.1,27.6c1,10.5-2.1,19.3-9.3,27.1
				c-1.1,1.2,0.7,3,1.8,1.8c5.9-6.4,9.8-13.7,10.2-22.5c0.5-9.2-2.3-18.1-4.2-27c-5.3-25.8-3.4-53.5-1.5-79.6
				C478.2,533.6,475.7,533.6,475.6,535.2L475.6,535.2z"/>
		</g>
	</g>
	<g>
		<g>
			<path fill="#687F5A" d="M508.9,495.9c-1.7,12-1.9,22.8-4.8,34.5c-2.6,10.6-7,20.5-8.3,31.6c-1.7,13.9,1.3,29.6,4.5,43
				c2.6,11,8.4,19.1,12.9,29.5c10.5,24.6,19.3,52.2,35.6,73.8c13.8,18.2,30.5,35.1,46.2,51.7c8.8,9.3,15.6,14.9,18.4,28
				c2.5,11.7-0.2,19.2-2.2,30.3c15.1-22.4,10.5-56.7,6.9-81.7c-3.9-27.2,13.7-50.6,2.4-78c-2-4.8-6.2-9.7-7-15
				c-0.7-5.5,1.5-12.3,2.1-17.8c1.6-13.7-0.2-24.1-9.3-35.1c-8.9-10.8-15-21.7-22.9-33.2c-7.3-10.6-18-18.7-24-30.2
				c-8.8-17.1-32.1-33.5-52.6-31.2"/>
		</g>
		<g>
			<path fill="#6C7F62" d="M620.2,658.8c-2-4.8-6.2-9.7-7-15c-0.7-5.5,1.5-12.3,2.1-17.8c1.6-13.7-0.2-24.1-9.3-35.1
				c-8.9-10.8-15-21.7-22.9-33.2c-7.3-10.6-18-18.7-24-30.2c-7.8-15-26.6-29.5-45-31.2c12.2,14.7,20.9,32.1,29.1,49.9
				c6.5,14.1,6.4,27.7,3.9,42.8c-2.5,14.9-4.4,28.9-1.2,43.9c5.6,26,22.8,47.4,38.7,67.9c8.1,10.5,16.5,21,23.3,32.4
				c5.6,9.4,9.1,19.8,11.5,30.5c0.8,3.5,1.4,7.2,1.9,10.9c-0.1-13.2-1.9-26.4-3.6-37.8C613.9,709.6,631.5,686.2,620.2,658.8z"/>
		</g>
	</g>
	<g>
		<path fill="#5F7B4E" d="M439.5,714.9c-5.4,8.3-10.6,16.4-17.1,23.9c-6.4,7.5-13.5,14.4-20.3,21.5c-7,7.2-13.9,14.7-19.7,22.9
			c-5.8,8.2-10.6,17-16.4,25.2c-11.6,16.3-25.1,31.3-41.7,42.6c-7.5,5.1-15,9.8-21.7,15.8c-0.9,1.4-1.9,2.9-2.9,4.2
			c12.6-3.3,25.3-6.6,37.9-9.9c7.7-2,15.4-4,22.7-7.3c21.9-10.1,36.4-31.1,55.1-46.3c9.6-7.9,20.6-14.3,28.6-23.8
			c12.4-14.5,16.6-34.2,20-53c3.3-18,6.4-36,9.3-54.1c0.5-3.4,1-7.2,0.1-10.4C464.6,684.1,450.2,698.3,439.5,714.9z"/>
	</g>
	<g opacity="0.35">
		<g>
			<path fill="#DBD28C" d="M477.1,656.7c-5,6-9,13.1-13.3,19.6c-5.3,8.1-10.4,16.3-15.9,24.2c-8.9,12.7-17.4,25.7-26.9,37.9
				c-5.6,7.2-11.5,14.2-18,20.5c-5.3,5.1-10.9,9.9-15.8,15.5c-5.2,6-7.9,12.8-11.8,19.6c-4.9,8.5-11.3,16.2-17.2,24
				c-0.5,0.6,0.6,1.3,1.1,0.6c5.1-6.8,10.5-13.4,15.2-20.6c4-6.1,6.3-13.1,10.6-19c4.5-6.1,10.4-11.2,15.9-16.4
				c6.3-6,12.1-12.3,17.6-19c15.7-19.4,29.4-40.5,43.1-61.4c5.3-8.2,10.3-17.1,16.6-24.6C478.5,656.9,477.6,656.1,477.1,656.7
				L477.1,656.7z"/>
		</g>
	</g>
	<g>
		<g>
			<path fill="#DBD28C" d="M493.9,662.9c-3.4-2.7-5.9-5.2-7.1-9.6c-0.9-3.5-2.5-6.8-3.5-10.4c-0.2-0.6-0.7-0.9-1.2-0.9
				c0,0-0.1,0-0.1,0c0,0.8,0,1.7,0,2.5c0.1,0,0.1,0,0.2,0c0-0.8,0-1.7,0-2.5c0,0-0.1,0-0.1,0c-1.6-0.2-1.6,2.3,0,2.5
				c0,0,0.1,0,0.1,0c1.6,0.2,1.6-2.3,0-2.5c-0.1,0-0.1,0-0.2,0c-1.6-0.2-1.6,2.3,0,2.5c0,0,0.1,0,0.1,0c-0.4-0.3-0.8-0.6-1.2-0.9
				c0.6,2.3,1.6,4.3,2.4,6.6c0.7,2,1,4.2,1.7,6.2c1.3,3.6,4.1,6,7.1,8.3C493.4,665.7,495.2,663.9,493.9,662.9L493.9,662.9z"/>
		</g>
	</g>
	<g>
		<path fill="#6C7F62" d="M295.4,344.1c-25.6-1.7-50.8,5.8-75.1,13.8c-29.2,9.5-59.6,20.7-79.4,44c-6.9,8.2-12.7,17.9-21.9,23.3
			c-6.4,3.7-13.9,5.1-20.6,8.1c-9.7,4.4-17.6,12.6-21.7,22.3c-1.6,3.7-2.6,7.7-4.9,11.1c-4.4,6.6-13.1,10.6-14.5,18.4
			c7.7-1.1,14.8-5,22.4-7c9-2.4,18.5-2,27.7-3.2c25.5-3.5,47.7-19.5,64.7-38.7c5.8-6.6,11.2-13.7,18-19.4
			c11.9-10.1,27.2-15.3,40.5-23.5c25-15.6,43-42.4,71-51.7c1.1-0.4,2.4-1,2.2-2.1c-0.1-1.1-2.3,0-1.3,0.4"/>
	</g>
	<g>
		<g>
			<path fill="#859A78" d="M294.3,347c13.6-4.3,26.9-3.4,40.2,1.4c5.4,1.9,10.5,3,16.1,1.4c6.2-1.8,11.9-6,18.5-3.5
				c0-1.6,0-3.2,0-4.8c-7.3,1.7-14.7,3.6-22.2,4.4c-7.8,0.8-15.2-0.2-22.7-2.1c-11.4-3-23.2-6.2-34.2-0.2c-2.8,1.5-0.3,5.9,2.5,4.3
				c12.6-6.9,26.5,0.7,39.3,2.7c13,2.1,26-1.3,38.6-4.2c2.6-0.6,2.1-4,0-4.8c-5.8-2.2-11.2-0.3-16.7,1.8c-3.3,1.3-6.6,2.6-10.2,2.3
				c-3.8-0.3-7.5-2.1-11.1-3.3c-12.8-4.4-26.7-4.3-39.6-0.2C289.9,343.1,291.2,348,294.3,347L294.3,347z"/>
		</g>
	</g>
	<g>
		<path fill="#687F5A" d="M79.5,469.9c8.7-6.3,18.6-10.6,28.5-14.8c17.9-7.6,35.5-15.2,48-30.7c5.9-7.4,11.3-15,18.2-21.6
			c6.9-6.6,14.5-12.4,22.5-17.6c16.6-10.6,34.6-19.7,52.2-28.5c9.8-4.9,19.9-9.4,30.4-12.5c-20.1,1.4-40,7.4-59.3,13.7
			c-29.2,9.5-59.6,20.7-79.4,44c-6.9,8.2-12.7,17.9-21.9,23.3c-6.4,3.7-13.9,5.1-20.6,8.1c-9.7,4.4-17.6,12.6-21.7,22.3
			c-1.6,3.7-2.6,7.7-4.9,11.1c-3.6,5.4-10.1,9.1-13.1,14.6C66.1,480.2,72.9,474.7,79.5,469.9z"/>
	</g>
	<g>
		<g>
			<path fill="#7F8E6D" d="M369.2,325.8c1.7-4-1-8.7-4.4-11.4c-3.5-2.7-7.7-4.2-11.1-7c-4.6-3.8-7.2-9.4-9.6-14.9
				c-4.7-10.7-9.4-21.5-12.5-32.7c-1.5-5.4-2.6-10.9-5.1-15.9c-2.1-4.2-5.2-7.8-8.1-11.4c-9.2-11.4-17.2-23.8-23.9-36.8
				c-3.3-6.4-6.4-13.2-11.7-18.2c-6.2-5.8-14.7-8.3-23-10.2c-8.5-2-17.2-3.5-25.9-2.5c-7.1,0.8-13.8,3.3-20.8,4.6
				c-8.8,1.6-18,1.4-26.7-0.8c-4.2-1.1-8.6-2.6-12.9-2c-4.3,0.6-8.6,4.4-7.9,8.7c9.1-0.8,15.9,8.4,18.5,17.1s3.1,18.5,8.7,25.7
				c5.3,6.8,14,9.9,20.2,15.9c6.7,6.5,9.9,15.7,14.5,23.8c4.9,8.6,11.8,16.2,19.9,22c9,6.4,19.4,10.5,29.7,14.2
				c23,8.2,46.6,14.5,70.8,17.8c5,0.7,10.2,1.3,14.4,4c4.2,2.7,7.2,8.2,5.3,12.8"/>
		</g>
		<g>
			<path fill="#758065" d="M364.8,314.4c-0.3-0.2-0.6-0.5-1-0.7c-9.4-4.1-18.1-12.9-24.8-18.7c-26.2-22.5-41.2-55.2-67.9-77.3
				c-6.8-5.7-14.5-9.7-22.2-13.9c-9.3-5-18.6-10.2-28.2-14.6c-9.2-4.2-19-7.7-29.1-9c-5.1-0.7-10.1-0.8-15.2-0.8
				c3.6,3.3,6.3,8.3,7.7,13c2.6,8.7,3.1,18.5,8.7,25.7c5.3,6.8,14,9.9,20.2,15.9c6.7,6.5,9.9,15.7,14.5,23.8
				c4.9,8.6,11.8,16.2,19.9,22c9,6.4,19.4,10.5,29.7,14.2c23,8.2,46.6,14.5,70.8,17.8c5,0.7,10.2,1.3,14.4,4
				c4.2,2.7,7.2,8.2,5.3,12.8l1.6-2.9C371,321.8,368.3,317.1,364.8,314.4z"/>
		</g>
	</g>
	<g>
		<g>
			<path fill="#687F5A" d="M465.2,356.4c7.4,17.7-0.1,37.5-3.6,56.3c-5.1,27.8-0.9,57.3,11.8,82.5c11.3,22.5,29.6,43.5,29,68.6
				c-0.1,2.7-0.4,5.6,0.5,8.2s3.2,5,5.9,4.8c2.4-0.2,4.3-2.2,5.7-4.2c6.6-9,10.9-19.5,14.1-30.2c17.1-56.8,1.9-121.8-37.4-166.2
				c-8-9-17.1-17.4-27.8-22.9"/>
		</g>
		<g>
			<path fill="#5F7B4E" d="M503.2,564c-0.1,2.7-0.4,5.6,0.5,8.2c0.7,2.1,2.3,4,4.3,4.6c2-10.4,2.3-21.3,2.7-31.6
				c0.7-17.4,0.7-34.4-1.8-51.7c-2.6-18.1-7.2-35.6-12.2-53.2c-4.9-17-9.6-35.4-18.4-50.8c-2.9-5-6.1-9.8-9.2-14.7
				c-0.3,12.5-4.4,25.5-6.7,38.1c-5.1,27.8-0.9,57.3,11.8,82.5C485.6,517.8,503.9,538.8,503.2,564z"/>
		</g>
	</g>
	<g>
		<g>
			<path fill="#6C7F62" d="M472.2,366.5c-6.7-3-9.5-11.1-15.6-15.2c-3.1-2.1-6.9-2.9-10.6-3.5c-8-1.1-16.2-0.8-24.3-0.6
				c-22.2,0.8-45.7,2-64.2,14.3c-18,12-28.1,32.5-37.3,52c-3.1,6.6-6.3,13.3-7.3,20.5c-1.5,10.6,1.9,21.5-0.1,32
				c-0.9,4.6-1.5,11.2,3.1,12.1c6.2,1.2,8.4-11.4,14.6-10.2c1.7,0.3,2.9,1.6,4.3,2.5c5.3,3.4,12.3,1.1,18.2-1.3
				c19.7-8.1,39.4-16.2,59.1-24.3c11.6-4.8,23.5-9.7,32.8-18.1c14.2-12.8,20.7-31.8,26.7-50c1.1-3.4,2.1-7.5-0.1-10.3"/>
		</g>
		<g>
			<path fill="#5F7B4E" d="M313.1,476.3c1-1.5,2.1-3,3-4.6c4.6-7.6,7.1-15.9,11.1-23.7c6.8-12.9,18.4-22.4,30-30.9
				c12.6-9.1,25.6-17.7,38.9-25.7c21.2-12.8,50.3-28.7,76.1-23c-0.2-0.4-0.4-0.8-0.7-1.1l0.9-0.2c-6.7-3-9.5-11.1-15.6-15.2
				c-3.1-2.1-6.9-2.9-10.6-3.5c-8-1.1-16.2-0.8-24.3-0.6c-22.2,0.8-45.7,2-64.2,14.3c-18,12-28.1,32.5-37.3,52
				c-3.1,6.6-6.3,13.3-7.3,20.5c-1.5,10.6,1.9,21.5-0.1,32C312.5,469.8,312.1,473.7,313.1,476.3z"/>
		</g>
	</g>
	<g>
		<g>
			<path fill="#DBD28C" d="M502.4,366.1c2.2,6,4.3,12,6.5,18c4.7,13.2,9.5,26.5,11.6,40.4c0.4,2.9,0.7,5.9-0.4,8.6
				c-0.7,1.6-1.8,2.9-2.4,4.5c-0.6,1.6-0.4,3.7,1,4.6c0.8,0.5,1.9,0.5,2.9,0.5c3.4-0.1,6.9-0.1,10.3-0.2c0.2-5.2-1.7-10.2-3.5-15.1
				c-5.1-13.4-10.2-26.8-15.3-40.1c-3-7.9-6.2-16-12.3-21.8"/>
		</g>
		<g>
			<g>
				<path fill="#DBD28C" d="M501.2,366.4c6,16.8,13,33.6,16.7,51.2c1.1,5.4,2.7,11.1,0.2,16.3c-1,2.1-2.6,4.1-2,6.6
					c1.5,5.9,11.5,3.3,15.7,3.2c0.7,0,1.3-0.6,1.2-1.2c0-7.1-2.8-13.5-5.3-19.9c-2.9-7.6-5.8-15.2-8.7-22.8
					c-4.6-12-8.1-25.8-17.4-35.1c-1.1-1.1-2.9,0.6-1.8,1.8c9.4,9.4,12.9,23.7,17.5,35.8c2.5,6.7,5.1,13.4,7.6,20.1
					c2.5,6.5,5.5,13.1,5.6,20.2c0.4-0.4,0.8-0.8,1.2-1.2c-1.7,0-3.4,0.1-5.2,0.1c-1.1,0-2.3,0-3.4,0.1c-1.8,0.6-2.7-0.2-2.8-2.4
					c-1.5-3.3-0.5-2.6,0.7-5.5c0.5-1.3,0.7-2.3,0.8-3.7c0.6-6.4-1.7-13.9-3.4-20c-4-15-9.8-29.5-15-44.1
					C503.1,364.3,500.7,364.9,501.2,366.4L501.2,366.4z"/>
			</g>
		</g>
	</g>
	<g>
		<path fill="#49494D" d="M539.5,442.3c-6.9-2.7-14.8-5.1-21.4-1.8c-4.8,2.5-7.7,7.5-9.9,12.5c-6.4,14.7-8.4,31.9-2.6,46.8
			c2.2,5.5,5.5,10.9,10.7,13.9c6.4,3.8,15.2,3.1,21-1.6c2.8-2.3,4.8-5.2,6.6-8.3c5-8.5,8.3-18.2,8.8-28c0.5-9.9-2.1-20-7.9-28
			c-3.3-4.5-8.1-8.4-13.6-8.3"/>
	</g>
	<g>
		<path fill="#6C7F62" d="M372.4,317.8c12-2.1,21.9-10.6,29.8-19.9c7.9-9.3,14.6-19.7,23.7-27.8c6.1-5.4,13.2-9.7,20.3-13.7
			c16.4-9.3,33.7-17.6,52.3-20.5s38.8,0.2,53.6,11.8c12.1,9.5,19.9,24.1,33.2,31.9c-20.2,9.4-28.2,35.6-48.3,45.2
			c-10.5,5-22.8,4.6-34.2,2.5c-23.2-4.2-44.8-14.7-67.9-19.4s-50-2.3-65.8,15.2"/>
	</g>
	<g>
		<path fill="#DBD28C" d="M366.3,328.7c9.5-7.8,19.1-15.6,28.6-23.5c7.5-6.2,15.3-12.7,19-21.8c2.3-5.7,2.7-11.9,3.1-18.1
			c0.7-10.7,1.4-21.4,0-32.1c-1.6-11.8-5.7-23.6-3.5-35.2c3.8,0.1,6.3,4.4,6.3,8.2c0,3.8-1.6,7.5-2.1,11.3c-0.3,1.8,1.7,4.4,2.7,2.9
			c-2.9,21.6-3.3,43.6-1.1,65.4c0.2,2,0.4,4.1,1.5,5.7c1,1.5,2.5,2.5,4,3.4c6.6,4.1,14,7.3,19.2,13.1c10,11.3,8.5,28.6,14.9,42.2
			c3.2,6.8,8.4,12.8,10.3,20.1c0.8,3.2,0.9,6.6,2.2,9.6c1.1,2.7,3.1,5,4.7,7.5c4.4,7.4,4.5,16.5,5.9,25c2.3,14.2,8.9,27.7,18.7,38.3
			c-8.5-3.8-17.9-7.7-26.8-5.1c3.5-4.2,4-10.2,3.9-15.6c-0.3-16.2-4.8-32.3-12.9-46.4c-0.8-1.5-1.7-2.9-2.1-4.5
			c-0.5-2-0.1-4.1-0.3-6.2c-0.2-2.4-1-4.6-1.8-6.8c-5.6-14.8-13.2-28.9-22.4-41.7c-1.4-2-3.2-4.2-5.7-4.4c-2.3-0.3-4.4,1.2-6.2,2.7
			c-7.7,6.5-14.4,14.2-19.6,22.8c-1.6,2.7-3.9,5.8-7,5.2c-2.8-0.6-3.9-4.4-2.7-7.1c1.2-2.6,3.8-4.3,6.2-5.9
			c9.9-6.5,19.2-14,27.7-22.4c0.9-0.9,1.9-1.9,2.2-3.2c0.4-1.9-0.9-3.7-2.2-5.2c-4-4.8-8.5-9.2-13.3-13.1c-1.1-0.9-2.2-1.7-3.5-2
			c-2.5-0.4-4.8,1.4-6.6,3.1c-14.5,13.1-29,26.3-43.5,39.4"/>
	</g>
	<g>
		<path fill="#B6877F" d="M484.5,422.4c-1.1-0.7-2.1-1.7-2.5-3c-1.7-0.5-3.5-1-5.1-1.2c0.5,3.7,0.8,7.5,0.9,11.3
			c0.1,5.5-0.4,11.4-3.9,15.6c8.9-2.5,18.3,1.3,26.8,5.1C493.4,442.3,487.8,432.8,484.5,422.4z"/>
	</g>
	<g>
		<g>
			<path fill="#535258" d="M516.1,514.9c-5,10-16.7,16.7-28.5,16.2c-17.7-0.7-31.4-16.2-35.4-32.4c-4.2-17.1,0.3-35.9,11.7-49.7
				c2.2-2.6,4.6-5.1,7.6-6.8c9.7-5.6,23-1.9,30.9,5.8c7.9,7.7,11.6,18.3,14.4,28.6c3.9,14.4,6.2,31-2.9,43.1"/>
		</g>
		<g opacity="9.000000e-02">
			<g>
				<path fill="#E2E2E4" d="M503.1,466.7c-2.8-3.4-7.2-5.3-11.6-5c-0.7,0-1.4,0.2-1.8,0.7c-0.3,0.4-0.4,1-0.3,1.6
					c0.5,5.2,6.3,9,5.7,14.2c-0.4,3.7-4.1,6.8-3.4,10.5c0,0.2,0.1,0.5,0.3,0.7c0.4,0.3,0.9,0.2,1.4,0c5.5-2.4,5.9-10.1,9.6-14.8
					c0.9-1.1,2-2.1,2.5-3.4c1.1-2.9-2-6.3-5-5.6"/>
			</g>
		</g>
	</g>
	<g opacity="0.5">
		<g>
			<path fill="#DBD28C" d="M395,305.4c12.1-4.1,19.9-15.3,31.1-20.9c13.3-6.7,28.6-8.4,43.3-8.5c16.3-0.1,32.5,1.8,48.8,0.9
				c13.6-0.7,30.8-7.3,42.7,1.8c0.6,0.5,1.3-0.6,0.6-1.1c-10.8-8.3-25.2-3.7-37.5-2.5c-17.7,1.8-35.4-0.4-53.1-0.5
				c-14.1,0-28.7,1.3-41.8,6.9c-5.5,2.3-10.6,5.4-15.2,9.2c-6.2,5-11.7,10.8-19.4,13.4C393.9,304.4,394.2,305.7,395,305.4L395,305.4
				z"/>
		</g>
	</g>
	<g>
		<g>
			<path fill="#6C7F62" d="M450.6,390c-8.3,2-15.7,6.6-22.9,11.2c-13.1,8.3-26.5,16.7-36.3,28.7c-6.7,8.2-11.5,17.7-15.8,27.4
				c-8.9,20.3-15.6,41.7-19.9,63.5c-1.6,8.1-2.9,16.3-6.8,23.6c-3.5,6.5-8.9,11.7-13,17.9c-0.6,0.8-1.1,1.8-1.1,2.8
				c0.1,2.1,2.5,3.1,4.5,3.6c22.1,5.6,46.3,2.5,66.3-8.5c20-11,35.6-29.7,42.7-51.4c3.8-11.4,5.2-23.5,6.7-35.4
				c2-16.7,3.9-33.8,0.4-50.3c-2.5-12-7.8-24.6-3.3-35.9"/>
		</g>
		<g>
			<path fill="#687F5A" d="M354.1,562.3c10.2-5.1,18.8-13.6,26.4-22c28.6-32,40.9-74.5,50.8-115.4c1.9-7.8,5.3-20.9,11-31.5
				c-5.1,2.3-9.9,5.3-14.7,8.3c-13.1,8.3-26.5,16.7-36.3,28.7c-6.7,8.2-11.5,17.7-15.8,27.4c-8.9,20.3-15.6,41.7-19.9,63.5
				c-1.6,8.1-2.9,16.3-6.8,23.6c-3.5,6.5-8.9,11.7-13,17.9c-0.3,0.5-0.7,1.1-0.9,1.7C341.4,565.1,347.8,565.4,354.1,562.3z"/>
		</g>
	</g>
	<g opacity="0.35">
		<g>
			<path fill="#DBD28C" d="M338.8,563.4c15.3-0.6,30.1-6.3,41.5-16.6c12.2-11,19.4-26.2,26-41c7.5-16.8,14.9-33.7,19.8-51.5
				c5.3-18.9,8.5-38.3,16.3-56.4c0.3-0.7-0.8-1.4-1.1-0.6c-6.8,15.9-10.2,32.9-14.5,49.6c-4.6,17.9-11.3,34.9-18.7,51.7
				c-6.5,14.9-13,30.5-24.1,42.7c-11.6,12.8-28,20.2-45.2,20.8C338,562.1,338,563.4,338.8,563.4L338.8,563.4z"/>
		</g>
	</g>
	<g>
		<g>
			<path fill="#6C7F62" d="M500.6,354.8c15.9,1.9,32.1,3.8,46.8,10c6.4,2.7,12.4,6.2,19,8.5c6.3,2.2,13,3.2,19.3,5.5
				c9.9,3.6,18.3,10.2,26.4,16.9c10.4,8.5,20.6,17.3,30.6,26.4c10,9.1,20.2,19,24.7,31.7c3.2,9.1,3.3,19,6.9,27.9
				c1.5,3.8,3.7,7.4,5,11.3c5.2,15.7-4.2,32.3-14.1,45.5c-3,4.1-6.3,8.2-10.8,10.5c-4.5,2.3-10.6,2.3-14.2-1.3
				c-3.4-3.5-4.7-10.1-9.6-10.3c6.6,0,14.3,3.8,19.2-0.7c3.7-3.3,3.1-9.3,1.2-14s-4.6-9.2-4.4-14.1c0.3-4.9,3.5-9.8,1.7-14.3
				c-0.5-1.3-1.4-2.3-2.2-3.4c-4.4-5.4-8.7-10.9-13.1-16.3c-5.1-6.4-10.3-12.8-16.4-18.2c-8.1-7.1-17.7-12.4-26.8-18.2
				c-24.1-15.4-45.5-35.4-61.5-59.1c-4.1-6.1-8-12.5-13.2-17.7c-5.2-5.2-12.2-9.1-19.6-8.9"/>
		</g>
		<g>
			<path fill="#738369" d="M680.5,492.3c-1.3-3.9-3.4-7.5-5-11.3c-3.6-8.9-3.7-18.9-6.9-27.9c-4.5-12.8-14.7-22.6-24.7-31.7
				c-10-9-20.2-17.8-30.6-26.4c-8.1-6.7-16.6-13.3-26.4-16.9c-6.3-2.3-13-3.3-19.3-5.5c-6.5-2.3-12.6-5.8-19-8.5
				c-12.7-5.4-26.4-7.5-40.1-9.2c2.1,1.1,4.1,2.5,5.9,4c15.3,5.4,29.9,12.8,43.8,21c10.8,6.3,21.3,13.1,31.6,20.1
				c9.7,6.6,19.6,12.9,28.1,21c16.8,15.9,28.2,36.6,36,58.2c3.8,10.7,6.9,21.7,9.4,32.8c2,9.2,3.5,18.5,0.4,27.6
				c-0.4,1.3-0.9,2.5-1.5,3.6c1.5-1.7,3-3.5,4.3-5.3C676.3,524.6,685.7,508,680.5,492.3z"/>
		</g>
		<g opacity="0.35">
			<g>
				<path fill="#DBD28C" d="M505.4,354.6c5.5,4.6,12,7.4,18.5,10.3c8.5,3.7,16.9,7.7,25.3,11.7c15.8,7.7,32.5,15,46.9,25.1
					c14,9.8,24.8,23.4,34.4,37.3c10.1,14.7,18.7,30.3,24.5,47.3c3.1,9.1,5.5,18.4,7.1,27.9c1.3,7.6,5.1,22.8-4,27.1
					c-0.7,0.3-0.1,1.4,0.6,1.1c4.8-2.3,6.2-7.3,6.3-12.2c0.3-8-1.6-16.5-3.3-24.2c-3.9-17.9-10.6-35.3-19.7-51.2
					c-8.7-15.1-19.1-30-31.4-42.4c-13-13-29.1-20.9-45.3-29.1c-10-5.1-20.1-10.1-30.3-14.8c-9.7-4.5-20.5-7.8-28.8-14.8
					C505.7,353.2,504.8,354.1,505.4,354.6L505.4,354.6z"/>
			</g>
		</g>
	</g>
	<g opacity="0.35">
		<g>
			<path fill="#DBD28C" d="M348.6,326.5c-23.3,1.7-40.1,20.5-49,40.8c-11.1,25.6-12.1,54.7-26.6,78.9c-14.4,24-32.8,45.4-52.7,64.9
				c-8.4,8.2-16.8,16.7-22.7,26.9c-6.4,10.9-7.5,23.1-11.8,34.7c-3,8.2-8.7,13.9-14.3,20.3c-4.4,4.9-8.2,10.3-11.3,16.2
				c-6.3,12.2-9.3,25.9-8.8,39.6c0,0.8,1.3,0.8,1.2,0c-0.5-13.5,2.4-27,8.6-39c3-5.8,6.7-11.1,11.1-16c3.9-4.3,8.1-8.4,11.2-13.3
				c6.5-10.7,6.7-23.9,11.7-35.2c4.7-10.7,12.4-19.6,20.5-27.9c8.6-8.8,17.8-17,25.8-26.4c8.5-9.8,16.1-20.4,23.7-30.9
				c7.8-10.8,14.5-22,18.6-34.7c4.1-12.4,6.5-25.3,10.1-37.8c7.5-26.6,23.4-57.5,54.7-59.8C349.4,327.7,349.4,326.4,348.6,326.5
				L348.6,326.5z"/>
		</g>
	</g>
	<g opacity="0.35">
		<g>
			<path fill="#DBD28C" d="M290.1,343.2c-34.5,8.4-67,23.1-96,43.4c-14.1,9.9-27.5,20.9-40.3,32.4c-6.6,6-13.1,12.1-19.5,18.3
				c-7,6.8-13.6,14.6-23,18c-8.4,3-17.2,4.3-25.5,7.9C77.2,467,69.5,472,62.5,478c-0.6,0.5,0.3,1.4,0.9,0.9
				c6.7-5.8,14.2-10.6,22.3-14.2c8.1-3.6,16.8-5,25.2-7.8c7-2.4,12.3-6.8,17.5-11.9c6.3-6.2,12.7-12.4,19.2-18.4
				c25.8-24,53.7-45.9,85.5-61.5c18.4-9,37.7-15.9,57.5-20.7C291.2,344.2,290.8,343,290.1,343.2L290.1,343.2z"/>
		</g>
	</g>
	<g>
		<g>
			<path fill="#DBD28C" d="M362,341.4c2.5,1.7,3.5,5.4,2,8c-1.8,3.3-6.7,5.1-6.4,8.8c0.2,2.7,3.1,4.2,5.2,5.8
				c5.5,4.2,7.4,11.6,9,18.4c0.5,2.1,1,4.3,1.1,6.5c0.4,6.7-2.4,13-5.1,19.1c7-3.1,15.4-6.1,22-2.1c-5.9-3.8-9.9-10.6-10.5-17.6
				c-0.3-3.7,0.3-7.5-0.4-11.1c-1-5.5-4.9-9.9-8.6-14c-1-1.2-2.1-2.4-2.5-3.9c-0.5-1.8,0.1-3.8,0.3-5.7c0.8-5.8-2.4-12.5-8.1-13.9"
				/>
		</g>
		<g>
			<path fill="#B6877F" d="M379,388.2c-0.3-3.7,0.3-7.5-0.4-11.1c-0.3-1.7-0.9-3.3-1.7-4.8c-3.1-0.1-5.7,1.3-6.8,4.9
				c0.5,1.7,0.9,3.5,1.3,5.2c0.5,2.1,1,4.3,1.1,6.5c0.4,6.7-2.4,13-5.1,19.1c7-3.1,15.4-6.1,22-2.1C383.5,402,379.5,395.3,379,388.2
				z"/>
		</g>
	</g>
	<g>
		<g>
			<path fill="#535258" d="M394.9,408.2c-9.3-6.8-23.1-4.5-31.8,3.1c-8.7,7.6-12.8,19.2-14.1,30.6c-1.1,9.4-0.4,19.4,3.9,27.8
				c4.3,8.5,12.8,15.2,22.3,15.6c5.1,0.2,10.2-1.4,14.7-3.9c13.3-7.4,21.1-22.9,20.6-38.1c-0.5-15.2-8.8-29.6-20.9-38.8"/>
		</g>
		<g opacity="9.000000e-02">
			<g>
				<path fill="#E2E2E4" d="M391.3,416.1c-5.6,1.5-10.9,6.9-10.3,13.1c0.3,2.8,2.3,5.3,5.2,5.7c1.4,0.2,2.6-0.1,3.7-1
					c1.2-0.9,1.6-2.5,2.8-3.3c1.2-0.8,2.8-0.7,4-1.7c1-0.9,1.6-2.1,1.8-3.4c0.4-2.7-1-5.8-2.8-7.8c-6.2-6.8-10.8,5.5-13,9.7
					c1.5,0.6,3,1.3,4.6,1.9c1.1-2.6,4-4.1,6.7-3.6c3.1,0.6,4.5-4.2,1.3-4.8c-5.6-1.1-10.7,1.8-12.9,7.1c-1.1,2.6,3.3,4.4,4.6,1.9
					c0.5-0.9,4.3-9.1,4.9-8.9c0.9,0.2,1.8,3.3,1.4,3.9c-0.5,0.9-2.7,1-3.6,1.6c-0.9,0.6-1.5,1.5-2.1,2.4c-0.5,0.7-0.6,1.5-1.5,0.6
					c-0.6-0.6-0.1-2.2,0.1-2.8c0.9-2.9,3.5-4.9,6.4-5.7C395.8,420.1,394.4,415.3,391.3,416.1L391.3,416.1z"/>
			</g>
		</g>
	</g>
	<g>
		<g>
			<path fill="#DBD28C" d="M451.4,327.8c3.8,4.9,10.3,6.6,16.1,9c5.2,2.1,10,5.1,14.7,8c5.3,3.2,10.6,6.5,14.8,11.1
				c4.7,5.2,7.5,11.8,10.3,18.2c-4.9-0.9-6.5-7-8.4-11.6c-4.2-9.8-13.7-16-22.8-21.7c-4.6-2.9-9.3-5.8-14.5-7.6
				c-4.2-1.5-9-2.3-12.1-5.5"/>
		</g>
		<g>
			<g>
				<path fill="#DBD28C" d="M449.6,329.6c3.1,3.7,7.3,5.7,11.7,7.5c6.6,2.6,12.7,5.6,18.8,9.4c5.6,3.4,11.3,6.8,15.6,11.8
					c4.2,5,6.8,11.1,9.4,17.1c0.9-1.2,1.9-2.4,2.8-3.7c-5.3-1.5-6.4-10.2-9-14.4c-3.1-4.9-7.4-8.8-11.9-12.2
					c-5.2-3.9-10.9-7.5-16.6-10.6c-5.9-3.2-14-4.1-19.1-8.5c-2.4-2.1-6,1.4-3.5,3.5c5.1,4.4,11.8,5.1,17.7,8
					c6.7,3.3,13.4,7.6,19.4,12.2c5.9,4.5,10,9.6,12.9,16.5c1.9,4.6,3.9,8.8,9,10.3c2.3,0.7,3.6-1.8,2.8-3.7
					c-2.4-5.6-4.9-11.3-8.7-16.2c-3.7-4.9-8.6-8.5-13.7-11.7c-5.9-3.7-11.9-7.5-18.3-10.2c-5.6-2.4-11.5-3.8-15.5-8.6
					C451,323.6,447.5,327.1,449.6,329.6L449.6,329.6z"/>
			</g>
		</g>
	</g>
	<g>
		<g>
			<path fill="#DBD28C" d="M517.7,361.2c-0.3-1.4-1.9-2.1-3.1-2.9c-1.2-0.8-2.2-2.6-1.1-3.6c-7.5-0.4-13.8-5.9-21.1-7.4
				c-3.3-0.7-6.9-0.6-9.7-2.5c3.9,0.4,6.1,4.7,9.8,6c3.4,1.2,8.2-0.1,10.3,2.9c0.8,1.1,1,2.6,2.1,3.3c0.7,0.4,1.5,0.4,2.3,0.7
				c1.7,0.5,2.9,2.2,4.5,3.1c1.2,0.7,2.7,0.9,4.1,0.6"/>
		</g>
		<g>
			<g>
				<path fill="#DBD28C" d="M518.3,360.9c-0.7-1.5-4.9-4.5-4.2-5.8c0.2-0.4-0.1-0.9-0.5-0.9c-6-0.6-10.8-3.8-16.3-5.9
					c-4.6-1.8-9.9-1.5-14.2-3.9c-0.2,0.4-0.3,0.8-0.5,1.1c4,0.9,6,4.6,9.6,6c3.2,1.2,6.4,0.1,9.1,2.5c1.3,1.2,1.9,2.4,3.1,3.6
					c0.7,0.7,4.5,2.1,4.6,2.1c2.4,1.5,3.6,2.8,6.7,2.5c0.8-0.1,0.8-1.3,0-1.2c-2.8,0.3-9.7-3.8-11.8-6.2c-1.3-1.5-1.7-2.6-3.8-3.3
					c-3.8-1.2-7-0.3-10.5-3c-2.2-1.7-3.9-3.5-6.8-4.2c-0.7-0.2-1.1,0.8-0.5,1.1c3.3,1.9,7,1.8,10.6,2.7c4.5,1.1,8.4,3.5,12.7,5.3
					c1.8,0.7,5.8,1.2,6.8,2.2c0.4,0.4,0.4,1.8,0.9,2.3c1.1,1.5,2.9,1.6,3.9,3.5C517.5,362.3,518.6,361.6,518.3,360.9L518.3,360.9z"
					/>
			</g>
		</g>
	</g>
	<g>
		<g>
			<path fill="#DBD28C" d="M366,347.3c4.7-3.5,6.3-10.6,3.6-15.8c-1.5-2.8-4.1-5.8-2.7-8.6c0.4-0.9,1.2-1.6,1.3-2.6
				c0-0.9-0.5-1.6-1.1-2.3c-5.4-6.5-12.9-11.3-21.1-13.6c-1.4-0.6-2.3,1.8-1.3,2.9c1,1.1,2.6,1.1,4.1,1.4c6.6,1,11.2,6.9,15.1,12.4
				c0.7,1,1.4,2,1.7,3.1c0.6,2.6-1,5.6,0.5,7.8c-7.7-6.7-19.5-8.3-28.7-3.9c-0.6,1.1,0.7,2.4,1.9,2.4c1.2,0,2.3-0.7,3.4-1.3
				c3.2-1.6,7-1.7,10.6-1.8c2.8,0,5.7-0.1,8.3,1.1c2.6,1.1,4.7,3.7,4.4,6.5c-0.3,2.2-2.1,4-4.1,5.1c-4.9,2.8-11.6,2.9-14.7,7.6
				c4.3-3,10.6-2.8,14.6,0.6c1.8,1.6,3.1,4.4,1.7,6.3"/>
		</g>
		<g>
			<g>
				<path fill="#DBD28C" d="M366.9,348.2c3.1-2.6,5-6.1,5.3-10.2c0.1-2-0.2-3.9-0.9-5.8c-0.4-1-1-1.8-1.4-2.8c-1-2.4-1.4-4.9-1-7.5
					c0.2-1.7,0.8-1.7,0-3.5c-0.9-2-3.3-3.9-4.8-5.3c-3.8-3.5-8.3-6.3-13.1-8.3c-2.1-0.8-5.6-3-7.4-0.6c-1.5,2,0,4.2,2,5
					c2.6,1.1,5.3,0.9,7.8,2.4c2.8,1.6,5.1,4.2,7.1,6.7c2.1,2.6,4.1,5,4,8.4c0,2.2-0.3,3.7,0.6,5.7c0.7-0.5,1.3-1,2-1.5
					c-8.6-7.1-20.1-8.6-30.2-4.1c-0.4,0.2-0.6,0.7-0.6,1.1c-0.1,2.2,1.2,3.6,3.5,3.6c1.8,0,3.4-1.3,5-1.9c3.1-1.1,6.3-1.2,9.6-1.2
					c1.8,0,3.8-0.1,5.5,0.5c1.1,0.6,2.3,1.2,3.4,1.8c0,2.2,0.1,4.5,0.1,6.7c-1.3,2.1-5.7,3-7.8,3.8c-3.5,1.2-6.8,2.4-9.1,5.5
					c-0.8,1,0.2,2.8,1.5,2c2.6-1.6,5.5-2.4,8.5-1.7c2.7,0.6,7.9,3.2,6,6.9c-0.7,1.4,1.4,2.7,2.2,1.3c1.9-3.7-0.5-7.3-3.9-9.2
					c-4.5-2.5-9.8-2-14.1,0.6c0.5,0.7,1,1.3,1.5,2c4.5-5.8,13.6-4.3,17.8-10.3c3-4.2,0.5-9.1-3.9-11.1c-3.5-1.6-8-1.3-11.7-1
					c-1.6,0.1-3.3,0.2-5,0.7c-1,0.3-3.5,1.9-4.3,1.8c-2.2-0.2,4.9-1.7,4.8-1.7c2.3-0.3,4.7-0.2,6.9,0.2c4.7,0.7,8.9,2.7,12.5,5.7
					c1.1,0.9,2.5-0.2,2-1.5c-1.3-2.8,0.4-6-0.9-8.9c-1.1-2.4-3.3-4.9-5-6.9c-2.2-2.6-4.8-5.1-7.8-6.6c-0.9-0.5-1.9-0.8-2.9-1.1
					c-1.2-0.3-5.7-1.6-1.8-1.1c3.9,0.5,8.8,4.3,11.8,6.7c1.4,1.2,3.7,2.7,4.6,4.4c2.3,4.1,0.3,3.8,0.1,6.7c-0.2,3,2.1,5.3,3.3,7.8
					c2.4,5.1,0.9,10.7-3.4,14.3C363.9,347.4,365.6,349.2,366.9,348.2L366.9,348.2z"/>
			</g>
		</g>
	</g>
	<g>
		<g>
			<path fill="#6C7F62" d="M365.8,335.3c2.4-0.4,3.1-4,1.5-5.9c-1.5-1.9-4.1-2.6-6.6-3.1c-9.6-2.1-19.5-4.1-29.2-2.8
				c-23.2,3.2-39.2,24-57.4,38.8c-9.1,7.4-19.2,13.5-27,22.3c-5.6,6.3-9.7,13.7-13.7,21.1c-6.3,11.5-12.6,22.9-18.9,34.4
				c-14.6,26.6-29.3,53.4-37.6,82.6c-1.8,6.5-3.4,13.2-6.6,19.1c-4.9,9.1-13.4,15.9-18.9,24.8c-8.9,14.6-8.5,32.8-7.9,49.9
				c0.5,12.8,1,25.6,1.5,38.4c0.1,1.7,0.2,3.5,1.3,4.7c3.1,3.5,8.4-1.1,10.6-5.2c6.1-11.8,11.5-24.3,20.6-34.1
				c7.6-8.2,17.3-14.1,25.2-22c12.4-12.4,19.7-29.2,31.9-41.9c13-13.6,30.8-21.7,44.3-34.7c22-21.3,30-52.8,43.5-80.3
				c5.5-11.2,12.1-22,16-33.9c7.3-22.2,4.7-46.2,2.6-69.5c-0.3-3.3-0.4-7.1,2.2-9.1c6.2-4.7,15.9,7.8,21.7,2.6"/>
		</g>
		<g>
			<path fill="#687F5A" d="M145,654.9c0,0.9,0.1,1.9,0.3,2.8c2.2-5.9,3.8-12.1,5.6-18.3c4.9-16.8,13.9-32.3,21.7-47.9
				c7.8-15.5,15.8-30.9,25.4-45.5c9.1-13.9,19.7-26.7,30.2-39.5c10.7-13.1,21.5-26.1,31.4-39.8c9.1-12.7,18.3-26.2,23.8-40.9
				c9.1-24.2,10.8-51.2,24.2-73.8c6.8-11.4,17.3-22.5,30.8-25.2c9.5-1.9,18.7,0.3,28,2c-1.5-1.3-3.7-1.9-5.8-2.3
				c-9.6-2.1-19.5-4.1-29.2-2.8c-23.2,3.2-39.2,24-57.4,38.8c-9.1,7.4-19.2,13.5-27,22.3c-5.6,6.3-9.7,13.7-13.7,21.1
				c-6.3,11.5-12.6,22.9-18.9,34.4c-14.6,26.6-29.3,53.4-37.6,82.6c-1.8,6.5-3.4,13.2-6.6,19.1c-4.9,9.1-13.4,15.9-18.9,24.8
				c-8.9,14.6-8.5,32.8-7.9,49.9C144,629.3,144.5,642.1,145,654.9z"/>
		</g>
	</g>
	<g>
		<g>
			<path fill="#DBD28C" d="M419.4,234.9c1.3-3,2.8-6,4.3-8.8c1.2-2.2,2.6-4.5,4.8-5.7c0.3-0.1,0.5-0.3,0.8-0.2
				c0.3,0.1,0.5,0.5,0.6,0.8c0.8,3-1.6,5.9-4.2,7.7c-2.5,1.8-5.6,3.3-6.9,6.1"/>
		</g>
		<g>
			<g>
				<path fill="#DBD28C" d="M420.4,235.5c1.3-2.8,2.6-5.6,4.1-8.4c0.7-1.3,1.4-2.6,2.3-3.8c0.3-0.4,0.7-0.8,1.1-1.2
					c1.7-1.5,1,0.2,0.4,1.5c-2.1,4.8-8.2,5.9-10.7,10.5c-0.8,1.4,1.4,2.7,2.2,1.3c2.1-3.8,6.6-5,9.3-8.2c1.5-1.7,3.3-5.5,1.4-7.6
					c-4.2-4.7-11.4,12.7-12.3,14.6C417.6,235.7,419.8,237,420.4,235.5L420.4,235.5z"/>
			</g>
		</g>
	</g>
	<g>
		<g>
			<path fill="#DBD28C" d="M367.5,329.1c-1.7-6,6.5-9.2,8.5-14.1c1.7-4,0.9-8.6,0.2-12.7c-0.8,0.2-1.6,0.4-2.4,0.7
				c1.4,3.9,2.6,8.6,0.1,12.4c-1.3,2-4,3.4-5.5,5.3c-2.7,3.4-4,7.3-4.5,11.5c-0.2,1.6,2.3,1.6,2.5,0c0.5-4.4,2.3-8.3,5.3-11.5
				c1.5-1.6,3.7-2.7,4.9-4.6c2.6-3.9,1.1-9.7-0.3-13.8c-0.5-1.5-2.7-0.9-2.4,0.7c0.6,3.2,1.2,6.8,0.3,10c-1,3.7-4.2,5.5-6.5,8.1
				c-2.2,2.5-3.4,5.4-2.4,8.7C365.5,331.3,367.9,330.7,367.5,329.1L367.5,329.1z"/>
		</g>
	</g>
	<g>
		<g>
			<path fill="#DBD28C" d="M369.8,329.9c5.3-7,12.5-1.6,19.4-2.7c-0.4-0.7-0.8-1.4-1.2-2.1c-7,6-18.4-5.7-24.3,3.8
				c-0.6,1,0.4,2,1.4,1.8c4.6-0.8,8.2-4,13.1-2.8c3.5,0.8,6.6,2.9,10.2,3.6c3.5,0.7,8.8,0.1,10.1-4c2.5-7.6-13.3-8.7-14.9-1.9
				c-0.2,1,0.6,1.7,1.5,1.5c2.1-0.4,4.3-0.8,6.4-1.2c-0.5-0.6-0.9-1.2-1.4-1.8c-0.8,1.5-2,2.6-3.4,3.4c0.5,0.7,1,1.3,1.5,2
				c1.5-1.4,3.3-2.3,5.3-2.8c-0.3-0.8-0.6-1.5-1-2.3c-0.9,0.5-1.9,0.9-2.8,1.4c-1.3,0.6-0.4,2.8,1,2.3c-0.2-0.2-0.3-0.4-0.5-0.7
				c-0.9,1.3,1.3,2.6,2.2,1.3c1.1-1.6-0.5-3.7-2.3-3c0.3,0.8,0.6,1.5,1,2.3c0.9-0.5,1.9-0.9,2.8-1.4c1.3-0.6,0.4-2.7-1-2.3
				c-2.4,0.8-4.4,1.8-6.4,3.4c-1.1,0.9,0.3,2.7,1.5,2c1.8-1.2,3.1-2.5,4.3-4.3c0.6-1-0.4-2-1.4-1.8c-2.1,0.4-4.3,0.8-6.4,1.2
				c0.5,0.5,1,1,1.5,1.5c0.6-2.4,3.6-2.6,5.5-2.5c1.3,0,2.5,0.2,3.7,0.8c-1.2,1.6-2.5,3.2-3.7,4.8c-2.7,1-8-2.2-10.4-3
				c-2.5-0.9-4.9-1.5-7.5-1.1c-3.2,0.5-6,2.6-9.2,3.1c0.5,0.6,0.9,1.2,1.4,1.8c3.5-5.6,10.8-1.4,15.6-0.9c3.2,0.3,5.8-0.3,8.3-2.4
				c1.1-0.9-0.1-2.3-1.2-2.1c-4.7,0.7-9.1-2.2-13.8-1.1c-3,0.7-5.2,2.5-7.1,4.9C366.7,329.9,368.9,331.1,369.8,329.9L369.8,329.9z"
				/>
		</g>
	</g>
	<g>
		<g>
			<path fill="#DBD28C" d="M485.7,344.6c9.7,2.6,19.7,1.2,28.4-3.9c-0.6-0.1-1.1-0.3-1.7-0.4c3,5.8-15.8,3.6-17.3,3.4
				c-4.6-0.8-9.1-2-13.5-3.2c-1.6-0.4-2.1,1.8-0.7,2.4c7.1,2.9,14.6,4.2,22.3,3.7c3.3-0.3,10.6-0.6,10.9-5.3
				c0.2-3.5-3.7-4.5-6.5-4.2c-8.2,0.9-15.9,9.1-24.2,3.3c-1.3-0.9-2.6,1.2-1.3,2.2c7.7,5.4,15.5-0.1,23.2-2.4c0.7-0.2,3-1.1,3.7-0.7
				c0,1.2,0,2.5,0,3.7c-0.4,0.1-0.7,0.2-1.1,0.3c-1.8,1.2-6.9,0.8-9.1,0.8c-6-0.1-11.8-1.4-17.3-3.7c-0.2,0.8-0.4,1.6-0.7,2.4
				c8.6,2.3,17.6,4.7,26.7,3.9c4.2-0.4,9.6-2.7,7-7.8c-0.3-0.6-1.2-0.8-1.7-0.4c-8.1,4.8-17.3,6.1-26.5,3.6
				C484.9,341.8,484.2,344.2,485.7,344.6L485.7,344.6z"/>
		</g>
	</g>
	<g>
		<g>
			<path fill="#DBD28C" d="M436.1,307.2c4.8-7.6,7.9-15.8,9.5-24.6c-0.5,0.3-1,0.6-1.5,0.9c2.6,0.4-4.5,11.8-4.9,12.5
				c-2.1,3.6-4.1,7.2-6.2,10.9c-0.8,1.4,1.3,2.6,2.2,1.3c5.3-7.8,9.9-16,13.6-24.6c0.3-0.6,0.2-1.4-0.4-1.7
				c-1.3-0.6-2.4-1.1-3.8-1.4c-1.6-0.3-2.2,2.1-0.7,2.4c1.1,0.2,2.2,0.5,3.2,1.1c-0.1-0.6-0.3-1.1-0.4-1.7
				c-3.7,8.7-8.3,16.9-13.6,24.6c0.7,0.4,1.4,0.8,2.2,1.3c3.8-6.7,7.9-13.3,11.5-20.1c1.4-2.7,2-6.4-1.9-6.9
				c-0.6-0.1-1.4,0.1-1.5,0.9c-1.5,8.6-4.6,16.6-9.3,24C433.1,307.3,435.3,308.6,436.1,307.2L436.1,307.2z"/>
		</g>
	</g>
	<g>
		<g>
			<path fill="#DBD28C" d="M450,269.9c-3.9-0.8-8.2,2.3-7.8,6.6c0.4,3.7,4.6,6.4,8.1,5.2c3.3-1.2,5.1-5.5,3.4-8.7
				c-1.9-3.7-7.1-4.4-10-1.6c-3.1,2.9-3,7.8,0.2,10.5c3.2,2.8,8.1,2,10.3-1.7c2.1-3.6,0-8.4-4.1-9.2c-3.8-0.8-7.8,3.3-5.5,7
				c1.8,2.9,8.4,1.7,7.1-2.1c-1.4-4-7.5,0.2-3.5,3c1.3,0.9,2.6-1.2,1.3-2.2c-0.1-0.1-0.9,0.5-1.1,0.5c-0.9,0.1-1.3-0.1-1.6-0.9
				c-0.7-1.6,0.8-3,2.4-2.9c2.9,0.2,4.2,3.7,2.6,6c-3.6,5.1-10.8-1.6-6.5-5.9c1.7-1.7,4.7-1.6,6.1,0.4c1.1,1.6,0.4,4.3-1.3,5.3
				c-1.9,1.1-4.4-0.1-5.2-2c-1.1-2.7,1.7-5.3,4.4-4.8C450.9,272.7,451.6,270.3,450,269.9L450,269.9z"/>
		</g>
	</g>
	<g>
		<g>
			<path fill="#DBD28C" d="M415.4,290.5c-0.3-10.8-13.3-19.1-21.3-24.5c0.1,0.6,0.3,1.1,0.4,1.7c1.3-1.9,9.9,8.1,11,9.3
				c2.6,2.8,5.2,5.2,8.7,6.8c1.4,0.7,2.6-1.3,1.3-2.2c-6.7-4.4-12.5-9.6-17.5-15.9c-2.9-3.6-6.3-8.5-11.6-7.1
				c-9,2.3-1.5,14.6,6.4,10c8.2-4.7,0-17.5-7.6-11.4c-7.7,6.3,5,16.2,8.4,9c1.3-2.7-1.1-7.5-4.4-7.1c-3.7,0.4-3.3,4.9,0.1,5.3
				c0.7,0.1,1.5-0.9,1.2-1.6c-1-2.4-3.7-2.8-5.2-0.5c-0.8,1.4,1.3,2.6,2.2,1.3c0.2,0,0.4-0.1,0.6-0.1c0.4-0.5,0.8-1.1,1.2-1.6
				c3,1.8,2.4,0.7-1.9-3.3c4.7-0.6,6.8,1.2,6.1,5.3c-2.2,4-4.1,4.1-5.6,0.2c-3.1-2.3-3-3.4,0.4-3.4c4.1,0.1,7.1,5.7,9.5,8.5
				c4.8,5.6,10.3,10.3,16.5,14.3c0.4-0.7,0.8-1.4,1.3-2.2c-6.4-2.9-9.7-9-14.8-13.5c-2.2-1.9-6-5-8.3-1.8c-0.4,0.6-0.1,1.4,0.4,1.7
				c7,4.7,19.9,13,20.1,22.4C412.9,292.1,415.4,292.1,415.4,290.5L415.4,290.5z"/>
		</g>
	</g>
	<g>
		<g>
			<path fill="#DBD28C" d="M450.4,335.7c-0.3,6.5-1.8,12.9-4.7,18.8c-2.4,4.8-3.5,6.6-10.6,4.8c-1.4-0.4-2-1.2-3.7-0.8
				c-6.1,1.4-4.2,9.2,0.5,10.9c5,1.9,12.6-1,10-7.3c-2.7-6.4-10.8-4-13,1.4c-2.1,5.1,2.7,11.5,8,7.6c5-3.7,0.9-11.1-4.7-10.7
				c-5.7,0.4-7.3,7.5-1.2,9c4.4,1.1,9.3-4.9,4.2-7.2c-1.9-0.8-3.9,0.6-3.4,2.7c0.8,3,4.6,1.9,6.5,1.1c10.1-4.1,12.4-15.5,11.9-25.2
				c-0.1-1.4-2-1.7-2.5-0.3c-2.5,7.9-6.6,14.9-12.5,20.8c-1.1,1.2,0.6,2.9,1.8,1.8c6.1-6.3,10.5-13.6,13.1-21.9
				c-0.8-0.1-1.6-0.2-2.5-0.3c0.4,8.3-1,18.2-9.2,22.4c-0.9,0.3-1.7,0.7-2.6,1c-2.9,4.1-4.3,3.8-4.3-0.7c1.8-3,4.3-3.4,7.6-1.2
				c-0.6,1.6-1.1,3.2-1.7,4.9c-4.1,3-7.2-4.5-2.7-4.9c0.1,0,2.7,1.4,2.8,1.4c5.1,1,8.2-4.1,10.1-7.9c3.1-6.3,4.6-13.1,5-20
				C453,334.1,450.5,334.1,450.4,335.7L450.4,335.7z"/>
		</g>
	</g>
	<g>
		<g>
			<g>
				<path fill="#D6D3C3" d="M397.9,214.3c2.8-0.7,5.8,0.7,7.8,2.9s3,5,4.1,7.7c-3.4-0.3-6.7-1.1-9.8-2.3c-1.6-0.7-3.3-1.5-4.2-3
					c-0.9-1.5-0.9-3.7,0.6-4.7c1.1-0.7,2.6-0.5,3.9-0.7c2.6-0.4,4.8-2.3,5.9-4.6c1.2-2.3,1.4-5,1.3-7.6c-0.1-1.5-0.7-3.4-2.1-3.4
					c-0.6,0-1.2,0.3-1.6,0.6c-5.3,3.8-5.3,12.1-10.3,16.2c2.5-2.5,3.6-6.3,2.9-9.7c-0.7-3.4-3.2-6.5-6.5-7.8
					c-0.3-0.1-0.5-0.2-0.8-0.1c-0.2,0.1-0.3,0.3-0.4,0.5c-3.4,5.9-1.2,14.3,4.6,17.8c-2.4-3.7-5.6-6.9-9.8-8.3
					c-4.1-1.3-9.2-0.4-11.8,3.1c-0.2,0.3-0.4,0.6-0.5,1c-0.1,0.5,0.2,0.9,0.4,1.3c2,3.2,5.6,5.3,9.4,5.8c3.8,0.5,7.7-0.3,11.1-2
					c-6.8-0.6-13.8,3.7-16.4,10c6,2.6,13.9-1.6,15-8.1c-2.5,2.6-4.4,6.1-3.9,9.6c0.8,5.3,7,8.6,7.8,13.9c2.6-3,4.9-6.4,5.6-10.3
					c0.7-3.9-0.6-8.3-3.9-10.6c-1.8-1.2-4.3-1.9-5.3-3.8"/>
			</g>
			<g>
				<g>
					<path fill="#D6D3C3" d="M397.9,216.8c5.6-0.7,7.8,4.5,9.4,8.7c0.8-1.1,1.6-2.1,2.4-3.2c-1.4-0.2-14.7-2.5-10.9-5.7
						c0.3-0.3,3.1-0.4,3.6-0.6c1.1-0.4,2.1-1,3-1.8c3.8-3.2,5.7-10.1,4-14.8c-1.5-4.3-5.6-4.2-8.6-1.4c-4.5,4.3-4.8,11.2-9.3,15.4
						c1.2,1.2,2.4,2.4,3.5,3.5c3.5-4.1,5-9.5,2.7-14.6c-1.3-2.9-5.6-8.3-9.5-7.1c-3.9,1.2-4.1,8.4-3.7,11.5
						c0.7,4.8,3.3,8.7,7.3,11.4c2,1.4,4.8-1.4,3.4-3.4c-3.3-4.8-7.8-9.2-13.9-10c-4.2-0.5-9.7,0.9-12.1,4.8
						c-2.6,4.3,2.6,8.7,6.1,10.4c5.8,2.9,12.1,1.7,17.7-0.8c2.4-1.1,1-4.6-1.3-4.7c-7.9-0.3-15.2,4-18.5,11.2
						c-0.7,1.5-0.1,3.1,1.5,3.7c7.7,2.8,16.2-1.9,18.1-9.8c0.6-2.3-2.5-4.4-4.2-2.4c-3.2,3.7-5.7,8.2-4.2,13.2
						c1.4,4.9,6.4,7.7,7.5,12.7c0.4,1.8,3,2.5,4.2,1.1c3.7-4.3,6.9-9.5,6.4-15.4c-0.2-2.4-1-4.8-2.4-6.7c-1.9-2.6-5.4-3.2-7.2-5.6
						c-1.9-2.5-6.3,0-4.3,2.5c2.4,3.1,6.8,4,8.3,7.6c2.2,5.1-1,10.3-4.3,14.1c1.4,0.4,2.8,0.7,4.2,1.1c-0.7-3-2.3-5.2-4.1-7.6
						c-3.7-4.8-4.8-8.5-0.4-13.5c-1.4-0.8-2.8-1.6-4.2-2.4c-1.3,5.4-6.8,8.2-11.9,6.3c0.5,1.2,1,2.4,1.5,3.7c2.7-5.7,7.9-9,14.2-8.8
						c-0.4-1.6-0.8-3.1-1.3-4.7c-3.3,1.5-7,2.4-10.6,1.5c-1.5-0.4-3.1-1-4.2-2.1c-1.7-1.6-2.3-2.3-0.2-3.8
						c5.5-3.9,12.5,2.6,15.3,6.7c1.1-1.1,2.3-2.3,3.4-3.4c-3.6-2.4-6.3-7.7-4.6-12.1c0.5-1.4-0.9-1.1,0.7-0.7c1.1,0.3,2.1,2.1,2.6,3
						c1.6,3.2,0.9,6.7-1.4,9.4c-2.1,2.4,1.2,5.8,3.5,3.5c4-3.8,4.8-9,7.7-13.4c3.6-5.4,1.5,4.7,0,6.3c-2.2,2.3-5.3,1.2-7.8,2.8
						c-3,1.9-3,6-1.1,8.6c3.3,4.5,10.7,5.5,15.8,6.1c1.5,0.2,3-1.7,2.4-3.2c-2.4-6.3-6.4-13.5-14.3-12.4
						C394.7,212.2,394.7,217.2,397.9,216.8L397.9,216.8z"/>
				</g>
			</g>
		</g>
		<g>
			<g>
				<path fill="#DBC680" d="M393.1,220.6c-1.1,4-1.2,7.8-0.4,11.9c0.3-0.2,0.7-0.4,1-0.6c-1.7-1.7-5.4-0.8-3.9,2.1
					c1.2,2.4,4.8,0.7,3.8-1.7c-0.1-0.2-0.3-0.5-0.6-0.5c-1.8,0.1-1.7,1.3-1.6,3c0,0.7,1.1,0.9,1.2,0.2c1-5,1.7-10.1,2.1-15.2
					c0-0.3-0.3-0.6-0.6-0.6c-2.2,0.1-3.8,0.7-5.7,1.9c-2.8,1.6-2.3,1.6-6.4,2.1c-0.4,0-0.9-0.5-1.3-0.3c-1.2,0.5-2.7,1.6-1.7,3.2
					c2.7,3.8,4.9-5.2,0.4-2c-0.4,0.3-0.4,1,0.1,1.1c4.3,1.3,10.2-3.4,13.7-5.4c0.3-0.2,0.4-0.7,0.1-1c-2-1.8-4.2-3.3-6.8-4.2
					c-1-0.3-7.9-1.7-8-1.4c-0.1,0.3-0.1,0.7,0.2,0.9c3.6,1.7,7.6,4.5,11.4,5.6c0.9,0.3,2.1,0.9,3,0c2.5-2.6-2.5-11.8-3.7-14.3
					c-0.3-0.6-1.4-0.2-1.1,0.5c0,0.7,0,1.3,0,2c0.4,0,0.8,0.1,1.1,0.1c0.9,2.6,1.4,3.9,1.5,6.7c0.1,1.8,0,3.6,0.2,5.4
					c0.1,0.6,0.8,0.9,1.2,0.3c1.7-2.5,3.5-4.9,5.6-7c1.1-1.2,3.1-2.3,3.9-3.6c0.8-1.4,0.8-2.3-0.6-3.2c-0.2-0.1-0.5-0.1-0.6,0
					c-1,0.7-1.2,1.6-0.1,2.4c0.3,0.2,0.7,0.1,0.9-0.2c0.1-0.2,0.2-0.4,0.3-0.5c0.2-0.3,0.1-0.6-0.2-0.9c-0.2-0.1-0.3-0.2-0.5-0.4
					c-0.2-0.2-0.6-0.1-0.8,0.1c-3.3,3.4-5.7,7.3-7.4,11.8c-0.2,0.5,0.3,0.9,0.8,0.8c3.2-0.7,6.5,1,7.8,3.9c0.3-0.3,0.7-0.5,1-0.8
					c-0.3-0.4-0.5-0.8-0.8-1.2c-0.7,0.3-0.4,1.5,0.3,1.2c1.1-0.4,2-1.8,0.5-2.5c-2.5-1.1-1.7,2.4-1,3.4c0.5,0.6,1.3-0.2,1-0.8
					c-0.9-1.8-2-3.2-3.8-4c-0.9-0.4-2.6-0.3-3.3-0.7c-0.3,0-0.5,0-0.8,0c0.3-1,0.7-2,1.2-3c0.8-1.5,1.9-3.8,3.3-4.9
					c3-2.6-0.7,1.1-1.4,1.8c-2.4,2.4-4.5,5-6.4,7.9c0.4,0.1,0.8,0.2,1.2,0.3c-0.6-5,0.7-10.3-3.1-14.3c-0.3-0.3-0.8-0.2-1,0.1
					c-0.6,1.2-0.6,1.1-0.2,2.4c0.2,0.5,0.9,0.7,1.1,0.1c0.6-1.4,0.6-1.1,0.5-2.6c0-0.4-0.4-0.8-0.8-0.6c-1,0.4-0.9,0.3-1.6,1
					c-0.2,0.2-0.2,0.5-0.1,0.8c0.5,0.8,0.5,0.9,1.5,1.1c0.3,0.1,0.7-0.1,0.8-0.4c0.2-1.2,0.2-1-0.1-2.2c-0.4,0.2-0.8,0.3-1.1,0.5
					c1.1,2.3,3.1,5.6,3.1,8.2c1.1,1.9,0.3,3.1-2.4,3.6c-0.8-0.4-1.6-0.8-2.4-1.2c-2.1-1-6.6-2-6.7-4.5c0-0.5-0.5-0.7-0.9-0.5
					c-1.7,0.8-2.4,4.1,0.3,3.7c2.4-0.4,1.2-2.9-0.6-3.3c-0.2,0-0.5,0-0.6,0.2c-1.3,1.7-0.2,2.5,1.6,2.8c2.6,0.4,10,0,10.9,3.7
					c0.4,1.8-2.1,2.3-3.7,3.1c-2.1,1.1-4.6,2.9-7,2.1c0,0.4,0.1,0.8,0.1,1.1c1.3-0.9,2.5,0.1,3.7-0.1c1.5-0.3,2.8-1.3,4-2.1
					c0.7-0.5,1.7-1.3,2.5-1.5c1,0.1,2,0.2,3,0.3c-0.1,0.6-0.1,1.3-0.2,1.9c0.7,2.8-1.1,8-1.7,11.1c0.4,0.1,0.8,0.1,1.2,0.2
					c0.1-0.7,0.2-1.3,0.3-2c0.5,0.5,1.2,0,1-0.6c-0.8-3.9-0.6-7.4,0.4-11.2C394.5,220.1,393.3,219.8,393.1,220.6L393.1,220.6z"/>
			</g>
		</g>
	</g>
	<g>
		<g>
			<g>
				<path fill="#DBD28C" d="M351.1,352.4c-5.5,6.4-10.4,13.1-14.7,20.3c-2,3.4-8.2,11.5-3.5,15.3c4.9,4,6-5.2,6.6-7.8
					c2.2-8.9,5.5-17.4,11.8-24.2c1.1-1.2-0.6-2.9-1.8-1.8c-8.3,8.1-14.4,18-17.9,29.1c-0.4,1.4,1.5,2.1,2.3,1
					c2.5-3.9,5-7.8,7.6-11.7c0.8-1.2-1-2.6-2-1.5c-2.3,2.7-3.9,5.4-4.9,8.8c-0.5,1.5,1.9,2.2,2.4,0.7c0.9-3,2.2-5.4,4.3-7.7
					c-0.7-0.5-1.3-1-2-1.5c-2.5,3.9-5,7.8-7.6,11.7c0.8,0.3,1.5,0.6,2.3,1c3.4-10.7,9.2-20.1,17.3-28c-0.6-0.6-1.2-1.2-1.8-1.8
					c-7.2,7.7-10.7,17.5-13,27.6c-0.3,1.5,0.1,4.4-1.6,1.8c-1.4-2-0.1-3.2,0.9-5.1c1.4-2.6,2.9-5.1,4.5-7.6
					c3.7-5.9,7.9-11.5,12.5-16.8C353.9,353,352.1,351.2,351.1,352.4L351.1,352.4z"/>
			</g>
		</g>
		<g>
			<path fill="#D6D3C3" d="M330.1,388.8c-1.7-1.2-2.1-3.6-2.6-5.6s-2-4.4-4.1-4.1c-2,0.2-2.9,2.8-2.2,4.6s2.5,3,4.3,3.8
				c1.3,0.6,2.9,1.5,2.5,2.9c-2.1-2.2-3.8-4.7-6.1-6.7s-5.1-3.6-8.2-3.5c-3,0.1-6.1,2.2-6.5,5.3c0,0.2,0,0.5,0.1,0.7
				c0.1,0.2,0.4,0.4,0.7,0.5c3.1,1,6.4-1.6,9.7-1.2c3.1,0.4,5.2,3.1,6.9,5.7c-1.1-2.7-4.2-4.5-7.1-4.1c-2.9,0.3-5.5,2.7-6,5.6
				c2,1.6,4.6-0.5,6.8-1.8c3.5-2.1,8.2-2.1,11.7,0.2c-1.5,0.8-3.2-0.6-4.8-1.1c-2.6-0.8-5.6,1.3-5.8,4c0,0.4,0,0.8,0.3,1.1
				c0.4,0.4,1,0.2,1.5,0.1c1.7-0.5,3.2-1.3,4.7-2.2c0.8-0.5,1.6-1.1,2.6-1.1c0.9,0,1.9,0.9,1.6,1.8c-5.2,0.6-9.6,5.1-10.2,10.3
				c-0.1,0.5-0.1,1,0.1,1.4c0.5,1.3,2.6,1.2,3.6,0.2c1-1,1.2-2.5,1.5-3.9c0.5-2.3,1.2-4.5,2.7-6.3c1.5-1.8,3.7-3,6-2.9
				c-2.1,4.2-4.1,8.4-6.2,12.5c-0.5,1-1,2.1-1,3.2c0.1,1.1,0.9,2.3,2,2.3c1.4,0,2.1-1.5,2.6-2.8c1.5-4.5,2.4-9.3,2.5-14
				c2.1,0.5,3.6,2.5,4,4.7c0.4,2.1-0.2,4.3-0.8,6.4c1.9,0.5,3.8-1.3,3.9-3.2c0.2-1.9-0.9-3.8-2.2-5.2s-2.8-2.7-3.8-4.4
				c6.2,1.6,11.2,6.8,12.6,13c2.1-1,2.6-4,1.5-6.1s-3.3-3.3-5.5-4.2c-2.4-1-4.9-1.8-7.5-2.2c6,0.8,11.9,3.1,16.9,6.5
				c2.1-2.5-0.1-6.6-3.2-7.7c-3.1-1.1-6.4-0.3-9.7-0.1c-4.1,0.3-8.3-0.4-12.1-1.9"/>
		</g>
	</g>
	<g>
		<g>
			<path fill="#DBD28C" d="M416.4,286.4c2.1-5.7,1.9-11.4,1.2-17.4c-0.7-6.2-1.4-12.6-3.8-18.4c-2.2-5.2-6.2-9.3-8.8-14.3
				c-2.3-4.4-2.4-9.9-6.4-13.2c-0.4-0.3-0.9-0.2-1,0.3c-1.6,4.6,0,8.7,2.8,12.5c4.2,5.7,8.7,10.5,11.3,17.3c2.3,6,3.3,12.4,3.1,18.8
				c-0.2,4.9-0.9,9.7,2.1,13.9c0.5,0.7,1.5,0,1.1-0.6c-3.3-4.7-1.9-10.4-1.9-15.7c0-4.6-0.7-9.3-2.1-13.7c-1.4-4.7-3.6-9.2-6.4-13.2
				c-3.2-4.5-8.9-8.8-9.2-14.6c-0.3-0.9-0.3-1.7,0.1-2.4c0.1-1.2,0.5-1.2,1,0c1.3,0.9,1.5,2.9,2,4.3c0.6,1.8,1.1,3.6,1.8,5.4
				c2.2,4.8,5.9,8.6,8.3,13.3c3.1,6,4,12.8,4.7,19.5c0.7,6.1,1,12-1.1,17.9C414.9,286.8,416.1,287.1,416.4,286.4L416.4,286.4z"/>
		</g>
	</g>
</g>
<g>
	<polygon fill="#FFFFFF" points="1046.5,1582.5 -902,1582.5 -902,1575.5 1039.5,1575.5 1039.5,609 1117.5,609 1117.5,616 
		1046.5,616 	"/>
</g>
</svg>
