<?xml version="1.0" encoding="utf-8"?>
<!-- Generator: Adobe Illustrator 18.0.0, SVG Export Plug-In . SVG Version: 6.00 Build 0)  -->
<!DOCTYPE svg PUBLIC "-//W3C//DTD SVG 1.1//EN" "http://www.w3.org/Graphics/SVG/1.1/DTD/svg11.dtd">
<svg version="1.1" id="Capa_1" xmlns="http://www.w3.org/2000/svg" xmlns:xlink="http://www.w3.org/1999/xlink" x="0px" y="0px"
	 viewBox="0 0 749 1334" enable-background="new 0 0 749 1334" xml:space="preserve">
<g>
	<path fill="#FFFFFF" d="M154.2,1094.6h17.2l16.3,69.3v-69.3h15.9V1214h-17.2l-15.7-67.1v67.1h-16.6V1094.6z"/>
	<path fill="#FFFFFF" d="M267.5,1171.7l5.6,42.4h-17.4l-3.3-25.3h-17.6l-3.4,25.3H214l5.6-42.2l12.2-77.2h23.6L267.5,1171.7z
		 M250.1,1171.7l-6.6-49.7l-6.6,49.7H250.1z"/>
	<path fill="#FFFFFF" d="M283.5,1094.6h25.1c15.3,0,22.9,8.4,22.9,25.1v18c0,10.5-4.5,17.4-13.6,20.8l19.4,55.6h-18.9l-15.5-52.5
		l-2.2,0.3v52.2h-17.2V1094.6z M300.7,1111.6v34.2h4c2.4,0,4-0.2,4.9-0.5c3.1-1.3,4.7-3.8,4.7-7.6v-18c0-5.4-2.5-8.2-7.5-8.2H300.7z
		"/>
	<path fill="#FFFFFF" d="M395,1171.7l5.6,42.4h-17.4l-3.3-25.3h-17.6l-3.4,25.3h-17.3l5.6-42.2l12.2-77.2h23.6L395,1171.7z
		 M377.6,1171.7l-6.6-49.7l-6.6,49.7H377.6z"/>
	<path fill="#FFFFFF" d="M411,1094.6h17.2l16.3,69.3v-69.3h15.9V1214h-17.2l-15.7-67.1v67.1H411V1094.6z"/>
	<path fill="#FFFFFF" d="M470.2,1174.8h17.2v16.1c0,5.4,2.5,8.1,7.5,8.1c5,0,7.5-2.7,7.5-8.1v-96.2h17.2v96.2
		c0,16.8-8.2,25.1-24.7,25.1c-16.5,0-24.8-8.4-24.8-25.1V1174.8z"/>
	<path fill="#FFFFFF" d="M535.5,1094.6h44.7v17h-27.5v34.2h23.6v17h-23.6v34.2h27.5v17h-44.7V1094.6z"/>
	<path fill="#FFFFFF" d="M593,1094.6h25.1c15.3,0,22.9,8.4,22.9,25.1v18c0,10.5-4.5,17.4-13.6,20.8l19.4,55.6h-18.9l-15.5-52.5
		l-2.2,0.3v52.2H593V1094.6z M610.2,1111.6v34.2h4c2.4,0,4-0.2,4.9-0.5c3.1-1.3,4.7-3.8,4.7-7.6v-18c0-5.4-2.5-8.2-7.5-8.2H610.2z"
		/>
	<path fill="#FFFFFF" d="M704.8,1190.9c0,16.7-8.3,25.1-24.8,25.1c-16.5,0-24.7-8.4-24.7-25.1v-73c0-16.7,8.2-25.1,24.7-25.1
		c16.5,0,24.8,8.4,24.8,25.1V1190.9z M687.6,1117.8c0-5.4-2.5-8.1-7.5-8.1H680c-5,0-7.4,2.7-7.4,8.1v73c0,5.4,2.5,8.1,7.5,8.1
		c5,0,7.5-2.7,7.5-8.1V1117.8z"/>
</g>
<g>
	<path fill="#FFFFFF" d="M431.6,1273.6c0,0.1-0.1,0.2-0.2,0.3s-0.2,0.2-0.4,0.2s-0.4,0.1-0.7,0.1s-0.6,0.1-1,0.1c-0.4,0-0.7,0-1-0.1
		s-0.4-0.1-0.6-0.1s-0.2-0.1-0.3-0.2s-0.1-0.2,0-0.3l5.8-29.2c0-0.1,0.1-0.2,0.2-0.3s0.2-0.2,0.4-0.2s0.4-0.1,0.6-0.1
		s0.6-0.1,0.9-0.1s0.7,0,0.9,0.1s0.4,0.1,0.6,0.1s0.2,0.1,0.3,0.2s0.1,0.2,0,0.3L431.6,1273.6z"/>
	<path fill="#FFFFFF" d="M458.1,1271.5c0,0.1,0,0.2,0,0.4s-0.1,0.4-0.1,0.6s-0.1,0.4-0.1,0.6s-0.1,0.4-0.2,0.6s-0.2,0.3-0.3,0.4
		s-0.3,0.2-0.4,0.2h-13.4c-0.2,0-0.4,0-0.5-0.1s-0.3-0.1-0.4-0.3s-0.2-0.3-0.3-0.5s0-0.5,0-0.8l5.6-28.1c0-0.1,0.1-0.2,0.2-0.3
		s0.2-0.2,0.4-0.2s0.4-0.1,0.7-0.1s0.6-0.1,1-0.1s0.7,0,0.9,0.1s0.5,0.1,0.6,0.1s0.2,0.1,0.3,0.2s0.1,0.2,0,0.3l-5.2,26.2h10.9
		c0.2,0,0.3,0.1,0.4,0.2S458.1,1271.2,458.1,1271.5z"/>
	<path fill="#FFFFFF" d="M487,1244.6c0,0.1,0,0.2,0,0.4s0,0.3-0.1,0.5s-0.1,0.4-0.1,0.6s-0.1,0.4-0.2,0.6s-0.2,0.3-0.3,0.4
		s-0.3,0.2-0.4,0.2h-11.8l-1.9,9.5h10.2c0.2,0,0.3,0.1,0.4,0.2s0.1,0.3,0.1,0.6c0,0.1,0,0.2,0,0.4s-0.1,0.3-0.1,0.5
		s-0.1,0.4-0.1,0.6s-0.1,0.4-0.2,0.5s-0.2,0.3-0.3,0.4s-0.3,0.2-0.4,0.2h-10.2l-2.2,10.9h12.1c0.2,0,0.3,0.1,0.4,0.2
		s0.2,0.3,0.2,0.6c0,0.1,0,0.2,0,0.4s0,0.4-0.1,0.5s-0.1,0.4-0.1,0.6s-0.1,0.4-0.2,0.5s-0.2,0.3-0.3,0.4s-0.3,0.1-0.4,0.1H466
		c-0.2,0-0.3,0-0.5-0.1s-0.3-0.1-0.4-0.3s-0.2-0.3-0.2-0.5s0-0.5,0-0.8l5.4-27c0.1-0.6,0.4-1,0.7-1.3s0.7-0.4,1.1-0.4h14.4
		C486.8,1243.8,487,1244.1,487,1244.6z"/>
	<path fill="#FFFFFF" d="M504.5,1258.7l5.7,14c0.1,0.3,0.2,0.6,0.2,0.8s-0.1,0.4-0.2,0.5s-0.4,0.2-0.7,0.2s-0.8,0.1-1.3,0.1
		c-0.5,0-0.8,0-1.1,0s-0.5-0.1-0.6-0.1s-0.3-0.1-0.3-0.2s-0.1-0.2-0.2-0.3l-4.6-12.2l-9.2,12.2c-0.1,0.1-0.2,0.3-0.3,0.4
		s-0.3,0.2-0.5,0.2s-0.4,0.1-0.7,0.1s-0.7,0-1.1,0c-0.5,0-0.9,0-1.3-0.1s-0.5-0.1-0.7-0.2s-0.1-0.3-0.1-0.5s0.2-0.5,0.5-0.8
		l11.2-14.2l-5.2-13.3c-0.1-0.3-0.2-0.6-0.2-0.8s0.1-0.4,0.2-0.5s0.4-0.2,0.7-0.2s0.8-0.1,1.3-0.1c0.4,0,0.8,0,1,0s0.5,0.1,0.6,0.2
		s0.3,0.2,0.3,0.3s0.1,0.3,0.2,0.5l4.1,11.1l8.6-11.3c0.1-0.1,0.2-0.2,0.3-0.3s0.3-0.2,0.4-0.2s0.4-0.1,0.7-0.1s0.6,0,1.1,0
		c0.5,0,0.9,0,1.3,0.1s0.5,0.1,0.7,0.2s0.1,0.3,0.1,0.5s-0.2,0.5-0.5,0.8L504.5,1258.7z"/>
	<path fill="#FFFFFF" d="M554,1250.9c0,0.8-0.1,1.7-0.3,2.6s-0.5,1.8-0.9,2.7s-1,1.7-1.6,2.5s-1.4,1.5-2.4,2.1s-2,1.1-3.2,1.4
		s-2.6,0.5-4.2,0.5h-4.2l-2.2,10.9c0,0.1-0.1,0.2-0.2,0.3s-0.2,0.2-0.4,0.2s-0.4,0.1-0.7,0.1s-0.6,0.1-1,0.1c-0.4,0-0.7,0-0.9,0
		s-0.4-0.1-0.6-0.1s-0.2-0.1-0.3-0.2s-0.1-0.2,0-0.3l5.6-28c0.1-0.6,0.4-1.1,0.8-1.3s0.8-0.4,1.4-0.4h6c0.8,0,1.5,0,2.1,0.1
		s1.2,0.1,1.7,0.3c0.8,0.2,1.6,0.5,2.3,0.9s1.3,0.9,1.7,1.4s0.8,1.2,1.1,2S554,1250,554,1250.9z M549.7,1251.4c0-1-0.2-1.8-0.7-2.5
		s-1.2-1.2-2.2-1.5c-0.4-0.1-0.8-0.2-1.2-0.2s-0.9,0-1.5,0h-3.8l-2.4,12.2h3.8c1.1,0,2-0.1,2.8-0.4s1.4-0.6,2-1s1.1-0.9,1.5-1.4
		s0.7-1.1,1-1.7s0.4-1.2,0.6-1.8S549.7,1251.9,549.7,1251.4z"/>
	<path fill="#FFFFFF" d="M580.6,1244.6c0,0.1,0,0.2,0,0.4s0,0.3-0.1,0.5s-0.1,0.4-0.1,0.6s-0.1,0.4-0.2,0.6s-0.2,0.3-0.3,0.4
		s-0.3,0.2-0.4,0.2h-11.8l-1.9,9.5h10.2c0.2,0,0.3,0.1,0.4,0.2s0.1,0.3,0.1,0.6c0,0.1,0,0.2,0,0.4s-0.1,0.3-0.1,0.5
		s-0.1,0.4-0.1,0.6s-0.1,0.4-0.2,0.5s-0.2,0.3-0.3,0.4s-0.3,0.2-0.4,0.2H565l-2.2,10.9h12.1c0.2,0,0.3,0.1,0.4,0.2s0.2,0.3,0.2,0.6
		c0,0.1,0,0.2,0,0.4s0,0.4-0.1,0.5s-0.1,0.4-0.1,0.6s-0.1,0.4-0.2,0.5s-0.2,0.3-0.3,0.4s-0.3,0.1-0.4,0.1h-14.6
		c-0.2,0-0.3,0-0.5-0.1s-0.3-0.1-0.4-0.3s-0.2-0.3-0.2-0.5s0-0.5,0-0.8l5.4-27c0.1-0.6,0.4-1,0.7-1.3s0.7-0.4,1.1-0.4h14.4
		C580.4,1243.8,580.6,1244.1,580.6,1244.6z"/>
	<path fill="#FFFFFF" d="M607,1250.2c0,1.1-0.2,2.1-0.5,3.1s-0.8,1.9-1.4,2.7s-1.4,1.5-2.3,2.2s-2,1.1-3.2,1.5
		c0.8,0.3,1.5,0.9,2,1.9s0.9,2.2,1.2,3.8l1.2,6.7c0,0.3,0.1,0.6,0.1,0.8s0.1,0.5,0.1,0.7c0,0.1,0,0.3-0.1,0.4s-0.2,0.2-0.4,0.2
		s-0.4,0.1-0.7,0.1s-0.7,0-1.1,0c-0.4,0-0.7,0-1,0s-0.4-0.1-0.6-0.2s-0.2-0.2-0.3-0.3s-0.1-0.3-0.1-0.5l-1.2-7.1
		c-0.1-0.8-0.3-1.6-0.5-2.2s-0.5-1.3-0.9-1.7s-0.9-0.9-1.6-1.1s-1.4-0.4-2.3-0.4h-2.7l-2.6,12.9c0,0.1-0.1,0.2-0.2,0.3
		s-0.2,0.2-0.4,0.2s-0.4,0.1-0.7,0.1s-0.6,0.1-1,0.1c-0.4,0-0.7,0-0.9,0s-0.5-0.1-0.6-0.1s-0.2-0.1-0.3-0.2s-0.1-0.2,0-0.3l5.6-28.1
		c0.1-0.6,0.4-1,0.8-1.3s0.8-0.4,1.2-0.4h6.6c1.4,0,2.7,0.1,3.8,0.4s2,0.7,2.7,1.2s1.3,1.2,1.7,2S607,1249.2,607,1250.2z
		 M602.6,1250.8c0-0.5-0.1-1-0.3-1.5s-0.5-0.8-0.9-1.2s-0.9-0.6-1.6-0.8s-1.4-0.3-2.3-0.3h-4.2l-2.1,10.2h3.6c1.4,0,2.6-0.2,3.6-0.6
		s1.8-0.9,2.4-1.5s1.1-1.3,1.4-2.1S602.6,1251.6,602.6,1250.8z"/>
	<path fill="#FFFFFF" d="M635.4,1272.7c0,0.3,0.1,0.6,0,0.8s-0.1,0.4-0.3,0.5s-0.4,0.2-0.7,0.2s-0.7,0-1.3,0c-0.3,0-0.6,0-0.9,0
		s-0.4-0.1-0.6-0.1s-0.2-0.1-0.3-0.2s-0.1-0.2-0.1-0.4l-1.1-7.4h-12.6l-4,7.3c-0.1,0.2-0.2,0.3-0.3,0.4s-0.2,0.2-0.4,0.2
		s-0.4,0.1-0.7,0.1s-0.6,0-1.1,0c-0.5,0-0.8,0-1.1-0.1s-0.5-0.1-0.6-0.2s-0.1-0.3-0.1-0.5s0.2-0.5,0.3-0.8l15.8-28.2
		c0.1-0.2,0.2-0.3,0.4-0.4s0.3-0.2,0.5-0.3s0.5-0.1,0.8-0.1s0.7,0,1.1,0c0.5,0,0.9,0,1.3,0s0.6,0.1,0.8,0.1s0.3,0.2,0.4,0.3
		s0.1,0.3,0.2,0.4L635.4,1272.7z M627.5,1247.9L627.5,1247.9l-8.2,15.1h10.5L627.5,1247.9z"/>
	<path fill="#FFFFFF" d="M669.4,1254.7c0,1-0.1,2.1-0.2,3.2s-0.4,2.2-0.7,3.3s-0.7,2.2-1.2,3.2s-1.1,2.1-1.8,3s-1.5,1.8-2.4,2.7
		s-2,1.5-3.1,2.1s-2.5,1.1-3.9,1.4s-3.2,0.5-5.2,0.5h-6.7c-0.2,0-0.4,0-0.6-0.1s-0.3-0.1-0.5-0.3s-0.2-0.3-0.3-0.5s0-0.5,0-0.8
		l5.4-27c0.1-0.6,0.3-1,0.7-1.3s0.8-0.4,1.3-0.4h6.4c2.3,0,4.3,0.2,5.8,0.7s2.8,1.2,3.8,2.1s1.8,2.1,2.3,3.4
		S669.4,1253,669.4,1254.7z M665.1,1255.1c0-1.2-0.2-2.2-0.5-3.2s-0.8-1.8-1.5-2.5s-1.6-1.2-2.6-1.6s-2.5-0.6-4.3-0.6H652l-4.7,23.6
		h4.2c1.9,0,3.5-0.2,4.8-0.7s2.4-1.1,3.4-1.9s1.8-1.7,2.5-2.8s1.2-2.1,1.7-3.3s0.8-2.3,1-3.6S665.1,1256.2,665.1,1255.1z"/>
	<path fill="#FFFFFF" d="M703.1,1254c0,1.2-0.1,2.5-0.3,4s-0.6,3-1.1,4.5s-1.2,3-2.1,4.5s-1.9,2.7-3.2,3.8s-2.7,2-4.5,2.7
		s-3.7,1-5.9,1c-1.8,0-3.3-0.2-4.7-0.7s-2.5-1.1-3.4-2s-1.6-2-2-3.3s-0.7-2.8-0.7-4.5c0-1.3,0.1-2.8,0.4-4.3s0.6-3.1,1.2-4.6
		s1.2-3,2.1-4.4s1.9-2.7,3.2-3.8s2.7-2,4.4-2.6s3.6-1,5.8-1c1.8,0,3.3,0.2,4.7,0.7s2.5,1.1,3.4,2s1.6,2,2,3.3
		S703.1,1252.3,703.1,1254z M698.8,1254.3c0-1.1-0.1-2.1-0.4-3s-0.6-1.7-1.2-2.4s-1.3-1.2-2.2-1.5s-2-0.6-3.3-0.6
		c-1.6,0-3.1,0.3-4.3,0.9s-2.3,1.4-3.2,2.4s-1.6,2.1-2.2,3.3s-1.1,2.5-1.4,3.7s-0.6,2.5-0.8,3.6s-0.2,2.2-0.2,3c0,1.1,0.1,2.1,0.4,3
		s0.6,1.7,1.2,2.3s1.3,1.1,2.2,1.5s2,0.5,3.3,0.5c1.6,0,3-0.3,4.2-0.9s2.3-1.4,3.2-2.3s1.6-2,2.2-3.2s1.1-2.4,1.4-3.7
		s0.6-2.4,0.8-3.6S698.8,1255.2,698.8,1254.3z"/>
</g>
<g>
	<g>
		<path fill="#6C8053" d="M367.4,673c-22,6-38.8,25.1-46.4,46.6s-7.1,45.1-3.6,67.6c2.2,14.4,5.8,29,14.2,40.8
			c3.1,4.3,6.8,8.4,8.3,13.5c1.5,5.1,0.9,11.6,5.3,14.7c3.9,2.7,9.4,0.9,13.8,2.7c5.7,2.5,8.1,10.8,14.3,11.5
			c2.3,0.3,4.6-0.7,6.7-1.7c19.7-9.7,34.5-27.7,43.5-47.7c9-20,12.6-42.1,14.1-64c0.6-9.3,0.9-18.8-1.5-27.8
			c-4.7-17.9-18.7-31.5-32.9-43.4c-8.6-7.2-18.9-14.6-30-12.8"/>
	</g>
	<g opacity="0.25">
		<g>
			<path fill="#597141" d="M435.6,729.3c-4.7-17.9-18.7-31.6-32.9-43.4c-8.6-7.2-18.9-14.6-30-12.8l-0.4,0
				c-8.6,8.5-12.1,21-13.2,33.2c-2.6,28.9,5.7,57.1,5.8,85.8c0.1,12-0.5,24,0.1,36c0.5,10.3,2.2,20.3,4.9,30.2
				c0.9,3.4,2.1,7.7,2.7,12.1c0.1,0,0.2,0,0.2,0c2.3,0.3,4.6-0.7,6.7-1.7c19.7-9.7,34.5-27.7,43.5-47.7c9-20,12.6-42.1,14.1-64
				C437.7,747.8,438,738.3,435.6,729.3z"/>
		</g>
	</g>
	<g opacity="0.13">
		<g>
			<path fill="#C1CB82" d="M372.4,672.2c-9.4,10.2-11,23.9-11.9,37.2c-0.6,8.2-1.1,16.3-2.4,24.5c-1.2,8.2-0.3,15.9,0.7,24.1
				c2.5,19.3,5,38.6,7.5,57.9c2.5,19.3,5.1,38.6,5,58.1c0,0.7,1,0.8,1.2,0.2c10.9-33-9.6-66-13.4-98.5
				c-4.1-34.8,1.2-70.4,14.1-102.9c0.3-0.7-0.9-1.1-1.2-0.3c-12.5,31.4-17.8,65.7-14.6,99.4c1.6,17,6.7,33,11.4,49.4
				c4.9,17.1,8.3,35.2,2.5,52.6c0.4,0.1,0.8,0.1,1.2,0.2c0.1-18.2-2.2-36.2-4.5-54.2c-2.4-18.6-4.8-37.3-7.2-55.9
				c-1.1-8.4-2.9-17.1-2.1-25.6c0.7-7.4,2.1-14.6,2.5-22c1-15,1.2-31.5,12-43.2C373.8,672.5,373,671.6,372.4,672.2L372.4,672.2z"/>
		</g>
	</g>
	<g opacity="0.13">
		<g>
			<path fill="#C1CB82" d="M372.6,674c-8.6,10.2-18.2,19.6-28.8,27.7c-7.4,5.7-19.3,11.3-21.1,21.5c-1.4,7.8,5.9,12.1,12.7,9.3
				c10.8-4.4,15.5-17.1,27.2-20.4c1.5-0.4,0.9-2.8-0.7-2.4c-7.3,2.1-12.5,7.3-17.7,12.6c-3.3,3.3-8.4,9.4-13.7,8.7
				c-10.4-1.5-3.8-12.6,0.5-16.5c6.9-6.4,15.3-11.2,22.5-17.4c7.6-6.5,14.5-13.6,20.9-21.3C375.4,674.5,373.6,672.8,372.6,674
				L372.6,674z"/>
		</g>
	</g>
	<g opacity="0.13">
		<g>
			<path fill="#C1CB82" d="M330.4,731.2c-7,4.1-14.1,9.4-16.2,17.7c-1.7,6.8,1.1,14.4,7.9,16.9c6.4,2.4,11.6-1.8,15.3-6.7
				c2.8-3.7,5-7.7,8.7-10.6c4.3-3.4,9.5-5.2,14.9-6c1.6-0.2,0.9-2.6-0.7-2.4c-5.8,0.8-11.3,2.8-15.9,6.5c-4.5,3.6-6.8,8.7-10.5,13
				c-2.6,3-6.2,5.4-10.4,4.1c-4.8-1.5-7.5-6.5-7.3-11.4c0.5-9,8.4-14.8,15.5-19C333.1,732.6,331.8,730.4,330.4,731.2L330.4,731.2z"
				/>
		</g>
	</g>
	<g opacity="0.13">
		<g>
			<path fill="#C1CB82" d="M323.2,766.5c-4.6,6-8.1,14.5-6.9,22.2c0.8,4.9,4.1,7.9,9,6.1c16-5.9,14.5-29.6,30.7-35.4
				c0.8-0.3,0.4-1.5-0.3-1.2c-10.7,3.8-14.2,15-19.4,24c-2.4,4.2-15.3,19.9-18.6,7.5c-2-7.6,2-16.7,6.5-22.6
				C324.8,766.5,323.7,765.8,323.2,766.5L323.2,766.5z"/>
		</g>
	</g>
	<g opacity="0.13">
		<g>
			<path fill="#C1CB82" d="M331.1,793.5c-2.6,4.1-5.7,9.3-3.1,14.2c1.7,3.2,5.1,4.3,8.5,3.1c5-1.8,6.7-7,8.5-11.5
				c3.4-8.3,9-15,16.6-19.7c0.7-0.4,0.1-1.5-0.6-1.1c-6.9,4.2-12.5,10.1-15.9,17.4c-1.8,3.9-2.7,8.6-5.9,11.7
				c-4.7,4.4-11.4,0.7-10.6-5.5c0.4-3,2.1-5.6,3.7-8C332.6,793.5,331.5,792.8,331.1,793.5L331.1,793.5z"/>
		</g>
	</g>
	<g opacity="0.13">
		<g>
			<path fill="#C1CB82" d="M337.6,810.7c-1.1,5.2-5.8,10.3-3.9,15.9c1.1,3.2,4.1,4.8,7.3,3.6c4.9-1.8,7-8.2,9.2-12.4
				c4-7.8,9.1-15.7,18.5-17.1c0.8-0.1,0.5-1.3-0.3-1.2c-9,1.3-14.5,8.6-18.5,16.2c-1.2,2.2-2.2,4.5-3.4,6.7
				c-0.7,1.4-1.6,3.2-2.8,4.2c-0.3,0.3-0.7,0.7-1,1c-2.6-0.5-5.2-0.9-7.7-1.4c-2.6-4,3.1-11.2,3.9-15.2
				C339,810.2,337.8,809.9,337.6,810.7L337.6,810.7z"/>
		</g>
	</g>
	<g opacity="0.13">
		<g>
			<path fill="#C1CB82" d="M345.2,828c0,4.7-3.1,23.4,7.3,19c4.2-1.8,4.8-6.6,5.7-10.6c1.7-7.1,6.1-12.6,12.8-15.5
				c0.7-0.3,0.1-1.4-0.6-1.1c-5.8,2.6-10.5,7.2-12.6,13.3c-0.7,2-0.9,4.2-1.5,6.2c-0.4,1.9-1.2,3.6-2.4,5.2c-3.5,3.1-6,2.2-7.6-2.6
				c-1-4,0.1-9.8,0.1-13.9C346.4,827.2,345.2,827.2,345.2,828L345.2,828z"/>
		</g>
	</g>
	<g opacity="0.13">
		<g>
			<path fill="#C1CB82" d="M368,822.3c11,5.3,10.4,19.3,19.3,26.3c5.8,4.6,13.7,1.7,16.6-4.9c3.5-7.9-1.7-16.5-7.4-21.8
				c-8.7-8.1-19.2-14.6-28.8-21.6c-0.6-0.5-1.3,0.6-0.6,1.1c7.5,5.5,15,10.9,22.4,16.5c7.3,5.5,16.9,13.8,13.7,24.1
				c-1.8,5.8-8.3,9.8-14,6.4c-4.1-2.4-6.2-7.2-8.1-11.4c-3-6.4-5.8-12.7-12.5-15.9C367.9,820.8,367.3,821.9,368,822.3L368,822.3z"/>
		</g>
	</g>
	<g opacity="0.13">
		<g>
			<path fill="#C1CB82" d="M403.7,834.2c6-1.8,10.9-6.5,11.8-12.9c1.1-7.8-3.3-13.3-9.3-17.6c-7.7-5.6-15.7-11.8-24.5-15.5
				c-7.6-3.1-15.6-10.7-24.3-8.1c-0.8,0.2-0.4,1.4,0.3,1.2c7.7-2.3,13.8,4,20.4,6.9c6.7,2.9,12.3,6.1,18.3,10.3
				c6,4.1,14.8,8.3,17.2,15.6c2.8,8.3-2.1,16.5-10.3,18.9C402.6,833.2,402.9,834.4,403.7,834.2L403.7,834.2z"/>
		</g>
	</g>
	<g opacity="0.13">
		<g>
			<path fill="#C1CB82" d="M413.7,815.8c6.9-2.2,9.2-10.4,10.2-16.8c1.3-9-3-14.9-10.8-19c-9.9-5.1-20.4-6.9-31-10
				c-5.9-1.7-10.8-5.4-15.9-8.7c-2.7-1.8-6.7-6.1-10.1-5.3c-0.3,0.1-0.5,0.3-0.5,0.6c0,0.9,0.1,1,0.9,1.4c0.3,0.2,0.6,0.1,0.9-0.2
				c0.1-0.1,0.2-0.2,0.2-0.3c0.5-0.6-0.6-1.3-1.1-0.6c0.4-0.6,18.2,11.6,20.1,12.5c7.2,3.5,15.7,4,23.3,6.6c7.5,2.5,18.5,6,21.9,14
				c3,7.1-0.3,22.1-8.5,24.7C412.6,814.9,412.9,816.1,413.7,815.8L413.7,815.8z"/>
		</g>
	</g>
	<g opacity="0.13">
		<g>
			<path fill="#C1CB82" d="M424.1,787.8c4.9-6.1,10.4-13.6,7.8-21.9c-2.5-7.9-12.2-10.6-19.2-13.1c-10.5-3.7-21.4-6.3-32.4-7.8
				c-6.4-0.9-11.3-1.1-16.6-5.1c-2.8-2.1-5.4-3.5-8.9-2.1c-1.5,0.6-0.8,3,0.7,2.4c4.6-1.8,7.8,3.2,11.5,4.9c3,1.3,6.2,1.6,9.4,1.9
				c8.5,1,16.9,2.6,25.2,4.8c7.5,2.1,15.9,4.3,22.6,8.3c11,6.7,4.4,18.2-1.6,25.7C421.3,787.2,423.1,789,424.1,787.8L424.1,787.8z"
				/>
		</g>
	</g>
	<g opacity="0.13">
		<g>
			<path fill="#C1CB82" d="M427.4,759c3.7-5.6,6.6-13.1,2.7-19.4c-3.7-6-12.2-8.8-18.6-11c-9.1-3.2-19.1-4.1-27.9-8.2
				c-7.3-3.4-13.7-8.6-22.1-8.1c-1.6,0.1-1.6,2.6,0,2.5c7.6-0.4,13.6,4.2,20.2,7.4c6.1,3,12.7,4.3,19.2,5.9c7,1.7,14,3.9,20.4,7.4
				c3.5,1.9,7,4.4,7.9,8.5c1.1,4.9-1.4,9.8-4,13.8C424.3,759.1,426.5,760.3,427.4,759L427.4,759z"/>
		</g>
	</g>
	<g opacity="0.13">
		<g>
			<path fill="#C1CB82" d="M425.7,731.7c-2.7-13.1-11-23.5-22.7-29.8c-3.3-1.8-6.8-3.3-10-5.4c-4.1-2.7-6.9-6.2-9.8-10.1
				c-3.4-4.6-7.3-8.3-13.2-8.8c-1.6-0.1-1.6,2.4,0,2.5c7.9,0.7,11.1,8.7,15.9,13.8c4,4.3,9.2,6.8,14.4,9.4
				c11.9,6.2,20.3,15.8,23,29.1C423.6,733.9,426,733.2,425.7,731.7L425.7,731.7z"/>
		</g>
	</g>
	<g opacity="0.13">
		<g>
			<path fill="#C1CB82" d="M355.4,840.4c0.3,5.5,3.1,10.7,7.8,13.7c3,1.9,10.1,3.1,9.4-2.6c-0.1-0.8-1.3-0.8-1.2,0
				c-0.4,0.9-0.8,1.8-1.3,2.7c-1,0.1-2,0.2-3,0.2c-1-0.1-2-0.8-2.9-1.2c-1.4-0.8-2.7-1.9-3.8-3.1c-2.4-2.7-3.6-6.1-3.8-9.7
				C356.6,839.6,355.3,839.6,355.4,840.4L355.4,840.4z"/>
		</g>
	</g>
	<g>
		<path fill="#6C8053" d="M378.4,618.6c-5.3-23-11.3-47.3-28-64.1c-10.3-10.3-23.7-16.8-37-22.6c-19-8.2-39.1-15.5-59.8-14.3
			c-41.1,2.2-73.3,36.2-112.7,48c12,21.1,31.1,37.4,52,49.6s43.8,20.8,66.5,29.2c7.3,2.7,14.8,5.4,22.5,5
			c15.4-0.8,27.1-13.5,40-21.9c17.3-11.2,39-15.3,59.1-11.1"/>
	</g>
	<g>
		<g>
			<path fill="#6C8053" d="M376.6,618.7c3.2,0,3.2-5,0-5C373.3,613.7,373.3,618.7,376.6,618.7L376.6,618.7z"/>
		</g>
	</g>
	<g opacity="0.52">
		<g>
			<path fill="#D6D896" d="M145.4,565.3c6.5,4.9,13.2,9.9,21,12.3c8.3,2.5,17.2,1.7,25.9,0.7c33.5-3.9,67.1-10.6,100.7-7.8
				c33.6,2.8,68.3,17.1,86,45.9c-8.8,0.6-14.5-8.5-19.9-15.4c-16.7-21.3-45.5-28.5-72.4-30.7c-25.6-2-51.4-0.6-76.7,4.2
				c-10.1,1.9-20.2,4.4-30.4,4.1c-13.9-0.4-27.6-6.3-37.5-16.2"/>
		</g>
		<g>
			<g>
				<path fill="#D6D896" d="M145.1,565.8c6.3,4.8,12.8,9.6,20.4,12.1c8.1,2.6,16.7,2.1,25,1.2c18.7-2,37.3-5.1,56.1-7
					c33.1-3.3,67.7-2.5,97.8,13.5c6.7,3.6,13,7.8,18.6,12.8c2.6,2.3,5,4.7,7.3,7.2c1.4,1.6,2.8,3.3,4.1,5c0.6,0.7,3.5,4,3.4,4.9
					c-0.5,2.5-9-4-9.9-4.9c-2.7-2.7-5-5.8-7.3-8.9c-4-5.1-8.6-9.7-13.8-13.5c-24.2-17.5-57.1-19.8-85.9-19.5
					c-20.4,0.2-40.3,3.1-60.3,6.9c-10.8,2.1-21.7,3.3-32.5,0.5c-9.6-2.5-18.2-7.4-25.3-14.3c-0.6-0.6-1.5,0.3-0.9,0.9
					c11.2,10.8,26.2,16.8,41.8,16.3c9-0.3,17.9-2.4,26.7-4.1c10.4-2,20.8-3.4,31.3-4.2c19.2-1.5,38.8-1.3,57.8,1.4
					c15.5,2.3,31.1,6.6,44.3,15.3c7.5,5,13,11.3,18.6,18.3c4.3,5.5,9.3,11.1,16.9,11c0.5,0,0.8-0.5,0.5-0.9
					c-15-23.8-40.8-37.7-67.8-43.5c-35-7.5-71-1.3-105.9,3.3c-9.9,1.3-20.3,3.2-30.3,2.5c-11.7-0.8-20.7-6.9-29.8-13.7
					C145.1,564.2,144.4,565.3,145.1,565.8L145.1,565.8z"/>
			</g>
		</g>
	</g>
	<g opacity="0.13">
		<g>
			<path fill="#C1CB82" d="M168.8,576.6c-4,8.2,2.4,17.1,10.9,18.4c5.3,0.8,12.3-0.6,16.4-4.2c1.3-1.1,1.9-2.3,2.6-3.8
				c2-4.1,3.5-8,6-11.8c0.4-0.7-0.6-1.3-1.1-0.6c-1.9,2.9-3.6,5.9-5,9.1c-2.5,5.6-5.2,8.2-11.3,9.6c-9.4,2.2-23-4.8-17.5-16.2
				C170.2,576.5,169.2,575.9,168.8,576.6L168.8,576.6z"/>
		</g>
	</g>
	<g opacity="0.13">
		<g>
			<path fill="#C1CB82" d="M187.8,595.8c-1.4,4.5,0.5,9.2,4.5,11.8c4.5,2.9,10.4,1.9,14.7-0.8c5-3.2,8-8.6,10-14
				c1.6-4.3,2.7-8.8,5.9-12.2c3.3-3.5,8-5.4,12.3-7.2c0.7-0.3,0.4-1.5-0.3-1.2c-3.9,1.6-7.9,3.3-11.2,6.1c-3.6,3-5.3,6.9-6.8,11.2
				c-2.1,6-4.8,12.7-10.5,16.2c-7.3,4.5-20.6,1.3-17.4-9.6C189.3,595.4,188.1,595.1,187.8,595.8L187.8,595.8z"/>
		</g>
	</g>
	<g opacity="0.13">
		<g>
			<path fill="#C1CB82" d="M209.9,605.3c1.1,12.6,15.1,15.9,23.7,8c12.2-11.2,7.4-36,25.5-41.4c0.8-0.2,0.4-1.4-0.3-1.2
				c-10.6,3.2-14.2,14-17,23.6c-2.1,7.3-4.5,15.2-11.1,19.8c-7.9,5.5-18.6,1.2-19.5-8.8C211,604.5,209.8,604.5,209.9,605.3
				L209.9,605.3z"/>
		</g>
	</g>
	<g opacity="0.13">
		<g>
			<path fill="#C1CB82" d="M231.3,613.8c0,5.6,0.8,14.3,7.9,15.3c6,0.9,12-4.9,15.4-9.2c11.8-15.2,10.1-41.9,30.6-49.6
				c0.7-0.3,0.4-1.5-0.3-1.2c-12.6,4.7-17.7,17.5-21.7,29.3c-2.6,7.7-5.2,15.7-10.6,22c-2.6,3-6.5,6.6-10.6,7.3
				c-8.4,1.6-9.5-8.1-9.5-13.9C232.5,613,231.3,613,231.3,613.8L231.3,613.8z"/>
		</g>
	</g>
	<g opacity="0.13">
		<g>
			<path fill="#C1CB82" d="M253.8,620.4c0.7,5.6,3,12.2,8.8,14.5c7.5,2.9,14-3.8,16.6-10.1c4-9.7,5.5-20.1,10.2-29.6
				c5-9.9,12.3-18.3,22.5-23c0.7-0.3,0.1-1.4-0.6-1.1c-13.2,6.1-21.4,18.3-26.5,31.6c-3,7.9-3.9,17.2-8.2,24.5
				c-3,5.1-9.4,9.4-15.1,5.7c-4.2-2.6-5.8-7.9-6.4-12.5C254.9,619.7,253.7,619.6,253.8,620.4L253.8,620.4z"/>
		</g>
	</g>
	<g opacity="0.13">
		<g>
			<path fill="#C1CB82" d="M273.5,632.6c1.2,7.5,4.4,14.4,13.2,13.1c8.7-1.3,15.3-9,19.7-16.1c10.9-17.3,14.2-43.4,35.8-51.5
				c0.7-0.3,0.4-1.5-0.3-1.2c-15.5,5.8-22.4,21.6-28.4,35.8c-3.5,8.2-7.3,16.6-13.3,23.3c-3.4,3.8-7.9,7.4-13,8.4
				c-8.2,1.5-11.3-5.2-12.4-12.1C274.6,631.5,273.4,631.8,273.5,632.6L273.5,632.6z"/>
		</g>
	</g>
	<g opacity="0.13">
		<g>
			<path fill="#C1CB82" d="M296.6,642c4.7,2.3,9.1,0,12.4-3.6c4.9-5.3,9.1-11.2,14.3-16.2c5.7-5.5,11.9-10.4,18.5-14.7
				c6.3-4.1,19.7-13.7,25.4-4c0.4,0.7,1.5,0.1,1.1-0.6c-7-12-24.8,1.8-31.9,6.8c-6.1,4.3-11.7,9.2-16.9,14.5
				c-2.7,2.7-5.2,5.6-7.6,8.6c-3.5,4.4-7.9,11.4-14.7,8.1C296.5,640.6,295.9,641.6,296.6,642L296.6,642z"/>
		</g>
	</g>
	<g opacity="0.13">
		<g>
			<path fill="#C1CB82" d="M357.3,598c6.9-22.1-13.3-39.1-28.9-50.9c-9.7-7.3-19.9-13.9-31-18.9c-9.7-4.4-21.4-9.4-32.1-6.3
				c-0.8,0.2-0.4,1.4,0.3,1.2c11-3.2,23.6,2.6,33.5,7.3c9.1,4.3,17.7,9.8,25.9,15.7c16,11.6,38.2,28.9,31.1,51.5
				C355.9,598.5,357.1,598.8,357.3,598L357.3,598z"/>
		</g>
	</g>
	<g opacity="0.13">
		<g>
			<path fill="#C1CB82" d="M332,578.3c2.3-10.4-4.2-19.1-12.1-25.2c-10.9-8.4-23.3-15.6-35.5-22.1c-5.8-3.1-11.8-6-17.9-8.5
				c-4.4-1.8-9.4-3.4-14.1-1.9c-6.6,2-10.5,10.7-3.7,15.1c0.7,0.4,1.3-0.6,0.6-1.1c-3.5-2.3-3.8-7-1.1-10.1c2.1-2.4,5.6-3.3,8.6-3.2
				c4.9,0.1,9.6,2.5,13.9,4.4c8.2,3.7,16.2,8,24,12.6c7.6,4.5,15.3,9.2,22.4,14.4c8.1,5.9,15.9,14.4,13.5,25.2
				C330.6,578.8,331.8,579.1,332,578.3L332,578.3z"/>
		</g>
	</g>
	<g opacity="0.13">
		<g>
			<path fill="#C1CB82" d="M299.5,572.7c3.2-19.5-24.1-30.2-38.7-34.9c-5.4-1.7-10.9-3.4-15.9-6.1c-3.5-1.9-7.4-6.5-11.6-6.6
				c-7.3-0.2-9.7,11.2-9,16.6c0.1,0.8,1.3,0.8,1.2,0c-0.5-4.5,0.3-10.3,4-13.5c4.9-4.2,8.8,0.9,12.6,3.4c5.8,3.7,12.6,5.6,19,7.7
				c13.6,4.4,39.9,14.9,37,33.1C298.2,573.1,299.4,573.5,299.5,572.7L299.5,572.7z"/>
		</g>
	</g>
	<g opacity="0.13">
		<g>
			<path fill="#C1CB82" d="M267.6,566.4c-3-5.7-7.3-10.3-12.3-14.4c-4.8-3.9-10-8.4-15.7-10.9c-6.3-2.7-14-2.6-20.7-3.3
				c-3.6-0.4-8.8-1.4-9.3,3.5c-0.1,0.8,1.2,0.8,1.2,0c0.1-1.4,3.9-2.4,5.1-2.5c1.5-0.1,3.4,0.4,4.9,0.5c2.6,0.3,5.2,0.5,7.8,0.8
				c6.3,0.7,11.2,2,16.5,5.7c8.3,5.8,16.7,12.1,21.5,21.2C266.9,567.7,268,567.1,267.6,566.4L267.6,566.4z"/>
		</g>
	</g>
	<g opacity="0.13">
		<g>
			<path fill="#C1CB82" d="M242.2,571.7c-3-3-3.7-7.6-5.9-11.1c-1.9-3.1-4.4-5.9-7-8.4c-5.3-5.1-11.5-10.9-18.3-13.8
				c-7.8-3.4-10.8,0.7-15.6,6.6c-1.6,2-5.1,7.1-0.1,7.3c0.8,0,0.8-1.2,0-1.2c-0.1-1.3-0.1-2.5-0.2-3.8c0.6-0.7,1.1-1.4,1.7-2.1
				c0.9-1.1,1.8-2.4,2.9-3.4c3.5-3.6,6.4-4.1,10.8-2.1c5.4,2.4,9.9,6.5,14.3,10.3c3.9,3.3,7.6,7,10.3,11.3c2.3,3.7,2.9,8.3,6.1,11.4
				C241.9,573.1,242.8,572.3,242.2,571.7L242.2,571.7z"/>
		</g>
	</g>
	<g opacity="0.13">
		<g>
			<path fill="#C1CB82" d="M219.3,575.5c-2.7-2.5-2.8-7.6-4.7-10.8c-1.6-2.7-3.8-5.1-6.3-7.1c-5.6-4.6-12.9-7.4-19.8-9.6
				c-3.3-1-9.6-2-9.7,3.3c-0.1,3.8,3.7,4.9,6.6,3.4c0.7-0.4,0.1-1.4-0.6-1.1c-1.1-4.3-0.4-6,2.1-4.9c0.9,0.3,1.9,0.6,2.8,1
				c1.6,0.6,3.2,1.1,4.8,1.8c4.6,1.8,9.1,3.9,12.9,7c3.8,3.1,6.7,6.9,8.2,11.5c0.8,2.4,0.9,4.5,2.8,6.2
				C219,577,219.9,576.1,219.3,575.5L219.3,575.5z"/>
		</g>
	</g>
	<g opacity="0.13">
		<g>
			<path fill="#C1CB82" d="M203.2,580.6c3.7-5.1-3.6-12.4-6.3-16.3c-3.4-5-7.8-11.2-14.6-11c-6.9,0.3-13.7,7.6-18,12.3
				c-3.3,3.6,0.2,6.2,4,7.3c0.8,0.2,1.1-1,0.3-1.2c-2.3-0.3-3.5-2-3.4-5.2c0.8-0.7,1.6-1.5,2.4-2.2c1.6-1.5,3.2-3,4.8-4.5
				c4.4-3.8,9.7-7.2,15.5-3.7c3.6,2.2,6.1,6.1,8.4,9.5c2.2,3.2,8.9,10.2,5.9,14.3C201.6,580.6,202.7,581.2,203.2,580.6L203.2,580.6z
				"/>
		</g>
	</g>
	<g>
		<path fill="#708659" d="M389.8,616c-8.1-7-12.6-17.4-14.4-27.9s-1.3-21.3-0.6-32c1.2-18.5,2.7-37.3,8.4-55
			c6.3-19.4,17.6-36.8,29.2-53.6c11.1-16.2,22.8-32.2,37.1-45.6c14.3-13.4,31.6-24.2,50.9-28.2c2.3-0.5,4.7-0.8,6.9,0
			c2.9,1.1,4.6,4.1,5.7,7c7.5,18.6,1.8,39.5-0.5,59.5c-3.4,29.6,0.7,61.4-13.6,87.6c-12,22-34.9,35.8-57.8,45.9
			c-11.3,5-23,9.3-33.2,16.3c-10.2,7-18.9,17.1-21.2,29.2"/>
	</g>
	<g opacity="0.66">
		<g>
			<path fill="#677F4D" d="M392.1,591.8c3.6-13.8,8.5-27.3,15.6-39.7c7.9-13.6,18.2-24.7,29.5-35.3c13.1-12.3,28.2-23.7,38.8-38.1
				c12.2-16.6,23.4-42.5,18.1-53.8c0.4-6.3-2.3-7.5,0.1-13.7c4.5-11.4,8.4-24.7,15.9-34.3c-0.7-0.7-1.5-1.3-2.5-1.7
				c-2.2-0.8-4.6-0.5-6.9,0c-19.2,4-36.5,14.8-50.9,28.2c-14.3,13.4-26,29.4-37.1,45.6c-11.6,16.8-22.9,34.2-29.2,53.6
				c-5.8,17.7-7.3,36.4-8.4,55c-0.7,10.7-1.2,21.5,0.6,32c1.6,9.1,5.2,18.1,11.4,24.9C388.6,606.9,390.2,599.3,392.1,591.8z"/>
		</g>
	</g>
	<g opacity="0.66">
		<g>
			<path fill="#677F4D" d="M388.5,615.8L388.5,615.8c0.5-1.6,1.2-3.1,1.9-4.6c0.4-4.8,1.1-9.5,2-14.2
				C390.9,603.3,389.6,609.5,388.5,615.8z"/>
		</g>
	</g>
	<g opacity="0.13">
		<g>
			<path fill="#C1CB82" d="M390,610c-0.3-18.2,4.1-36.3,12.8-52.3c9-16.6,22.1-28.5,36.8-39.8c13.8-10.7,25.9-22.1,34.7-37.4
				c8.3-14.5,13.5-30.5,17-46.8c1.9-8.9,2.9-18,4.3-27c1.4-8.9,3.9-18.9,12.8-23c0.7-0.3,0.1-1.4-0.6-1.1
				c-13.5,6.3-13.2,24.6-15.2,37.2c-2.8,18.2-7.4,36.4-15.6,53c-8.6,17.4-20.9,30.7-36.1,42.5c-14.6,11.3-28.1,22.7-37.5,38.9
				c-9.8,16.9-14.9,36.2-14.5,55.8C388.7,610.8,390,610.8,390,610L390,610z"/>
		</g>
	</g>
	<g opacity="0.13">
		<g>
			<path fill="#C1CB82" d="M391.6,607.8c-2.2-12.4-4.3-24.9-6.5-37.3c-2-11.7-4.8-23.5-5.3-35.3c-0.3-5.3,0-10.8,1.4-15.9
				c0.8-2.8,1.9-5.6,3.5-8.1c1.5-2.3,5.3-8.2,9-1.8c0.4,0.6,0.4,1.7,0.5,2.3c2.4,13,3.1,26.4,4.6,39.5c0.2,1.6,2.7,1.6,2.5,0
				c-1-8.4-1.9-16.8-2.9-25.1c-0.7-5.7-0.2-13.5-2.9-18.8c-1.9-3.7-5.7-4.5-9.1-2.1c-4.3,3-6.7,9.2-7.9,14.1
				c-3.3,12.9-0.3,26.6,1.9,39.4c2.9,16.6,5.8,33.2,8.7,49.7C389.4,610,391.8,609.4,391.6,607.8L391.6,607.8z"/>
		</g>
	</g>
	<g opacity="0.13">
		<g>
			<path fill="#C1CB82" d="M396.9,509.8c-1.3-8.7-0.2-17.5,3.6-25.5c0.6-1.3,1.3-3.1,2.3-4.2c0.8-2.1,2.6-2.7,5.2-1.8
				c0.6,1,1.1,2,1.6,3.1c1.9,3.8,3.2,7.9,4,12.1c1.7,8.7-0.8,17,0.1,25.6c0.4,3.6,1.2,7,2.2,10.5c0.5,1.7,0.7,4.1,2.4,5
				c0.5,0.2,1.2,0.2,1.5-0.2c0.5-0.6,0.7-1,0.4-1.8c-0.2-0.7-0.8-1-1.5-0.9c-0.1,0-0.1,0-0.2,0c-1.6,0.3-0.9,2.7,0.7,2.4
				c0.1,0,0.1,0,0.2,0c-0.5-0.3-1-0.6-1.5-0.9c0.3-0.9,0.7-1.7,1-2.6c-0.3-0.8-0.5-1.7-0.7-2.5c-0.3-1.1-0.6-2.2-0.9-3.4
				c-0.7-3-1.2-6-1.2-9c0-5.5,1.2-10.9,0.8-16.5c-0.3-4.8-1.3-9.5-2.9-14c-1.2-3.3-2.6-8.1-5.5-10.3c-5.2-4.2-9.4,6.4-10.8,9.8
				c-3.5,8.2-4.4,17-3.1,25.8C394.8,512,397.2,511.3,396.9,509.8L396.9,509.8z"/>
		</g>
	</g>
	<g opacity="0.13">
		<g>
			<path fill="#C1CB82" d="M410.6,478.5c0.3-9.1,0.8-20.6,9.6-25.9c3.8-2.3,5.2-0.9,6.9,3.1c1.1,2.5,1.7,5.8,1.8,8.5
				c0.3,4.7-1.1,9.2-1.7,13.8c-0.5,3.8-0.2,7.5,0.2,11.3c0.5,4.8-0.2,9-0.7,13.8c-0.5,5.9,1.9,10.9,7.2,13.8
				c1.4,0.8,2.7-1.4,1.3-2.2c-6.8-3.6-6.2-9.5-5.2-16.1c0.8-5.4-0.6-10.5-0.6-15.9c-0.1-5.4,1.8-10.5,2-15.9
				c0.2-5-0.9-10.8-3.2-15.3c-3-5.7-9.3-1.9-12.8,1.7c-6.5,6.7-7,16.4-7.3,25.2C408,480.2,410.5,480.1,410.6,478.5L410.6,478.5z"/>
		</g>
	</g>
	<g opacity="0.13">
		<g>
			<path fill="#C1CB82" d="M427.7,453.7c0.2-4,0.3-7.9,0.6-11.9c0.4-5.2,3.6-17.9,12.1-12.9c4.1,2.4,4.3,8.6,4.7,12.6
				c0.5,4.5,0.9,9,1.2,13.5c0.6,7.9-0.5,16.5,1.3,24.3c1.6,7.4,8.5,12.4,9.4,19.9c0.1,0.8,1.3,0.8,1.2,0c-0.5-4.1-2.5-7.3-4.7-10.7
				c-3.9-5.9-5.2-11.2-5.3-18.3c-0.2-11.3-0.1-23.6-2.5-34.7c-1.3-6-6.1-11.1-12.4-7.4c-8,4.7-6.4,17.8-6.8,25.6
				C426.4,454.5,427.7,454.5,427.7,453.7L427.7,453.7z"/>
		</g>
	</g>
	<g opacity="0.13">
		<g>
			<path fill="#C1CB82" d="M443,430.4c0.2-5.8,0.4-11.9,3-17.2c2.4-5,9.7-13.2,14.8-5.3c2.2,3.5,2.8,9.6,3.4,13.7
				c0.8,4.9,1.2,9.9,1.4,14.9c0.4,8.6-0.1,17.5,1.1,26c0.8,5.6,2.7,10.8,7.6,14c0.7,0.4,1.3-0.6,0.6-1.1c-9.7-6.2-7.6-21.9-7.9-31.8
				c-0.3-11-0.9-22.1-4.1-32.7c-0.8-2.5-1.5-6.9-4.3-7.9c-2.8-0.9-6.4,1.1-8.5,2.8c-7.4,5.8-8.1,15.9-8.4,24.6
				C441.7,431.2,443,431.2,443,430.4L443,430.4z"/>
		</g>
	</g>
	<g opacity="0.13">
		<g>
			<path fill="#C1CB82" d="M459.6,407.8c1.4-6.2,4-14.8,11.9-14.6c7.9,0.3,7.6,14.4,8.6,20.1c1,6.2,1.4,12.9,3.4,18.9
				c1,2.9,2.5,5.2,5.6,6.1c0.8,0.2,1.1-1,0.3-1.2c-4.6-1.3-5.2-6.7-5.8-10.7c-0.7-4.5-1.5-8.9-2.2-13.4c-0.7-4.4-1.3-8.9-2.2-13.4
				c-0.5-2.3-0.9-4.6-2.9-6.1c-3-2.4-7.7-1.8-10.7,0.2c-4.5,3-6,8.9-7.1,13.8C458.3,408.3,459.5,408.6,459.6,407.8L459.6,407.8z"/>
		</g>
	</g>
	<g opacity="0.13">
		<g>
			<path fill="#C1CB82" d="M477.3,392.6c-0.2-1.3,1.6-3.3,2.9-3.6c1.2-0.3,2.6,0.1,3.6,0.7c1.7,1,2.9,2.8,3.9,4.5
				c2,3.1,3.8,6.4,5.6,9.6c0.4,0.7,1.5,0.1,1.1-0.6c-2-3.7-4-7.4-6.4-10.9c-1.3-1.8-2.9-3.6-5-4.4c-3.4-1.2-7.4,1.2-6.9,5
				C476.2,393.8,477.4,393.4,477.3,392.6L477.3,392.6z"/>
		</g>
	</g>
	<g opacity="0.13">
		<g>
			<path fill="#C1CB82" d="M392.2,593.7c3.7-7.1,8-14.3,14.8-18.8c6.8-4.5,15-5.7,22.9-6.7c10.9-1.5,24.4-3.1,31.4-12.8
				c2.2-3.1,2.9-6.7-0.2-9.5c-4.3-3.9-12.3-2.1-17.5-1.8c-6.7,0.4-13.5,1.1-20,2.8c-3,0.8-5.9,1.7-8.7,2.9c-2.2,1-9.2,6.4-11.4,4.5
				c-0.6-0.5-1.5,0.4-0.9,0.9c2.8,2.4,5.9-0.7,8.5-2.1c5.7-3.2,12.1-5.1,18.5-6.2c7.1-1.2,14.4-1.7,21.5-1.9
				c2.2-0.1,6.6-0.6,8.1,1.1c0.6,2.5,1.2,5,1.8,7.5c-0.6,1-1.3,1.9-2.1,2.7c-2.2,2.5-5,4.3-8,5.7c-11.4,5.4-24.6,4.1-36.4,8
				c-11.4,3.8-17.9,12.9-23.4,23.1C390.7,593.8,391.8,594.4,392.2,593.7L392.2,593.7z"/>
		</g>
	</g>
	<g opacity="0.13">
		<g>
			<path fill="#C1CB82" d="M463.5,549.6c7.4-1.5,14.2-5.6,18.2-12c4.4-7-3.2-10.5-9.2-12.6c-18.8-6.5-35.2,9.3-53.8,7.1
				c-1.6-0.2-1.6,2.3,0,2.5c13.6,1.6,25.2-6.3,38.2-8.4c3.9-0.6,7.9-0.6,11.8,0.2c3.5,0.8,12.3,3.3,11.5,8.5
				c-0.4,2.8-5.1,6.4-7.3,7.9c-3.1,2.2-6.5,3.5-10.2,4.2C461.2,547.5,461.9,549.9,463.5,549.6L463.5,549.6z"/>
		</g>
	</g>
	<g opacity="0.13">
		<g>
			<path fill="#C1CB82" d="M438.1,516.3c11.5-5.5,24-1.9,36-0.7c8,0.7,20,0.9,25.1-6.6c1.6-2.3,3.9-7.3,2.3-10
				c-1.5-2.6-6-3.1-8.6-3.3c-5.2-0.4-10.3,0.8-15.2,2.4c-5.4,1.8-13.9,6.6-19.3,3.2c-1.4-0.9-2.6,1.3-1.3,2.2c6.4,4,14.9-0.9,21.3-3
				c4.9-1.6,10-2.9,15.2-2.2c3.9,0.5,6.3,2.9,4.8,6.8c-1.4,3.5-3.9,5.6-7.5,6.9c-17.7,6.1-36.5-6.1-54,2.3
				C435.4,514.9,436.6,517,438.1,516.3L438.1,516.3z"/>
		</g>
	</g>
	<g opacity="0.13">
		<g>
			<path fill="#C1CB82" d="M477.1,479.2c3.6-1.1,7.2-2.1,10.8-3c3.9-1,9-3.3,10.2,2.3c1.4,6.5-2.5,13.4-8.8,15.5
				c-1.5,0.5-0.9,2.9,0.7,2.4c7.3-2.5,12.1-10.4,10.6-18.1c-0.6-3.3-2.1-6.5-5.8-6.3c-2.5,0.1-5.2,1.2-7.6,1.8
				c-3.6,0.9-7.2,1.9-10.8,3C474.9,477.3,475.6,479.7,477.1,479.2L477.1,479.2z"/>
		</g>
	</g>
	<g opacity="0.13">
		<g>
			<path fill="#C1CB82" d="M476.6,479c4.7-6.3,12.4-8.5,18.6-13c4.6-3.3,9-8,10.8-13.4c1.5-4.4,1.2-9.4-2.8-12.4
				c-4.9-3.7-11.3-2.4-16.8-1.2c-0.8,0.2-0.5,1.4,0.3,1.2c6.5-1.5,17.8-3,18.8,6.6c0.7,6.4-4.2,12.3-8.6,16.3
				c-6.7,5.9-15.8,8-21.3,15.3C475.1,479,476.1,479.6,476.6,479L476.6,479z"/>
		</g>
	</g>
	<g opacity="0.13">
		<g>
			<path fill="#C1CB82" d="M489.4,437.5c6.5-3.4,11.7-8.5,16.1-14.4c2.5-3.3,4.7-6.9,6.9-10.4c1.6-2.6,3.8-5.6,4.2-8.7
				c1.2-11.6-20.4-12.4-22.7-1.3c-0.2,0.8,1,1.1,1.2,0.3c1.6-7.5,12.3-9.2,17.7-4.5c3.7,3.2,1.9,8.1-0.2,11.6c-1.2,2-2.4,4-3.7,6
				c-5.2,8.2-11.3,15.8-20,20.4C488.1,436.8,488.7,437.9,489.4,437.5L489.4,437.5z"/>
		</g>
	</g>
	<g opacity="0.13">
		<g>
			<path fill="#C1CB82" d="M484.4,531.2c6.4-1.5,10.3-8.4,8.4-14.6c-0.5-1.5-2.9-0.9-2.4,0.7c1.5,5-1.6,10.3-6.6,11.5
				C482.2,529.1,482.8,531.5,484.4,531.2L484.4,531.2z"/>
		</g>
	</g>
	<g>
		<path fill="#6C8053" d="M435,601.5c16.1-15.4,37-24.9,58.6-30.1c21.6-5.2,44-6.4,66.2-6.7c8-0.1,16.2-0.1,24,1.8
			c7.7,1.9,14.9,5.7,21.9,9.4c26.5,14,53,28,79.4,42c-8.9,16.3-23,28.9-37,41c-14.9,12.9-30,25.7-47.4,35.1
			c-17.3,9.3-37.2,15-56.7,12.5c-19.7-2.5-37.6-13.1-52.6-26.1c-15-13-27.5-28.6-40.8-43.3c-9.4-10.4-19.8-20.7-33.2-24.9
			s-30.3-0.3-36.6,12.2"/>
	</g>
	<g opacity="0.13">
		<g>
			<path fill="#C1CB82" d="M388.6,620.9c20.4-8.6,40.6-15.6,62.9-10.7c19.9,4.4,38.4,13.2,58.6,17c20.5,3.8,41.3,5.5,62,7.7
				c20.7,2.2,42,6,62.9,4.5c19.4-1.5,37.5-9.2,52.1-22c0.6-0.5-0.3-1.4-0.9-0.9c-15.1,13.2-34,20.8-54,21.8c-20.6,1-41.6-2.7-62-4.8
				c-21.2-2.3-42.6-3.9-63.5-8.2c-19.9-4.1-38.4-13.3-58.4-17c-21.3-3.9-41,3.3-60.3,11.5C387.2,620.1,387.9,621.2,388.6,620.9
				L388.6,620.9z"/>
		</g>
	</g>
	<g opacity="0.13">
		<g>
			<path fill="#C1CB82" d="M611.3,639.2c10.2-2.1,20.8-4.3,29.8-10c8-5.1,13.8-12.6,18-21c0.4-0.7-0.7-1.4-1.1-0.6
				c-4.4,8.7-10.4,16.5-19,21.4c-8.6,5-18.5,7-28.1,9C610.2,638.2,610.6,639.4,611.3,639.2L611.3,639.2z"/>
		</g>
	</g>
	<g opacity="0.13">
		<g>
			<path fill="#C1CB82" d="M580.2,635.1c20.7-3.5,37.1-21,39.3-41.9c0.1-0.8-1.2-0.8-1.2,0c-2.2,20.3-18.3,37.3-38.4,40.7
				C579.1,634.1,579.4,635.3,580.2,635.1L580.2,635.1z"/>
		</g>
	</g>
	<g opacity="0.13">
		<g>
			<path fill="#C1CB82" d="M558.4,632.8c19.5-12.5,38.4-29.3,41-53.7c0.1-0.8-1.2-0.8-1.2,0c-2.5,23.9-21.3,40.4-40.4,52.6
				C557.1,632.1,557.7,633.2,558.4,632.8L558.4,632.8z"/>
		</g>
	</g>
	<g opacity="0.13">
		<g>
			<path fill="#C1CB82" d="M520.2,626.4c13.8-3.8,26.5-8.4,35.7-20c8-10.2,12.3-22.6,16.5-34.6c0.3-0.8-0.9-1.1-1.2-0.3
				c-4,11.5-8.1,23.2-15.4,33c-9,12.1-21.8,16.9-35.9,20.8C519.1,625.4,519.4,626.6,520.2,626.4L520.2,626.4z"/>
		</g>
	</g>
	<g opacity="0.13">
		<g>
			<path fill="#C1CB82" d="M489.1,618.3c11.5-2.9,21.2-9.9,29.5-18.2c7.7-7.7,17.3-17.6,15.7-29.4c-0.2-1.6-2.7-1.6-2.5,0
				c1.5,11.5-8.5,21.3-16.1,28.8c-7.7,7.6-16.7,13.7-27.3,16.4C486.9,616.3,487.5,618.7,489.1,618.3L489.1,618.3z"/>
		</g>
	</g>
	<g opacity="0.13">
		<g>
			<path fill="#C1CB82" d="M469.3,611.8c11.9-10,21.4-22.4,27.9-36.5c0.7-1.5-1.5-2.7-2.2-1.3c-6.4,14-15.7,26.2-27.5,36
				C466.3,611.1,468.1,612.9,469.3,611.8L469.3,611.8z"/>
		</g>
	</g>
	<g opacity="0.13">
		<g>
			<path fill="#C1CB82" d="M463.9,615c13.2,21.5,31.1,39.5,41.3,62.9c3.6,8.3,7.4,18,15.6,22.8c3.2,1.9,7.9,3.6,11.5,1.7
				c2.8-1.4,3.9-4.3,3-7.2c-0.2-0.8-1.5-0.4-1.2,0.3c-1.2,2.1-2.3,4.1-3.5,6.2c-1.4,0-2.8,0-4.2-0.1c-1.5-0.2-3-1-4.3-1.7
				c-1.8-1-3.5-2.3-5-3.8c-3-3-5.1-6.8-7-10.5c-4-7.9-7-16.2-11.6-23.8c-10-16.6-23.3-30.9-33.5-47.4
				C464.6,613.7,463.5,614.3,463.9,615L463.9,615z"/>
		</g>
	</g>
	<g opacity="0.13">
		<g>
			<path fill="#C1CB82" d="M493.7,624.8c10.2,14.7,20.4,29.3,30.5,44c2.1,3.1,4.3,6.1,6.3,9.2c3.1,4.9,3.2,8.5,3.8,14.1
				c0.5,4.7,3.5,8.2,7.8,10.1c5.5,2.4,12.8,2.2,18.7,1.5c4-0.5,8.5-2.1,10.3-6c2.2-4.8-1.3-10.7-3.8-14.7c-3.3-5.3-7.8-9.7-13-13.2
				c-0.7-0.5-1.3,0.6-0.6,1.1c7.6,5.1,27.4,27.1,9.2,31.2c-5.6,1.3-13.6,1.3-19.1-0.6c-3.6-1.2-7.1-4-8.1-7.8
				c-0.8-2.9-0.1-6.1-0.8-9.1c-1.1-4.7-4.3-8.6-6.9-12.5c-3.6-5.2-7.2-10.3-10.7-15.5c-7.5-10.9-15.1-21.7-22.6-32.6
				C494.3,623.5,493.2,624.1,493.7,624.8L493.7,624.8z"/>
		</g>
	</g>
	<g opacity="0.13">
		<g>
			<path fill="#C1CB82" d="M516.9,628c6.1,9.8,16.3,16,24.8,23.6c9.9,8.7,18.9,18.5,26.9,29c5.7,7.5,11.2,16,22,14.4
				c8.6-1.3,14.2-9,13.9-17.4c0-0.8-1.3-0.8-1.2,0c0.4,13.7-15.5,21.6-25.9,12.1c-3.5-3.2-6-7.4-8.8-11.1c-2.8-3.7-5.8-7.2-8.9-10.7
				c-6.3-7.1-13.1-13.8-20.4-19.9c-7.5-6.4-16-11.9-21.3-20.5C517.6,626.6,516.5,627.3,516.9,628L516.9,628z"/>
		</g>
	</g>
	<g opacity="0.13">
		<g>
			<path fill="#C1CB82" d="M560,634.1c5.1,8.8,10.8,17.1,17.3,24.9c5.6,6.7,11.6,13.1,20.2,15.8c7.1,2.2,16.7,6.1,24.1,2.9
				c7.1-3.2,6.5-10.2,4.5-16.6c-0.2-0.8-1.4-0.4-1.2,0.3c1.6,5,2.9,11.2-2.6,14.5c-4,2.5-8.9,1.8-13.2,0.7
				c-6.8-1.6-14.1-3.1-19.8-7.3c-6.4-4.6-11.4-11.3-16.1-17.6c-4.4-5.9-8.4-12-12.1-18.3C560.6,632.8,559.6,633.4,560,634.1
				L560,634.1z"/>
		</g>
	</g>
	<g opacity="0.13">
		<g>
			<path fill="#C1CB82" d="M580,636.2c10.5,3.6,20.8,7.9,30.8,12.8c4.9,2.4,9.7,4.9,14,8.2c2.9,2.3,5.7,5.2,9.3,6.5
				c6.7,2.5,12.7-2.6,16.1-8c4.1-6.5-0.8-12.6-5.5-17.1c-0.6-0.6-1.5,0.3-0.9,0.9c3.5,3.3,7,6.9,6.3,12c-0.6,4.6-5.1,9.8-9.6,11.3
				c-7.5,2.4-14-6.4-19.8-9.9c-12.4-7.6-26.6-13.1-40.3-17.9C579.6,634.7,579.3,635.9,580,636.2L580,636.2z"/>
		</g>
	</g>
	<g>
		<path fill="#7B9461" d="M384,621.3c-2.3,2.6,0.8,6.3,2.7,9.2c4.1,6.7,0.8,15.8-4.9,21.1c-5.7,5.4-13.3,8.1-20.2,11.7
			c-11.1,5.8-20.9,13.9-28.5,23.8c-3.6,4.6-6.8,9.8-7.6,15.6c-1,7.8,2.4,15.4,6.2,22.2c8.7,15.4,20.8,29.5,36.6,37.4
			c9.3,4.6,19.6,7,29.8,9.3c29.2,6.6,59.5,13.2,88.6,6.7c19.6-4.4,37.5-14.4,55.9-22.4c6-2.6,12.7-5,19-3.1c1-12.2,10-22,15.3-33.1
			c9.1-18.8,6.8-43.1-7.2-58.6c-10.3-11.4-25.4-17.2-40.2-21.3c-40.5-11.3-83.8-12.7-125-4.3c-4.9,1-10.8,1.8-14-2
			c-4-4.8-0.1-13.2-4.3-17.9"/>
	</g>
	<g opacity="0.52">
		<g>
			<path fill="#D6D896" d="M392.3,634.9c-0.2,8.4-0.1,17.7,5.5,24.1c3.2,3.7,7.9,5.9,12.1,8.5c7.5,4.7,13.7,11.2,20.5,17
				c15.9,13.6,35,23.4,55.3,28.2c14.7,3.5,29.9,4.5,44.2,9.3c14.3,4.8,28.1,14.5,32.4,29c0.3-13.2-10.4-24.4-22.4-29.8
				c-12-5.4-25.5-6.4-38.4-8.9c-38.2-7.4-73.5-28.9-97.5-59.5c-1.6-2-3.2-4.1-5.1-5.8c-1-0.8-2.1-1.6-2.8-2.6
				c-1.9-2.8-0.6-6.4-0.5-9.8c0-3.3-3.4-7.3-6-5.2"/>
		</g>
	</g>
	<g opacity="0.13">
		<g>
			<path fill="#C1CB82" d="M391.7,638.7c6.4,15.1-9,26.2-19.8,33.3c-9.7,6.4-17.9,13.9-23.3,24.4c-4.9,9.7-8,21.9-4.4,32.5
				c3,9,11.3,15.9,21,15.1c0.8-0.1,0.8-1.3,0-1.2c-16,1.3-22.6-15.7-20.8-29c1.6-12,7.8-23.4,16.5-31.8c11.7-11.2,41-22.1,32-43.6
				C392.6,637.7,391.4,638,391.7,638.7L391.7,638.7z"/>
		</g>
	</g>
	<g opacity="0.13">
		<g>
			<path fill="#C1CB82" d="M393.8,649c8.2,12.5,7.4,28.4,1.3,41.6c-6.1,13.2-16.4,22.6-25.9,33.1c-6.9,7.7-7.7,17.5-1.2,25.8
				c6.7,8.6,18.2,10.7,28.5,10.5c0.8,0,0.8-1.3,0-1.2c-12.9,0.2-28.5-4-31.5-18.5c-1.7-8.1,3.3-13.9,8.6-19.3
				c4.4-4.4,8.7-9,12.6-13.9c12.9-16.4,21.1-39.7,8.6-58.8C394.4,647.7,393.3,648.3,393.8,649L393.8,649z"/>
		</g>
	</g>
	<g opacity="0.13">
		<g>
			<path fill="#C1CB82" d="M399.8,650.9c3.6,7.2,8,14.4,10.7,21.9c2.8,7.9,0.6,15.7-2.4,23.1c-5.3,13-13.8,24.9-16.4,38.9
				c-1.8,9.9-0.1,20.9,7.2,28.3c5.1,5.2,15.2,8.9,20.3,1.7c0.5-0.7-0.6-1.3-1.1-0.6c-4.7,6.6-13.8,2.5-18.3-2
				c-4.3-4.3-6.7-10.4-7.4-16.4c-1.4-12.7,4.7-24.7,10.2-35.7c4.6-9,10.3-18.9,10.6-29.2c0.1-4.8-1.6-9.2-3.7-13.5
				c-2.8-5.8-5.8-11.5-8.7-17.2C400.6,649.5,399.5,650.2,399.8,650.9L399.8,650.9z"/>
		</g>
	</g>
	<g opacity="0.13">
		<g>
			<path fill="#C1CB82" d="M422.3,675.8c12.2,8.4,5.4,25.3,3.6,37c-1.6,10.7-2.3,21.8-0.9,32.5c1.1,8.3,3.9,17,9.8,23.1
				c5,5.2,12.9,7.6,18.6,2.1c0.6-0.6-0.3-1.4-0.9-0.9c-11.1,10.5-22.1-7.8-24.7-16.7c-2.8-9.6-2.7-20-1.9-29.9
				c0.8-10.2,4.2-20.2,4.7-30.4c0.3-7-1.8-13.8-7.7-17.9C422.3,674.2,421.7,675.3,422.3,675.8L422.3,675.8z"/>
		</g>
	</g>
	<g opacity="0.13">
		<g>
			<path fill="#C1CB82" d="M434.9,684c4.2,5.3,8.4,10.5,12.6,15.8c2.1,2.6,4.8,5.3,6.3,8.2c2,3.8,1.5,7.9,1.4,12
				c-0.3,11.7-2.3,24.7,0.4,36.2c1.7,7.4,7.1,15.4,15.4,16.2c6.5,0.6,12.7-3.8,13.5-10.3c0.1-0.8-1.2-0.8-1.2,0
				c-0.7,6.2-7.3,10.2-13.2,8.9c-4.8-1-8.7-4.8-10.9-9c-5-9.3-3.3-21.2-3-31.4c0.2-7.7,2.6-17.9-2.1-24.6c-5.6-8-12.2-15.4-18.3-23
				C435.3,682.5,434.4,683.4,434.9,684L434.9,684z"/>
		</g>
	</g>
	<g opacity="0.13">
		<g>
			<path fill="#C1CB82" d="M444.8,691.7c6.1,8.1,12.6,16.6,21.7,21.4c6.4,3.4,12.5,4.8,14.9,12.5c1.8,5.6,2.2,11.7,3.5,17.4
				c2,8.5,4.6,19.6,13.7,23.2c6.9,2.8,15.5-1.4,14.6-9.6c-0.1-0.8-1.3-0.8-1.3,0c1,9.1-9.4,11.2-15.5,6.9c-4.7-3.3-6.9-8.8-8.5-14
				c-2.6-8.5-2.6-18.3-6.1-26.4c-3.1-7.2-9.9-8.3-16.1-11.9c-8.3-4.8-14.2-12.7-19.9-20.2C445.4,690.4,444.3,691,444.8,691.7
				L444.8,691.7z"/>
		</g>
	</g>
	<g opacity="0.13">
		<g>
			<path fill="#C1CB82" d="M482.5,713.2c5.9,2.4,10.3,5.4,13.1,11.3c2.1,4.3,3.2,8.9,4.4,13.4c1.9,6.9,4.7,14.6,11,18.6
				c5.7,3.6,13.6,2.9,18.1-2.2c3.8-4.3,4.2-11.1-0.1-15.1c-0.6-0.6-1.5,0.3-0.9,0.9c9.1,8.7-4.3,20.2-13.8,16.8
				c-7.3-2.6-10.8-11-12.8-17.9c-1.6-5.7-2.8-11.7-5.9-16.9c-3-5.2-7.5-7.8-12.9-10C482.1,711.7,481.8,712.9,482.5,713.2
				L482.5,713.2z"/>
		</g>
	</g>
	<g opacity="0.13">
		<g>
			<path fill="#C1CB82" d="M517.1,718.5c9,5.2,8,16.4,11.8,24.7c2.2,5,7.3,9.9,13.2,9c5.5-0.8,7.8-6.1,8.4-11.1
				c0.3-2.5,1.3-10.3-3.2-9.5c-0.8,0.1-0.5,1.3,0.3,1.2c2.9-0.5,1.7,8.2,1.5,9.3c-0.6,3.5-2.2,7.3-5.9,8.6
				c-7.4,2.4-12.7-5.8-14.4-11.6c-2.4-7.9-3.1-17.1-11-21.7C517,717.1,516.4,718.1,517.1,718.5L517.1,718.5z"/>
		</g>
	</g>
	<g opacity="0.13">
		<g>
			<path fill="#C1CB82" d="M397.1,646.2c7.3,3.6,14.8,1.2,21.9-1.6c10.2-4.1,20.3-7.2,31.3-8.4c10.2-1.1,20.4-0.9,30.6,0.2
				c5.5,0.6,11.1,1.4,16.5,2.7c2.4,0.5,4.9,1.2,7.1,2.5c4,2.4,6.6,7.7,3.4,11.9c-0.5,0.6,0.6,1.3,1.1,0.6c4.6-6.1-0.8-12.8-6.8-15
				c-10.3-3.8-23.1-4.6-34-4.9c-11.4-0.3-22.9,0.7-34,3.6c-11,2.9-25.2,13-36.6,7.3C397,644.7,396.4,645.8,397.1,646.2L397.1,646.2z
				"/>
		</g>
	</g>
	<g opacity="0.13">
		<g>
			<path fill="#C1CB82" d="M404.2,655.4c19.6,3.7,39.9,5.9,59.7,2.9c10.5-1.6,19.6-5.6,29.5-8.9c6.3-2.1,12.9-1.7,17.2,3.9
				c4.6,6,2.7,14.2-3.2,18.5c-0.6,0.5,0,1.6,0.6,1.1c6.5-4.7,8.7-13.7,3.6-20.4c-7-9.1-17.3-4.9-26-1.4c-25.8,10.3-54.5,8.1-81.2,3
				C403.8,654,403.4,655.2,404.2,655.4L404.2,655.4z"/>
		</g>
	</g>
	<g opacity="0.13">
		<g>
			<path fill="#C1CB82" d="M422.3,674.9c18.4,12.7,42,11.7,62.5,5.4c11.5-3.5,22.4-8.6,33.4-13.5c6.1-2.8,12.4-6.3,19-7.5
				c3.7-0.7,7.9-0.5,11.2,1.6c4.6,3,5.9,10,0.8,13.3c-0.7,0.4,0,1.5,0.6,1.1c7.7-4.9,3.1-14.8-4.3-17c-5.6-1.7-11.3,0.2-16.5,2.3
				c-6.6,2.7-13.1,5.9-19.7,8.8c-26.7,11.9-59.8,22.9-86.4,4.5C422.3,673.3,421.7,674.4,422.3,674.9L422.3,674.9z"/>
		</g>
	</g>
	<g opacity="0.13">
		<g>
			<path fill="#C1CB82" d="M460.5,703.3c24.8,10.8,52.3-2.3,73.4-15.3c5.9-3.7,11.8-7.5,17.7-11.3c2.7-1.7,5.5-3.7,8.4-5
				c6.4-2.9,12.4,0.4,14.1,6.7c4.6,16.5-14.4,24.4-26.9,27.7c-0.8,0.2-0.4,1.4,0.3,1.2c11.5-3,25.1-7.9,27.9-21
				c2.1-10.1-5.4-20.6-16.1-15.7c-7.6,3.5-14.5,8.9-21.5,13.4c-7.2,4.6-14.4,9-22.1,12.7c-16.6,8-37,13.2-54.7,5.5
				C460.4,701.9,459.7,703,460.5,703.3L460.5,703.3z"/>
		</g>
	</g>
	<g opacity="0.13">
		<g>
			<path fill="#C1CB82" d="M523.8,716.3c12.5-3,25-6.2,35.5-14c2.9-2.1,7.6-5.1,10.2-0.3c0.9,1.7,1.1,3.8,1.1,5.8
				c0.1,3.4-0.1,7.4-1.9,10.4c-3.9,6.7-16.8,7.3-23.6,8.8c-0.8,0.2-0.5,1.4,0.3,1.2c5.5-1.3,11.2-2.2,16.6-3.9
				c2.9-0.9,5.6-2.3,7.3-5c3.2-4.8,4-14.7,0.4-19.5c-4.7-6.1-11.7,2.1-15.9,4.6c-9.3,5.6-20,8.1-30.4,10.6
				C522.7,715.3,523,716.5,523.8,716.3L523.8,716.3z"/>
		</g>
	</g>
	<g>
		<path fill="#7B9461" d="M378.7,621.3c14.9-3.9,24.5-18.7,28.9-33.4c4.5-14.7,5.3-30.5,10.3-45c7.8-22.6,25.3-40.9,45.6-53.4
			c20.3-12.5,43.5-19.8,66.6-25.5c31.8-7.9,65.3-13.1,97.4-6.1c10,2.2,21.1,6.8,24.2,16.5c0.8,2.5,1,5.1,1.9,7.6
			c0.8,2.3,2.1,4.3,3,6.6c2.3,6.3,0.6,13.3-1.6,19.6c-13.8,39.9-45.9,72.5-84.4,89.8c-38.5,17.3-82.9,19.9-124.1,10.4
			c-11.2-2.6-22.6-6-33.8-3.8c-10.8,2.1-20.4,9.8-24.9,19.9"/>
	</g>
	<g opacity="0.55">
		<g>
			<path fill="#C1CB82" d="M386,620.4c20.5-13.5,35.1-34.3,54.5-49.2c9.8-7.5,20.7-13.4,31.5-19.2c35.4-19.2,71.3-38.5,110.1-49.2
				c25-6.9,51.5-10.4,73.5-24c-23.4,13.6-50.7,18.4-76.7,26.1c-22.3,6.6-43.9,15.5-65.4,24.3c-28.4,11.7-57.5,23.7-80.2,44.5
				c-18.3,16.8-32.3,39.2-54.3,50.9"/>
		</g>
	</g>
	<g opacity="0.13">
		<g>
			<path fill="#C1CB82" d="M432.3,575.3c1.6,0,1.6-2.5,0-2.5C430.7,572.8,430.7,575.3,432.3,575.3L432.3,575.3z"/>
		</g>
	</g>
	<g opacity="0.13">
		<g>
			<path fill="#C1CB82" d="M437.5,572.8c3.9-2.9,5.4-6.9,6-11.6c1-7.9,0.2-16.1,0.2-24c0.1-9,2.3-16.4,8.8-22.9
				c5.3-5.2,11.9-8.9,18.3-12.5c0.7-0.4,0.1-1.5-0.6-1.1c-10.4,5.7-22.3,12.5-26.2,24.5c-2.3,7.2-1.5,15.3-1.4,22.7
				c0,7.8,1.4,18.5-5.7,23.7C436.2,572.2,436.8,573.3,437.5,572.8L437.5,572.8z"/>
		</g>
	</g>
	<g opacity="0.13">
		<g>
			<path fill="#C1CB82" d="M461.8,554c2-12.5-0.9-24.9,0.1-37.3c0.5-6.1,1.9-12.4,5.4-17.6c4.1-6.1,10.7-9.2,17-12.5
				c2.7-1.4,5.3-2.8,8-4.1c2.1-1.8,3.8-1.4,5.2,1.2c2.8,1,3.4,2.5,1.7,4.7c-0.6,1.3-1.4,2.5-2.1,3.8c-3.5,6-7.1,12-10.5,18
				c-2.6,4.6-4.6,8.9-5.1,14.2c-0.6,6.4-0.7,12.9-1,19.4c0,0.8,1.2,0.8,1.2,0c0.4-8.1-0.5-17.8,2.2-25.5c2.8-8,8.5-15.5,12.8-22.8
				c1.9-3.2,6.7-9,4.5-13.2c-2.2-4.1-7.3-1.8-10.3-0.3c-11.9,5.9-24.3,11.1-28.5,24.8c-4.7,15.3,0.7,31.4-1.8,46.9
				C460.4,554.5,461.7,554.8,461.8,554L461.8,554z"/>
		</g>
	</g>
	<g opacity="0.13">
		<g>
			<path fill="#C1CB82" d="M501.2,488.6c5.6-7.2,12.7-13.1,21-16.9c1.4-0.7,2.9-1.3,4.3-1.8c4.9,1.4,6.6,3.6,5.3,6.7
				c-0.5,2.1-2.1,4.4-3.4,6.2c-2.5,3.6-5.7,6.7-8.8,9.8c-5.1,5.1-10.2,10.2-12.9,17c-2.9,7.3-2.9,15.2-0.5,22.6
				c0.2,0.8,1.5,0.4,1.2-0.3c-4.1-12.8-0.1-24.7,8.9-34.2c5.9-6.2,13.2-11.9,16.4-20.2c1-2.5,1.5-5.6-0.5-7.9
				c-2.5-2.8-6.2-1-9.1,0.2c-9.1,3.9-16.8,10.1-22.9,17.9C499.8,488.3,500.7,489.2,501.2,488.6L501.2,488.6z"/>
		</g>
	</g>
	<g opacity="0.13">
		<g>
			<path fill="#C1CB82" d="M532.8,477.5c5-5,13.4-12.7,20.9-12.6c10.4,0.1,5,12.5,1,16.5c-2.7,2.7-6.1,4.8-9.1,7.2
				c-9.9,7.9-16,19.4-17.3,32c-0.1,0.8,1.2,0.8,1.2,0c1.1-10.6,5.7-20.5,13.3-27.9c6-5.9,16.1-10,17.8-19.3c1-5.7-2.4-10.4-8.4-9.5
				c-7.7,1.1-15.2,7.6-20.5,12.9C531.4,477.1,532.2,478,532.8,477.5L532.8,477.5z"/>
		</g>
	</g>
	<g opacity="0.13">
		<g>
			<path fill="#C1CB82" d="M561,473.5c5.5-5.9,12.9-10.7,20.9-12c6-1,13,2.6,9.1,9.6c-2.2,4-6.6,6.3-10.5,8.3
				c-5.4,2.8-11,5.3-14.9,10.2c-4,5-5.8,11.2-5.5,17.6c0,0.8,1.3,0.8,1.2,0c-0.6-13,7.5-20.5,18.3-25.9c5.4-2.8,14.5-7.3,13.8-14.8
				c-0.6-5.6-6.6-6.8-11.2-6.1c-8.5,1.2-16.3,6.3-22.1,12.4C559.5,473.2,560.4,474.1,561,473.5L561,473.5z"/>
		</g>
	</g>
	<g opacity="0.13">
		<g>
			<path fill="#C1CB82" d="M590.3,470.3c5.9-4.6,12.3-8.3,19.3-10.9c2.5-0.9,4.4-2.1,6.7,0.6c1.1,1.3,1.5,3.9,1.6,5.5
				c0.4,4.6-1.4,8.4-4.8,11.5c-4.1,3.9-9.4,6.2-13.5,10.1c-3.5,3.3-6.1,7.2-7.6,11.8c-0.2,0.8,1,1.1,1.2,0.3
				c3.2-10.2,11.8-14.1,19.5-20.3c4.3-3.5,7-8,6.4-13.7c-0.5-5.7-2.7-9.5-8.3-7.7c-7.8,2.5-15.1,6.8-21.5,11.8
				C588.8,469.9,589.7,470.8,590.3,470.3L590.3,470.3z"/>
		</g>
	</g>
	<g opacity="0.13">
		<g>
			<path fill="#C1CB82" d="M617.1,472.3c2.6-0.7,4.3-2.2,6.2-4c1.8-1.8,3.7-4.1,6.4-4.5c5.4-0.8,5.3,4.1,5.7,7.5
				c0.5,4,1.2,8.9,0.4,12.8c-1,5-8.1,8.7-12.1,11.6c-0.6,0.5,0,1.6,0.6,1.1c3.8-2.8,10.7-5.8,12.4-10.5c1.8-5,0.4-12.7-0.4-17.8
				c-0.5-3.2-1.8-6.1-5.5-6c-6,0.1-8.6,7.2-14,8.8C616,471.3,616.3,472.5,617.1,472.3L617.1,472.3z"/>
		</g>
	</g>
	<g opacity="0.13">
		<g>
			<path fill="#C1CB82" d="M442.2,569.7c8.4,1.2,17.3-1.4,25.1,2.8c6.7,3.6,11.8,10.1,17.5,15c10.8,9.1,23.6,16.5,37.7,18.5
				c8.8,1.2,24.1-2.5,20.8-14.8c-3.2-11.8-20.7-15.8-30.8-18c-16.3-3.7-35.8-6.3-44.9-22.3c-0.4-0.7-1.5-0.1-1.1,0.6
				c7.2,12.6,21.5,17.6,35,20.6c9.1,2,18.5,3.5,27,7.3c8.6,3.9,21,14.8,8.8,23.1c-7.9,5.3-19.7,1.9-27.8-1.3
				c-9-3.5-17.2-8.9-24.5-15.2c-5.6-4.8-10.6-11-17.2-14.6c-8-4.3-16.8-1.7-25.4-3C441.7,568.3,441.4,569.6,442.2,569.7L442.2,569.7
				z"/>
		</g>
	</g>
	<g opacity="0.13">
		<g>
			<path fill="#C1CB82" d="M544.8,591.3c6,4.1,17.3,9.4,21.3-0.3c4-9.6-3.5-19.8-11.1-24.9c-10.5-7.1-23.8-11.1-35.9-14.2
				c-6.5-1.7-13.1-3-19.8-4c-3.1-0.4-6.2-0.8-9.3-1.1c-2.7-0.2-10.9,0.4-11.4-3.9c-0.1-0.8-1.3-0.8-1.2,0c0.7,6.2,11.2,4.9,15.4,5.4
				c12.1,1.3,24.1,3.8,35.7,7.5c10.4,3.3,22.9,7.2,30.8,15.2c4.5,4.6,8,11.6,6.1,18.2c-2.9,10.2-14.2,4.8-19.9,0.9
				C544.8,589.8,544.1,590.9,544.8,591.3L544.8,591.3z"/>
		</g>
	</g>
	<g opacity="0.13">
		<g>
			<path fill="#C1CB82" d="M564.6,576.9c9.6,4.5,22.6,9.7,31.5,0.8c7.8-7.7,2-18.1-6.3-22.4c-6.2-3.3-13.4-3.8-20-6.1
				c-6.8-2.4-12.3-7.4-19.2-9.6c-6.7-2.1-13.8-2.5-20.7-2.9c-3.7-0.3-7.5-0.5-11.2-0.8c-4.1-0.3-12.4-0.1-13.2-5.9
				c-0.1-0.8-1.3-0.8-1.2,0c1,8.4,14.2,7.1,20,7.5c7,0.5,14.1,0.7,21,2c6.7,1.3,12,4.6,17.9,8c10.6,6,27.8,4.3,34.1,16.4
				c4,7.8-2,15.1-9.6,16.9c-7.8,1.9-15.6-1.9-22.5-5.1C564.5,575.5,563.9,576.6,564.6,576.9L564.6,576.9z"/>
		</g>
	</g>
	<g opacity="0.13">
		<g>
			<path fill="#C1CB82" d="M596.6,562.8c8.2,3.3,18.6,0,22.3-8.3c3.7-8.3-0.2-18.4-8.2-22.3c-5.8-2.8-12.9-3.3-19.2-4.4
				c-7.7-1.3-15.4-2.6-23.1-3.7c-7.1-1-14.3-1.7-21.5-2.2c-6.8-0.4-15.3,0.4-20.1-5.5c-0.5-0.6-1.4,0.3-0.9,0.9
				c5.2,6.4,14.6,5.4,21.9,5.9c13.3,0.9,26.4,2.9,39.5,5.1c10.9,1.9,27.4,2,31.1,14.9c3.7,12.9-9.4,23.3-21.4,18.4
				C596.1,561.3,595.8,562.5,596.6,562.8L596.6,562.8z"/>
		</g>
	</g>
	<g opacity="0.13">
		<g>
			<path fill="#C1CB82" d="M618.6,540.9c7.4,0.6,12.9-4.6,15.3-11.2c1-2.8,2.5-7.3,1.1-10.2c-1.3-2.6-4.5-3.9-7-4.8
				c-9.2-3.2-20-1.7-29.5-2.3c-6.5-0.4-13-1.2-19.4-2.2c-2.8-0.4-5.6-0.9-8.3-1.5c-2.4-0.5-8.9-0.8-10-3.4c-0.3-0.7-1.5-0.4-1.2,0.3
				c0.7,1.7,1.8,2.2,3.5,2.7c4.1,1.3,8.6,1.9,12.9,2.6c8.4,1.4,16.9,2.4,25.4,2.9c8.5,0.5,18.2-0.8,26.4,2.1
				c13.6,4.8,2.8,24.8-9,23.8C617.8,539.6,617.8,540.9,618.6,540.9L618.6,540.9z"/>
		</g>
	</g>
	<g opacity="0.13">
		<g>
			<path fill="#C1CB82" d="M629.4,518c5.9-0.7,11.2-3.2,15.4-7.5c2.8-2.8,7.5-8.7,4.8-12.8c-2.8-4.1-11.6-3.7-15.7-3.8
				c-4.5-0.1-9,0.1-13.4,0.8c-5.2,0.8-10.7,3-15.8,0.4c-0.7-0.4-1.4,0.7-0.6,1.1c3.7,1.8,7.3,1.4,11.3,0.7c6.5-1.2,12.9-2,19.6-1.7
				c2.9,0.1,7-0.2,9.6,1.1c1.9,0.2,2.7,1.5,2.3,4c1.5,1.6,1.8,3,0.8,4.4c-0.5,1.4-1.8,2.8-2.7,3.9c-4,4.6-9.5,7.4-15.5,8.2
				C628.7,516.8,628.6,518.1,629.4,518L629.4,518z"/>
		</g>
	</g>
	<g opacity="0.13">
		<g>
			<path fill="#C1CB82" d="M421.7,584.1c3.1-1.8,3.6-5.7,4.3-8.9c1.2-5.2,2-10.6,2.3-15.9c0.3-5.6-0.3-11-0.6-16.5
				c-0.2-3.4-0.1-7.7,2-10.7c2.8-3.8,8.1-5.7,11.6-1.6c0.5,0.6,1.4-0.3,0.9-0.9c-6.2-7.4-14.5,0.7-15.6,7.7
				c-1,6.5,0.7,13.5,0.5,20.1c-0.1,4-0.5,8-1.2,12c-0.6,3.7-1.4,11.6-4.9,13.7C420.4,583.4,421,584.5,421.7,584.1L421.7,584.1z"/>
		</g>
	</g>
	<g opacity="0.13">
		<g>
			<path fill="#C1CB82" d="M422.4,582.6c6.4,2.8,13.2,2.1,19.8,3.8c7.1,1.8,13.3,5.9,19.6,9.4c12.8,7.2,25.8,8.6,40.3,8.8
				c0.2,0,0.4-0.1,0.5-0.3c1.6-2.8,1.4-5.4-0.5-8c-0.5-0.6-1.6,0-1.1,0.6c1.8,1.8,1.6,3.9-0.7,6.4c-0.6,0-1.2,0-1.8,0
				c-1.6,0.4-3.8-0.1-5.5-0.2c-4.2-0.2-8.4-0.6-12.5-1.3c-7.3-1.4-13.8-4.6-20.2-8.3c-5.2-3-10.4-6.2-16.2-7.9
				c-6.9-2.1-14.4-1.2-21.1-4.1C422.3,581.2,421.7,582.3,422.4,582.6L422.4,582.6z"/>
		</g>
	</g>
	<g>
		<path fill="#7B9461" d="M374.6,605.4c0.6-8,0.1-16-1.3-23.8c-0.8-4.4-1.9-8.8-4.6-12.3c-5.9-7.8-16.9-8.8-26.5-10.6
			c-14.3-2.7-28-8.6-39.8-17.2c-17.1-12.5-29.8-30.3-39.6-49.2c-18.6-36-27.4-79.1-13.6-117.2c2.5-6.9,5.7-13.5,9.1-19.9
			c14.4-27,35.5-52.8,64.9-61.5c1.6-0.5,3.3-0.9,4.8-0.4c1.5,0.5,2.7,1.8,3.9,2.8c10.3,8.2,27.4-2.8,38.3,4.7
			c5.4,3.7,7.2,10.8,8.8,17.1c8.5,34.1,21.7,66.9,36.8,98.6c6.8,14.4,14,28.7,18.1,44s4.7,32.2-1.6,46.8
			c-6.4,14.9-19.1,25.9-32.1,35.5c-5.5,4-11.2,8.1-14.7,13.9c-4,6.6-4.6,14.6-5.1,22.2c-0.8,12.1-1.4,24.9,4.3,35.5"/>
	</g>
	<g opacity="0.22">
		<g>
			<path fill="#6C7F5A" d="M434.7,463.1c-4-15.4-11.3-29.7-18.1-44c-15.1-31.7-28.3-64.5-36.8-98.6c-1.6-6.4-3.4-13.4-8.8-17.1
				c-10.9-7.5-28,3.5-38.3-4.7c-0.9-0.7-1.8-1.6-2.8-2.2c-2.8,23.6-7.6,47.2-5.1,71c2.5,23.5,7.4,46.7,8.1,70.4
				c0.8,23.4,5.6,46.2,12.7,68.5c3.5,11,7.5,21.8,11.7,32.5c3.7,9.4,8.2,18.5,11.2,28.2c0.6,1.9,1.1,4,1.6,6
				c2.1,3.3,3.1,7.3,3.8,11.2c1.4,7.8,1.8,15.9,1.3,23.8l10.2,9.1c-5.8-10.6-5.1-23.4-4.3-35.5c0.5-7.7,1.1-15.7,5.1-22.2
				c3.5-5.8,9.2-9.9,14.7-13.9c13-9.6,25.7-20.7,32.1-35.5C439.4,495.3,438.8,478.5,434.7,463.1z"/>
		</g>
	</g>
	<g opacity="0.52">
		<g>
			<path fill="#D6D896" d="M381,613.2c-5.2-2.8-7.4-9.2-7.6-15.1c-0.2-5.9,1-11.8,0.5-17.7c-1.2-15.4-13.4-27.4-19.8-41.4
				c-7-15.5-6.7-33.1-9.8-49.8c-1.9-10.3-5-20.4-7.8-30.5c-14.6-54.1-16.6-111.5-5.8-166.5c-9.4,15.5-10.5,34.7-8.6,52.7
				c1.9,18,6.5,35.7,7.6,53.8c0.6,10.1,0.1,20.3,0.8,30.5c1.3,19.4,6.8,38.2,12.3,56.8c3.5,11.9,7.1,23.9,10.6,35.8
				c3.5,11.9,7.1,23.9,13.8,34.3c4.2,6.6,9.8,12.9,10.7,20.7c0.4,3.9-0.3,7.7-0.7,11.6c-0.9,8.6,0,17.4,2.7,25.7"/>
		</g>
	</g>
	<g opacity="0.13">
		<g>
			<path fill="#C1CB82" d="M378.1,585.6c2.9-15.5-0.4-31.4,8.9-45.2c7.7-11.5,19.2-20,27.7-30.9c7.7-9.9,14.1-21.5,15.5-34.1
				c1.2-10.7-0.9-24-11.2-29.7c-0.7-0.4-1.3,0.7-0.6,1.1c12.8,7.2,12.3,25.6,8.5,37.8c-4.2,13.3-12.9,24.9-22.5,34.8
				c-8,8.2-17,15.9-21.9,26.5c-5.7,12.4-3.1,26.4-5.6,39.4C376.8,586,378,586.4,378.1,585.6L378.1,585.6z"/>
		</g>
	</g>
	<g opacity="0.13">
		<g>
			<path fill="#C1CB82" d="M363.2,546.2c1.4-13.4,8.1-25.1,15.7-35.9c7.9-11.2,16.3-21.9,23.7-33.5c3.9-6.1,7.6-12.4,11.2-18.6
				c2.4-4.1,5.6-8.3,5.1-13.3c-1.1-11-13.3-14.6-22.2-16.6c-0.8-0.2-1.1,1-0.3,1.2c6.2,1.4,12.9,2.9,17.4,7.6c6.4,6.8,3,13.5-1,20.4
				c-6.5,11.1-13.2,22.2-20.6,32.8c-12.2,17.3-27.9,33.9-30.1,55.9C361.9,547,363.1,546.9,363.2,546.2L363.2,546.2z"/>
		</g>
	</g>
	<g opacity="0.13">
		<g>
			<path fill="#C1CB82" d="M350.2,510c1.6,0,1.6-2.5,0-2.5C348.6,507.5,348.6,510,350.2,510L350.2,510z"/>
		</g>
	</g>
	<g opacity="0.13">
		<g>
			<path fill="#C1CB82" d="M350.2,508.8c2.6-12,5.2-24.2,10.6-35.3c2.6-5.4,5.9-10.5,10-14.8c4.5-4.7,10-8.3,15.1-12.4
				c8.2-6.6,15.6-16.2,17.3-26.9c1.3-7.9-3.3-17.5-12.6-15.8c-0.8,0.1-0.5,1.3,0.3,1.2c9.9-1.8,12.4,9.7,10.5,16.8
				c-1.4,5.4-4.3,10.5-7.7,15c-6.8,8.8-16.9,13.6-24.4,21.7c-12.5,13.6-16.7,32.5-20.5,50.1C348.8,509.2,350,509.6,350.2,508.8
				L350.2,508.8z"/>
		</g>
	</g>
	<g opacity="0.13">
		<g>
			<path fill="#C1CB82" d="M340.1,465.3c5.2-11.1,12.2-21.3,20.8-30c8.3-8.4,18.1-13.9,27.6-20.6c7.7-5.4,11-12,9-21.4
				c-0.8-3.4-1.7-7.1-5.3-8.4c-5.4-2-13.1-0.9-18.7-0.7c-0.8,0-0.8,1.3,0,1.2c2.9-0.1,5.8-0.2,8.7-0.1c1.3,0,2.6,0.1,3.9,0.1
				c2.6,0.1,6.8,0.8,8.6,2.9c1.3,1.5,1.7,5.1,2.1,7c0.7,3.8,0.5,7.5-1.5,10.9c-4.6,8-15.1,11.8-22.3,17.1
				c-14.6,10.7-26.2,25-33.9,41.3C338.7,465.4,339.8,466.1,340.1,465.3L340.1,465.3z"/>
		</g>
	</g>
	<g opacity="0.13">
		<g>
			<path fill="#C1CB82" d="M337,431.2c15.5-14.4,29.7-30.3,42.2-47.4c3-4.2,6.7-8.5,9-13.1c1.4-2.8,0.7-4.7-1.2-7.1
				c-4.5-5.6-11.9-7.8-18.8-6.5c-0.8,0.1-0.5,1.4,0.3,1.2c4.7-0.9,9.3-0.1,13.4,2.4c1.6,1,4.1,2.9,4.9,4.8c1.8,3.9-1.2,6.9-3.1,9.7
				c-4.7,6.8-9.6,13.5-14.8,20c-10.1,12.5-21.1,24.3-32.8,35.2C335.6,430.8,336.5,431.7,337,431.2L337,431.2z"/>
		</g>
	</g>
	<g opacity="0.13">
		<g>
			<path fill="#C1CB82" d="M374.4,564.8c-5.6-4.7-11.2-9.5-17.2-13.7c-6.1-4.3-12.2-4.9-19.4-6c-13.2-2-41.6-4.8-39.5-23.8
				c0.1-0.8-1.2-0.8-1.2,0c-1.7,15.4,15.8,20.2,27.5,22.7c4.3,0.9,8.6,1.7,12.9,2.4c4.4,0.7,9,0.9,13.2,2.5
				c8.4,3.3,15.9,11.1,22.8,16.9C374.1,566.2,375,565.3,374.4,564.8L374.4,564.8z"/>
		</g>
	</g>
	<g opacity="0.13">
		<g>
			<path fill="#C1CB82" d="M349.4,516.2c1.6,0,1.6-2.5,0-2.5C347.8,513.7,347.8,516.2,349.4,516.2L349.4,516.2z"/>
		</g>
	</g>
	<g opacity="0.13">
		<g>
			<path fill="#C1CB82" d="M349.7,514.6c-12.9-13.9-33.9-3.4-49.9-7.9c-9.4-2.7-17.6-8.4-26.2-12.9c-5.5-2.8-9.6-4.8-12-10.9
				c-1.3-3.3-2.3-6.7-1.8-10.2c0.7-4.6,5-9.4,10.3-7.2c0.7,0.3,1.4-0.8,0.6-1.1c-7.6-3.2-13,4.8-12.3,11.7
				c0.4,4.2,2.3,10.1,5.2,13.3c3.5,3.9,10,5.8,14.5,8.3c10.1,5.7,20,11.5,31.9,11.7c12.9,0.2,28.6-4.8,38.8,6.1
				C349.4,516.1,350.2,515.2,349.7,514.6L349.7,514.6z"/>
		</g>
	</g>
	<g opacity="0.13">
		<g>
			<path fill="#C1CB82" d="M341.9,457.9c-10.4,0.1-20.7,0.1-31.1,0.2c-10.3,0.1-20.8,0.8-31.1-0.2c-10.3-1-21.2-5.3-25.3-15.7
				c-4.5-11.3,3.7-25.7,17-22.2c0.8,0.2,1.1-1,0.3-1.2c-8.3-2.2-16.8,2.8-19.2,11c-2.7,9.3,2.2,18.6,9.8,23.7
				c10.2,6.9,23.2,5.8,34.9,5.8c14.9-0.1,29.8-0.2,44.7-0.3C342.7,459.1,342.7,457.8,341.9,457.9L341.9,457.9z"/>
		</g>
	</g>
	<g opacity="0.13">
		<g>
			<path fill="#C1CB82" d="M338.8,430.4c-10.2-2.9-20.6-4.6-31.1-5c-11.8-0.4-22.8,0.4-34.1-4c-10-3.9-21.7-10.4-20.5-23
				c1.2-12.4,14.8-18.7,25.5-13.1c0.7,0.4,1.3-0.7,0.6-1.1c-7.9-4.2-18.5-2.7-23.9,4.9c-5.5,7.6-4.3,18,2.3,24.5
				c8.2,8,21.9,12.3,33.1,12.9c7.6,0.4,15.2-0.2,22.8,0.5c8.5,0.7,16.9,2.3,25.1,4.6C339.2,431.8,339.6,430.6,338.8,430.4
				L338.8,430.4z"/>
		</g>
	</g>
	<g opacity="0.54">
		<g opacity="0.13">
			<g>
				<path fill="#C1CB82" d="M337.9,395.7c2-9.1,11.7-16.4,17.9-23c6.3-6.6,13.1-13.1,18.9-20.2c3.7-4.6,7-10.5,5.5-16.6
					c-1.2-5.1-5.6-8.7-10.9-8.4c-0.8,0.1-0.8,1.3,0,1.2c6-0.4,10.1,4.7,10,10.4c-0.1,4.2-2.1,8-4.6,11.3
					c-4.3,5.7-9.6,10.6-14.5,15.8c-4.9,5.1-9.8,10.3-14.6,15.4c-3.9,4.1-7.7,8-9,13.7C336.5,396.2,337.7,396.5,337.9,395.7
					L337.9,395.7z"/>
			</g>
		</g>
		<g opacity="0.13">
			<g>
				<path fill="#C1CB82" d="M333.3,361.2c6.5-6.1,13.3-12,20.5-17.5c6-4.6,13.2-8.3,18.7-13.4c4.4-4,5-10.6,4.5-16.2
					c-0.6-6.7-8.5-6.5-13.8-7.4c-0.8-0.1-1.1,1.1-0.3,1.2c2.9,0.5,6.9,0.6,9.5,2c4.5,2.4,3.8,9.5,2.8,13.4
					c-1.8,6.9-9.3,10.1-14.7,13.9c-9.9,7-19.2,14.7-28,23C331.9,360.9,332.7,361.8,333.3,361.2L333.3,361.2z"/>
			</g>
		</g>
		<g opacity="0.13">
			<g>
				<path fill="#C1CB82" d="M331.8,336.4c10.6-7.8,21.8-15.1,32-23.5c2.4-2,5.2-4.9,3.8-8.3c-0.9-2.3-3-3.3-5.3-2.6
					c-0.8,0.2-0.4,1.5,0.3,1.2c3.4,3.1,4,5.6,1.8,7.4c-0.8,0.8-1.6,1.5-2.6,2.1c-1.5,1.2-3.1,2.3-4.6,3.4c-2.8,2.1-5.6,4.1-8.4,6.2
					c-5.9,4.3-11.8,8.6-17.7,13C330.6,335.8,331.2,336.9,331.8,336.4L331.8,336.4z"/>
			</g>
		</g>
		<g opacity="0.13">
			<g>
				<path fill="#C1CB82" d="M335.7,394.2c-7-3.1-14.4-5.1-22-5.6c-4.7-0.3-9.3,0.3-14,0.3c-5.2,0-9.4-1.5-14-4
					c-3.9-2-7.7-4.2-11.5-6.3c-5.6-3.1-11.5-6.8-7.3-14.1c4.4-7.6,13.8-11,22.1-8.8c0.8,0.2,1.1-1,0.3-1.2
					c-7.4-1.9-15.3,0.1-20.6,5.6c-5.1,5.2-6.5,11.8-0.3,16.5c4.6,3.4,10.1,5.9,15.1,8.6c4,2.2,7.9,4.3,12.5,4.8
					c6.1,0.7,12.3-0.6,18.4,0c7.1,0.6,14,2.5,20.5,5.4C335.8,395.6,336.5,394.5,335.7,394.2L335.7,394.2z"/>
			</g>
		</g>
		<g opacity="0.13">
			<g>
				<path fill="#C1CB82" d="M333.5,358.3c-13.4-1.4-27.4-1.9-40.6-4.4c-2.3-0.4-6.5-1.4-7.6-3.9c-0.9-2.2,0.3-6.2,1.5-8.1
					c1-1.5,2-2.8,3.2-4.1c3.8-4,17-14.5,21.1-5.8c0.3,0.7,1.4,0.1,1.1-0.6c-5.8-12.6-30.3,7.2-28.8,17c0.9,6,8.8,6.8,13.5,7.3
					c12.2,1.3,24.3,2.6,36.5,3.9C334.3,359.6,334.3,358.4,333.5,358.3L333.5,358.3z"/>
			</g>
		</g>
		<g opacity="0.13">
			<g>
				<path fill="#C1CB82" d="M332.6,336.2c0.8,0,0.8-1.2,0-1.2C331.8,335,331.8,336.2,332.6,336.2L332.6,336.2z"/>
			</g>
		</g>
		<g opacity="0.13">
			<g>
				<path fill="#C1CB82" d="M332.6,334.8c-6-0.4-12.3-0.7-17.7-3.7c-6.8-3.7-9.4-11-6.6-18.2c2.2-5.5,6.7-9.4,11.6-12.5
					c0.7-0.4,2-1.6,2.8-1.7c2.3-0.3,3,1.7,3.5,3.2c0.9,2.7,0.9,6.1,1.3,8.9c0.1,0.8,1.3,0.5,1.2-0.3c-0.5-3.4-0.2-9.1-1.9-12.1
					c-0.9-1.5-2-1.8-3.6-1.3c-6.4,1.8-13.6,9.2-16,15.2c-2.3,5.7-1.5,12.1,2.9,16.6c5.9,6,14.7,6.7,22.6,7.1
					C333.4,336.1,333.4,334.9,332.6,334.8L332.6,334.8z"/>
			</g>
		</g>
	</g>
	<g>
		<path fill="#7B9461" d="M377.9,619.3c-9.5,3.5-19.4,7.1-29.5,5.9c-10.6-1.2-19.8-7.4-29.1-12.6c-24.7-13.7-53.2-20.9-81.4-18.6
			s-55.7,14.5-75,35c3.1,2.1,0,6.8-3,9c-10.2,7.7-20,16.1-27.2,26.7c-7.2,10.5-11.8,23.3-10.6,36c0.3,2.7,0.8,5.5,0.2,8.2
			c-0.6,2.8-2.3,5.3-3.9,7.7c-15.5,23.7-23.3,52.4-21.9,80.7c7.1,0,12.7-6,19.1-9c9.4-4.4,20.4-2.2,30.7-0.6
			c46.3,7.1,93.4,0.6,139.8-5.9c13.5-1.9,27.1-3.8,39.6-9.4c7.7-3.4,14.8-8.2,20.8-14c7.5-7.2,13.4-15.9,18.6-24.9
			c4.5-7.9,8.6-16.1,10.5-25c3.9-18.8-2.6-38-9.8-55.8c-2.3-5.8-4.7-12.7-1.4-18c2.4-3.7,6.9-5.4,10.7-7.6c3.9-2.2,7.7-6,6.9-10.4"
			/>
	</g>
	<g opacity="0.13">
		<g>
			<path fill="#C1CB82" d="M360.5,639c1-5,6.6-7.3,11.3-9.2c4.7-1.9,10-5.6,9.2-10.6c-15.9,8-34.7,10.1-51.9,5.8
				c7.1,2,13.6,6.2,18.4,11.8c-6.1,3.6-13.1,5.5-19.9,7.6c-39.6,12.1-76.9,31.8-109.3,57.7c-9.8,7.9-19.3,16.3-30.5,22
				c-14,7-30.5,9.5-42.6,19.4c-6.1,5-10.7,11.5-16.2,17.2c-12.5,13-30.4,23.1-34.5,40.7c10.4-17.1,25.7-30.7,40.7-44
				c6.5-5.8,13.1-11.6,20.7-15.8c6.1-3.4,12.8-5.8,19.3-8.6c31.4-13.6,57.2-37.4,86.1-55.7c25.8-16.3,54.1-28.3,82.8-38.9
				c3.3-1.2,7-2.4,10.2-0.9c8.8,4,3.1,21.8,12.4,24.6c-2.4-7.4-4.7-14.7-7.1-22.1"/>
		</g>
		<g>
			<g>
				<path fill="#C1CB82" d="M362.9,639.6c1.7-5.9,9.4-6.8,14-9.7c3.9-2.5,6.9-6,6.6-10.8c-0.1-2-2-3-3.8-2.2
					c-15.6,7.6-33.2,9.6-50,5.5c-3.1-0.7-4.4,3.9-1.3,4.8c6.8,2.1,12.5,5.8,17.3,11.1c0.2-1.3,0.3-2.6,0.5-3.9
					c-9.8,5.5-21.2,7.8-31.8,11.5c-9.8,3.5-19.5,7.4-29,11.7c-19.6,9-38.4,19.9-55.9,32.6c-17.1,12.4-32.1,27.8-52.2,35.4
					c-9,3.4-18.5,6.1-26.9,10.9c-8.6,4.9-14.5,12.4-21,19.6C116.6,770.5,97,780.7,92,800.5c-0.7,2.8,3.1,4.4,4.6,1.9
					c12.2-19.7,30.5-35.8,48.2-50.3c9.6-7.9,20.2-12.3,31.6-17.2c10.4-4.5,20.3-10.2,29.9-16.4c18.7-12.2,36-26.3,54.8-38.4
					c20.9-13.4,43.4-23.9,66.5-33c6.2-2.5,12.4-5.2,18.8-7.1c6.9-2.1,9.6,0.9,10.9,7.1c1.3,6.6,1.4,14.4,8.7,17.2
					c1.8,0.7,3.6-1.4,3.1-3.1c-2.4-7.4-4.7-14.7-7.1-22.1c-1-3.1-5.8-1.7-4.8,1.3c2.4,7.4,4.7,14.7,7.1,22.1c1-1,2.1-2.1,3.1-3.1
					c-5.9-2.2-4.5-14.1-6.8-19c-4.5-9.6-14.5-5.7-22.3-2.8c-23.6,8.9-47,18.8-68.8,31.5c-20.5,11.9-39,26.8-58.5,40.2
					c-9.8,6.8-20,13.1-30.8,18.3c-11,5.3-22.8,8.8-32.8,16.1c-10.4,7.5-19.9,16.6-29.2,25.4c-9.7,9.2-18.7,19.2-25.8,30.6
					c1.5,0.6,3,1.3,4.6,1.9c4.5-17.7,22-27.2,33.8-39.6c7-7.3,12.7-15.7,21.6-20.9c8.7-5.1,18.5-7.8,27.9-11.4
					c18.9-7.4,33-21.4,49-33.3c16.7-12.3,34.5-23.1,53.1-32c10.8-5.2,22-9.8,33.3-13.8c11-3.9,22.8-6.2,33-12
					c1.5-0.8,1.6-2.8,0.5-3.9c-5.3-5.9-11.9-10.1-19.5-12.4c-0.4,1.6-0.9,3.2-1.3,4.8c18.2,4.4,37.1,2.2,53.9-6
					c-1.3-0.7-2.5-1.4-3.8-2.2c0.3,6.5-8.2,8.2-12.8,10.6c-3.7,1.9-6.5,4.5-7.6,8.6C357.2,641.4,362,642.7,362.9,639.6L362.9,639.6z
					"/>
			</g>
		</g>
	</g>
	<g opacity="0.13">
		<g>
			<path fill="#C1CB82" d="M193.2,725.5c-3.2,4.4-5.5,9.3-6.7,14.6c-1.3,6.2-0.8,12.3-3.9,18.1c-2.2,4-5,7.7-6.8,11.9
				c-0.7,1.7-1.3,3.5-1.5,5.3c-0.3,2.6,1.4,7.7-1.7,9.1c-0.7,0.3-0.1,1.4,0.6,1.1c3.3-1.5,2.2-5.2,2.2-8.1c0-6.4,4.1-11.5,7.2-16.8
				c2.6-4.4,3.8-8.5,4.3-13.6c0.8-7.8,2.7-14.6,7.3-21C194.7,725.5,193.6,724.9,193.2,725.5L193.2,725.5z"/>
		</g>
	</g>
	<g opacity="0.13">
		<g>
			<path fill="#C1CB82" d="M227,698.7c-0.6,2.6-0.5,5,0,7.6c1.1,5.8,1.8,9.6-2.2,14.7c-4,5.1-8.6,9.9-11.6,15.7
				c-2.9,5.7-4.1,11.9-4.3,18.2c-0.3,7.6,4.1,24-5.1,27.5c-0.7,0.3-0.4,1.5,0.3,1.2c6.3-2.4,6.7-8.9,6.4-14.9
				c-0.4-9-1.3-18.3,1.8-27c2.9-8.3,9.3-14.1,14.3-21.1c5.2-7.3-0.4-13.7,1.5-21.5C228.4,698.3,227.2,698,227,698.7L227,698.7z"/>
		</g>
	</g>
	<g opacity="0.13">
		<g>
			<path fill="#C1CB82" d="M248.8,687.2c-1.4,10.2-2.9,20.5-2.2,30.8c0.8,11.1,6.8,22,2.5,33c-1.9,4.9-4.5,9.4-6.6,14.2
				c-2.1,4.8-4.2,9.7-7.7,13.7c-4.1,4.6-12.8,9.2-17.3,2.6c-1.4-2.1-2.2-4-4.7-5c-0.8-0.3-1.1,0.9-0.3,1.2c3.7,1.4,4.1,6.4,8,7.9
				c3.3,1.2,7.1,0.1,10-1.5c9.2-5.3,12-16.7,16.5-25.6c2.2-4.4,4.6-8.8,5.1-13.8c0.5-5.1-1-10-2.3-14.9c-3.5-14-1.8-28.2,0.2-42.3
				C250.1,686.7,248.9,686.4,248.8,687.2L248.8,687.2z"/>
		</g>
	</g>
	<g opacity="0.13">
		<g>
			<path fill="#C1CB82" d="M270.9,669.4c-5.2,18.8-10.4,38.7-5.4,58.1c1.3,4.9,3.1,9.7,3.4,14.8c0.3,5.1-0.7,10.6-2.2,15.5
				c-1.4,4.5-3.7,9.5-8,11.9c-4.9,2.8-12.4,1.8-14.6-3.9c-0.3-0.7-1.5-0.4-1.2,0.3c2.4,6,9.8,7.7,15.4,5.1
				c8.2-3.7,10.5-14.6,11.5-22.5c1.6-12.6-4.9-24.3-5.1-36.9c-0.2-14.3,3.6-28.4,7.4-42.1C272.3,669,271.1,668.6,270.9,669.4
				L270.9,669.4z"/>
		</g>
	</g>
	<g opacity="0.13">
		<g>
			<path fill="#C1CB82" d="M296.7,657.6c-2.3,22.9-2.6,46-0.7,69c0.9,11.7,0,22.6-2.9,34c-4.1,15.7-20.2,13.7-30.5,5.3
				c-0.6-0.5-1.5,0.4-0.9,0.9c6.9,5.7,16.5,9.9,25.1,5.1c3.8-2.1,5.9-5.4,7.1-9.4c1.8-5.9,3-12.4,3.6-18.6c1.5-14-1.3-28.5-1.5-42.6
				c-0.2-14.6,0.5-29.2,2-43.7C298.1,656.8,296.8,656.8,296.7,657.6L296.7,657.6z"/>
		</g>
	</g>
	<g opacity="0.13">
		<g>
			<path fill="#C1CB82" d="M322.9,645.2c-3.3,11.9-5.4,24.2-5.7,36.6c-0.3,12.2,1.6,23.8,4,35.7c2.6,12.3,5.9,26.5,1.5,38.8
				c-2.4,6.8-8.6,12.5-15.8,7.8c-5.4-3.5-9.9-9.3-14.4-13.9c-0.6-0.6-1.5,0.3-0.9,0.9c4.6,4.5,8.9,9.8,14.1,13.6
				c3.3,2.4,7.3,3.4,11.1,1.4c9.5-5.1,9.6-20,8.9-29.1c-1.2-14.9-6.1-29.2-7.1-44.2c-1-16,1.3-31.9,5.5-47.3
				C324.3,644.7,323.1,644.4,322.9,645.2L322.9,645.2z"/>
		</g>
	</g>
	<g opacity="0.13">
		<g>
			<path fill="#C1CB82" d="M345.7,635.6c-4.9,20.1-3.4,40.7-0.3,60.9c1.7,11,5.7,23.3,2.6,34.3c-2.3,8.2-11.2,28.7-22.6,21.8
				c-0.7-0.4-1.3,0.7-0.6,1.1c7.5,4.6,14.4-2,18-8.3c5.5-9.7,8.5-18.4,7-29.6c-3.6-26.8-9.4-52.9-2.9-79.8
				C347.1,635.2,345.9,634.9,345.7,635.6L345.7,635.6z"/>
		</g>
	</g>
	<g opacity="0.13">
		<g>
			<path fill="#C1CB82" d="M340.3,634.4c-15-5.7-30-11.3-45.1-17c-14.2-5.4-27.8-10.9-43.2-11.2c-7.7-0.1-15.4,0-23.1-0.7
				c-5.5-0.5-11.4-0.9-16.3,2.2c-6.3,3.8-8,14.1,0.2,16.8c0.8,0.3,1.1-1,0.3-1.2c-4.3-1.4-5.6-6.2-4-10.1c1.3-3.1,4.6-5.2,7.7-6.1
				c6.1-1.8,12.7-0.2,18.9,0.1c12.5,0.6,24.6-0.5,36.8,3.1c11.1,3.3,21.8,7.9,32.6,12c11.6,4.4,23.3,8.8,34.9,13.2
				C340.7,635.9,341.1,634.7,340.3,634.4L340.3,634.4z"/>
		</g>
	</g>
	<g opacity="0.13">
		<g>
			<path fill="#C1CB82" d="M320.3,645c-30.4-8.6-61.3-15.2-92.7-19.4c-7.1-1-14.2-1.8-21.3-2.5c-5.9-0.6-12.2-1.4-18,0.5
				c-9.2,3-13.9,12.8-10.7,21.9c0.3,0.8,1.5,0.4,1.2-0.3c-2-5.8-0.8-12.4,3.7-16.8c5.1-4.9,12.9-4.9,19.4-4.4
				c13.6,1.1,27.1,3,40.6,5.1c26.1,4.1,51.9,9.9,77.4,17.1C320.8,646.5,321.1,645.3,320.3,645L320.3,645z"/>
		</g>
	</g>
	<g opacity="0.13">
		<g>
			<path fill="#C1CB82" d="M291.3,653.1c-16.7,0.4-33.6,0.8-50.2-1.3c-17-2.2-33.2-10.1-50.5-9.4c-7.8,0.3-15.5,1.8-23.1,3.7
				c-6,1.5-12.4,3.3-16.7,8c-3.2,3.5-5.2,8.6-3.4,13.2c1.6,4.1,5.6,6.7,10,6.2c0.8-0.1,0.8-1.3,0-1.2c-4.9,0.5-8.8-3.2-9.3-7.9
				c-0.4-4.3,2.1-8.2,5.2-10.9c4.9-4.2,12-5.6,18.2-6.9c14.8-3.3,28.4-3.6,43,0.7c12.1,3.5,24.2,6,36.8,6.9
				c13.3,1,26.7,0.6,40.1,0.3C292.1,654.3,292.1,653,291.3,653.1L291.3,653.1z"/>
		</g>
	</g>
	<g opacity="0.13">
		<g>
			<path fill="#C1CB82" d="M258.7,670.5c1.6,0,1.6-2.5,0-2.5C257.1,668,257.1,670.5,258.7,670.5L258.7,670.5z"/>
		</g>
	</g>
	<g opacity="0.13">
		<g>
			<path fill="#C1CB82" d="M258.7,669.3c-33.1,0.9-66.2,1.8-99.3,2.8c-5.7,0.2-13.2-1-18.5,1.6c-4.4,2.2-6.7,8.1-7.4,12.7
				c-1.3,8.1,5.2,18.2,14.3,13.7c0.7-0.4,0.1-1.4-0.6-1.1c-9.1,4.5-13.8-7-12.1-14.1c0.9-3.7,2.6-7.5,5.9-9.5c3-1.8,6.2-1.7,9.6-1.8
				c12.1-0.4,24.2-0.7,36.4-1c23.9-0.7,47.8-1.3,71.8-2C259.5,670.5,259.5,669.2,258.7,669.3L258.7,669.3z"/>
		</g>
	</g>
	<g opacity="0.13">
		<g>
			<path fill="#C1CB82" d="M222.8,693.5c-13.6-1-27.3-0.9-40.9-0.1c-6.5,0.3-13,0.8-19.5,1.3c-5.6,0.4-11.4,0.4-16.9,1.9
				c-4.1,1.1-7.7,3.4-10.8,6.4c-1.7,1.7-3.2,3.5-4.7,5.4c-1.1,1.4-4,4.4-4.2,6.3c-0.4,5.7,18.2,4.4,21.3,4.2c0.8-0.1,0.8-1.3,0-1.2
				c-4.7,0.3-12.2,1.1-16.6-1c-3.2-1.6-3.5-2.2-1.4-5.1c1.5-2.1,3-4.1,4.7-6c7.6-8.3,16.8-8.7,27.4-9.5c20.4-1.6,40.9-2.8,61.3-1.3
				C223.6,694.8,223.6,693.6,222.8,693.5L222.8,693.5z"/>
		</g>
	</g>
	<g opacity="0.13">
		<g>
			<path fill="#C1CB82" d="M186.9,721c-17.7-8.1-41.5-10-57.8,2.3c-6.9,5.2-13.5,12.9-17.8,20.4c-0.9,1.5-1.6,3.3-0.2,4.8
				c1.4,1.5,4.4,1.9,6.1,2.9c2.8,1.6,5.1,3.7,7.1,6.1c0.5,0.6,1.4-0.3,0.9-0.9c-2.1-2.5-4.5-4.6-7.4-6.3c-0.9-0.5-3.8-1.3-4.5-2
				c-2.5-2.9-0.2-5.1,1.2-7.1c5-6.9,10.4-13.9,17.7-18.6c15.8-10.1,37.6-7.9,54-0.5C186.9,722.4,187.6,721.3,186.9,721L186.9,721z"
				/>
		</g>
	</g>
	<g opacity="0.13">
		<g>
			<path fill="#C1CB82" d="M167.4,735.9c-6.8,4.9-7.8,13.3-9.7,21c-1.3,5.4-3.1,10.8-6.5,15.2c-2.2,2.9-4.9,5-8.6,5.4
				c-4.8,0.6-16.8-2.7-13.1-10.4c0.3-0.7-0.7-1.4-1.1-0.6c-5.5,11.4,13.9,15.2,21,9.4c5.1-4.2,7.6-11.2,9.2-17.4
				c2-7.6,2.5-16.6,9.4-21.6C168.7,736.6,168.1,735.5,167.4,735.9L167.4,735.9z"/>
		</g>
	</g>
	<g opacity="0.52">
		<g>
			<path fill="#D6D896" d="M362.8,636.6c1-5,6.6-7.3,11.3-9.2c4.7-1.9,10-5.6,9.2-10.6c-15.9,8-34.7,10.1-51.9,5.8
				c7.1,2,13.6,6.2,18.4,11.8c-6.1,3.6-13.1,5.5-19.9,7.6c-39.6,12.1-76.9,31.8-109.3,57.7c-9.8,7.9-19.3,16.3-30.5,22
				c-14,7-30.5,9.5-42.6,19.4c-6.1,5-10.7,11.5-16.2,17.2c-12.5,13-30.4,23.1-34.5,40.7c10.4-17.1,25.7-30.7,40.7-44
				c6.5-5.8,13.1-11.6,20.7-15.8c6.1-3.4,12.8-5.8,19.3-8.6c31.4-13.6,57.2-37.4,86.1-55.7c25.8-16.3,54.1-28.3,82.8-38.9
				c3.3-1.2,7-2.4,10.2-0.9c8.8,4,3.1,21.8,12.4,24.6c-2.4-7.4-4.7-14.7-7.1-22.1"/>
		</g>
	</g>
	<g opacity="0.14">
		<g>
			<path fill="#6C7F5A" d="M375.2,628.3c3.9-2.2,7.7-6,6.9-10.4l-4.1,2.5c-9.5,3.5-19.4,7.1-29.5,5.9c-10.6-1.2-19.8-7.4-29.1-12.6
				c-24.7-13.7-53.2-20.9-81.4-18.6c-28.1,2.3-55.7,14.5-75,35c3.1,2.1,0,6.8-3,9c-6.7,5.1-13.3,10.5-19,16.6
				c4.5,10.8,31.2,11.6,39.2,12.1c20.3,1.2,40.6,0.2,60.9-0.2c5.9-0.1,12.2-0.5,18,0.7c11.3,2.3,13.7,11.7,12.2,22
				c-0.8,5.4-2.3,10.8-3.4,16.1c-1.3,6.2-1.1,12.6-2.7,18.7c-1.5,5.7-4.5,10.5-8.7,14.6c-5.9,5.9-12.8,10.7-18.9,16.5
				c-6.2,6-12.5,12-19.7,16.8c-7.3,4.9-15.8,6.3-24.1,8.5c-6,1.6-10.8,4.8-15.2,9.1c-0.3,0.3-0.5,0.5-0.8,0.8
				c36.1,1.3,72.5-3.7,108.4-8.8c13.5-1.9,27.1-3.8,39.6-9.4c7.7-3.4,14.8-8.2,20.8-14c7.5-7.2,13.4-15.9,18.6-24.9
				c4.5-7.9,8.6-16.1,10.5-25c3.9-18.8-2.6-38-9.8-55.8c-2.3-5.8-4.7-12.7-1.4-18C366.8,632.2,371.3,630.5,375.2,628.3z"/>
		</g>
	</g>
	<g>
		<g>
			<path fill="#C1CB82" d="M378.5,619.9c1.6,0,1.6-2.5,0-2.5C376.9,617.4,376.9,619.9,378.5,619.9L378.5,619.9z"/>
		</g>
	</g>
	<g>
		<g>
			<path fill="#C1CB82" d="M378.9,618.5c-5.1-15.2-7.4-31.3-6.9-47.3c0-0.4,0-0.8,0.2-1.2c0.7-1.9,3.9-1.2,4.7,0.7
				c0.8,1.9,0,4-0.5,5.9c-3.2,11.6,1.2,23.9,5.6,35.1c0.3,0.8,0.6,1.6,1.3,2.2c1.3,1.2,3.5,0.7,4.9-0.5s2.1-2.9,2.9-4.4
				c3.8-6.9,11.1-11.8,19-12.6c-2.7,9.2-14.1,12.3-20.6,19.4c-1.2,1.3-2.3,2.9-2.1,4.7c0.2,2.5,2.7,4,4.4,5.8c3.2,3.4,3.8,9,1.4,13
				c-6-1.4-2.6-13.1-8.4-15c-1.9-0.6-3.9,0.2-5.7,1c-4.1,1.8-8.2,3.6-12.4,5.4c0.1-3.4-0.5-6.9-1.9-10c5,1.7,11-0.3,13.9-4.7
				c-3.7,1.3-7.7-1-10.3-3.9c-2.6-2.9-4.6-6.4-7.8-8.6c-1.7-1.1-3.9-2.4-3.7-4.4c0.4-2.7,4.5-2.4,6.9-1c6.3,3.5,11.5,8.9,14.8,15.2"
				/>
		</g>
		<g>
			<g>
				<path fill="#C1CB82" d="M380.1,618.2c-4-12.2-6.4-24.9-6.9-37.7c-0.1-1.5-0.1-3.1-0.1-4.6c0-0.6,0-1.2,0-1.8
					c-0.2-1.8,0.5-1.5,2.3,0.8c0.5,1.2-1.3,5.4-1.4,7.1c-0.5,5.5,0.4,11,1.8,16.3c1.3,4.7,2.6,11.4,5.4,15.4
					c1.5,2.1,3.6,2.8,6.1,1.8c3.7-1.6,5-6.8,7.4-9.6c3.9-4.6,9.5-7.3,15.4-8.1c-0.5-0.5-1-1-1.5-1.5c-3,8.6-12.7,11.6-18.9,17.5
					c-1.9,1.8-4.2,4.2-3.9,7.2c0.4,3.7,4.5,5.4,6.1,8.5c0.8,1.5,1.8,9.6-1,6.9c-0.9-0.9-1-3.4-1.2-4.5c-0.5-2.3-0.8-5-2.4-6.8
					c-1.8-2.1-4.3-2.3-6.8-1.6c-5,1.4-10,4.2-14.8,6.3c0.6,0.4,1.3,0.7,1.9,1.1c0-3.7-0.6-6.9-2-10.4c-0.5,0.5-1,1-1.5,1.5
					c5.9,1.7,11.7-0.4,15.4-5.3c0.7-0.9-0.5-2.1-1.4-1.8c-5.5,1.3-8.9-3.3-11.9-7c-1.1-1.3-2.1-2.7-3.4-3.8c-0.7-0.6-2.7-1.6-3-2.3
					c0-3.2,1-4.1,3-2.6c0.4,0.3,0.9,0.5,1.3,0.8c2.1,1.2,4.1,2.8,5.8,4.5c2.9,2.8,5.3,6,7.2,9.5c0.8,1.4,2.9,0.1,2.2-1.3
					c-3.3-6-8-11.3-14-14.9c-2.5-1.5-7.9-3.7-9.7,0.1c-0.7,1.5-0.2,3,0.7,4.2c0.8,1.1,2.2,1.7,3.2,2.5c1.9,1.5,3.3,3.2,4.8,5
					c3.7,4.6,7.9,9.2,14.3,7.7c-0.5-0.6-0.9-1.2-1.4-1.8c-3,4-7.7,5.5-12.5,4.1c-0.8-0.2-1.9,0.6-1.5,1.5c1.3,3.2,1.9,6.3,1.9,9.7
					c0,1,1,1.4,1.9,1.1c4.3-1.9,8.9-4.7,13.4-5.9c5.6-1.4,6.1,2.4,6.9,6.5c0.7,3.5,1.4,6.9,5.1,8.2c0.5,0.2,1.2-0.1,1.4-0.6
					c1.7-3.4,2.2-7.1,0.8-10.7c-0.7-1.9-1.9-3.3-3.2-4.7c-3.2-3.3-2.3-7.3,1-10.1c6.6-5.7,15.5-8.8,18.5-17.7c0.3-1-0.7-1.7-1.5-1.5
					c-4.9,0.7-9.4,2.6-13.3,5.7c-1.8,1.5-3.4,3.1-4.8,5c-0.8,1.2-1.4,2.5-2.2,3.7c-0.4,1.4-1.5,2.1-3.2,1.9c-2.3,1.6-3.5,1-3.6-1.8
					c-2.6-6.6-5.1-13.6-5.8-20.7c-0.4-4.1-0.1-8,0.9-12c0.4-2,1.2-3.8,0.7-5.9c-0.6-2.3-3-4.2-5.4-3.2c-3.5,1.4-2.1,7.9-2.1,10.7
					c0.3,13.7,2.8,27.2,7,40.2C378.2,620.4,380.6,619.7,380.1,618.2L380.1,618.2z"/>
			</g>
		</g>
	</g>
	<g>
		<g>
			<path fill="#90B481" d="M391.5,620.8c3.7-3.7,6.4-8.5,10.7-11.7c3.2-2.4,8.5-2.2,8.7-7.1c0.1-1.3-1.2-2.5-2.5-2.5
				c-8.9,0.1-14.6,9-20,15c-1.8,2-4.3,4.1-3.2,7c1.5,4,9.8,7.1,3.8,12.1c-2.5,2.1,1.1,5.6,3.5,3.5c4.9-4.1,4-10.8-0.1-15.1
				c-1.9-2.1-2.8-1-1.2-3.3c1.4-2,3.4-3.8,5.1-5.6c3.3-3.6,6.8-8.6,12.1-8.6c-0.8-0.8-1.7-1.7-2.5-2.5c0,0-4.4,1.6-4.9,1.9
				c-1.7,1-3.2,2.3-4.5,3.6c-3,3.1-5.4,6.7-8.5,9.7C385.6,619.5,389.2,623.1,391.5,620.8L391.5,620.8z"/>
		</g>
	</g>
	<g>
		<g>
			<path fill="#90B481" d="M385,619c-3.6-3.4-6.8-3.8-11.5-4.4c-6-0.8-10.5-10.4-13.3-15.3c-1.4,0.8-2.9,1.7-4.3,2.5
				c3.2,4.6,7.1,8.5,11.9,11.3c2.4,1.4,4.9,2.6,7.5,3.4c2,0.7,6.8,0.7,8.1,2.6c1.8,2.7,6.1,0.2,4.3-2.5c-2.7-4-7.6-3.7-11.8-5.2
				c-6.4-2.3-11.8-6.6-15.7-12.2c-1.8-2.6-6-0.3-4.3,2.5c3.1,5.3,6.6,11.2,11,15.5c4.3,4.1,10.1,0.9,14.6,5.2
				C383.8,624.7,387.4,621.2,385,619L385,619z"/>
		</g>
	</g>
	<g>
		<g>
			<path fill="#B7A080" d="M389.4,623.5c3.2,0,3.2-5,0-5C386.2,618.5,386.2,623.5,389.4,623.5L389.4,623.5z"/>
		</g>
	</g>
	<g opacity="0.41">
		<g>
			<path fill="#B7A080" d="M391.5,622.2c2.5-5.1,5.8-9.5,10.1-13.2c1.8-1.5,0.2-4.1-1.8-4.3c-5.6-0.4-9.3,4-10,9.3
				c-0.9,7.2,4.1,14.8,0.1,21.5c-1.6,2.8,2.7,5.3,4.3,2.5c2.2-3.7,2.5-7.5,2-11.8c-0.6-4.5-4.6-17,3.6-16.5
				c-0.6-1.4-1.2-2.8-1.8-4.3c-4.6,4-8.2,8.7-10.9,14.2C385.8,622.5,390.1,625.1,391.5,622.2L391.5,622.2z"/>
		</g>
	</g>
	<g opacity="0.41">
		<g>
			<path fill="#B7A080" d="M387.8,621c-5.2,1-10.2,2.4-15.2,4.1c-3.6,1.3-8.7,2.5-11.1,5.7c-4.3,5.6,3.1,12.8-0.5,17.9
				c-1.9,2.6,2.5,5.1,4.3,2.5c3.7-5.1-0.5-9.5-0.3-14.8c0.1-4.5,6.9-5.8,10.6-7c4.4-1.5,9-2.6,13.6-3.6
				C392.3,625.2,391,620.4,387.8,621L387.8,621z"/>
		</g>
	</g>
	<g opacity="0.41">
		<g>
			<path fill="#B7A080" d="M381.7,605.4c-2.2-5.7-4.5-11.4-5.5-17.5c-1-6.5,0.1-12.6,2.3-18.7c0.9-2.6,1.9-5.2,3.1-7.7
				c1.5-3.2,3.4-4.7,6.6-6c3.6-1.5,6.4-2.9,7.6-6.8c0.5-1.8-1.3-3.6-3.1-3.1c-13.3,4.1-15.4,18.5-17.4,30.4
				c-1.2,7.6-2.8,15.4-2.5,23.2c0.2,5.1,1.1,10.4,6,12.9c2.9,1.5,5.4-2.8,2.5-4.3c-4.9-2.5-3.6-10.8-3.3-15.2
				c0.5-5.8,1.5-11.5,2.4-17.1c1.5-9.3,3-21.8,13.6-25c-1-1-2.1-2.1-3.1-3.1c-1,3.2-5.3,3.4-7.8,4.8c-1.9,1-3.3,2.4-4.5,4.2
				c-2.9,4.4-4.7,10.1-6.1,15c-3.7,12.4-0.3,23.7,4.3,35.3C378,609.6,382.8,608.4,381.7,605.4L381.7,605.4z"/>
		</g>
	</g>
	<g>
		<g opacity="0.87">
			<g>
				<path fill="#DDDB8F" d="M368.3,623.3c-2.1-2.2-4.7-4-7.7-4.6c-3.1-0.7-6.6,0-8.7,2.1c-3.2,3.1-2.2,8.6,1.7,11
					c3.8,2.4,9.5,1.7,12.8-1.2c2.8-2.4,3.5-7.4,0-8.8"/>
			</g>
			<g>
				<g>
					<path fill="#DDDB8F" d="M369.2,622.4c-4.2-4.2-10.8-7.1-16.5-3.8c-4.6,2.7-5.1,8.9-1.6,12.7c3.8,4.2,10.9,3.9,15.3,0.8
						c3.7-2.7,5.4-9,0.6-11.4c-1.4-0.7-2.7,1.4-1.3,2.2c4.8,2.4-0.6,7.7-3.6,8.6c-3.5,1.1-8,0.4-10-3c-2.1-3.7,0.1-7.7,4.1-8.6
						c4.3-1,8.3,1.4,11.2,4.3C368.6,625.3,370.3,623.5,369.2,622.4L369.2,622.4z"/>
				</g>
			</g>
		</g>
		<g opacity="0.37">
			<g>
				<path fill="#9D9D80" d="M361.3,626.1c-2.6-1-5.1-0.8-7.6,0.3c-1,0.4-0.7,1.7,0,2.2c3.3,2.5,7.9,2.5,11.3,0.1
					c0.7-0.5,0.8-1.3,0.3-2c-1.5-1.8-3.5-3.9-6-4.1c-2.1-0.1-4.3,1.3-4.7,3.4c-0.5,2.3,1.3,3.8,3.3,4.3c2.5,0.5,5-0.4,6.9-2.1
					c0.4-0.3,0.5-1.1,0.2-1.5c-2.6-3.5-7.4-4.7-11.3-2.5c-1.4,0.8-0.1,3,1.3,2.2c2.6-1.5,6.1-0.9,7.9,1.6c0.1-0.5,0.1-1,0.2-1.5
					c-0.9,0.9-2,1.5-3.3,1.5c-1.4,0.1-3.8-0.9-2-2.4c2.1-1.7,4.6,1.4,5.8,2.8c0.1-0.7,0.2-1.3,0.3-2c-2.7,1.9-6.1,1.8-8.8-0.1
					c0,0.7,0,1.4,0,2.2c1.9-0.8,3.8-0.8,5.7-0.1C362.2,629.1,362.8,626.6,361.3,626.1L361.3,626.1z"/>
			</g>
		</g>
	</g>
	<g>
		<g opacity="0.87">
			<g>
				<path fill="#D6D472" d="M367.5,594.4c-2.1-2.2-4.7-4-7.7-4.6c-3.1-0.7-6.6,0-8.7,2.1c-3.2,3.1-2.2,8.6,1.7,11
					c3.8,2.4,9.5,1.7,12.8-1.2c2.8-2.4,3.5-7.4,0-8.8"/>
			</g>
			<g>
				<g>
					<path fill="#D6D472" d="M368.3,593.5c-4.2-4.2-10.8-7.1-16.5-3.8c-4.6,2.7-5.1,8.9-1.6,12.7c3.8,4.2,10.9,3.9,15.3,0.8
						c3.7-2.7,5.4-9,0.6-11.4c-1.4-0.7-2.7,1.4-1.3,2.2c4.8,2.4-0.6,7.7-3.6,8.6c-3.5,1.1-8,0.4-10-3c-2.1-3.7,0.1-7.7,4.1-8.6
						c4.3-1,8.3,1.4,11.2,4.3C367.7,596.4,369.5,594.7,368.3,593.5L368.3,593.5z"/>
				</g>
			</g>
		</g>
		<g opacity="0.37">
			<g>
				<path fill="#9D9D80" d="M360.5,596.4c-2.6-1-5.1-0.8-7.6,0.3c-1,0.4-0.7,1.7,0,2.2c3.3,2.5,7.9,2.5,11.3,0.1
					c0.7-0.5,0.8-1.3,0.3-2c-1.5-1.8-3.5-3.9-6-4.1c-2.1-0.1-4.3,1.3-4.7,3.4c-0.5,2.3,1.3,3.8,3.3,4.3c2.5,0.5,5-0.4,6.9-2.1
					c0.4-0.3,0.5-1.1,0.2-1.5c-2.6-3.5-7.4-4.7-11.3-2.5c-1.4,0.8-0.1,3,1.3,2.2c2.6-1.5,6.1-0.9,7.9,1.6c0.1-0.5,0.1-1,0.2-1.5
					c-0.9,0.9-2,1.5-3.3,1.5c-1.4,0.1-3.8-0.9-2-2.4c2.1-1.7,4.6,1.4,5.8,2.8c0.1-0.7,0.2-1.3,0.3-2c-2.7,1.9-6.1,1.8-8.8-0.1
					c0,0.7,0,1.4,0,2.2c1.9-0.8,3.8-0.8,5.7-0.1C361.3,599.4,362,597,360.5,596.4L360.5,596.4z"/>
			</g>
		</g>
	</g>
	<g>
		<g>
			<path fill="#A64023" d="M407.9,614c3.8,0,7.5-0.8,10-2.9c2.5-2.1,3.5-5.6,2-9c-2.2-5.1-9.9-8.7-14.9-7.3
				c-5.1,1.3-7.1,6.7-5.2,11.9c1.6,4.3,7.6,8.8,11.2,7"/>
		</g>
		<g opacity="0.49">
			<g>
				<path fill="#7A5A50" d="M417.2,608.8c-2.4-1.1-4.3-1.1-6.9-0.4c-1.5,0.4-3,0.9-4.5,0.7c-2.6-0.3-4.7-2.3-6.1-4.4
					c-0.2-0.3-0.4-0.5-0.5-0.8c0.1,0.9,0.3,1.8,0.6,2.7c1.3,3.3,5.2,6.9,8.6,7.3l-0.5,0.1c0.3,0,0.5,0,0.8,0c0.4,0,0.8,0,1.2-0.1
					c3.1-0.3,6-1.1,8-2.8c0.5-0.4,0.9-0.8,1.2-1.3C418.5,609.5,417.9,609.2,417.2,608.8z"/>
			</g>
		</g>
	</g>
</g>
</svg>
