<?xml version="1.0" encoding="utf-8"?>
<!-- Generator: Adobe Illustrator 18.0.0, SVG Export Plug-In . SVG Version: 6.00 Build 0)  -->
<!DOCTYPE svg PUBLIC "-//W3C//DTD SVG 1.1//EN" "http://www.w3.org/Graphics/SVG/1.1/DTD/svg11.dtd" [
	<!ENTITY ns_flows "http://ns.adobe.com/Flows/1.0/">
	<!ENTITY ns_extend "http://ns.adobe.com/Extensibility/1.0/">
	<!ENTITY ns_ai "http://ns.adobe.com/AdobeIllustrator/10.0/">
	<!ENTITY ns_graphs "http://ns.adobe.com/Graphs/1.0/">
]>
<svg version="1.1" id="Capa_1" xmlns:x="&ns_extend;" xmlns:i="&ns_ai;" xmlns:graph="&ns_graphs;"
	 xmlns="http://www.w3.org/2000/svg" xmlns:xlink="http://www.w3.org/1999/xlink" xmlns:a="http://ns.adobe.com/AdobeSVGViewerExtensions/3.0/"
	 x="0px" y="0px" viewBox="0 0 749 1334" enable-background="new 0 0 749 1334" xml:space="preserve">
<g>
	<path fill="#FFFFFF" d="M236,1117.8c0-16.7,8.2-25.1,24.7-25.1c16.5,0,24.8,8.4,24.8,25.1v16.1h-17.2v-16.1c0-5.4-2.5-8.1-7.5-8.1
		h-0.1c-5,0-7.4,2.7-7.4,8.1v10.8c0,5.3,5.4,11.8,16.1,19.5c10.8,7.7,16.1,16.9,16.1,27.6v15.1c0,16.8-8.2,25.1-24.7,25.1
		c-16.5,0-24.8-8.4-24.8-25.1v-16.1h17.2v16.1c0,5.4,2.5,8.1,7.5,8.1c5,0,7.5-2.7,7.5-8.1v-13.6c0-5.8-5.4-12.5-16.1-20.2
		c-10.8-7.7-16.1-17-16.1-28V1117.8z"/>
	<path fill="#FFFFFF" d="M348.1,1171.7l5.6,42.4h-17.4l-3.3-25.3h-17.6l-3.4,25.3h-17.3l5.6-42.2l12.2-77.2H336L348.1,1171.7z
		 M330.7,1171.7l-6.6-49.7l-6.6,49.7H330.7z"/>
	<path fill="#FFFFFF" d="M364,1094.6h17.2l16.3,69.3v-69.3h15.9V1214h-17.2l-15.7-67.1v67.1H364V1094.6z"/>
	<path fill="#FFFFFF" d="M477.6,1190.9c0,16.7-8.3,25.1-24.8,25.1c-16.5,0-24.7-8.4-24.7-25.1v-73c0-16.7,8.2-25.1,24.7-25.1
		c16.5,0,24.8,8.4,24.8,25.1v16.1h-17.2v-16.1c0-5.4-2.5-8.1-7.5-8.1h-0.1c-5,0-7.4,2.7-7.4,8.1v73c0,5.4,2.5,8.1,7.5,8.1
		c5,0,7.5-2.7,7.5-8.1v-28h-7.5v-17h24.7V1190.9z"/>
	<path fill="#FFFFFF" d="M541.1,1190.9c0,16.7-8.3,25.1-24.8,25.1c-16.5,0-24.7-8.4-24.7-25.1v-96.2h17.2v96.2
		c0,5.4,2.5,8.1,7.5,8.1c5,0,7.5-2.7,7.5-8.1v-96.2h17.2V1190.9z"/>
	<path fill="#FFFFFF" d="M556.6,1094.6h17.2V1214h-17.2V1094.6z"/>
	<path fill="#FFFFFF" d="M590,1094.6h17.2l16.3,69.3v-69.3h15.9V1214h-17.2l-15.7-67.1v67.1H590V1094.6z"/>
	<path fill="#FFFFFF" d="M703.6,1190.9c0,16.7-8.3,25.1-24.8,25.1c-16.5,0-24.7-8.4-24.7-25.1v-73c0-16.7,8.2-25.1,24.7-25.1
		c16.5,0,24.8,8.4,24.8,25.1V1190.9z M686.3,1117.8c0-5.4-2.5-8.1-7.5-8.1h-0.1c-5,0-7.4,2.7-7.4,8.1v73c0,5.4,2.5,8.1,7.5,8.1
		c5,0,7.5-2.7,7.5-8.1V1117.8z"/>
</g>
<g>
	<path fill="#FFFFFF" d="M200.4,1250.2c0,1.1-0.2,2.1-0.5,3.1s-0.8,1.9-1.4,2.7s-1.4,1.5-2.3,2.2s-2,1.1-3.2,1.5
		c0.8,0.3,1.5,0.9,2,1.9s0.9,2.2,1.2,3.8l1.2,6.7c0,0.3,0.1,0.6,0.1,0.8s0.1,0.5,0.1,0.7c0,0.1,0,0.3-0.1,0.4s-0.2,0.2-0.4,0.2
		s-0.4,0.1-0.7,0.1s-0.7,0-1.1,0c-0.4,0-0.7,0-1,0s-0.4-0.1-0.6-0.2s-0.2-0.2-0.3-0.3s-0.1-0.3-0.1-0.5l-1.2-7.1
		c-0.1-0.8-0.3-1.6-0.5-2.2s-0.5-1.3-0.9-1.7s-0.9-0.9-1.6-1.1s-1.4-0.4-2.3-0.4h-2.7l-2.6,12.9c0,0.1-0.1,0.2-0.2,0.3
		s-0.2,0.2-0.4,0.2s-0.4,0.1-0.7,0.1s-0.6,0.1-1,0.1c-0.4,0-0.7,0-0.9,0s-0.5-0.1-0.6-0.1s-0.2-0.1-0.3-0.2s-0.1-0.2,0-0.3l5.6-28.1
		c0.1-0.6,0.4-1,0.8-1.3s0.8-0.4,1.2-0.4h6.6c1.4,0,2.7,0.1,3.8,0.4s2,0.7,2.7,1.2s1.3,1.2,1.7,2S200.4,1249.2,200.4,1250.2z
		 M196,1250.8c0-0.5-0.1-1-0.3-1.5s-0.5-0.8-0.9-1.2s-0.9-0.6-1.6-0.8s-1.4-0.3-2.3-0.3h-4.2l-2.1,10.2h3.6c1.4,0,2.6-0.2,3.6-0.6
		s1.8-0.9,2.4-1.5s1.1-1.3,1.4-2.1S196,1251.6,196,1250.8z"/>
	<path fill="#FFFFFF" d="M227.7,1273.6c0,0.1-0.1,0.2-0.2,0.3s-0.2,0.2-0.4,0.2s-0.4,0.1-0.6,0.1s-0.6,0.1-1,0.1
		c-0.4,0-0.7,0-0.9-0.1s-0.4-0.1-0.6-0.1s-0.2-0.1-0.3-0.2s0-0.2,0-0.3l2.7-13.5h-13.8l-2.7,13.5c0,0.1-0.1,0.2-0.2,0.3
		s-0.2,0.2-0.4,0.2s-0.4,0.1-0.7,0.1s-0.6,0.1-1,0.1c-0.4,0-0.7,0-1-0.1s-0.4-0.1-0.6-0.1s-0.2-0.1-0.3-0.2s-0.1-0.2,0-0.3l5.8-29.2
		c0-0.1,0.1-0.2,0.2-0.3s0.2-0.2,0.4-0.2s0.4-0.1,0.6-0.1s0.6-0.1,1-0.1c0.4,0,0.7,0,0.9,0.1s0.5,0.1,0.6,0.1s0.2,0.1,0.3,0.2
		s0.1,0.2,0,0.3l-2.4,12.2h13.8l2.4-12.2c0-0.1,0.1-0.2,0.2-0.3s0.2-0.2,0.4-0.2s0.4-0.1,0.6-0.1s0.6-0.1,1-0.1c0.4,0,0.7,0,0.9,0.1
		s0.4,0.1,0.6,0.1s0.2,0.1,0.3,0.2s0,0.2,0,0.3L227.7,1273.6z"/>
	<path fill="#FFFFFF" d="M261.1,1272.7c0,0.3,0.1,0.6,0,0.8s-0.1,0.4-0.3,0.5s-0.4,0.2-0.7,0.2s-0.7,0-1.3,0c-0.3,0-0.6,0-0.9,0
		s-0.4-0.1-0.6-0.1s-0.2-0.1-0.3-0.2s-0.1-0.2-0.1-0.4l-1.1-7.4h-12.6l-4,7.3c-0.1,0.2-0.2,0.3-0.3,0.4s-0.2,0.2-0.4,0.2
		s-0.4,0.1-0.7,0.1s-0.6,0-1.1,0c-0.5,0-0.8,0-1.1-0.1s-0.5-0.1-0.6-0.2s-0.1-0.3-0.1-0.5s0.2-0.5,0.3-0.8l15.8-28.2
		c0.1-0.2,0.2-0.3,0.4-0.4s0.3-0.2,0.5-0.3s0.5-0.1,0.8-0.1s0.7,0,1.1,0c0.5,0,0.9,0,1.3,0s0.6,0.1,0.8,0.1s0.3,0.2,0.4,0.3
		s0.1,0.3,0.2,0.4L261.1,1272.7z M253.2,1247.9L253.2,1247.9L245,1263h10.5L253.2,1247.9z"/>
	<path fill="#FFFFFF" d="M301.4,1273.6c0,0.1-0.1,0.2-0.2,0.3s-0.2,0.2-0.4,0.2s-0.4,0.1-0.6,0.1s-0.6,0.1-1,0.1
		c-0.4,0-0.7,0-0.9-0.1s-0.4-0.1-0.6-0.1s-0.2-0.1-0.3-0.2s0-0.2,0-0.3l5.3-26.4h0l-16.1,26.5c-0.1,0.2-0.4,0.4-0.7,0.5
		s-0.8,0.2-1.4,0.2c-0.6,0-1.1-0.1-1.4-0.2s-0.4-0.3-0.4-0.5l-5-26.5h0l-5.3,26.4c0,0.1-0.1,0.2-0.2,0.3s-0.2,0.2-0.4,0.2
		s-0.4,0.1-0.6,0.1s-0.6,0.1-1,0.1c-0.4,0-0.7,0-0.9-0.1s-0.4-0.1-0.6-0.1s-0.2-0.1-0.3-0.2s0-0.2,0-0.3l5.6-27.9
		c0.1-0.3,0.2-0.6,0.3-0.8s0.3-0.4,0.5-0.6s0.4-0.3,0.6-0.3s0.4-0.1,0.6-0.1h2.3c0.5,0,0.9,0.1,1.3,0.2s0.6,0.3,0.8,0.5
		s0.4,0.5,0.5,0.8s0.2,0.7,0.3,1.1l4.4,21.9h0.1l13.5-21.9c0.2-0.4,0.5-0.8,0.7-1.1s0.5-0.6,0.8-0.8s0.6-0.4,1-0.5s0.7-0.2,1.2-0.2
		h2.7c0.2,0,0.4,0,0.6,0.1s0.3,0.2,0.5,0.3s0.2,0.3,0.3,0.6s0,0.5,0,0.8L301.4,1273.6z"/>
	<path fill="#FFFFFF" d="M334.9,1272.5c0,0.3-0.1,0.6-0.3,0.8s-0.3,0.4-0.5,0.5s-0.4,0.2-0.6,0.3s-0.4,0.1-0.6,0.1h-1.5
		c-0.4,0-0.8,0-1-0.1s-0.5-0.3-0.7-0.5s-0.4-0.5-0.6-0.9s-0.3-0.8-0.5-1.4l-5.7-16.2c-0.4-1.2-0.8-2.3-1.2-3.5s-0.8-2.3-1.1-3.5h0
		c-0.2,1.3-0.4,2.6-0.7,3.8s-0.5,2.5-0.7,3.8l-3.5,17.7c0,0.1-0.1,0.2-0.2,0.3s-0.2,0.2-0.4,0.2s-0.4,0.1-0.6,0.1s-0.6,0.1-0.9,0.1
		s-0.7,0-0.9-0.1s-0.4-0.1-0.6-0.1s-0.2-0.1-0.2-0.2s0-0.2,0-0.3l5.6-28c0.1-0.6,0.4-1.1,0.8-1.3s0.8-0.4,1.2-0.4h1.9
		c0.4,0,0.7,0,1,0.1s0.5,0.2,0.7,0.4s0.4,0.5,0.5,0.8s0.3,0.7,0.5,1.2l5.7,16.4c0.4,1,0.7,2,1.1,3s0.7,2,1,3.1h0
		c0.2-1.3,0.5-2.6,0.7-4s0.5-2.7,0.8-4l3.3-16.4c0-0.1,0.1-0.2,0.2-0.3s0.2-0.2,0.4-0.2s0.4-0.1,0.6-0.1s0.6,0,0.9,0
		c0.4,0,0.7,0,0.9,0s0.4,0.1,0.6,0.1s0.2,0.1,0.3,0.2s0.1,0.2,0,0.3L334.9,1272.5z"/>
	<path fill="#FFFFFF" d="M370,1263.1c-0.4,1.9-1,3.6-1.8,5s-1.8,2.6-3,3.6s-2.5,1.7-4,2.2s-3.1,0.7-4.8,0.7c-1.8,0-3.4-0.2-4.7-0.7
		s-2.4-1.2-3.2-2.2s-1.3-2.2-1.6-3.6s-0.2-3.1,0.2-5.1l3.7-18.5c0-0.1,0.1-0.2,0.2-0.3s0.2-0.2,0.4-0.2s0.4-0.1,0.6-0.1
		s0.6-0.1,1-0.1s0.7,0,1,0.1s0.4,0.1,0.6,0.1s0.2,0.1,0.3,0.2s0,0.2,0,0.3l-3.7,18.5c-0.3,1.4-0.3,2.6-0.2,3.6s0.4,1.9,0.9,2.6
		s1.2,1.2,2,1.5s1.9,0.5,3.1,0.5c1.2,0,2.3-0.2,3.2-0.5s1.9-0.9,2.6-1.6s1.4-1.6,2-2.6s0.9-2.2,1.2-3.5l3.7-18.5
		c0-0.1,0.1-0.2,0.2-0.3s0.2-0.2,0.4-0.2s0.4-0.1,0.6-0.1s0.6-0.1,1-0.1c0.4,0,0.7,0,0.9,0.1s0.4,0.1,0.6,0.1s0.2,0.1,0.3,0.2
		s0.1,0.2,0,0.3L370,1263.1z"/>
	<path fill="#FFFFFF" d="M398,1246.1c0,0.1,0,0.3,0,0.4s0,0.3-0.1,0.5s-0.1,0.4-0.1,0.6s-0.1,0.4-0.2,0.5s-0.2,0.3-0.3,0.4
		s-0.2,0.1-0.3,0.1c-0.2,0-0.4-0.1-0.7-0.3s-0.7-0.4-1.2-0.6s-1-0.4-1.7-0.6s-1.4-0.3-2.3-0.3c-1,0-1.8,0.1-2.5,0.4
		s-1.3,0.7-1.8,1.2s-0.8,1.1-1.1,1.7s-0.4,1.3-0.4,1.9c0,0.7,0.2,1.3,0.5,1.8s0.7,1,1.2,1.4s1.1,0.8,1.7,1.2s1.3,0.8,1.9,1.1
		s1.3,0.8,1.9,1.3s1.2,1,1.7,1.5s0.9,1.3,1.2,2s0.5,1.6,0.5,2.6c0,1.3-0.3,2.6-0.8,3.7s-1.3,2.2-2.3,3s-2.2,1.6-3.6,2.1
		s-3,0.8-4.8,0.8c-1,0-1.8-0.1-2.7-0.2s-1.6-0.4-2.2-0.6s-1.2-0.5-1.7-0.8s-0.8-0.5-1-0.7s-0.3-0.5-0.3-0.9c0-0.1,0-0.2,0-0.4
		s0.1-0.4,0.1-0.6s0.1-0.4,0.2-0.6s0.1-0.4,0.2-0.5s0.2-0.3,0.3-0.4s0.2-0.2,0.4-0.2c0.2,0,0.6,0.1,0.9,0.4s0.8,0.5,1.4,0.8
		s1.2,0.6,2,0.8s1.7,0.4,2.7,0.4c1.1,0,2.1-0.2,2.9-0.5s1.6-0.7,2.2-1.2s1-1.1,1.3-1.8s0.5-1.5,0.5-2.2c0-0.7-0.1-1.3-0.4-1.8
		s-0.7-1-1.2-1.4s-1-0.8-1.7-1.2s-1.3-0.7-1.9-1.1s-1.3-0.8-1.9-1.3s-1.2-1-1.7-1.5s-0.9-1.3-1.2-2s-0.5-1.6-0.5-2.7
		c0-1.2,0.2-2.4,0.7-3.5s1.2-2,2.1-2.8s2-1.5,3.2-1.9s2.7-0.7,4.2-0.7c0.8,0,1.5,0.1,2.1,0.2s1.3,0.3,1.8,0.5s1,0.4,1.4,0.6
		s0.7,0.4,0.8,0.5s0.2,0.3,0.3,0.4S398,1245.9,398,1246.1z"/>
	<path fill="#FFFFFF" d="M443.7,1247.1c0,0.1,0,0.2,0,0.4s-0.1,0.3-0.1,0.5s-0.1,0.4-0.2,0.6s-0.1,0.4-0.2,0.5s-0.2,0.3-0.3,0.4
		s-0.2,0.1-0.3,0.1c-0.2,0-0.6-0.1-0.9-0.4s-0.9-0.6-1.6-0.9s-1.5-0.7-2.4-1s-2.1-0.4-3.4-0.4c-1.4,0-2.7,0.2-3.9,0.6
		s-2.3,1-3.3,1.7s-1.9,1.6-2.7,2.6s-1.5,2.1-2,3.2s-1,2.4-1.3,3.7s-0.4,2.6-0.4,3.9c0,1.4,0.2,2.6,0.6,3.6s1,1.9,1.7,2.7
		s1.7,1.3,2.7,1.6s2.2,0.6,3.6,0.6c1,0,2-0.1,3-0.3s2-0.6,2.9-1l1.8-8.8h-7c-0.2,0-0.3-0.1-0.4-0.2s-0.2-0.3-0.2-0.6
		c0-0.1,0-0.3,0-0.4s0.1-0.4,0.1-0.6s0.1-0.4,0.2-0.6s0.2-0.4,0.2-0.5s0.2-0.3,0.3-0.4s0.2-0.1,0.4-0.1h9.6c0.4,0,0.8,0.1,0.9,0.4
		s0.2,0.7,0.1,1.2l-2.3,11.7c-0.1,0.3-0.1,0.5-0.2,0.7s-0.2,0.3-0.3,0.5c-0.1,0.1-0.5,0.3-1.1,0.6s-1.3,0.6-2.2,0.8
		s-1.8,0.5-2.9,0.7s-2.2,0.3-3.4,0.3c-2,0-3.8-0.3-5.4-0.8s-2.8-1.3-3.9-2.3s-1.8-2.2-2.4-3.6s-0.8-3-0.8-4.8c0-1.7,0.2-3.3,0.6-4.9
		s0.9-3.2,1.7-4.6s1.6-2.8,2.7-4s2.3-2.3,3.6-3.2s2.9-1.6,4.5-2.1s3.4-0.8,5.3-0.8c1.1,0,2.1,0.1,3.1,0.3s1.8,0.4,2.6,0.7
		s1.4,0.6,1.9,0.9s0.9,0.6,1.1,0.8s0.3,0.3,0.4,0.5S443.7,1246.9,443.7,1247.1z"/>
	<path fill="#FFFFFF" d="M464.4,1271.5c0,0.1,0,0.2,0,0.4s-0.1,0.4-0.1,0.6s-0.1,0.4-0.1,0.6s-0.1,0.4-0.2,0.6s-0.2,0.3-0.3,0.4
		s-0.3,0.2-0.4,0.2h-13.4c-0.2,0-0.4,0-0.5-0.1s-0.3-0.1-0.4-0.3s-0.2-0.3-0.3-0.5s0-0.5,0-0.8l5.6-28.1c0-0.1,0.1-0.2,0.2-0.3
		s0.2-0.2,0.4-0.2s0.4-0.1,0.7-0.1s0.6-0.1,1-0.1s0.7,0,0.9,0.1s0.5,0.1,0.6,0.1s0.2,0.1,0.3,0.2s0.1,0.2,0,0.3l-5.2,26.2h10.9
		c0.2,0,0.3,0.1,0.4,0.2S464.4,1271.2,464.4,1271.5z"/>
	<path fill="#FFFFFF" d="M493.8,1272.7c0,0.3,0.1,0.6,0,0.8s-0.1,0.4-0.3,0.5s-0.4,0.2-0.7,0.2s-0.7,0-1.3,0c-0.3,0-0.6,0-0.9,0
		s-0.4-0.1-0.6-0.1s-0.2-0.1-0.3-0.2s-0.1-0.2-0.1-0.4l-1.1-7.4H476l-4,7.3c-0.1,0.2-0.2,0.3-0.3,0.4s-0.2,0.2-0.4,0.2
		s-0.4,0.1-0.7,0.1s-0.6,0-1.1,0c-0.5,0-0.8,0-1.1-0.1s-0.5-0.1-0.6-0.2s-0.1-0.3-0.1-0.5s0.2-0.5,0.3-0.8l15.8-28.2
		c0.1-0.2,0.2-0.3,0.4-0.4s0.3-0.2,0.5-0.3s0.5-0.1,0.8-0.1s0.7,0,1.1,0c0.5,0,0.9,0,1.3,0s0.6,0.1,0.8,0.1s0.3,0.2,0.4,0.3
		s0.1,0.3,0.2,0.4L493.8,1272.7z M485.9,1247.9L485.9,1247.9l-8.2,15.1h10.5L485.9,1247.9z"/>
	<path fill="#FFFFFF" d="M524.2,1272.5c0,0.3-0.1,0.6-0.3,0.8s-0.3,0.4-0.5,0.5s-0.4,0.2-0.6,0.3s-0.4,0.1-0.6,0.1h-1.5
		c-0.4,0-0.8,0-1-0.1s-0.5-0.3-0.7-0.5s-0.4-0.5-0.6-0.9s-0.3-0.8-0.5-1.4l-5.7-16.2c-0.4-1.2-0.8-2.3-1.2-3.5s-0.8-2.3-1.1-3.5h0
		c-0.2,1.3-0.4,2.6-0.7,3.8s-0.5,2.5-0.7,3.8l-3.5,17.7c0,0.1-0.1,0.2-0.2,0.3s-0.2,0.2-0.4,0.2s-0.4,0.1-0.6,0.1s-0.6,0.1-0.9,0.1
		s-0.7,0-0.9-0.1s-0.4-0.1-0.6-0.1s-0.2-0.1-0.2-0.2s0-0.2,0-0.3l5.6-28c0.1-0.6,0.4-1.1,0.8-1.3s0.8-0.4,1.2-0.4h1.9
		c0.4,0,0.7,0,1,0.1s0.5,0.2,0.7,0.4s0.4,0.5,0.5,0.8s0.3,0.7,0.5,1.2l5.7,16.4c0.4,1,0.7,2,1.1,3s0.7,2,1,3.1h0
		c0.2-1.3,0.5-2.6,0.7-4s0.5-2.7,0.8-4l3.3-16.4c0-0.1,0.1-0.2,0.2-0.3s0.2-0.2,0.4-0.2s0.4-0.1,0.6-0.1s0.6,0,0.9,0
		c0.4,0,0.7,0,0.9,0s0.4,0.1,0.6,0.1s0.2,0.1,0.3,0.2s0.1,0.2,0,0.3L524.2,1272.5z"/>
	<path fill="#FFFFFF" d="M561.1,1254.7c0,1-0.1,2.1-0.2,3.2s-0.4,2.2-0.7,3.3s-0.7,2.2-1.2,3.2s-1.1,2.1-1.8,3s-1.5,1.8-2.4,2.7
		s-2,1.5-3.1,2.1s-2.5,1.1-3.9,1.4s-3.2,0.5-5.2,0.5h-6.7c-0.2,0-0.4,0-0.6-0.1s-0.3-0.1-0.5-0.3s-0.2-0.3-0.3-0.5s0-0.5,0-0.8
		l5.4-27c0.1-0.6,0.3-1,0.7-1.3s0.8-0.4,1.3-0.4h6.4c2.3,0,4.3,0.2,5.8,0.7s2.8,1.2,3.8,2.1s1.8,2.1,2.3,3.4
		S561.1,1253,561.1,1254.7z M556.9,1255.1c0-1.2-0.2-2.2-0.5-3.2s-0.8-1.8-1.5-2.5s-1.6-1.2-2.6-1.6s-2.5-0.6-4.3-0.6h-4.2
		l-4.7,23.6h4.2c1.9,0,3.5-0.2,4.8-0.7s2.4-1.1,3.4-1.9s1.8-1.7,2.5-2.8s1.2-2.1,1.7-3.3s0.8-2.3,1-3.6S556.9,1256.2,556.9,1255.1z"
		/>
	<path fill="#FFFFFF" d="M591.3,1263.1c-0.4,1.9-1,3.6-1.8,5s-1.8,2.6-3,3.6s-2.5,1.7-4,2.2s-3.1,0.7-4.8,0.7
		c-1.8,0-3.4-0.2-4.7-0.7s-2.4-1.2-3.2-2.2s-1.3-2.2-1.6-3.6s-0.2-3.1,0.2-5.1l3.7-18.5c0-0.1,0.1-0.2,0.2-0.3s0.2-0.2,0.4-0.2
		s0.4-0.1,0.6-0.1s0.6-0.1,1-0.1s0.7,0,1,0.1s0.4,0.1,0.6,0.1s0.2,0.1,0.3,0.2s0,0.2,0,0.3l-3.7,18.5c-0.3,1.4-0.3,2.6-0.2,3.6
		s0.4,1.9,0.9,2.6s1.2,1.2,2,1.5s1.9,0.5,3.1,0.5c1.2,0,2.3-0.2,3.2-0.5s1.9-0.9,2.6-1.6s1.4-1.6,2-2.6s0.9-2.2,1.2-3.5l3.7-18.5
		c0-0.1,0.1-0.2,0.2-0.3s0.2-0.2,0.4-0.2s0.4-0.1,0.6-0.1s0.6-0.1,1-0.1c0.4,0,0.7,0,0.9,0.1s0.4,0.1,0.6,0.1s0.2,0.1,0.3,0.2
		s0.1,0.2,0,0.3L591.3,1263.1z"/>
	<path fill="#FFFFFF" d="M615.7,1271.5c0,0.1,0,0.2,0,0.4s-0.1,0.4-0.1,0.6s-0.1,0.4-0.1,0.6s-0.1,0.4-0.2,0.6s-0.2,0.3-0.3,0.4
		s-0.3,0.2-0.4,0.2H601c-0.2,0-0.4,0-0.5-0.1s-0.3-0.1-0.4-0.3s-0.2-0.3-0.3-0.5s0-0.5,0-0.8l5.6-28.1c0-0.1,0.1-0.2,0.2-0.3
		s0.2-0.2,0.4-0.2s0.4-0.1,0.7-0.1s0.6-0.1,1-0.1s0.7,0,0.9,0.1s0.5,0.1,0.6,0.1s0.2,0.1,0.3,0.2s0.1,0.2,0,0.3l-5.2,26.2h10.9
		c0.2,0,0.3,0.1,0.4,0.2S615.7,1271.2,615.7,1271.5z"/>
	<path fill="#FFFFFF" d="M649.1,1254c0,1.2-0.1,2.5-0.3,4s-0.6,3-1.1,4.5s-1.2,3-2.1,4.5s-1.9,2.7-3.2,3.8s-2.7,2-4.5,2.7
		s-3.7,1-5.9,1c-1.8,0-3.3-0.2-4.7-0.7s-2.5-1.1-3.4-2s-1.6-2-2-3.3s-0.7-2.8-0.7-4.5c0-1.3,0.1-2.8,0.4-4.3s0.6-3.1,1.2-4.6
		s1.2-3,2.1-4.4s1.9-2.7,3.2-3.8s2.7-2,4.4-2.6s3.6-1,5.8-1c1.8,0,3.3,0.2,4.7,0.7s2.5,1.1,3.4,2s1.6,2,2,3.3
		S649.1,1252.3,649.1,1254z M644.8,1254.3c0-1.1-0.1-2.1-0.4-3s-0.6-1.7-1.2-2.4s-1.3-1.2-2.2-1.5s-2-0.6-3.3-0.6
		c-1.6,0-3.1,0.3-4.3,0.9s-2.3,1.4-3.2,2.4s-1.6,2.1-2.2,3.3s-1.1,2.5-1.4,3.7s-0.6,2.5-0.8,3.6s-0.2,2.2-0.2,3c0,1.1,0.1,2.1,0.4,3
		s0.6,1.7,1.2,2.3s1.3,1.1,2.2,1.5s2,0.5,3.3,0.5c1.6,0,3-0.3,4.2-0.9s2.3-1.4,3.2-2.3s1.6-2,2.2-3.2s1.1-2.4,1.4-3.7
		s0.6-2.4,0.8-3.6S644.8,1255.2,644.8,1254.3z"/>
	<path fill="#FFFFFF" d="M674,1246.1c0,0.1,0,0.3,0,0.4s0,0.3-0.1,0.5s-0.1,0.4-0.1,0.6s-0.1,0.4-0.2,0.5s-0.2,0.3-0.3,0.4
		s-0.2,0.1-0.3,0.1c-0.2,0-0.4-0.1-0.7-0.3s-0.7-0.4-1.2-0.6s-1-0.4-1.7-0.6s-1.4-0.3-2.3-0.3c-1,0-1.8,0.1-2.5,0.4
		s-1.3,0.7-1.8,1.2s-0.8,1.1-1.1,1.7s-0.4,1.3-0.4,1.9c0,0.7,0.2,1.3,0.5,1.8s0.7,1,1.2,1.4s1.1,0.8,1.7,1.2s1.3,0.8,1.9,1.1
		s1.3,0.8,1.9,1.3s1.2,1,1.7,1.5s0.9,1.3,1.2,2s0.5,1.6,0.5,2.6c0,1.3-0.3,2.6-0.8,3.7s-1.3,2.2-2.3,3s-2.2,1.6-3.6,2.1
		s-3,0.8-4.8,0.8c-1,0-1.8-0.1-2.7-0.2s-1.6-0.4-2.2-0.6s-1.2-0.5-1.7-0.8s-0.8-0.5-1-0.7s-0.3-0.5-0.3-0.9c0-0.1,0-0.2,0-0.4
		s0.1-0.4,0.1-0.6s0.1-0.4,0.2-0.6s0.1-0.4,0.2-0.5s0.2-0.3,0.3-0.4s0.2-0.2,0.4-0.2c0.2,0,0.6,0.1,0.9,0.4s0.8,0.5,1.4,0.8
		s1.2,0.6,2,0.8s1.7,0.4,2.7,0.4c1.1,0,2.1-0.2,2.9-0.5s1.6-0.7,2.2-1.2s1-1.1,1.3-1.8s0.5-1.5,0.5-2.2c0-0.7-0.1-1.3-0.4-1.8
		s-0.7-1-1.2-1.4s-1-0.8-1.7-1.2s-1.3-0.7-1.9-1.1s-1.3-0.8-1.9-1.3s-1.2-1-1.7-1.5s-0.9-1.3-1.2-2s-0.5-1.6-0.5-2.7
		c0-1.2,0.2-2.4,0.7-3.5s1.2-2,2.1-2.8s2-1.5,3.2-1.9s2.7-0.7,4.2-0.7c0.8,0,1.5,0.1,2.1,0.2s1.3,0.3,1.8,0.5s1,0.4,1.4,0.6
		s0.7,0.4,0.8,0.5s0.2,0.3,0.3,0.4S674,1245.9,674,1246.1z"/>
	<path fill="#FFFFFF" d="M701.1,1272.7c0,0.3,0.1,0.6,0,0.8s-0.1,0.4-0.3,0.5s-0.4,0.2-0.7,0.2s-0.7,0-1.3,0c-0.3,0-0.6,0-0.9,0
		s-0.4-0.1-0.6-0.1s-0.2-0.1-0.3-0.2s-0.1-0.2-0.1-0.4l-1.1-7.4h-12.6l-4,7.3c-0.1,0.2-0.2,0.3-0.3,0.4s-0.2,0.2-0.4,0.2
		s-0.4,0.1-0.7,0.1s-0.6,0-1.1,0c-0.5,0-0.8,0-1.1-0.1s-0.5-0.1-0.6-0.2s-0.1-0.3-0.1-0.5s0.2-0.5,0.3-0.8l15.8-28.2
		c0.1-0.2,0.2-0.3,0.4-0.4s0.3-0.2,0.5-0.3s0.5-0.1,0.8-0.1s0.7,0,1.1,0c0.5,0,0.9,0,1.3,0s0.6,0.1,0.8,0.1s0.3,0.2,0.4,0.3
		s0.1,0.3,0.2,0.4L701.1,1272.7z M693.2,1247.9L693.2,1247.9L685,1263h10.5L693.2,1247.9z"/>
</g>
<g>
	<g>
		<path fill="#576D45" d="M432.2,677.7c7,1.9,13.5-4.9,15.6-11.8c2.1-6.9,1.8-14.5,4.7-21.1c3.5-8.1,11.5-13.5,19.9-16.2
			s17.4-2.8,26.2-3c8.9-0.2,17.9-0.3,26.8-0.5c-1.7,10.6-3.5,21.2-7.7,31.1c-4.2,9.8-11.2,18.9-21,23.4c-10.2,4.7-22,3.9-33,1.8
			c-11-2.1-21.8-5.5-33-5.8"/>
	</g>
	<g>
		<g>
			<path fill="#617F4D" d="M570.6,617.7c7,1.9,13.5-4.9,15.6-11.8s1.8-14.5,4.7-21.1c3.5-8.1,11.5-13.5,19.9-16.2s17.4-2.8,26.2-3
				c8.9-0.2,17.9-0.3,26.8-0.5c-1.7,10.6-3.5,21.2-7.7,31.1c-4.2,9.8-11.2,18.9-21,23.4c-10.2,4.7-22,3.9-33,1.8
				c-11-2.1-21.8-5.5-33-5.8"/>
		</g>
		<g>
			<path fill="#657F54" d="M659,565.2c-1.4,0.5-2.7,1-4,1.6c-13.3,6.2-23.4,18.1-34.2,27.7c-10.5,9.3-24.6,20.7-39.4,22.3
				c6.9,1.3,13.8,3.1,20.7,4.5c11,2.1,22.8,2.9,33-1.8c9.7-4.5,16.7-13.5,21-23.4s6-20.5,7.7-31.1
				C662.2,565.2,660.6,565.2,659,565.2z"/>
		</g>
	</g>
	<g>
		<path fill="#59704B" d="M233.5,379.7c11.7,3.9,24-4.5,32.1-13.9c5.4-6.2,10.4-13.7,10.2-22c-0.2-7.4-4.6-14-6.4-21.1
			c-4.5-17.3,5.7-34.8,16.1-49.4c-12.3-5.3-26.6-0.1-37.8,7.3c-15.4,10.1-28.4,24.6-33.8,42.2c-5.4,17.6-2.3,38.2,10.3,51.6
			c4.9,5.2,12.1,9.4,19,7.3"/>
	</g>
	<g opacity="0.35">
		<g>
			<path fill="#4B5A3C" d="M233.5,381.7c7.3-8.8,12.7-20.5,13.9-31.3c1.4-13.6-2.4-26.4,3.2-39.5c5.1-11.9,11.6-26.4,23.5-32.9
				c3.4-1.9,7-3.1,10.7-4.1c-12.1-4.6-25.9,0.5-36.8,7.7c-15.4,10.1-28.4,24.6-33.8,42.2c-5.4,17.6-2.3,38.2,10.3,51.6
				C227,377.9,230.1,380.3,233.5,381.7z"/>
		</g>
	</g>
	<g>
		<path fill="#4D5F3F" d="M183.6,495.2c5-6.1,10-12.3,12.8-19.6c2.7-7.4,2.8-16.2-1.8-22.5c-3.9-5.4-10.4-8.1-15.9-11.9
			c-7.2-5.1-12.8-12.2-18.2-19.1c-5.4-6.9-11-14.4-11.6-23.2c-0.3-3.6,0.3-7.3-0.4-10.8s-3.4-7.1-7-7.1c-3.7,0-6.3,3.4-8.2,6.5
			c-13,20.8-22.3,46.4-14.5,69.7c3.9,11.5,11.6,21.2,19.7,30.2c8.8,9.7,19.9,19.7,33,18.6c6.6-0.6,13.7-5.5,13.2-12.2"/>
	</g>
	<g>
		<g>
			<path fill="#60794D" d="M186,502.6c4,5.2,4.3,12.4,2.6,18.7c-1.7,6.3-5.2,12-8.3,17.7c-2.4,4.5-4.6,9-6.6,13.7
				c-0.9,2.2-1.8,4.4-2,6.7c-0.5,5.1,2.1,9.8,4.9,14.1c10,15.3,22.9,28.5,35.1,42.1c3.5,3.9,7,7.8,9.1,12.6
				c2.2,4.7,2.8,10.4,0.6,15.1c7.8-3.9,14-10.5,18.9-17.7c4.5-6.6,8.1-13.9,9-21.8c1.4-12-3.4-24-10.4-33.8s-16.1-17.9-24.7-26.5
				c-12.8-12.9-24.5-27.1-32.7-43.4"/>
		</g>
		<g opacity="0.61">
			<g>
				<path fill="#556845" d="M222.6,638.1c1.1-2.7,2-5.4,2.7-8.2c4.4-17.8-2.4-33.7-9.4-49.8c-7.8-17.8-15.2-35-26-51.2
					c-0.8-1.3-1.7-2.6-2.5-3.9c-1.9,5.2-4.8,10.1-7.4,15c-2.4,4.5-4.6,9-6.6,13.7c-0.9,2.2-1.8,4.4-2,6.7c-0.5,5.1,2.1,9.8,4.9,14.1
					c10,15.3,22.9,28.5,35.1,42.1c3.5,3.9,7,7.8,9.1,12.6C221.9,631.9,222.7,635,222.6,638.1z"/>
			</g>
		</g>
	</g>
	<g>
		<g>
			<path fill="#657F54" d="M406.7,637.1c2.7-4.9,4.6-10.2,7.4-15c8.9-14.7,28.3-22.2,44.7-17.1c5.8,1.8,11,4.9,16.7,6.8
				c6.8,2.3,14.1,2.9,21.1,1.7c-4.4,16.3-15,31.3-30,39.1c-15,7.8-34.4,7.5-48.2-2.4c-5.4-3.9-9.8-9-15.7-12.1"/>
		</g>
		<g>
			<path fill="#59704B" d="M422.3,637.4c10.2-0.4,19.9-3.8,29.4-7.5c14.5-5.6,29.7-9.4,44.4-14.5c0.2-0.6,0.4-1.3,0.6-1.9
				c-7,1.2-14.4,0.6-21.1-1.7c-5.7-1.9-11-5-16.7-6.8c-16.4-5.1-35.9,2.3-44.7,17.1c-2.5,4.2-4.2,8.7-6.4,13
				C412.3,636.4,417,637.6,422.3,637.4z"/>
		</g>
	</g>
	<g>
		<g>
			<path fill="#A29484" d="M233.1,427.2c-3.8,7.6-0.3,16.6,2.4,24.7s4.1,18.3-2.3,23.9c-2.6,2.2-5.9,3.2-9.2,4.3
				c-25.6,8.3-49.1,23.2-67.5,42.9c14.3-16.3,34.7-25.7,54.5-34.5c7.9-3.5,15.7-7,23.6-10.5c0.8-0.4,1.7-0.8,2.6-0.8
				c3-0.2,5.2,3,5.4,5.9c0.3,3-0.7,5.9-0.8,8.8c-0.3,8.5,6,15.5,9.3,23.3c5.3,12.3,2.8,26.4,3.2,39.8c1.5,52.7,46.8,93.3,62.2,143.7
				c3.1,10.1,5,20.6,9.9,29.9c9.5,18,29.6,30.1,34.4,49.8c1.5,6,1.4,12.2,1.6,18.4c0.6,19.1,3.8,38,9.6,56.2
				c-4.3-23-8.7-46.1-13-69.1c-1.2-6.2-2.4-12.6-5.5-18.1c-3.3-5.7-8.4-10.1-12.8-15c-24.8-27.4-26.9-68.5-45.7-100.3
				c-5.1-8.6-11.4-16.5-15.7-25.5c-4.5-9.5-6.6-19.8-8.6-30.1c-2.1-10.3-4.1-20.6-6.2-30.9c-7.5-37.5-15-75-22.5-112.5
				c-4.7-23.7-9.5-47.6-8.9-71.7c-0.1,17.1-0.1,34.2-0.2,51.3"/>
		</g>
		<g>
			<g>
				<path fill="#A29484" d="M232.5,426.9c-4.6,10.5,1.7,20.2,3.8,30.4c1.4,6.5,1.4,14.4-4.7,18.7c-5,3.5-12.3,4.7-18,7
					c-21.9,8.8-41.6,22.3-57.7,39.4c0.3,0.3,0.6,0.6,0.9,0.9c11.3-12.6,25.9-21.1,41-28.3c7.7-3.7,15.6-7.1,23.4-10.6
					c4.3-1.9,8.8-4.6,13.3-5.9c10.8-3.2,6.2,10.5,6.7,15.5c0.6,6.8,5,12.4,8,18.4c4.5,8.9,4.8,18.5,4.6,28.2
					c-0.3,15.2,0.5,29.4,5.2,43.9c9.1,28.2,27,52.5,41.1,78.3c7.6,13.9,13.8,28.1,17.9,43.4c2.1,7.9,4.2,15.9,8.2,23.1
					c3.1,5.7,7.2,10.8,11.5,15.7c5.6,6.4,11.6,12.5,16.3,19.7c5.5,8.5,7.4,17.3,7.7,27.3c0.6,20.8,3.5,41.1,9.8,61
					c0.2,0.8,1.4,0.5,1.2-0.3c-3.2-17.3-6.5-34.5-9.7-51.8c-2.7-14.5-3.6-30.7-13.8-42.2c-5-5.7-10.5-10.8-14.8-17.1
					c-3.8-5.5-7-11.5-9.7-17.6c-5.7-12.7-9.7-26.2-14.2-39.3c-4.3-12.7-9.1-25.3-16.3-36.7c-4.2-6.7-9-13.1-12.8-20.1
					c-4.2-7.8-6.6-16.3-8.5-24.9c-7.5-34.2-13.8-68.7-20.6-103.1c-3.9-19.7-7.9-39.4-11.8-59.1c-3.9-20.1-7.2-40.4-6.8-60.9
					c-0.4,0-0.8,0-1.2,0c-0.1,17.1-0.1,34.2-0.2,51.3c0,0.8,1.2,0.8,1.2,0c0.1-17.1,0.1-34.2,0.2-51.3c0-0.8-1.2-0.8-1.2,0
					c-0.6,34.7,8.4,69.1,15.1,102.9c7,35.2,14.1,70.4,21.1,105.6c3.2,15.9,6.1,31.5,14.7,45.5c4.1,6.6,8.8,12.9,12.5,19.7
					c3.6,6.4,6.5,13.1,9.1,19.9c9.4,24.7,14.8,51.9,31.3,73.2c5.2,6.7,12.4,12.1,16.6,19.5c4.7,8.2,5.6,18.4,7.3,27.6
					c3.7,19.8,7.5,39.7,11.2,59.5c0.4-0.1,0.8-0.2,1.2-0.3c-6.2-19.8-9.1-40-9.7-60.7c-0.2-7.6-1.1-15-4.4-21.9
					c-3-6.2-7.3-11.6-11.8-16.8c-5.2-5.9-10.7-11.6-15.3-18c-5.5-7.6-8.6-16.2-11.1-25.1c-4.3-15.4-9.6-29.8-17-43.9
					c-14.7-27.8-34.5-53.6-43.8-84.1c-2.4-7.9-4-16.1-4.5-24.4c-0.5-8.9,0.5-17.9,0-26.8c-0.4-8-2.4-15.1-6.3-22
					c-2.1-3.9-4.6-7.7-5.7-12c-1.3-4.9,0.8-9.3,0.2-14.1c-0.3-2.2-1.4-4.7-3.5-5.8c-2.5-1.3-4.9,0-7.3,1.1c-10,4.5-20,8.9-30,13.4
					c-17,7.8-33.8,16.7-46.5,30.9c-0.5,0.6,0.3,1.5,0.9,0.9c17.9-18.9,40.2-33.5,64.9-41.9c8.6-2.9,15.9-5.7,16.5-16
					c0.8-12.9-10.2-25.2-4.7-37.9C233.9,426.8,232.9,426.1,232.5,426.9L232.5,426.9z"/>
			</g>
		</g>
	</g>
	<g>
		<g>
			<path fill="#ADA08E" d="M289.9,642.9c-11.7,34.8-34.8,65-65.3,85.4c-0.6,0.4-0.2,1.3,0.5,1.1c17.2-4.9,30.2-17.9,39.1-33
				c5.1-8.7,9-18,12.5-27.4c3.8-9.9,8.4-20.2,8.1-31c-0.4,0.1-0.8,0.2-1.2,0.3c1.1,2.2,2.5,4.5,3.3,6.8c0.9,2.7,0.9,3-0.5,5.5
				c-2.3,3.9-5.6,7.5-8,11.3c-5.1,7.8-9.5,16-13.6,24.3c-4.1,8.4-7.9,16.9-11.6,25.4c-3,6.9-6.6,14.4-5.6,22.2
				c1.8,13.6,16.2,19.6,26.5,25.8c15.9,9.6,27.4,24.3,38.6,38.7c0.3,0.3,0.8,0.2,1-0.1c4.9-8.4-8.7-12-13.7-14.7
				c-10.5-5.7-19.6-13.7-27.8-22.3c-3.8-4-7.5-8.1-11.1-12.3c-4.1-4.7-8.5-9.4-11.3-15c-6.8-13.8,4.6-23.2,10.7-34.3
				c0.4-0.7-0.7-1.3-1.1-0.6c-4.2,7.8-11.7,14.5-13,23.6c-1.2,8.6,4.3,16,9.5,22.3c12.5,14.9,26,30.4,43.4,39.8
				c2.4,1.3,4.9,2.3,7.3,3.4c1,0.4,2,0.8,2.8,1.4c1,0.9,2,1.8,3.1,2.7c0,1.3,0,2.7,0,4c-0.5,0.1-4.8-6.1-5.2-6.7
				c-1.8-2.2-3.5-4.4-5.4-6.6c-6.5-7.7-13.7-15.1-21.9-20.9c-7.6-5.4-16.7-9-23.7-15.3c-10.2-9.1-8.1-20.7-3.2-32.2
				c9.9-23.1,20.4-46.4,36.4-66c0.2-0.2,0.2-0.5,0.1-0.8c-1.7-3.4-3.3-6.8-5-10.2c-0.3-0.6-1.2-0.3-1.2,0.3
				c0.3,10.4-4.2,20.3-7.8,29.8c-3.4,9-7.1,18-11.8,26.4c-8.8,15.5-21.7,29-39.2,34c0.2,0.4,0.3,0.8,0.5,1.1
				c30.8-20.6,54.1-51,65.9-86.1C291.4,642.5,290.2,642.1,289.9,642.9L289.9,642.9z"/>
		</g>
	</g>
	<g>
		<g>
			<path fill="#ADA08E" d="M320.8,652.8c6.7,1.1,11.8-4.1,14.1-10c3.4-8.7-0.9-20.3,7.2-26.9c-0.3-0.3-0.7-0.5-1-0.8
				c-3.5,5.6-6.5,11.1-8.2,17.5c-1.9,7.3-3.4,15.3-10.7,19.2c-0.7,0.4-0.1,1.5,0.6,1.1c5.1-2.8,7.8-7.6,9.5-13
				c1.2-4,1.9-8.2,3.4-12.1c1.6-4.3,4.1-8.2,6.5-12.1c0.4-0.6-0.5-1.2-1-0.8c-4.1,3.3-5.3,8.2-5.7,13.3c-0.6,8.4-1.5,25.5-14.5,23.3
				C320.3,651.5,320,652.7,320.8,652.8L320.8,652.8z"/>
		</g>
	</g>
	<g>
		<g>
			<path fill="#ADA08E" d="M250.1,483.2c3.4,12.4,12.9,18.5,23.4,24.9c12.8,7.8,25.5,15.6,38.3,23.4c3.5,2.1,7.8,6,12.3,4.8
				c2.9-0.8,5-3.3,8.1-4c4-1,8.3,0,12.2,1c6.7,1.8,13.4,3.8,20.1,5.6c6.4,1.8,16,2.8,19.8,8.9c0.3-0.3,0.6-0.6,0.9-0.9
				c-11-5.6-22.5-13.2-34.7-15.7c-11.8-2.5-23,2.1-33.7,6.8c-0.7,0.3-0.2,1.3,0.5,1.1c8.1-2.1,15.2-2.2,22.7,1.6
				c5.4,2.7,10.6,5.5,16.2,7.7c11.8,4.8,24.2,7.8,36.9,9.3c0.7,0.1,0.8-1.1,0.2-1.2c-7.7-2-15.4-4-23-6c-7.4-1.9-15.4-3.4-22.3-6.8
				c-5.2-2.5-9.8-6.6-15.6-7.8c-5.3-1.1-10.6,0-15.3,2.7c-0.4,0.3-0.4,0.8,0,1.1c6.3,4.5,12.5,9,18.8,13.5c4.7,3.4,8.6,5,14.4,3.4
				c3.2-0.9,6.1-2.4,9.3-3.2c3.7-0.9,7.4-0.8,11.1-0.4c6,0.5,11.7,1.3,17.2-1.7c0.5-0.3,0.3-1.2-0.3-1.2c-16,1-31.9,2.1-47.9,3.1
				c-0.6,0-0.9,0.9-0.3,1.2c14.7,7.1,28.1,16.5,39.7,28.1c0.2-0.3,0.4-0.7,0.6-1c-10.2-1.7-16.5-10.2-23.7-16.8
				c-6.7-6.1-14.4-10.7-22.9-14c-0.4-0.1-0.8,0.2-0.8,0.6c0.4,7.8,5.3,14.1,8.5,21c4,8.5,6.5,17.5,7.8,26.7c0.3-0.2,0.7-0.4,1-0.6
				c-5.7-6.1-5.5-14.7-7.2-22.3c-1.5-6.7-3.9-13.3-7.4-19.3c-3.1-5.2-7.1-10-12-13.6c-6.8-5.1-14.3-8.3-20.7-14.2
				c-5.1-4.7-10-9.6-16-13.2c-6.1-3.7-13-6.5-18.5-11.2c-6-5.1-8.3-12.6-12.9-18.8c-2-2.7-4.2-5.3-6.2-8c-1.1-1.5-2.1-3.1-2.9-4.8
				c-0.6-1.2-1-2.4-1.4-3.7c-0.5-1.4-0.4-2.7,0.5-4c0.4,0.7,1.5,0.1,1.1-0.6c-0.1-0.2-0.2-0.3-0.3-0.5c-0.1-0.2-0.3-0.3-0.5-0.3
				c-7.6,1,3.4,16,5.1,18.2c2,2.6,4.2,5.2,6,8c2,3,3.3,6.4,5.3,9.5c2.8,4.4,6.9,7.6,11.3,10.3c5.2,3.2,10.8,5.6,15.8,9.1
				c6.2,4.3,11.1,10.1,16.9,14.8c5.5,4.5,12.2,7,17.7,11.5c5.2,4.2,9.3,9.7,12.3,15.7c3.4,6.8,5.3,14.1,6.5,21.5
				c1,6.2,2,12.3,6.5,17c0.5,0.5,1.1,0,1-0.6c-1.2-8.8-3.5-17.3-7.2-25.4c-1.9-4.3-4.4-8.2-6.4-12.4c-0.6-1.2-3.6-6.7-1.8-8.3
				c0.4-0.4,5.8,2.6,6.7,3.1c8,4.2,14.2,10.1,20.6,16.4c5.1,5,10.5,9.5,17.7,10.7c0.6,0.1,1.1-0.6,0.6-1
				c-11.7-11.6-25.1-21.1-39.9-28.3c-0.1,0.4-0.2,0.8-0.3,1.2c16-1,31.9-2.1,47.9-3.1c-0.1-0.4-0.2-0.8-0.3-1.2
				c-6.3,3.5-13.1,1.6-19.9,1.3c-5.2-0.2-9.5,1.2-14.4,2.9c-4,1.4-7.7,2.5-11.8,0.7c-3.1-1.3-5.8-3.7-8.5-5.6
				c-2.5-1.8-5-3.6-7.5-5.4c-1.4-1-3.2-2.1-4.5-3.2c-1.5-1.4-2.3-1.1-0.3-2.4c6-3.9,14.6-0.9,20.1,2.4c4.6,2.7,8.9,5.1,14,6.7
				c12.6,4,25.7,6.8,38.6,10.2c0.1-0.4,0.1-0.8,0.2-1.2c-14.9-1.8-29.4-5.7-43-12c-5.2-2.4-10.1-5.9-15.6-7.4
				c-5.8-1.6-11.8-0.6-17.5,0.9c0.2,0.4,0.3,0.8,0.5,1.1c11.5-5,23.4-9.6,36-5.8c10.9,3.2,21.1,9.6,31.1,14.8
				c0.5,0.3,1.2-0.3,0.9-0.9c-2.2-3.5-5.5-5.1-9.3-6.3c-6.5-2.1-13.1-3.7-19.6-5.5c-6-1.7-12.1-4-18.3-4.6c-2.1-0.2-4.3-0.2-6.4,0.3
				c-2.6,0.7-4.4,2.8-6.9,3.5c-4.9,1.5-9.5-2.3-13.3-4.7c-3.1-1.9-6.1-3.7-9.2-5.6c-6.1-3.7-12.2-7.5-18.3-11.2
				c-12.8-7.8-28.4-14.5-32.8-30.2C251.1,482.1,249.9,482.4,250.1,483.2L250.1,483.2z"/>
		</g>
	</g>
	<g>
		<g>
			<path fill="#FFFFFF" d="M523.1,671.5c0.8,0,0.8-1.2,0-1.2C522.3,670.3,522.3,671.5,523.1,671.5L523.1,671.5z"/>
		</g>
	</g>
	<g>
		<path fill="#657F54" d="M233.4,722.5c-12.3-0.1-24.8-0.2-36.9,2s-24.1,6.9-33.2,15.2c-5.2,4.7-9.4,10.9-10,17.9
			c-0.4,4.2,0.6,8.4,1.3,12.6c2.2,13.5,0.8,27.5-3.9,40.3c7.3-2.6,14.5-5.1,21.8-7.7c15.7-5.5,31.7-11.2,44.4-21.9
			c12.7-10.7,21.4-27.7,17.7-43.9c-1.1-4.7-3.1-10.1-0.2-14.1"/>
	</g>
	<g>
		<path fill="#657F54" d="M506.8,723.7c-5.9-0.2-10.5,6-10.8,11.9c-0.3,5.9,2.4,11.6,5,16.9c3.7,7.4,7.3,14.8,11,22.2
			c3.9,7.9,8,16.9,5.4,25.4c7-3.5,11.4-11,12.9-18.7c1.5-7.7,0.4-15.7-1.1-23.4c-1.1-5.5-2.4-11-5.1-15.9
			c-4-7.2-10.8-12.4-17.3-17.3"/>
	</g>
	<g>
		<g>
			<path fill="#FFFFFF" d="M428.9,677.4c0.8,0,0.8-1.2,0-1.2C428.1,676.2,428.1,677.4,428.9,677.4L428.9,677.4z"/>
		</g>
	</g>
	<g>
		<g>
			<path fill="#FFFFFF" d="M387.9,574.9c0.8,0,0.8-1.2,0-1.2C387.1,573.7,387.1,574.9,387.9,574.9L387.9,574.9z"/>
		</g>
	</g>
	<g>
		<path fill="#59704B" d="M303.5,386c7.6-14.9,16.5-29.2,26.7-42.5c2.6-3.4,5.3-6.7,8.5-9.5c3.9-3.3,8.5-5.7,13.3-7.7
			c27.6-11.8,60.2-11.3,87.4,1.2c-7.2,18.1-24.1,31.1-42.5,37.4c-18.5,6.2-38.4,6.3-57.8,4.4c-5.4-0.5-10.9-1.2-16.2,0
			c-10.5,2.4-17.9,11.4-24.4,19.9"/>
	</g>
	<g>
		<path fill="#783035" d="M323.9,795c-4.1-4.3-11.9-3.2-15.9,1.2c-1.7,1.9-3,4.4-2.9,6.9c0.1,2.3,1.1,4.5,2.8,6.1
			c4.8,4.8,14.1,3.3,17.2-2.7c3.1-6-1.2-14.5-7.9-15.5"/>
	</g>
	<g>
		<path fill="#783035" d="M245.4,587.3c-1.7-2.8-5.9-3.7-8.7-2.1c-2.9,1.6-4.3,5.3-3.8,8.5c0.7,4.3,4.8,7.7,9.2,7.5
			c4.3-0.2,8.2-4.1,8.1-8.5c-0.1-4.3-4.3-8.1-8.6-7.7"/>
	</g>
	<g>
		<path fill="#783035" d="M282.2,577.9c-2.8-1.2-6.4,0.5-7.5,3.4c-1.1,2.9,0.3,6.4,2.9,8s6.1,1.5,8.8-0.2c1.1-0.7,2.1-1.6,2.5-2.8
			c0.9-2.4-0.4-5.2-2.5-6.7s-4.6-2.1-7.1-2.6"/>
	</g>
	<g>
		<path fill="#783035" d="M240.6,554.6c-2.9-2.8-8.1-1.4-10.7,1.6c-2.9,3.2-3.8,8.3-1.8,12.1c2,3.8,7.2,5.9,11.1,4
			c1.8-0.9,3.2-2.4,4.4-3.9c1.5-2,2.8-4.2,3-6.7c0.2-4.4-4.5-8.4-8.8-7.4"/>
	</g>
	<g>
		<path fill="#783035" d="M204.2,554.4c-2.8-2.7-7.4-3.2-10.7-1.1s-4.8,6.5-3.5,10.2c0.9,2.5,2.8,4.4,4.8,6.1c2.3,1.9,5.3,3.8,8,2.6
			c1.6-0.7,2.6-2.1,3.5-3.6c1.2-2.2,2.2-4.5,2.2-7c0-2.5-1.3-5.1-3.5-6.1"/>
	</g>
	<g>
		<g>
			<path fill="#FFFFFF" d="M274.2,499.9c0.8,0,0.8-1.2,0-1.2C273.4,498.6,273.4,499.9,274.2,499.9L274.2,499.9z"/>
		</g>
	</g>
	<g>
		<path fill="#783035" d="M274.2,499.3c-2.8-1.3-6-2-9.1-1.3c-3,0.7-5.8,2.8-6.8,5.7c-1.1,3.2,0,6.7,2,9.4c1.9,2.5,4.9,4.5,8,4.2
			c4.9-0.4,7.6-5.8,9.3-10.4c0.6-1.5,1.1-3.3,0.3-4.7c-1.2-2.2-5.2-2.8-5-5.4"/>
	</g>
	<g>
		<path fill="#783035" d="M218.5,394.2c-2.9-4.1-9.8-4.3-13-0.4c-3.2,3.9-1.7,10.6,2.8,12.7c4.5,2.1,10.7-1,11.6-5.9
			c0.3-1.6,0.1-3.3,0-5c0-0.8-0.1-1.6-0.5-2.3c-1.5-2.1-4.9,0.2-7.4-0.3"/>
	</g>
	<g>
		<path fill="#6F2A32" d="M311.5,478.8c0.8-2.3-0.3-4.9-2.3-6.3s-4.6-1.6-6.9-0.8c-3.1,1.1-5.5,3.9-6,7.1c-0.5,3.2,0.8,6.7,3.3,8.7
			c3.5,2.8,9.3,2.4,12-1.2c2.7-3.5,1.3-9.6-2.9-11.2"/>
	</g>
	<g>
		<path fill="#783035" d="M372.5,524.3c-1-1.8-2.5-3.4-4.4-4.2s-4.3-0.6-5.9,0.8c-0.9,0.8-1.4,1.8-2,2.9c-1.2,2.3-2.4,5-1.3,7.4
			c0.6,1.3,1.8,2.2,3.1,2.7c3.7,1.6,8.7,0.1,10.4-3.6c1.7-3.7-1-8.8-5.1-9"/>
	</g>
	<g>
		<path fill="#783035" d="M245.9,542.9c-1.5-2.5-5.1-3.2-7.8-2s-4.5,3.9-5.4,6.6c-0.5,1.4-0.8,2.9-0.3,4.3c0.8,2.4,3.5,3.5,5.9,4.2
			c1.5,0.4,3.1,0.9,4.6,0.6c3.1-0.5,5.3-3.6,5.2-6.7s-2-5.9-4.5-7.7"/>
	</g>
	<g>
		<g>
			<path fill="#657F54" d="M504.6,818.2c13.4,3,27.7,1.5,40.2-4.2c11.6-5.3,21.9-14.8,24.8-27.2c0.9-3.8,1.1-7.8,1.5-11.7
				c0.8-7.2,2.6-14.4,5.2-21.2c-18.2-8.5-42-2.6-54.1,13.5c-3.7,4.9-6.3,10.4-8.9,15.9c-1.9,4-3.8,8-5.7,12.1
				c-1.3,2.7-2.6,5.5-2.7,8.5c-0.1,2.7,0.8,5.4,0.9,8.2c0.1,2.7-1.1,5.9-3.7,6.7"/>
		</g>
		<g>
			<path fill="#617F4D" d="M571.7,774.8c0.8-6.9,2.4-13.7,4.8-20.2c-2.8,0.7-5.5,1.6-8,2.8c-6.6,3.1-11.2,8.6-15.6,14.2
				c-7.6,9.7-15.3,19.3-24.7,27.3c-6.9,5.9-14.5,10.9-22.1,15.8c-0.5,1.7-1.6,3.3-3.3,3.8l2.4-0.6c13.4,3,27.7,1.5,40.2-4.2
				c11.6-5.3,21.9-14.8,24.8-27.2C571.1,782.7,571.3,778.7,571.7,774.8z"/>
		</g>
	</g>
	<g>
		<g>
			<path fill="#6C895C" d="M518.2,739.4c-6.8-0.6-13.5,2.7-18.4,7.5c-4.8,4.8-8,11-10.5,17.4c-2.5,6.3-4.3,13-4,19.8
				c0.3,5.2,1.8,10.3,2.5,15.5s0.1,10.9-3.2,15c9.7,2.2,20.1-0.2,28.4-5.5c8.3-5.4,14.7-13.5,19-22.4c2.6-5.5,4.6-11.4,4.3-17.5
				c-0.6-12.5-10.4-22.4-19.6-31"/>
		</g>
		<g>
			<path fill="#678056" d="M486,812.7c23-11.7,36.4-43,33.7-69.6c-0.7-0.7-1.5-1.5-2.3-2.2c-6.8-0.5-13.4,2.7-18.3,7.5
				c-4.8,4.8-8,11-10.5,17.4c-2.5,6.3-4.3,13-4,19.8c0.3,5.2,1.8,10.3,2.5,15.5C487.6,805,487.5,809.2,486,812.7z"/>
		</g>
	</g>
	<g>
		<g>
			<path fill="#ADA08E" d="M291.2,644.3c9.7,4.1,19.7,8.1,30.3,9.4c10.3,1.2,18.5-1.4,27.7-5.6c11.2-5.1,22.2-2.4,33.9-2
				c8.2,0.3,16.4-0.9,22.7-6.4c0.5-0.5-0.2-1.4-0.8-1c-8.7,5.6-18.8,8.5-29.1,7.9c-4.9-0.3-9.6-2.1-14.6-2.3
				c-4.4-0.2-7.3,1.6-10.9,4c-17.3,11.2-38.9,5.2-57.1-0.5c-0.1,0.4-0.1,0.8-0.2,1.2c31.6,4.2,62.9,21.9,95.3,13.4
				c0.7-0.2,0.6-1.3-0.2-1.2c-17.8,1.6-35.6,0.7-53.2-2.6c-0.1,0.4-0.1,0.8-0.2,1.2c20,0.9,37.4,12,57,15.1
				c14,2.2,29.5,0.3,39.3-10.8c0.5-0.5-0.1-1.3-0.8-1c-16.9,8.2-35.9,10.7-54.3,6.9c-0.1,0.4-0.2,0.8-0.3,1.2
				c19,3.4,38.4,7.8,57.6,9c18,1.1,33.2-6.5,48.5-15.1c-0.2-0.4-0.4-0.7-0.6-1.1c-11.1,6.3-22.6,12.7-35.7,13.6
				c-13.6,1-27.7-2.2-41.1-4.4c-25.9-4.3-51.5-10.1-76.8-17.3c-0.8-0.2-1.1,0.9-0.3,1.2c9.9,3.9,11.4,16.1,14.3,25
				c2.9,9.1,7.7,17.6,14.1,24.8c5.5,6.2,12.9,12.8,21.7,13.3c5.9,0.3,11.6-2.1,17.4-2.6c7-0.6,14,0.7,20.5,3.4
				c0.2-0.4,0.3-0.8,0.5-1.1c-18.5-3.9-37.4-5.4-56.3-4.3c0.1,0.4,0.2,0.8,0.3,1.2c1.8-0.9,5.4,0.8,6.4,2.4c1.1,1.8,1.3,3.5,0.9,5.4
				c-0.5,2.8-2.4,5.3-4.1,7.5c-2.3,3.1-4.6,6.2-5.5,10c-1.5,6.3,0.1,12.9,4.9,17.3c0.6,0.5,1.5-0.3,0.9-0.9
				c-5.1-4.7-6.3-12.1-3.7-18.5c2-5.1,6.8-8.7,8.5-13.9c1.7-5.3-2.6-13.8-8.9-10.5c-0.5,0.3-0.3,1.2,0.3,1.2
				c18.8-1.1,37.6,0.3,56,4.2c0.6,0.1,1.2-0.8,0.5-1.1c-10-4.3-19.5-4.2-30-2c-7.4,1.6-13.6,1-19.9-3.3c-5.2-3.5-9.7-8.4-13.4-13.5
				c-6.4-8.7-9.3-18.3-12.5-28.5c-2.2-7-5.2-13.9-12.5-16.7c-0.1,0.4-0.2,0.8-0.3,1.2c27.2,7.6,54.7,13.8,82.6,18.2
				c12.8,2,26.5,5,39.4,3.1c11.8-1.7,22.3-7.6,32.5-13.4c0.7-0.4,0.1-1.5-0.6-1.1c-15.8,8.9-31.2,16.3-49.8,14.8
				c-18.5-1.5-37.1-5.5-55.4-8.8c-0.8-0.1-1.1,1-0.3,1.2c18.8,3.8,38,1.4,55.3-7c-0.3-0.3-0.5-0.7-0.8-1
				c-11.2,12.8-29.8,13-45.1,9.1c-16.9-4.3-32.6-12.8-50.3-13.7c-0.7,0-0.9,1.1-0.2,1.2c17.7,3.3,35.6,4.2,53.5,2.6
				c-0.1-0.4-0.1-0.8-0.2-1.2c-32.2,8.4-63.6-9.3-95-13.5c-0.7-0.1-0.8,1-0.2,1.2c16.9,5.3,37,11.1,53.9,2.7c2.1-1.1,4-2.5,6.1-3.7
				c3.8-2.3,7.4-2.8,11.8-2c4.9,0.9,9.4,2,14.4,1.9c9.5-0.1,18.6-3,26.5-8.2c-0.3-0.3-0.5-0.7-0.8-1c-15.2,13.3-37.4,0.2-54.7,7.5
				c-4.2,1.8-8.1,4.1-12.5,5.3c-5,1.4-10.2,1.5-15.4,1c-10.7-1.1-21-5.3-30.8-9.5C290.8,642.8,290.5,644,291.2,644.3L291.2,644.3z"
				/>
		</g>
	</g>
	<g>
		<g>
			<path fill="#ADA08E" d="M349.5,766.8c6.2,16.1,21.8,23.2,38.3,21.1c12-1.5,22.7-1.8,34.4,1.8c11.3,3.5,21.8,9.2,32.2,14.9
				c0.5,0.3,1.1-0.2,0.9-0.7c-2.1-7.1-12.4-11-18.4-13.9c-8.5-4.2-17.6-7.5-27.1-8.6c-4.5-0.5-9-0.5-13.5,0.2
				c-5.9,0.9-11.5,3.5-17.4,3.9c-11.9,0.7-21.9-7.8-30.2-15.1c-0.6-0.5-1.5,0.4-0.9,0.9c6.3,5.5,12.9,11.1,20.8,13.9
				c9.5,3.4,17.1-0.4,26.4-2c10.5-1.9,21.2-0.1,31.2,3.6c5.1,1.9,10,4.2,14.8,6.8c4.6,2.5,11.6,5.4,13.2,10.8
				c0.3-0.2,0.6-0.5,0.9-0.7c-16.4-9-34-18.5-53.2-18.3c-9.8,0.1-19.5,3.6-29.3,1c-10-2.7-18.1-10.1-21.8-19.7
				C350.4,765.7,349.2,766,349.5,766.8L349.5,766.8z"/>
		</g>
	</g>
	<g>
		<g>
			<path fill="#ADA08E" d="M366.6,820.5c17.9,0.9,35.8,1.8,53.7,2.6c7.4,0.3,14.9,0.6,22-1.8c7.7-2.6,14.9-8.5,23.4-6.1
				c0.7,0.2,1-0.7,0.5-1.1c-5.8-4.1-12.2-1.7-18,1.1c-9.5,4.4-18.7,5.6-29.1,4.8c-9.2-0.7-18.3-2.5-27.5-2.6
				c-9.1-0.1-18.1,1.3-26.8,4c-0.8,0.2-0.4,1.4,0.3,1.2c8.6-2.7,17.4-4.1,26.4-4c8.6,0.1,17.2,1.6,25.8,2.4
				c7.5,0.7,15.3,0.9,22.6-1.2c8.1-2.3,17.3-10.5,25.6-4.6c0.2-0.4,0.3-0.8,0.5-1.1c-6-1.7-11.3,0.5-16.8,3
				c-9.1,4.1-17.2,5.4-27.1,5c-18.5-0.8-37-1.8-55.4-2.7C365.8,819.2,365.8,820.5,366.6,820.5L366.6,820.5z"/>
		</g>
	</g>
	<g>
		<g>
			<path fill="#ADA08E" d="M357,774.2c2.1,5.9,5.8,10.7,9.8,15.4c5.2,6.1,10.4,12.2,15.6,18.3c9.8,11.5,19.4,23.3,29.7,34.3
				c18.1,19.3,40.9,36.5,68.4,37c0-0.4,0-0.8,0-1.2c-14.5,1.9-28.6-7.5-40.3-15c-11.2-7.2-21.7-15.6-31.2-24.9
				c-20.4-19.9-35.8-44.5-52.3-67.6c-0.5-0.6-1.5,0-1.1,0.6c17.2,24.1,33.4,49.8,55,70.2c9.8,9.2,20.5,17.5,31.9,24.6
				c11.2,7,24.3,15.2,38.1,13.4c0.8-0.1,0.8-1.2,0-1.2c-27.9-0.5-50.6-18.4-68.8-38c-9.2-10-17.8-20.5-26.6-30.8
				c-4.6-5.4-9.2-10.8-13.8-16.1c-5.1-5.9-10.5-11.7-13.1-19.2C357.9,773.2,356.7,773.5,357,774.2L357,774.2z"/>
		</g>
	</g>
	<g>
		<g>
			<path fill="#C0B3A9" d="M350.2,764.6c3.4,7.8,4.9,16.2,4.1,24.7c-0.8,8.3-4,16.1-7.1,23.8c-4.8,11.9-9,25-3.1,37.2
				c0.4-0.2,0.7-0.4,1.1-0.6c-5.3-7.1-1.3-16.2,1.4-23.5c2.8-7.7,6-15.4,8.2-23.2c1.8-6.5,1.1-12.7,0.1-19.3
				c-0.7-4.4-1.3-8.7-2-13.1c-0.3-2.3-0.1-5.8-2-7.4c-0.2-0.2-0.5-0.3-0.8-0.1c-0.7,0.4-0.7,0.5-0.8,1.3c0,0.3,0.2,0.5,0.5,0.6
				c0.1,0,0.2,0.1,0.4,0.1c0.8,0.3,1.1-0.9,0.3-1.2c0.9,0.3,1.8,11.4,2,12.5c0.6,3.7,1.2,7.4,1.7,11c1.3,9.7-1.3,17.4-4.5,26.3
				c-2.6,7.2-5.8,14.5-7.5,21.9c-1.2,5.1-1.2,10.2,2,14.5c0.5,0.6,1.4,0.1,1.1-0.6c-7.5-15.7,2.1-31.7,7.2-46.4
				c4.5-13.1,4.5-26.5-1.1-39.3C351,763.2,349.9,763.8,350.2,764.6L350.2,764.6z"/>
		</g>
	</g>
	<g>
		<g>
			<path fill="#ADA08E" d="M463.4,843.4c7.4-1.3,13.7-5.5,18.1-11.6c2.2-3.1,3.9-6.6,4.9-10.3c1.4-5.3,1.5-10.8,4.2-15.8
				c-0.4-0.2-0.8-0.3-1.1-0.5c-2.8,7.6-5.6,15.2-8.4,22.8c-1.3,3.5-2.3,8-4.3,11.1c-3,4.7-8.1,4.3-12.8,3.9c0.1,0.4,0.1,0.8,0.2,1.2
				c10.6-2.7,19.2-8,27.2-15.2c4.8-4.3,9.4-7.2,15.8-8.5c4.1-0.8,8-1.5,11.1-4.4c0.3-0.3,0.2-0.9-0.3-1
				c-10.7-2.2-19.3,4.8-26.6,11.7c-4.8,4.6-9.6,9.4-16,11.8c-4.9,1.8-10.1,2.2-14.5,5.2c-0.7,0.5-0.1,1.4,0.6,1.1
				c9.8-4.4,19.6-9.3,29.6-13c9.7-3.6,19.8-2.6,28.6,3c0.2-0.4,0.4-0.7,0.6-1.1c-8.7-5.5-19.3-6-28.9-3c-12.7,3.9-25.1,16.3-39.1,10
				c-0.7-0.3-1.4,0.7-0.6,1.1c10.2,4.6,20.1-0.3,29.3-5.1c12.3-6.4,26.3-9.8,38.8-1.9c0.7,0.4,1.3-0.6,0.6-1.1
				c-19.8-12.6-40.9,1.8-59.5,10c0.2,0.4,0.4,0.7,0.6,1.1c4.3-3,9.4-3.3,14.2-5.1c3.8-1.4,7.1-3.7,10.2-6.2
				c3.6-3.1,6.9-6.6,10.5-9.7c2.3-2,4.8-3.9,7.5-5.3c1.7-0.9,8.8-4.3,10.7-2.8c2.2,1.7-3.7,2.7-4.9,3c-2.1,0.5-4.3,0.7-6.4,1.3
				c-3.7,1-6.8,3-9.7,5.4c-4.5,3.6-8.4,7.7-13.4,10.7c-5.1,3.1-10.6,5.3-16.3,6.8c-0.7,0.2-0.5,1.2,0.2,1.2
				c6.9,0.7,12.3-0.2,15.1-7.1c4.1-10.4,7.8-21.1,11.7-31.6c0.2-0.7-0.8-1.1-1.1-0.5c-3.8,7-3.1,15.4-6.9,22.5
				c-4.1,7.6-11.1,13.1-19.6,14.6C462.3,842.3,462.6,843.5,463.4,843.4L463.4,843.4z"/>
		</g>
	</g>
	<g>
		<g>
			<path fill="#59704B" d="M374.3,626.6c8.4-7.2,21.3-8.7,27.4-17.8c4.9-7.2,3.8-16.8,2.4-25.5c-1.1-7-2.1-14-4.8-20.6
				c-2.6-6.3-6.6-13.8-2.5-19.3c-7.7,11.6-20.5,19-29,30.1c-10.1,13.2-13.1,31.5-7.8,47.3c2,5.9,5.1,11.6,5,17.8"/>
		</g>
		<g>
			<path fill="#60794D" d="M369,634.2c5.4-10.7,13.1-20.9,17.9-32.3c5.2-12.2,3.9-24.7,4.6-37.6c0.3-4.6,1.1-8.8,2.5-12.7
				c0.1-1.9,0.5-3.6,1.7-5.2c-7.7,11.6-20.5,19-29,30.1c-10.1,13.2-13.1,31.5-7.8,47.3c2,5.9,5.1,11.6,5,17.8c0,1.3-0.2,2.6-0.4,3.9
				C364.9,641.4,366.6,637.5,369,634.2z"/>
		</g>
	</g>
	<g>
		<g>
			<path fill="#576D45" d="M335.5,632.9c4.1-5.4,8.3-10.8,13.5-15.1c5.1-4.1,11-7.2,15.9-11.4c4.9-4.3,9-10.3,8.5-16.9
				c-0.2-2.7-1.2-5.3-1.6-8c-0.4-2.7-0.1-5.7,1.9-7.6c-5.8,3.7-12.6,5.9-19.5,6.3c-6.5,0.3-13-0.9-19.3,0.3
				c-11.8,2.2-21.2,13.8-20.9,25.8c0.3,12,10.2,23.1,22.1,24.8"/>
		</g>
		<g opacity="0.4">
			<g>
				<path fill="#536744" d="M339.7,602.6c6.5-6.8,15.6-8.8,23.2-13.8c5.6-3.7,8.3-8.3,9.6-13.5c-5.5,3.2-11.8,5.1-18.2,5.5
					c-6.5,0.3-13-0.9-19.3,0.3c-11.8,2.2-21.2,13.8-20.9,25.8c0.3,11.7,9.6,22.4,21,24.5C331.5,621.6,331.5,611.3,339.7,602.6z"/>
			</g>
		</g>
	</g>
	<g>
		<path fill="#783035" d="M468,792.5c-5-3.8-13.4-1.4-15.6,4.5c-2.1,5.9,2.7,13.2,9,13.5c1.4,0.1,2.7-0.2,4-0.7
			c3.6-1.6,5.7-5.5,6.3-9.4c0.4-2.4,0.2-5.1-1.3-7.1c-1.5-2-4.6-2.7-6.5-1.1"/>
	</g>
	<g>
		<path fill="#783035" d="M489.7,830.2c-0.3-1.1-1.2-2-2.1-2.7c-3.4-2.1-8.4-0.7-10.2,2.9s0,8.4,3.6,10.1s8.4-0.1,10.1-3.7
			c1.7-3.6,0.1-8.4-3.4-10.3"/>
	</g>
	<g>
		<path fill="#6C895C" d="M426.5,825.2c5.8,0.8,11.6,1.5,17.4,2.3c6.5,0.9,13.6,2.1,17.7,7.2c3.8,4.8,4.2,12.2,9.3,15.5
			c1.2,0.8,2.6,1.3,3.4,2.5c1.5,2.1,0.4,4.9,0.2,7.5c-0.2,3.2,1.5,6.5,4.2,8.3c-9.3-3.1-19.8,0.1-29.3-2.7
			c-8.1-2.4-14.6-9.5-16.3-17.7c-1.1-5.1-0.4-10.6-1.8-15.6s-6.1-10-11.2-8.8"/>
	</g>
	<g>
		<g>
			<path fill="#C0B3A9" d="M442.7,679.1c16,2.7,31.3-3.5,47.2-3.5c8.3,0,16.5,2.5,24.9,2c8.1-0.5,16.8-5.1,24.6-0.8
				c0.2-0.4,0.3-0.8,0.5-1.1c-9.7-2.6-19.5-2-29.4-1c-5.4,0.5-10.8,1.1-16.2,1.2c-5.7,0.1-11.1-0.8-16.8-1.5
				c-4.7-0.5-9.1-0.4-13.6,1c-4.7,1.4-9.1,3.9-14,4.7c-9.7,1.6-18.3-5.1-28-3.7c-0.6,0.1-0.6,1.1,0,1.2
				c23.8,4.4,39.1,25.5,60.3,35.4c0.2-0.4,0.3-0.8,0.5-1.1c-5.2-1.1-9.9-3.4-13.6-7.2c-3.3-3.4-5.4-7.7-8.6-11.2
				c-5.7-6.2-13.7-10.1-21.6-12.7c-9.3-3-19-4.3-28.6-5.8c-10.8-1.6-21.5-3.3-32.3-4.9c-0.7-0.1-1.1,0.7-0.5,1.1
				c5.1,3.3,10.3,6.6,14.9,10.6c5.2,4.4,9.1,9.8,13.2,15.2c5.5,7.2,12,13.8,21.5,14.9c0.7,0.1,0.8-1,0.2-1.2
				c-20.6-7-29.8-29.4-47.6-40.5c-0.7-0.4-1.3,0.7-0.6,1.1c17.9,11.2,27.2,33.6,47.9,40.6c0.1-0.4,0.1-0.8,0.2-1.2
				c-12.4-1.4-18.9-12.8-26-21.6c-6.3-7.9-14.5-13.5-22.9-18.9c-0.2,0.4-0.3,0.8-0.5,1.1c10.4,1.6,20.9,3.2,31.3,4.7
				c9.9,1.5,20,2.8,29.6,5.9c11,3.6,19.1,9.2,25.7,18.6c4.6,6.4,10.3,10.8,18.1,12.4c0.7,0.1,1.2-0.8,0.5-1.1
				c-21.3-10-36.7-31.1-60.6-35.5c0,0.4,0,0.8,0,1.2c9.1-1.3,17.2,4.9,26.4,4c4.4-0.4,8.5-2.3,12.6-3.8c5.8-2.1,11.1-2.7,17.3-1.9
				c10,1.2,19.3,1.4,29.4,0.4c10.7-1.1,21.3-2.2,31.8,0.7c0.7,0.2,1.1-0.8,0.5-1.1c-5.5-3.1-11.2-1.9-17.1-0.7
				c-9.6,2-17.9,0.5-27.5-0.4c-17.6-1.6-34.7,6.2-52.3,3.2C442.2,677.7,441.9,678.9,442.7,679.1L442.7,679.1z"/>
		</g>
	</g>
	<g>
		<path fill="#6F2A32" d="M310.1,799.7c-0.2-3,1.1-5.3,3.2-7c-1.8,0.7-3.5,1.7-4.9,3.2c-1.7,1.9-3,4.4-2.9,6.9
			c0.1,2.3,1.1,4.5,2.8,6.1c4.2,4.2,11.8,3.6,15.7-0.6C319.9,804.4,310.8,807.5,310.1,799.7z"/>
	</g>
	<g>
		<path fill="#6F2A32" d="M462.3,808.8c-3.3-1.8-5.3-5.1-5.8-8.8c-0.3-2,0.1-3.8,0.7-5.5c0-0.8,0.1-1.5,0.2-2.3
			c-2.1,1.1-3.8,2.8-4.6,5c-2.1,5.9,2.7,13.2,9,13.5c1.3,0.1,2.6-0.2,3.8-0.6C464.5,809.9,463.4,809.4,462.3,808.8z"/>
	</g>
	<g>
		<g>
			<path fill="#783035" d="M449.7,785.3c-1.5-2.2-5.1-2.4-7.1-0.6c-2,1.8-2.4,4.9-1.3,7.4s3.4,4.2,5.9,5.1c1.4,0.5,3,0.7,4.4,0.3
				c3.7-1.1,4.6-6.6,2.3-9.8s-6.5-4.3-10.4-4.4"/>
		</g>
		<g>
			<path fill="#6F2A32" d="M444.2,789.2c1.4-1.7,3.6-3.2,5-4.9c-0.5-0.2-1-0.3-1.5-0.5c-0.5-0.2-1-0.3-1.5-0.3
				c-0.9-0.1-1.8-0.2-2.7-0.3l1.2,0.4c-0.8,0.2-1.5,0.5-2.1,1c-2,1.8-2.4,4.9-1.3,7.4c0.4,0.9,1,1.7,1.7,2.4
				C442.4,792.8,442.7,791.1,444.2,789.2z"/>
		</g>
	</g>
	<g>
		<path fill="#6F2A32" d="M482.7,835.5c-1.5-2.3-0.4-6.5,1.1-8.7c-2.4,0.2-4.8,1.6-5.9,3.8c-1.8,3.5,0,8.4,3.6,10.1
			c2.8,1.3,6.2,0.5,8.4-1.5C487.1,838.9,484.1,837.6,482.7,835.5z"/>
	</g>
	<g>
		<g>
			<path fill="#59704B" d="M332.7,738.4c3.1-4.5,8.7-6.5,13.8-8.2c-1.2-14.7-15.7-25.9-30.4-27.1c-14.7-1.2-29.1,5.7-40.6,15
				c-7.2,5.8-13.6,12.8-17.3,21.2c-4.5,10.5-5.4,24-15,30c0,0.3,0.1,0.6,0.1,0.9c13.2,0.2,25.2,7.7,37.8,11.9
				c11.8,3.9,24.5,4.8,36.7,2.7c4.1-0.7,8.3-1.9,11.2-4.8C339.3,769.6,324.6,750.3,332.7,738.4z"/>
		</g>
		<g>
			<path fill="#657F54" d="M333.4,736.6c0.6-1,1.4-1.8,2.3-2.6c-31.1-1.4-57.6,29.6-86.9,37.1c11.1,1.7,21.5,7.8,32.3,11.3
				c11.8,3.8,24.6,4.6,36.9,2.3c4.1-0.8,8.4-2.1,11.3-5.1C339.6,768.8,325.1,749.1,333.4,736.6z"/>
		</g>
	</g>
	<g>
		<path fill="#60794D" d="M235.2,739.8c-1.1-4.7-3.1-10.1-0.2-14.1l-1-0.6c-0.9,0-1.8,0-2.7,0c-3.7,1.5-7.1,3.7-10.4,5.9
			c-5,3.3-10.2,6.6-14.9,10.3c-10.2,7.8-18.4,17.6-25.2,28.4c-9,14.3-17.3,29.2-28.7,41.3c-0.3,0.8-0.5,1.5-0.8,2.3
			c7.3-2.6,14.5-5.1,21.8-7.7c15.7-5.5,31.7-11.2,44.4-21.9C230.2,773,239,756,235.2,739.8z"/>
	</g>
	<g>
		<g>
			<path fill="#60794D" d="M346.4,835.9c-11.5-3.7-21.9,4.7-26.3,16c-3,7.8-1,16.6,2.5,24.2c3.5,7.6,8.4,14.5,11.6,22.2
				c3.2,7.7,4.5,16.8,0.7,24.2c9,1.7,18.2-3.7,23.6-11.2c5.4-7.5,7.7-16.6,10-25.5c1.1-4.4,2.2-8.8,3.3-13.2
				c1.3-5,2.5-10.4,0.5-15.2c-0.9-2.2-2.5-4.2-4.2-5.9C361.9,845,354.5,839.6,346.4,835.9"/>
		</g>
		<g opacity="0.36">
			<g>
				<path fill="#586E45" d="M369.2,885.4c1.1-4.4,2.2-8.8,3.3-13.2c1.3-5,2.5-10.4,0.5-15.2c-0.9-2.2-2.5-4.2-4.2-5.9
					c-6.1-6.6-13.5-11.9-21.7-15.6c-2.7-0.9-5.4-1-7.9-0.7c3.3,5.3,7,10.5,9.6,16.3c4.1,9.4,3.8,20.7,4,30.8
					c0.2,11.8-1.6,21.8-7.9,32c-1.8,3-3.9,5.8-6.1,8.6c7.9,0,15.5-4.9,20.3-11.5C364.6,903.5,367,894.3,369.2,885.4z"/>
			</g>
		</g>
	</g>
	<g>
		<path fill="#783035" d="M372.4,752.7c-1.9-2.3-5-3.6-8.1-3.3c-3.7,0.3-7,3.1-7.9,6.7c-0.9,3.6,0.7,7.6,3.8,9.5
			c3.2,1.9,7.6,1.3,10.1-1.4c1.6-1.7,2.3-4,2.9-6.3c0.6-2.6,0.3-6.1-2.3-6.6"/>
	</g>
	<g>
		<path fill="#6F2A32" d="M360.6,756.4c-0.9-2.6-0.2-4.8,1.3-6.4c-2.7,1-4.8,3.3-5.6,6.1c-0.9,3.6,0.7,7.6,3.8,9.5
			c3.2,1.9,7.6,1.3,10.1-1.4c1.2-1.3,2-3.1,2.5-4.8C368.3,761.1,362.4,761.8,360.6,756.4z"/>
	</g>
	<g>
		<path fill="#783035" d="M430.5,704.4c-4.2-1.7-9.5-0.5-12.1,3.2c-2.6,3.7-1.7,9.5,2.1,11.9c2.5,1.5,5.9,1.4,8.5,0.1
			c2.7-1.3,4.6-3.8,5.9-6.5c1.2-2.6,1.6-6.1-0.4-8.2c-2.2-2.3-5.8-1.8-8.9-1.1"/>
	</g>
	<g>
		<path fill="#6F2A32" d="M423.1,716.2c-0.6-0.5-0.7-1.6,0.2-2c1.8-0.6,3.3-1.6,5-2.2c-2.3-3.3-2.2-6.1-1.2-9
			c-0.3,0.1-0.6,0.1-0.8,0.2c-2.9,0.2-5.8,1.5-7.5,3.9c-2.6,3.7-1.7,9.5,2.1,11.9c1.7,1,3.8,1.3,5.8,1
			C425.6,718.6,424.5,717.4,423.1,716.2z"/>
	</g>
	<g opacity="0.35">
		<g>
			<path fill="#506143" d="M325.4,362.2c12.3-6.6,26.1-8.1,39.7-9.5c15.2-1.6,29.9-4.9,44-10.9c10-4.3,19.6-9.6,28.9-15.2
				c-26.9-11.9-58.8-12.1-85.9-0.6c-4.7,2-9.4,4.4-13.3,7.7c-3.2,2.8-5.9,6.1-8.5,9.5c-7,9.2-13.5,18.9-19.3,28.9
				C315.7,368.4,320.3,364.9,325.4,362.2z"/>
		</g>
	</g>
	<g>
		<g>
			<path fill="#657F54" d="M376.2,557.9c11.1-3.4,13-18.3,21-26.6c7.5-7.7,19.3-8.8,30-9.4c4.8-0.3,9.7-0.6,14.5,0.5
				c14,3.1,24,17.3,38.2,18.9c-5.2,13.4-19.5,21.6-33.8,23.5c-14.3,1.9-28.7-1.3-42.7-4.4c-8.7-2-17.5-3.9-26.2-5.9"/>
		</g>
		<g>
			<path fill="#59704B" d="M479,543.7L479,543.7c-14.1,4.7-29.4-1.5-43.8-0.8c-15.9,0.8-30.7,9.7-46.1,14.3
				c4.8,1.1,9.6,2.2,14.3,3.2c14,3.2,28.4,6.3,42.7,4.4C459.6,563.1,473.1,555.8,479,543.7z"/>
		</g>
	</g>
	<g>
		<g>
			<path fill="#C0B3A9" d="M235.2,384.1c14.4,8.7,26.4-11.4,40.7-8c7.7,1.8,14.6,9,20.8,13.7c8.6,6.6,15.5,13.8,12.7,25.5
				c0.4,0.1,0.8,0.1,1.2,0.2c-1-9.3,0.2-21-7.9-27.3c-8.9-6.9-19.8-11.6-30.6-14.6c-0.7-0.2-1,0.7-0.5,1.1
				c23.7,18,65.7,6.7,81.6,35.9c0.4,0.7,1.4,0.1,1.1-0.6c-3.7-8.6-11.9-13.5-20-17.5c-10.1-5-20.7-9-31.5-12
				c-10.7-2.9-22-5.3-33.1-5.6c-4.8-0.1-9.2,0.6-13.6,2.6c-7,3.2-13.1,5-20.4,1.4c-0.7-0.3-1.4,0.7-0.6,1.1
				c3.7,1.8,7.6,2.6,11.7,2.1c4.2-0.5,7.6-2.6,11.4-4.2c11.1-4.6,26-0.7,37.2,1.9c11.5,2.6,22.7,6.4,33.4,11.3
				c9.5,4.3,20.1,9.3,24.5,19.4c0.4-0.2,0.7-0.4,1.1-0.6c-16.2-29.5-58.2-18.2-82.1-36.3c-0.2,0.4-0.3,0.8-0.5,1.1
				c9.3,2.6,18.1,6.4,26.2,11.6c5.7,3.7,8.9,6.9,9.7,13.8c0.6,5.1,1.1,10.2,1.6,15.2c0.1,0.7,1.1,0.9,1.2,0.2
				c4.2-17.7-13.5-27.7-25.9-36.4c-6.4-4.5-12.9-6-20.3-2.9c-8.8,3.6-18.8,12.7-28.6,6.8C235.1,382.6,234.5,383.7,235.2,384.1
				L235.2,384.1z"/>
		</g>
	</g>
	<g>
		<path fill="#576D45" d="M231.2,436c-7.7-9.8-22.1-10.8-34.6-9.9c-12,0.9-24.5,2.8-34.5,9.6c-5,3.4-9.2,7.8-13.3,12.3
			c-6.3,6.7-12.5,13.4-18.8,20.1c16.4,6.4,34,10.7,51.5,8.5s34.6-11.9,42.5-27.5c2.6-5,4.3-10.8,8.5-14.5"/>
	</g>
	<g opacity="0.49">
		<g>
			<path fill="#4D5F3F" d="M170.1,461.9c13.9-6,24.2-16.8,37.3-23.9c6.2-3.3,12.7-5.3,19.3-6c-8.1-5.7-19.7-6.3-30-5.5
				c-12,0.9-24.5,2.8-34.5,9.6c-5,3.4-9.2,7.8-13.3,12.3c-5.6,6-11.2,12-16.8,18C144.8,469.2,158,467.1,170.1,461.9z"/>
		</g>
	</g>
	<g>
		<g>
			<path fill="#ADA08E" d="M185,499.4c-1.1,4.3-1.1,8.5,0.5,12.7c2,5,5.9,9,8.1,13.8c2.6,5.6,2,11.7,4.1,17.3
				c1.5,3.9,1.2,6.3-0.7,10c-1,1.9-1.9,3.7-2.4,5.8c-0.2,0.7,0.8,1.1,1.1,0.5c2.4-4.3,5.2-9.5,3.9-14.6c-0.8-2.9-2.9-5.1-3.9-8
				c-1-3-1.3-6.1-2.2-9.1c-2-6.2-5.8-11.6-7.1-18c-0.8-3.8-0.3-8.4-4.3-10.4c-0.7-0.4-1.3,0.7-0.6,1.1c4,2.1,3.7,10.5,5.1,14.3
				c1.7,4.6,4.2,8.8,5.7,13.4c1.2,3.7,1.4,7.8,3.1,11.3c1.4,2.9,3.4,5.2,3.2,8.7c-0.2,3.8-2.2,7.4-4,10.6c0.4,0.2,0.8,0.3,1.1,0.5
				c1-4,4.5-7.6,4.6-11.9c0-1.8-0.8-3.1-1.4-4.6c-1-3-0.9-6.2-1.5-9.4c-2.4-12.1-14.6-20.5-11.2-33.6
				C186.4,498.9,185.2,498.6,185,499.4L185,499.4z"/>
		</g>
	</g>
	<g>
		<g>
			<path fill="#ADA08E" d="M183.5,500.9c-3.6,14.6,11.3,25.9,20.9,34.3c5.6,4.9,12.1,8.6,17.7,13.4c3.2,2.8,5.3,5.8,6.5,9.9
				c0.7,2.5,1.3,4.6,3.4,6.3c0.5,0.4,1.4-0.1,1-0.8c-6.5-10.1-13.8-17.6-24.2-23.7c-6.2-3.7-10.6-8.4-14.5-14.4
				c-4.2-6.4-9.6-13.9-8.5-21.9c-0.4,0-0.8,0.1-1.1,0.1c6.4,10.5,13.1,21.3,22.9,28.9c4.3,3.3,9,5.7,14.1,7.3
				c7.8,2.5,16.8,4.1,20.5,12.4c0.4-0.2,0.7-0.4,1.1-0.6c-7.1-9.4-18-13.4-28.7-17.4c-13.4-5-30.1-12.8-29.8-29.5
				c-0.4,0.1-0.8,0.1-1.2,0.2c3.3,9.4,8.5,17.8,14.6,25.7c3.4,4.4,6.9,8.6,10.5,12.8c3.6,4.2,8.1,8.5,10.9,13.4
				c3.1,5.5,0,11.8,0.7,17.7c0.4,3.5,1.7,6.8,3.5,9.8c4.2,6.7,11,11.1,18.9,11.8c0.7,0.1,0.8-1,0.2-1.2
				c-14.7-4.2-25.1-17.8-25.2-33.1c-0.1-7-1.2-11.2-6.4-16c-5.9-5.4-12.4-10.2-19-14.8c-0.7-0.5-1.3,0.6-0.6,1.1
				c7.2,5,15.2,10.3,21,16.9c5.7,6.4,2.8,16.3,5.6,24.1c3.9,11.1,13,19.8,24.3,23.1c0.1-0.4,0.1-0.8,0.2-1.2
				c-10-0.9-18.7-8.6-20.8-18.5c-1.8-8.3,2.7-15.3-2.9-22.6c-12.2-16-27.3-29.6-34.2-49.1c-0.2-0.6-1.2-0.6-1.2,0.2
				c-0.2,12.1,9,20.9,19.1,26c13.5,6.7,29.9,8.9,39.5,21.6c0.5,0.6,1.4,0.1,1.1-0.6c-5.3-12.1-21.4-11.3-31.3-17.5
				c-11.7-7.3-19.3-19.6-26.3-31.1c-0.3-0.4-1.1-0.4-1.1,0.1c-0.9,5.9,1.4,10.9,4.3,16c3.2,5.6,6.7,11.3,11.3,15.9
				c5.1,5,11.9,7.5,17.4,12.1c5.8,4.8,10.3,10.9,14.3,17.1c0.3-0.3,0.7-0.5,1-0.8c-2.8-2.3-2.7-5.9-4.1-9c-0.8-1.8-1.9-3.4-3.2-4.8
				c-4-4.4-9.5-7.3-14.2-10.8c-5.8-4.4-11.1-9.5-16.3-14.5c-6.5-6.3-12.7-13.9-10.3-23.6C184.9,500.5,183.7,500.1,183.5,500.9
				L183.5,500.9z"/>
		</g>
	</g>
	<g>
		<g>
			<path fill="#C0B3A9" d="M272.3,513c0.8,0,0.8-1.3,0-1.3C271.5,511.8,271.5,513,272.3,513L272.3,513z"/>
		</g>
	</g>
	<g>
		<g>
			<path fill="#ADA08E" d="M271.8,512.1c-4.2,9.1-0.1,17.5,6.3,24.3c5.2,5.5,6.7,12.3,8,19.6c1.6,9,0.4,17.3-4.9,24.8
				c0.4,0.2,0.7,0.4,1.1,0.6c2.5-5.4,3.1-11,3-16.9c-0.2-5.9-0.3-12.5-2.2-18.2c-1.8-5.6-6.3-8.7-9.5-13.4c-4.5-6.7-0.5-14-1.3-21.3
				c-0.1-0.8-1.3-0.8-1.2,0c0.6,5.5-1.9,10.9-0.9,16.4c0.8,4.7,4.2,7.7,7.2,11.1c5.1,5.9,5.9,12.7,6.4,20.2
				c0.5,7.3,0.6,14.7-2.5,21.5c-0.3,0.7,0.6,1.3,1.1,0.6c7.6-10.8,6.2-22.6,3-34.8c-1.4-5.3-3.8-8.3-7.5-12.3
				c-5.4-5.9-8.4-13.8-4.9-21.5C273.2,512,272.1,511.4,271.8,512.1L271.8,512.1z"/>
		</g>
	</g>
	<g>
		<path fill="#783035" d="M361,405.2c-3.5-1.8-7.4-3.7-11.1-2.5c-3.4,1.1-5.7,4.6-6.2,8.2c-0.7,4.9,1.7,10.3,6.2,12.6
			c4.4,2.3,10.6,0.9,13.2-3.3c3.2-5.1,0.7-11.9-3.2-16.5"/>
	</g>
	<g>
		<path fill="#6F2A32" d="M346.4,421.5c0.5-1.1,0.8-2.4,1.1-4c0.5-2.6,1.1-5.1,2.8-7.2c3.2-3.9,7.4-4.4,11.4-3.1
			c-0.6-1.1-1.4-2.1-2.1-3l1.1,1.6c-3.5-1.8-7.4-3.7-11.1-2.5c-3.4,1.1-5.7,4.6-6.2,8.2C342.8,415,344,418.8,346.4,421.5z"/>
	</g>
	<g>
		<path fill="#783035" d="M309,464.8c-3.9-4-11.6-2.9-14.2,2s0.8,11.9,6.2,13c1.7,0.3,3.4,0.1,5-0.5c3.8-1.4,6.4-5.4,6.2-9.4
			c-0.1-4-3-7.8-6.9-8.9"/>
	</g>
	<g opacity="0.48">
		<g>
			<path fill="#632731" d="M301.4,464.6c2.4,0.4,4.6,3,5.4,5.4c0.9,2.4,0.3,6.6,2,8.1c2.1-2.1,3.4-5.1,3.4-8.1
				c0-4.4-2.8-8.4-6.7-9.5l3.6,4.1c-3.8-4.2-11.7-2.7-14.5,2.8c0,0.1-0.1,0.1-0.1,0.2C296.7,465.6,298.8,464.2,301.4,464.6z"/>
		</g>
	</g>
	<g>
		<g>
			<path fill="#ADA08E" d="M298.8,388.9c-4.2,13.4,8.7,24.6,7.6,38c-0.5,6.5-1.6,12.9,0,19.3c1.2,4.6,3.5,7.5,0.6,12.5
				c-1.1,1.9-2.4,3.3-3,5.6c-0.2,0.7,0.8,1.1,1.1,0.5c2.7-5.7,4.1-11.8,3.9-18.1c-0.1-3.6-1.1-7.1-0.8-10.7c0.3-3,2-4.8,2.3-7.7
				c0.1-0.7-1-0.8-1.2-0.2c-2.9,9.1,2.9,17.1,9.8,22.6c2,1.6,4.3,2.9,6.3,4.6c2,1.7,3.4,3.7,4.2,6c0.3,0.9,0.3,1.8,0.7,2.7
				c2.3,5.4,10.2,8.4,8.1,15.3c0.4,0.1,0.8,0.1,1.2,0.2c0.3-5.6-1.7-10.4-5.9-14.1c-0.6-0.5-1.5,0.4-0.9,0.9c4,3.5,5.9,8,5.6,13.2
				c0,0.7,1,0.8,1.2,0.2c1-3.1,0-5.9-2-8.5c-1.7-2.2-4.1-4-5.6-6.4c-1.3-2.2-1-4.8-2.3-7c-2.4-4-8.4-6.5-11.8-9.6
				c-5.6-5-9.8-11.9-7.4-19.6c-0.4-0.1-0.8-0.1-1.2-0.2c-0.3,2.4-2.2,4-2.7,6.3c-0.5,2.1,0.1,4.1,0.5,6.1c1.4,8.1,0.4,15.9-3,23.4
				c0.4,0.2,0.8,0.3,1.1,0.5c1.3-4.7,5.4-7,4.5-12.3c-0.6-3.4-2.3-6.4-2.7-9.9c-0.5-3.9-0.2-7.8,0.2-11.7c0.6-6.3,0.6-11.4-1.8-17.3
				c-3.2-7.9-8.2-15.4-5.5-24.2C300.2,388.4,299,388.1,298.8,388.9L298.8,388.9z"/>
		</g>
	</g>
	<g>
		<g>
			<path fill="#ADA08E" d="M304.2,396.3c2.4,7.2,4.8,14.4,7.2,21.6c1.7,5,3.6,9.7,7.3,13.6c8.2,8.6,19.9,14.4,30.9,18.4
				c0.1-0.4,0.2-0.8,0.3-1.2c-9.6-3.5-17.5-9.6-25-16.4c-6.8-6.2-14.3-12.9-15.7-22.5c-0.1-0.8-1.3-0.5-1.2,0.3
				c1.4,9.8,9,16.7,16,23.1c7.6,6.9,15.8,13.2,25.6,16.7c0.8,0.3,1.1-0.9,0.3-1.2c-10.7-3.9-22.5-9.7-30.3-18.1
				c-4.4-4.7-6.1-10.6-8.2-16.6c-2-6-4-12-6-18C305.2,395.2,303.9,395.5,304.2,396.3L304.2,396.3z"/>
		</g>
	</g>
	<g>
		<g>
			<path fill="#ADA08E" d="M357,470.9c-0.6-8-7.8-11.1-14.1-14.1c-9.6-4.7-17.1-12.1-24.3-19.9c-4.5-4.9-8.3-9.2-6.2-16.4
				c1.5-5.2,5.3-9.3,7.6-14.1c3.1-6.7,2.1-13.7-2.5-19.4c-0.5-0.6-1.4,0.3-0.9,0.9c3.7,4.5,4.9,10.2,3.1,15.8
				c-1.5,4.8-5.1,8.7-7.2,13.3c-3,6.3-2.6,11.9,2,17.2c5.4,6.3,11.3,12.5,17.9,17.6c3.7,2.9,7.8,5.1,12,7.1
				c5.2,2.5,10.9,5.6,11.3,12C355.8,471.7,357.1,471.7,357,470.9L357,470.9z"/>
		</g>
	</g>
	<g>
		<g>
			<path fill="#C0B3A9" d="M337.9,530.5c4.1-3,8.2-5.7,13.6-4.9c4.4,0.6,8.9,2.9,12.8,4.9c0.5,0.3,1.2-0.3,0.9-0.9
				c-4.3-6.6-12.6-6.7-19.7-5.5c-3.5,0.6-5.3,2.2-7.9,4.4c-4.9,4.3-12.5,5.4-18.8,5.7c-0.8,0-0.8,1.3,0,1.2
				c6.1-0.2,13.7-1.2,18.7-5.1c1.6-1.2,2.8-2.9,4.6-3.9c2.2-1.2,4.9-1.3,7.4-1.5c5.6-0.5,11.4,0.2,14.7,5.3c0.3-0.3,0.6-0.6,0.9-0.9
				c-4.4-2.2-9.4-4.8-14.3-5.3c-5.2-0.5-9.4,2.4-13.4,5.3C336.6,529.9,337.2,530.9,337.9,530.5L337.9,530.5z"/>
		</g>
	</g>
	<g>
		<g>
			<path fill="#ADA08E" d="M233.1,385.8c-5.6,0.8-9,5.2-14.4,6.5c-1.3,0.3-2.3,0.4-3.3,1.3c-1.6,1.4-1.7,3.6-3.8,4.7
				c-0.6,0.3-0.2,1.4,0.5,1.1c8.4-2.7,17.1-5.8,21.2-14.2c0.4-0.7-0.7-1.4-1.1-0.6c-4,8.1-12.4,11.1-20.5,13.7
				c0.2,0.4,0.3,0.8,0.5,1.1c0.9-0.5,1.5-1.1,2.1-1.9c1.1-1.6,1-2.8,3.4-3.7c0.9-0.4,2-0.2,3-0.5c4.7-1.4,7.5-5.4,12.7-6.2
				C234.3,386.9,233.9,385.7,233.1,385.8L233.1,385.8z"/>
		</g>
	</g>
	<g>
		<path fill="#783035" d="M342.1,477.4c-3-3.5-9.4-2.5-11.8,1.4c-2.5,3.9-1.1,9.5,2.5,12.4c1.5,1.3,3.6,2.1,5.5,1.6
			c2.5-0.7,3.9-3.3,4.9-5.6c0.9-2.1,1.8-4.4,1.6-6.7c-0.2-2.3-1.9-4.7-4.2-4.8"/>
	</g>
	<g>
		<path fill="#783035" d="M364,463.7c-4.3-2.1-10,1.1-10.8,5.8s2.8,9.5,7.5,10.4c2.7,0.5,5.7-0.2,7.5-2.3c2.2-2.6,2-6.6,0-9.4
			s-5.2-4.4-8.5-5.1"/>
	</g>
	<g>
		<path fill="#783035" d="M361.1,443.6c-2.5-2.5-6.6-3-9.7-1.3c-3.1,1.7-4.9,5.3-4.6,8.8c0.3,2.9,2.1,5.7,4.8,6.8
			c3.4,1.4,7.5-0.2,9.9-2.9c2-2.3,3.2-5.5,2.5-8.5c-0.8-3-3.8-5.4-6.8-4.9"/>
	</g>
	<g opacity="0.48">
		<g>
			<path fill="#632731" d="M344.8,480.5c-0.2-1.9-1.3-3.8-3-4.5c-0.1,0.3-0.2,0.5-0.3,0.8l0.6,0.7c-0.2-0.2-0.4-0.4-0.6-0.6
				c-1.5,4.6-2.5,9.1-6.4,12.4c-0.8,0.7-1.7,1.2-2.6,1.8c0.1,0.1,0.2,0.2,0.3,0.2c1.5,1.3,3.6,2.1,5.5,1.6c2.5-0.7,3.9-3.3,4.9-5.6
				C344.1,485,345,482.8,344.8,480.5z"/>
		</g>
	</g>
	<g opacity="0.48">
		<g>
			<path fill="#632731" d="M368.1,468.2c-0.2-0.3-0.4-0.5-0.6-0.8c-3.7-0.7-5.5,5.5-7.7,7.8c-1.4,1.5-2.9,1.9-4.3,1.7
				c1.3,1.5,3.1,2.6,5.1,3c2.7,0.5,5.7-0.2,7.5-2.3C370.3,475.1,370,471,368.1,468.2z"/>
		</g>
	</g>
	<g opacity="0.48">
		<g>
			<path fill="#632731" d="M365.1,446.9c-0.5-1.8-1.7-3.4-3.3-4.2c-1.6,2.2-1.2,7.3-2.5,10c-1.3,2.8-3.5,4.5-6,5.7
				c3.3,1,7.1-0.5,9.4-3.1C364.7,453,365.8,449.8,365.1,446.9z"/>
		</g>
	</g>
	<g>
		<g>
			<path fill="#ADA08E" d="M317.1,385.4c5.7,0.8,12.5,1.8,18.2,0.5c6.1-1.4,7.4-9.7,15-6.1c0.2-0.4,0.3-0.8,0.5-1.1
				c-3.5-0.9-6.6-0.1-9.8,1.4c-6.3,2.8-11.1,5.9-18.4,4.7c-5-0.8-9.8-2.6-15-2.6c-3.5,0-6.9,1-10.4-0.2c-2.9-1-5.3-3.2-7.7-5.1
				c-7.3-5.8-15-5.3-23.8-3.6c-5,1-9.9,2.1-14.4,4.5c-5.6,3-10.7,8.8-17.6,7.6c-0.8-0.1-1.1,1.1-0.3,1.2c3.7,0.7,6.8-0.4,10.1-2.2
				c5.2-3,9.4-6.5,15.3-8.2c5.6-1.6,12-3.1,17.9-3c6.6,0.1,10.4,3.6,15.4,7.3c3.8,2.8,7.1,3.5,11.9,3.2c6.2-0.4,11.5,1,17.5,2.1
				c4.2,0.8,8.1,0.8,12.1-0.7c5.6-2.2,10.6-6.7,17-5.2c0.7,0.2,1.1-0.8,0.5-1.1c-3.3-1.6-7.2-1.5-10,1.1c-3,2.7-5.5,5.1-10,5.2
				c-4.5,0.2-9-0.1-13.4-0.7C316.7,384.1,316.3,385.3,317.1,385.4L317.1,385.4z"/>
		</g>
	</g>
	<g>
		<path fill="#783035" d="M361.7,380.7c1.1-4.6-1.7-9.7-6-11.4c-4.4-1.7-9.8,0.2-12.1,4.3c-0.6,1.1-1,2.2-1,3.5
			c0,2.4,1.5,4.6,3.3,6.3c2.7,2.5,6.4,4.4,10,3.7c3.6-0.8,6.5-5.1,4.7-8.3"/>
	</g>
	<g>
		<path fill="#6F2A32" d="M360.6,378.7l1.1,2c1.1-4.6-1.7-9.7-6-11.4c-0.3-0.1-0.7-0.2-1-0.3c-1.6,4.9,5.1,14.8-2.9,15.5
			c0,0.1-0.1,0.2-0.1,0.3c-0.2,0.5-0.8,0.7-1.2,0.7c-0.8-0.1-1.5-0.2-2.1-0.2c2.3,1.4,4.9,2.2,7.5,1.7
			C359.4,386.3,362.3,382,360.6,378.7z"/>
	</g>
	<g>
		<g>
			<path fill="#799967" d="M483.8,882.4c8.4-7,17.6-14.4,28.5-14.5c4.7-0.1,9.4,1.3,13.7,3c8.4,3.3,16.1,8.2,22.7,14.4
				c4.2,3.9,7.9,8.3,12.6,11.7c-6.1,5-12.7,10.1-20.5,11.1c-5.6,0.7-11.2-1-16.6-2.6c-5.1-1.5-10.2-3-15.3-4.5
				c-5.7-1.7-11.4-3.4-16.5-6.4c-5.1-3-9.6-7.4-11.5-13"/>
		</g>
		<g opacity="0.32">
			<g>
				<path fill="#93AC6A" d="M527.8,894.9c-9-0.5-18.3-2.6-26.9-5.1c-6.2-1.8-12.6-4.1-18.1-7.7l-1.4-0.5c1.9,5.6,6.4,10,11.5,13
					c5.1,3,10.8,4.7,16.5,6.4c5.1,1.5,10.2,3,15.3,4.5c5.4,1.6,11,3.2,16.6,2.6c7.5-0.9,13.8-5.6,19.7-10.4
					C549.6,894.7,532.5,895.1,527.8,894.9z"/>
			</g>
		</g>
	</g>
	<g>
		<g>
			<path fill="#6C895C" d="M433.5,905.4c3.2-4.3,6.5-8.6,9.7-13c2.3-3.1,4.7-6.2,7.5-8.8c8.5-7.5,20.7-9.4,32-9.2
				c3.5,0.1,7.1,0.3,10,2.3c2.3,1.6,3.8,4.1,5,6.6c3.8,8.4,3.8,19.4-2.8,25.8c-4.8,4.7-12,6-18.7,5.4c-6.7-0.7-13-3.1-19.5-4.9
				c-8.1-2.4-16.4-3.9-24.7-4.6"/>
		</g>
		<g>
			<path fill="#678056" d="M477.5,896c7.5-2.9,14.1-7.4,20.3-12.5c0-0.1,0-0.1-0.1-0.2c-1.2-2.5-2.7-5-5-6.6c-2.9-2-6.5-2.2-10-2.3
				c-11.4-0.2-23.5,1.6-32,9.2c-2.9,2.6-5.2,5.7-7.5,8.8c-3,4-6,8-9,12C446.7,896.7,463.7,901.4,477.5,896z"/>
		</g>
	</g>
	<g>
		<path fill="#6C895C" d="M506.9,832.3c15.8-1.1,29,11,43.6,17.2c10.4,4.5,21.9,6.1,32.3,10.6c1.7,0.7,3.5,1.6,4.6,3.1
			c1.1,1.5,1.4,3.8,0.2,5.2c-2.2-5.4-2.1-11.5-4.3-16.9c-3.1-7.2-10.2-12.1-17.7-14.3c-7.5-2.1-15.6-1.8-23.4-1.1
			c-3.3,0.3-6.5,0.7-9.8,0.4c-3.6-0.3-7.1-1.5-10.5-2.6c-6.5-2-13.2-3.7-19.9-5.1"/>
	</g>
	<g>
		<path fill="#59704B" d="M232.1,374.1c3.8-2.1,5.6-6.9,5.3-11.2c-0.2-4.4-2.1-8.5-4-12.4c-4.4-9.5-9.3-19.2-17.5-25.7
			c-11.7-9.2-27.8-9.8-42.6-8.6c-14.8,1.3-29.9,4-44.3,0.2c1.1,10.7,6.6,20.7,13.8,28.7s16.1,14.3,25.2,20.2
			c14.4,9.3,30,17.7,47,19.6c4.9,0.6,10.1,0.5,14.5-1.8c4.4-2.3,7.6-7.4,6.3-12.2"/>
	</g>
	<g opacity="0.35">
		<g>
			<path fill="#4B5A3C" d="M221.7,367.3c-13.6-10.7-29.1-18.8-45.2-24.9c-13.6-5.1-28.8-8-39.5-18.6c-2-1.9-3.5-4.1-4.6-6.3
				c-1-0.2-2.1-0.4-3.1-0.7c1.1,10.7,6.6,20.7,13.8,28.7c7.2,8,16.1,14.3,25.2,20.2c14.4,9.3,30,17.7,47,19.6
				c4.9,0.6,10.1,0.5,14.5-1.8c1.7-0.9,3.2-2.2,4.3-3.7C229.7,375.5,225.8,370.5,221.7,367.3z"/>
		</g>
	</g>
	<g>
		<g>
			<path fill="#59704B" d="M233.5,387.6c8.1-2.2,16.6,0.3,24.5,2.9c3.2,1.1,6.5,2.1,9.4,4.1c3.3,2.3,5.8,5.7,7.8,9.2
				c7.8,14.2,7.3,32.6-1.4,46.4c-3.6,5.7-8.4,10.6-11.8,16.5c-3.3,5.9-5,13.4-1.6,19.3c-5.9-2.3-10.1-7.6-13.8-12.7
				c-7.3-10.3-13.8-21-19.6-32.3c-2.9-5.6-5.6-11.5-5.9-17.8c-0.4-7.6,2.6-14.8,5.6-21.8c2.8-6.6,6.8-14.2,13.9-15.1"/>
		</g>
		<g opacity="0.44">
			<g>
				<path fill="#4B5A3C" d="M261.5,437.1c4.5-14.6,0.4-27-8.7-38.7c-3.2-4.1-6.6-8-9.8-12c-1.4-0.1-2.8-0.1-4.2-0.1
					c-5.8,2-9.3,8.7-11.8,14.6c-3,7-6,14.2-5.6,21.8c0.3,6.3,3.1,12.2,5.9,17.8c5.7,11.2,12.3,22,19.6,32.3c2,2.8,4.2,5.7,6.7,8
					C249.4,467.5,257.1,451.1,261.5,437.1z"/>
			</g>
		</g>
	</g>
	<g>
		<g>
			<path fill="#C0B3A9" d="M247.6,382.8c-1.5,15.5,15.1,21.1,27.6,18.3c-0.1-0.4-0.2-0.8-0.3-1.2c-8.9,3.6-16.9-2-21.5-9.4
				c-1.8-2.8-3.2-6.9-7.2-6.5c-0.8,0.1-0.8,1.3,0,1.2c3.6-0.3,6.5,6.9,8.4,9.2c1.6,2,3.4,3.7,5.5,5.1c4.6,3,10,3.6,15.1,1.6
				c0.7-0.3,0.5-1.4-0.3-1.2c-11.7,2.7-27.5-2.4-26-17.1C248.9,382,247.7,382,247.6,382.8L247.6,382.8z"/>
		</g>
	</g>
	<g>
		<g>
			<path fill="#783035" d="M281.8,396.1c-3.9-3.3-10.3-3.9-14-0.4c-2.3,2.1-3.2,5.5-2.6,8.6c0.6,3.1,2.7,5.8,5.4,7.3
				c1.1,0.6,2.3,1,3.6,1c1.4-0.1,2.7-0.7,3.8-1.5c3.1-2.1,5.6-5.4,5.9-9.1c0.4-3.7-1.9-7.7-5.5-8.8"/>
		</g>
		<g>
			<path fill="#6F2A32" d="M270.3,404.8c-0.6-2.4-1.5-5.2,1.2-6.7c1.1-0.6,2.4-0.4,3.5-0.7c2.6-0.8,2.4-2.7,1.3-4.4
				c-3-0.5-6.2,0.1-8.4,2.2c-2.3,2.1-3.2,5.5-2.6,8.6c0.6,3.1,2.7,5.8,5.4,7.3c1.1,0.6,2.3,1,3.6,1c0.1,0,0.1,0,0.2,0
				C272,410.3,271.1,407.7,270.3,404.8z"/>
		</g>
	</g>
	<g>
		<g>
			<g>
				<path fill="#ADA08E" d="M442.7,679.1c16,2.7,31.3-3.5,47.2-3.5c8.3,0,16.5,2.5,24.9,2c8.1-0.5,16.8-5.1,24.6-0.8
					c0.2-0.4,0.3-0.8,0.5-1.1c-9.7-2.6-19.5-2-29.4-1c-5.4,0.5-10.8,1.1-16.2,1.2c-5.7,0.1-11.1-0.8-16.8-1.5
					c-4.7-0.5-9.1-0.4-13.6,1c-4.7,1.4-9.1,3.9-14,4.7c-9.7,1.6-18.3-5.1-28-3.7c-0.6,0.1-0.6,1.1,0,1.2
					c23.8,4.4,39.1,25.5,60.3,35.4c0.2-0.4,0.3-0.8,0.5-1.1c-5.2-1.1-9.9-3.4-13.6-7.2c-3.3-3.4-5.4-7.7-8.6-11.2
					c-5.7-6.2-13.7-10.1-21.6-12.7c-9.3-3-19-4.3-28.6-5.8c-10.8-1.6-21.5-3.3-32.3-4.9c-0.7-0.1-1.1,0.7-0.5,1.1
					c5.1,3.3,10.3,6.6,14.9,10.6c5.2,4.4,9.1,9.8,13.2,15.2c5.5,7.2,12,13.8,21.5,14.9c0.7,0.1,0.8-1,0.2-1.2
					c-20.6-7-29.8-29.4-47.6-40.5c-0.7-0.4-1.3,0.7-0.6,1.1c17.9,11.2,27.2,33.6,47.9,40.6c0.1-0.4,0.1-0.8,0.2-1.2
					c-12.4-1.4-18.9-12.8-26-21.6c-6.3-7.9-14.5-13.5-22.9-18.9c-0.2,0.4-0.3,0.8-0.5,1.1c10.4,1.6,20.9,3.2,31.3,4.7
					c9.9,1.5,20,2.8,29.6,5.9c11,3.6,19.1,9.2,25.7,18.6c4.6,6.4,10.3,10.8,18.1,12.4c0.7,0.1,1.2-0.8,0.5-1.1
					c-21.3-10-36.7-31.1-60.6-35.5c0,0.4,0,0.8,0,1.2c9.1-1.3,17.2,4.9,26.4,4c4.4-0.4,8.5-2.3,12.6-3.8c5.8-2.1,11.1-2.7,17.3-1.9
					c10,1.2,19.3,1.4,29.4,0.4c10.7-1.1,21.3-2.2,31.8,0.7c0.7,0.2,1.1-0.8,0.5-1.1c-5.5-3.1-11.2-1.9-17.1-0.7
					c-9.6,2-17.9,0.5-27.5-0.4c-17.6-1.6-34.7,6.2-52.3,3.2C442.2,677.7,441.9,678.9,442.7,679.1L442.7,679.1z"/>
			</g>
		</g>
	</g>
	<g>
		<g>
			<path fill="#ADA08E" d="M534.6,624.6c10.9-5.2,21.2-8.7,33.4-8.1c7.6,0.3,15.6,0.4,21-5.9c-0.3-0.2-0.7-0.4-1-0.6
				c-1.7,4.3-4.3,7.8-9.2,8.4c-2.8,0.3-6-0.7-8.8-0.8c-5.1-0.3-10.2,0-15.2,0.9c-10.6,1.8-20.5,6-29.2,12.2c0.3,0.3,0.5,0.7,0.8,1
				c4-5.1,9.2-8.4,15.5-9.9c0.8-0.2,0.5-1.4-0.3-1.2c-6.5,1.5-11.9,5-16,10.2c-0.4,0.5,0.1,1.4,0.8,1c11.4-8,24.8-12.7,38.7-13
				c5.2-0.1,12.2,2.2,17.1,0.3c3.7-1.5,5.7-5.2,7.1-8.7c0.2-0.6-0.7-1.1-1-0.6c-7.3,8.5-19.3,4.6-29,5.6c-8.9,0.9-17.1,4.4-25.1,8.3
				C533.3,623.9,533.9,625,534.6,624.6L534.6,624.6z"/>
		</g>
	</g>
	<g>
		<path fill="#5C724D" d="M452.2,677.4c9.2-5.3,20.8-2.8,30.9,0.7c7.9,2.8,16,6.3,21.2,12.9c3,3.9,4.8,9.4,2.4,13.6
			c-2.2-1.5-4.4-3.1-6.6-4.6c-0.9-0.7-1.9-1.3-3.1-1.5c-1.3-0.2-2.6,0.5-3.9,1c-6.8,2.7-14.9,1.8-21-2.3c-7.8-5.2-12-15-20.6-18.9"
			/>
	</g>
	<g>
		<g>
			<path fill="#657F54" d="M497.6,662.5c-9.4-2.8-14.1-14.5-11.6-24c2.5-9.5,10.4-16.8,19.1-21.4c8.2-4.4,17.5-6.8,26.8-7.2
				c6.7-0.3,13.3,0.5,20,0.1c-2.8,6.6,0.4,14.2-0.5,21.3c-0.8,6.6-5.1,12.4-10.4,16.5c-5.3,4.1-11.6,6.6-17.7,9.1
				c-3.6,1.4-7.1,2.9-10.7,4.3c-5.4,2.2-12.1,4.2-16.6,0.4"/>
		</g>
		<g>
			<path fill="#617F4D" d="M549.8,612.2c-12.6,3.3-24.1,9-32.7,19.8c-6.1,7.7-13.7,23.2-24.2,28.4c0.8,0.5,1.6,0.9,2.5,1.2
				c4.4,3.2,10.8,1.3,16-0.9c3.6-1.4,7.1-2.9,10.7-4.3c6.2-2.5,12.4-5.1,17.7-9.1c5.3-4.1,9.6-9.8,10.4-16.5
				C550.9,624.6,548.6,618.1,549.8,612.2z"/>
		</g>
	</g>
	<g>
		<path fill="#799967" d="M513,678.1c-2.6,0-5.2,0.1-7.6-0.8c-2.4-0.9-4.6-2.9-4.9-5.5c-0.5-4.2,4.1-7.2,8.2-8.2
			c3.6-0.8,7.4-0.9,11.1-0.2c3.7,0.7,8,2.2,11.1,0c-0.2,3.8-2.6,7.3-5.7,9.6c-3.1,2.3-6.8,3.6-10.5,4.7c-2.4,0.7-5.2,1.2-7.2-0.4"/>
	</g>
	<g>
		<g>
			<path fill="#6C895C" d="M611.4,715.6c-17.3,9-38.3,6.2-56.8,0.1c-7.4-2.4-15-5.5-20.3-11.3c-3.1-3.4-5.3-7.6-7.9-11.5
				c-3.8-5.8-8.5-11.1-13.8-15.5c6.7-6,13.9-12.3,22.7-14.3c6.8-1.5,13.9-0.3,20.6,1.4c16,4.1,31.2,11,44.7,20.5
				c5.2,3.6,10.3,7.8,12.9,13.6s2,13.4-2.9,17.4"/>
		</g>
		<g>
			<path fill="#657F54" d="M613.7,711.8c-22.2-10-40.7-27.3-64.4-34c-9.1-2.5-19.2-2.2-28.4-1c-2.7,0.3-5.6,0.7-8.6,1.4
				c0,0-0.1,0.1-0.1,0.1c5.3,4.5,10,9.7,13.8,15.5c2.5,3.9,4.7,8,7.9,11.5c5.3,5.7,12.8,8.8,20.3,11.3c18.3,6,39.1,8.8,56.2,0.2
				C611.9,715.4,613,713.7,613.7,711.8z"/>
		</g>
	</g>
	<g>
		<g>
			<path fill="#8A807F" d="M282.1,633.4c0.8,0,0.8-1.2,0-1.2C281.3,632.1,281.3,633.4,282.1,633.4L282.1,633.4z"/>
		</g>
	</g>
	<g>
		<g>
			<path fill="#A29484" d="M185.8,496.5c-2.1,0.2-4.2,1-5.9,2.4c-0.4,0.3-0.7,0.6-0.8,1.1c0,0.5,0.4,0.9,0.7,1.3
				c4.8,5,6.9,12,8.7,18.8c0.6,2.2,1.2,4.5,1.9,6.7c1,3.5,2.6,7.6,6.1,8.2c-6.1-7.9-10.1-17.3-11.7-27.1c0.2,4.1,4.8,6.4,7.4,9.5
				c2.3,2.7,3.3,6.2,5.7,8.7c3.5,3.5,9.1,4,12.7,7.4c-5.6-0.9-8.6-6.8-12-11.3c-4.8-6.4-12.3-11.8-12.6-19.8
				c-0.1-2.3,0.4-4.7-0.7-6.7"/>
		</g>
		<g>
			<g>
				<path fill="#A29484" d="M185.6,495.9c-1.9,0.3-6.9,1.4-7.1,4c0,1,0.9,1.6,1.4,2.3c2.4,3.3,4.2,6.3,5.7,10.1
					c2,5.5,2.9,11.4,5,16.8c1.1,2.9,2.7,5.3,5.8,6.3c0.5,0.1,1-0.5,0.7-0.9c-6-8-9.9-17.1-11.7-26.9c-0.1-0.8-1.3-0.5-1.2,0.3
					c0.4,2.3,1.4,3.8,2.9,5.4c2.8,2.9,5.3,5.1,7.3,8.7c1.3,2.3,2.7,4.3,4.9,5.9c3.5,2.4,7.6,3.2,10.9,6c0.2-0.3,0.4-0.7,0.6-1
					c-7.1-1.6-10.8-10.4-15.4-15.5c-2.5-2.8-5.2-5.5-6.9-8.8c-2.3-4.3-1-8.7-2.5-13c-0.3-0.8-1.5-0.4-1.2,0.3
					c1.5,4.2,0.2,8.5,2.3,12.7c1.8,3.7,4.7,6.6,7.4,9.7c4.7,5.3,8.4,14.1,16,15.8c0.6,0.1,1.1-0.6,0.6-1
					c-5.4-4.5-11.7-4.9-15.5-11.6c-1.2-2.2-2.4-4.1-4.2-5.9c-2.4-2.4-5.4-4.1-6-7.9c-0.4,0.1-0.8,0.2-1.2,0.3
					c1.8,10,5.7,19.1,11.8,27.2c0.2-0.3,0.5-0.6,0.7-0.9c-6.7-2-7.7-15.8-9.7-21.5c-1-2.8-2.1-5.6-3.8-8.2c-0.4-0.6-1.7-2-2-2.7
					c-1.5-1-1.5-2.1,0.2-3.5c1.4-0.8,2.8-1.2,4.4-1.4C186.8,496.9,186.4,495.7,185.6,495.9L185.6,495.9z"/>
			</g>
		</g>
	</g>
	<g opacity="0.16">
		<g>
			<path fill="#8A807F" d="M282.8,633.3c1.4,5-2,10.3-1.1,15.4c0.2,1.2,0.6,2.3,0.7,3.4c0.1,1.9-0.6,3.7-1.4,5.4
				c-2.8,6.6-5.8,13.5-11.3,18.2c4.6-0.1,8.7-3.5,11.1-7.4c2.5-3.9,3.8-8.5,5.6-12.7c1.9-4.4,4.4-8.6,7.4-12.3
				c-0.5,2,0.6,4.1,2.1,5.4c1.5,1.3,3.5,2.1,5.4,2.8c4.6,1.8,9.3,3.6,14.2,3.9c-3.1-3.8-8.7-4.4-12.8-7.2c-1.5-1-2.8-2.3-4.1-3.5
				c-4.7-4.2-10.3-7.4-15.8-10.5"/>
		</g>
		<g>
			<g>
				<path fill="#8A807F" d="M282.2,633.5c0.8,4-0.7,7.5-1.1,11.4c-0.5,3.9,1.1,7.4-0.1,11.2c-2.2,6.9-6.3,14.4-11.7,19.3
					c-0.4,0.3-0.1,1.1,0.4,1.1c5.8-0.6,9.8-4.3,12.5-9.3c4.3-7.8,6.4-16.2,12.1-23.4c-0.4-0.1-0.7-0.3-1.1-0.4
					c-0.2,4.3,2.6,6.6,6.4,8.2c5.1,2.2,10.4,4,15.9,4.6c0.6,0.1,0.8-0.7,0.4-1.1c-4.3-4.5-10.9-5.4-15.6-9.5
					c-5.4-4.7-11.1-8.3-17.3-11.8c-0.7-0.4-1.3,0.7-0.6,1.1c6.7,3.8,12.4,8,18.4,12.8c4.4,3.5,10.4,4.2,14.3,8.3
					c0.1-0.4,0.3-0.7,0.4-1.1c-5.7-0.6-21.5-3.6-21.1-11.6c0-0.5-0.7-0.9-1.1-0.4c-3.4,4.4-6.2,9-8.3,14.2
					c-3,7.5-5.9,17.2-15.4,18.1c0.1,0.4,0.3,0.7,0.4,1.1c5.7-5.2,9.4-12.6,12-19.8c1.4-3.9-0.2-6.8,0-10.8c0.2-4.4,2-8.1,1.2-12.5
					C283.3,632.4,282,632.7,282.2,633.5L282.2,633.5z"/>
			</g>
		</g>
	</g>
	<g opacity="0.71">
		<g>
			<path fill="#8A807F" d="M349.3,760.2c-0.7,2.7-0.3,5.7,1,8.2c0.7,1.2,1.5,2.3,2.2,3.6c3.1,5.7,1,12.6-1.1,18.7
				c1.7-2.1,2.9-4.7,3.4-7.4c0.9-4.7-0.3-9.6-0.1-14.4c0.7-0.8,2.2-0.5,2.9,0.3c0.7,0.8,1,2,1.4,3c2.3,6.6,9.6,9.7,16.1,12.1
				c2.5,1,5.6,1.9,7.8,0.4c-4.3-4-10.1-5.9-15.5-8.1c-5.4-2.2-11-5.2-13.8-10.3c-1.1-2.1-1.8-4.6-3.9-5.6"/>
		</g>
		<g>
			<g>
				<path fill="#8A807F" d="M348.7,760c-0.7,4.4,0.4,7.3,2.6,11.1c3.6,6.3,1.8,13-0.4,19.4c-0.2,0.7,0.8,1,1.1,0.5
					c3.3-4.6,4-9.3,3.7-14.9c0-0.5-0.7-5.1-0.3-5.4c1.4-1.2,2.9,1.7,3.3,2.4c0.9,1.4,1.5,2.9,2.7,4.2c2.9,3.2,7,5.1,10.9,6.7
					c3.6,1.5,7.2,3.1,11,1.3c0.4-0.2,0.4-0.7,0.1-1c-5.6-4.9-12.5-6.5-19-9.7c-3.9-1.9-7.5-4.3-9.8-8c-1.5-2.5-2.1-4.8-4.5-6.5
					c-0.7-0.5-1.3,0.6-0.6,1.1c3,2.1,3.8,6.4,6.3,9c1.7,1.8,3.8,3.2,6,4.4c2.7,1.5,5.6,2.6,8.5,3.7c1.9,0.8,3.9,1.5,5.8,2.5
					c1,0.5,1.9,1,2.8,1.5c1.7,0.5,1.8,1.1,0.2,1.5c-2.2,1.5-8-1.8-10.2-2.9c-3.6-1.8-6.9-4.2-8.7-7.8c-1.2-2.5-2.1-6.8-5.8-4.9
					c-0.2,0.1-0.3,0.3-0.3,0.5c0,7.7,1.7,14.8-3.2,21.5c0.4,0.2,0.8,0.3,1.1,0.5c1.5-4.6,3.1-9.5,2.5-14.4
					c-0.8-6.1-5.8-9.3-4.7-16.1C350,759.6,348.8,759.2,348.7,760L348.7,760z"/>
			</g>
		</g>
	</g>
	<g>
		<g>
			<path fill="#ADA08E" d="M282.7,515.8c6.7,3.8,13.5,7.5,20.2,11.3c5.3,3,10.8,6.8,16.9,8.2c5,1.1,9-0.2,13.2-3
				c6.7-4.6,13-7.4,21.4-6.5c0-0.4,0-0.8,0-1.2c-9.5-0.4-18.4,2.2-26.3,7.5c-0.3,0.2-0.4,0.7-0.1,1c2.3,2,4.7,1.7,7.5,0.9
				c6.7-1.9,12.2-2.9,18.9,0c0.2-0.4,0.3-0.8,0.5-1.1c-7.8-1.9-16.6-3.6-24.6-3c-4.9,0.4-9.3,2.4-10.9,7.4c-0.1,0.4,0.2,0.8,0.6,0.8
				c11.5-1.2,21.6,4.7,31,10.5c0.7,0.4,1.3-0.6,0.6-1.1c-5.7-3.6-11.6-7.3-18.1-9.4c-2.7-0.8-5.5-1.4-8.3-1.5
				c-4.3-0.2-8.3,0.7-12.4-1.1c-7.2-3-11.2-9.9-16.5-15.1c-4.3-4.2-9.3-7.1-15-9c-0.8-0.2-1.1,1-0.3,1.2c7.2,2.4,12.8,6.6,17.8,12.2
				c4,4.5,7.9,9.5,13.6,11.9c5.9,2.5,12.3,0.5,18.5,1.9c7.4,1.8,13.9,5.9,20.2,9.9c0.2-0.4,0.4-0.7,0.6-1.1
				c-8.1-5-16.9-10.3-26.7-10.9c-0.5,0-3.1,0.3-3.3,0c-1.2-1.3,2.1-3.5,2.9-3.9c3-1.8,6.8-1.7,10.2-1.6c6.7,0.3,13.3,1.4,19.8,2.9
				c0.7,0.2,1.2-0.8,0.5-1.1c-3-1.3-6.1-2.2-9.5-2.2c-3.8-0.1-6.8,1.4-10.4,2.1c-1.7,0.7-3.3,0.5-5.1-0.5c0.9-0.6,1.8-1.1,2.8-1.6
				c2.3-1.2,4.8-2.3,7.3-3c4.6-1.4,9.4-1.9,14.2-1.7c0.8,0,0.8-1.2,0-1.2c-5.2-0.6-10.4,0.1-15.2,2.3c-6.6,3.1-10.9,9-19.1,7.3
				c-6.5-1.4-12.6-5.8-18.3-9c-6.2-3.5-12.4-6.9-18.5-10.4C282.6,514.3,282,515.4,282.7,515.8L282.7,515.8z"/>
		</g>
	</g>
	<g>
		<path fill="#8A807F" d="M314.6,387.3c5.5,2.6,8.8,9.3,7.5,15.2c-1.1,4.8-4.7,8.6-8.1,12.3c-2.9,3.1-5.7,6.4-7.3,10.3
			c-1.6,3.9-1.9,8.6,0.4,12.2c2.6,4.1,7.6,5.8,11.3,8.9c9.1,7.5,9.5,22.3,19,29.4c0.5-7.1-5.3-12.9-10.2-18.1
			c-5.3-5.5-10.2-11.5-14.5-17.8c-1.3-1.9-2.6-3.9-3.1-6.1c-0.6-2.7-0.1-5.5,0.9-8c2-5.3,5.8-9.8,9-14.5s6-10.2,5.4-15.9
			s-5.6-11.2-11.3-10.4c7.3,2.1,14.8,4.3,21.4,8s12.7,9.2,15.5,16.3c2.4-1.8-0.4-5.4-2.9-6.8c-8.3-4.7-17.1-8.7-26.1-11.9
			c-2.7-0.9-5.9-2.4-6-5.3c3.5-1.4,7.4-0.5,11,0.4c3.6,1,7.4,2,11,1c3.6-1,6.6-5,5.2-8.4c-8.7,5-19.4,6.6-29.1,4.2"/>
	</g>
	<g>
		<path fill="#8A807F" d="M345,382.7c-0.5-3.4,0.1-7,1.6-10.1c-1.2-0.8-2.9,0.2-3.7,1.4c-0.8,1.2-1.1,2.8-2.1,3.9
			c-2.2,2.5-6.8,1.7-8.8,4.5c-0.4,0.6-0.6,1.3-0.3,1.9c0.5,0.8,1.6,0.8,2.5,0.7c2.7-0.2,5.3-0.5,8-0.7c0.9-0.1,1.8-0.2,2.4-0.8
			c0.6-0.6,0.6-1.9-0.2-2.2"/>
	</g>
	<g>
		<path fill="#8A807F" d="M255.1,392.9c1.4,3,4.3,5.2,7.5,5.9c1.9,0.4,4.4,0,5.1-1.9c0.3-0.9,0.3-2,1.1-2.4c1-0.5,2,0.8,2.5,1.8
			c-2,2.4-2.9,5.6-2.7,8.6c-1.6-2.3-3.9-4.1-6.5-5.1c-2.1-0.8-4.4-1-6.1-2.5c-1.5-1.2-2.2-3.2-2.9-5"/>
	</g>
	<g>
		<path fill="#8A807F" d="M307.2,455.7c-0.8,1.9-1.7,3.8-2.5,5.7c-0.3,0.6-0.6,1.3-1.1,1.7c-0.9,0.7-2.1,0.6-3.2,0.6
			c-1.1,0-2.4,0.4-2.8,1.5c2.6,0.9,5.2,1.8,7.8,2.7c0.3,0.1,0.8,0.2,1,0c0.4-0.4,0-1.1-0.2-1.6c-0.5-1-0.2-2.2,0-3.3
			c0.7-3.1,1.5-6.1,2.2-9.2"/>
	</g>
	<g>
		<path fill="#8A807F" d="M340.2,444.1c1.7,1.3,3.6,2.4,5.6,3.3c0.3,0.1,0.6,0.2,0.9,0.2c0.4-0.1,0.7-0.4,1-0.7
			c0.9-1,2.1-1.8,3.4-2.2c0.2-0.1,0.5-0.1,0.7,0c0.5,0.2,0.2,1-0.1,1.4c-1.3,1.7-2.6,3.4-3.8,5.1c0.1-2.9-2.1-5.4-4.7-6.7
			c-2.6-1.3-5.5-1.5-8.4-1.7"/>
	</g>
</g>
</svg>
