<?xml version="1.0" encoding="utf-8"?>
<!-- Generator: Adobe Illustrator 18.0.0, SVG Export Plug-In . SVG Version: 6.00 Build 0)  -->
<!DOCTYPE svg PUBLIC "-//W3C//DTD SVG 1.1//EN" "http://www.w3.org/Graphics/SVG/1.1/DTD/svg11.dtd" [
	<!ENTITY ns_flows "http://ns.adobe.com/Flows/1.0/">
	<!ENTITY ns_extend "http://ns.adobe.com/Extensibility/1.0/">
	<!ENTITY ns_ai "http://ns.adobe.com/AdobeIllustrator/10.0/">
	<!ENTITY ns_graphs "http://ns.adobe.com/Graphs/1.0/">
]>
<svg version="1.1" id="Capa_1" xmlns:x="&ns_extend;" xmlns:i="&ns_ai;" xmlns:graph="&ns_graphs;"
	 xmlns="http://www.w3.org/2000/svg" xmlns:xlink="http://www.w3.org/1999/xlink" xmlns:a="http://ns.adobe.com/AdobeSVGViewerExtensions/3.0/"
	 x="0px" y="0px" viewBox="0 0 750.5 1333.7" enable-background="new 0 0 750.5 1333.7" xml:space="preserve">
<g>
	<path fill="#FFFFFF" d="M529.3,1094.6v17h-16.1V1214H496v-102.4h-16.1v-17H529.3z"/>
	<path fill="#FFFFFF" d="M540.3,1094.6H585v17h-27.5v34.2h23.6v17h-23.6v34.2H585v17h-44.7V1094.6z"/>
	<path fill="#FFFFFF" d="M591.7,1174.8h17.2v16.1c0,5.4,2.5,8.1,7.5,8.1c5,0,7.5-2.7,7.5-8.1v-96.2h17.2v96.2
		c0,16.8-8.2,25.1-24.7,25.1c-16.5,0-24.8-8.4-24.8-25.1V1174.8z"/>
	<path fill="#FFFFFF" d="M705.3,1190.9c0,16.7-8.3,25.1-24.8,25.1c-16.5,0-24.7-8.4-24.7-25.1v-73c0-16.7,8.2-25.1,24.7-25.1
		c16.5,0,24.8,8.4,24.8,25.1V1190.9z M688,1117.8c0-5.4-2.5-8.1-7.5-8.1h-0.1c-5,0-7.4,2.7-7.4,8.1v73c0,5.4,2.5,8.1,7.5,8.1
		c5,0,7.5-2.7,7.5-8.1V1117.8z"/>
</g>
<g>
	<path fill="#B52222" d="M600.9,1244.6c0,0.1,0,0.2,0,0.4s0,0.3-0.1,0.5s-0.1,0.4-0.2,0.6s-0.1,0.4-0.2,0.6s-0.2,0.3-0.3,0.4
		s-0.3,0.2-0.4,0.2h-8.5l-5.3,26.3c0,0.1-0.1,0.2-0.2,0.3s-0.2,0.2-0.4,0.2s-0.4,0.1-0.6,0.1s-0.6,0.1-1,0.1s-0.7,0-1-0.1
		s-0.4-0.1-0.6-0.1s-0.2-0.1-0.3-0.2s-0.1-0.2,0-0.3l5.2-26.3h-8.5c-0.2,0-0.4-0.1-0.4-0.2s-0.1-0.3-0.1-0.6c0-0.1,0-0.2,0-0.4
		s0.1-0.3,0.1-0.6s0.1-0.4,0.2-0.6s0.1-0.4,0.2-0.5s0.2-0.3,0.3-0.4s0.3-0.2,0.4-0.2h21.1c0.2,0,0.3,0.1,0.4,0.2
		S600.9,1244.4,600.9,1244.6z"/>
	<path fill="#B52222" d="M621.3,1272.7c0,0.3,0.1,0.6,0,0.8s-0.1,0.4-0.3,0.5s-0.4,0.2-0.7,0.2s-0.7,0-1.3,0c-0.3,0-0.6,0-0.9,0
		s-0.4-0.1-0.6-0.1s-0.2-0.1-0.3-0.2s-0.1-0.2-0.1-0.4l-1.1-7.4h-12.6l-4,7.3c-0.1,0.2-0.2,0.3-0.3,0.4s-0.2,0.2-0.4,0.2
		s-0.4,0.1-0.7,0.1s-0.6,0-1.1,0c-0.5,0-0.8,0-1.1-0.1s-0.5-0.1-0.6-0.2s-0.1-0.3-0.1-0.5s0.2-0.5,0.3-0.8l15.8-28.2
		c0.1-0.2,0.2-0.3,0.4-0.4s0.3-0.2,0.5-0.3s0.5-0.1,0.8-0.1s0.7,0,1.1,0c0.5,0,0.9,0,1.3,0s0.6,0.1,0.8,0.1s0.3,0.2,0.4,0.3
		s0.1,0.3,0.2,0.4L621.3,1272.7z M613.4,1247.9L613.4,1247.9l-8.2,15.1h10.5L613.4,1247.9z"/>
	<path fill="#B52222" d="M642.6,1258.7l5.7,14c0.1,0.3,0.2,0.6,0.2,0.8s-0.1,0.4-0.2,0.5s-0.4,0.2-0.7,0.2s-0.8,0.1-1.3,0.1
		c-0.5,0-0.8,0-1.1,0s-0.5-0.1-0.6-0.1s-0.3-0.1-0.3-0.2s-0.1-0.2-0.2-0.3l-4.6-12.2l-9.2,12.2c-0.1,0.1-0.2,0.3-0.3,0.4
		s-0.3,0.2-0.5,0.2s-0.4,0.1-0.7,0.1s-0.7,0-1.1,0c-0.5,0-0.9,0-1.3-0.1s-0.5-0.1-0.7-0.2s-0.1-0.3-0.1-0.5s0.2-0.5,0.5-0.8
		l11.2-14.2l-5.2-13.3c-0.1-0.3-0.2-0.6-0.2-0.8s0.1-0.4,0.2-0.5s0.4-0.2,0.7-0.2s0.8-0.1,1.3-0.1c0.4,0,0.8,0,1,0s0.5,0.1,0.6,0.2
		s0.3,0.2,0.3,0.3s0.1,0.3,0.2,0.5l4.1,11.1l8.6-11.3c0.1-0.1,0.2-0.2,0.3-0.3s0.3-0.2,0.4-0.2s0.4-0.1,0.7-0.1s0.6,0,1.1,0
		c0.5,0,0.9,0,1.3,0.1s0.5,0.1,0.7,0.2s0.1,0.3,0.1,0.5s-0.2,0.5-0.5,0.8L642.6,1258.7z"/>
	<path fill="#B52222" d="M680.8,1263.1c-0.4,1.9-1,3.6-1.8,5s-1.8,2.6-3,3.6s-2.5,1.7-4,2.2s-3.1,0.7-4.8,0.7
		c-1.8,0-3.4-0.2-4.7-0.7s-2.4-1.2-3.2-2.2s-1.3-2.2-1.6-3.6s-0.2-3.1,0.2-5.1l3.7-18.5c0-0.1,0.1-0.2,0.2-0.3s0.2-0.2,0.4-0.2
		s0.4-0.1,0.6-0.1s0.6-0.1,1-0.1s0.7,0,1,0.1s0.4,0.1,0.6,0.1s0.2,0.1,0.3,0.2s0,0.2,0,0.3l-3.7,18.5c-0.3,1.4-0.3,2.6-0.2,3.6
		s0.4,1.9,0.9,2.6s1.2,1.2,2,1.5s1.9,0.5,3.1,0.5c1.2,0,2.3-0.2,3.2-0.5s1.9-0.9,2.6-1.6s1.4-1.6,2-2.6s0.9-2.2,1.2-3.5l3.7-18.5
		c0-0.1,0.1-0.2,0.2-0.3s0.2-0.2,0.4-0.2s0.4-0.1,0.6-0.1s0.6-0.1,1-0.1c0.4,0,0.7,0,0.9,0.1s0.4,0.1,0.6,0.1s0.2,0.1,0.3,0.2
		s0.1,0.2,0,0.3L680.8,1263.1z"/>
	<path fill="#B52222" d="M708.8,1246.1c0,0.1,0,0.3,0,0.4s0,0.3-0.1,0.5s-0.1,0.4-0.1,0.6s-0.1,0.4-0.2,0.5s-0.2,0.3-0.3,0.4
		s-0.2,0.1-0.3,0.1c-0.2,0-0.4-0.1-0.7-0.3s-0.7-0.4-1.2-0.6s-1-0.4-1.7-0.6s-1.4-0.3-2.3-0.3c-1,0-1.8,0.1-2.5,0.4
		s-1.3,0.7-1.8,1.2s-0.8,1.1-1.1,1.7s-0.4,1.3-0.4,1.9c0,0.7,0.2,1.3,0.5,1.8s0.7,1,1.2,1.4s1.1,0.8,1.7,1.2s1.3,0.8,1.9,1.1
		s1.3,0.8,1.9,1.3s1.2,1,1.7,1.5s0.9,1.3,1.2,2s0.5,1.6,0.5,2.6c0,1.3-0.3,2.6-0.8,3.7s-1.3,2.2-2.3,3s-2.2,1.6-3.6,2.1
		s-3,0.8-4.8,0.8c-1,0-1.8-0.1-2.7-0.2s-1.6-0.4-2.2-0.6s-1.2-0.5-1.7-0.8s-0.8-0.5-1-0.7s-0.3-0.5-0.3-0.9c0-0.1,0-0.2,0-0.4
		s0.1-0.4,0.1-0.6s0.1-0.4,0.2-0.6s0.1-0.4,0.2-0.5s0.2-0.3,0.3-0.4s0.2-0.2,0.4-0.2c0.2,0,0.6,0.1,0.9,0.4s0.8,0.5,1.4,0.8
		s1.2,0.6,2,0.8s1.7,0.4,2.7,0.4c1.1,0,2.1-0.2,2.9-0.5s1.6-0.7,2.2-1.2s1-1.1,1.3-1.8s0.5-1.5,0.5-2.2c0-0.7-0.1-1.3-0.4-1.8
		s-0.7-1-1.2-1.4s-1-0.8-1.7-1.2s-1.3-0.7-1.9-1.1s-1.3-0.8-1.9-1.3s-1.2-1-1.7-1.5s-0.9-1.3-1.2-2s-0.5-1.6-0.5-2.7
		c0-1.2,0.2-2.4,0.7-3.5s1.2-2,2.1-2.8s2-1.5,3.2-1.9s2.7-0.7,4.2-0.7c0.8,0,1.5,0.1,2.1,0.2s1.3,0.3,1.8,0.5s1,0.4,1.4,0.6
		s0.7,0.4,0.8,0.5s0.2,0.3,0.3,0.4S708.8,1245.9,708.8,1246.1z"/>
</g>
<g>
	<g opacity="0.13">
		<g>
			<path fill="#A4A280" d="M373.8,679.6c11.8-3.8,25.8-4.7,37.8-1.4c9.7,2.7,18.7,8.1,29.1,6.5c0.6-0.1,0.4-1.1-0.3-1
				c-12.3,1.9-23.3-6.3-35.2-7.9c-10.5-1.4-21.6-0.5-31.7,2.7C372.9,678.8,373.2,679.8,373.8,679.6L373.8,679.6z"/>
		</g>
	</g>
	<g opacity="0.13">
		<g>
			<path fill="#A4A280" d="M391.8,695.4c0.6,0,0.6-1,0-1C391.1,694.4,391.1,695.4,391.8,695.4L391.8,695.4z"/>
		</g>
	</g>
	<g opacity="0.13">
		<g>
			<path fill="#A4A280" d="M391.8,695.6c12.9-1.7,25.9-1.9,38.9-1.5c12.4,0.4,26.4-0.6,37.5,5.7c0.6,0.3,1.1-0.5,0.5-0.9
				c-10.3-5.8-22.7-5.3-34.2-5.7c-14.2-0.5-28.5-0.5-42.7,1.4C391.2,694.6,391.2,695.6,391.8,695.6L391.8,695.6z"/>
		</g>
	</g>
	<g opacity="0.13">
		<g>
			<path fill="#A4A280" d="M421.3,713.1c13.1-2.7,26.3-5.3,39.8-4.8c6.6,0.2,13.1,1.3,19.3,3.4c5.5,1.9,10.3,4,16.2,3.2
				c0.6-0.1,0.6-1.1,0-1c-7,0.9-12.9-2.4-19.4-4.2c-5.8-1.6-11.9-2.3-17.9-2.4c-12.9-0.2-25.6,2.4-38.2,4.9
				C420.4,712.3,420.6,713.2,421.3,713.1L421.3,713.1z"/>
		</g>
	</g>
	<g opacity="0.13">
		<g>
			<path fill="#A4A280" d="M444.3,728.3c12.4-2.6,25.2-3.2,37.9-3.7c12.9-0.5,24.9,1,36.2,7.7c0.6,0.3,1.1-0.5,0.5-0.9
				c-10.8-6.4-22.4-8.2-34.8-7.9c-13.4,0.4-27,1.1-40.1,3.8C443.4,727.5,443.7,728.4,444.3,728.3L444.3,728.3z"/>
		</g>
	</g>
	<g opacity="0.13">
		<g>
			<path fill="#A4A280" d="M461.6,744.3c0.6,0,0.6-1,0-1C460.9,743.3,460.9,744.3,461.6,744.3L461.6,744.3z"/>
		</g>
	</g>
	<g opacity="0.13">
		<g>
			<path fill="#A4A280" d="M461.6,744.4c12.9-0.8,25.7-0.3,38.6,0.8c6.1,0.5,12.2,1.2,18.3,2c7,0.8,14.6,1.2,20.1,6
				c0.5,0.4,1.2-0.3,0.7-0.7c-3.9-3.4-8.5-4.7-13.6-5.4c-6.6-1-13.2-1.7-19.7-2.3c-14.7-1.5-29.6-2.3-44.4-1.4
				C460.9,743.5,460.9,744.5,461.6,744.4L461.6,744.4z"/>
		</g>
	</g>
	<g opacity="0.13">
		<g>
			<path fill="#A4A280" d="M489.7,766.2c10.6-3.7,21.7-5.9,33-6.1c6-0.1,12.2,0.2,17.6,3.1c3.8,2,6.9,4.8,11.1,5.8
				c0.6,0.1,0.9-0.8,0.3-1c-5.3-1.2-9.1-5.3-14.2-7.1c-4.7-1.7-9.9-1.9-14.8-1.8c-11.4,0.2-22.5,2.4-33.3,6.2
				C488.8,765.4,489.1,766.4,489.7,766.2L489.7,766.2z"/>
		</g>
	</g>
	<g opacity="0.13">
		<g>
			<path fill="#A4A280" d="M503,783.2c9.9-2.2,20-3,30-2.2c5.3,0.5,10.6,1.4,15.7,2.7c4.8,1.3,10.4,2.5,13.9,6.3
				c0.4,0.5,1.2-0.2,0.7-0.7c-6.1-6.5-18.4-7.9-26.7-8.9c-11.3-1.4-22.7-0.7-33.9,1.8C502.1,782.4,502.4,783.4,503,783.2L503,783.2z
				"/>
		</g>
	</g>
	<g opacity="0.13">
		<g>
			<path fill="#A4A280" d="M516.6,803c10.8,0.6,21.7,0.9,32.6,0.7c11.1-0.2,20.9,0.8,29.1,9.1c0.5,0.5,1.2-0.2,0.7-0.7
				c-6.7-6.8-15.1-9.6-24.5-9.5c-12.6,0.1-25.2,0.2-37.9-0.6C516,801.9,516,802.9,516.6,803L516.6,803z"/>
		</g>
	</g>
	<g opacity="0.13">
		<g>
			<path fill="#A4A280" d="M532.5,823.2c5.7,0.8,11.3,0.9,17,0.5c7.6-0.5,13.3,1.5,19.6,5.7c8.3,5.4,16.7,11.7,27.1,11.3
				c0.6,0,0.6-1,0-1c-12.2,0.5-20.9-8.3-30.8-13.8c-10.1-5.6-21.6-2.2-32.6-3.7C532.1,822.1,531.9,823.1,532.5,823.2L532.5,823.2z"
				/>
		</g>
	</g>
	<g opacity="0.13">
		<g>
			<path fill="#A4A280" d="M551.9,847.2c10.6-3.1,19.7,4.4,29.6,6.9c5,1.3,10.2,1.7,14.9,4c4.5,2.3,7.8,5.9,10,10.3
				c0.3,0.6,1.2,0.1,0.9-0.5c-5.1-9.8-13.7-12.1-23.8-14.4c-10.6-2.4-20.5-10.6-31.8-7.3C551,846.4,551.2,847.4,551.9,847.2
				L551.9,847.2z"/>
		</g>
	</g>
	<g opacity="0.13">
		<g>
			<path fill="#A4A280" d="M573.1,873.4c13.4,4.7,33.2,3.3,38.4,19.7c0.2,0.6,1.2,0.4,1-0.3c-5.4-16.9-25.3-15.6-39.1-20.4
				C572.7,872.2,572.4,873.2,573.1,873.4L573.1,873.4z"/>
		</g>
	</g>
	<g opacity="0.13">
		<g>
			<path fill="#A4A280" d="M588.6,897.4c7.2,0.7,15.7,2.3,21.6,6.7c3.1,2.4,4.8,5.8,6.5,9.2c1,2,2,4,2.7,6.1
				c0.2,0.5,0.4,1.1,0.5,1.6c0.7,1.1,0.6,2.2-0.3,3.1c-0.4-0.5-1.1,0.2-0.7,0.7c1.2,1.3,0.7,1,2.4,1.5c0.3,0.1,0.7-0.2,0.6-0.5
				c-1-7.4-4.7-17.3-10.5-22.1c-6.1-5.1-15.2-6.7-22.9-7.4C587.9,896.3,587.9,897.3,588.6,897.4L588.6,897.4z"/>
		</g>
	</g>
	<g opacity="0.13">
		<g>
			<path fill="#A4A280" d="M605.4,922.7c5.4,3.5,8.9,8.9,10,15.2c0.1,0.6,1.1,0.4,1-0.3c-1.2-6.6-4.9-12.2-10.5-15.8
				C605.4,921.5,604.9,922.3,605.4,922.7L605.4,922.7z"/>
		</g>
	</g>
	<g opacity="0.13">
		<g>
			<path fill="#A4A280" d="M419.3,717.4c5.5,12.5,11,26,5.7,39.6c-0.2,0.6,0.7,0.9,1,0.3c5.4-13.8-0.2-27.6-5.8-40.3
				C419.9,716.3,419,716.8,419.3,717.4L419.3,717.4z"/>
		</g>
	</g>
	<g opacity="0.13">
		<g>
			<path fill="#A4A280" d="M440.4,733.4c2.5,12.7,6.6,26,6,39c0,0.6,1,0.6,1,0c0.6-13.1-3.5-26.5-6-39.3
				C441.2,732.5,440.3,732.7,440.4,733.4L440.4,733.4z"/>
		</g>
	</g>
	<g opacity="0.13">
		<g>
			<path fill="#A4A280" d="M459.3,748.8c1.7,7.7,3.5,15.3,5.2,23c1.5,6.4,6.8,19.1,1.6,24.6c-0.4,0.5,0.3,1.2,0.7,0.7
				c4.6-4.9,1.7-12.3,0.4-17.9c-2.3-10.2-4.6-20.4-7-30.6C460.2,747.9,459.2,748.1,459.3,748.8L459.3,748.8z"/>
		</g>
	</g>
	<g opacity="0.13">
		<g>
			<path fill="#A4A280" d="M485,770.2c-2.7,9.1-2.9,17-0.2,26.1c3.1,10.8,3.6,21.4,0.4,32.4c-0.2,0.6,0.8,0.9,1,0.3
				c2.5-8.5,3.1-17.3,1.4-25.9c-1-5-2.9-9.7-3.6-14.7c-0.8-6.1,0.3-12,2.1-17.8C486.1,769.9,485.2,769.6,485,770.2L485,770.2z"/>
		</g>
	</g>
	<g opacity="0.13">
		<g>
			<path fill="#A4A280" d="M498.1,789c-2.3,7.3,1.4,14.1,3.1,21.1c1.2,4.9,1.7,9.9,2,15c0.3,4.6,1.7,11.4-2.8,14.6
				c-0.5,0.4,0,1.2,0.5,0.9c5.7-4,3.6-13.4,3-19.3c-0.4-4.8-1.1-9.6-2.5-14.2c-1.7-5.9-4.3-11.6-2.4-17.9
				C499.3,788.7,498.3,788.4,498.1,789L498.1,789z"/>
		</g>
	</g>
	<g opacity="0.13">
		<g>
			<path fill="#A4A280" d="M518.1,804.3c-1.6,8.4-1.3,16.9-0.8,25.4c0.2,4.2,0.5,8.5,0.5,12.7c0,2.4,0.4,15-2.4,15.3
				c-0.6,0.1-0.6,1.1,0,1c4.6-0.5,3.4-15.9,3.4-19c-0.3-11.7-1.9-23.4,0.3-35.1C519.2,803.9,518.2,803.7,518.1,804.3L518.1,804.3z"
				/>
		</g>
	</g>
	<g opacity="0.13">
		<g>
			<path fill="#A4A280" d="M532.7,824.5c0.6,0,0.6-1,0-1C532.1,823.5,532.1,824.5,532.7,824.5L532.7,824.5z"/>
		</g>
	</g>
	<g opacity="0.13">
		<g>
			<path fill="#A4A280" d="M532.3,823.9c-2.1,9.9-3.7,19.5-1.9,29.6c0.5,2.9,1.2,5.9,1.2,8.9c0,3.1-1.2,5.6-1.7,8.6
				c-0.7,3.8,3.5,7.2,2.3,10.8c-0.2,0.6,0.8,0.9,1,0.3c1-2.9-0.9-4.1-1.7-6.8c-1.1-3.6,0.3-5.9,0.9-9.2c0.4-2.4,0.3-4.8,0-7.2
				c-0.6-5.2-1.9-10.2-1.8-15.5c0.1-6.5,1.5-12.8,2.8-19.1C533.4,823.6,532.4,823.3,532.3,823.9L532.3,823.9z"/>
		</g>
	</g>
	<g opacity="0.13">
		<g>
			<path fill="#A4A280" d="M557.8,847c-3.2-1.3-4.8,1.4-5.3,4.2c-0.9,5.3,0.7,9.6,3.1,14.2c4.1,8.1,3.5,15.3,0.4,23.4
				c-1.9,4.9-3.7,9.5-2.6,14.8c0.1,0.6,1.1,0.4,1-0.3c-1.9-9.2,5.4-16.9,5.5-25.9c0-3.5-0.9-7-2.3-10.3c-0.9-2-2.1-3.9-3-6
				c-0.7-1.8-1-3.7-1.2-5.6c-0.1-2.1-0.1-9.4,4.1-7.7C558.1,848.2,558.3,847.3,557.8,847L557.8,847z"/>
		</g>
	</g>
	<g opacity="0.13">
		<g>
			<path fill="#A4A280" d="M569.8,874.3c3.3,6.7,4.4,13.6,4.1,21c-0.3,6.8-0.1,14.3-1.5,21c-1.2,5.6-6.8,8.5-7.4,14.3
				c-0.5,5.1,1.2,10.9,2.3,15.8c0.1,0.6,1.1,0.4,1-0.3c-0.9-3.9-1.9-7.9-2.2-11.9c-0.4-5,1.4-7.6,4.3-11.3c3.1-3.8,3.3-8.4,3.6-13.1
				c0.8-12.4,2.4-24.4-3.3-36C570.4,873.3,569.6,873.8,569.8,874.3L569.8,874.3z"/>
		</g>
	</g>
	<g opacity="0.13">
		<g>
			<path fill="#A4A280" d="M587.6,898c-3.4,13.8,2.4,27,4.8,40.4c1.6,8.6,1.2,16.5-2.6,24.5c-3.5,7.4-5.8,14-5.2,22.3
				c0,0.6,1,0.6,1,0c-0.7-9.7,3-16.3,6.4-24.9c2.5-6.1,2.7-12.6,1.8-19.1c-2-14.3-8.9-28.3-5.4-43
				C588.7,897.6,587.8,897.4,587.6,898L587.6,898z"/>
		</g>
	</g>
	<g opacity="0.13">
		<g>
			<path fill="#A4A280" d="M603.2,925c0.6,0,0.6-1,0-1C602.6,924,602.6,925,603.2,925L603.2,925z"/>
		</g>
	</g>
	<g opacity="0.13">
		<g>
			<path fill="#A4A280" d="M601.7,927.3c-0.7,7.3,0.9,14.3,2,21.5c1.3,8.4,1.8,17,1.4,25.5c-0.4,8.5-1.7,17-3.8,25.2
				c-1.9,7.5-4.1,18.8-12.2,21.9c-0.6,0.2-0.3,1.2,0.3,1c6-2.3,8.4-8.1,10.3-13.8c2.8-8.1,4.6-16.6,5.6-25.1
				c1.1-9.1,1.2-18.3,0.3-27.5c-1-9.6-3.9-19-2.9-28.6C602.8,926.6,601.8,926.6,601.7,927.3L601.7,927.3z"/>
		</g>
	</g>
	<g>
		<g>
			<g>
				<path fill="#61672D" d="M343.1,762.5c4.8-3.5,9.6-7.1,14.4-10.6c8.7-6.4,17.4-12.8,26.7-18.3c27.9-16.6,60.2-25.1,87.1-43.2
					c19.2-12.9,35.9-30.8,57.9-37.8c2.4,4.6-2.4,9.5-6.6,12.4c-7.9,5.6-15.8,11.1-23.7,16.7c-14.3,10.1-28.6,20.2-44.4,27.6
					c-17.8,8.4-37.3,13.4-53.6,24.3c-10.3,6.9-19.1,16-29.8,22.3c-10.7,6.3-24.5,9.5-35.4,3.5"/>
			</g>
			<g>
				<g>
					<path fill="#61672D" d="M343.4,763c13-9.5,25.8-19.5,39.5-27.9c11.9-7.3,24.7-13,37.5-18.6c12.8-5.5,25.6-10.9,37.8-17.5
						c11.4-6.2,21.6-13.8,31.7-21.8c10.9-8.5,21.9-17.3,34.9-22.4c1.6-0.6,3.3-2.1,4.4,0.3c0.9,2-2.4,5.4-3.6,6.7
						c-2.8,2.8-6.4,4.9-9.6,7.2c-6.3,4.4-12.5,8.9-18.8,13.3c-11.8,8.3-23.7,16.6-36.5,23.4c-12.4,6.5-25.7,11-38.6,16.4
						c-14.1,6-25.8,14.1-37.7,23.7c-13.3,10.7-31.1,22-48.4,13.2c-0.7-0.4-1.3,0.7-0.6,1.1c12.3,6.2,26.4,2.6,37.5-4.4
						c13.3-8.3,24-19.8,38.1-27.1c14.4-7.5,30.1-12,44.7-19c15.2-7.3,29.1-17,42.8-26.7c8.1-5.7,16.4-11.3,24.4-17.2
						c4.2-3.1,9-7.5,6.9-13.2c-0.1-0.3-0.4-0.6-0.8-0.4c-15.6,5.2-28.5,15.3-41.3,25.4c-14.3,11.3-29.1,20.7-45.7,28.3
						c-16.3,7.5-33.2,13.9-49.1,22.3c-17.9,9.4-33.9,22-50.2,34C342.1,762.4,342.8,763.5,343.4,763L343.4,763z"/>
				</g>
			</g>
		</g>
		<g>
			<path fill="#733D59" d="M453.1,656c4.1-5.1,4.1-12.4,3.9-19c-0.1-1.8-0.2-3.7-1.1-5.2c-0.8-1.3-2.1-2.1-3.3-3
				c-2.7-1.8-5.7-3.7-9-3.5c-3,0.2-5.6,2.1-8,3.9c-3.5,2.7-7.2,5.7-7.9,10.1c-0.2,1.5,0,3-0.3,4.4c-0.6,2.7-2.8,4.9-5.1,6.3
				c-2.4,1.5-5,2.4-7.4,4c-0.9,0.5-1.7,1.2-2,2.2c-0.2,0.9,0,1.8,0.4,2.5c1,2,2.8,3.6,4.9,4.4c1.9,0.7,4,0.7,5.9,1.6
				c1.9,0.8,3.5,3,2.6,4.8c-0.4,0.9-1.4,1.7-1.1,2.7c0.1,0.5,0.5,0.8,0.8,1.1c3,2.4,7.5,1.4,10.9-0.5s6.3-4.6,10.1-5.6
				c0.8-0.2,1.7-0.3,2.4-0.8c1.3-0.9,1.6-2.5,1.9-4.1c0.4-2.2,0.8-4.4,1.1-6.5"/>
		</g>
		<g>
			<g>
				<path fill="#66384D" d="M418.2,370.1c-2.5-3.4-5.2-6.8-8.6-9.3c-3.5-2.5-7.8-3.9-12-3c-4.1,0.9-7.8,4.6-7.8,8.8
					c0,2.1,0.8,4.4-0.2,6.3c-0.9,1.7-3.1,2.7-3.7,4.6c-0.5,1.8,0.8,3.7,2.4,4.6c1.6,0.9,3.5,1.1,5.3,1.5c3.8,0.8,8,3.6,7.6,7.5
					c-0.1,0.9-0.4,1.8-0.3,2.7c0.2,1.7,1.9,3,3.6,3.2s3.5-0.4,5.1-0.9c2.7-0.9,5.8-2.3,6.5-5.1c0.7-2.5-0.9-5.4,0.4-7.7
					c1.3-2.3,5.2-2.8,5.7-5.4c0.5-2.4-2.2-4.1-4-5.7c-1.9-1.6-3.3-3.7-4-6.1"/>
			</g>
			<g>
				<g>
					<path fill="#66384D" d="M420.4,368.8c-4-5.4-8.4-10.8-15.1-12.9c-5.6-1.8-12.1-0.6-15.7,4.4c-1.9,2.6-1.9,4.9-2.2,8
						c-0.2,2.5-0.6,3.5-1.9,5.6c-0.7,1-1.6,1.7-1.9,3c-1.7,6.2,5.2,7.9,9.5,9.1c2.6,0.7,4.4,1.4,5.2,4.1c0.5,1.6,0,2.7,0.3,4.3
						c0.4,2.2,2.1,3.8,4.1,4.6c4.4,1.7,11.8-1.2,14.6-4.8c2.1-2.7,1.1-5,1.4-8c0.2-3.4,3.9-3.5,5.5-6.1c3.6-6-5.6-10-7.3-14.7
						c-1.1-3-5.9-1.7-4.8,1.3c0.6,1.7,1.3,3.3,2.4,4.8c1.1,1.5,3.3,2.6,4.2,4c1.8,3.1-3.6,4.8-4.6,7.7c-0.7,2.1,0.4,4.1-0.1,6.1
						c-0.3,1.5-1.9,2.8-3.1,3.5c-2.2,1.3-3.3,1.3-5.3,0c-2.6-1.7-1.2-2.3-2.2-4.9c-0.5-1.4-1.4-2.6-2.5-3.6
						c-2.7-2.4-5.8-2.9-9.2-3.8c-1.9-0.5-3.3-1.4-2.2-3.7c0.3-0.5,1.1-1,1.5-1.5c0.9-1.2,1.5-2.4,1.6-4c0.3-3.1-1.1-5.6,1.2-8.4
						c2.1-2.6,5.1-3.3,8.2-2.8c6.3,0.9,10.6,6.3,14.1,11.1C418,373.9,422.3,371.4,420.4,368.8L420.4,368.8z"/>
				</g>
			</g>
		</g>
		<g>
			<path fill="#63692D" d="M312.9,510.3c5.3-15.1,10.7-30.6,20.6-43.1c4.8-6,10.4-11.2,16.1-16.3c20.3-18.5,40.6-37,60.9-55.5
				c1.4-1.3,3.1-2.6,4.9-2.3c2.7,0.5,3.5,4.1,3.2,6.9c-1.6,14.4-13.9,24.7-25,34c-24.3,20.3-47.1,42.4-68.1,66.1
				c-3.9,4.4-7.8,8.9-13.1,11.4"/>
		</g>
		<g>
			<g>
				<g>
					<path fill="#6D2E47" d="M369.8,418.9c16.1-2.7,30.2-12.3,43-22.3c-3.4,0.2-6.4-2.2-8.5-4.9c-2.1-2.7-3.8-5.7-6.5-7.8
						c-3.9-3-9.2-3.3-14.1-3.3c-5.9,0.1-12.1,0.6-17,4c-4.6,3.2-7.4,8.9-7,14.5s3.8,10.9,8.8,13.5c1.2,0.7,2.7,1.2,3.3,2.5
						c0.7,1.2-0.2,3.3-1.5,3"/>
				</g>
				<g>
					<g>
						<path fill="#6D2E47" d="M370.5,421.3c16.8-3.1,30.9-12.7,44.1-23c1.8-1.4,0.2-4.2-1.8-4.3c-5.5-0.3-7.8-6.4-11.1-9.9
							c-2.5-2.7-5.6-4.5-9.1-5.3c-7.7-1.8-17.9-1.3-25,2.3c-6.5,3.4-10.7,10.6-10.3,17.9c0.2,3.5,1.4,6.9,3.4,9.7
							c1.5,2.1,6,7.4,9,6.8c-3.2,0.6-1.8,5.4,1.3,4.8c2.1-0.4,3.6-2.1,3.6-4.4c0-3-2.6-4.3-4.8-5.6c-8.8-5.3-10.5-18.3-1.1-24.2
							c6.7-4.2,21-5.3,27.6-0.4c6.1,4.5,7.7,12.7,16.5,13.1c-0.6-1.4-1.2-2.8-1.8-4.3c-12.6,9.8-26,18.8-41.9,21.7
							C366,417.1,367.3,421.9,370.5,421.3L370.5,421.3z"/>
					</g>
				</g>
			</g>
			<g>
				<path fill="#C0647E" d="M373.4,396.4c5.3-0.5,10.7-0.9,16-1.4c4.7-0.4,10.5-1.8,11.3-6.4c0.3-1.5-0.1-3,0.5-4.4
					c0.8-1.9,3-2.9,5.1-2.7c2.1,0.2,3.9,1.2,5.7,2.2c4,2.2,8.6,5.2,8.7,9.8c0.1,3.4-2.5,6.3-4.2,9.3c-1.2,2.1-2,4.4-1.8,6.8
					c0.2,3,1.6,6.8-1,8.2c-2.1,1.2-4.7-1-5.4-3.3c-0.7-2.3-0.3-4.9-1-7.2c-1.5-4.9-7.5-7.2-12.6-6.8c-5.2,0.4-10,2.6-15,3.6
					c-5.1,1-11.1,0.3-14.2-3.8"/>
			</g>
		</g>
		<g>
			<g>
				<path fill="#757F35" d="M359.9,853.3c26.6-34.4,53.6-68.5,81-102.3c6.3-7.7,12.6-15.5,19.3-22.9c14.7-16.1,31.3-30.5,49.4-42.7
					c-2.2,19.6-22.2,31.1-36.7,44.6c-24.8,23.2-36.1,58.1-60.5,81.7c-17.3,16.6-40.5,26.9-55.2,45.9"/>
			</g>
			<g opacity="0.92">
				<g>
					<path fill="#CFD283" d="M397.2,824.7c-3.4,0.6-7-1.1-8.9-4.2c-0.4-0.6-0.7-1.2-1.3-1.4c-0.8-0.3-1.6,0.5-2.2,1.2
						c-4.2,5.1-6.9,11.5-10.5,17.1c-5.1,8-12,14.6-19.8,19c-1.4,0.8-2.9,1.6-3.7,3c-0.8,1.4-0.6,3.8,0.8,4.4
						c1.3,0.6,2.8-0.5,3.9-1.6c10.7-10.4,21.3-21.5,34.1-28.4c4-2.2,8.9-4.9,9.1-9.8"/>
				</g>
				<g>
					<g>
						<path fill="#CFD283" d="M397.2,824.1c-3.9,0.4-5.7-1.2-8.4-3.9c-0.3-0.3-0.4-0.9-0.8-1.1c-1.3-0.6-1-1-2.7-0.2
							c-2.2,1.1-4.2,5.3-5.3,7.3c-1.9,3.1-3.5,6.4-5.4,9.5c-4.4,7.2-10.1,13.4-17.1,18.1c-2.7,1.8-8.1,3.6-7.9,7.8
							c0.2,3.1,2.7,3.4,5,2.1c3.1-1.7,6-5.8,8.6-8.3c2.9-2.8,5.8-5.6,8.8-8.3c5.9-5.2,12.1-9.5,18.9-13.4c4.1-2.3,7.7-4.9,8.3-9.8
							c0.1-0.8-1.2-0.8-1.2,0c-0.8,6.5-8.3,8.8-13.1,11.8c-4.4,2.7-8.4,5.9-12.3,9.3c-4.1,3.6-8.1,7.4-12,11.2c-1,1-2.1,2-3.1,3
							c-1.7,1.6-2.1,3.8-3.1,0.3c-0.8-2.8-0.4-2.2,1.8-3.5c1.1-0.7,2.3-1.4,3.3-2.2c8.1-5.8,13.9-13.4,18.7-22
							c1.4-2.4,2.7-4.9,4.2-7.3c0.6-1,1.8-3.5,2.8-3.9c3.2-1.4,2.1,0.4,3.5,1.3c3,2,4.6,3.6,8.6,3.3C398,825.2,398,824,397.2,824.1
							L397.2,824.1z"/>
					</g>
				</g>
			</g>
			<g opacity="0.33">
				<g>
					<path fill="#7F7F53" d="M375.5,836.6c11.2-10.6,22.5-21.3,32.4-33.1c4.6-5.5,8.9-11.2,12.7-17.3c4.5-7.2,8.5-14.5,14.2-20.9
						c11.1-12.3,23.7-23.4,35.4-35.1c12.2-12.2,24.3-24.6,36.1-37.2c0.6-0.6-0.3-1.5-0.9-0.9c-11.7,12.3-23.5,24.5-35.5,36.5
						c-11.9,12-24.8,23.2-36.1,35.8c-10.2,11.4-16.6,25.7-26.4,37.5c-10.1,12.1-21.5,23-33,33.8C374,836.3,374.9,837.1,375.5,836.6
						L375.5,836.6z"/>
				</g>
			</g>
			<g opacity="0.33">
				<g>
					<path fill="#7F7F53" d="M505.2,693.3c-48.3,30.6-68.5,87.9-109.2,126.1c-0.6,0.6,0.3,1.4,0.9,0.9
						c40.6-38.2,60.8-95.4,109-125.9C506.5,693.9,505.9,692.8,505.2,693.3L505.2,693.3z"/>
				</g>
			</g>
		</g>
		<g>
			<path fill="#8F8479" d="M298.6,279.5c-4.9-3.5-11,3.3-11.9,10.8c-0.9,7.5,1.5,14.8,3.6,21.8c16.1,55,10.9,116.6,13.6,175.7
				c1.2,27.7,4.2,55.1,7.2,82.5c5.4,49.6,10.8,99.2,16.3,148.8c4.3,39.1,8.6,78.3,9.8,117.9c0.6,17.5,0.5,35.2,2.9,52.5
				c3.2,22.8,10.4,44,16.1,65.8c9.4,35.8,14.8,73.6,16,111.7c6.9-2.9,9.3-14.3,10-24.1c3.9-56.9-16.4-111.1-25-167.1
				c-3.5-23.1-5.1-46.6-6.7-70.1c-6.3-89.4-14.3-178.7-27.7-266.6c-2.2-14.2-4.5-28.5-5.1-43c-0.7-16.8,0.8-33.6,1.6-50.4
				c1.1-22.9,0.8-45.8,0.6-68.7c-0.2-15-0.4-30.1-3.3-44.6c-4.1-20.4-13.4-38-22.6-55"/>
		</g>
		<g>
			<g>
				<path fill="#63692D" d="M307.8,595.1c-2.2-5.9-7.6-9.9-12.8-13.4c-21-14.5-43-27.7-65.6-39.5c-18.8-9.8-39.4-18.9-60.4-16.3
					c4.5,8.5,14.3,12.5,23.3,16c25.3,10.1,49.8,22.6,71.6,38.9c5.5,4.1,10.9,8.6,17.1,11.7c9.3,4.7,20.3,6.3,28.1,13.2
					c4.6,4,9.7,10.1,15.4,8c-6.1-10.5-13.9-20-23-28.1"/>
			</g>
			<g opacity="0.36">
				<g>
					<path fill="#A1A764" d="M191.1,528.4c-6.5-1.4-12.9-2.8-19.4-4.2c-0.6-0.1-1.2-0.2-1.7,0c-0.6,0.3-0.9,1-1,1.6
						c-0.6,4,3.8,6.7,7.6,8.2c3.6,1.5,7.1,2.9,10.7,4.4c0.4,0.2,0.8,0.3,1.2,0.3c0.8-0.1,1.3-0.9,1.8-1.5c3-3.7,8.9-2.4,13.4-3.8
						c0.7-0.2,1.5-0.6,1.7-1.3c0.6-1.5-1.5-2.7-3.2-3c-4.6-0.8-9.2-1.4-13.8-1.9"/>
				</g>
				<g>
					<g>
						<path fill="#A1A764" d="M191.2,528.1c-6.2-1.3-13.1-3.9-19.4-4.2c-1.7-0.1-2.5,0-3,1.8c-0.6,2.5,1.6,4.8,3.4,6.1
							c1.9,1.4,4,2.2,6.2,3.1c2.7,1.1,6.1,3.3,8.9,3.6c1.6,0.2,0.8,0.5,2.4-0.3c-0.2,0.1,1.8-1.8,1.8-1.8c1.3-1,2.8-1.5,4.4-1.8
							c2-0.4,8.7,0.1,9.8-2.5c1.9-4.7-14.8-5-17.2-5.3c-0.3,0-0.3,0.5,0,0.5c3.5,0.4,6.9,0.8,10.3,1.3c0.9,0.1,1.7,0.3,2.6,0.4
							c1.9,0,2.2,1.4,1,4.2c-0.7,0.6-3,0.4-3.9,0.5c-1.7,0.2-3.5,0.3-5.2,0.9c-1.7,0.7-2.8,2.1-4.5,2.7c-2.9,1-6.6-1.5-9.4-2.7
							c-1.7-0.7-3.5-1.3-5.2-2.3c-2.8-1.6-3.4-1.9-2.9-5.3c0.5-3.9,1-2.8,4.3-2c1.6,0.3,3.2,0.7,4.9,1c3.6,0.8,7.1,1.5,10.7,2.3
							C191.4,528.7,191.5,528.2,191.2,528.1L191.2,528.1z"/>
					</g>
				</g>
			</g>
		</g>
		<g>
			<path fill="#61672D" d="M377.5,949.9c6.2-25.2,18.5-48.9,35.4-68.7c7.1-8.2,14.9-15.8,22.5-23.5c30.6-31,57.8-65.2,81.2-101.9
				c-3.1-3-8.3-0.5-11.7,2.2c-24.8,20.2-38.6,51.3-62.2,72.9c-12.1,11.1-26.7,19.5-37.3,32.1c-10.8,12.7-16.7,28.6-22.5,44.2
				c-5.9,15.9-11.8,33.4-6.4,49.5"/>
		</g>
		<g>
			<path fill="#6C7531" d="M336.6,749.2c23.2-39.6,46.4-79.2,69.6-118.9c4.2-7.2,8.4-14.4,11.6-22.2c8.2-20.2,9.2-43.7,22.2-61.1
				c1.6-2.1,4-4.2,6.4-3.3c6.6,21.1-2.5,43.6-11.4,63.8c-15.3,34.9-31.1,70.5-57.3,98.2c-16,16.9-36.1,31.4-44.4,53.2"/>
		</g>
		<g>
			<path fill="#6C7531" d="M327.2,596.4c2.9-19.7,5.8-39.7,13.6-58.1c4.9-11.6,11.7-22.3,18.4-33c20.2-32,41.8-65.4,75-83.8
				c2.2-1.2,5-2.3,7-0.7c-3,13.5-12.9,24.3-21.8,34.9c-17.9,21.2-33.4,44.4-46.3,68.9c-5.8,11-11,22.3-18.3,32.4
				c-11,15.1-26.8,27.9-30.5,46.2"/>
		</g>
		<g>
			<path fill="#63692D" d="M311.7,553.8c-1.9-12.9-15.8-19.9-27.9-24.5c-39.9-15.2-81-27.3-122.8-36.2c-6-1.3-13.8-5.3-11.7-11.1
				c1.8-5,8.9-4.6,14.1-3.2c35.8,9.8,71.3,20.7,106.5,32.8c10.5,3.6,21.1,7.4,29.8,14.3c8.6,6.9,15,17.7,13.8,28.7"/>
		</g>
		<g>
			<path fill="#63692D" d="M277,313.3c-32.4-20.1-64.8-40.3-97.2-60.4c-4-2.5-8.2-5.2-10.4-9.4c7.1-5.4,17.3-2.1,25.3,1.9
				c19.8,9.9,38.1,22.6,55.7,36c13.3,10.1,27.2,22.2,29.6,38.7"/>
		</g>
		<g>
			<path fill="#63692D" d="M290.8,288.1c1.6-26.8-4.8-54.1-18.1-77.5c-2.6-4.5-7.2-9.5-12-7.6c-2.9,1.2-4.4,4.6-4.2,7.7
				c0.1,3.1,1.6,6,2.9,8.8c10.2,20.6,20.4,41.2,30.5,61.7c1.1,2.2,1.7,5.7-0.7,6.3"/>
		</g>
		<g>
			<path fill="#7F7F6A" d="M368.2,969.7c1.1,10.9,4.7,21.2,6.3,32c0.7,4.8,1.3,9.7,2.7,14.4c1.1,3.9,2.9,7.6,3.6,11.6
				c0.5,2.7,0.7,5.6,1.1,8.6c2.1-32.9-3.9-64.9-10.9-96.9C367.8,949.2,367.2,959.4,368.2,969.7z"/>
		</g>
		<g>
			<path fill="#7F7F6A" d="M356.6,952.6c6.9-21.9,2.8-43.4-5.1-64.9c-4.1-11-8.7-21.8-12.7-32.8c-0.6-1.6-1-3.1-1.4-4.7
				c0.3,11.4,0.9,22.7,2.4,33.9c3.2,22.8,10.4,44,16.1,65.8C356.1,950.8,356.4,951.7,356.6,952.6z"/>
		</g>
		<g>
			<path fill="#7F7F6A" d="M357.7,875.3c-0.3-1.6-0.5-3.3-0.8-4.9c-1.4-9.3-2.5-18.6-3.4-28C341.3,850.6,349.4,863.6,357.7,875.3z"
				/>
		</g>
		<g>
			<path fill="#7F7F6A" d="M328.3,726c3.6-17.1,2.6-34.8,0.7-52.4c-1.2-11.3-2.8-22.5-3.4-33.9c-0.6-11.5-1.5-22.6-3.8-33.9
				c-3.9-19.2-9.1-38.6-5.2-58.3c1.2-5.9,3.1-11.7,5.2-17.5c-2-13-4-26.1-4.6-39.3c-0.7-16.8,0.8-33.6,1.6-50.4
				c1.1-22.9,0.8-45.8,0.6-68.7c-0.2-15-0.4-30.1-3.3-44.6c-4-19.9-12.9-37.1-21.9-53.7c-3.8,0.9-7.3,6-8,11.6
				c-0.9,7.5,1.5,14.8,3.6,21.8c16.1,55,10.9,116.6,13.6,175.7c1.2,27.7,4.2,55.1,7.2,82.5c5.4,49.6,10.8,99.2,16.3,148.8
				C327.5,717.9,327.9,721.9,328.3,726z"/>
		</g>
		<g>
			<g>
				<path fill="#D1B2BB" d="M441.3,713.4c-0.1-6-0.5-12.7-5.1-16.6c-1.6-1.4-3.5-2.2-5.4-3.1c-8.5-3.7-17.5-7.4-26.8-7.2
					c-1.9,0-3.8,0.3-5.3,1.4c-2.7,2.1-2.5,6.2-2.1,9.7c1,7.6,1.9,15.1,2.9,22.7c0.4,2.8,0.7,5.7,2.1,8.3c4,7.8,15.7,10.3,17.9,18.8
					c0.7,2.8,0.6,6.3,3.1,7.6c0.4,0.2,0.8,0.3,1.1,0.2c0.7-0.2,1-0.8,1.3-1.4c2.7-6.4-0.8-13.7-4.9-19.3c-4.1-5.6-9-11.4-9.2-18.4
					c9.3,2.5,20.2,4.8,27.8-1.1c0.8-0.6,1.4-2.1,0.4-2.4"/>
			</g>
			<g>
				<g>
					<path fill="#D1B2BB" d="M441.9,713.4c-0.1-6-0.5-13-5.4-17.2c-3.1-2.7-7.5-4-11.3-5.5c-4.6-1.8-9.3-3.5-14.2-4.3
						c-5.2-0.8-13-1.8-14.9,4.5c-1.1,3.6,0,7.9,0.4,11.5c0.7,5.4,1.4,10.7,2,16.1c0.9,7.2,2.3,12.3,8.2,16.9c3,2.3,6.4,4.3,9,7.1
						c2.9,3.2,2.6,6.5,4.1,10.3c2.2,5.4,5.9,2.6,6.5-1.8c1.1-8.2-4.8-15.1-9.1-21.3c-1.4-2-2.8-4-3.8-6.2c0,0.1-1.6-3.4-1.5-4.3
						c0.3-2.8,1-1.7,3.3-1.2c4.3,1,8.8,1.7,13.2,1.4c2.4-0.2,14.8-2.8,11.1-7c-0.5-0.6-1.4,0.3-0.9,0.9c1.5,1.7-6.3,4.3-6.8,4.4
						c-2.4,0.6-4.8,0.7-7.3,0.5c-4.6-0.2-9.1-1.4-13.6-2.6c-0.4-0.1-0.8,0.2-0.8,0.6c0.5,6.2,3.7,11.1,7.3,16.1
						c1.9,2.7,3.9,5.3,5.3,8.2c0.9,1.9,1.7,3.9,2.1,5.9c0.1,0.5,0.9,10.6-3.6,6.8c-1.2-1-1.3-5.6-1.9-7.1c-0.8-2.1-2.1-3.7-3.7-5.3
						c-3.7-3.6-8.5-5.7-11.9-9.6c-5.2-6-4.6-16.5-5.6-24c-0.5-3.8-1.2-7.6-1.4-11.4c-0.2-3,0-4.2,2.3-6.3c2.6-2.4,4.7-2.3,8.1-2.1
						c8,0.6,15.7,3.7,23,7c4,1.8,7.2,3.9,8.8,8.3c1.2,3.5,1.3,7.3,1.4,10.9C440.7,714.2,442,714.2,441.9,713.4L441.9,713.4z"/>
				</g>
			</g>
		</g>
		<g>
			<g>
				<path fill="#D1B2BB" d="M434,695.6c7.4,3.7,16.5,1.3,24.3,4.1c8.5,3,13.9,11.5,17,20c-6.3-0.2-13.3-0.7-17.8-5.2
					c-1.4-1.4-2.5-3.1-3.8-4.6c-3.2-3.4-8.1-5.2-12.7-4.6"/>
			</g>
			<g>
				<g>
					<path fill="#D1B2BB" d="M433.7,696.1c6.8,3.1,14.1,1.8,21.2,3.3c8.3,1.7,13.9,7.9,17.5,15.2c0.6,1.1,2.5,3.3,1.3,4.3
						c-0.7,0.7-6.6-0.6-7.2-0.8c-4.4-0.9-7.7-2.9-10.5-6.4c-4-4.8-8.6-7.5-15-7.1c-0.8,0.1-0.8,1.3,0,1.2c5-0.4,9.4,1.2,12.7,5
						c1.9,2.1,3.3,4.4,5.7,5.9c4.6,3,10.5,3.2,15.8,3.4c0.4,0,0.7-0.4,0.6-0.8c-2.6-7-6.4-14-12.9-18.2c-8.7-5.7-19.5-2.1-28.7-6.2
						C433.6,694.7,433,695.8,433.7,696.1L433.7,696.1z"/>
				</g>
			</g>
		</g>
		<g>
			<g>
				<path fill="#D1B2BB" d="M410.7,634.4c-4.8,4.2-8.3,10.3-8.8,16.7s2.2,13.2,7.5,16.9c3.1,2.2,6.9,3.3,9.9,5.6
					c3.3,2.5,5.5,6.4,5.9,10.5c4-4.6,2.8-11.9-0.2-17.1s-7.7-9.6-10.5-14.9c4.3-1.8,8.8-3.8,11.3-7.7c2.2-3.5,2.4-7.8,3.8-11.6
					c1.4-3.8,5.2-7.5,9.1-6.3c-12.2-3.6-26.3,0.8-34.3,10.6"/>
			</g>
			<g>
				<g>
					<path fill="#D1B2BB" d="M410.3,633.9c-7,6.4-11.1,16-7.9,25.4c1.4,4,3.9,7.3,7.4,9.6c6.7,4.4,13.5,6.2,14.9,15.3
						c0.1,0.6,0.9,0.5,1.1,0.1c7.6-10.1-2.4-20.5-8.1-28.5c-0.8-1.1-2.4-2.5-1.5-3.9c0.3-0.5,3.6-1.7,4.2-2.1c1.8-1.1,3.6-2.4,5-4
						c4.1-5.1,3.3-20.7,13.1-18.9c0.8,0.1,1.1-1,0.3-1.2c-12.8-3.4-26.3,0.7-35,10.7c-0.5,0.6,0.4,1.5,0.9,0.9
						c8.3-9.7,21.4-13.7,33.7-10.4c0.1-0.4,0.2-0.8,0.3-1.2c-4.7-0.9-8.1,2.5-9.9,6.7c-1.4,3.3-1.5,7-3.1,10.2
						c-2.4,4.7-7,6.8-11.7,8.8c-0.3,0.1-0.4,0.6-0.2,0.9c5.2,9,19.2,20.3,10.8,31.4c0.4,0,0.8,0.1,1.1,0.1c-0.6-3.8-2.1-7.2-4.9-9.8
						c-3.7-3.5-9.1-4.5-12.8-8c-9.5-9.2-5.7-23.2,3-31.3C411.8,634.3,410.9,633.4,410.3,633.9L410.3,633.9z"/>
				</g>
			</g>
		</g>
		<g>
			<g>
				<path fill="#D1B2BB" d="M438.6,625.9c4-2.8,9.8-0.6,13.2,3s5.3,8.2,8.5,12c3.2,3.7,8.5,6.5,12.9,4.3c-3.5,2.4-7.1,4.8-10.6,7.2
					c-0.4,0.3-1,0.6-1.5,0.5c-0.6-0.1-1-0.7-1.3-1.3c-2.2-4.3-3.4-9-3.5-13.8c-0.1-1.8,0-3.8-0.8-5.4c-0.6-1.3-1.7-2.3-2.8-3.1
					c-5.5-3.9-13.3-4.1-18.9-0.4"/>
			</g>
			<g>
				<g>
					<path fill="#D1B2BB" d="M438.9,626.4c15.3-8.5,18,25.5,34.4,19.4c-0.2-0.4-0.3-0.8-0.5-1.1c-2.8,1.9-5.6,3.8-8.4,5.7
						c-1.4,0.9-2.5,2.1-4.2,1c-0.9-0.6-2.1-5.2-2.4-6.6c-1.1-4.2,0.1-10.2-2.7-14c-4.9-6.6-15.4-6.2-21.8-2.5
						c-0.7,0.4-0.1,1.5,0.6,1.1c5.6-3.3,14.3-3.8,19.3,1.2c2.9,2.9,2.1,7.1,2.6,10.8c0.3,2.4,0.9,4.8,1.8,7.1c0.6,1.7,1.3,4.7,3.4,5
						c1.4,0.2,3-1.5,4-2.1c2.8-1.9,5.6-3.8,8.4-5.7c0.5-0.4,0.2-1.4-0.5-1.1c-15.7,5.8-18.3-28.4-34.7-19.3
						C437.6,625.7,438.2,626.8,438.9,626.4L438.9,626.4z"/>
				</g>
			</g>
		</g>
		<g>
			<path fill="#D1B2BB" d="M346.2,387.3c3.7-5,7.6-10.2,13.1-13.2c3.6-1.9,7.7-2.8,11.8-3.4c10.3-1.6,20.9-1.9,31.3-0.9
				c0.9,0.1,2,0.3,2.2,1.2c0.2,0.8-0.5,1.5-1.1,2c-9.9,8.6-21,15.8-33,21.1c-0.8,0.3-1.6,0.7-2,1.5c-0.6,1.2,0.1,2.6,0.9,3.8
				c2.7,3.9,5.5,7.8,8.4,11.5c3.9,5,9.8,10.3,15.8,8.1c-5.2,5.5-11.3,11.3-18.9,11.2c-5.6-0.1-10.6-3.6-15.1-6.9
				c-5.8-4.3-11.8-8.8-15.5-15c-3.7-6.2-4.6-14.7-0.3-20.4c1.4-1.8,3.4-3.4,5.7-3.4"/>
		</g>
		<g>
			<g>
				<path fill="#757F35" d="M372.3,983.7c4.3-13.7,16.1-23.8,28.2-31.7c12.1-7.8,25.3-14.4,35.3-24.8c8.1-8.4,13.8-18.7,19.8-28.7
					c19.6-32.5,44.2-61.7,68.8-90.6c2-2.3,5.4-4.7,7.6-2.7c1,1,1.2,2.6,1.1,4c-0.7,9.2-7.8,16.3-13.9,23.3
					c-27.3,31.3-39.7,74.9-72,101.2c-8.4,6.9-17.9,12.3-26.7,18.5c-11.9,8.4-22.8,18.4-32.2,29.5c-2.7,3.2-5.7,6.8-9.9,7.5
					c-4.2,0.7-9-3.8-6.8-7.5"/>
			</g>
			<g opacity="0.53">
				<g>
					<path fill="#A1A764" d="M531.9,806.1c-2.2-2.1-5.6,0.4-7.6,2.7c-24.6,28.9-49.2,58.1-68.8,90.6c-5.3,8.8-10.4,17.9-17.1,25.7
						c0.9,0.3,1.7,0.7,2.6,1.3c3.7,2.6,6,4.1,11,3.1c0.4-0.1,0.8-0.2,1.2-0.3c27.8-26.6,40.3-66.6,65.9-95.8
						c6-6.9,13.2-14.1,13.9-23.3C533.1,808.7,533,807.1,531.9,806.1z"/>
				</g>
			</g>
		</g>
		<g>
			<path fill="#6C7531" d="M357.9,927.5c-3-11-6.5-21.8-9.9-32.7c-11.9-37.5-24-75.4-44.9-108.7c-10.8-17.2-23.8-33.1-38.6-47
				c-4.9-4.6-11.1-9.3-17.7-7.9c1.1,17.9,9.4,34.6,19.4,49.5c10,14.9,21.8,28.5,31.3,43.7c14.5,23.4,23,49.9,32.5,75.8
				c2.4,6.5,5.1,13.3,10.7,17.4c3.7,2.7,8.3,3.9,12,6.5s6.6,7.6,4.5,11.7"/>
		</g>
		<g opacity="0.38">
			<g>
				<path fill="#CFD283" d="M259.2,735.3c0-0.1,0.1-0.2,0.1-0.3c-3.8-2.7-8.1-4.6-12.6-3.7c0.2,3.9,0.8,7.7,1.7,11.5
					C252.8,743.1,256.7,741.2,259.2,735.3z"/>
			</g>
		</g>
		<g opacity="0.38">
			<g>
				<path fill="#CFD283" d="M348.3,896.9c-3.9-2.5-7.5-5.4-11.2-8.2c-2.9,6.9-3,14.3-3,21.6c1.6,2.9,3.6,5.4,6.3,7.4
					c3.7,2.7,8.3,3.9,12,6.5c2.3,1.6,4.2,4,4.9,6.6l0.3-3.2C354.7,917.3,351.5,907.1,348.3,896.9z"/>
			</g>
		</g>
		<g opacity="0.33">
			<g>
				<path fill="#7F7F53" d="M249.9,733.1c19.7,21.2,38.1,43.8,53.3,68.5c7.7,12.5,14.5,25.6,20.2,39.1c5.6,13.3,9.5,27,13.6,40.8
					c2.2,7.3,4.4,14.5,7.4,21.5c1.4,3.3,2.9,6.6,4.7,9.8c0.9,1.7,1.9,3.4,2.9,5c1.7,2.7,3,3.7,2.6,7.1c0.1-0.8-1.1-0.8-1.2,0
					c-0.3,2.1,2.6,2.7,3.7,1c1-1.5-0.5-3.4-1.2-4.6c-2.2-3.6-4.6-6.9-6.5-10.6c-7.9-15.1-11.6-31.9-16.6-48.1
					c-9.9-31.8-26.4-61.1-46.1-87.8c-11.1-14.9-23.1-29.1-35.8-42.7C250.3,731.7,249.4,732.5,249.9,733.1L249.9,733.1z"/>
			</g>
		</g>
		<g opacity="0.33">
			<g>
				<path fill="#7F7F53" d="M248,731.3c7.8,17.6,17.1,34.5,27.8,50.4c10.6,15.8,24,29.8,33.8,46c10.3,17,12.4,36.7,19,55.1
					c6,16.9,17.2,30.9,28.6,44.5c0.5,0.6,1.4-0.3,0.9-0.9c-12.9-15.6-24.6-31.1-30.5-50.7c-5.1-17.2-8.1-34.7-17.8-50.1
					c-9.8-15.6-22.6-29.2-32.9-44.5c-10.7-16-19.9-32.9-27.8-50.4C248.8,729.9,247.7,730.5,248,731.3L248,731.3z"/>
			</g>
		</g>
		<g opacity="7.000000e-02">
			<g>
				<path fill="#CFD283" d="M459.6,728.5c-6.7,7.4-13,15.1-19.3,22.9c-2.2,2.7-4.4,5.5-6.6,8.2c3.5,2.7,7.7,4.5,12.2,5.3
					c7.8-12.4,15.9-24.5,26.5-34.4c14.4-13.5,34.4-25,36.7-44.6C490.9,698,474.3,712.4,459.6,728.5z"/>
			</g>
		</g>
		<g opacity="0.38">
			<g>
				<path fill="#CFD283" d="M352.1,908c0.4,2.5-1.2,5.1-3.3,6.4c-2.2,1.3-4.8,1.7-7.4,1.6c-1.2,0-3,0.5-2.7,1.7c0.2,0.6,1,0.9,1.6,1
					c5.5,1.3,12,3.4,13.4,8.8c0.6,2.5,0,5.1,0.8,7.6c0.7,2.4,4.1,4.4,5.8,2.5c-3.2-2.2-5.1-6.3-4.7-10.2c0.2-1.8,0.8-3.6,1-5.4
					c0.4-4.6-2.3-8.8-4.8-12.6"/>
			</g>
			<g>
				<g>
					<path fill="#CFD283" d="M351.5,908c0.3,7.6-6.6,6.2-11.2,7.5c-0.7,0.2-1.8,0.5-2.1,1.2c-1.2,2.9,4.4,3.2,5.8,3.7
						c3.8,1.2,7.9,3.2,9.1,7.3c0.7,2.5-0.1,5.3,0.9,7.7c1.1,2.7,4,4.6,6.6,2.7c0.3-0.2,0.5-0.7,0.1-1c-3.1-2.5-4.7-5.8-4.4-9.8
						c0.2-2.4,1-4.6,0.9-7c-0.3-4.2-2.7-7.8-4.9-11.2c-0.4-0.7-1.5,0-1.1,0.6c1.5,2.3,3.2,4.8,4.1,7.4c1.1,3.5,0,6.6-0.3,10
						c-0.2,2.2,0.1,4.2,1,6.2c0,0,2.4,4,2.7,3.7c-2.7,3.3-3.9-6.6-4.1-8.1c-0.3-2-0.8-3.7-2.2-5.2c-1.5-1.7-3.5-2.8-5.5-3.7
						c-1.4-0.6-3.9-0.8-5.2-1.7c-1.7,0-1.8-0.6-0.4-1.9c1,0,2.1,0,3.1-0.2c4.6-0.7,8.5-3.5,8.3-8.5
						C352.7,907.2,351.4,907.2,351.5,908L351.5,908z"/>
				</g>
			</g>
		</g>
		<g opacity="0.4">
			<g>
				<path fill="#9A7D43" d="M355.5,927.4c0.1-1.1,0.4-2.2,0.6-3.3c-0.9,0.9-1.8,1.7-2.9,2.3c0.2,0.4,0.3,0.8,0.4,1.2
					c0.6,2.5,0,5.1,0.8,7.6s4.1,4.4,5.8,2.5C357,935.4,355.1,931.4,355.5,927.4z"/>
			</g>
			<g>
				<g>
					<path fill="#9A7D43" d="M356.1,927.6c0.2-1.1,0.4-2.2,0.6-3.3c0.1-0.6-0.6-1.1-1-0.6c-0.9,0.8-1.8,1.5-2.8,2.2
						c-0.2,0.1-0.4,0.4-0.3,0.7c1.3,3.4-0.3,7.8,2.3,10.7c1.5,1.7,3.9,2.4,5.7,0.8c0.3-0.3,0.2-0.8-0.1-1c-3.1-2.3-4.7-5.8-4.4-9.7
						c0.1-0.8-1.2-0.8-1.2,0c-0.3,4.3,1.6,8.2,5,10.7c0-0.3-0.1-0.7-0.1-1c-0.7,0.6-2.3,0.5-3,0c-1.1-0.7-1.6-1.8-1.8-3
						c-0.4-1.5-0.2-3.1-0.3-4.7c-0.1-0.7-0.6-2.1-0.5-2.6c0.1-0.5,2.1-1.9,2.5-2.3c-0.3-0.2-0.7-0.4-1-0.6c-0.2,1.1-0.5,2.2-0.6,3.3
						C354.8,928.1,356,928.4,356.1,927.6z"/>
				</g>
			</g>
		</g>
		<g opacity="0.4">
			<g>
				<path fill="#9A7D43" d="M373.7,838C373.7,838,373.7,838,373.7,838c-5.1,8-12,14.6-19.9,19.1c-1.4,0.8-2.9,1.6-3.7,3
					c-0.8,1.4-0.6,3.8,0.8,4.4c1.3,0.6,2.8-0.5,3.9-1.6c6.1-5.9,12.1-12.1,18.6-17.5C374.1,842.8,374.6,839.9,373.7,838z"/>
			</g>
			<g>
				<g>
					<path fill="#9A7D43" d="M373.2,837.6c-4.9,7.9-11.8,14.1-19.6,18.9c-2.2,1.4-7.4,5.9-3,8.4c1.3,0.8,2.4,0.1,3.6-0.6
						c3.8-2,7.2-7,10.4-10c1.8-1.7,3.5-3.4,5.3-5c1.1-1,3.4-2.4,4.2-3.7c1.2-2.1,1-5.6,0.4-7.9c-0.2-0.8-1.4-0.4-1.2,0.3
						c2.1,7.2-5.7,11.7-10.2,16c-2,1.9-3.9,3.8-5.9,5.8c-1.7,1.7-2.2,4-3.2,0.4c-0.8-2.8-0.4-2.2,1.8-3.5c7.5-4.6,14.1-11,18.7-18.5
						C374.7,837.6,373.6,837,373.2,837.6z"/>
				</g>
			</g>
		</g>
		<g opacity="0.4">
			<g>
				<path fill="#9A7D43" d="M509.5,685.1c-3.6,1.5-6.7,4.1-8.9,7.4c2.1,0.1,4,2.1,3.9,4.2c3.4-3.5,5.6-8.1,6.3-12.9"/>
			</g>
			<g>
				<g>
					<path fill="#9A7D43" d="M509.2,684.6c-3.7,1.7-6.8,4.3-9.1,7.6c-0.3,0.4,0.1,0.9,0.5,0.9c2,0.3,3.2,1.7,3.3,3.6
						c0,0.5,0.7,0.9,1.1,0.4c3.4-3.7,5.6-8.2,6.5-13.1c0.1-0.8-1.1-1.1-1.2-0.3c-0.8,4.8-2.9,9-6.2,12.6c0.4,0.1,0.7,0.3,1.1,0.4
						c-0.1-2.7-1.9-4.5-4.5-4.8c0.2,0.3,0.4,0.6,0.5,0.9c2.2-3.2,5.1-5.6,8.6-7.2C510.6,685.3,510,684.3,509.2,684.6L509.2,684.6z"
						/>
				</g>
			</g>
		</g>
		<g opacity="0.4">
			<g>
				<path fill="#9A7D43" d="M446.2,545.4c-4.7,0.9-7.5,5.6-9.8,9.8c-1.2,2.2-2.4,4.5-3.6,6.7c2.6,0.4,5.3,0.9,7.9,1.3
					c0.8,0.1,1.6,0.3,2.2,0.8c0.6,0.5,0.9,1.3,1.1,2.1c0.7,2.7,1,5.4,0.8,8.2c3.3-2.2,3.5-6.8,3.4-10.7c-0.1-4.5-0.2-8.9-0.3-13.4
					c-0.1-2.2-0.7-5.1-2.9-5.2"/>
			</g>
			<g>
				<g>
					<path fill="#9A7D43" d="M446,544.8c-7.4,2.1-10.4,10.6-13.8,16.8c-0.2,0.3,0,0.8,0.4,0.9c2.4,0.4,5.7,0.4,7.9,1.3
						c4.1,1.7,3.8,6.8,3.7,10.5c0,0.6,0.7,0.8,1.1,0.4c4.9-4,3.6-11.3,3.5-16.9c-0.1-3.7,1.4-12.1-3.6-13.5c-0.8-0.2-1.1,1-0.3,1.2
						c4.1,1.2,2.6,12,2.7,15.2c0.1,4.6,0.8,9.9-3.2,13.2c0.4,0.1,0.7,0.3,1.1,0.4c0.2-5,0.3-10.8-5.4-11.8c-0.9-0.2-5.1-0.3-5.5-0.9
						c-1-1.4,1.2-4,1.9-5.2c2.3-4.4,4.8-8.9,9.9-10.4C447.2,545.8,446.8,544.6,446,544.8L446,544.8z"/>
				</g>
			</g>
		</g>
		<g opacity="0.33">
			<g>
				<path fill="#7F7F53" d="M347.4,735.1c0.8,0,0.8-1.2,0-1.2C346.6,733.9,346.6,735.1,347.4,735.1L347.4,735.1z"/>
			</g>
		</g>
		<g opacity="0.33">
			<g>
				<path fill="#7F7F53" d="M442.7,546.3c-1.1,19.9-3.1,39.9-9,59c-6,19.4-16.9,36.6-27,54.1c-9.4,16.3-18.2,33.8-31.6,47.4
					c-10.7,10.9-25.8,17.9-32.6,32.2c-0.3,0.7,0.7,1.4,1.1,0.6c5.7-12,17.3-18.7,27.1-27c10.8-9.2,18.7-21,25.8-33
					c8-13.4,15.7-26.9,23.4-40.5c7.4-13.1,13.5-26.6,17.2-41.2c4.3-16.8,5.9-34.2,6.8-51.5C444,545.5,442.7,545.5,442.7,546.3
					L442.7,546.3z"/>
			</g>
		</g>
		<g opacity="0.33">
			<g>
				<path fill="#7F7F53" d="M441.9,548c-3.9,16.8-7.8,33.6-13.3,49.9c-5.8,17.2-13.7,33.3-23.1,48.8c-18.4,30.5-39.1,59.6-61.3,87.4
					c-0.5,0.6,0.4,1.5,0.9,0.9c22.3-27.9,43-57.1,61.5-87.7c8.9-14.8,16.7-30.1,22.3-46.5c6-17.2,10.1-34.9,14.2-52.5
					C443.3,547.5,442.1,547.2,441.9,548L441.9,548z"/>
			</g>
		</g>
		<g>
			<g>
				<path fill="#6C7531" d="M338.4,757.4c-0.6-19.4-8.9-37.6-17.1-55.2c-15.9-34.4-31.9-68.8-50.8-101.6c-2.6-4.5-5.5-9.1-10.1-11.3
					c-4.7-2.2-9.4,3-10.6,8c-0.5,2.4,5.2,19.4,6.1,21.8c18.3,48.2,32,77.6,54.8,123.8c6.5,13.2,13.6,26.8,25.1,35.9
					c1.7-10.4,1.8-21,0.1-31.4"/>
			</g>
			<g opacity="0.33">
				<g>
					<path fill="#7F7F53" d="M255.8,588.8c-4.1,15.1,6.6,31,12.9,44c7.9,16.4,16.1,32.7,24.4,48.9c4.3,8.2,8.1,16.4,10.6,25.4
						c2.2,7.7,3.9,15.5,7,22.9c6.6,16,15.9,31.2,24,46.5c0.4,0.7,1.5,0.1,1.1-0.6c-7.8-14.8-16.6-29.5-23.3-44.9
						c-3.4-7.8-5.3-16.1-7.6-24.3c-2-7.2-4.8-14-8.2-20.7c-7.6-15-15.3-29.9-22.7-45c-3.7-7.6-7.4-15.2-11-22.9
						c-4.3-9.1-8.8-18.7-6.1-28.9C257.2,588.3,256,588,255.8,588.8L255.8,588.8z"/>
				</g>
			</g>
			<g opacity="0.33">
				<g>
					<path fill="#7F7F53" d="M255.5,590.2c9.2,16,18.3,32.1,27.5,48.1c8.4,14.8,16.9,29.6,23.1,45.5c6,15.4,8,31.8,13.4,47.3
						c2.7,7.7,6.7,14.8,9.7,22.4c3.1,7.8,4.4,16,5.6,24.3c0.1,0.8,1.3,0.5,1.2-0.3c-1.1-8.3-2.4-16.5-5.6-24.3
						c-3-7.6-7.1-14.7-9.7-22.4c-5.6-16.1-7.7-33.1-14.1-49c-6.1-15.1-14.1-29.3-22.2-43.4c-9.3-16.3-18.6-32.6-27.9-48.9
						C256.2,588.9,255.1,589.5,255.5,590.2L255.5,590.2z"/>
				</g>
			</g>
			<g opacity="0.53">
				<g>
					<path fill="#A1A764" d="M256.5,590.8c-1.5-0.5-3.1,0.6-3.8,1.9c-0.7,1.4-0.8,3-0.7,4.5c0.1,5.1,0.8,10.3,2,15.3
						c1.8,0,2.9-1.9,3-3.7c0.1-1.8-0.3-3.5,0-5.3s2-3.4,3.7-2.8c1.8,0.7,2.1,3.5,4,3.8c0.1-1.2,1.5-1.9,2.7-1.8c1.2,0.2,2.2,1,3,1.8
						c2.9,2.9,5,6.5,5.9,10.5c1.2-3.7-0.9-7.6-3.2-10.8c-3.4-4.7-7.3-9-11.7-12.8c-1.1-1-2.4-2-3.8-2.2s-3.2,0.5-3.6,2"/>
				</g>
			</g>
		</g>
		<g>
			<g>
				<path fill="#63692D" d="M301.2,699.9c-2.2-5.9-7.6-9.9-12.8-13.4c-21-14.5-43-27.7-65.6-39.5c-18.8-9.8-39.4-18.9-60.4-16.3
					c4.5,8.5,14.3,12.5,23.3,16c25.3,10.1,49.8,22.6,71.6,38.9c5.5,4.1,10.9,8.6,17.1,11.7c9.3,4.7,20.3,6.3,28.1,13.2
					c4.6,4,9.7,10.1,15.4,8c-6.1-10.5-13.9-20-23-28.1"/>
			</g>
			<g opacity="0.36">
				<g>
					<path fill="#A1A764" d="M184.6,633.2c-6.5-1.4-12.9-2.8-19.4-4.2c-0.6-0.1-1.2-0.2-1.7,0c-0.6,0.3-0.9,1-1,1.6
						c-0.6,4,3.8,6.7,7.6,8.2c3.6,1.5,7.1,2.9,10.7,4.4c0.4,0.2,0.8,0.3,1.2,0.3c0.8-0.1,1.3-0.9,1.8-1.5c3-3.7,8.9-2.4,13.4-3.8
						c0.7-0.2,1.5-0.6,1.7-1.3c0.6-1.5-1.5-2.7-3.2-3c-4.6-0.8-9.2-1.4-13.8-1.9"/>
				</g>
				<g>
					<g>
						<path fill="#A1A764" d="M184.6,633c-6.2-1.3-13.1-3.9-19.4-4.2c-1.7-0.1-2.5,0-3,1.8c-0.6,2.5,1.6,4.8,3.4,6.1
							c1.9,1.4,4,2.2,6.2,3.1c2.7,1.1,6.1,3.3,8.9,3.6c1.6,0.2,0.8,0.5,2.4-0.3c-0.2,0.1,1.8-1.8,1.8-1.8c1.3-1,2.8-1.5,4.4-1.8
							c2-0.4,8.7,0.1,9.8-2.5c1.9-4.7-14.8-5-17.2-5.3c-0.3,0-0.3,0.5,0,0.5c3.5,0.4,6.9,0.8,10.3,1.3c0.9,0.1,1.7,0.3,2.6,0.4
							c1.9,0,2.2,1.4,1,4.2c-0.7,0.6-3,0.4-3.9,0.5c-1.7,0.2-3.5,0.3-5.2,0.9c-1.7,0.7-2.8,2.1-4.5,2.7c-2.9,1-6.6-1.5-9.4-2.7
							c-1.7-0.7-3.5-1.3-5.2-2.3c-2.8-1.6-3.4-1.9-2.9-5.3c0.5-3.9,1-2.8,4.3-2c1.6,0.3,3.2,0.7,4.9,1c3.6,0.8,7.1,1.5,10.7,2.3
							C184.8,633.5,184.9,633,184.6,633L184.6,633z"/>
					</g>
				</g>
			</g>
		</g>
		<g>
			<g>
				<path fill="#6C7531" d="M330.8,642.7c-10.3-61.7-45.2-118.9-95.3-156.4c-2.6-1.9-5.8-3.9-8.8-2.6c0.4,10.4,7.4,19.2,13.8,27.4
					c32.8,41.2,62.7,84.8,89.3,130.3"/>
			</g>
			<g opacity="0.33">
				<g>
					<path fill="#7F7F53" d="M228.9,484.4c0.8,0,0.8-1.2,0-1.2C228.1,483.2,228.1,484.4,228.9,484.4L228.9,484.4z"/>
				</g>
			</g>
			<g opacity="0.33">
				<g>
					<path fill="#7F7F53" d="M229.5,485.3c11.1,11.2,22.1,22.3,33.2,33.5c10.6,10.6,22.2,20.8,29.3,34.2
						c7.1,13.4,12.6,27.8,18.7,41.7c6.4,14.5,12.8,29,19.2,43.5c0.3,0.7,1.4,0.1,1.1-0.6c-6.5-14.8-13.1-29.6-19.6-44.4
						c-6.2-14.1-11.7-28.8-19.2-42.3c-6.8-12.2-17.5-21.7-27.3-31.5c-11.5-11.6-23.1-23.3-34.6-34.9
						C229.8,483.9,229,484.8,229.5,485.3L229.5,485.3z"/>
				</g>
			</g>
			<g opacity="0.33">
				<g>
					<path fill="#7F7F53" d="M231.5,486.6c6.4,14.2,15.1,27.3,26,38.5c5.3,5.5,11.3,10.2,17.1,15.1c7.2,6,11.4,12.2,14.5,21.1
						c10,28.5,33.7,51.2,38.3,81.6c0.1,0.8,1.3,0.5,1.2-0.3c-4.6-30.9-28.6-54.3-38.8-83.2c-2.4-6.7-5.5-12.1-10.7-17
						c-5.7-5.3-12.1-9.8-17.8-15.2c-12.2-11.8-21.8-25.8-28.8-41.2C232.2,485.2,231.2,485.9,231.5,486.6L231.5,486.6z"/>
				</g>
			</g>
			<g opacity="0.4">
				<g>
					<path fill="#9A7D43" d="M246.8,499.1c0.6-1.7-0.6-3.4-1.8-4.7c-3.7-4.1-8-7.7-12.5-10.9c-1.6-1.1-3.7-2.2-5.5-1.4
						c-1.6,0.8-2.2,2.8-2.2,4.5c0.1,4.8,4.2,9.3,9,9.8c2.3,0.3,4.9-0.2,6.6,1.3c1.5,1.3,2.5,3.9,4.4,3.5c1.8-0.4,1.8-2.9,1.3-4.7"/>
				</g>
			</g>
		</g>
		<g opacity="0.19">
			<g>
				<path fill="#A1A764" d="M395.4,482.3c2.3,0,3.6-1.3,5.2-2.3c5.7-8,11.8-15.8,18.1-23.3c8.9-10.6,18.8-21.4,21.8-34.9
					c-1.9-1.5-4.8-0.5-7,0.7c-22.2,12.3-39.2,31.3-54.1,52.2C385.4,475.5,388.8,482.2,395.4,482.3z"/>
			</g>
		</g>
		<g opacity="0.4">
			<g>
				<path fill="#9A7D43" d="M438.8,421.3c-2,0.5-4.1,1-6.1,1.6c-1,0.3-2.4,1-2.1,2c0.3,1,1.6,1,2.6,1.2c2,0.6,3,3.4,1.7,5.1
					c4.6-1.4,6.8-7.6,4.1-11.6"/>
			</g>
			<g>
				<g>
					<path fill="#9A7D43" d="M438.7,420.7c-2.2,0.6-4.6,0.9-6.7,1.8c-0.8,0.3-1.8,0.9-1.9,1.9c-0.1,0.8,0.4,1.4,1.1,1.8
						c0.8,0.4,1.8,0.3,2.5,0.9c1.3,0.9,1.6,2.5,0.8,3.8c-0.3,0.4,0.2,1.1,0.7,0.9c5-1.7,7.3-8,4.5-12.5c-0.4-0.7-1.5-0.1-1.1,0.6
						c2.3,3.8,0.5,9.2-3.7,10.7c0.2,0.3,0.5,0.6,0.7,0.9c1.1-1.7,0.8-4.1-0.9-5.4c-0.7-0.5-4-0.8-2.6-2.3c0.6-0.6,2.7-0.8,3.5-1
						c1.2-0.3,2.3-0.6,3.5-0.9C439.8,421.7,439.5,420.5,438.7,420.7L438.7,420.7z"/>
				</g>
			</g>
		</g>
		<g opacity="0.92">
			<g>
				<path fill="#CFD079" d="M319.5,603c0.4,1.5,0.8,3,1.1,4.5c-1,1.7-3.5,1.5-5.4,1.4c-2-0.2-4.6,0.6-4.5,2.6
					c0.1,2.7,5.1,2.5,5.9,5.1c0.2,0.8,0.1,1.6,0.1,2.4c0.1,1.7,1.1,3.1,2.1,4.5c2.2,3.1,4.5,6.2,6.7,9.3c1.4,1.9,2.8,3.9,3.1,6.2
					c0.2,1.4,0.1,2.9,0.4,4.3c0.4,1.4,1.5,2.8,3,2.7c-2-7.3-4-14.6-6.1-22c-0.3-1.2-0.6-2.3-1-3.5c-1.5-5.5-3-11-4.5-16.4"/>
			</g>
			<g>
				<g>
					<path fill="#CFD079" d="M318.9,603.2c0.8,3,1.3,4.5-3.1,5.1c-1.1,0.2-2.1-0.2-3.3,0.3c-0.9,0.3-1.8,0.8-2.2,1.7
						c-0.6,1.2-0.1,2.2,0.6,3.1c2,2.3,4,1.2,5.1,5c0.8,2.9,1.4,4.3,3.2,7c2.3,3.2,4.7,6.2,6.8,9.5c2.1,3.3,0.8,10.8,5.7,11.7
						c0.5,0.1,0.9-0.3,0.8-0.8c-3.9-14-7.7-27.9-11.6-41.9c-0.2-0.8-1.4-0.4-1.2,0.3c2.8,10,5.5,20,8.3,30c0.7,2.7,1.9,5.5,2.3,8.2
						c0.2,0.6,0.3,1.2,0.5,1.8c-0.4-0.4-0.8-0.8-1.2-1.2c-0.5-1.2-0.2-2.9-0.4-4.2c-0.7-3.4-2.9-6-4.9-8.8c-1.5-2.1-3-4.1-4.5-6.2
						c-1.7-2.4-1.5-5-2.6-7.4c-0.9-1.9-2.8-1.8-4-3.2c-0.3-0.1-0.6-0.3-0.8-0.4c0.9-1.1,1.9-2.3,2.8-3.4c0.5-0.3,1.9,0.2,2.5,0.1
						c0.8-0.1,1.9-0.2,2.5-0.7c2-1.7,0.5-3.8-0.1-6C319.9,602.1,318.7,602.4,318.9,603.2L318.9,603.2z"/>
				</g>
			</g>
		</g>
		<g opacity="0.92">
			<g>
				<path fill="#CFD079" d="M337.8,754.5c-0.5,5.4-3.5,10.5-8.1,13.4c-0.7,0.5-1.5,1-1.6,1.8c0,0.6,0.3,1,0.7,1.5
					c4.3,5.7,10,11.3,10,18.4c0,2.7-0.4,6.3,2.2,7.4c-1-10.4-4.1-20.8-2.8-31.1c0.5-4,1.4-8.9-1.7-11.5"/>
			</g>
			<g>
				<g>
					<path fill="#CFD079" d="M337.2,754.5c-0.5,3.8-1.9,7.3-4.5,10.1c-1.2,1.3-3.8,2.2-4.5,3.7c-1.2,2.5,0.6,3.8,2.1,5.7
						c3.9,5,7.6,9.6,7.9,16.1c0.1,2.9-0.2,5.6,2.5,7.3c0.4,0.2,1-0.1,0.9-0.5c-1-8.8-3.3-17.6-3.1-26.6c0.1-5.5,2.6-12.1-1.6-16.5
						c-0.6-0.6-1.4,0.3-0.9,0.9c3.5,3.7,1.6,9.3,1.3,13.8c-0.2,4,0.1,8.1,0.7,12.1c0.3,1.8,0.5,3.7,0.8,5.5c0.2,1.1,0.8,8.8,1.4,9
						c-1.4-0.7-0.8-7.2-1.1-8.7c-0.7-3-2.3-5.7-4-8.2c-1.8-2.5-7-6.9-5-9.9c1.3-2,4-3.2,5.4-5.4c1.7-2.6,2.6-5.5,3-8.5
						C338.5,753.7,337.3,753.7,337.2,754.5L337.2,754.5z"/>
				</g>
			</g>
		</g>
		<g>
			<g>
				<path fill="#6C7531" d="M298.2,377.7c-0.1-20.4-19.1-34.6-30.8-51.3c-5.9-8.4-10.2-17.9-14.4-27.4
					c-13.4-30.1-26.8-60.2-40.2-90.4c6.8-1.7,12.9,4.2,17.4,9.6c22.3,26.6,45.2,54.2,54.6,87.6c6.5,23,6.2,47.6,13.3,70.5
					c0.3,0.9,0.5,2-0.3,2.5c-0.8,0.5-1.5-1.4-0.6-1.1"/>
			</g>
			<g opacity="0.33">
				<g>
					<path fill="#7F7F53" d="M215.1,208.8c9.6,12.5,19.3,25,28.9,37.5c9.1,11.8,15.6,23.7,21.2,37.5c5.7,14.1,11.3,28.2,17,42.3
						c5.5,13.6,10.8,27.3,13.2,41.8c0.1,0.8,1.3,0.5,1.2-0.3c-2.4-14.5-7.8-28.2-13.2-41.8c-5.9-14.7-11.8-29.3-17.7-44
						c-5.2-12.9-11.6-24.3-20-35.4c-9.8-12.8-19.6-25.5-29.5-38.2C215.7,207.6,214.7,208.2,215.1,208.8L215.1,208.8z"/>
				</g>
			</g>
			<g opacity="0.33">
				<g>
					<path fill="#7F7F53" d="M216.7,211c6,13.4,14.2,25.7,21.4,38.5c7.4,13.2,14.2,26.7,20.8,40.3c6.6,13.4,13.1,26.9,19.6,40.3
						c6.7,13.7,16.9,28.9,16.4,44.7c0,0.8,1.2,0.8,1.2,0c0.5-14.1-7.6-26.9-13.5-39.2c-7-14.3-13.9-28.7-20.9-43
						c-6.8-13.9-13.7-27.7-21.1-41.2c-7.6-13.7-16.4-26.7-22.8-41C217.5,209.7,216.4,210.3,216.7,211L216.7,211z"/>
				</g>
			</g>
			<g opacity="0.37">
				<g>
					<path fill="#CFD079" d="M287.5,315.1c1.3,4.4-1.9,9.6-6.5,10.3c-1.3,0.2-2.7,0.1-4.1-0.1c-3.4-0.5-8.2-0.7-9.1,2.6
						c-0.6,2.2,1.1,4.4,3.1,5.6c2,1.2,4.3,1.9,6,3.4c1.5,1.4,2.4,3.4,3.4,5.2c2,3.5,5,6.4,7.2,9.7c7.8,11.5,7,27.3,14.5,39
						c1.6-6.2,1-13-1.7-18.9c-2.1-4.5-5.4-8.5-6.8-13.3c-0.6-2-0.8-4.1-0.9-6.2c-0.6-6.6-1.2-13.1-1.8-19.7
						c-0.6-6.2-1.2-12.7-4-18.3"/>
				</g>
				<g>
					<g>
						<path fill="#CFD079" d="M286.9,315.3c0.9,4.3-1.5,8.1-5.5,9.2c-2.4,0.7-4.4,0.1-6.8,0c-2.2-0.1-5.3,0-6.7,2.1
							c-1.2,1.8-0.8,3.9,0.4,5.5c2.6,3.6,7.5,3.8,10,7.8c5.5,8.5,11.6,15.8,14.5,25.7c2.5,8.8,4,17.8,8.8,25.7
							c0.3,0.4,1,0.4,1.1-0.1c1.3-5.9,1.2-11.9-1-17.6c-2.6-6.8-7.4-11.9-8.2-19.4c-1.5-13-0.5-27.7-6-39.9
							c-0.3-0.7-1.4-0.1-1.1,0.6c5.7,12.5,4.1,27.5,6,40.8c0.7,4.7,2.8,8.3,5.1,12.3c4.2,7.2,5.9,14.5,4.1,22.8
							c0.4,0,0.8-0.1,1.1-0.1c-5.1-8.3-6.4-17.8-9.1-26.9c-1.2-4-2.7-7.9-5-11.4c-2.8-4.3-6.2-8-8.8-12.5c-1.9-3.3-4.2-4.1-7.3-6.2
							c-2.7-1.7-3.9-7-0.3-7.9c1-0.2,2-0.1,3-0.1c2,0.1,3.9,0.6,5.9,0.3c5.2-0.9,8.1-6.1,7.1-11.1
							C287.9,314.2,286.7,314.5,286.9,315.3L286.9,315.3z"/>
					</g>
				</g>
			</g>
		</g>
		<g>
			<path fill="#6C7531" d="M303.4,344.4c4.4-15.8-4.5-32.2-3.8-48.6c0.3-6,1.9-11.8,3.5-17.6c12-42.4,27.2-83.9,45.5-124
				c6.2,6.6,5.5,17.1,3.4,26c-8.6,36-33.4,66.9-39.3,103.4c-3.6,21.9-0.5,46-12.5,64.7"/>
		</g>
		<g opacity="0.33">
			<g>
				<path fill="#7F7F53" d="M348.5,159.4c-5.7,31.4-20.8,59.7-32,89.3c-5.5,14.6-10.2,29.6-12.1,45.2c-1,8-1.3,16-0.6,24
					c0.7,8.6,2.7,17,1.5,25.6c-0.1,0.8,1.1,1.1,1.2,0.3c1-7.5-0.2-14.8-1.1-22.3c-0.9-8-1-16-0.2-24c1.6-16.7,6.6-32.9,12.5-48.5
					c11.2-29.6,26.3-57.9,32-89.3C349.8,158.9,348.6,158.6,348.5,159.4L348.5,159.4z"/>
			</g>
		</g>
		<g opacity="0.33">
			<g>
				<path fill="#7F7F53" d="M347.5,158.5c8,33.5-16.8,63.1-28.4,92.5c-11.6,29.3-16.8,60.9-15.3,92.4c0,0.8,1.3,0.8,1.2,0
					c-1.6-33.7,4.5-67.6,18-98.6c11.9-27.4,33.3-55,25.7-86.6C348.5,157.4,347.3,157.7,347.5,158.5L347.5,158.5z"/>
			</g>
		</g>
		<g opacity="0.71">
			<g>
				<path fill="#CFD079" d="M308.7,316.1c-2,1.2-4.9,0.9-6.5-0.8c4.5,10.4,3,23.2-3.9,32.3c1.7,1.6,4.5-0.3,5.6-2.5
					c2.3-4.5,1.9-9.9,3.5-14.7c1.6-5,5.4-9.9,3.9-14.9c-0.9,0.1-1.9-0.1-2.6-0.6"/>
			</g>
			<g>
				<g>
					<path fill="#CFD079" d="M308.5,315.5c-2.1,1.1-4.1,0.9-6.1-0.7c-0.4-0.3-1.1,0.2-0.9,0.7c4.3,10.7,2.9,22.5-3.9,31.8
						c-0.2,0.3,0,0.7,0.2,0.9c5.4,3,7.7-5.7,8.4-9.2c0.9-5,2.1-9.3,4.1-14.1c1.3-3.2,2.1-6,1.5-9.4c-0.1-0.3-0.3-0.4-0.6-0.5
						c-0.8-0.2-1.5-0.4-2.3-0.5c-0.7-0.3-1.4,0.8-0.6,1.1c5.8,2.6-0.2,10.6-1.6,14.8c-0.9,3-1.2,6.1-1.8,9.1
						c-0.3,1.5-0.6,4.2-1.7,5.4c-3.4,2.5-4.4,2.9-3.2,1.2c0.4-0.6,0.8-1.3,1.2-2c4.9-8.9,5.2-19.6,1.5-28.9
						c-0.3,0.2-0.6,0.5-0.9,0.7c2.3,1.7,4.4,1.9,7,0.9C309.6,316.4,309.3,315.2,308.5,315.5L308.5,315.5z"/>
				</g>
			</g>
		</g>
		<g>
			<g>
				<path fill="#6C7531" d="M312.6,362.7c11.3-39.5,39.6-72.2,53.4-110.9c3.1-8.6,5.5-17.8,11.5-24.8c0.8-0.9,1.7-1.9,2.9-2.2
					c3.4-0.8,5.5,3.7,5.7,7.3c0.4,9.3-2.3,18.4-5.6,27.1c-14.3,38.6-38,73.6-68.4,101.3"/>
			</g>
			<g opacity="0.33">
				<g>
					<path fill="#7F7F53" d="M379.8,230c-13,37.5-28.8,75.6-58.6,103.1c-0.6,0.5,0.3,1.4,0.9,0.9c30-27.6,45.8-65.9,58.9-103.6
						C381.2,229.6,380,229.2,379.8,230L379.8,230z"/>
				</g>
			</g>
			<g opacity="0.33">
				<g>
					<path fill="#7F7F53" d="M381.7,228.3c-11.1,40.1-26.4,81.5-59.1,109.1c-0.6,0.5,0.3,1.4,0.9,0.9
						c32.9-27.7,48.2-69.4,59.4-109.7C383.1,227.8,381.9,227.5,381.7,228.3L381.7,228.3z"/>
				</g>
			</g>
		</g>
		<g opacity="0.33">
			<g>
				<path fill="#7F7F53" d="M374.9,985.8c7-13,18.6-21.8,30.5-30.1c11.6-8.1,22.9-16.1,32.4-26.7c9.7-10.9,17.8-23.1,26.1-35
					c9.2-13.2,19.4-24.8,30.2-36.6c12.9-14.1,20.9-32,30-48.6c0.4-0.7-0.7-1.3-1.1-0.6c-8.4,15.4-15.8,32.5-27.5,45.8
					c-10,11.5-20.4,22.2-29.3,34.7c-9,12.7-17.4,25.9-27.6,37.6c-9.8,11.3-21.5,19.8-33.7,28.3c-12,8.4-23.8,17.4-30.9,30.5
					C373.4,985.9,374.5,986.5,374.9,985.8L374.9,985.8z"/>
			</g>
		</g>
		<g opacity="0.33">
			<g>
				<path fill="#7F7F53" d="M530.1,805.1c-8.7,15.9-17.4,31.8-29,45.8c-10.2,12.3-21.9,23.2-30.9,36.5c-4.8,7.2-7.9,15-11.7,22.7
					c-3.3,6.9-7.8,13-13.1,18.5c-10.4,10.7-23.2,18.6-35.7,26.7c-6.9,4.4-13.7,8.9-20.2,13.9c-5.2,4-10.6,8.4-11,15.4
					c0,0.8,1.2,0.8,1.2,0c0.5-8.8,10.4-14.6,16.9-19.2c5.7-4,11.6-7.8,17.4-11.5c11.3-7.3,22.8-14.7,32.2-24.4
					c4.5-4.7,8.6-9.9,11.7-15.6c4.1-7.6,6.9-15.8,11.5-23.1c8.8-13.9,20.9-25.2,31.4-37.7c12.2-14.4,21.3-30.9,30.3-47.4
					C531.5,805.1,530.5,804.4,530.1,805.1L530.1,805.1z"/>
			</g>
		</g>
		<g>
			<g>
				<g>
					<path fill="#6D2E47" d="M411,334.7c-2.1,0.6-4-1.5-5.1-3.5c-2-3.5-3.5-7.2-4.6-11c-0.9-3-1.7-6.4-4.3-8.1
						c-3.4-2.2-8.1-0.1-10.8,2.8s-4.5,6.8-7.5,9.6c-2.3,2.1-5.1,3.5-7.6,5.3c-2,1.4-3.7,3.2-4.6,5.5c-0.9,2.3-0.7,5,0.9,6.8
						c3,3.3,9.1,1.9,12.3,5c-1.3,2.1-3.5,3.7-5.9,4.3c1.2,3.6,5.7,4.6,9.5,5c4.6,0.5,9.3,1,13.9,1.4c2.5,0.3,5.1,0.5,7.6-0.1
						c2.5-0.6,4.8-2.2,5.7-4.6c1.2-3.5-1.2-7.1-3.1-10.2c-1.9-3.1-3.4-7.5-1-10.2"/>
				</g>
				<g>
					<g>
						<path fill="#6D2E47" d="M411,332.2c-4.2,0.2-6.7-10.9-7.6-14c-1-3.1-2.2-6.4-5.1-8.2c-7-4.3-13.8,2.6-17.5,7.9
							c-3.1,4.5-7,6.7-11.2,9.9c-2.8,2.1-5.4,4.9-6,8.5c-0.5,3.2,0.5,6.5,3.2,8.5c3.3,2.5,8,1.5,11.1,4c-0.1-1-0.3-2-0.4-3
							c-1.1,1.6-2.5,2.7-4.4,3.1c-1.6,0.6-2.2,2.2-1.5,3.7c1.9,4.2,6.1,5.5,10.4,6.1c6.9,1,15.6,2.8,22.5,1.6
							c4.3-0.8,8.2-3.7,8.7-8.3c0.6-5.9-8.2-12.8-4.7-18c1.8-2.7-2.5-5.2-4.3-2.5c-1.7,2.5-1.9,5.3-1.1,8.3
							c1.2,4.1,7.6,10.4,3.7,14.1c-3.7,3.5-11.9,1.2-16.6,0.8c-4.3-0.4-12.2,0.2-14.3-4.5c-0.5,1.2-1,2.4-1.5,3.7
							c3.2-1.1,5.4-2.7,7.4-5.4c0.6-0.8,0.4-2.4-0.4-3c-2.1-1.7-4.1-2.4-6.7-3c-1.1-0.3-2.6-0.3-3.7-0.9c-4.7-2.6-2.1-6.7,0.6-9.1
							c2.3-2,5.2-3.3,7.6-5.2c2.6-2.1,4.3-4.8,6.2-7.5c2.4-3.3,7.1-9,11.3-4.3c2.2,2.5,2.6,7.1,3.8,10.2c1.8,4.7,4.4,11.7,10.4,11.5
							C414.3,337,414.3,332,411,332.2L411,332.2z"/>
					</g>
				</g>
			</g>
			<g>
				<path fill="#C0647E" d="M415.3,326.3c-1.4-4.1-6.9-4.7-11.2-4.6c-0.8,0-1.7,0.1-2.4,0.5c-2.1,1.2-1.3,4.4-1.9,6.7
					c-0.7,2.9-3.7,4.6-5.6,6.8c-3.6,4.3-3.2,11.5,0.9,15.3c1.2,1.1,2.7,2,3.7,3.4c1,1.5,1.2,3.5,2.5,4.8c1.4,1.3,3.6,1.3,5.6,1.2
					c4.1-0.2,8.7-0.7,11.2-3.9c1.8-2.2,2.1-5.3,2.4-8.1c0.6-6.1,1.1-12.5-1.7-17.9c-2.1-4.1-5.9-7.1-9.9-9.2"/>
			</g>
			<g>
				<path fill="#D1B2BB" d="M377.9,360.2c-10.4,2.8-21.4-3.1-28.2-11.4c-4-5-7-11.9-4.3-17.7c1.7-3.6,5.2-5.8,8.5-7.9
					c12-7.5,24.6-15.1,38.6-17.1c7.7-1.1,16.3-0.3,22.2,4.9c-10.5,2.9-21.1,5.9-31.6,8.8c-0.5,8.8,6.9,15.8,10.2,23.9
					c0.3,0.7,0.6,1.5,0.4,2.3c-0.2,0.8-0.9,1.4-1.6,2C384.6,353.6,386.8,357,377.9,360.2"/>
			</g>
			<g opacity="0.23">
				<g>
					<path fill="#C0647E" d="M364.1,349.9c5.8,1.4,11.8,2.9,17.8,2.6c3.4-0.2,7.2-0.9,7.7-4.8c0.5-4-2.7-7-5.9-8.5
						c-4.9-2.4-10.7-2.7-15.5-5.3c-9-4.8-3-14.3,3.3-18.4c5.1-3.3,10.9-5.4,16.6-7.6c2.1-0.8,4.4-1.6,6.6-2.5
						c-0.7,0.1-1.4,0.1-2.2,0.3c-14,2-26.6,9.6-38.6,17.1c-3.3,2.1-6.8,4.4-8.5,7.9c-2.6,5.5,0,12,3.7,16.9
						C354.1,348.5,359.4,348.7,364.1,349.9z"/>
				</g>
			</g>
			<g>
				<g>
					<path fill="#933D5F" d="M412.2,348.3c1-2.3,1.6-4.8,1.5-7.3c-1.2,0.2-2.4,0.5-3.6,0.1s-2-1.7-1.6-2.8c0.3-0.6,0.9-1,1.3-1.6
						c0.9-1.1,0.7-2.9,0-4.1c-0.7-1.3-1.9-2.2-3.1-3c-0.5-0.4-1.1-0.8-1.7-0.6c-0.2,0.1-0.4,0.3-0.6,0.5c-3.1,3.4-3.1,9.2,0.1,12.5
						c0.6,0.6,1.2,1.2,1.4,2c0.1,0.7-0.2,1.3-0.1,2c0.2,2,3.1,2.6,3.8,4.5c0.4,1,0.4,2.5,1.4,2.7c1,0.2,1.7-1.1,1.8-2.1
						c0.4-2.4,0.6-4.8,0.6-7.3"/>
				</g>
				<g>
					<g>
						<path fill="#933D5F" d="M414.6,349c1-2.6,1.5-5.2,1.6-8c0.1-1.7-1.6-2.7-3.2-2.4c-2.3,0.4-0.4-1.3-0.2-2.5
							c0.3-1.1,0.2-2.4-0.2-3.5c-0.9-2.4-3.8-5.5-6.3-6c-6.1-1.3-7.3,9-6.1,12.9c0.4,1.2,1.1,2.2,1.8,3.3c1,1.6,1.1,2.6,1.6,4.2
							c0.4,1.3,1.3,1.9,2.2,2.9c1.1,1.2,1.5,2.6,2.4,3.8c1.4,1.8,3.7,2.5,5.6,0.9c2.7-2.3,2.2-7.9,2.3-11c0.1-3.2-4.9-3.2-5,0
							c0,0.9,0,6.8-0.6,7c0.8,0.2,1.6,0.4,2.4,0.6c-0.9-0.7-1.1-2.6-2-3.5c-0.5-0.6-1.4-0.9-1.8-1.5c-0.8-1.1-0.2-1-0.6-2.3
							c-0.9-2.9-6.4-8.2-3.2-11.4c0.1-1.2,0.6-1.1,1.4,0.3c1.3,0.6,1.5,1.6,0.8,2.9c-0.1,0.5-0.9,0.8-1,1.3
							c-0.4,1.3-0.6,2.4-0.1,3.7c1.4,3.3,5,3.3,8,2.8c-1.1-0.8-2.1-1.6-3.2-2.4c-0.1,2.4-0.6,4.5-1.5,6.6
							C408.6,350.6,413.4,351.9,414.6,349L414.6,349z"/>
					</g>
				</g>
			</g>
		</g>
		<g>
			<g>
				<path fill="#D1B2BB" d="M323.6,389.7c3.5,0.1,7,0.2,10.6,0.2c-4.9,4.2-7.2,11.7-13.3,13.5c-5.8,1.7-12.3-4.2-11.2-10.1
					c-5.4,0.4-9.2,7.3-14.5,6.4c-3-0.5-5-3.7-5-6.7c0.1-3,1.9-5.8,4.2-7.8c2.3-1.9,5.4-3.8,5.4-6.8c0-2.9-2.9-4.9-3.6-7.7
					c-1.2-4.5,3.5-8.2,7.5-10.4c6.7-3.6,15.4-6.8,21.5-2.2c-6.8,1.9-14.5,4.7-16.7,11.4c-1.6,5,0.8,10.6,4.6,14.2
					c3.9,3.5,9,5.3,14.1,6.6"/>
			</g>
			<g>
				<g>
					<path fill="#D1B2BB" d="M323.6,391c3.5,0.1,7,0.2,10.6,0.2c-0.3-0.7-0.6-1.4-0.9-2.1c-3.2,3-5.2,7-8.2,10.1
						c-2.3,2.4-4.9,3.7-8.2,2.9c-4-1-6.4-4.7-6-8.7c0.1-0.9-0.9-1.3-1.6-1.2c-4.9,0.8-12.9,10.5-17.1,4c-3-4.7,1.9-9,5.1-11.7
						c1.6-1.4,3.2-2.8,3.6-5c0.3-1.9-0.3-3.3-1.2-4.9c-0.7-1.3-2.2-2.6-2.3-4c-0.4-3.2,2.1-5.8,4.5-7.5c6.2-4.3,15.7-8.2,22.7-3.7
						c0.1-0.8,0.2-1.5,0.3-2.3c-7.9,2.3-18.2,6.3-18.1,16.1c0.1,10.9,11.1,16.1,20.1,18.5c1.6,0.4,2.2-2,0.7-2.4
						c-7.9-2.1-18.2-6.3-18.3-16.1c-0.1-8.6,9.5-11.7,16.2-13.7c1.1-0.3,1.2-1.7,0.3-2.3c-7.5-4.8-17-1.3-24,2.9
						c-2.9,1.7-6.2,4.3-6.9,7.8c-1,4.7,5.3,8.9,2.4,13.1c-2.5,3.6-6.6,4.9-7.9,9.5c-0.9,3.1-0.3,6.4,2.1,8.7
						c6.3,6,12.4-3.6,18.5-4.6c-0.5-0.4-1.1-0.8-1.6-1.2c-0.6,6.2,4.8,12.2,11.2,11.6c7.5-0.7,10.7-9.6,15.5-14.1
						c0.8-0.8,0.2-2.1-0.9-2.1c-3.5-0.1-7-0.2-10.6-0.2C322,388.4,322,390.9,323.6,391L323.6,391z"/>
				</g>
			</g>
		</g>
		<g>
			<g>
				<path fill="#D1B2BB" d="M338.5,382.3c-2.1,1.2-3.9,3-6.1,4.1s-5.1,1.3-6.8-0.4c-2.1-2.1-1.3-5.7,0.2-8.2
					c0.7-1.1,1.4-2.7,0.5-3.6c-0.4-0.4-1.1-0.5-1.7-0.6c-3-0.1-6.8,0.6-8.4-2c-1.7-2.7,0.9-6,3.3-8.2c1.9-1.7,3.8-3.3,5.7-5
					c0.8-0.7,1.7-1.5,2.8-1.5c1.3,0,2.4,1,3.3,1.8c2.7,2.2,6.9,3.6,9.4,1.2c0.4,3.3,2.1,6.5,4.6,8.7c0.7,0.6,1.5,1.3,1.6,2.2
					c0.1,0.8-0.4,1.5-0.8,2.1c-3.3,4.5-7.6,8.3-12.6,10.9"/>
			</g>
			<g>
				<g>
					<path fill="#D1B2BB" d="M337.9,381.2c-2.2,1.4-6.2,5.6-9,4.8c-1.1-1.1-2.2-2.2-3.3-3.3c0.1-1.5,0.5-3,1.3-4.3
						c0.3-0.7,0.8-1.3,0.9-2.2c0.5-3.2-1.8-3.8-4.5-3.9c-2.4-0.1-7.4,0.9-5.6-5c0.4-1.3,2.4-2.7,3.4-3.6c2.8-2.5,5.3-6.1,9.7-3.9
						c3.7,1.8,6.7,4,10.7,1.2c-0.6-0.2-1.2-0.5-1.8-0.7c0.3,1.8,0.8,3.5,1.7,5.1c1,1.9,3.3,3.6,3.5,5.6c0.6,4.5-8.4,9.9-11.8,11.8
						c-1.4,0.8-0.1,2.9,1.3,2.2c4.8-2.7,10.7-6.8,13.3-11.8c0.8-1.6,0.9-2.5,0-4c-0.5-0.9-1.6-1.5-2.2-2.2c-1.8-2.1-2.8-4.5-3.2-7.2
						c-0.1-0.8-1.2-1.2-1.8-0.7c-5,3.5-7.5-3-12-3.1c-2.9-0.1-5.5,3.3-7.4,5c-3.3,2.9-10.4,10.1-3.3,13.5c1,0.5,2.1,0.5,3.1,0.6
						c1.7,0.1,2.4-0.5,3.5,1.2c1.2,1.8,0.4,0.9,0.1,2.4c-0.5,2.5-1.7,4.7-0.3,7.2c3.7,6.6,11.5,0.2,15.3-2.3
						C340.5,382.5,339.3,380.3,337.9,381.2L337.9,381.2z"/>
				</g>
			</g>
		</g>
		<g>
			<g>
				<path fill="#933D5F" d="M323.9,388c2.2-1.9,4.5-3.8,6.7-5.7c-0.9-1-2.5-0.5-3.7-1c-1.7-0.8-1.8-3.2-1.2-5.1
					c0.6-1.8,1.5-3.8,0.8-5.5c-1.5,1.1-3.6-0.2-4.5-1.7c-1-1.5-1.4-3.4-2.7-4.7c-1.7-1.6-4.3-1.7-6.7-1.6c-1.2,0-2.7,0.3-2.9,1.5
					c-0.2,1.3,1.5,2.2,1.7,3.6c0.4,2.5-4.4,3-4.5,5.6c-0.1,1.6,2,2.8,1.8,4.5c-0.2,1.4-2,2.4-1.8,3.8c0.2,1.9,3.4,1.7,4.3,3.4
					c0.8,1.6-1,3.6-0.1,5.2c1.1,2,5,0.3,6.3,2.2c0.5,0.7,0.4,1.6,0.9,2.2c1,1.3,3.2,0.2,3.8-1.3c0.6-1.5,0.3-3.2,0.7-4.8
					c0.5-1.7,1.8-3.2,3.5-3.8"/>
			</g>
			<g>
				<g>
					<path fill="#933D5F" d="M325.6,389.7c2.2-1.9,4.5-3.8,6.7-5.7c1.2-1,0.8-3.2-0.5-3.9c-2.4-1.3-3.7-1.5-3.3-4.6
						c0.2-2,0.7-3.4,0.3-5.5c-0.2-1.3-1.9-2.1-3.1-1.7c-1.6,0.5-4-5-5.1-5.9c-1.5-1.3-3.4-1.9-5.3-2.1c-3-0.3-8-0.1-8.3,3.9
						c-0.1,1.6,1.5,3,0.9,4.2c-0.6,1.1-2.4,1.6-3.1,2.9c-0.7,1.5-0.5,2.6,0,4.2c0.4,1.4,0.8,1.5,0.7,3c-0.1,0.8-0.9,1.5-1,2.5
						c-0.1,1.2,0.2,2.3,1,3.2c0.6,0.6,1.5,0.8,2.1,1.4c1.6,1.7,0.8-0.5,1,2c0.3,3.2,0.1,5.4,4,6.2c0.8,0.2,1.8-0.1,2.5,0.4
						c0.7,0.5,0.6,1.3,1.1,1.9c0.9,1.1,2,1.7,3.4,1.7c6.7,0.1,3.7-8.6,8-10.7c2.9-1.4,0.3-5.8-2.5-4.3c-3.1,1.6-4.3,3.9-4.9,7.2
						c-0.5,2.5-0.2,1.5-1.7,0.2c-0.8-0.6-1.7-0.9-2.7-1c-2.8-0.5-1.7,0.4-2-1.8c-0.2-1.1,0.3-2-0.3-3.2c-0.6-1.3-1.6-1.5-2.5-2.4
						c-1.3-1.5-0.8-0.3-0.1-2.6c0.3-1.2,0.2-2.1-0.2-3.3c-0.6-2.3-0.9-2,0.9-3.8c1.6-1.6,2.7-2.9,1.9-5.3c-0.1-0.3-0.8-1.3-0.8-1.5
						c0-0.8-1,0.3,0.5,0c3.8-0.7,4.9,2.5,6.6,5c1.7,2.6,4.4,3.8,7.3,2.9c-1-0.6-2.1-1.2-3.1-1.7c0.6,3.3-2.3,6.2-0.7,9.6
						c1.4,2.9,3.6,2.2,6,3.5c-0.2-1.3-0.3-2.6-0.5-3.9c-2.2,1.9-4.5,3.8-6.7,5.7C319.6,388.3,323.2,391.8,325.6,389.7L325.6,389.7z"
						/>
				</g>
			</g>
		</g>
		<g>
			<g>
				<path fill="#6D2E47" d="M329.4,441.4c-3.3,0.4-6.9,1.1-8.8,3.8c-3,4.3,0.5,10.7-1.8,15.4c-0.6,1.2-1.5,2.2-2,3.4
					c-2.3,5.1,2.6,10.5,3.1,16c0.1,1.2,0,2.4,0.5,3.5c1,2.3,4.1,3,6.4,2c2.3-1,3.7-3.3,4.5-5.7c0.8-2.3,1.2-4.8,2-7.2
					c1.1-3,2.9-5.7,5.1-8c2.4-2.6,5.5-5.3,5.1-8.9c-0.3-2.5-2.4-4.4-3.8-6.6c-1.5-2.3-2.2-5-3.5-7.4s-3.4-4.7-6.1-4.9"/>
			</g>
			<g>
				<g>
					<path fill="#6D2E47" d="M328.7,439c-5.1,0.8-10.3,2.5-11.7,8.1c-0.6,2.6-0.1,5.3,0,7.9c0.1,3.9-1.9,5.7-2.9,9
						c-1.7,5.5,2.1,10.1,3.1,15.3c0.5,2.8,0.1,5.4,2.4,7.4c1.6,1.4,3.7,2,5.8,1.7c5.3-0.6,7.7-6,8.9-10.5c1.2-4.4,2.5-7.9,5.7-11.4
						c1.6-1.8,3.6-3.5,4.7-5.7c3-5.8-1.2-9.3-3.8-14.2c-2.6-5-3.9-10.6-10.2-12c-3.1-0.7-4.5,4.2-1.3,4.8c4.9,1,5.5,6.7,7.6,10.4
						c0.9,1.5,2.5,2.9,3.1,4.5c1.5,3.7-0.6,5.3-2.7,7.6c-2.3,2.5-4.4,5-5.8,8c-1.5,3.2-1.4,9-3.9,11.4c-5.2,4.8-5.5-2.4-5.9-4.1
						c-0.4-1.6-1.1-3.2-1.7-4.8c-0.7-1.8-1.8-4-1.5-5.9c0.2-1.8,1.5-3.2,2.3-4.7c1.3-2.7,1.2-5.5,1-8.4c-0.2-2.8-0.9-6,1.9-8
						c1.7-1.2,4.2-1.4,6.2-1.7C333.2,443.4,331.8,438.6,328.7,439L328.7,439z"/>
				</g>
			</g>
		</g>
		<g>
			<path fill="#D1B2BB" d="M322.8,423.7c-5.7,3.2-11.5,6.6-15.3,11.8c-5.7,7.7-6.1,18.3-3.6,27.6c2.3,8.5,7,16.4,13.3,22.6
				c3.5-13.4,7-27.5,4-41c10.2,6.4,15.8,19.3,13.6,31.1c-0.3,1.4-0.7,2.9-0.3,4.3c0.6,2.4,3.5,3.8,6,3.5s4.7-2,6.3-3.9
				c2.6-3,4.3-6.7,5.7-10.4c3.1-8.1,5.1-16.8,3.5-25.3c-1.7-8.5-7.8-16.5-16.3-18.2c-3-0.6-6.1-0.5-9.1-1c-4.5-0.7-8.7-2.9-11.9-6.2
				"/>
		</g>
		<g opacity="0.23">
			<g>
				<path fill="#C0647E" d="M331.4,447.7c1.4,3.9,4.3,12.5,8.9,14.3c7.2,2.7,11-5.6,13-11c0.8-2.1,1.4-4.3,1.9-6.4
					c0-1.9-0.2-3.7-0.6-5.6c-0.4-1.9-1-3.8-1.8-5.7c-0.3,0-0.7-0.1-1-0.4c-7.2-7.7-14.9-7.8-23.7-2.8c-4.3,2.5-8.3,6.5-13.2,7.6
					c-1.4,0.3-3.9-0.4-5.2,0.7c-0.8,0.7-1,2.5-1.5,3.5c-0.8,1.3-1.4,2.3-2.7,3.2c-1.3,0.8-2.8,1.3-4.4,1.6
					c-0.1,3.8,0.5,7.6,1.5,11.2c0.7,2.5,1.6,5,2.7,7.4c4.3,1.3,10.3-5.1,15.6-10.7c0.3-5.1,0.1-10.2-1-15.2c3.4,2.1,6.3,5,8.6,8.3
					c0.1-0.1,0.3-0.1,0.4-0.2C329.2,446.7,331,446.5,331.4,447.7z"/>
			</g>
		</g>
		<g>
			<g>
				<g>
					<path fill="#6C7531" d="M310.9,524.8c-2.9-20-17.5-36.1-24.5-55c-4.5-12.2-5.7-25.3-9.2-37.8c-8.8-31.6-32.3-60.6-27.7-93.1
						c0.1-0.9,0.3-1.9,0.9-2.7c2.2-3,6.8,0,8.8,3.1c5.7,9.1,8,19.8,11.4,30c7.4,22.1,20.2,42.1,28.8,63.9c11.4,29,15,61,10.3,91.8"
						/>
				</g>
				<g opacity="0.19">
					<g>
						<path fill="#A1A764" d="M256.9,352.8c6-2.2,3.1-7.5,3.1-11.3c0-0.5,0-1,0.1-1.5c-0.2-0.3-0.3-0.6-0.5-0.9
							c-2-3.1-6.6-6.1-8.8-3.1c-0.6,0.8-0.7,1.7-0.9,2.7c-0.6,4.2-0.7,8.3-0.5,12.4C251.5,352.3,254.4,353.7,256.9,352.8z"/>
					</g>
				</g>
				<g opacity="0.33">
					<g>
						<path fill="#7F7F53" d="M252.3,337.7c1.4,8.2,0.5,16.6,2.2,24.7c1.6,8,4.7,15.7,7.7,23.2c5.6,14.2,12,28,18.2,41.9
							c13.6,30.5,24.7,61.3,28.7,94.6c0.1,0.8,1.3,0.8,1.2,0c-3.7-31.6-13.8-61.1-26.6-90.1c-6.7-15.3-13.8-30.4-20-45.8
							c-3-7.5-6.2-15.2-7.9-23.1c-1.8-8.5-0.9-17.1-2.4-25.7C253.4,336.6,252.2,336.9,252.3,337.7L252.3,337.7z"/>
					</g>
				</g>
				<g opacity="0.33">
					<g>
						<path fill="#7F7F53" d="M253,338.3c5.6,15.6,11.1,31.2,16.8,46.7c5.3,14.3,12.6,27.5,18.7,41.4c12.8,29.6,16.5,62,20.1,93.8
							c0.1,0.8,1.3,0.8,1.2,0c-3.5-30.7-7-62-18.8-90.9c-6.1-14.9-14.1-28.7-19.7-43.8c-5.9-15.8-11.4-31.7-17.1-47.5
							C254,337.2,252.7,337.5,253,338.3L253,338.3z"/>
					</g>
				</g>
			</g>
			<g opacity="0.92">
				<g>
					<path fill="#CFD079" d="M309,484.5c1.2,1.6-0.2,4.1-2.1,4.8c-1.9,0.6-4,0-5.9-0.6c-3.2-1-6.9-2.4-8.1-5.5
						c-0.8,2.1,1.2,4.2,2.8,5.8c3.8,3.9,5.6,9.3,7.4,14.4c1.2,3.7,2.5,7.3,3.7,11c1.2,3.7,2.5,7.6,1.7,11.4c2.6-0.5,2.6-4.2,2.1-6.8
						c-2.3-11.1-2.9-22.5-1.7-33.7"/>
				</g>
				<g>
					<g>
						<path fill="#CFD079" d="M308.4,484.7c-2,3.5-4.5,4.7-7.2,3.4c-0.8-0.2-1.6-0.5-2.4-0.8c-2.3-1-4.1-2-5.3-4.4
							c-0.2-0.4-1.1-0.4-1.1,0.1c-0.3,1.8,0.1,2.8,1.1,4.3c2.8,4.2,5.6,6.8,7.5,11.6c1.5,3.9,2.8,8,4.1,12c1.6,4.8,3.7,9.5,3,14.7
							c-0.1,0.4,0.3,1,0.8,0.8c4.5-1.9,2.4-7.7,1.8-11.3c-1.7-9.9-2-19.9-1-29.9c0.1-0.8-1.2-0.8-1.2,0c-0.7,7.5-0.8,15.1,0,22.6
							c0.3,3.2,0.9,6.3,1.4,9.5c0.1,0.7,1.4,6.8-0.3,7c0.3,0-0.1-3.4-0.2-3.5c-0.9-6.7-4.1-13.5-6.3-19.9c-0.9-2.6-1.9-5.2-3.3-7.7
							c-1.4-2.6-6.5-7.1-6.1-9.9c-0.4,0-0.8,0.1-1.1,0.1c2,3.9,7.3,6.2,11.6,6.6c3.4,0.3,7.2-1.9,5.6-5.7
							C309.3,483.6,308.1,484,308.4,484.7L308.4,484.7z"/>
					</g>
				</g>
			</g>
		</g>
		<g>
			<path fill="#D1B2BB" d="M334.4,633.7c3.2-3.7,7.1-6.7,11.4-8.9c2-1,4.1-1.8,6.2-1.8c4.3,0.1,7.7,3.2,10.8,6.2
				c1.9,1.9,4,4.3,3.3,6.9c-0.3,1.2-1.1,2.1-1.9,3c-2.9,3.3-6,6.8-10.1,8.4c-3.7,1.5-7.9,1.3-11.7,2.3c-3.9,1-7.8,4.1-7.5,8
				c0.2,3.4,3.4,5.8,6.5,7c3.2,1.2,6.6,1.6,9.5,3.4c0.4,0.3,0.9,0.6,1.1,1c0.5,0.8,0.1,1.9-0.5,2.7c-1.7,2.4-5.1,3.1-8,2.4
				s-5.2-2.7-7.1-5c-5.2-5.9-7.8-14-7.3-21.8c0.6-7.9,4.4-15.4,10.4-20.6"/>
		</g>
		<g>
			<path fill="#D1B2BB" d="M361,626.1c9.1,1.3,17.8,5.4,24.6,11.7c3.6,3.3,6.7,7.5,7.3,12.4c0.6,4.9-2.1,10.4-6.8,11.6
				c-0.5,0.1-1,0.2-1.5,0.1c-2-0.4-2.4-3-2.5-5c-0.8-9.3-7.4-18-16.2-21.1"/>
		</g>
		<g>
			<g>
				<path fill="#D1B2BB" d="M344,670.2c5.5,2.4,8.3,8.9,5.4,14.4c-1.3,2.4,2,5.2,3.9,3c3.5-4,8.7-8.6,8.1-14.5
					c-0.5-4.7-4.7-7.6-9.2-7.6c-3.3,0-3.1,4.7,0,5c4.1,0.4,8.2,0.6,12.3,0.5c-0.4-1.6-0.8-3.1-1.3-4.7c-0.8,0.5-1.5,0.9-2.3,1.4
					c-1.4,0.9-1.8,3.5,0,4.3c6.4,2.8,12.7,5.5,19.1,8.3c2.2,0.9,4.8-1.1,3.4-3.4c-3.9-6.8,0-13.9,3.7-19.9c1.4-2.4-2.1-5.3-3.9-3
					c-5.8,7.1-14.7,10.5-23.8,8.6c-2.6-0.5-4.6,3.3-1.9,4.6c6.7,3.2,13.6,2.9,20.9,2.1c-0.6-1.4-1.2-2.8-1.8-4.3
					c-2.1,1.9-4.4,3.4-6.9,4.7c-2.9,1.5-0.3,5.8,2.5,4.3c2.9-1.5,5.5-3.3,7.9-5.5c1.5-1.4,0.4-4.5-1.8-4.3
					c-6.2,0.7-12.6,1.3-18.4-1.4c-0.6,1.5-1.3,3-1.9,4.6c10.7,2.3,21.7-1.3,28.7-9.8c-1.3-1-2.6-2-3.9-3c-4.7,7.7-8.6,16.5-3.7,25
					c1.1-1.1,2.3-2.3,3.4-3.4c-6.4-2.8-12.7-5.5-19.1-8.3c0,1.4,0,2.9,0,4.3c0.8-0.5,1.5-0.9,2.3-1.4c2-1.3,1.3-4.7-1.3-4.7
					c-4.1,0.1-8.2-0.1-12.3-0.5c0,1.7,0,3.3,0,5c9.6,0.1-0.1,10.9-2.4,13.6c1.3,1,2.6,2,3.9,3c4.1-7.7,1-17.7-7.2-21.2
					C343.6,664.6,341.1,668.9,344,670.2L344,670.2z"/>
			</g>
		</g>
		<g>
			<g>
				<path fill="#933D5F" d="M372.2,645.8c-5.2-2.8-11.3-6.5-16.6-3.8c-2.3,1.2-4,3.4-5.5,5.6c-2.6,3.8-5.4,8.3-4,12.6
					c1.7,5.2,8.2,6.7,13.6,7.4c1.4,0.2,2.8,0.4,4.1,0.5c0.8,0.1,1.6,0.2,2.3,0.1c3.7-0.7,4.3-5.7,6.8-8.5c1.8-2,4.9-3.3,4.9-5.9
					c0-1.1-0.6-2.2-1.2-3.1c-2.3-3.4-5.3-6.3-8.8-8.4"/>
			</g>
			<g>
				<g>
					<path fill="#933D5F" d="M373.5,643.6c-4.7-2.5-10-5.8-15.6-4.9c-5.1,0.8-8.3,4.9-10.9,9c-2.8,4.4-5.2,9.8-2.5,14.8
						c2,3.8,6.2,5.6,10.1,6.6c3.7,0.9,9.7,2.5,13.3,1.1c4.1-1.6,4.6-6.3,7.3-9.2c2.8-3,6.4-4.9,4.8-9.6c-1.7-4.8-6.7-8.8-10.8-11.4
						c-2.7-1.7-5.2,2.6-2.5,4.3c2.6,1.7,6.7,4.5,7.9,7.5c1.3,3.3-1.9,4.4-3.7,6.5c-1.3,1.6-1.8,3.5-3,5.1c-2.3,3-5.4,2.1-8.8,1.5
						c-7.5-1.2-13.8-4.5-8.8-13.2c2.1-3.6,5.1-8.3,9.7-8.2c3.9,0.1,7.6,2.6,10.8,4.4C373.8,649.5,376.3,645.2,373.5,643.6
						L373.5,643.6z"/>
				</g>
			</g>
		</g>
		<g>
			<g>
				<path fill="#733D59" d="M356.9,645.7c-1,0.7-3.9,5.6-4.5,6.7c-4.1,7,3.5,9.9,8.9,11.6c1-3.8,4.5-5.3,7.8-7.3
					c5.6-3.4,4.7-7.8-2.1-9.8C364.6,646.2,358.8,644.5,356.9,645.7z"/>
			</g>
			<g>
				<g>
					<path fill="#733D59" d="M356,644.8c-2.8,2.4-6.5,8.3-6,12.1c0.7,5,6.8,7,10.9,8.3c0.7,0.2,1.3-0.2,1.5-0.9
						c1.6-4.8,7.1-5.4,10.1-9c1.5-1.9,1.9-4.2,0.5-6.3c-1.7-2.4-5.1-3.3-7.8-4c-2.8-0.8-6.2-1.7-9-0.5c-1.5,0.7-0.2,2.8,1.3,2.2
						c3.3-1.5,17,2.3,13,7.1c-1.7,2-4.7,3-6.7,4.6c-1.8,1.4-3,3-3.8,5.2c0.5-0.3,1-0.6,1.5-0.9c-3.2-1-9.3-2.6-9.2-6.9
						c0.1-2.6,3.4-7.6,5.3-9.3C359,645.5,357.2,643.8,356,644.8z"/>
				</g>
			</g>
		</g>
		<g opacity="6.000000e-02">
			<g>
				<path fill="#933D5F" d="M346.9,643c3.9-1,9.5-3.7,12.6-6.3c2.8-2.3,4.1-5.2,4.4-8.3c0,0-0.1-0.1-0.1-0.1c-3-3-6.5-6.1-10.8-6.2
					c-2.2,0-4.3,0.8-6.2,1.8c-4.3,2.2-8.2,5.2-11.4,8.9l5.3-6.7c-4.1,3.6-7.2,8.3-8.9,13.5C336.6,642.1,341.1,644.6,346.9,643z"/>
			</g>
		</g>
		<g>
			<g>
				<g>
					<path fill="#933D5F" d="M457.9,654.2c-3.3-0.6-6.8-1-9.9,0.2s-5.6,4.6-4.9,7.8c0.4,1.9,1.9,3.6,1.6,5.5
						c-0.6,4.2-8.1,4.5-8.5,8.7c-0.3,3.1,3.5,4.7,6.5,5.4c4.7,1,9.5,2.1,14.2,3.1c0.9,0.2,1.9,0.4,2.8,0.1c0.9-0.4,1.5-1.3,2-2.2
						c1.3-2.5,2.1-5.2,2.3-8c0.2-2.2,0-4.7,1.5-6.4c0.8-1,2.1-1.6,2.5-2.8c1.1-3.4-5.4-4.2-6.3-7.6c-0.3-1,0-2-0.3-3
						c-0.7-2.6-4.2-3-6.8-2.9"/>
				</g>
				<g>
					<g>
						<path fill="#933D5F" d="M458.6,651.8c-5.7-1-12.4-1.3-16.2,3.9c-1.5,2.1-2.3,4.6-1.7,7.2c0.4,1.7,2,3.7,0.9,5.5
							c-0.5,0.8-2.1,1.3-2.9,1.8c-3.4,2-6.6,5.4-4.2,9.5c2.8,4.8,10.8,5.2,15.5,6.2c6.3,1.4,11.4,3.5,14.5-3.4
							c1.3-2.9,1.7-5.9,2-9.1c0.3-3.3,3.2-4.6,3.8-7.6c1-5-5.3-5.6-6.4-9.4c-0.7-2.3-0.3-3.8-2.5-5.4c-2-1.4-4.6-1.5-6.9-1.5
							c-3.2,0.1-3.2,5.1,0,5c3.2-0.1,3.6,0.6,4.6,3.4c0.4,0.9,0.5,1.8,1.1,2.6c0.7,1,1.7,1.7,2.7,2.5c2.1,1.5,1.9,1.4,0.7,3.5
							c-1.5,2.9-1.8,4.9-2.2,8.1c-0.3,2.6-0.7,7.1-3.9,7.7c-1.6,0.3-4.6-1-6.2-1.4c-2-0.4-11.4-1.2-12.2-3.6c-0.9-2.6,4.5-4.1,6-5.6
							c1.7-1.7,2.4-3.8,1.9-6.2c-0.7-3.3-3.1-5.9,0.9-8.5c2.7-1.7,6.4-1.1,9.3-0.6C460.4,657.2,461.7,652.4,458.6,651.8L458.6,651.8
							z"/>
					</g>
				</g>
			</g>
			<g opacity="0.34">
				<g>
					<path fill="#733D59" d="M464.1,672.1c0.1-1.3,0.4-2.5,1.1-3.5c0,0,0,0,0-0.1c0.5-7.9-5-6.1-8.8-10.4c-1.4-1.6-1-3.1-3.4-4.1
						c-0.7-0.3-1.4-0.4-2-0.5c-1,0.1-2,0.3-2.9,0.7c-0.1,0-0.2,0.1-0.3,0.2c-2.7,1.9-3.1,6.5,1.2,8.8c0.9,0.5,0.8,1.6,0,2.1
						c0.2-0.1-4.2,3.1-4.4,3.7c-0.1,0.3,0.6,0.8,0.6,1.1c0.1,1.3,1.2,3.3,1.6,4.7c0.8,2.8,1.4,6.7,3.4,8.5c0.8,0.2,1.6,0.4,2.4,0.5
						c0.8-2.1,2.1-3.9,4.2-5.6C459.4,676,462.5,674.7,464.1,672.1z"/>
				</g>
				<g>
					<g>
						<path fill="#733D59" d="M465.3,672.5c0.4-2.7,1.6-4.1,1-6.9c-0.4-2.1-1.5-3.5-3.3-4.6c-2.9-1.9-4.8-2.8-6.9-5.7
							c-1.3-1.7-2.9-2.9-5.1-2.9c-4.1-0.1-7.5,3.6-6.4,7.7c0.5,1.8,3.3,3.7,2.9,4.8c-0.4,1.2-3.2,2.3-4.1,3.6
							c-0.3,0.4-0.2,0.9,0,1.3c2.6,5.3,2,13.9,8.7,15.4c0.5,0.1,1.2-0.1,1.4-0.6c2.4-5.5,8.2-7.1,11.6-11.7c1-1.3-1.2-2.5-2.2-1.3
							c-2.5,3.3-6.7,4.7-9.4,7.9c-0.4,0.5-1.5,2.8-2,2.9c-1.8,0.3-3-5.4-3.4-6.6c-0.5-1.7-1.1-3.2-1.7-4.8c-0.2-0.6-0.3-2.1-0.5-1.7
							c0.7-1.6,3.6-2,4.4-3.8c0.7-1.5,0.1-2.1-0.8-3.2c-1.3-1.7-2.8-2-2.4-4.3c0.3-1.7,1.6-2.9,3.5-2.9c2.4,0,3.3,2.3,4.7,3.9
							c1.5,1.9,3.7,2.6,5.6,3.8c4.2,2.6,2.4,5.4,1.9,9.1C462.7,673.4,465.1,674.1,465.3,672.5z"/>
					</g>
				</g>
			</g>
		</g>
		<g>
			<g>
				<path fill="#733D59" d="M376.1,783.1c-5.1-2.1-11.3-4.2-15.7-1c-1.4,1-2.4,2.4-3.7,3.5c-3,2.4-7.1,2.8-10.8,1.8s-7-3-10.1-5.1
					c-1.4-0.9-2.9-2.1-3.1-3.7c-0.4-2.3,1.7-4.2,2.9-6.3c2.1-3.8,0.8-9.1,3.6-12.4c1.9-2.2,5.3-2.8,8.1-1.7c2.7,1.1,4.8,3.6,5.8,6.3
					c0.3,0.8,0.7,1.8,1.6,1.8c0.4,0,0.8-0.2,1.1-0.5c3-2.5,3.6-7.7,7.3-8.8c1.1-0.3,2.4-0.2,3.5,0.1c2.8,0.6,5.5,1.8,7.5,4
					c1.9,2.1,2.9,5.2,2,7.9c-0.3,0.8-0.7,1.7-0.4,2.5c0.4,0.9,1.4,1.3,2.3,1.8c2.3,1.4,3,4.4,2.5,7s-2.1,4.8-3.6,7
					c-0.8,1.1-2,2.4-3.3,2"/>
			</g>
			<g>
				<g>
					<path fill="#733D59" d="M376.5,781.9c-4.2-1.7-9.2-3.6-13.8-2.2c-5.4,1.7-7.5,7.3-14,7c-3.7-0.2-7.2-2-10.3-4
						c-2-1.3-4.1-4.6-3.5-7.2c0.3-1.1,1.7-2.6,2.2-3.8c0.6-1.6,0.8-3.3,1-5c0.5-3,0.8-6.3,4.4-7.5c2.2-0.7,4.6,0.1,6.3,1.6
						c2,1.7,3,7.3,6.3,6.7c4.7-1,4-8.2,9.2-9c4.1-0.6,9.4,2.6,10.4,6.7c0.5,2.2-1.1,4.7-0.4,6.7c0.4,1.1,1.2,1.3,2,2
						c3,2.7,3.7,4.7,1.9,8.8c-0.8,1.7-3,5.3-4.8,5.4c-1.6,0.1-1.6,2.6,0,2.5c4.3-0.2,7.4-6.1,8.2-9.9c0.4-1.9,0.2-3.8-0.6-5.5
						c-0.5-1-1.1-1.5-1.7-2.3c-1.4-1.6-1.9-1.2-2-4.2c0-4.7-1.1-8.3-5.5-10.8c-3.6-2.1-8.7-3.4-12-0.2c-1.5,1.5-2,4.6-3.7,5.8
						c-2.2,1.5-2.5-0.8-3.4-2.2c-0.6-0.9-1.4-1.8-2.3-2.5c-3.1-2.6-8-3.2-11.3-0.5c-1.6,1.3-2.5,3.2-3,5.2c-1,3.9-1.2,7.2-3.3,10.7
						c-2.3,3.9-1.3,6.7,2.3,9.3c5.1,3.7,11.7,7,18.1,5.3c3-0.8,4.5-2.7,6.8-4.5c4.9-4,10.6-2,15.8,0.2
						C377.3,784.9,377.9,782.5,376.5,781.9L376.5,781.9z"/>
				</g>
			</g>
		</g>
		<g>
			<g>
				<path fill="#D1B2BB" d="M348.3,746.2c-7.3-2.4-15.5,2.6-18.8,9.5c-3.3,6.9-2.8,15.1-1.3,22.6c2.2,10.7,7.4,22,17.5,26.1
					c-0.7-9.1-3.5-18.1-7.9-26.1c-1.9-3.3-4.1-6.6-4.6-10.4c-0.5-3.8,1.2-8.2,4.9-9.2c4-1.1,7.8,2.3,10.4,5.5
					c1.1,1.3,2.2,2.7,3.8,3.2c2.8,0.9,5.8-1.2,7.4-3.7c1.6-2.5,2.4-5.5,4.3-7.8c0.4-0.5,0.9-1,1.6-1.2c0.9-0.3,1.9,0.2,2.7,0.7
					c7.6,4.6,14.3,13,12.6,21.8c-1.1,6-5.9,11.1-5.8,17.2c3,1.9,7.2,1.4,10-0.7c2.8-2.2,4.4-5.6,5-9.2c0.9-6-1.1-12.2-4.4-17.3
					c-3.3-5.1-7.8-9.3-12.3-13.4c-3.4-3-7.1-6.1-11.7-6.6c-5-0.5-11.3,1.6-14-2.6"/>
			</g>
			<g>
				<g>
					<path fill="#D1B2BB" d="M348.5,745.6c-14.4-3.9-22.5,11.5-22.1,23.7c0.5,13.5,5.9,29.8,19,35.7c0.4,0.2,1,0,0.9-0.5
						c-1-10.7-4.6-19.9-9.7-29.2c-1.8-3.3-3.7-7-2.7-10.9c1.9-7.4,9.2-4.7,13-0.8c2,2.1,3.6,4.8,6.9,4.8c3.9,0,6.2-3.8,7.7-6.8
						c1.6-3.2,3.5-6.3,7.5-4.6c2.5,1,4.9,3.9,6.6,6c4.5,5.5,5.9,11.9,3.1,18.6c-1.8,4.4-4.2,8.3-4.4,13.1c0,0.2,0.1,0.4,0.3,0.5
						c5.2,2.7,10.9,0.5,13.9-4.4c3.9-6.6,2.3-15.1-1.2-21.5c-3.9-7.3-10.6-13.8-17.3-18.7c-2.6-1.9-5.3-3.4-8.5-3.8
						c-4.5-0.6-10.3,1.7-13.6-2.4c-0.5-0.6-1.4,0.3-0.9,0.9c1.8,2.2,3.9,2.7,6.6,2.8c2,0.1,4-0.2,5.9-0.2c4.3,0.1,7.5,1.9,10.8,4.5
						c8.7,6.9,18.3,16.4,19,28.1c0.2,3.3-0.3,6.7-2.1,9.6c-0.9,1.5-2.3,3.1-3.9,3.9c-1,0.6-4.7,1.7-6,1c-4.7-2.8,2.4-12.2,3.5-16
						c2-7.5-1.6-14.7-7-19.7c-1.9-1.8-5.1-5-7.9-5c-2.8,0-3.9,3.1-5,5.3c-0.6,1.1-1,2.3-1.7,3.3c-2.1,3.2-2.7,3.6-6.1,3.2
						c-3.7-0.4-4.2-2.2-6.6-4.6c-2.4-2.2-5.5-4.2-8.8-3.3c-6.4,1.7-6,9.9-3.9,14.6c2.1,4.6,4.9,8.8,6.8,13.5c1,2.7,1.9,5.4,2.6,8.2
						c0.3,1.4,2.4,8,1.3,8.9c-0.9,0.7-5.6-3.9-6.5-4.9c-1.9-2-3.5-4.4-4.8-6.8c-2.8-5.2-4.4-11-5.3-16.8c-1-6.6-1-14.1,2.4-20.1
						c3.5-6.1,10.5-9.9,17.5-8.1C348.9,747.1,349.2,745.9,348.5,745.6L348.5,745.6z"/>
				</g>
			</g>
		</g>
		<g>
			<path fill="#CA8193" d="M377.8,787.3c-1-3.5-2.1-7.1-4.2-10.1c-2.1-3-5.6-5.3-9.2-5c-2,0.1-3.9,1-5.7,1.9c-5,2.4-10,4.8-15,7.2
				c-0.7,0.3-1.4,0.7-1.9,1.4c-0.4,0.7-0.4,1.6-0.4,2.4c0.3,5.3,2.2,10.8,0.4,15.8c-0.4,1-0.9,2.1-0.8,3.2c0.3,2,2.5,3,4.5,3.7
				c8.2,2.6,17.1,5.2,25.1,2c2.4-1,4.8-2.9,4.9-5.4c0-1.2-0.5-2.4-0.2-3.6c0.6-2.2,3.4-2.7,5-4.3c2.1-2,1.9-5.6,0.4-8.1
				c-1.5-2.5-4.1-4.1-6.6-5.6"/>
		</g>
		<g opacity="0.34">
			<g>
				<path fill="#733D59" d="M372.6,788.9c-0.7-2.3-1.3-4.6-2.7-6.5c-1.4-1.9-3.6-3.4-6-3.2c-1.3,0.1-2.5,0.7-3.7,1.2
					c-3.2,1.6-6.4,3.1-9.7,4.7c-0.5,0.2-0.9,0.5-1.2,0.9c-0.3,0.4-0.3,1-0.3,1.5c0.2,3.4,1.4,7,0.2,10.2c-0.2,0.7-0.6,1.4-0.5,2.1
					c0.2,1.3,1.6,2,2.9,2.4c5.3,1.7,11.1,3.3,16.2,1.3c1.5-0.6,3.1-1.8,3.2-3.5c0-0.8-0.3-1.5-0.1-2.3c0.4-1.4,2.2-1.8,3.3-2.8
					c1.4-1.3,1.3-3.6,0.3-5.2c-1-1.6-2.6-2.6-4.2-3.6"/>
			</g>
			<g>
				<g>
					<path fill="#733D59" d="M373.8,788.6c-1.2-3.9-2.6-8.3-6.7-10c-4.1-1.8-8,1-11.6,2.7c-4.7,2.2-8.2,2.7-7.5,8.3
						c0.3,2.2,0.6,4.1,0.3,6.3c-0.1,0.9-0.6,2-0.7,2.8c0,1.4-0.1,2.2,1,3.2c3,3,10.3,3.8,14.4,3.7c3-0.1,7.6-1,8.8-4.2
						c0.5-1.3-0.2-1.5,0.2-2.7c0.7-2.1,1.3-1.6,2.6-2.8c0.8-0.7,1.3-1.6,1.5-2.7c0.8-3.9-2.7-6.5-5.5-8.3c-1.4-0.9-2.6,1.3-1.3,2.2
						c2.4,1.5,3.1,1.8,3.1,4.8c0,3.5-0.2,2-1.9,3.7c-0.6,0.6-0.8,1.3-1.1,2c0,0.4,0,0.8,0,1.1c-1.2,1.3-2.5,2.6-3.7,4
						c-1.5,0.8-4.3,0.4-6,0.2c-2.8-0.3-7.4-0.9-8.7-3.4c-1.1-2-0.1-4.5-0.3-6.8c-0.2-2.6-0.3-1.4,0-4.3c0.3-2.9,1.2-2.7,3.5-3.8
						c2.3-1.1,6.1-3.8,8.6-4c2.5-0.2,5.4,1.5,6.6,3.6c0.9,1.5,1.3,3.3,1.8,5C371.8,790.8,374.2,790.1,373.8,788.6L373.8,788.6z"/>
				</g>
			</g>
		</g>
		<g opacity="0.23">
			<g>
				<path fill="#C0647E" d="M398,719.2c1.4-0.8,2.7-2,3.4-3.7c0.9-2.2,0.4-4.9,1.4-7c1.1-2.3,3.1-3.6,5.6-3.9c8-1,14.7,6.3,22.4,7.7
					c-7.9-11.2-18-18.5-29.6-25.7c-1.4,0.1-2.8,0.5-3.9,1.3c-2.7,2.1-2.5,6.2-2.1,9.7C396.1,704.7,397,711.9,398,719.2z"/>
			</g>
		</g>
		<g>
			<path fill="#733D59" d="M452.9,739.6c0.6-4,5.6-6.7,9.3-5.1c2.2,1,4.7,3.1,6.5,1.5c0.6-0.5,0.8-1.3,1-2.1
				c1.7-6.5,2.5-13.1,2.4-19.8c0-2.1-0.2-4.4-1.7-5.9c-1.1-1.1-2.7-1.6-4.2-2c-8.4-2.3-16.8-4.6-25.3-6.8c-1.1-0.3-2.4-0.6-3.5-0.2
				c-0.7,0.3-1.3,0.9-1.8,1.6c-1.7,2.4-2.1,5.6-3,8.4s-2.6,5.9-5.5,6.5c-2.7,0.6-5.3-0.9-7.8-1.8c-2.6-1-6-1.1-7.4,1.3
				c-0.9,1.6-0.5,3.6,0.3,5.3c1.9,4.1,5.3,7.3,8.1,10.8c2.8,3.6,5,8.1,4,12.5c-0.2,0.8-0.5,1.7-0.4,2.5c0.3,1.6,2.2,2.4,3.9,2.8
				c11.8,3.1,24.9,6.1,35.6,0.2c4-2.2,7.6-6.3,6.7-10.8"/>
		</g>
		<g>
			<g>
				<path fill="#933D5F" d="M452.1,731.4c-0.6-5-1.2-10.1-1.8-15.1c-0.1-0.9-0.3-2-1-2.6c-1.6-1.4-4,0.4-5.1,2.2
					c-4.4,6.9-6.6,15.2-6.1,23.4c3.5,1.1,7.4,1,10.9-0.1c-3.2,5-4.1,11.3-2.6,17c0.6,2.1,1.9,4.4,4.1,4.4c1.6,0,2.8-1.4,3.7-2.8
					c2.9-4.5,4.1-10.1,3.4-15.4c5.2,0,10.3,0,15.5-0.1c0.8,0,1.6,0,2.2-0.5c0.8-0.6,0.8-1.8,0.7-2.8c-0.6-5.7-5.2-11.5-10.8-10.9
					c-4.9,0.4-9.5,5.3-14,3.2"/>
			</g>
			<g>
				<g>
					<path fill="#933D5F" d="M454.6,731.4c-0.6-4.7,0-25.8-9.8-19.6c-3.4,2.2-5.3,7.2-6.7,10.8c-2,5.4-2.8,11-2.5,16.8
						c0,1.1,0.7,2.1,1.8,2.4c4.2,1,8.1,1,12.3-0.1c-0.9-1.2-1.9-2.4-2.8-3.7c-3.3,5.7-7.3,21.7,1.8,24.8c9.5,3.3,12-14.7,11.5-20.4
						c-0.8,0.8-1.7,1.7-2.5,2.5c3.9,0,7.7,0,11.6-0.1c2.2,0,5.3,0.5,7.3-0.9c3.2-2.2,1.9-7.2,0.6-10.1c-1.8-4.1-5.4-7.7-10-8.2
						c-5.3-0.6-10.4,4.8-15.3,3.2c-3.1-1-4.4,3.8-1.3,4.8c6.5,2.1,12.4-5.4,18.2-2.3c1.5,0.8,2.7,2.3,3.5,3.8c0.5,1,0.9,2.1,1.1,3.2
						c0.2,1.6-0.6,2.1-2.3,1.5c-3.8,1.1-9.5,0-13.5,0.1c-1.3,0-2.6,1.1-2.5,2.5c0.2,2.5,0.2,4.9-0.3,7.3c-0.2,1-0.5,2.1-0.9,3.1
						c-0.8,2.1-1,3.9-3.5,3.2c-5.1-1.5-1.1-12.4,0.8-15.6c1.1-1.9-0.7-4.3-2.8-3.7c-3.3,0.9-6.3,1-9.6,0.1c0.6,0.8,1.2,1.6,1.8,2.4
						c-0.3-6.5,0.9-12.8,3.8-18.6c0.4-0.8,1.8-4,2.5-4.1c1.2-0.2,1.5,3.8,1.6,4.4c0.4,3.5,0.8,6.9,1.2,10.4
						C450,734.5,455,734.6,454.6,731.4L454.6,731.4z"/>
				</g>
			</g>
		</g>
		<g opacity="0.33">
			<g>
				<path fill="#7F7F53" d="M328.1,591.2c8.4-14.8,12.9-31.3,19.4-46.9c6.5-15.8,14.5-31.1,23.6-45.6c17.9-28.4,40.5-53.6,66.7-74.6
					c0.6-0.5-0.3-1.4-0.9-0.9c-25.8,20.7-48.2,45.6-66,73.5c-9,14-16.8,28.8-23.3,44.1c-7,16.5-11.7,34.1-20.6,49.8
					C326.6,591.3,327.7,591.9,328.1,591.2L328.1,591.2z"/>
			</g>
		</g>
		<g opacity="0.33">
			<g>
				<path fill="#7F7F53" d="M329.3,590.6c15.5-30,30.3-60.5,48.7-88.8c17.9-27.5,38.5-53,60.9-76.9c0.6-0.6-0.3-1.5-0.9-0.9
					c-22.1,23.5-42.4,48.6-60.1,75.6c-18.8,28.8-33.9,59.8-49.7,90.3C327.9,590.6,328.9,591.3,329.3,590.6L329.3,590.6z"/>
			</g>
		</g>
		<g opacity="0.71">
			<g>
				<path fill="#CFD079" d="M324.7,598.4c2.5-2.9,4.3-6.4,5.1-10.2c0.6-2.8,0.7-5.7,0.8-8.5c0.6-8.8,2.5-17.6,5.6-25.8
					c0.9-0.1,1.6,0.8,1.8,1.6c0.2,0.9,0,1.8,0,2.7c0.2,3.5,4.7,5.8,7.7,4c1.5-1,3.5-2.7,4.7-1.4c0.6,0.7,0.4,1.8-0.1,2.7
					c-1.8,3.1-5.8,3.9-8.6,6.2c-4.7,3.7-5.3,10.7-8.6,15.7c-1.7,2.6-4.1,4.5-6.2,6.8s-3.8,5.2-3.6,8.3"/>
			</g>
			<g>
				<g>
					<path fill="#CFD079" d="M325.1,598.8c7.4-9,5.6-20.4,7.8-31.3c0.6-2.9,1.3-5.7,2.2-8.6c0.3-1,0.8-5.2,2.4-2.2
						c0.2,0.4,0,1.5,0.1,2.1c0.5,2.3,2.5,4.1,4.9,4.5c1.3,0.2,2.4-0.1,3.6-0.6c1.8-0.8,2.2-2.7,1.6,0.8c-0.5,2.5-0.8,2.4-2.7,3.4
						c-3.8,2.1-6.2,4.4-8,8.4c-2.4,5.3-4.2,9.8-8.3,14.1c-3.1,3.2-5.7,6.3-5.9,10.9c0,0.8,1.2,0.8,1.2,0c0.2-5.8,4.8-8.8,8.2-12.8
						c1.8-2.1,3-4.5,4.1-7.1c1.7-4.2,3-8.4,6.9-11.1c2.2-1.5,5.1-2.3,6.9-4.4c1.6-2,2.1-5.5-1.3-5.2c-0.9,0.1-1.6,0.9-2.3,1.2
						c-5,2.1-6.6-0.1-7.7-4.2c-0.5-2-0.2-2.8-2.3-3.6c-0.3-0.1-0.7,0.1-0.8,0.4c-2.4,6.7-4.2,13.6-5.1,20.6
						c-1.1,8.6-0.4,16.5-6.3,23.6C323.8,598.5,324.6,599.4,325.1,598.8L325.1,598.8z"/>
				</g>
			</g>
		</g>
		<g>
			<g>
				<path fill="#61672D" d="M331.2,623.5c16.8-12.9,26.7-32.5,40.2-48.8c6.9-8.4,14.8-16,22.8-23.4c22.9-21.4,46.6-42,71.1-61.6
					c3.3-2.6,8.9-4.9,10.9-1.2c1.5,2.7-0.9,5.9-3.1,8.1c-8.5,8.5-17,17.1-25.5,25.6c-27.6,27.7-55.4,55.6-87.1,78.7
					c-10.6,7.7-21.6,14.9-32.6,22.1"/>
			</g>
			<g>
				<g>
					<path fill="#61672D" d="M331.6,623.9c18.3-14.4,28.5-35.8,43.7-52.9c17.4-19.6,38-36.8,57.8-53.8c10.2-8.8,20.5-17.4,31-25.8
						c2.2-1.7,5.5-4.5,8.6-4.1c7.8,1,0.6,8.1-0.8,9.6c-1.1,1.1-2.2,2.2-3.4,3.4c-4.9,4.9-9.8,9.9-14.8,14.8
						c-18.2,18.3-36.3,36.7-55.5,54c-22.1,19.9-45.8,37.1-70.7,53.4c-0.7,0.4,0,1.5,0.6,1.1c24-15.6,46.9-32,68.3-51.1
						c21.6-19.3,41.8-40,62.3-60.5c4.9-4.9,10.1-9.7,14.8-14.8c2.2-2.4,5.5-6.5,2.5-9.7c-5.6-6-17.4,6.9-20.9,9.8
						c-22.9,18.8-45.3,38.2-66.7,58.7c-10.6,10.1-19.9,21-28.4,32.9c-8.7,12.3-17.3,24.9-29.3,34.3
						C330.1,623.5,331,624.4,331.6,623.9L331.6,623.9z"/>
				</g>
			</g>
		</g>
	</g>
</g>
</svg>
