<?xml version="1.0" encoding="utf-8"?>
<!-- Generator: Adobe Illustrator 18.0.0, SVG Export Plug-In . SVG Version: 6.00 Build 0)  -->
<!DOCTYPE svg PUBLIC "-//W3C//DTD SVG 1.1//EN" "http://www.w3.org/Graphics/SVG/1.1/DTD/svg11.dtd" [
	<!ENTITY ns_flows "http://ns.adobe.com/Flows/1.0/">
	<!ENTITY ns_extend "http://ns.adobe.com/Extensibility/1.0/">
	<!ENTITY ns_ai "http://ns.adobe.com/AdobeIllustrator/10.0/">
	<!ENTITY ns_graphs "http://ns.adobe.com/Graphs/1.0/">
]>
<svg version="1.1" id="Capa_1" xmlns:x="&ns_extend;" xmlns:i="&ns_ai;" xmlns:graph="&ns_graphs;"
	 xmlns="http://www.w3.org/2000/svg" xmlns:xlink="http://www.w3.org/1999/xlink" xmlns:a="http://ns.adobe.com/AdobeSVGViewerExtensions/3.0/"
	 x="0px" y="0px" viewBox="0 0 749 1334" enable-background="new 0 0 749 1334" xml:space="preserve">
<g>
	<path fill="#FFFFFF" d="M305.1,1214h-23.6l-12.2-77.2l-5.6-42.2h17.4l12.1,92l12.2-92h17.4l-5.6,42.4L305.1,1214z"/>
	<path fill="#FFFFFF" d="M333.5,1094.6h17.2V1214h-17.2V1094.6z"/>
	<path fill="#FFFFFF" d="M366.8,1094.6H384l16.3,69.3v-69.3h15.9V1214h-17.2l-15.7-67.1v67.1h-16.6V1094.6z M379,1091.9l-8.3-4.4
		l2.1-4.3c2.7-5.5,6.2-8.3,10.6-8.6h0.4c2.7,0,6.2,1.3,10.5,4c2.1,1.3,3.8,1.9,5.1,1.9c1.1,0,2-0.5,2.6-1.4l2.5-4.1l7.9,5.2
		l-2.5,4.1c-2.6,4.1-5.8,6.3-9.6,6.5h-0.4c-2.7,0-6.2-1.3-10.4-4c-2.7-1.7-4.3-2.5-4.8-2.6h-0.2c-1.1,0-2.3,1.1-3.3,3.3L379,1091.9z
		"/>
	<path fill="#FFFFFF" d="M481.4,1171.7l5.6,42.4h-17.4l-3.3-25.3h-17.6l-3.4,25.3h-17.3l5.6-42.2l12.2-77.2h23.6L481.4,1171.7z
		 M456.9,1090h-9.6l8.6-15.4h13.5L456.9,1090z M464,1171.7l-6.6-49.7l-6.6,49.7H464z"/>
	<path fill="#FFFFFF" d="M540.7,1094.6v17h-16.1V1214h-17.2v-102.4h-16.1v-17H540.7z"/>
	<path fill="#FFFFFF" d="M552,1094.6h17.2V1214H552V1094.6z"/>
	<path fill="#FFFFFF" d="M633.6,1190.9c0,16.7-8.3,25.1-24.8,25.1c-16.5,0-24.7-8.4-24.7-25.1v-73c0-16.7,8.2-25.1,24.7-25.1
		c16.5,0,24.8,8.4,24.8,25.1v16.1h-17.2v-16.1c0-5.4-2.5-8.1-7.5-8.1h-0.1c-5,0-7.4,2.7-7.4,8.1v73c0,5.4,2.5,8.1,7.5,8.1
		c5,0,7.5-2.7,7.5-8.1v-28h-7.5v-17h24.7V1190.9z"/>
	<path fill="#FFFFFF" d="M696.5,1190.9c0,16.7-8.3,25.1-24.8,25.1c-16.5,0-24.7-8.4-24.7-25.1v-73c0-16.7,8.2-25.1,24.7-25.1
		c16.5,0,24.8,8.4,24.8,25.1V1190.9z M679.3,1117.8c0-5.4-2.5-8.1-7.5-8.1h-0.1c-5,0-7.4,2.7-7.4,8.1v73c0,5.4,2.5,8.1,7.5,8.1
		c5,0,7.5-2.7,7.5-8.1V1117.8z"/>
</g>
<g>
	<path fill="#B52222" d="M583.4,1244.6c0,0.1,0,0.2,0,0.4s0,0.3-0.1,0.5s-0.1,0.4-0.2,0.6s-0.1,0.4-0.2,0.6s-0.2,0.3-0.3,0.4
		s-0.3,0.2-0.4,0.2h-8.5l-5.3,26.3c0,0.1-0.1,0.2-0.2,0.3s-0.2,0.2-0.4,0.2s-0.4,0.1-0.6,0.1s-0.6,0.1-1,0.1s-0.7,0-1-0.1
		s-0.4-0.1-0.6-0.1s-0.2-0.1-0.3-0.2s-0.1-0.2,0-0.3l5.2-26.3h-8.5c-0.2,0-0.4-0.1-0.4-0.2s-0.1-0.3-0.1-0.6c0-0.1,0-0.2,0-0.4
		s0.1-0.3,0.1-0.6s0.1-0.4,0.2-0.6s0.1-0.4,0.2-0.5s0.2-0.3,0.3-0.4s0.3-0.2,0.4-0.2h21.1c0.2,0,0.3,0.1,0.4,0.2
		S583.4,1244.4,583.4,1244.6z"/>
	<path fill="#B52222" d="M603.8,1272.7c0,0.3,0.1,0.6,0,0.8s-0.1,0.4-0.3,0.5s-0.4,0.2-0.7,0.2s-0.7,0-1.3,0c-0.3,0-0.6,0-0.9,0
		s-0.4-0.1-0.6-0.1s-0.2-0.1-0.3-0.2s-0.1-0.2-0.1-0.4l-1.1-7.4H586l-4,7.3c-0.1,0.2-0.2,0.3-0.3,0.4s-0.2,0.2-0.4,0.2
		s-0.4,0.1-0.7,0.1s-0.6,0-1.1,0c-0.5,0-0.8,0-1.1-0.1s-0.5-0.1-0.6-0.2s-0.1-0.3-0.1-0.5s0.2-0.5,0.3-0.8l15.8-28.2
		c0.1-0.2,0.2-0.3,0.4-0.4s0.3-0.2,0.5-0.3s0.5-0.1,0.8-0.1s0.7,0,1.1,0c0.5,0,0.9,0,1.3,0s0.6,0.1,0.8,0.1s0.3,0.2,0.4,0.3
		s0.1,0.3,0.2,0.4L603.8,1272.7z M595.9,1247.9L595.9,1247.9l-8.2,15.1h10.5L595.9,1247.9z"/>
	<path fill="#B52222" d="M625.1,1258.7l5.7,14c0.1,0.3,0.2,0.6,0.2,0.8s-0.1,0.4-0.2,0.5s-0.4,0.2-0.7,0.2s-0.8,0.1-1.3,0.1
		c-0.5,0-0.8,0-1.1,0s-0.5-0.1-0.6-0.1s-0.3-0.1-0.3-0.2s-0.1-0.2-0.2-0.3l-4.6-12.2l-9.2,12.2c-0.1,0.1-0.2,0.3-0.3,0.4
		s-0.3,0.2-0.5,0.2s-0.4,0.1-0.7,0.1s-0.7,0-1.1,0c-0.5,0-0.9,0-1.3-0.1s-0.5-0.1-0.7-0.2s-0.1-0.3-0.1-0.5s0.2-0.5,0.5-0.8
		l11.2-14.2l-5.2-13.3c-0.1-0.3-0.2-0.6-0.2-0.8s0.1-0.4,0.2-0.5s0.4-0.2,0.7-0.2s0.8-0.1,1.3-0.1c0.4,0,0.8,0,1,0s0.5,0.1,0.6,0.2
		s0.3,0.2,0.3,0.3s0.1,0.3,0.2,0.5l4.1,11.1l8.6-11.3c0.1-0.1,0.2-0.2,0.3-0.3s0.3-0.2,0.4-0.2s0.4-0.1,0.7-0.1s0.6,0,1.1,0
		c0.5,0,0.9,0,1.3,0.1s0.5,0.1,0.7,0.2s0.1,0.3,0.1,0.5s-0.2,0.5-0.5,0.8L625.1,1258.7z"/>
	<path fill="#B52222" d="M663.3,1263.1c-0.4,1.9-1,3.6-1.8,5s-1.8,2.6-3,3.6s-2.5,1.7-4,2.2s-3.1,0.7-4.8,0.7
		c-1.8,0-3.4-0.2-4.7-0.7s-2.4-1.2-3.2-2.2s-1.3-2.2-1.6-3.6s-0.2-3.1,0.2-5.1l3.7-18.5c0-0.1,0.1-0.2,0.2-0.3s0.2-0.2,0.4-0.2
		s0.4-0.1,0.6-0.1s0.6-0.1,1-0.1s0.7,0,1,0.1s0.4,0.1,0.6,0.1s0.2,0.1,0.3,0.2s0,0.2,0,0.3l-3.7,18.5c-0.3,1.4-0.3,2.6-0.2,3.6
		s0.4,1.9,0.9,2.6s1.2,1.2,2,1.5s1.9,0.5,3.1,0.5c1.2,0,2.3-0.2,3.2-0.5s1.9-0.9,2.6-1.6s1.4-1.6,2-2.6s0.9-2.2,1.2-3.5l3.7-18.5
		c0-0.1,0.1-0.2,0.2-0.3s0.2-0.2,0.4-0.2s0.4-0.1,0.6-0.1s0.6-0.1,1-0.1c0.4,0,0.7,0,0.9,0.1s0.4,0.1,0.6,0.1s0.2,0.1,0.3,0.2
		s0.1,0.2,0,0.3L663.3,1263.1z"/>
	<path fill="#B52222" d="M691.2,1246.1c0,0.1,0,0.3,0,0.4s0,0.3-0.1,0.5s-0.1,0.4-0.1,0.6s-0.1,0.4-0.2,0.5s-0.2,0.3-0.3,0.4
		s-0.2,0.1-0.3,0.1c-0.2,0-0.4-0.1-0.7-0.3s-0.7-0.4-1.2-0.6s-1-0.4-1.7-0.6s-1.4-0.3-2.3-0.3c-1,0-1.8,0.1-2.5,0.4
		s-1.3,0.7-1.8,1.2s-0.8,1.1-1.1,1.7s-0.4,1.3-0.4,1.9c0,0.7,0.2,1.3,0.5,1.8s0.7,1,1.2,1.4s1.1,0.8,1.7,1.2s1.3,0.8,1.9,1.1
		s1.3,0.8,1.9,1.3s1.2,1,1.7,1.5s0.9,1.3,1.2,2s0.5,1.6,0.5,2.6c0,1.3-0.3,2.6-0.8,3.7s-1.3,2.2-2.3,3s-2.2,1.6-3.6,2.1
		s-3,0.8-4.8,0.8c-1,0-1.8-0.1-2.7-0.2s-1.6-0.4-2.2-0.6s-1.2-0.5-1.7-0.8s-0.8-0.5-1-0.7s-0.3-0.5-0.3-0.9c0-0.1,0-0.2,0-0.4
		s0.1-0.4,0.1-0.6s0.1-0.4,0.2-0.6s0.1-0.4,0.2-0.5s0.2-0.3,0.3-0.4s0.2-0.2,0.4-0.2c0.2,0,0.6,0.1,0.9,0.4s0.8,0.5,1.4,0.8
		s1.2,0.6,2,0.8s1.7,0.4,2.7,0.4c1.1,0,2.1-0.2,2.9-0.5s1.6-0.7,2.2-1.2s1-1.1,1.3-1.8s0.5-1.5,0.5-2.2c0-0.7-0.1-1.3-0.4-1.8
		s-0.7-1-1.2-1.4s-1-0.8-1.7-1.2s-1.3-0.7-1.9-1.1s-1.3-0.8-1.9-1.3s-1.2-1-1.7-1.5s-0.9-1.3-1.2-2s-0.5-1.6-0.5-2.7
		c0-1.2,0.2-2.4,0.7-3.5s1.2-2,2.1-2.8s2-1.5,3.2-1.9s2.7-0.7,4.2-0.7c0.8,0,1.5,0.1,2.1,0.2s1.3,0.3,1.8,0.5s1,0.4,1.4,0.6
		s0.7,0.4,0.8,0.5s0.2,0.3,0.3,0.4S691.2,1245.9,691.2,1246.1z"/>
</g>
<g>
	<g>
		<g>
			<g>
				<path fill="#627F6C" d="M377.3,671.4c-1.5-7.3-7.2-13.1-13.8-16.6s-13.9-5.1-21.1-6.9c-10.3-2.6-20.5-5.6-30.5-9.2
					c-13.1-4.7-26.3-10.2-40.2-11c-18.3-1-36.4,6.5-51,17.7s-26.1,25.8-36.9,40.6c-6,8.2-11.8,16.6-16.8,25.5
					c-2.2,3.8-3.9,9.3-0.4,12c2.8,2.2,6.8,0.8,10-0.6c34.1-14.7,71.8-19,106.6-31.7c24.3-8.8,47.2-21.7,72.3-27.7
					c4.8-1.1,10.2-1.9,14.3,0.7c4.7,3,6.4,9.4,11.2,12.3c2.9,1.8,6.8,1.8,9.8,0.1"/>
			</g>
			<g>
				<path fill="#5F7B66" d="M373.8,665.5c-3.5-5-7.6-8.1-13.4-10.1c-11.4-3.8-24.2-3.5-35.8-1.3c-5.8,1.1-11.5,2.8-17.2,4.1
					c-6.6,1.5-13.1,3-19.7,4.5c-13,3-26.6,5.7-38.9,10.7c-11.6,4.8-22.7,10.7-33.3,17.4c-10.1,6.4-20.2,13.1-29.5,20.6
					c-5.4,4.3-11.1,9.4-17.6,12.4c0,0,0.1,0.1,0.1,0.1c2.8,2.2,6.8,0.8,10-0.6c34.1-14.7,71.8-19,106.6-31.7
					c24.3-8.8,47.2-21.7,72.3-27.7c4.8-1.1,10.2-1.9,14.3,0.7c4.5,2.8,6.3,8.8,10.6,11.9C378.7,673.4,376.4,669.3,373.8,665.5z"/>
			</g>
			<g opacity="0.49">
				<g>
					<path fill="#A8B381" d="M375.6,669.5c-12.5-29.5-54.1-19.1-77.7-13.5c-31.1,7.4-61,19.4-88.6,35.5c-15.4,9-30,19.3-43.7,30.7
						c-0.5,0.4,0.2,1.4,0.8,1c23.1-17.5,48-32.6,74.3-44.7c13.9-6.4,28.2-12,42.7-16.8c14.3-4.7,29.1-9.3,44-11.4
						c16.8-2.4,36.8,0.8,45.1,17.6c0.4,0.7,1.4,0.1,1.1-0.6c-14.1-28.7-52.7-18-76.3-11.2c-30.1,8.7-59.2,20.9-86.5,36.4
						c-15.6,8.9-30.6,18.8-45,29.7c0.3,0.3,0.5,0.7,0.8,1c45.7-38,103.6-64.9,163-71.6c16.9-1.9,37.6,0.9,45.1,18.6
						C374.9,670.8,376,670.2,375.6,669.5L375.6,669.5z"/>
				</g>
			</g>
			<g opacity="0.13">
				<g>
					<path fill="#A4A280" d="M323.4,645.9c-10.3,0.9-21.3,1.9-31.3-1.6c-5.3-1.8-9.6-5.4-14.7-7.6c-3.9-1.6-7.9-2.2-12.1-2.1
						c-0.8,0-0.8,1.3,0,1.2c11.6-0.2,19,8,29.7,10.6c9.3,2.3,19,1.5,28.4,0.7C324.2,647,324.2,645.8,323.4,645.9L323.4,645.9z"/>
				</g>
			</g>
			<g opacity="0.13">
				<g>
					<path fill="#A4A280" d="M296.7,656.7c-8.3,0.4-15.4-3.5-23-6.3c-7.3-2.6-14.8-3.7-22.5-4.2c-8.1-0.4-16.3-0.3-24.4-0.3
						c-1.9,0-10.3-1.4-9.8,2.6c0.1,0.8,1.3,0.8,1.2,0c-0.3-2.6,40-0.6,43.7,0c11.8,2,22.6,9.9,34.7,9.3
						C297.5,657.9,297.5,656.6,296.7,656.7L296.7,656.7z"/>
				</g>
			</g>
			<g opacity="0.13">
				<g>
					<path fill="#A4A280" d="M264.8,665.2c-5,0.6-9-2.2-13.5-3.9c-4-1.6-8.2-2.5-12.4-3c-9.4-1-18.9,0.1-28.2,1.3
						c-0.8,0.1-0.8,1.4,0,1.2c9.6-1.2,19.3-2.4,28.9-1.2c5.3,0.7,10.1,2.2,14.9,4.4c3.4,1.5,6.4,2.8,10.2,2.4
						C265.6,666.3,265.6,665.1,264.8,665.2L264.8,665.2z"/>
				</g>
			</g>
			<g opacity="0.13">
				<g>
					<path fill="#A4A280" d="M241.2,676.8c-8.8-1.5-17.6-3-26.5-4.6c-6.6-1.1-13.5-3.1-19.9-0.6c-0.7,0.3-0.4,1.5,0.3,1.2
						c7.2-2.8,15.7-0.1,23,1.2c7.6,1.3,15.1,2.6,22.7,3.9C241.7,678.1,242,676.9,241.2,676.8L241.2,676.8z"/>
				</g>
			</g>
			<g opacity="0.13">
				<g>
					<path fill="#A4A280" d="M217.5,687c-9.7-1.1-19.3-0.7-28.9,1.2c-0.8,0.2-0.5,1.4,0.3,1.2c9.5-1.8,18.9-2.2,28.5-1.2
						C218.3,688.3,218.3,687.1,217.5,687L217.5,687z"/>
				</g>
			</g>
			<g opacity="0.13">
				<g>
					<path fill="#A4A280" d="M228.6,683.3c-1.5,9.8-7.5,17.9-16.3,22.2c-0.7,0.4-0.1,1.4,0.6,1.1c9.1-4.4,15.4-12.9,16.9-22.9
						C229.9,682.8,228.7,682.5,228.6,683.3L228.6,683.3z"/>
				</g>
			</g>
			<g opacity="0.13">
				<g>
					<path fill="#A4A280" d="M254.9,673.7c-3.7,10.4-9.5,19.6-17.3,27.4c-0.6,0.6,0.3,1.5,0.9,0.9c7.9-8,13.8-17.4,17.6-28
						C256.4,673.3,255.2,672.9,254.9,673.7L254.9,673.7z"/>
				</g>
			</g>
			<g opacity="0.13">
				<g>
					<path fill="#A4A280" d="M285.6,660.7c-5.6,4.9-10.5,10.5-14.4,16.8c-4.2,6.9-7.1,14.9-14,19.6c-0.7,0.4,0,1.5,0.6,1.1
						c5.8-3.9,8.8-10,12.1-16c4.3-7.8,9.8-14.7,16.5-20.6C287.1,661,286.2,660.2,285.6,660.7L285.6,660.7z"/>
				</g>
			</g>
			<g opacity="0.13">
				<g>
					<path fill="#A4A280" d="M317,653.7c-6.5,5.6-11.8,11.9-16.7,18.9c-5,7.1-10.4,14.5-19.3,16.6c-0.8,0.2-0.5,1.4,0.3,1.2
						c7.3-1.7,12.3-6.8,16.7-12.6c6.3-8.2,11.9-16.4,19.9-23.2C318.5,654,317.6,653.2,317,653.7L317,653.7z"/>
				</g>
			</g>
			<g opacity="0.13">
				<g>
					<path fill="#A4A280" d="M332,653.7c-5.2,12.5-14.1,22.8-25.6,29.9c-0.7,0.4-0.1,1.5,0.6,1.1c11.8-7.3,20.8-17.9,26.2-30.7
						C333.5,653.2,332.3,652.9,332,653.7L332,653.7z"/>
				</g>
			</g>
		</g>
		<g>
			<g>
				<path fill="#786E71" d="M371.8,663.6c3.5,5.8,8.7,10.5,14.8,13.4c4.7,2.2,10.1,3.3,15,1.8c7.2-2.2,11.8-9.2,18.4-12.8
					c8.7-4.8,20.8-2.3,26.9,5.5c-4-2.6-8.9-3.5-13.5-2.7c-3.3,0.6-6.3,2.1-9.3,3.5c-7.2,3.5-14.6,6.8-22.6,7.6
					c-8,0.8-16.6-1.4-21.8-7.5c-3.7-4.4-6.4-11-12.1-11.3"/>
			</g>
			<g>
				<g>
					<path fill="#786E71" d="M369.6,664.8c7.2,11.4,22.8,22,36.4,14.7c6.4-3.4,10.7-10.1,17.7-12.6c7.7-2.7,16.2,0.1,21.4,6.2
						c1-1.3,2-2.6,3-3.9c-15.8-9.3-29.8,5.7-45.4,7.9c-8.9,1.3-17.5-1.2-22.9-8.6c-3.4-4.7-6.2-9.2-12.4-10c-3.2-0.4-3.2,4.6,0,5
						c5.8,0.7,9.2,10.2,13.6,13.6c5.1,3.9,11.7,5.5,18,5.4c7.2-0.2,14.1-2.6,20.7-5.5c8.7-3.8,16.5-8.9,25.8-3.4
						c2.6,1.5,4.8-1.8,3-3.9c-8.2-9.7-22.7-11.4-32.9-4c-6.1,4.4-11,11.3-19.2,11.3c-9.4-0.1-17.8-7.1-22.6-14.6
						C372.2,659.6,367.9,662.1,369.6,664.8L369.6,664.8z"/>
				</g>
			</g>
		</g>
		<g>
			<g>
				<path fill="#6B8079" d="M347.4,601.9c9,9.5,24,10,36.8,7.5c38.6-7.5,70.7-35.3,109-44c30.7-7,62.9-1,93,8.1
					c34.3,10.4,69.5,26.6,88.4,57.1c1.9,3.1,3.7,6.6,2.8,10.1c-0.9,3.4-4.1,5.7-7.1,7.5c-29.1,17.8-64.7,24.8-98.4,19.3
					c-21.2-3.5-41.2-11.6-61.3-19.2c-26-9.9-52.7-19-80.4-21.5c-14.6-1.3-29.3-0.8-43.7-3.5c-14.4-2.7-28.8-9.1-37.1-21.1"/>
			</g>
			<g>
				<path fill="#677F78" d="M677.1,640.2c-23.7-5.2-47.6-10-71.6-13.5c-11.9-1.7-23.9-3.1-36-4.3c-11.9-1.2-23.7-3.1-35.5-5.1
					c-23.2-3.9-46.6-7.9-70.2-7.1c-21.8,0.8-43.4,5.8-65.3,5c-10.8-0.4-21.7-1.9-32.1-4.8c-5.3-0.5-10.3-1.9-14.6-4.6
					c8.5,9.8,21.5,15.2,34.4,17.6c14.4,2.7,29.1,2.1,43.7,3.5c27.7,2.5,54.4,11.6,80.4,21.5c20.1,7.6,40.1,15.7,61.3,19.2
					c33.7,5.5,69.3-1.5,98.4-19.3c3-1.8,6.2-4.1,7.1-7.5C677,640.5,677.1,640.3,677.1,640.2z"/>
			</g>
			<g opacity="0.49">
				<g>
					<path fill="#A4A280" d="M676.4,641.4c-42.2-12.2-85.7-19.2-129.3-24.3c-22.2-2.5-44.4-4.6-66.6-6.6c-11.6-1-23.2-2.3-34.8-2.3
						c-10.9,0-21.6,1.4-32.4,2.6c-13,1.5-26.3,2.6-39.2-0.2c-12.1-2.6-23.3-8.4-34.2-14c-0.7-0.4-1.3,0.7-0.6,1.1
						c9,4.6,18,9.3,27.7,12.3c9.8,3.1,20,4,30.3,3.5c11.1-0.5,22.1-2.3,33.1-3.3c11.6-1,23.1-0.7,34.8,0.3
						c45.6,3.7,91.4,7.9,136.6,15.5c25.1,4.2,49.9,9.6,74.3,16.6C676.9,642.8,677.2,641.6,676.4,641.4L676.4,641.4z"/>
				</g>
			</g>
			<g opacity="0.13">
				<g>
					<path fill="#A4A280" d="M435.9,607.4c5.5-5.3,9.2-12,10.8-19.5c0.2-0.8-1-1.1-1.2-0.3c-1.5,7.3-5,13.7-10.4,18.9
						C434.4,607.1,435.3,608,435.9,607.4L435.9,607.4z"/>
				</g>
			</g>
			<g opacity="0.13">
				<g>
					<path fill="#A4A280" d="M457.4,610.1c6.7-10.3,16.6-20.1,27.7-25.8c4.8-2.4,10.2-2.8,15-5.2c4.4-2.2,6.6-6.3,9.3-10.2
						c0.5-0.7-0.6-1.3-1.1-0.6c-2,2.8-3.8,6.1-6.5,8.2c-2.7,2.1-6,2.9-9.3,3.8c-4.9,1.4-9.2,3.3-13.4,6.2
						c-9,6.2-16.9,13.8-22.8,22.9C455.9,610.1,456.9,610.8,457.4,610.1L457.4,610.1z"/>
				</g>
			</g>
			<g opacity="0.13">
				<g>
					<path fill="#A4A280" d="M500.2,612.3c2.8-4,5.7-7.9,8.5-11.9c2.4-3.3,5.2-6.6,6.6-10.5c1.4-3.8,0.8-7.9,2-11.7
						c1.2-3.6,3.4-6.2,3.5-10.1c0-0.8-1.2-0.8-1.2,0c-0.1,4.2-3,7.4-3.9,11.4c-0.9,4.2-0.5,8.2-2.6,12.2c-3.7,7.1-9.3,13.5-14,20
						C498.7,612.3,499.8,612.9,500.2,612.3L500.2,612.3z"/>
				</g>
			</g>
			<g opacity="0.13">
				<g>
					<path fill="#A4A280" d="M522.4,613.5c0.7-6.3,3.8-11.3,8.7-15.2c3.2-2.6,5.7-4.8,7-8.7c1.8-5.4,2.1-10,7.5-13.3
						c3.3-2,6.3-3.3,7.4-7.2c0.2-0.8-1-1.1-1.2-0.3c-1.7,5.6-8.3,5.9-11.4,10.3c-2.6,3.7-2.3,8.6-4.4,12.6
						c-2.4,4.5-7.6,6.6-10.5,10.7c-2.4,3.3-3.7,7.1-4.2,11.2C521.1,614.3,522.4,614.3,522.4,613.5L522.4,613.5z"/>
				</g>
			</g>
			<g opacity="0.13">
				<g>
					<path fill="#A4A280" d="M552.5,617.3c2.9-4.9,8.4-12.6,8-18.7c-0.2-3.3-2.7-5.4-3.7-8.4c-1.7-5.3,1.1-10.9,3.6-15.5
						c0.4-0.7-0.7-1.3-1.1-0.6c-3,5.4-5.9,11.9-3.1,18c0.5,1,1.1,1.8,1.6,2.7c2.2,4,1,7.3-0.7,11.1c-1.7,3.7-3.6,7.3-5.7,10.9
						C551,617.4,552.1,618,552.5,617.3L552.5,617.3z"/>
				</g>
			</g>
			<g opacity="0.13">
				<g>
					<path fill="#A4A280" d="M575.9,620c3.5-7.8,8.3-14.1,13.5-20.8c3.8-4.9,6.7-10,6.3-16.4c0-0.8-1.3-0.8-1.2,0
						c0.5,8.7-5.4,14.6-10.4,21c-3.7,4.8-6.8,10.1-9.3,15.6C574.5,620.1,575.6,620.7,575.9,620L575.9,620z"/>
				</g>
			</g>
			<g opacity="0.13">
				<g>
					<path fill="#A4A280" d="M597.2,624.8c6.4-6.8,13.8-13.3,19.4-20.8c3.3-4.4,4.7-10.5,0.1-14.5c-0.6-0.5-1.5,0.4-0.9,0.9
						c7,6.1-1.2,14.2-5.5,18.8c-4.6,4.9-9.3,9.8-13.9,14.7C595.8,624.5,596.6,625.4,597.2,624.8L597.2,624.8z"/>
				</g>
			</g>
			<g opacity="0.13">
				<g>
					<path fill="#A4A280" d="M623.4,627.7c3.3-3.6,7.6-7.1,10.2-11.2c3.6-5.7-2.9-13.1,5.4-17c-0.7,0.3-0.1,1.4,0.6,1.1
						c0.1,0,0.2-0.1,0.3-0.1c0.3-0.1,0.3-0.5,0.3-0.7c-0.8-3.7-5.9,0.3-6.7,2.1c-1.6,3.8,0.6,8-0.5,11.9c-1.4,4.9-7.1,9.3-10.6,13
						C622,627.4,622.9,628.3,623.4,627.7L623.4,627.7z"/>
				</g>
			</g>
			<g opacity="0.13">
				<g>
					<path fill="#A4A280" d="M643.4,632.3c5.2-3.9,9.5-8.6,12.8-14.1c0.4-0.7-0.7-1.3-1.1-0.6c-3.3,5.3-7.4,9.9-12.4,13.6
						C642.1,631.7,642.8,632.8,643.4,632.3L643.4,632.3z"/>
				</g>
			</g>
			<g opacity="0.13">
				<g>
					<path fill="#A4A280" d="M437.3,609.7c0.4,9.6,12.1,11.3,19.4,13.5c6.3,1.9,12.9,2.8,17,8.4c2,2.7,3.8,4.9,7.4,5.2
						c0.8,0.1,0.8-1.2,0-1.2c-5.1-0.4-6.1-5.6-9.4-8.3c-2.2-1.8-5-2.4-7.6-3.2c-7.7-2.3-25-4.4-25.4-14.4
						C438.5,608.9,437.3,608.9,437.3,609.7L437.3,609.7z"/>
				</g>
			</g>
			<g opacity="0.13">
				<g>
					<path fill="#A4A280" d="M500.3,615.3c10.4,5.2,16.1,13.2,20.6,23.6c1.3,3,2.9,5.1,6.1,6.1c2.7,0.9,5.7,0.5,8.2,2
						c3.2,1.9,4.3,5.6,5.4,8.9c0.2,0.8,1.4,0.4,1.2-0.3c-1.1-3.6-2.5-7.7-5.9-9.7c-2.2-1.3-4.7-1.2-7.1-1.8c-5.2-1.3-6.2-4.7-8-9
						c-3.9-9.2-11-16.5-19.9-20.9C500.2,613.8,499.6,614.9,500.3,615.3L500.3,615.3z"/>
				</g>
			</g>
			<g opacity="0.13">
				<g>
					<path fill="#A4A280" d="M549.8,619.2c9.5,5.6,14.4,15.3,19.2,24.8c1.6,3.1,3.1,8.3,6.2,10.2c0.8,0.5,1.7,0.6,2.6,0.9
						c4.2,1.3,7.3,3.7,7.5,8.5c0,0.8,1.3,0.8,1.2,0c-0.1-3.4-1.6-6.6-4.6-8.4c-2-1.2-4.4-1.1-6.3-2.5c-2.6-1.9-3.8-5.7-5.3-8.5
						c-5-10-10.1-20.1-20.1-26C549.8,617.7,549.2,618.8,549.8,619.2L549.8,619.2z"/>
				</g>
			</g>
			<g opacity="0.13">
				<g>
					<path fill="#A4A280" d="M595.7,625.7c5,1.7,9.2,4.8,12.1,9.1c2.4,3.5,2.8,7.2,3.9,11.2c0.7,2.5,1.9,3.8,4,5.2
						c4.8,3,8.4,5,10.2,10.9c0.2,0.8,1.4,0.4,1.2-0.3c-1.1-3.4-2.8-6.4-5.7-8.7c-2.3-1.9-4.8-2.6-6.8-4.9c-2.2-2.6-2.1-4.9-3-8
						c-2.3-7.5-8.3-13.2-15.7-15.7C595.2,624.3,594.9,625.5,595.7,625.7L595.7,625.7z"/>
				</g>
			</g>
			<g opacity="0.13">
				<g>
					<path fill="#A4A280" d="M622.3,629.1c3.9,0.9,7.9,1.7,11.4,3.7c4.7,2.7,6.5,6.8,9,11.3c2.5,4.4,6.4,8.2,11.8,6.8
						c0.8-0.2,0.4-1.4-0.3-1.2c-9.4,2.4-11.3-11.1-16.7-15.8c-4.1-3.6-9.7-4.9-14.9-6C621.8,627.8,621.5,629,622.3,629.1
						L622.3,629.1z"/>
				</g>
			</g>
			<g opacity="0.13">
				<g>
					<path fill="#A4A280" d="M575.3,625c12.6,2.5,20.7,12.8,24.7,24.4c1.4,4.2,2.8,7.8,6.7,10.2c2.2,1.3,1.5,0.7,2.1,2.9
						c0.5,1.7,1,2.7,2.3,3.9c0.6,0.6,1.5-0.3,0.9-0.9c-0.6-1.8-1.2-3.7-1.7-5.5c0.1-0.3-0.1-0.7-0.4-0.8c-7-1.1-7.8-8.9-10.1-14.3
						c-1.4-3.2-3.1-6.2-5.2-9c-4.7-6.1-11.1-10.6-18.8-12.1C574.9,623.7,574.5,624.9,575.3,625L575.3,625z"/>
				</g>
			</g>
			<g opacity="0.13">
				<g>
					<path fill="#A4A280" d="M522,616.2c6.9,2,13.7,4,19.6,8.3c5.5,4,10.1,9.3,13.2,15.4c2.7,5.3,3.1,11.4,5.7,16.7
						c1.7,3.4,4.6,6.3,8.6,5.1c0.8-0.2,0.4-1.4-0.3-1.2c-7.9,2.3-9.2-12.4-11-17c-1.7-4.5-4.2-8.7-7.3-12.4
						c-7.5-9-17.2-12.8-28.2-16.1C521.6,614.7,521.2,615.9,522,616.2L522,616.2z"/>
				</g>
			</g>
			<g opacity="0.13">
				<g>
					<path fill="#A4A280" d="M463.4,611.4c7.4,0.8,15,1.7,21.8,4.9c6.6,3.1,11,8.5,15.2,14.4c5.7,8.2,12,17,22.7,18.2
						c0.8,0.1,0.8-1.2,0-1.2c-14.5-1.6-19.6-17.3-28.6-26.4c-8.3-8.3-19.9-9.9-31-11.1C462.6,610,462.6,611.3,463.4,611.4
						L463.4,611.4z"/>
				</g>
			</g>
			<g opacity="0.13">
				<g>
					<path fill="#A4A280" d="M447.1,524.4c7.9-0.7,15.5,0.1,23.3,1.6c2.9,0.6,5.8,1,7.7-1.6c0.5-0.7-0.6-1.3-1.1-0.6
						c-2.4,3.4-11.2,0-14.5-0.4c-5.1-0.6-10.3-0.6-15.4-0.2C446.3,523.2,446.3,524.4,447.1,524.4L447.1,524.4z"/>
				</g>
			</g>
		</g>
		<g>
			<g>
				<path fill="#677F78" d="M350.5,592.8c16-2.1,28-16.1,34.9-30.8c6.9-14.6,10.4-30.8,18.5-44.8c9.9-17.1,26.2-29.8,43.9-38.6
					c17.7-8.8,37-13.9,56.1-18.8c6.6-1.7,13.3-3.3,20.1-3.5c9.3-0.3,18.5,2.2,27.4,5c14.3,4.5,28.9,10.3,38.6,21.6
					c0.6,0.7,1.3,1.6,1.4,2.6c0.1,1.1-0.5,2.1-1.1,3c-4.4,6.2-11.6,9.6-18.2,13.4c-24.5,14.2-44.4,37.2-71.7,44.6
					c-9.1,2.5-18.7,3-27.9,5.4c-21.6,5.5-40,20.4-61.9,24.6c-8.6,1.6-17.7,1.6-25.6,5.3c-6,2.8-10.9,7.6-17.2,9.5
					c-4,1.2-8.4,1.2-11.8,3.6c-1.8,1.2-3.2,2.9-5,4.1c-1.8,1.2-4.4,1.6-6,0.2c-1.6-1.5-0.4-4.9,1.7-4.5"/>
			</g>
			<g>
				<path fill="#657F70" d="M589.3,484.2c-0.5-0.6-1-1.2-1.6-1.7c-18.3-0.2-37.3,3.8-53.9,10.8c-19,8-38.2,15.8-56.2,25.8
					c-18,10-33.7,23.5-51.5,33.9c-17.6,10.2-35.9,19-53.1,29.8c-9.4,5.9-18.6,13.7-29.1,17.1c0.1,0.2,0.3,0.5,0.5,0.7
					c1.6,1.5,4.2,1,6-0.2c1.8-1.2,3.2-2.9,5-4.1c3.4-2.3,7.9-2.3,11.8-3.6c6.3-1.9,11.3-6.7,17.2-9.5c7.9-3.7,17-3.7,25.6-5.3
					c21.9-4.2,40.3-19.1,61.9-24.6c9.2-2.3,18.7-2.9,27.9-5.4c27.3-7.4,47.2-30.5,71.7-44.6c6.6-3.8,13.8-7.2,18.2-13.4
					c0.6-0.9,1.2-1.9,1.1-3C590.5,485.7,589.9,484.9,589.3,484.2z"/>
			</g>
			<g opacity="6.000000e-02">
				<g>
					<path fill="#D7DBAE" d="M384.1,582.6c0.8-0.6,1.6-1.3,2.4-1.9c8.4-6.7,17.1-12.7,26.4-18c9-5,18.3-9.5,27.7-13.6
						c9-4,18.1-8,27.4-11.2c9-3,18.3-5.3,26.7-9.8c4.5-2.4,8.5-5.5,12.9-8.2c4.4-2.7,9-5.2,13.5-7.8c7-4.1,13.2-9.8,21-12.4
						c3.9-1.3,8-1.6,12-2.4c3.7-0.7,6.9-2.3,10.2-4.2c3.4-2,6.8-3.9,10.7-4.6c4.3-0.7,8.9-0.1,13-1.7c1-0.4,2-1,2.9-1.7
						c-9.9-1.8-19.1-6.3-29.1-8c-11.3-1.9-22.9-1.5-34.1,1c-10.2,2.3-18.4,7.1-27,12.8c-8,5.3-16.4,9.2-25.1,13.3
						c-9.4,4.4-18.6,9.1-27.1,15.1c-8.3,5.8-16.5,11.5-25.1,16.9c-9,5.7-18,11.4-26.5,17.8c-4.3,3.3-8.2,6.7-11.7,11
						c-0.9,1.1-1.7,2.1-2.6,3.2c-5.5,9.3-13,17.7-22.5,21.9c-0.9,0.6-1.8,1.2-2.7,1.8c-3.6,2.4-7.9,5.2-12.4,6.4
						c0.1,0.4,0.3,0.7,0.6,0.9c1.6,1.5,4.2,1,6-0.2s3.2-2.9,5-4.1c3.4-2.3,7.9-2.3,11.8-3.6C374.1,589.6,378.8,585.4,384.1,582.6z"
						/>
				</g>
			</g>
			<g opacity="0.49">
				<g>
					<path fill="#A4A280" d="M348.5,597.1c16.4-6.8,30.4-17.5,45-27.3c15.2-10.2,31.7-17.8,48.1-26c8-4,15.8-8.1,23.3-13
						c7.4-4.8,13.7-10.9,20.8-16.1c14.4-10.5,31.4-16.7,48.5-21.1c9.5-2.5,19.2-4.4,28.9-6.3c6.1-1.2,12.1-2.4,18.3-2.8
						c3.1-0.2,8.3,1.5,10.9-0.6c0.2-0.2,0.2-0.5,0.1-0.8c-0.1-0.2-0.2-0.3-0.3-0.5c-0.1-0.2-0.3-0.3-0.5-0.3c-0.2,0-0.4,0-0.6,0
						c-0.4,0-0.6,0.3-0.6,0.6c0,0.1,0,0.2,0,0.4c-0.1,0.8,1.1,0.8,1.2,0c0-0.2-13.7,0.1-14.9,0.3c-4.4,0.5-8.7,1.4-13.1,2.2
						c-8.6,1.7-17.2,3.4-25.7,5.4c-16,3.9-32,9.1-46.1,17.8c-7.5,4.6-13.7,10.5-20.7,15.8c-6.9,5.1-14.3,9.5-21.9,13.5
						c-15.8,8.4-32.4,15.3-47.7,24.6c-17.8,10.9-33.8,24.7-53.3,32.7C347.4,596.2,347.7,597.4,348.5,597.1L348.5,597.1z"/>
				</g>
			</g>
			<g opacity="0.13">
				<g>
					<path fill="#A4A280" d="M402.7,562.5c2.6-10.4,6.2-20.5,10.8-30.2c1.7-3.7,2.5-5.7,2.1-9.7c-0.6-6.4,1.9-11.8,4.7-17.4
						c0.4-0.7-0.7-1.3-1.1-0.6c-2,3.9-4,7.8-4.8,12.1c-0.4,2.1-0.2,4-0.2,6c0,4.1-1.1,7-2.7,10.6c-4.3,9.3-7.6,18.9-10.1,28.9
						C401.3,563,402.6,563.3,402.7,562.5L402.7,562.5z"/>
				</g>
			</g>
			<g opacity="0.13">
				<g>
					<path fill="#A4A280" d="M431.2,546.3c-1.2-5.5-1.4-11,0.1-16.4c1.1-3.8,3-7.3,4.2-11c2.8-8.8-2.2-17.4,3.5-25.5
						c0.5-0.7-0.6-1.3-1.1-0.6c-6.1,8.7-0.7,18-4.2,27.3c-3.4,9.1-6,16.7-3.8,26.6C430.2,547.4,431.4,547.1,431.2,546.3L431.2,546.3
						z"/>
				</g>
			</g>
			<g opacity="0.13">
				<g>
					<path fill="#A4A280" d="M452.8,536c0.6-4.8-1.5-9.2-1.6-14c-0.1-5,1.1-10,2.7-14.7c2.3-7,8-15.9,5.8-23.4
						c-0.2-0.8-1.4-0.4-1.2,0.3c1.5,5-1.3,10.3-3,14.9c-1.6,4.3-3.2,8.6-4.3,13c-0.8,3.5-1.4,7.1-1.2,10.7c0.2,4.4,2.2,8.7,1.6,13.1
						C451.5,536.8,452.7,536.8,452.8,536L452.8,536z"/>
				</g>
			</g>
			<g opacity="0.13">
				<g>
					<path fill="#A4A280" d="M476.5,521.5c2.6-9,1.5-18,0.6-27.1c-0.6-5.7-0.1-9.7,3.3-14.3c1.8-2.4,3.1-4.3,3.1-7.3
						c0-0.8-1.2-0.8-1.2,0c-0.1,4.8-4.3,7.2-6,11.3c-1.1,2.7-0.9,5.7-0.7,8.5c0.8,9.7,2.4,19.1-0.3,28.6
						C475.1,522,476.3,522.3,476.5,521.5L476.5,521.5z"/>
				</g>
			</g>
			<g opacity="0.13">
				<g>
					<path fill="#A4A280" d="M500,504.7c0.2-6.7,0.4-13.4,0.6-20.1c0.1-3.1,0.3-6.1,0.1-9.2c-0.1-2.9-1-5.8-0.9-8.7
						c0-0.8-1.2-0.8-1.2,0c-0.1,2.6,0.7,5.1,0.8,7.8c0.2,3.4,0,6.7-0.1,10.1c-0.2,6.7-0.4,13.4-0.6,20.1
						C498.7,505.5,500,505.5,500,504.7L500,504.7z"/>
				</g>
			</g>
			<g opacity="0.13">
				<g>
					<path fill="#A4A280" d="M517.3,498.9c3.3-12.8,6.9-25.6,10.6-38.3c0.2-0.8-1-1.1-1.2-0.3c-3.7,12.7-7.4,25.4-10.6,38.3
						C515.9,499.3,517.1,499.7,517.3,498.9L517.3,498.9z"/>
				</g>
			</g>
			<g opacity="0.13">
				<g>
					<path fill="#A4A280" d="M534.8,492.4c1-4.4,2.1-8.8,2.5-13.4c0.5-5.2-1.2-10.5-0.2-15.5c0.2-0.8-1-1.1-1.2-0.3
						c-0.8,4,0.3,8,0.3,12c0,5.7-1.4,11.3-2.7,16.8C533.4,492.9,534.6,493.2,534.8,492.4L534.8,492.4z"/>
				</g>
			</g>
			<g opacity="0.13">
				<g>
					<path fill="#A4A280" d="M553.2,486.8c-4-7.2,1-15.1,0.4-22.7c-0.1-0.8-1.3-0.8-1.2,0c0.6,7.9-4.3,15.8-0.2,23.4
						C552.5,488.1,553.6,487.5,553.2,486.8L553.2,486.8z"/>
				</g>
			</g>
			<g opacity="0.13">
				<g>
					<path fill="#A4A280" d="M431.4,548.1c9,0.5,17.9,0.6,26.9,0.6c4.3,0,7.4,2.1,11.4,2.8c2.1,0.4,3.5,0,5.1-1.3
						c0.6-0.5-0.3-1.4-0.9-0.9c-3.5,2.8-7.8-1-11.3-1.6c-2.9-0.5-5.9-0.2-8.8-0.2c-7.4,0-14.9-0.2-22.3-0.7
						C430.6,546.8,430.6,548.1,431.4,548.1L431.4,548.1z"/>
				</g>
			</g>
			<g opacity="0.13">
				<g>
					<path fill="#A4A280" d="M455,537c11.4-1.4,23-0.5,34,3c2.8,0.9,16.8,8.7,18.6,3c0.1-0.2,0-0.5-0.2-0.6
						c-0.1-0.1-0.2-0.2-0.3-0.2c-0.6-0.5-1.5,0.4-0.9,0.9c-2.2,0.7-4.3,0.6-6.3-0.2c-1.1-0.4-2.2-0.8-3.2-1.3
						c-1.6-0.7-3.3-1.3-5-1.9c-4.2-1.5-8.5-2.6-12.9-3.3c-8-1.4-16-1.5-24-0.5C454.2,535.8,454.2,537.1,455,537L455,537z"/>
				</g>
			</g>
			<g opacity="0.13">
				<g>
					<path fill="#A4A280" d="M477.9,521.8c10.5,0.4,20.5-1.6,30,3.9c7.1,4.1,13.2,6.4,21.5,4.8c0.8-0.2,0.5-1.4-0.3-1.2
						c-6.2,1.3-12,0.3-17.5-2.8c-3.1-1.8-6-3.8-9.5-4.9c-7.8-2.3-16.2-0.8-24.2-1.1C477.1,520.5,477.1,521.8,477.9,521.8
						L477.9,521.8z"/>
				</g>
			</g>
			<g opacity="0.13">
				<g>
					<path fill="#A4A280" d="M500.6,506.8c5.4-0.2,10.9-0.1,16.3,0.3c4.4,0.3,8.2,0.6,11.8,3.6c1.5,1.2,2.8,2.7,4.3,3.9
						c1.5,1.2,12.7,8.3,13.4,3.3c0.1-0.8-1.1-1.1-1.2-0.3c-0.5,3.6-12.6-5-13.8-6c-2.3-2.1-4.1-4-7.2-4.9
						c-7.3-2.1-16.2-1.4-23.7-1.2C499.8,505.6,499.8,506.8,500.6,506.8L500.6,506.8z"/>
				</g>
			</g>
			<g opacity="0.13">
				<g>
					<path fill="#A4A280" d="M530.9,493.8c12.4,0.3,25,0.7,36.1,6.9c0.7,0.4,1.3-0.7,0.6-1.1c-11.3-6.2-24.1-6.8-36.8-7.1
						C530.1,492.6,530.1,493.8,530.9,493.8L530.9,493.8z"/>
				</g>
			</g>
			<g opacity="0.13">
				<g>
					<path fill="#A4A280" d="M549.2,487.9c2.8,0.9,5.6,1.2,8.5,1.6c5.2,0.6,8.8,2.3,13.4,4.6c4.2,2.2,8.6,3.5,12.9,0.8
						c0.7-0.4,0.1-1.5-0.6-1.1c-6.4,4-12.2-1.8-18-4.1c-5.1-2-10.7-1.4-15.8-3.1C548.8,486.5,548.4,487.7,549.2,487.9L549.2,487.9z"
						/>
				</g>
			</g>
		</g>
		<g>
			<g>
				<path fill="#627F6C" d="M338.6,592.5c1.2,5.9-7.7,9.4-12.8,6.2c-5.1-3.3-6.8-9.6-8.5-15.4c-6.1-20.7-16.1-40.3-29.3-57.4
					c-7.4-9.5-15.7-18.3-21.6-28.8c-3.8-6.7-6.5-13.9-10.2-20.6c-4.7-8.4-11.1-15.9-17.6-23c-14.9-16.3-31.3-31.6-50.4-42.9
					s-41-18.4-63.1-17.6c-12,0.4-23.7,3.2-35.3,6.3c-13,3.6-25.9,7.7-38.5,12.5c-2.6,1-5.6,2.5-5.7,5.3c-0.1,2.9,3.1,4.6,5.8,5.6
					c12.3,4.4,25.4,6.2,38,9.4c29.3,7.5,56.2,22.2,82.7,36.8c10.4,5.7,20.9,11.5,30.3,18.9c7.3,5.8,13.8,12.4,20.3,19.1
					c19,19.5,38.4,39.4,62.3,52.6c11.6,6.4,25.4,12.3,30,24.8c1.7,4.6,2,9.7,4.3,14c4,7.4,14.3,10.6,21.8,6.7"/>
			</g>
			<g opacity="0.49">
				<g>
					<path fill="#A8B381" d="M340.6,604.2c-9.1,2.5-18.6-4-23.5-12.1c-4.8-8.1-6.4-17.7-9.5-26.7c-8.9-26.2-30.4-46.2-53.3-61.6
						s-48.2-27.3-70.4-43.8c-9.6-7.1-18.6-15.1-28.8-21.4c-12.6-7.7-26.8-12.6-41.1-16.6c-18.6-5.2-37.7-8.8-56.9-10.9
						c-4.3-0.5-10.5,0.7-10.2,5.1c32.7-7.1,66.9,3,96.4,18.7s55.8,36.8,84.3,54.3c14.6,8.9,29.8,17,42.8,28.1
						c21.3,18.2,35.3,43.6,44.9,69.9c2.2,6.2,4.5,12.7,9.4,17c5,4.3,13.7,5.1,17.5-0.3c-0.9-1.3-1.8-2.6-2.6-3.9"/>
				</g>
				<g>
					<g>
						<path fill="#A8B381" d="M340.4,603.6c-16.3,3.7-24.8-13.7-28.6-26.3c-3.2-11-6.6-21.3-12.7-31c-12.1-19.2-30.1-33.8-49-46
							c-22.2-14.3-46.2-25.9-67.3-41.9c-10.5-7.9-20.4-16.6-32-23c-11-6-22.9-10.1-34.9-13.5c-15.4-4.4-31.2-7.7-47.1-9.9
							c-5.1-0.7-21.9-5.2-22.5,4.2c0,0.4,0.4,0.7,0.8,0.6c54.6-11.3,104,21.4,146.7,50.8c11,7.6,22.1,15.2,33.5,22.2
							c10.8,6.6,21.9,12.7,32.3,20c20.9,14.6,36.1,35,46.9,57.9c3,6.4,5.7,13,8.2,19.7c1.8,4.8,3.4,9.8,6.6,14
							c4.9,6.5,15.4,10.3,21.4,3c0.2-0.2,0.3-0.5,0.1-0.8c-0.9-1.3-1.8-2.6-2.6-3.9c-0.5-0.7-1.5,0-1.1,0.6c0.6,0.9,2.5,2.7,2,4
							c-0.6,1.5-3.5,2.1-4.8,2.4c-3.1,0.6-6.4-0.1-9.1-1.7c-5.9-3.5-8.4-10.6-10.6-16.7c-3.8-10.4-8-20.5-13.3-30.3
							c-10.8-20.2-25.4-37.5-44.4-50.5c-10.5-7.2-21.6-13.3-32.4-20c-10.9-6.7-21.4-14-31.9-21.2c-21.3-14.7-42.8-29.5-66.7-39.8
							c-21.5-9.3-45.2-15.1-68.7-12.9c-2.7,0.2-5.3,0.6-8,1c-1.1,0.2-5.5,1.5-1.4-1.9c1-0.8,2.9-1,4.1-1.1
							c7.2-0.7,15.3,1.4,22.3,2.6c13.3,2.2,26.5,5.1,39.4,8.8c12.5,3.5,24.8,7.8,36.2,14.2c11.2,6.4,20.9,14.9,31.1,22.6
							c20.5,15.4,43.6,26.7,65.1,40.4c22,14,43.3,31.4,55,55.3c5.7,11.8,6.8,25.5,13.6,36.8c5,8.3,14.2,14.7,24.2,12.4
							C341.6,604.6,341.2,603.4,340.4,603.6L340.4,603.6z"/>
					</g>
				</g>
			</g>
		</g>
		<g>
			<g>
				<path fill="#657F70" d="M354,232.9c2.8,12.3-1.5,25-5.5,37c-12.2,36.9-22.4,74.9-24.9,113.7c-2.6,38.8,2.8,78.8,20.2,113.6
					c2.8,5.5,5.8,10.9,7.1,17c1.1,5.3,0.8,10.7,0.4,16.1c-1.2,18.2-2.4,36.4-3.5,54.6c-0.2,2.7-0.3,5.5,0.9,7.9
					c1.2,2.4,4.4,4,6.7,2.6c-4.5-22.6-0.4-46.7,11.1-66.6c4-6.8,8.7-13.1,13.3-19.5c29.9-41.6,53.4-90.4,52.2-141.6
					c-0.2-9.7-1.3-19.4-2.8-28.9c-1.4-9.5-3.1-19.2-7.8-27.6c-5.3-9.6-13.9-17-20.3-25.9c-7.6-10.6-11.9-23.2-18.8-34.2
					s-17.9-21-30.9-21.2"/>
			</g>
			<g>
				<path fill="#627F6C" d="M350.7,582c0.4-15.6,3.7-31.3,7.3-46.4c3.3-13.8,8.1-27.2,11.2-41c3.3-14.5,5.1-29.3,6.7-44.2
					c3-28.8,5.6-57.7,8.3-86.6c1.2-13.1,3.7-26.3,4.2-39.5c0.3-6.6-0.1-13.3-1.8-19.7c-1.7-6.3-4.3-12.3-7.1-18.2
					c-5.1-11-11.2-21.6-15-33.2c-2.7-8.1-4.8-17.7-11.1-23.6c-0.6-0.1-1.2-0.1-1.8-0.1l2.5,3.1c2.8,12.3-1.5,25-5.5,37
					c-12.2,36.9-22.4,74.9-24.9,113.7c-2.6,38.8,2.8,78.8,20.2,113.6c2.8,5.5,5.8,10.9,7.1,17c1.1,5.3,0.8,10.7,0.4,16.1
					c-1.2,18.2-2.4,36.4-3.5,54.6c-0.2,2.7-0.3,5.5,0.9,7.9c0.7,1.3,1.9,2.4,3.3,2.8C351,591,350.6,586.8,350.7,582z"/>
			</g>
			<g opacity="0.49">
				<g>
					<path fill="#A8B381" d="M356.1,235.8c6.6,15,13.2,30.1,19.8,45.1c3.4,7.6,6.7,15.3,8.5,23.5c1.7,7.6,1.9,15.5,2,23.3
						c0.2,40.2-4.2,80.2-9.2,120.1c-2.1,16.8-4.3,33.8-9,50.1c-3,10.1-6.9,19.9-9.6,30.1c-5.1,18.6-6.1,38.1-7.1,57.4
						c-3.2-19.9-0.9-40.4,4.4-59.8c3.7-13.6,9-26.8,12.9-40.3c8-27.7,10.3-56.8,12.7-85.5c1.4-17.7,2.9-35.3,4.3-53
						c0.9-10.6,1.7-21.5-1.8-31.6"/>
				</g>
				<g>
					<g>
						<path fill="#A8B381" d="M355.6,236.1c4.8,10.8,9.5,21.7,14.3,32.5c4.8,10.9,10.4,21.8,13.4,33.4c2.9,11.3,2.7,23.1,2.5,34.7
							c-0.1,11.9-0.6,23.7-1.4,35.5c-1.6,24-4.3,47.9-7.2,71.8c-2.9,23.3-6.5,45.7-14.1,68c-4,11.8-7.3,23.7-9.1,36.1
							c-1.8,12.4-2.4,24.9-3.1,37.4c0.4-0.1,0.8-0.1,1.2-0.2c-2.9-18.7-1.1-37.6,3.5-55.9c4.5-17.6,11.6-34.5,16-52.2
							c8.5-34.2,9.9-70,12.7-105c0.8-10,1.7-20,2.4-29.9c0.7-9.2,0.7-18.4-2.1-27.3c-0.2-0.8-1.4-0.4-1.2,0.3
							c5.3,16.7,1.4,35.9,0,53c-1.5,18.3-2.8,36.6-4.6,54.9c-1.7,18-4.1,36.1-8.4,53.7c-4.4,17.7-11.5,34.5-16,52.2
							c-4.7,18.5-6.4,37.6-3.5,56.5c0.1,0.7,1.2,0.5,1.2-0.2c1.3-23.8,3.4-46.9,11-69.6c3.8-11.3,7.4-22.5,9.8-34.1
							c2.1-10.5,3.5-21.2,4.8-31.9c3-24.2,5.9-48.4,7.6-72.6c0.9-12.1,1.5-24.3,1.7-36.5c0.2-10.9,0.6-22-1.2-32.8
							c-2-12.1-7.5-23.3-12.4-34.4c-5.5-12.6-11.1-25.3-16.6-37.9C356.3,234.7,355.2,235.4,355.6,236.1L355.6,236.1z"/>
					</g>
				</g>
			</g>
			<g opacity="0.13">
				<g>
					<path fill="#A4A280" d="M368.9,264c1.8-4.5,4.2-8.6,7.3-12.3c0.5-0.6-0.4-1.5-0.9-0.9c-3.2,3.9-5.7,8.2-7.6,12.8
						C367.4,264.5,368.6,264.8,368.9,264L368.9,264z"/>
				</g>
			</g>
			<g opacity="0.13">
				<g>
					<path fill="#A4A280" d="M374.1,273.5c2.7-4.3,6-8,9.8-11.3c0.6-0.5-0.3-1.4-0.9-0.9c-3.9,3.3-7.3,7.2-10,11.5
						C372.6,273.5,373.6,274.2,374.1,273.5L374.1,273.5z"/>
				</g>
			</g>
			<g opacity="0.13">
				<g>
					<path fill="#A4A280" d="M376.6,285c6.8-3.6,15.1-10.9,9.8-19.2c-0.4-0.7-1.5,0-1.1,0.6c5,7.8-3.2,14.3-9.4,17.5
						C375.3,284.3,375.9,285.3,376.6,285L376.6,285z"/>
				</g>
			</g>
			<g opacity="0.13">
				<g>
					<path fill="#A4A280" d="M383.8,304.7c1.7-4.8,6.6-7.4,8.3-12.2c1.8-5-1.6-9.9-0.4-15c0.2-0.8-1-1.1-1.2-0.3
						c-1.4,5.8,2.6,11.4-0.6,16.9c-2.2,3.8-5.9,6-7.4,10.3C382.3,305.1,383.5,305.4,383.8,304.7L383.8,304.7z"/>
				</g>
			</g>
			<g opacity="0.13">
				<g>
					<path fill="#A4A280" d="M385.2,347.3c3.9-4.8,7.9-9.7,11.8-14.5c2.1-2.5,5.5-5.5,5.9-8.9c0.4-3.7-2.7-6.2-4.4-9.1
						c-4.1-6.9-0.7-14.1,2.7-20.5c0.4-0.7-0.7-1.3-1.1-0.6c-3.8,7.1-7.2,15-2.3,22.4c1.3,1.9,4.2,4.8,3.9,7.3
						c-0.4,3.4-4.1,6.9-6.2,9.4c-3.7,4.6-7.5,9.2-11.2,13.8C383.8,347,384.7,347.9,385.2,347.3L385.2,347.3z"/>
				</g>
			</g>
			<g opacity="0.13">
				<g>
					<path fill="#A4A280" d="M404.4,321c4.2-2.2,8.6-4,13.2-5.4c0.8-0.2,0.4-1.4-0.3-1.2c-4.7,1.4-9.2,3.2-13.5,5.5
						C403,320.3,403.7,321.3,404.4,321L404.4,321z"/>
				</g>
			</g>
			<g opacity="0.13">
				<g>
					<path fill="#A4A280" d="M386.1,364c5.8-17,29.7-19.4,33.6-37.7c0.2-0.8-1-1.1-1.2-0.3c-3.8,18.1-27.7,20.6-33.6,37.7
						C384.6,364.5,385.8,364.8,386.1,364L386.1,364z"/>
				</g>
			</g>
			<g opacity="0.13">
				<g>
					<path fill="#A4A280" d="M387.1,378c3.8-4.4,8.3-7.6,13.8-9.6c3.8-1.4,7.8-2.4,11.5-4.1c8.3-3.8,10.1-10.5,12.4-18.8
						c0.2-0.8-1-1.1-1.2-0.3c-1.3,4.8-2.2,10.5-5.8,14.1c-3.4,3.4-8.1,4.8-12.5,6.3c-7.4,2.5-13.8,5.5-19,11.6
						C385.7,377.7,386.6,378.6,387.1,378L387.1,378z"/>
				</g>
			</g>
			<g opacity="0.13">
				<g>
					<path fill="#A4A280" d="M383.4,403.4c7.5-7.4,15.8-12.7,24.9-17.8c6.9-3.9,11.9-9.3,14.8-16.7c0.3-0.8-0.9-1.1-1.2-0.3
						c-3.9,10.1-11.7,14.3-20.5,19.4c-6.9,4-13.2,9-18.9,14.6C381.9,403.1,382.8,403.9,383.4,403.4L383.4,403.4z"/>
				</g>
			</g>
			<g opacity="0.13">
				<g>
					<path fill="#A4A280" d="M383,424.1c5-12.9,21.8-8.6,32.2-12.9c8.8-3.7,10.9-12.3,12.1-21c0.1-0.8-1.1-1.1-1.2-0.3
						c-0.8,5.5-1.6,11.6-5.4,15.9c-4.7,5.5-12.4,6-19.1,6.8c-8,0.9-16.6,2.9-19.9,11.2C381.5,424.5,382.7,424.8,383,424.1L383,424.1
						z"/>
				</g>
			</g>
			<g opacity="0.13">
				<g>
					<path fill="#A4A280" d="M382.2,439c7.6-1.9,15-4.3,22.2-7.4c5.1-2.2,12.1-4.4,14.6-9.9c0.3-0.7-0.8-1.4-1.1-0.6
						c-2.6,5.9-11.9,8.6-17.4,10.8c-6.1,2.4-12.3,4.3-18.6,5.9C381.1,438,381.4,439.2,382.2,439L382.2,439z"/>
				</g>
			</g>
			<g opacity="0.13">
				<g>
					<path fill="#A4A280" d="M374.4,471.9c9-18.3,34.7-19.5,42.7-38.8c0.3-0.7-0.9-1.1-1.2-0.3c-7.9,19-33.5,20.2-42.5,38.5
						C372.9,471.9,374,472.6,374.4,471.9L374.4,471.9z"/>
				</g>
			</g>
			<g opacity="0.13">
				<g>
					<path fill="#A4A280" d="M371.4,493.8c3.2-10.2,14.7-8.8,22-14.5c5.3-4.2,8.7-10.2,9.7-16.8c0.1-0.8-1.1-1.1-1.2-0.3
						c-1.4,9.5-7.9,17.3-17.1,20.2c-6.8,2.1-12.2,3.8-14.5,11.1C370,494.2,371.2,494.5,371.4,493.8L371.4,493.8z"/>
				</g>
			</g>
			<g opacity="0.13">
				<g>
					<path fill="#A4A280" d="M361.4,520.1c4.7-2.3,7.2-7,11.6-9.8c3.8-2.4,9.9-1.1,11.3-6.2c0.2-0.8-1-1.1-1.2-0.3
						c-1.1,3.8-5.6,3.1-8.6,4.3c-1.3,0.5-2.5,1.4-3.7,2.3c-3.5,2.8-6,6.6-10.1,8.7C360,519.4,360.6,520.5,361.4,520.1L361.4,520.1z"
						/>
				</g>
			</g>
			<g opacity="0.13">
				<g>
					<path fill="#A4A280" d="M368,501.6c-4.1-6.4-8.3-12.8-14.5-17.5c-1.2-0.9-2.5-1.7-3.7-2.6c-2.3-1.7-3.4-3.7-5.4-5.7
						c-2.7-2.8-6.3-3.8-8.3-7.5c-0.4-0.7-1.5-0.1-1.1,0.6c1.7,3.1,3.8,4.1,6.5,6.1c2.7,2,4.3,5.1,7.1,7.1c7.7,5.8,13,12,18.3,20.1
						C367.4,502.9,368.4,502.2,368,501.6L368,501.6z"/>
				</g>
			</g>
			<g opacity="0.13">
				<g>
					<path fill="#A4A280" d="M374,475.3c-8-7.4-17.1-13.7-27-18.3c-3.4-1.6-7-2.7-8.1-6.8c-0.5-1.9-0.5-3.9-1-5.9
						c-0.4-1.6-0.8-3-1.7-4.4c-1.6-2.4-4.7-3.7-5.1-6.9c-0.1-0.8-1.3-0.8-1.2,0c0.4,4.4,5.1,6.2,6.5,10.4c1.3,3.9,0.4,8.6,3.9,11.6
						c1.8,1.6,4.8,2.4,6.9,3.4c2.8,1.4,5.6,2.8,8.3,4.5c6.4,3.8,12.2,8.3,17.7,13.3C373.7,476.7,374.5,475.8,374,475.3L374,475.3z"
						/>
				</g>
			</g>
			<g opacity="0.13">
				<g>
					<path fill="#A4A280" d="M375.3,449.8c1.4-4.4-2.6-7.8-5.5-10.6c-4.5-4.3-9.5-7.9-15-10.8c-5.1-2.7-10.9-4.1-15.9-6.9
						c-3.6-2-5.9-4.5-7-8.6c-0.7-2.9-0.9-5.6-2.3-8.3c-0.4-0.7-1.5-0.1-1.1,0.6c2.3,4.4,1.5,9.8,5,13.7c2.6,2.9,6.3,4.5,9.8,5.9
						c5.4,2.2,10.7,4.3,15.7,7.4c4,2.6,17.1,11,15.1,17.2C373.8,450.3,375,450.6,375.3,449.8L375.3,449.8z"/>
				</g>
			</g>
			<g opacity="0.13">
				<g>
					<path fill="#A4A280" d="M381.7,410.5c-6.7-2.9-13.4-5.8-20.1-8.7c-6.1-2.6-12.7-5-17.5-9.8c-6.4-6.4-8.5-16.6-17.4-20.4
						c-0.7-0.3-1.4,0.8-0.6,1.1c9.7,4.1,11.6,16.2,19.6,22.4c4.5,3.5,10.1,5.6,15.3,7.8c6.7,2.9,13.4,5.8,20.1,8.7
						C381.8,411.9,382.4,410.8,381.7,410.5L381.7,410.5z"/>
				</g>
			</g>
			<g opacity="0.13">
				<g>
					<path fill="#A4A280" d="M384.2,387.9c-3-8-13.6-14.7-21.2-17.8c-2.1-0.9-4.2-1.3-6.4-1.7c-5-0.9-7.9-1.8-10.8-6
						c-1.7-2.4-3.2-5-4.8-7.4c-1-1.6-2-3.1-3.1-4.7c-0.5-0.7-1.7-3.3-2.2-3.6c0.7,0.3,1.1-0.9,0.3-1.2c-0.2-0.1-0.3-0.1-0.5-0.2
						c-0.2-0.1-0.5,0-0.6,0.2c-2.3,2,2.8,6.8,3.9,8.6c2.8,4.3,5.5,10.3,9.7,13.4c1.9,1.4,3.9,1.7,6.2,2c4.4,0.6,8.2,1.6,12,3.9
						c5.9,3.4,13.7,8.2,16.2,14.8C383.3,388.9,384.5,388.6,384.2,387.9L384.2,387.9z"/>
				</g>
			</g>
			<g opacity="0.13">
				<g>
					<path fill="#A4A280" d="M385.4,364.2c1.3-3.9-1.4-6.8-3.9-9.5c-4.1-4.2-8.6-8.1-13.4-11.6c-4.9-3.7-10.2-6.9-15.6-9.7
						c-3.7-1.9-6.3-3.8-7.4-8c-0.9-3.7-1.5-7.5-2.2-11.2c-0.2-0.8-1.4-0.5-1.2,0.3c0.9,4.6,1,10.8,3.4,14.9
						c2.2,3.8,7.6,5.3,11.2,7.4c5.3,3,10.3,6.5,15,10.3c3.8,3.1,14.9,10.9,12.9,16.7C384,364.6,385.2,365,385.4,364.2L385.4,364.2z"
						/>
				</g>
			</g>
			<g opacity="0.13">
				<g>
					<path fill="#A4A280" d="M385.6,335.2c-4.5-7.4-9.7-16.8-16.9-22c-3.9-2.8-8.6-4.1-12.6-6.5c-5-3.1-8.9-7.4-11.8-12.6
						c-0.4-0.7-1.5-0.1-1.1,0.6c4.4,7.9,10.8,12.6,18.9,16.3c10.5,4.8,16.6,15.2,22.4,24.7C385,336.5,386.1,335.9,385.6,335.2
						L385.6,335.2z"/>
				</g>
			</g>
			<g opacity="0.13">
				<g>
					<path fill="#A4A280" d="M385.2,307.1c-5,1-7.1-5-9.9-8c-2.1-2.3-4.7-4.1-7.2-5.9c-7.2-5-16-9.9-17-19.6c-0.1-0.8-1.3-0.8-1.2,0
						c1,9.3,8.5,14.6,15.7,19.4c5.3,3.5,8.9,7.1,12.7,12.1c1.9,2.5,4.1,3.8,7.2,3.2C386.3,308.2,386,307,385.2,307.1L385.2,307.1z"
						/>
				</g>
			</g>
			<g opacity="0.13">
				<g>
					<path fill="#A4A280" d="M375.7,279.5c-3.7-2.1-7.4-4.2-11.1-6.3c-3.7-2.1-7.9-4-10.5-7.4c-0.5-0.6-1.6,0-1.1,0.6
						c2.2,2.9,5.1,4.5,8.2,6.3c4.6,2.6,9.2,5.3,13.9,7.9C375.8,280.9,376.4,279.9,375.7,279.5L375.7,279.5z"/>
				</g>
			</g>
		</g>
		<g>
			<g>
				<path fill="#627F6C" d="M350,597.4c-7.7-13.3-1.4-30.4-5.1-45.4c-2.6-10.7-10.2-19.4-16.5-28.4c-5.2-7.3-9.7-15.1-14.3-22.7
					c-39.2-64.6-89.5-122.5-148-170.4c3.5-6,12.2-5.6,19.1-4.4c21.8,3.9,43.9,7.8,64.5,16s40,21.2,52.1,39.7c3,4.6,5.6,9.7,6.6,15.2
					c2.9,17-10.5,35.7-2.1,50.9c3.6-4.1,6.8-8.7,9.3-13.6c4.1,3.3,4.3,9.3,4.6,14.6c1.5,24.9,12.6,47.9,21.3,71.3
					c8.7,23.3,14.9,49.5,6.3,72.8"/>
			</g>
			<g opacity="0.13">
				<g>
					<path fill="#A4A280" d="M212.3,372.4c-4.1-11.5-7.9-23.1-11.5-34.7c-0.2-0.8-1.4-0.4-1.2,0.3c3.6,11.7,7.4,23.2,11.5,34.7
						C211.3,373.5,212.5,373.1,212.3,372.4L212.3,372.4z"/>
				</g>
			</g>
			<g opacity="0.13">
				<g>
					<path fill="#A4A280" d="M227.6,385c-1.2-9.1-2.1-18.4-3.7-27.4c-1.2-7.1-3.4-13.9-8.4-19.2c-0.6-0.6-1.4,0.3-0.9,0.9
						c5.2,5.6,7.1,12.8,8.3,20.2c1.3,8.5,2.3,17.1,3.4,25.6C226.4,385.8,227.7,385.8,227.6,385L227.6,385z"/>
				</g>
			</g>
			<g opacity="0.13">
				<g>
					<path fill="#A4A280" d="M242.3,400.5c-1.8-11.7-0.6-23.5-1.7-35.2c-1-9.6-3.9-18.8-8.5-27.3c-0.4-0.7-1.5-0.1-1.1,0.6
						c5.5,10.1,8.2,20.8,8.7,32.2c0.4,10-0.1,20,1.4,30C241.2,401.6,242.4,401.3,242.3,400.5L242.3,400.5z"/>
				</g>
			</g>
			<g opacity="0.13">
				<g>
					<path fill="#A4A280" d="M263.5,423.3c-2-5.9-1.4-12-1.6-18.1c-0.2-5.9-0.7-11.9-1.6-17.7c-1-6.1-2.4-12.2-4.2-18.1
						c-2.1-6.8-5.1-13.5-3.2-20.7c0.2-0.8-1-1.1-1.2-0.3c-1.4,5.3-0.3,10.2,1.3,15.4c2.1,6.7,4.1,13.4,5.4,20.4
						c1.4,7.2,2.1,14.6,2.2,22c0.1,5.9-0.4,11.8,1.6,17.5C262.6,424.4,263.8,424.1,263.5,423.3L263.5,423.3z"/>
				</g>
			</g>
			<g opacity="0.13">
				<g>
					<path fill="#A4A280" d="M279.3,442.5c-1-7.5-2.1-15-2.8-22.6c-0.6-7.2,0.1-14.1,0.4-21.2c0.5-13-2.4-25.7-8.2-37.4
						c-0.4-0.7-1.4-0.1-1.1,0.6c6.3,12.7,8.8,26.3,7.8,40.3c-0.9,13.6,0.9,26.7,2.6,40.2C278.2,443.3,279.4,443.3,279.3,442.5
						L279.3,442.5z"/>
				</g>
			</g>
			<g opacity="0.13">
				<g>
					<path fill="#A4A280" d="M297.4,473.3c1.3-31.6-2-63.1-9.8-93.8c-0.2-0.8-1.4-0.4-1.2,0.3c7.7,30.5,11,62,9.7,93.5
						C296.1,474.1,297.3,474.1,297.4,473.3L297.4,473.3z"/>
				</g>
			</g>
			<g opacity="0.13">
				<g>
					<path fill="#A4A280" d="M316.6,500.7c-3.4-9-6.9-18.2-8-27.9c-0.9-8.5,1.9-17.1-0.1-25.4c-0.2-0.8-1.4-0.5-1.2,0.3
						c2.1,8.8-1,18,0.3,27c1.3,9.1,4.6,17.7,7.8,26.3C315.7,501.8,316.9,501.5,316.6,500.7L316.6,500.7z"/>
				</g>
			</g>
			<g opacity="0.13">
				<g>
					<path fill="#A4A280" d="M339.6,530.8c-4.3-12.8-8.7-25.6-13-38.3c-4.2-12.4-11.3-26.4-10.5-39.7c0-0.8-1.2-0.8-1.2,0
						c-0.7,13,5.8,26.1,9.9,38.2c4.6,13.4,9.1,26.8,13.7,40.2C338.7,531.9,339.9,531.6,339.6,530.8L339.6,530.8z"/>
				</g>
			</g>
		</g>
		<g>
			<g>
				<path fill="#627F6C" d="M347.3,601.6c27.4,15.5,42.8,45.5,56.6,73.9c8.2,16.8,16.3,33.6,22.9,51c7.1,18.8,12.2,38.3,19.8,56.9
					c7.3,17.9,16.8,34.8,24.4,52.6c16.7,39.3,23.7,82.8,20,125.4c-0.4,4.7-0.6,10.2,3,13.3c4.3,3.6,11,1.1,15.4-2.5
					c9.6-7.9,14.9-19.7,19.6-31.2c8.7-21.3,16.5-43.5,17.2-66.6c0.4-13.6-1.7-27.1-4-40.4c-2.7-15.6-5.8-31.1-9.3-46.6
					c-2.3-10.2-4.7-20.3-8.2-30.1c-12.4-34.6-37.7-63.3-66.5-86.2s-61.1-40.8-92.4-60c-7.9-4.8-15.8-9.9-21.4-17.2"/>
			</g>
			<g>
				<path fill="#657F70" d="M518.8,960.4c0.4-8.3,0.5-16.6,1-24.9c0.5-8,1.8-15.8,2.9-23.7c0.9-7.2,1.6-14.5,0.9-21.7
					c-0.6-6.3-1.8-12.7-3-18.9c-2.4-12.4-5.3-25.4-11.8-36.4c-7.8-13.3-16.2-26.2-24.1-39.4c-8.1-13.5-15.3-27.4-23-41.2
					c-15.1-27.2-29.8-55.1-49.4-79.6c-3.2-4-6.5-7.9-9.9-11.7c1.6,3.1,3.1,6.2,4.6,9.3c8.2,16.8,16.3,33.6,22.9,51
					c7.1,18.8,12.2,38.3,19.8,56.9c7.3,17.9,16.8,34.8,24.4,52.6c16.7,39.3,23.7,82.8,20,125.4c-0.4,4.7-0.6,10.2,3,13.3
					c4.3,3.6,11,1.1,15.4-2.5c2.3-1.9,4.3-4,6.2-6.3C518.7,961.9,518.7,961.2,518.8,960.4z"/>
			</g>
		</g>
		<g opacity="0.13">
			<g>
				<path fill="#A4A280" d="M363.5,615.1c17.4,20.8,34.8,41.6,52.3,62.4c8.9,10.7,17.8,21.3,26.8,32c7.9,9.4,16.1,18.7,22,29.5
					c5.6,10.5,8.1,22.2,11.4,33.5c3.3,11.1,7.9,20.4,14.6,29.7c7.5,10.3,11,22.3,15.1,34.3c4.3,12.5,8.3,25,11.4,37.9
					c6.7,27.8,8.4,57.4-2,84.5c-0.6,1.5,1.8,2.2,2.4,0.7c19.9-51.6-1.3-105.4-22-153c-5.7-13.2-11.6-26.3-17.4-39.4
					c-5.6-12.7-10.9-25.6-18.3-37.4c-6.8-10.9-14.8-20.9-22.6-30.9c-9.5-12-18.9-24.1-28.4-36.1c-10.1-12.8-20.2-25.7-30.2-38.5
					c-7.4-9.4-15-22.3-27.8-24.4c-1.6-0.3-2.3,2.2-0.7,2.4c12.2,2,19.7,14.8,26.7,23.7c8.6,11,17.3,22,25.9,33
					c17.1,21.8,35.5,43.1,51,66c14.8,21.8,24.1,47.5,34.7,71.5c10.8,24.4,21.8,49,28.6,74.8c7.6,28.7,9,59.5-1.9,87.6
					c0.8,0.2,1.6,0.4,2.4,0.7c8.9-23.3,9.1-48.7,4.8-73c-2.3-13-5.9-25.7-9.9-38.2c-3.8-11.7-7.4-23.8-12.3-35.1
					c-5.1-11.7-14.3-20.6-18.8-32.8c-4.2-11.4-6.3-23.5-10.8-34.8c-4.2-10.4-10.7-19.4-17.8-28c-8.6-10.5-17.4-20.8-26.1-31.2
					c-20.4-24.4-40.8-48.7-61.2-73.1C364.2,612.1,362.4,613.9,363.5,615.1L363.5,615.1z"/>
			</g>
		</g>
		<g>
			<g>
				<path fill="#657F70" d="M345.8,606.1c8.2-7.6,12.5-18.5,15.4-29.3c3.1-11.6,5-23.6,5.5-35.6c0.4-9.8,0-19.8,3.4-29
					c2.6-7.1,7.2-13.3,12.2-19c11.5-13.1,25.2-24.3,40.3-33c1-0.6,2.2-1.2,3.3-0.9c1.3,0.3,2,1.7,2.6,2.9c8.1,17.9,16.4,38,9.8,56.5
					c-2.8,7.9-8.1,14.6-13.3,21.2c-14.3,17.9-29.2,36.4-49.6,46.9c-9.8,5-21.8,9.2-25.7,19.5"/>
			</g>
			<g opacity="0.38">
				<g>
					<path fill="#607A65" d="M416.5,537.5c-0.1-7.8,0.1-18.9-6.9-24.1c-9.8-7.2-20.8,5.2-26.8,12c-5,5.7-10.2,11.3-15.6,16.7
						c-0.6,11.7-2.4,23.3-5.5,34.5c-2.9,10.8-7.2,21.7-15.4,29.3l3.9,0.2c3.8-10.4,15.8-14.5,25.7-19.5c16-8.2,28.7-21.4,40.2-35.3
						C416.2,546.6,416.6,541.8,416.5,537.5z"/>
				</g>
			</g>
			<g opacity="0.3">
				<g>
					<path fill="#A4A280" d="M348.4,604.6c18.8-17.8,34.8-38.5,47-61.4c13.5-25.1,21.3-52.5,28.8-79.9c0.2-0.8-1-1.1-1.2-0.3
						c-4.5,14.5-9,29-13.4,43.5c-4.3,13.9-7.7,28.6-15.2,41.1c-7.1,11.9-17.2,22.4-26.8,32.3c-7.4,7.6-17.6,15-19.3,26.2
						c-0.1,0.8,1.1,1.1,1.2,0.3c1.1-6.7,5.3-11.8,9.9-16.5c4.7-4.8,9.5-9.5,14.1-14.4c8.7-9.3,17.7-19,23.7-30.4
						c6.4-12,9.6-25.5,13.6-38.3c4.5-14.5,9-29,13.4-43.5c-0.4-0.1-0.8-0.2-1.2-0.3c-7.5,27.3-15.3,54.5-28.7,79.6
						c-12.2,22.8-28.1,43.4-46.9,61.2C346.9,604.3,347.8,605.2,348.4,604.6L348.4,604.6z"/>
				</g>
			</g>
			<g opacity="8.000000e-02">
				<g>
					<path fill="#A4A280" d="M418.1,482.9c4.1-0.6,7.9-2.2,11.2-4.7c0.6-0.5,0-1.6-0.6-1.1c-3.2,2.5-6.9,4-10.9,4.6
						C417,481.8,417.3,483,418.1,482.9L418.1,482.9z"/>
				</g>
			</g>
			<g opacity="8.000000e-02">
				<g>
					<path fill="#A4A280" d="M417,493.8c3.2-0.9,6.1-0.9,9.3-0.1c1.6,0.4,3.3,1,5,1c2.4,0,4.4-1,5.5-3.2c0.4-0.7-0.7-1.4-1.1-0.6
						c-2.3,4.7-8,1.6-11.7,1.1c-2.5-0.3-4.9,0-7.4,0.7C415.9,492.8,416.2,494,417,493.8L417,493.8z"/>
				</g>
			</g>
			<g opacity="8.000000e-02">
				<g>
					<path fill="#A4A280" d="M413.9,508.8c5.2-2,10.7-1,16-2c4.6-0.9,8.4-3.5,12-6.3c0.6-0.5-0.3-1.4-0.9-0.9
						c-5.1,3.9-9.7,6.1-16.2,6.4c-4,0.2-7.6,0.2-11.3,1.6C412.8,507.9,413.1,509.1,413.9,508.8L413.9,508.8z"/>
				</g>
			</g>
			<g opacity="8.000000e-02">
				<g>
					<path fill="#A4A280" d="M409.9,514.2c3.1,0.2,6.2,0.2,9.2,0.5c4,0.4,6.3,1.9,9.7,3.7c2.7,1.4,5.3,1.7,7.6-0.3
						c0.6-0.5-0.3-1.4-0.9-0.9c-4.2,3.5-9.1-2.5-13.1-3.5c-4-0.9-8.5-0.6-12.6-0.8C409.1,512.9,409.1,514.2,409.9,514.2L409.9,514.2
						z"/>
				</g>
			</g>
			<g opacity="8.000000e-02">
				<g>
					<path fill="#A4A280" d="M403.9,530.8c5.5-2.1,10.1-0.5,15.7-0.8c3.6-0.1,6.8-1.7,9.9-3.3c0.7-0.4,0.1-1.4-0.6-1.1
						c-2.3,1.1-4.6,2.4-7.2,2.9c-2.9,0.6-5.3-0.2-8.1-0.4c-3.6-0.3-6.7,0.2-10,1.5C402.8,529.9,403.1,531.1,403.9,530.8L403.9,530.8
						z"/>
				</g>
			</g>
			<g opacity="8.000000e-02">
				<g>
					<path fill="#A4A280" d="M400.1,546.4c6.3-4.1,14.1-2.9,21.2-4.6c0.8-0.2,0.5-1.4-0.3-1.2c-7.2,1.7-15,0.5-21.4,4.7
						C398.8,545.7,399.4,546.8,400.1,546.4L400.1,546.4z"/>
				</g>
			</g>
			<g opacity="8.000000e-02">
				<g>
					<path fill="#A4A280" d="M390.1,555.6c5.1-0.5,9.6,0.4,14.6,1c2.8,0.3,5.2-0.1,7.1-2.3c0.5-0.6-0.4-1.5-0.9-0.9
						c-2.9,3.4-7.3,1.6-11,1.1c-3.3-0.5-6.5-0.4-9.8-0.1C389.3,554.4,389.3,555.7,390.1,555.6L390.1,555.6z"/>
				</g>
			</g>
			<g opacity="8.000000e-02">
				<g>
					<path fill="#A4A280" d="M382.2,566.1c5.9,1.7,12.2,3.1,17.7-0.5c0.7-0.4,0-1.5-0.6-1.1c-5.2,3.4-11.2,1.9-16.8,0.3
						C381.8,564.7,381.4,565.9,382.2,566.1L382.2,566.1z"/>
				</g>
			</g>
			<g opacity="8.000000e-02">
				<g>
					<path fill="#A4A280" d="M371.8,582.1c3.6-4.5,10.6-1.2,15.3-3.6c0.7-0.4,0.1-1.4-0.6-1.1c-4.9,2.5-11.7-1.1-15.6,3.8
						C370.4,581.8,371.3,582.7,371.8,582.1L371.8,582.1z"/>
				</g>
			</g>
			<g opacity="8.000000e-02">
				<g>
					<path fill="#A4A280" d="M377.7,571.4c-4.7-0.6-5-6.8-5.7-10.4c-0.7-3.3-1.3-6.6-2-9.9c-0.2-0.8-1.4-0.5-1.2,0.3
						c1,5.3,1.7,11,3.3,16.1c0.9,2.8,2.6,4.7,5.6,5.1C378.5,572.8,378.5,571.5,377.7,571.4L377.7,571.4z"/>
				</g>
			</g>
			<g opacity="8.000000e-02">
				<g>
					<path fill="#A4A280" d="M382.7,565c-1-8.9-3-17.5-6.4-25.8c-1.8-4.5-3.7-8.2-3.5-13.2c0.1-3.9,0.8-7.5,0-11.4
						c-0.2-0.8-1.4-0.5-1.2,0.3c0.9,4.3-0.1,8.3-0.1,12.6c0.1,3.2,1.1,5.9,2.3,8.8c3.9,9.2,6.5,18.6,7.7,28.6
						C381.5,565.8,382.8,565.8,382.7,565L382.7,565z"/>
				</g>
			</g>
			<g opacity="8.000000e-02">
				<g>
					<path fill="#A4A280" d="M390.7,554.2c0.1-8.5-0.8-16.9-2.9-25.1c-0.9-3.4-1.9-6.6-3.6-9.7c-2.2-3.8-8-13.1-2.6-16.9
						c0.7-0.5,0-1.5-0.6-1.1c-5.9,4-0.9,13.5,1.7,17.9c5.8,10,6.8,23.4,6.7,34.7C389.4,555,390.7,555,390.7,554.2L390.7,554.2z"/>
				</g>
			</g>
			<g opacity="8.000000e-02">
				<g>
					<path fill="#A4A280" d="M400.4,543.1c-2.3-10-3.8-20.2-4.2-30.4c-0.1-3.3,0.2-6.9-0.6-10.2c-1.1-4.3-4.9-7.2-5.2-11.9
						c0-0.8-1.3-0.8-1.2,0c0.2,3.3,1.9,5.4,3.4,8.2c2.8,4.9,2.1,10.3,2.4,15.7c0.5,9.7,1.9,19.4,4.1,28.8
						C399.4,544.2,400.6,543.9,400.4,543.1L400.4,543.1z"/>
				</g>
			</g>
			<g opacity="8.000000e-02">
				<g>
					<path fill="#A4A280" d="M405.3,527.6c-1.9-8.7-2.9-16.7-2.1-25.6c0.6-6.9-2.1-13.4-4.1-19.9c-0.2-0.8-1.4-0.4-1.2,0.3
						c1.1,3.6,2.3,7.1,3.2,10.7c1.2,4.3,0.8,8.1,0.5,12.5c-0.6,7.6,0.9,15,2.5,22.4C404.2,528.7,405.4,528.4,405.3,527.6
						L405.3,527.6z"/>
				</g>
			</g>
			<g opacity="8.000000e-02">
				<g>
					<path fill="#A4A280" d="M412.1,505.4c1.1-10.5-1.1-20.6-6.4-29.7c-0.4-0.7-1.5-0.1-1.1,0.6c5.2,8.9,7.3,18.8,6.2,29.1
						C410.8,506.2,412,506.2,412.1,505.4L412.1,505.4z"/>
				</g>
			</g>
			<g opacity="8.000000e-02">
				<g>
					<path fill="#A4A280" d="M419.5,480.2c0.8,0,0.8-1.2,0-1.2C418.7,478.9,418.7,480.2,419.5,480.2L419.5,480.2z"/>
				</g>
			</g>
			<g opacity="8.000000e-02">
				<g>
					<path fill="#A4A280" d="M420.1,479.2c-1.5-3.1-2.6-6.3-3.2-9.7c-0.1-0.8-1.4-0.5-1.2,0.3c0.7,3.5,1.8,6.8,3.3,10
						C419.4,480.6,420.5,479.9,420.1,479.2L420.1,479.2z"/>
				</g>
			</g>
		</g>
		<g>
			<g>
				<path fill="#4C694C" d="M321.5,717.3c-2.3-2.4-5.1-4.2-8.2-5.4c-2.1-0.8-4.3-1.3-6.5-1c-4.7,0.7-7.9,5-10.1,9.3
					c-3.9,7.5-6.2,16.4-3.5,24.3c0.6,1.8,1.5,3.6,2.4,5.3c1.9,3.8,4.1,7.9,8,9.7c4.4,2,9.8,0.3,13.4-3c3.6-3.3,5.6-7.9,7.4-12.4
					c0.9-2.2,1.7-4.5,2-6.8c0.5-3.7-0.2-7.4-1-11c-0.6-2.7-1.1-5.5-2.5-8s-3.6-4.6-6.3-5.1"/>
			</g>
			<g opacity="0.53">
				<g>
					<path fill="#476146" d="M317,748.9c-2.7,0.4-5.3,2.1-8.1,2c-6.2-0.1-7.6-9.4-6.3-13.9c2.2-7.4,9.1-11.1,13.1-17.3
						c1.2-1.9,1.7-3.8,1.6-5.7c-1.3-0.8-2.7-1.6-4.1-2.1c-2.1-0.8-4.3-1.3-6.5-1c-4.7,0.7-7.9,5-10.1,9.3
						c-3.9,7.5-6.2,16.4-3.5,24.3c0.6,1.8,1.5,3.6,2.4,5.3c1.9,3.8,4.1,7.9,8,9.7c4.4,2,9.8,0.3,13.4-3c2.1-2,3.7-4.3,5-6.9
						C320.4,748.8,318.6,748.7,317,748.9z"/>
				</g>
			</g>
		</g>
		<g>
			<path fill="#866F7A" d="M298.7,668.5c0.2,1.5,0.6,2.9,1.1,4.3C299.4,671.4,299.1,669.9,298.7,668.5z"/>
		</g>
		<g>
			<path fill="#866F7A" d="M317.1,702.9c-0.9-4.3-0.8-8.9-2-13.1c-1.5-5.9-5.2-11.2-5.7-17.3c-1-12.2,10.3-21.2,18.4-30.4
				c6-6.9,10.6-15,13.4-23.8c1.1-3.4,1.1-8.4-2.1-9.6c-4.7,3-5.9,9.3-7.8,14.6c-2.2,6.5-6,12.4-9.8,18.2c-5.1,8-10.4,16-17.6,22.2
				c-1.4,1.2-2.8,2.3-4.2,3.4c0.4,2,0.9,4,1.5,5.9c3.2,2.8,5,6.8,6.7,10.7c2.9,6.4,5.7,14.2,2,20.2c-2,3.3-5.7,5.6-6.9,9.3
				c7-4.2,17.6,0.4,19.3,8.4c1.5-0.7,2.9-1.4,4.4-2C321.8,715.3,318.4,709.3,317.1,702.9z"/>
		</g>
		<g>
			<path fill="#7C757A" d="M317.2,702.9c-0.9-4.3-0.8-8.9-1.9-13.2c-1.5-5.9-5.1-11.2-5.6-17.3c-0.2-2.5,0.1-4.9,0.8-7.1
				c-1.7-0.4-3.3-0.6-4.9-0.3c0.2,5.1,1.9,10.1,3.3,15c1.8,6.3,3.6,12.6,4.3,19.1c0.5,4.4,0.4,8.9,0.8,13.3c4.1,1.5,7.5,4.9,8.4,9.2
				c1.5-0.7,2.9-1.3,4.4-2C321.9,715.3,318.5,709.3,317.2,702.9z"/>
		</g>
		<g opacity="0.34">
			<g>
				<path fill="#786E71" d="M332.1,636.7c3.9-5.6,7-11.8,9.1-18.3c1.1-3.4,1.1-8.4-2.1-9.6c-4.7,3-5.9,9.3-7.8,14.6
					c-1.4,4-3.3,7.7-5.5,11.4C327.9,635.3,330.1,635.7,332.1,636.7z"/>
			</g>
		</g>
		<g>
			<g>
				<path fill="#37373C" d="M349.1,702.9c0.3-4.9-2.2-9.9-6.3-12.6c-4.1-2.7-9.7-3-14-0.7c-4.2,2.2-7,6.3-9.6,10.3
					c-3.6,5.7-7.1,11.8-7.5,18.5c-0.4,6.7,3.2,14.2,9.6,15.9c5.9,1.6,12.1-1.8,16.7-5.9c3.8-3.4,7.2-7.4,9.9-11.8
					c1.7-2.8,3.3-5.9,3.2-9.1c0-4.7-3.3-8.9-4.3-13.5"/>
			</g>
			<g opacity="0.45">
				<g>
					<path fill="#2B2B2F" d="M335.6,724c-0.6-3.6,1.5-6.8,2.7-10.1c1-2.7,1.9-5.6,2.4-8.5c0.2-1.2,0.7-3.4,0.1-4.5
						c-0.8-1.6-2.8-0.5-3.9,0.5c-1.8,1.7-2.7,4.7-3.9,6.9c-1.5,2.9-5.1,8.6-7.9,3.6c-1.6-2.8-1.7-5.8-1.4-8.9c0.1-1.2,0.6-2.9,0-4.1
						c-0.5-1.1-1.5-1.5-2.7-1.6c-0.6,0.9-1.2,1.8-1.7,2.7c-3.6,5.7-7.1,11.8-7.5,18.5c-0.4,6.7,3.2,14.2,9.6,15.9
						c5.9,1.6,12.1-1.8,16.7-5.9C336.9,727.6,335.9,726.2,335.6,724z"/>
				</g>
			</g>
			<g opacity="7.000000e-02">
				<g>
					<path fill="#C5C5CA" d="M343.8,716c1.7,0.2,2.7-1.9,3-3.5c0.6-3.4,0.8-6.8,0.6-10.2c0-0.6-0.1-1.3-0.5-1.8
						c-0.8-1-2.6-0.4-3.2,0.8c-0.6,1.2-0.3,2.5,0.1,3.8c0.5,1.7,1.3,3.4,1.4,5.2s-0.6,3.8-2.2,4.6"/>
				</g>
				<g>
					<g>
						<path fill="#C5C5CA" d="M343.8,718.5c4.2-0.2,5.2-4.1,5.7-7.6c0.4-3.3,1.6-9.5-0.9-12.2c-2-2.2-5.8-1.1-7.1,1.3
							c-1,1.8-0.7,3.8-0.1,5.7c0.5,2,2.6,5.6,0.3,7c-2.7,1.7-0.2,6.1,2.5,4.3c3.8-2.4,3.9-6.6,2.7-10.6c-0.2-0.7-1-4.3-2-4.1
							c0,0,0.1,3.3,0.1,3.4c0,0.9-0.1,7.8-1.1,7.8C340.6,713.6,340.6,718.6,343.8,718.5L343.8,718.5z"/>
					</g>
				</g>
			</g>
		</g>
		<g opacity="0.34">
			<g>
				<path fill="#786E71" d="M341,605c2.7,3.9,8.3,17.8,9.4,22.4c1,4.2,0.5,8.6,0,12.9c-1.4,11.6-2.8,23.4-6.9,34.4
					c-1.9,4.9-4.6,10-9.4,12.2c-1.2,0.5-2.5,1-3,2.2c-0.5,1.4,0.7,2.8,2,3.4s2.8,0.5,4.2,0.9c3,0.7,5.6,3.2,6.3,6.2
					c0.2,0.8,0.3,1.6,0.8,2.3c1.6,2.2,5.4,0.1,5.8-2.6c0.4-2.7-1.1-5.3-1.6-8c-0.4-2.1-0.2-4.2,0-6.3c0.6-6.9,1.1-13.7,1.7-20.6
					c0.6-7.1,1.2-14.2,2.7-21.2c1.6-7.1,4.1-14.2,2.8-21.4c-0.2-1.1-4.9-20.6-5.6-21.4C347.6,597.2,343.2,608.6,341,605"/>
			</g>
		</g>
		<g>
			<g>
				<path fill="#CCCDA7" d="M356.9,513.6c1.6-3.8-0.6-8.7-4.5-10.1c-0.8-0.3-1.7-0.4-2.5-0.2c-1.7,0.5-2.6,2.4-3,4.1
					c-0.5,2.6,2.2,9.6,3.1,12.1"/>
			</g>
			<g>
				<path fill="#CCCDA7" d="M366,515.8c-0.3-0.7-2.2-10-2.7-10.5c-0.5-0.5-1.3-0.9-2-0.6c-0.7,0.2-1.1,0.9-1.4,1.5
					c-1.1,2.2-2,4.6-2.5,7"/>
			</g>
			<g>
				<path fill="#D2D39B" d="M348.1,503.5c-0.5-1.8-0.8-3.7-0.9-5.5c-0.1-1.1,0.3-2.6,1.4-2.5c0.8,0.1,1.1,1.1,1.2,1.9
					c0.2,1,0.5,2.1,0.9,3.1c1.2-0.7,2.2-1.8,2.7-3.2c0.2-0.5,0.3-1,0.2-1.5c-0.3-1.3-1.9-1.7-3.2-1.9c0.4-0.8,1.6-1,2.4-0.7
					s1.5,1.1,2,1.9c1.9,2.6,3.5,5.9,2.5,9c-0.1,0.4-0.3,0.7-0.6,0.9s-0.8,0.2-1-0.2"/>
			</g>
			<g>
				<path fill="#D0D69C" d="M363.6,505.3c5.2,0.3,10.4-3.4,11.8-8.5c-2.7-0.3-5.4,0.3-7.7,1.9c-0.6-1-0.7-2.3-0.4-3.4
					c0.1-0.3,0.2-0.7,0.1-1c-0.3-0.8-1.5-0.4-2.1,0.2c-2.9,2.6-4.8,6.4-5.2,10.3"/>
			</g>
			<g>
				<path fill="#D0D69C" d="M358.2,502.8c0.5-1,1.1-2,1.6-3c0.7-1.3,1.5-2.8,1.2-4.3c-0.5-2.8-4.3-4.5-4.1-7.4
					c-1.7,1.4-2.5,3.7-2.2,5.9c0.5,3,3.2,5.8,2.3,8.8"/>
			</g>
			<g>
				<path fill="#CCCDA7" d="M361.7,505.8c-1.4,0.7-3.2-0.1-3.7-1.5c-0.2-0.6-0.2-1.2-0.2-1.9c0-2.4,0-4.7,0.1-7.1
					c0-1.1,0-2.2,0.4-3.2c0.4-1,1.3-1.9,2.4-2c0.2,0.3,0.3,0.7,0.5,1c0.3-1.3,1.1-2.5,2.2-3.3c0,1.1,0.1,2.1,0.1,3.2
					c0.2-1,1.8-1,2.4-0.2c0.6,0.8,0.5,1.9,0.4,2.9c-0.1,1.2-0.3,2.4-0.4,3.6c-0.2,1.7-0.5,3.5-1.4,5c-0.9,1.5-2.8,2.5-4.5,1.9"/>
			</g>
			<g>
				<path fill="#808366" d="M350.1,580c3.4-4.6,4.9-10.5,5.4-16.2s0.1-11.5,0.4-17.3c0.2-3.9,0.6-7.9,1.1-11.8
					c0.3-2.7,0.6-5.6,1.9-8c0.9-1.7,2.3-3.2,2.7-5.1c-1.4-0.5-2.3,1.4-2.8,2.8c-0.4,1.4-2.1,3-3.1,2c-0.3-0.3-0.4-0.6-0.6-0.9
					c-0.9-1.1-2.9-0.3-3.4,1c-0.5,1.3-0.1,2.8,0.3,4.2c4,16-5.8,33-1.6,48.9"/>
			</g>
			<g>
				<path fill="#9CA973" d="M355.2,522c-0.5-1.9,0-3.9,0.6-5.7c0.6-1.8,1.5-3.7,1.5-5.6c0.1-1.9-0.8-4.1-2.6-4.8
					c-2.2,2.9-0.1,7.1-1.2,10.5c-1.9-2.2-4.4-3.8-7.1-4.8c-1.4,3,0.4,7,3.6,8c1.3,0.4,3.1,0.7,3.4,2c0.1,0.5-0.1,1,0.2,1.5
					c0.4,0.8,1.8,0.5,2-0.4c0.2-0.9-0.6-1.7-1.5-1.7"/>
			</g>
			<g>
				<path fill="#9CA973" d="M358.7,521.5c0.7-0.9,1.5-1.9,2.6-2.2c0.5-0.1,1.1-0.1,1.6-0.1c1.6-0.3,2.8-1.8,3.2-3.4
					c0.4-1.6,0.1-3.3-0.2-4.9c-0.2-1-0.3-2-0.5-3c-0.1-0.8-0.6-1.9-1.4-1.7c-0.3,2.1-0.8,4.4-2.6,5.4c-0.9,0.4-1.9,0.5-2.9,0.8
					c-0.9,0.3-1.9,1-1.9,2"/>
			</g>
			<g>
				<path fill="#9AA773" d="M380.6,570c-0.8-1.7-1.6-3.4-2.4-5.1c-0.4-0.9-0.9-1.8-1.7-2.3c-0.8-0.5-2.2-0.2-2.4,0.7
					c-0.2,0.7,0.3,1.6-0.1,2.3c-0.2,0.2-0.4,0.4-0.7,0.5c-0.9,0.4-2,0.2-3,0.1c-1,0-2.2,0.2-2.7,1.1c1.4,1.1,3.6,0.5,5,1.5
					c0.5,0.3,0.9,0.8,1.2,1.3c1.3,1.7,2.5,3.5,3.8,5.2c-0.2-1.3-0.3-2.7,0-3.9c0.3-1.3,1.3-2.5,2.5-2.8"/>
			</g>
			<g>
				<path fill="#D0D69C" d="M377.8,563.7c3.7-4.6,4.4-11.3,1.8-16.5c-0.1-0.3-0.3-0.5-0.5-0.6c-0.6-0.2-1,0.5-1.2,1
					c-1,2.7-1.9,5.5-2.8,8.2c-1.5-4-1.1-8.7-3.2-12.4c-0.2-0.3-0.5-0.7-0.9-0.7c-0.3,0-0.5,0.1-0.7,0.2c-2.4,1.4-2.8,4.5-2.8,7.3
					c0.1,2.8,0.4,5.6,1,8.3c-2-3-5-5.4-8.3-6.9c-0.2-0.1-0.4-0.2-0.6-0.1c-0.3,0.1-0.4,0.5-0.4,0.8c-0.2,2.8,1.5,5.7,4.1,6.9
					c-2.7-0.6-5.4-1.2-8.1-1.8c1.7,2,3.9,3.6,6.3,4.6c-3-0.8-6-1.6-9.1-2.1c-0.1,1.5,0.8,2.9,2,3.8s2.6,1.4,4,1.9
					c3.8,1.2,7.8,2,11.8,2.5"/>
			</g>
			<g>
				<path fill="#CCCDA7" d="M384.3,569c1.3-0.2,2.6-0.8,3.6-1.7c0.3-0.3,0.6-0.6,0.7-1c0.2-0.6,0-1.2-0.1-1.8
					c-0.4-1.4-0.8-2.9-1.7-4.1c-0.9-1.2-2.4-2-3.9-1.7c-1.3,0.3-2.2,1.5-3,2.6c-0.3,0.5-0.7,1-0.7,1.6c0,0.5,0.2,1,0.5,1.5
					c0.4,0.8,0.8,1.6,1.3,2.4c0.4,0.8,0.8,1.6,1.5,2.2c0.7,0.6,1.6,0.9,2.4,0.6"/>
			</g>
			<g>
				<path fill="#9AA773" d="M385.4,580.2c1.9,2.4,5.5,4,7.9,2.2c1.5-1.1,2-3.2,2.8-5c0.7-1.8,2.4-3.6,4.2-3.2
					c0.2,0.1,0.5,0.2,0.6,0.4c0.2,0.3,0,0.8-0.2,1.1c-1.3,1.9-2.8,3.7-4.5,5.2c-1.3,1.1-2.8,2.5-2.6,4.2c0.1,1.2,1.2,2.1,2.3,2.6
					c2.6,1.2,5.6,0.5,8.5,0.3c2.9-0.2,6.3,0.3,7.6,2.8c-4.3-1.5-8.7-2.4-13.2-2.6c-2.2-0.1-4.6-0.1-6.6-1.2c1.5,1.3,3,2.6,4.1,4.3
					c1.1,1.7,1.7,3.7,1.2,5.7c-1.3-3.3-3.1-6.5-5.3-9.2c-0.7-0.8-1.5-1.7-2.5-2c-0.7-0.3-1.5-0.3-2.3-0.5c-1.4-0.4-2.5-1.6-2.9-2.9
					c-0.3-0.9-0.4-2.2-1.3-2.5"/>
			</g>
			<g>
				<path fill="#CCCDA7" d="M398.4,575.3c-0.9-0.7-1.6-1.6-2-2.7c-0.1-0.2-0.2-0.5-0.1-0.7c0.1-0.3,0.4-0.4,0.7-0.5
					c2.5-0.7,5.1-1,7.7-0.8c1.3,0.1,2.7,0.2,3.9,0.8c1.2,0.6,2.2,1.6,2.5,3c0.4,1.9-0.9,3.8-2.5,4.8c-1.7,1-3.7,1.1-5.6,1.2
					c-0.8,0-1.7,0-2.4-0.3c-0.8-0.3-1.5-1-1.5-1.8c-0.1-0.7,0.1-1.7-0.6-1.7"/>
			</g>
			<g>
				<path fill="#CCCDA7" d="M397.6,592.7c2.7,0.6,5.6,1.8,6.7,4.4c0.6,1.5,0.5,3.3-0.3,4.7c-0.8,1.4-2.3,2.4-3.9,2.5
					c-0.3,0-0.6,0-0.9,0.2c-0.3,0.3-0.3,0.8-0.4,1.3c-0.3,1-1.6,1.5-2.6,1.2c-1-0.3-1.9-1-2.6-1.8c-1.5-1.5-3-3.7-2-5.5
					c0.3-0.5,0.6-0.9,0.9-1.3c0.6-1,0.5-2.2,0.8-3.4c0.3-1.1,0.9-2.1,1.9-2.6c1-0.5,2.2-0.6,3.2,0"/>
			</g>
			<g>
				<path fill="#DFE0C2" d="M409,601.8c-1.3-0.3-2.8-0.2-3.9,0.6c-1.1,0.8-1.5,2.5-0.8,3.6c0.1,0.2,0.3,0.4,0.3,0.6
					c0.1,0.4-0.2,0.7-0.4,1.1c-1.1,1.9-0.7,4.7,0.9,6.2c1.7,1.5,4.4,1.7,6.2,0.4c0.4-0.3,0.7-0.6,1.1-0.6c0.4-0.1,0.9,0.2,1.3,0.3
					c1.5,0.3,3-1,3.3-2.5c0.4-1.5-0.1-3.1-0.5-4.5c-0.5-1.5-1.1-3.1-2.2-4.3c-1.1-1.2-2.8-2-4.3-1.6c-0.8,0.2-1.7,0.8-2.5,0.6"/>
			</g>
			<g>
				<path fill="#CCCDA7" d="M403.9,596.4c1.7,0.1,3.7,0.2,4.7,1.7c0.7,1,0.7,2.4,1.2,3.5c0.7,1.6,2.3,2.7,4.1,3
					c1.7,0.2,3.5-0.3,5-1.3c0.8-0.5,1.6-1.6,1.1-2.4c0.7,0.2,1.3,0.4,2,0.6c0.2,0.1,0.4,0.1,0.6,0c0.3-0.1,0.4-0.6,0.3-1
					c-0.5-3.3-2.8-6.2-5.8-7.4c-1.3-0.5-2.9-0.8-4.2-0.1c-0.8,0.4-1.4,1.1-2.3,1.5c-3.2,1.5-7-2.3-10.2-0.8
					c-0.6,0.3-1.4,0.7-1.9,0.3"/>
			</g>
			<g>
				<path fill="#CCCDA7" d="M416.2,592.9c1.7-0.6,3.5-1.2,5.4-1.2c1.9,0,3.8,0.7,4.9,2.2c1.6,2.2,1.1,5.5,2.8,7.5
					c0.3,0.4,0.7,1,0.3,1.3c0.2,0.1,0.5,0.2,0.7,0.3c-2.9,2.3-7.4,2.3-10.3,0c-0.4-0.4-0.9-0.8-1.4-1c-0.6-0.2-1.2-0.2-1.8,0.1"/>
			</g>
			<g>
				<path fill="#C2C68E" d="M426,605.3c1.5,2.4,1.1,5.8-0.9,7.7c-0.4,0.4-0.8,0.7-1.3,0.8c-0.7,0.2-1.5,0.1-2.2,0.1
					c-1.6-0.2-3.2-0.4-4.6-1.1c-1.4-0.7-2.7-1.9-3-3.5c-0.2-1.1,0.1-2.2,0.4-3.3c0.5-1.8,1.1-3.8,2.6-4.9c1.5-1.2,3.6-1.3,5.5-1.3
					c0.4,0,0.9,0,1.3,0.2c0.5,0.3,0.8,0.8,1.1,1.3c0.7,1.3,1.4,2.7,1.5,4.2"/>
			</g>
			<g>
				<path fill="#D0D69C" d="M420.4,592.1c1.5-0.7,2.7-1.8,4.1-2.8c4.3-2.9,10.5-3,14.4,0.5c1.5,1.3,2.8,3.2,4.8,3.2
					c-0.9,0.2-1.8,0.4-2.5,0.9c-0.7,0.5-1.3,1.4-1.2,2.3c0,0.3,0.2,0.7,0.1,1c-0.1,0.4-0.4,0.7-0.7,0.9c-2.6,2-5.8,3.4-9.1,3.8
					c-1.6,0.2-3.2,0.2-4.6-0.4c-2.7-1.1-4.1-4-4.7-6.8c-0.3-1.2-0.8-2.7-1.9-2.7"/>
			</g>
			<g>
				<path fill="#D0D69C" d="M411.5,593.6c-1.4,0-2.7-0.8-3.3-2s-0.5-2.7,0.3-3.9c1.5-2,4.4-2.2,6.9-1.7c1.8,0.4,3.7,1,4.9,2.4
					c1.2,1.4,1.6,3.7,0.3,5"/>
			</g>
			<g>
				<path fill="#DFE0C2" d="M413.5,586c-0.6-1.9-1-3.9-1-5.9c0-0.5,0-1.1,0.3-1.5c0.3-0.4,0.9-0.7,1.3-0.4c0.5,0.3,0.7,1.2,1.3,1.2
					c0.3,0,0.5-0.4,0.7-0.6c0.6-1.1,1.2-2.2,1.8-3.3c0.4,0.5,1.1,1,1.7,0.7c0.3-0.2,0.4-0.6,0.6-0.9c0.5-0.8,1.6-0.9,2.4-0.6
					c0.8,0.4,1.4,1.1,1.8,1.9c0.7,1.2,1.2,2.4,1.4,3.7c0.3,1.6,0.3,3.4-0.6,4.8c-0.5,0.7-1.3,1.3-2.1,1.7c-3.2,2-6.8,4.1-10.6,3.9"
					/>
			</g>
			<g>
				<path fill="#CCCDA7" d="M401.2,571.3c-0.1-1.5,0-3,0.3-4.5c0.1-0.8,0.3-1.5,0.8-2.1c1.1-1.3,3.2-1.1,4.7-0.3
					c1.3,0.7,2.5,1.8,3.3,3c0.2,0.3,0.4,0.6,0.7,0.8c0.4,0.2,0.8,0,1.2-0.1c1.4-0.4,2.8-0.8,4.2-0.5c1.4,0.4,2.6,1.9,2.1,3.2
					c-0.3,0.7-0.9,1.4-0.6,2.1c0.2,0.4,0.7,0.6,0.9,1c0.1,0.4-0.1,0.8-0.4,1.1c-0.9,1.1-2.2,1.9-3.6,2.3c-0.9,0.3-2,0.4-2.4,1.3
					c-0.2,0.5-0.1,1-0.2,1.5c-0.2,1.7-2,2.7-3.7,2.8s-3.3-0.6-4.8-1.2c-1.6-0.6-3.3-1.1-4.9-0.6c-1.4,0.4-2.5,1.4-3.8,1.8
					c-1.5,0.5-3.1,0.4-4.7,0.3"/>
			</g>
			<g>
				<path fill="#9AA773" d="M354.4,583.2c-1.7-0.4-3.4,1.1-3.6,2.8c-0.2,1.7,0.7,3.4,2.1,4.4c1.3,1.1,3,1.6,4.6,2.1
					c3.5,1,7.2,1.8,10.8,1.4c4.9-0.5,9.3-2.9,13.9-4.4c4.7-1.5,10.2-1.9,14,1.2c-2.1-4.3-7.9-5.4-12.6-4.3
					c-4.7,1.1-8.9,3.7-13.5,4.9c-4.7,1.1-10.5,0.2-12.8-4c-0.9-1.6-1.5-3.9-3.3-4"/>
			</g>
			<g>
				<path fill="#9AA773" d="M342.5,587.6c-1.6,0.9-3.5,0.7-5.2,0.1c-1.7-0.6-3.1-1.7-4.5-2.8c-1.6-1.2-3.1-2.3-4.7-3.5
					c-3.1-2.3-6.5-5.1-7.1-8.9c-1.4,2.8-0.3,6.3,1.9,8.5s5,3.5,7.9,4.8c1.9,0.8,3.7,1.6,5.6,2.4c1,0.4,2,0.9,3.1,0.9
					c1.1,0.1,2.2-0.3,2.8-1.2"/>
			</g>
			<g>
				<path fill="#CCCDA7" d="M325,575.7c-1.7-0.9-3.4-2-5.4-2.3c-1.9-0.2-4.3,0.8-4.5,2.8c-0.1,0.5,0,1,0,1.5
					c0.2,1.6,0.4,3.2,0.6,4.7c0.1,0.9,0.2,1.9,0.6,2.7c0.7,1.8,2.5,3,4.4,3.2c0.5,0,1,0,1.4,0.3c0.5,0.3,0.8,1.1,1.4,1.1
					c0.3,0,0.5-0.2,0.7-0.3c2.2-1.7,3.7-4.1,5.2-6.5c0.4-0.6,0.8-1.3,0.8-2c0-0.9-0.5-1.7-1.1-2.4c-1.8-2.1-4.3-3.5-7-4.1"/>
			</g>
			<g>
				<path fill="#CCCDA7" d="M333.1,576.5c-2.2-0.7-4-2.3-5.8-3.8c-0.6-0.5-1.3-1.1-1.5-1.8c-0.2-0.6-0.2-1.3-0.1-2
					c0.3-2.9,0.7-6,2.9-7.9c1.4-1.2,3.2-1.7,4.9-2.1c0.2-0.1,0.5-0.1,0.7-0.1c0.6,0.2,0.7,1,0.6,1.6c-0.2,0.6-0.4,1.3-0.1,1.8
					c0.5,0.9,1.9,0.5,2.8,0.1c1.8-0.9,3.5-1.9,5.3-2.8c0,2.2-0.6,4.5-1.7,6.4c-0.3,0.5-0.7,1.2-0.4,1.7c0.1,0.3,0.4,0.5,0.7,0.7
					c1,0.6,2.1,1,3.2,1.3c0.1,0.8-0.8,1.4-1.5,1.8s-1.5,1.2-1.1,2c0.3,0.6,1.2,0.9,1.1,1.5c0,0.3-0.3,0.5-0.5,0.7
					c-2.9,2.1-7.1,2.2-10.1,0.4"/>
			</g>
			<g>
				<path fill="#D8D895" d="M337.8,565.5c-0.3,0-0.6,0-0.9-0.1c-0.2,0-0.5-0.2-0.6-0.5c-0.2-1.6-0.7-2.5-1.4-2.9
					c-0.7,0.2-1.5,0.3-1.9-0.2c-2.7,0.6-6.1,4.3-7,6.6c-0.8,2.1,0.2,3.4,1.8,4.7c1.7,1.5,2.6,2.1,5,1.2c0.5-0.2,1.1,0.4,0.9,0.8
					c0.9-0.4,1.7-1,2.4-1.7l-1.6-1.5c-0.2-0.2-0.2-0.5-0.1-0.7C335.5,569.3,337.1,567.7,337.8,565.5z"/>
			</g>
			<g>
				<path fill="#D0D69C" d="M404.3,597.1c-0.4-1-1.1-1.8-1.9-2.4c-0.1,1.6-0.6,3.2-1.6,4.5c-1.1,1.5-3.4,3.2-5.4,2.6
					c-1.4-0.4-1.6-2-1.9-3.2c-0.1-0.6-0.3-1.1-0.5-1.6c-0.1,0.5-0.2,0.9-0.5,1.4c-0.3,0.5-0.7,0.9-0.9,1.3c-1,1.9,0.5,4,2,5.5
					c0.8,0.8,1.6,1.5,2.6,1.8c1,0.3,2.3-0.2,2.6-1.2c0.1-0.4,0.1-1,0.4-1.3c0.2-0.2,0.6-0.2,0.9-0.2c1.6-0.2,3.1-1.1,3.9-2.5
					C404.9,600.4,405,598.6,404.3,597.1z"/>
			</g>
			<g>
				<path fill="#D0D69C" d="M403.3,595.9c1.7,0.1,3.7,0.2,4.7,1.7c0.7,1,0.7,2.4,1.2,3.5c0.7,1.6,2.3,2.7,4.1,3
					c1.7,0.2,3.5-0.3,5-1.3c0.8-0.5,1.6-1.6,1.1-2.4c0.7,0.2,1.3,0.4,2,0.6c0.2,0.1,0.4,0.1,0.6,0c0.3-0.1,0.4-0.6,0.3-1
					c-0.5-3.3-2.8-6.2-5.8-7.4c-1.3-0.5-2.9-0.8-4.2-0.1c-0.8,0.4-1.4,1.1-2.3,1.5c-3.2,1.5-7-2.3-10.2-0.8
					c-0.6,0.3-1.4,0.7-1.9,0.3"/>
			</g>
			<g>
				<path fill="#CCCDA7" d="M384.8,572.9c-1.2-1.7-4.1-1.7-5.6-0.2c-1.5,1.5-1.7,4-0.7,5.9c1,1.9,3,3.1,5,3.5c0.7,0.1,1.4,0.2,2.1,0
					c1.6-0.5,2.4-2.2,3-3.7c0.3-0.8,0.6-1.6,1-2.4c0.1-0.3,0.3-0.6,0.2-1c0-0.4-0.3-0.7-0.5-1c-2.1-2.5-5.5-3.7-8.7-3"/>
			</g>
		</g>
		<g opacity="0.34">
			<g>
				<path fill="#786E71" d="M335.9,616.7c3.2,0,3.2-5,0-5C332.7,611.7,332.7,616.7,335.9,616.7L335.9,616.7z"/>
			</g>
		</g>
		<g>
			<g>
				<path fill="#786E71" d="M335.6,618.3c1.2-1.3,2-2.6,2.6-4.3c1.1-3.1,2.1-4.7,4.8-6.6c1.3-0.9,2.5-1.8,3.3-3.1
					c1.1-1.8,1.5-9.3,5.7-6.6c0-1.4,0-2.9,0-4.3c-2.7,1.5-8,3.2-7.1,7.3c0.5,2,2,1.9-0.3,2.9c-1.9,0.9-3.7,0.6-5.4,2
					c-1.3,1.1-1.8,2.6-2.6,4c-1.1,1.9-2.9,3.2-3.9,5.1c-2.4,4.6-3.4,9.7-6.2,14.3c-1.7,2.8,2.6,5.3,4.3,2.5
					c2.5-4.1,3.9-8.2,5.7-12.6c0.9-2.1,2.3-3.4,3.5-5.3c1.2-1.7,1.5-3.9,3.5-4.9c2.7-1.3,6.2-0.5,7.5-4.2c0.4-1.1,0.3-2.3-0.1-3.3
					c-0.2-0.3-0.3-0.6-0.5-0.9c-0.9-0.7-0.9-1,0.1-0.9c0.2-0.3,3.6-1.7,3.9-1.8c1.7-1,1.5-3.3,0-4.3c-5.3-3.4-10.6-0.6-12.1,5.2
					c-0.6,2.3-0.5,3.3-2.4,4.9c-1.1,0.9-2.4,1.4-3.3,2.4c-2.5,2.6-2.3,6.5-4.6,9C329.8,617.1,333.4,620.6,335.6,618.3L335.6,618.3z"
					/>
			</g>
		</g>
		<g opacity="0.13">
			<g>
				<path fill="#A4A280" d="M113.9,421c-0.8-2.6-1.7-5.2-1.7-7.9c0-2.2,0.7-4.3,0.9-6.5c0.3-2.9-0.1-5.7-0.5-8.6
					c-0.1-0.8-1.3-0.5-1.2,0.3c0.7,4.7-0.1,8.5-0.4,13.1c-0.3,3.4,0.7,6.7,1.7,9.9C113,422.1,114.2,421.8,113.9,421L113.9,421z"/>
			</g>
		</g>
		<g opacity="0.13">
			<g>
				<path fill="#A4A280" d="M134.8,429.6c-1.8-10.7-3.7-20.5-7.7-30.6c-0.3-0.7-1.5-0.4-1.2,0.3c4,10.1,6,20,7.7,30.6
					C133.7,430.7,134.9,430.4,134.8,429.6L134.8,429.6z"/>
			</g>
		</g>
		<g opacity="0.13">
			<g>
				<path fill="#A4A280" d="M151.1,435.8c-2.1-7-4.5-14.8-2.4-22c1.6-5.3,0.2-9.6-2-14.6c-0.3-0.7-1.4-0.1-1.1,0.6
					c1.8,4.2,3.5,8.4,2.1,13c-0.7,2.2-1.4,3.7-1.3,6.1c0.2,5.7,1.8,11.7,3.4,17.2C150.1,436.9,151.3,436.6,151.1,435.8L151.1,435.8z
					"/>
			</g>
		</g>
		<g opacity="0.13">
			<g>
				<path fill="#A4A280" d="M162.8,441.6c0.1-6.7,0.3-13.3,0.4-20c0.1-5.6,0.3-11.1-1.5-16.5c-0.2-0.8-1.5-0.4-1.2,0.3
					c1.9,5.9,1.5,12,1.4,18.2c-0.1,6-0.3,12-0.4,18C161.6,442.4,162.8,442.4,162.8,441.6L162.8,441.6z"/>
			</g>
		</g>
		<g opacity="0.13">
			<g>
				<path fill="#A4A280" d="M177.9,453.2c-2.7-7.5-4-15.4-3.4-23.4c0.3-3.6,1.3-7.1,1.5-10.8c0.2-3.3-0.8-6.2-2-9.3
					c-0.3-0.7-1.5-0.4-1.2,0.3c1.8,4.7,2,8.3,1.3,13.3c-0.5,3.3-0.9,6.5-0.9,9.9c0,6.9,1.3,13.7,3.6,20.2
					C177,454.3,178.2,454,177.9,453.2L177.9,453.2z"/>
			</g>
		</g>
		<g opacity="0.13">
			<g>
				<path fill="#A4A280" d="M192,463.8c-2.5-4.2-1.4-11.4-1.4-16c0-4.7,0-9.4,0.2-14c0.3-5.8,2.1-13.5-4-16.9
					c-0.7-0.4-1.3,0.7-0.6,1.1c5.4,3,3.7,9.9,3.5,14.9c-0.2,4-0.3,8.1-0.3,12.2c0,4.1,0.1,8.1,0.2,12.2c0.1,2.7,0,5,1.4,7.3
					C191.3,465.1,192.4,464.5,192,463.8L192,463.8z"/>
			</g>
		</g>
		<g opacity="0.13">
			<g>
				<path fill="#A4A280" d="M206.3,473.3c0.7-8.4,0.6-16.9-0.6-25.2c-1.2-8.3-6.1-14.8-5-23.5c0.1-0.8-1.1-0.8-1.2,0
					c-0.5,3.7-0.3,7.3,0.8,10.9c1.1,3.6,3.1,6.7,3.8,10.4c1.8,8.9,1.8,18.4,1,27.4C204.9,474.1,206.2,474.1,206.3,473.3L206.3,473.3
					z"/>
			</g>
		</g>
		<g opacity="0.13">
			<g>
				<path fill="#A4A280" d="M222.1,483.1c-1.8-7.4-3.6-14.7-3.8-22.4c-0.2-7.3,0.1-14.5-0.6-21.8c-0.1-0.8-1.3-0.8-1.2,0
					c0.8,7.9,0.2,15.7,0.7,23.6c0.4,7.1,2.1,14,3.8,20.9C221.1,484.2,222.3,483.8,222.1,483.1L222.1,483.1z"/>
			</g>
		</g>
		<g opacity="0.13">
			<g>
				<path fill="#A4A280" d="M236,492c-1.8-7.8-2.5-15.1-2.5-23.1c0-5.2-1.7-8.7-5.2-12.4c-0.6-0.6-1.4,0.3-0.9,0.9
					c2.8,2.9,4.6,5.8,4.8,9.9c0.2,2.7-0.2,5.5-0.2,8.2c0.1,5.7,1.4,11.3,2.7,16.8C235,493.1,236.2,492.8,236,492L236,492z"/>
			</g>
		</g>
		<g opacity="0.13">
			<g>
				<path fill="#A4A280" d="M256.6,504.5c-5.6-6.2-6.4-14.3-8.6-22c-2.1-7.3-5.9-13.7-10.4-19.7c-0.5-0.6-1.6,0-1.1,0.6
					c5.5,7.4,9.2,15,11.4,23.9c1.6,6.5,3.2,12.9,7.8,18C256.3,506,257.2,505.1,256.6,504.5L256.6,504.5z"/>
			</g>
		</g>
	</g>
	<g opacity="0.13">
		<g>
			<path fill="#A4A280" d="M400.2,648.8c10.7-0.1,22.5,2.7,31.5,8.7c6.8,4.5,12.6,10.7,21,12c0.6,0.1,0.9-0.9,0.3-1
				c-9.9-1.5-16.3-9.9-24.9-14.3c-8.5-4.3-18.4-6.6-27.9-6.4C399.6,647.8,399.6,648.8,400.2,648.8L400.2,648.8z"/>
		</g>
	</g>
	<g opacity="0.13">
		<g>
			<path fill="#A4A280" d="M410.9,666c0.6,0,0.6-1,0-1C410.3,665,410.3,666,410.9,666L410.9,666z"/>
		</g>
	</g>
	<g opacity="0.13">
		<g>
			<path fill="#A4A280" d="M410.8,666.1c10.8,1.8,21.4,4.9,31.8,8.4c9.9,3.3,21.3,6.1,28.7,13.8c0.4,0.5,1.2-0.2,0.7-0.7
				c-6.8-7.1-16.6-9.8-25.6-12.9c-11.6-4-23.2-7.6-35.3-9.7C410.4,665.1,410.1,666,410.8,666.1L410.8,666.1z"/>
		</g>
	</g>
	<g opacity="0.13">
		<g>
			<path fill="#A4A280" d="M430.2,687.6c11.1,1.1,22.4,2.2,33,5.8c5.3,1.8,10.4,4.3,15,7.6c4,2.8,7.4,5.8,12.3,6.6
				c0.6,0.1,0.9-0.9,0.3-1c-5.9-1-9.9-5.2-14.8-8.3c-4.4-2.7-9.2-4.8-14.1-6.4c-10.3-3.2-21-4.3-31.7-5.4
				C429.6,686.5,429.6,687.5,430.2,687.6L430.2,687.6z"/>
		</g>
	</g>
	<g opacity="0.13">
		<g>
			<path fill="#A4A280" d="M445,705.5c10.8,1,21.4,3.7,31.9,6.5c10.3,2.8,19.5,7,26.9,15c0.4,0.5,1.1-0.2,0.7-0.7
				c-7-7.7-15.7-12-25.6-14.8c-11-3.1-22.4-5.9-33.8-7C444.4,704.5,444.4,705.5,445,705.5L445,705.5z"/>
		</g>
	</g>
	<g opacity="0.13">
		<g>
			<path fill="#A4A280" d="M455.1,722.7c0.6,0,0.6-1,0-1C454.4,721.7,454.4,722.7,455.1,722.7L455.1,722.7z"/>
		</g>
	</g>
	<g opacity="0.13">
		<g>
			<path fill="#A4A280" d="M454.9,722.8c10.6,2.6,20.8,6.1,30.9,10.2c5.4,2.2,10.8,4.6,16.2,7c4.9,2.2,9.9,4.3,12.8,9
				c0.3,0.5,1.2,0,0.9-0.5c-5-8-16.9-11.1-25.2-14.6c-11.5-4.8-23.2-9.1-35.3-12C454.6,721.7,454.3,722.7,454.9,722.8L454.9,722.8z"
				/>
		</g>
	</g>
	<g opacity="0.13">
		<g>
			<path fill="#A4A280" d="M472.3,747.3c9.7-0.4,19.5,0.6,28.8,3.4c4.6,1.4,9.2,3.2,12.6,6.6c2.6,2.6,4.4,5.6,7.6,7.4
				c0.6,0.3,1.1-0.5,0.5-0.9c-4-2.4-6.1-6.7-9.9-9.4c-3.1-2.3-6.9-3.6-10.6-4.7c-9.4-2.8-19.3-3.8-29.1-3.5
				C471.6,746.3,471.6,747.3,472.3,747.3L472.3,747.3z"/>
		</g>
	</g>
	<g opacity="0.13">
		<g>
			<path fill="#A4A280" d="M478.8,764.3c8.3,0.6,16.5,2.4,24.3,5.5c7.2,2.9,18.4,7.6,22,14.7c0.3,0.6,1.2,0.1,0.9-0.5
				c-3.7-7.2-13.9-11.5-21-14.5c-8.4-3.5-17.2-5.6-26.2-6.2C478.1,763.3,478.1,764.3,478.8,764.3L478.8,764.3z"/>
		</g>
	</g>
	<g opacity="0.13">
		<g>
			<path fill="#A4A280" d="M484.9,783.6c8.5,3.1,17.1,6,25.8,8.5c9.2,2.7,16.7,5.7,21.5,14.6c0.3,0.6,1.2,0.1,0.9-0.5
				c-3.7-7-9.5-11.3-16.9-13.6c-10.4-3.2-20.7-6.2-30.9-10C484.5,782.4,484.3,783.4,484.9,783.6L484.9,783.6z"/>
		</g>
	</g>
	<g opacity="0.13">
		<g>
			<path fill="#A4A280" d="M492.6,803.9c4.3,2,8.6,3.4,13.2,4.5c6.8,1.7,11,4.9,15.4,10.2c5.2,6.3,10.3,12.9,18.5,15.2
				c0.6,0.2,0.9-0.8,0.3-1c-9.8-2.6-14.7-11.6-21.2-18.5c-6.8-7.2-17-7.3-25.7-11.3C492.6,802.7,492,803.6,492.6,803.9L492.6,803.9z
				"/>
		</g>
	</g>
	<g opacity="0.13">
		<g>
			<path fill="#A4A280" d="M502.3,828c9.2,0.2,14.4,8,21.5,12.5c7.8,4.9,15.1,8,17,18c0.1,0.6,1.1,0.4,1-0.3
				c-1.8-9.5-8.3-13.3-16.1-17.8c-7.9-4.6-13.6-13.3-23.5-13.5C501.7,827,501.7,828,502.3,828L502.3,828z"/>
		</g>
	</g>
	<g opacity="0.13">
		<g>
			<path fill="#A4A280" d="M512.9,854.4c9.6,7.1,25.9,10.9,26,25.4c0,0.6,1,0.6,1,0c-0.1-15-16.6-18.9-26.5-26.2
				C512.9,853.1,512.4,854,512.9,854.4L512.9,854.4z"/>
		</g>
	</g>
	<g opacity="0.13">
		<g>
			<path fill="#A4A280" d="M519.5,877.5c5.5,2.3,11.8,5.5,15.4,10.4c1.8,2.4,2.5,5,3,7.9c0.3,1.8,0.6,3.6,0.8,5.4
				c0.1,0.9,0.2,1.8,0.2,2.8c0.2,1-0.1,1.9-0.9,2.7c-0.3-0.6-1.1-0.1-0.9,0.5c0.6,1.3,0.4,1,1.6,1.8c0.2,0.2,0.7,0,0.7-0.3
				c1-6.3,0.5-15.4-3.2-20.8c-3.7-5.4-10.6-8.9-16.5-11.4C519.2,876.3,518.9,877.3,519.5,877.5L519.5,877.5z"/>
		</g>
	</g>
	<g opacity="0.13">
		<g>
			<path fill="#A4A280" d="M526.8,902.1c3.5,4.2,4.9,9.3,4.3,14.7c-0.1,0.6,0.9,0.6,1,0c0.7-5.6-1-11-4.6-15.4
				C527.1,900.9,526.4,901.6,526.8,902.1L526.8,902.1z"/>
		</g>
	</g>
	<g opacity="0.13">
		<g>
			<path fill="#A4A280" d="M427.4,690.3c1.4,11.4,2.5,23.7-5.1,33.3c-0.4,0.5,0.3,1.2,0.7,0.7c7.8-9.8,6.8-22.2,5.4-34
				C428.4,689.7,427.4,689.7,427.4,690.3L427.4,690.3z"/>
		</g>
	</g>
	<g opacity="0.13">
		<g>
			<path fill="#A4A280" d="M440.5,708.6c-1.1,10.9-1.2,22.5-4.8,32.9c-0.2,0.6,0.7,0.9,1,0.3c3.7-10.4,3.8-22.2,4.9-33.2
				C441.6,707.9,440.6,707.9,440.5,708.6L440.5,708.6z"/>
		</g>
	</g>
	<g opacity="0.13">
		<g>
			<path fill="#A4A280" d="M452,725.7c-0.5,6.5-1,13.1-1.5,19.6c-0.4,5.7,0.8,17.1-4.8,20.4c-0.6,0.3-0.1,1.2,0.5,0.9
				c4.7-2.7,4.4-8.6,4.7-13.4c0.7-9.1,1.4-18.3,2-27.4C453,725,452,725,452,725.7L452,725.7z"/>
		</g>
	</g>
	<g opacity="0.13">
		<g>
			<path fill="#A4A280" d="M467.4,749.3c-4.3,6.5-6.5,12.6-6.6,20.4c-0.2,9.8-2.2,18.5-7.7,26.8c-0.4,0.5,0.5,1,0.9,0.5
				c4-6.2,6.7-12.9,7.5-20.3c0.5-4.3,0.1-8.7,0.8-13c0.8-5.1,3.2-9.6,6.1-13.8C468.6,749.2,467.7,748.7,467.4,749.3L467.4,749.3z"/>
		</g>
	</g>
	<g opacity="0.13">
		<g>
			<path fill="#A4A280" d="M473.3,767.7c-3.2,4.7-2.5,10-2.6,15.5c-0.1,4.5-0.8,8.9-1.8,13.2c-0.9,4.1-1.6,11.2-6.3,12.7
				c-0.6,0.2-0.3,1.2,0.3,1c5.8-1.9,6.3-10.3,7.4-15.3c0.9-4.3,1.4-8.6,1.4-13c0-4.8-0.3-9.4,2.5-13.5
				C474.5,767.7,473.7,767.2,473.3,767.7L473.3,767.7z"/>
		</g>
	</g>
	<g opacity="0.13">
		<g>
			<path fill="#A4A280" d="M485.6,785c-3.2,6.1-5.1,12.7-6.7,19.4c-0.9,3.5-1.7,6.9-2.7,10.4c-0.8,2.6-3.1,12.4-6,12.5
				c-0.6,0-0.6,1,0,1c4.3-0.2,6.8-12.5,7.6-15.6c2.5-9.2,4.2-18.6,8.7-27.2C486.8,784.9,485.9,784.4,485.6,785L485.6,785z"/>
		</g>
	</g>
	<g opacity="0.13">
		<g>
			<path fill="#A4A280" d="M492.6,805c0.6,0,0.6-1,0-1C492,804,492,805,492.6,805L492.6,805z"/>
		</g>
	</g>
	<g opacity="0.13">
		<g>
			<path fill="#A4A280" d="M492.2,804.3c-4,7.2-7.7,14.4-8.8,22.7c-0.7,5.6-1.8,9.4-4.5,14.2c-1.8,3.2,0.7,6.9-1.1,9.8
				c-0.3,0.5,0.5,1,0.9,0.5c2-3.1-0.1-6.8,1.6-10.4c1.7-3.6,3.1-5.9,3.7-10c1.4-9.7,4.4-17.5,9.1-26.1
				C493.4,804.2,492.6,803.7,492.2,804.3L492.2,804.3z"/>
		</g>
	</g>
	<g opacity="0.13">
		<g>
			<path fill="#A4A280" d="M507.1,829.2c-2.4-1.6-4.2-0.2-5.4,2.1c-2.1,4.1-1.8,8-1,12.3c1.4,8.5-1.7,13.9-6.7,20.3
				c-2.4,3.1-4.2,6-4.6,10c-0.1,0.6,0.9,0.6,1,0c0.7-7.7,8.2-12,10.7-19c1.1-3.1,1.2-6.5,0.8-9.8c-0.3-2.1-1-4.1-1-6.2
				c0-1.4,1.6-11.6,5.7-8.8C507.2,830.4,507.7,829.5,507.1,829.2L507.1,829.2z"/>
		</g>
	</g>
	<g opacity="0.13">
		<g>
			<path fill="#A4A280" d="M510,854.3c1,6.7,0,12.7-2.3,19c-2.1,5.7-3.8,13.3-7.9,17.7c-2.6,2.8-6.1,3.8-7.7,7.5
				c-1.7,3.9-1.7,9.1-2,13.3c0,0.6,1,0.6,1,0c0.3-3.3,0.4-6.9,1.2-10.1c1-4.2,3.3-5.8,6.6-8.2c3-2.2,4.3-5.5,5.6-8.9
				c3.8-10.1,8.2-19.5,6.5-30.5C510.9,853.4,509.9,853.7,510,854.3L510,854.3z"/>
		</g>
	</g>
	<g opacity="0.13">
		<g>
			<path fill="#A4A280" d="M518.5,877.7c-6.2,10.4-4.7,22.7-6.1,34.2c-1,8.3-4.1,14.2-9.7,20.4c-4,4.4-6.8,9.2-8.1,15.1
				c-0.1,0.6,0.8,0.9,1,0.3c1.8-8.1,6.7-12.6,11.6-18.8c3.2-4,4.9-8.8,5.8-13.8c2.1-12.3-0.2-25.5,6.4-36.7
				C519.7,877.7,518.8,877.1,518.5,877.7L518.5,877.7z"/>
		</g>
	</g>
	<g opacity="0.13">
		<g>
			<path fill="#A4A280" d="M524.6,903.5c0.6,0,0.6-1,0-1C524,902.5,524,903.5,524.6,903.5L524.6,903.5z"/>
		</g>
	</g>
	<g opacity="0.13">
		<g>
			<path fill="#A4A280" d="M522.6,904.8c-2.4,5.7-2.8,11.7-3.7,17.8c-1,6.7-2.5,13.3-4.7,19.7c-2.2,6.4-5,12.5-8.4,18.4
				c-3.6,6.1-8.6,16.2-16.5,16.8c-0.6,0-0.6,1,0,1c5.5-0.4,8.8-4.5,11.9-8.7c4.6-6.4,8.5-13.4,11.5-20.7c2.9-6.8,5-13.9,6.4-21.2
				c1.4-7.6,1.5-15.5,4.5-22.7C523.8,904.5,522.9,904.2,522.6,904.8L522.6,904.8z"/>
		</g>
	</g>
</g>
</svg>
