<?xml version="1.0" encoding="utf-8"?>
<!-- Generator: Adobe Illustrator 18.0.0, SVG Export Plug-In . SVG Version: 6.00 Build 0)  -->
<!DOCTYPE svg PUBLIC "-//W3C//DTD SVG 1.1//EN" "http://www.w3.org/Graphics/SVG/1.1/DTD/svg11.dtd">
<svg version="1.1" id="Capa_1" xmlns="http://www.w3.org/2000/svg" xmlns:xlink="http://www.w3.org/1999/xlink" x="0px" y="0px"
	 viewBox="0 0 750 1334" enable-background="new 0 0 750 1334" xml:space="preserve">
<g>
	<polygon fill="#FFFFFF" points="1865,1415 -163,1415 -163,1408 1858,1408 1858,-468 2104.5,-468 2104.5,-461 1865,-461 	"/>
</g>
<g>
	<path fill="#FFFFFF" d="M114.2,1095.6h25.1c15.3,0,22.9,8.4,22.9,25.1v18c0,12.3-5.5,20.3-16.5,23.9c-2.6,0.9-6.5,1.3-11.5,1.3
		h-2.8v51.2h-17.2V1095.6z M131.4,1112.6v34.2h4c2.4,0,4-0.2,4.9-0.5c3.1-1.3,4.7-3.8,4.7-7.6v-18c0-5.4-2.5-8.2-7.5-8.2H131.4z"/>
	<path fill="#FFFFFF" d="M214.7,1172.7l5.6,42.4h-17.4l-3.3-25.3h-17.6l-3.4,25.3h-17.3l5.6-42.2l12.2-77.2h23.6L214.7,1172.7z
		 M197.3,1172.7l-6.6-49.7l-6.6,49.7H197.3z"/>
	<path fill="#FFFFFF" d="M227.5,1215v-119.4h17.2v102.4h27.5v17H227.5z"/>
	<path fill="#FFFFFF" d="M327.7,1191.9c0,16.7-8.3,25.1-24.8,25.1c-16.5,0-24.7-8.4-24.7-25.1v-73c0-16.7,8.2-25.1,24.7-25.1
		c16.5,0,24.8,8.4,24.8,25.1V1191.9z M310.4,1118.8c0-5.4-2.5-8.1-7.5-8.1h-0.1c-5,0-7.4,2.7-7.4,8.1v73c0,5.4,2.5,8.1,7.5,8.1
		c5,0,7.5-2.7,7.5-8.1V1118.8z"/>
	<path fill="#FFFFFF" d="M367,1095.6h26.5c15.3,0,22.9,8.4,22.9,25.1v18c0,7.8-3.1,13.4-9.4,16.6c6.3,3.2,9.4,8.8,9.4,16.6v18
		c0,16.7-8,25-24,25.1H367V1095.6z M384.2,1112.6v34.2h5.4c2.4,0,4-0.2,4.9-0.5c3.1-1.3,4.7-3.8,4.7-7.6v-18c0-5.4-2.5-8.2-7.5-8.2
		H384.2z M384.2,1163.9v34.2h7.5c5,0,7.5-2.7,7.5-8.1v-18c0-3.8-1.6-6.3-4.7-7.5c-0.9-0.4-2.5-0.5-4.9-0.5H384.2z"/>
	<path fill="#FFFFFF" d="M427.3,1215v-119.4h17.2v102.4H472v17H427.3z"/>
	<path fill="#FFFFFF" d="M527.3,1172.7l5.6,42.4h-17.4l-3.3-25.3h-17.6l-3.4,25.3h-17.3l5.6-42.2l12.2-77.2h23.6L527.3,1172.7z
		 M509.9,1172.7l-6.6-49.7l-6.6,49.7H509.9z"/>
	<path fill="#FFFFFF" d="M540.1,1095.6h17.2l16.3,69.3v-69.3h15.9V1215h-17.2l-15.7-67.1v67.1h-16.6V1095.6z"/>
	<path fill="#FFFFFF" d="M650.6,1191.9c0,16.7-8.3,25.1-24.8,25.1c-16.5,0-24.7-8.4-24.7-25.1v-73c0-16.7,8.2-25.1,24.7-25.1
		c16.5,0,24.8,8.4,24.8,25.1v16.1h-17.2v-16.1c0-5.4-2.5-8.1-7.5-8.1h-0.1c-5,0-7.4,2.7-7.4,8.1v73c0,5.4,2.5,8.1,7.5,8.1
		c5,0,7.5-2.7,7.5-8.1v-16.1h17.2V1191.9z"/>
	<path fill="#FFFFFF" d="M709.7,1191.9c0,16.7-8.3,25.1-24.8,25.1c-16.5,0-24.7-8.4-24.7-25.1v-73c0-16.7,8.2-25.1,24.7-25.1
		c16.5,0,24.8,8.4,24.8,25.1V1191.9z M692.5,1118.8c0-5.4-2.5-8.1-7.5-8.1h-0.1c-5,0-7.4,2.7-7.4,8.1v73c0,5.4,2.5,8.1,7.5,8.1
		c5,0,7.5-2.7,7.5-8.1V1118.8z"/>
</g>
<g>
	<path fill="#864141" d="M264.5,1272.4c-0.1,0.2-0.2,0.3-0.4,0.4s-0.3,0.2-0.5,0.3s-0.5,0.1-0.8,0.1s-0.7,0-1.2,0
		c-0.5,0-0.9,0-1.2,0s-0.6-0.1-0.8-0.1s-0.3-0.2-0.4-0.3s-0.1-0.3-0.2-0.4l-4.3-28.4c0-0.3-0.1-0.5-0.1-0.7s0.1-0.3,0.2-0.4
		s0.3-0.2,0.6-0.2s0.7,0,1.1,0c0.5,0,0.8,0,1.1,0s0.5,0.1,0.6,0.1s0.3,0.1,0.3,0.3s0.1,0.2,0.1,0.4l3.5,25.5h0l13.5-25.5
		c0.1-0.2,0.2-0.3,0.3-0.4s0.2-0.2,0.4-0.2s0.4-0.1,0.7-0.1s0.7,0,1.1,0c0.5,0,0.9,0,1.1,0.1s0.5,0.1,0.6,0.2s0.1,0.3,0.1,0.5
		s-0.2,0.5-0.4,0.8L264.5,1272.4z"/>
	<path fill="#864141" d="M285.9,1272.6c0,0.1-0.1,0.2-0.2,0.3s-0.2,0.2-0.4,0.2s-0.4,0.1-0.7,0.1s-0.6,0.1-1,0.1c-0.4,0-0.7,0-1-0.1
		s-0.4-0.1-0.6-0.1s-0.2-0.1-0.3-0.2s-0.1-0.2,0-0.3l5.8-29.2c0-0.1,0.1-0.2,0.2-0.3s0.2-0.2,0.4-0.2s0.4-0.1,0.6-0.1
		s0.6-0.1,0.9-0.1s0.7,0,0.9,0.1s0.4,0.1,0.6,0.1s0.2,0.1,0.3,0.2s0.1,0.2,0,0.3L285.9,1272.6z"/>
	<path fill="#864141" d="M319,1248.7c0,1-0.1,1.9-0.4,2.7s-0.6,1.6-1.1,2.4s-1.1,1.4-1.7,1.9s-1.4,1-2.3,1.4
		c0.7,0.1,1.3,0.4,1.8,0.7s1.1,0.7,1.5,1.2s0.7,1.1,0.9,1.7s0.3,1.4,0.3,2.2c0,0.8-0.1,1.7-0.3,2.5s-0.6,1.6-1,2.4s-1,1.5-1.7,2.1
		s-1.4,1.2-2.3,1.7s-1.9,0.9-3,1.1s-2.4,0.4-3.8,0.4h-8c-0.5,0-0.9-0.1-1.2-0.4s-0.3-0.7-0.2-1.3l5.4-27c0.1-0.6,0.4-1,0.8-1.3
		s0.8-0.4,1.2-0.4h6.5c1.5,0,2.8,0.1,3.9,0.4s1.9,0.6,2.6,1.1s1.2,1.1,1.6,1.9S319,1247.8,319,1248.7z M313.8,1263.2
		c0-1.3-0.5-2.3-1.4-3s-2.3-1.1-4.3-1.1H303l-2.1,10.7h5.6c1.3,0,2.4-0.2,3.2-0.6s1.6-0.9,2.2-1.5s1-1.3,1.4-2.1
		S313.8,1264.1,313.8,1263.2z M314.7,1249.5c0-0.5-0.1-1-0.3-1.4s-0.4-0.8-0.8-1s-0.9-0.5-1.5-0.7s-1.4-0.2-2.3-0.2h-4.3l-1.9,9.8
		h4.6c1.2,0,2.2-0.2,3-0.6s1.4-0.9,2-1.6s0.9-1.3,1.1-2.1S314.7,1250.2,314.7,1249.5z"/>
	<path fill="#864141" d="M349.7,1262.1c-0.4,1.9-1,3.6-1.8,5s-1.8,2.6-3,3.6s-2.5,1.7-4,2.2s-3.1,0.7-4.8,0.7
		c-1.8,0-3.4-0.2-4.7-0.7s-2.4-1.2-3.2-2.2s-1.3-2.2-1.6-3.6s-0.2-3.1,0.2-5.1l3.7-18.5c0-0.1,0.1-0.2,0.2-0.3s0.2-0.2,0.4-0.2
		s0.4-0.1,0.6-0.1s0.6-0.1,1-0.1s0.7,0,1,0.1s0.4,0.1,0.6,0.1s0.2,0.1,0.3,0.2s0,0.2,0,0.3l-3.7,18.5c-0.3,1.4-0.3,2.6-0.2,3.6
		s0.4,1.9,0.9,2.6s1.2,1.2,2,1.5s1.9,0.5,3.1,0.5c1.2,0,2.3-0.2,3.2-0.5s1.9-0.9,2.6-1.6s1.4-1.6,2-2.6s0.9-2.2,1.2-3.5l3.7-18.5
		c0-0.1,0.1-0.2,0.2-0.3s0.2-0.2,0.4-0.2s0.4-0.1,0.6-0.1s0.6-0.1,1-0.1c0.4,0,0.7,0,0.9,0.1s0.4,0.1,0.6,0.1s0.2,0.1,0.3,0.2
		s0.1,0.2,0,0.3L349.7,1262.1z"/>
	<path fill="#864141" d="M381,1249.2c0,1.1-0.2,2.1-0.5,3.1s-0.8,1.9-1.4,2.7s-1.4,1.5-2.3,2.2s-2,1.1-3.2,1.5
		c0.8,0.3,1.5,0.9,2,1.9s0.9,2.2,1.2,3.8l1.2,6.7c0,0.3,0.1,0.6,0.1,0.8s0.1,0.5,0.1,0.7c0,0.1,0,0.3-0.1,0.4s-0.2,0.2-0.4,0.2
		s-0.4,0.1-0.7,0.1s-0.7,0-1.1,0c-0.4,0-0.7,0-1,0s-0.4-0.1-0.6-0.2s-0.2-0.2-0.3-0.3s-0.1-0.3-0.1-0.5l-1.2-7.1
		c-0.1-0.8-0.3-1.6-0.5-2.2s-0.5-1.3-0.9-1.7s-0.9-0.9-1.6-1.1s-1.4-0.4-2.3-0.4h-2.7l-2.6,12.9c0,0.1-0.1,0.2-0.2,0.3
		s-0.2,0.2-0.4,0.2s-0.4,0.1-0.7,0.1s-0.6,0.1-1,0.1c-0.4,0-0.7,0-0.9,0s-0.5-0.1-0.6-0.1s-0.2-0.1-0.3-0.2s-0.1-0.2,0-0.3l5.6-28.1
		c0.1-0.6,0.4-1,0.8-1.3s0.8-0.4,1.2-0.4h6.6c1.4,0,2.7,0.1,3.8,0.4s2,0.7,2.7,1.2s1.3,1.2,1.7,2S381,1248.2,381,1249.2z
		 M376.6,1249.8c0-0.5-0.1-1-0.3-1.5s-0.5-0.8-0.9-1.2s-0.9-0.6-1.6-0.8s-1.4-0.3-2.3-0.3h-4.2l-2.1,10.2h3.6c1.4,0,2.6-0.2,3.6-0.6
		s1.8-0.9,2.4-1.5s1.1-1.3,1.4-2.1S376.6,1250.6,376.6,1249.8z"/>
	<path fill="#864141" d="M409.6,1271.5c0,0.3-0.1,0.6-0.3,0.8s-0.3,0.4-0.5,0.5s-0.4,0.2-0.6,0.3s-0.4,0.1-0.6,0.1h-1.5
		c-0.4,0-0.8,0-1-0.1s-0.5-0.3-0.7-0.5s-0.4-0.5-0.6-0.9s-0.3-0.8-0.5-1.4l-5.7-16.2c-0.4-1.2-0.8-2.3-1.2-3.5s-0.8-2.3-1.1-3.5h0
		c-0.2,1.3-0.4,2.6-0.7,3.8s-0.5,2.5-0.7,3.8l-3.5,17.7c0,0.1-0.1,0.2-0.2,0.3s-0.2,0.2-0.4,0.2s-0.4,0.1-0.6,0.1s-0.6,0.1-0.9,0.1
		s-0.7,0-0.9-0.1s-0.4-0.1-0.6-0.1s-0.2-0.1-0.2-0.2s0-0.2,0-0.3l5.6-28c0.1-0.6,0.4-1.1,0.8-1.3s0.8-0.4,1.2-0.4h1.9
		c0.4,0,0.7,0,1,0.1s0.5,0.2,0.7,0.4s0.4,0.5,0.5,0.8s0.3,0.7,0.5,1.2l5.7,16.4c0.4,1,0.7,2,1.1,3s0.7,2,1,3.1h0
		c0.2-1.3,0.5-2.6,0.7-4s0.5-2.7,0.8-4l3.3-16.4c0-0.1,0.1-0.2,0.2-0.3s0.2-0.2,0.4-0.2s0.4-0.1,0.6-0.1s0.6,0,0.9,0
		c0.4,0,0.7,0,0.9,0s0.4,0.1,0.6,0.1s0.2,0.1,0.3,0.2s0.1,0.2,0,0.3L409.6,1271.5z"/>
	<path fill="#864141" d="M444.7,1262.1c-0.4,1.9-1,3.6-1.8,5s-1.8,2.6-3,3.6s-2.5,1.7-4,2.2s-3.1,0.7-4.8,0.7
		c-1.8,0-3.4-0.2-4.7-0.7s-2.4-1.2-3.2-2.2s-1.3-2.2-1.6-3.6s-0.2-3.1,0.2-5.1l3.7-18.5c0-0.1,0.1-0.2,0.2-0.3s0.2-0.2,0.4-0.2
		s0.4-0.1,0.6-0.1s0.6-0.1,1-0.1s0.7,0,1,0.1s0.4,0.1,0.6,0.1s0.2,0.1,0.3,0.2s0,0.2,0,0.3l-3.7,18.5c-0.3,1.4-0.3,2.6-0.2,3.6
		s0.4,1.9,0.9,2.6s1.2,1.2,2,1.5s1.9,0.5,3.1,0.5c1.2,0,2.3-0.2,3.2-0.5s1.9-0.9,2.6-1.6s1.4-1.6,2-2.6s0.9-2.2,1.2-3.5l3.7-18.5
		c0-0.1,0.1-0.2,0.2-0.3s0.2-0.2,0.4-0.2s0.4-0.1,0.6-0.1s0.6-0.1,1-0.1c0.4,0,0.7,0,0.9,0.1s0.4,0.1,0.6,0.1s0.2,0.1,0.3,0.2
		s0.1,0.2,0,0.3L444.7,1262.1z"/>
	<path fill="#864141" d="M486,1272.6c0,0.1-0.1,0.2-0.2,0.3s-0.2,0.2-0.4,0.2s-0.4,0.1-0.6,0.1s-0.6,0.1-1,0.1c-0.4,0-0.7,0-0.9-0.1
		s-0.4-0.1-0.6-0.1s-0.2-0.1-0.3-0.2s0-0.2,0-0.3l5.3-26.4h0l-16.1,26.5c-0.1,0.2-0.4,0.4-0.7,0.5s-0.8,0.2-1.4,0.2
		c-0.6,0-1.1-0.1-1.4-0.2s-0.4-0.3-0.4-0.5l-5-26.5h0l-5.3,26.4c0,0.1-0.1,0.2-0.2,0.3s-0.2,0.2-0.4,0.2s-0.4,0.1-0.6,0.1
		s-0.6,0.1-1,0.1c-0.4,0-0.7,0-0.9-0.1s-0.4-0.1-0.6-0.1s-0.2-0.1-0.3-0.2s0-0.2,0-0.3l5.6-27.9c0.1-0.3,0.2-0.6,0.3-0.8
		s0.3-0.4,0.5-0.6s0.4-0.3,0.6-0.3s0.4-0.1,0.6-0.1h2.3c0.5,0,0.9,0.1,1.3,0.2s0.6,0.3,0.8,0.5s0.4,0.5,0.5,0.8s0.2,0.7,0.3,1.1
		l4.4,21.9h0.1l13.5-21.9c0.2-0.4,0.5-0.8,0.7-1.1s0.5-0.6,0.8-0.8s0.6-0.4,1-0.5s0.7-0.2,1.2-0.2h2.7c0.2,0,0.4,0,0.6,0.1
		s0.3,0.2,0.5,0.3s0.2,0.3,0.3,0.6s0,0.5,0,0.8L486,1272.6z"/>
	<path fill="#864141" d="M532.7,1249.2c0,1.1-0.2,2.1-0.5,3.1s-0.8,1.9-1.4,2.7s-1.4,1.5-2.3,2.2s-2,1.1-3.2,1.5
		c0.8,0.3,1.5,0.9,2,1.9s0.9,2.2,1.2,3.8l1.2,6.7c0,0.3,0.1,0.6,0.1,0.8s0.1,0.5,0.1,0.7c0,0.1,0,0.3-0.1,0.4s-0.2,0.2-0.4,0.2
		s-0.4,0.1-0.7,0.1s-0.7,0-1.1,0c-0.4,0-0.7,0-1,0s-0.4-0.1-0.6-0.2s-0.2-0.2-0.3-0.3s-0.1-0.3-0.1-0.5l-1.2-7.1
		c-0.1-0.8-0.3-1.6-0.5-2.2s-0.5-1.3-0.9-1.7s-0.9-0.9-1.6-1.1s-1.4-0.4-2.3-0.4h-2.7l-2.6,12.9c0,0.1-0.1,0.2-0.2,0.3
		s-0.2,0.2-0.4,0.2s-0.4,0.1-0.7,0.1s-0.6,0.1-1,0.1c-0.4,0-0.7,0-0.9,0s-0.5-0.1-0.6-0.1s-0.2-0.1-0.3-0.2s-0.1-0.2,0-0.3l5.6-28.1
		c0.1-0.6,0.4-1,0.8-1.3s0.8-0.4,1.2-0.4h6.6c1.4,0,2.7,0.1,3.8,0.4s2,0.7,2.7,1.2s1.3,1.2,1.7,2S532.7,1248.2,532.7,1249.2z
		 M528.3,1249.8c0-0.5-0.1-1-0.3-1.5s-0.5-0.8-0.9-1.2s-0.9-0.6-1.6-0.8s-1.4-0.3-2.3-0.3h-4.2l-2.1,10.2h3.6c1.4,0,2.6-0.2,3.6-0.6
		s1.8-0.9,2.4-1.5s1.1-1.3,1.4-2.1S528.3,1250.6,528.3,1249.8z"/>
	<path fill="#864141" d="M542.2,1272.6c0,0.1-0.1,0.2-0.2,0.3s-0.2,0.2-0.4,0.2s-0.4,0.1-0.7,0.1s-0.6,0.1-1,0.1c-0.4,0-0.7,0-1-0.1
		s-0.4-0.1-0.6-0.1s-0.2-0.1-0.3-0.2s-0.1-0.2,0-0.3l5.8-29.2c0-0.1,0.1-0.2,0.2-0.3s0.2-0.2,0.4-0.2s0.4-0.1,0.6-0.1
		s0.6-0.1,0.9-0.1s0.7,0,0.9,0.1s0.4,0.1,0.6,0.1s0.2,0.1,0.3,0.2s0.1,0.2,0,0.3L542.2,1272.6z"/>
	<path fill="#864141" d="M580.7,1246.1c0,0.1,0,0.2,0,0.4s-0.1,0.3-0.1,0.5s-0.1,0.4-0.2,0.6s-0.1,0.4-0.2,0.5s-0.2,0.3-0.3,0.4
		s-0.2,0.1-0.3,0.1c-0.2,0-0.6-0.1-0.9-0.4s-0.9-0.6-1.6-0.9s-1.5-0.7-2.4-1s-2.1-0.4-3.4-0.4c-1.4,0-2.7,0.2-3.9,0.6
		s-2.3,1-3.3,1.7s-1.9,1.6-2.7,2.6s-1.5,2.1-2,3.2s-1,2.4-1.3,3.7s-0.4,2.6-0.4,3.9c0,1.4,0.2,2.6,0.6,3.6s1,1.9,1.7,2.7
		s1.7,1.3,2.7,1.6s2.2,0.6,3.6,0.6c1,0,2-0.1,3-0.3s2-0.6,2.9-1l1.8-8.8h-7c-0.2,0-0.3-0.1-0.4-0.2s-0.2-0.3-0.2-0.6
		c0-0.1,0-0.3,0-0.4s0.1-0.4,0.1-0.6s0.1-0.4,0.2-0.6s0.2-0.4,0.2-0.5s0.2-0.3,0.3-0.4s0.2-0.1,0.4-0.1h9.6c0.4,0,0.8,0.1,0.9,0.4
		s0.2,0.7,0.1,1.2l-2.3,11.7c-0.1,0.3-0.1,0.5-0.2,0.7s-0.2,0.3-0.3,0.5c-0.1,0.1-0.5,0.3-1.1,0.6s-1.3,0.6-2.2,0.8
		s-1.8,0.5-2.9,0.7s-2.2,0.3-3.4,0.3c-2,0-3.8-0.3-5.4-0.8s-2.8-1.3-3.9-2.3s-1.8-2.2-2.4-3.6s-0.8-3-0.8-4.8c0-1.7,0.2-3.3,0.6-4.9
		s0.9-3.2,1.7-4.6s1.6-2.8,2.7-4s2.3-2.3,3.6-3.2s2.9-1.6,4.5-2.1s3.4-0.8,5.3-0.8c1.1,0,2.1,0.1,3.1,0.3s1.8,0.4,2.6,0.7
		s1.4,0.6,1.9,0.9s0.9,0.6,1.1,0.8s0.3,0.3,0.4,0.5S580.7,1245.9,580.7,1246.1z"/>
	<path fill="#864141" d="M589.4,1272.6c0,0.1-0.1,0.2-0.2,0.3s-0.2,0.2-0.4,0.2s-0.4,0.1-0.7,0.1s-0.6,0.1-1,0.1c-0.4,0-0.7,0-1-0.1
		s-0.4-0.1-0.6-0.1s-0.2-0.1-0.3-0.2s-0.1-0.2,0-0.3l5.8-29.2c0-0.1,0.1-0.2,0.2-0.3s0.2-0.2,0.4-0.2s0.4-0.1,0.6-0.1
		s0.6-0.1,0.9-0.1s0.7,0,0.9,0.1s0.4,0.1,0.6,0.1s0.2,0.1,0.3,0.2s0.1,0.2,0,0.3L589.4,1272.6z"/>
	<path fill="#864141" d="M626.5,1253.7c0,1-0.1,2.1-0.2,3.2s-0.4,2.2-0.7,3.3s-0.7,2.2-1.2,3.2s-1.1,2.1-1.8,3s-1.5,1.8-2.4,2.7
		s-2,1.5-3.1,2.1s-2.5,1.1-3.9,1.4s-3.2,0.5-5.2,0.5h-6.7c-0.2,0-0.4,0-0.6-0.1s-0.3-0.1-0.5-0.3s-0.2-0.3-0.3-0.5s0-0.5,0-0.8
		l5.4-27c0.1-0.6,0.3-1,0.7-1.3s0.8-0.4,1.3-0.4h6.4c2.3,0,4.3,0.2,5.8,0.7s2.8,1.2,3.8,2.1s1.8,2.1,2.3,3.4
		S626.5,1252,626.5,1253.7z M622.3,1254.1c0-1.2-0.2-2.2-0.5-3.2s-0.8-1.8-1.5-2.5s-1.6-1.2-2.6-1.6s-2.5-0.6-4.3-0.6h-4.2
		l-4.7,23.6h4.2c1.9,0,3.5-0.2,4.8-0.7s2.4-1.1,3.4-1.9s1.8-1.7,2.5-2.8s1.2-2.1,1.7-3.3s0.8-2.3,1-3.6S622.3,1255.2,622.3,1254.1z"
		/>
	<path fill="#864141" d="M656.7,1262.1c-0.4,1.9-1,3.6-1.8,5s-1.8,2.6-3,3.6s-2.5,1.7-4,2.2s-3.1,0.7-4.8,0.7
		c-1.8,0-3.4-0.2-4.7-0.7s-2.4-1.2-3.2-2.2s-1.3-2.2-1.6-3.6s-0.2-3.1,0.2-5.1l3.7-18.5c0-0.1,0.1-0.2,0.2-0.3s0.2-0.2,0.4-0.2
		s0.4-0.1,0.6-0.1s0.6-0.1,1-0.1s0.7,0,1,0.1s0.4,0.1,0.6,0.1s0.2,0.1,0.3,0.2s0,0.2,0,0.3l-3.7,18.5c-0.3,1.4-0.3,2.6-0.2,3.6
		s0.4,1.9,0.9,2.6s1.2,1.2,2,1.5s1.9,0.5,3.1,0.5c1.2,0,2.3-0.2,3.2-0.5s1.9-0.9,2.6-1.6s1.4-1.6,2-2.6s0.9-2.2,1.2-3.5l3.7-18.5
		c0-0.1,0.1-0.2,0.2-0.3s0.2-0.2,0.4-0.2s0.4-0.1,0.6-0.1s0.6-0.1,1-0.1c0.4,0,0.7,0,0.9,0.1s0.4,0.1,0.6,0.1s0.2,0.1,0.3,0.2
		s0.1,0.2,0,0.3L656.7,1262.1z"/>
	<path fill="#864141" d="M698,1272.6c0,0.1-0.1,0.2-0.2,0.3s-0.2,0.2-0.4,0.2s-0.4,0.1-0.6,0.1s-0.6,0.1-1,0.1c-0.4,0-0.7,0-0.9-0.1
		s-0.4-0.1-0.6-0.1s-0.2-0.1-0.3-0.2s0-0.2,0-0.3l5.3-26.4h0l-16.1,26.5c-0.1,0.2-0.4,0.4-0.7,0.5s-0.8,0.2-1.4,0.2
		c-0.6,0-1.1-0.1-1.4-0.2s-0.4-0.3-0.4-0.5l-5-26.5h0l-5.3,26.4c0,0.1-0.1,0.2-0.2,0.3s-0.2,0.2-0.4,0.2s-0.4,0.1-0.6,0.1
		s-0.6,0.1-1,0.1c-0.4,0-0.7,0-0.9-0.1s-0.4-0.1-0.6-0.1s-0.2-0.1-0.3-0.2s0-0.2,0-0.3l5.6-27.9c0.1-0.3,0.2-0.6,0.3-0.8
		s0.3-0.4,0.5-0.6s0.4-0.3,0.6-0.3s0.4-0.1,0.6-0.1h2.3c0.5,0,0.9,0.1,1.3,0.2s0.6,0.3,0.8,0.5s0.4,0.5,0.5,0.8s0.2,0.7,0.3,1.1
		l4.4,21.9h0.1l13.5-21.9c0.2-0.4,0.5-0.8,0.7-1.1s0.5-0.6,0.8-0.8s0.6-0.4,1-0.5s0.7-0.2,1.2-0.2h2.7c0.2,0,0.4,0,0.6,0.1
		s0.3,0.2,0.5,0.3s0.2,0.3,0.3,0.6s0,0.5,0,0.8L698,1272.6z"/>
</g>
<g>
	<g>
		<path fill="#FFFFFF" d="M82.5,1282c-15.2,0-27.5-12.3-27.5-27.5s12.3-27.5,27.5-27.5s27.5,12.3,27.5,27.5S97.7,1282,82.5,1282z
			 M82.5,1230c-13.5,0-24.5,11-24.5,24.5s11,24.5,24.5,24.5s24.5-11,24.5-24.5S96,1230,82.5,1230z"/>
	</g>
	<g>
		<path fill="#FFFFFF" d="M87,1266.8c-0.4,0-0.8-0.1-1.1-0.4l-10.2-10.2c-0.3-0.3-0.4-0.7-0.4-1.1s0.2-0.8,0.4-1.1l11.4-11.4
			c0.6-0.6,1.5-0.6,2.1,0s0.6,1.5,0,2.1l-10.4,10.4l9.2,9.2c0.6,0.6,0.6,1.5,0,2.1C87.8,1266.7,87.4,1266.8,87,1266.8z"/>
	</g>
</g>
<g>
	<g>
		<g>
			<g>
				<path fill="#546744" d="M117.3,510.9c-17.8,2.4-34.7,11.4-46.6,24.8c5.8,0.8,11.5-1.9,17.2-3.3c18.4-4.5,38.3,4.3,56.4-1.3
					c10.8-3.4,20.3-11.7,31.6-11.7c-20.8-5.7-42.3-8.5-63.8-8.5"/>
			</g>
			<g>
				<g>
					<path fill="#546744" d="M117.1,510.3c-18.1,2.6-34.6,11.4-46.8,25c-0.4,0.4-0.1,1,0.4,1.1c9.3,0.7,18-4.3,27.3-4.6
						c9.5-0.3,19,1.5,28.5,1.9c8,0.3,15.7-0.6,23.1-3.9c8.6-3.8,16.5-9.4,26.2-9.6c0.7,0,0.9-1,0.2-1.2c-20.9-5.6-42.4-8.5-64-8.5
						c-0.8,0-0.8,1.2,0,1.2c21.5,0,42.9,2.8,63.7,8.4c0.1-0.4,0.1-0.8,0.2-1.2c-7.5,0.2-13.9,3.4-20.5,6.7
						c-9.4,4.8-18.2,7.2-28.8,6.8c-9.2-0.4-18.4-2.1-27.7-1.9c-4.1,0.1-8.1,0.5-12,1.6c-5.4,1.4-10.5,3.5-16.2,3.1
						c0.1,0.4,0.3,0.7,0.4,1.1c12.1-13.4,28.4-22.1,46.3-24.7C118.2,511.4,117.9,510.2,117.1,510.3L117.1,510.3z"/>
				</g>
			</g>
		</g>
		<g>
			<path fill="#E6E6CC" d="M288.7,522.8c-2.3,1.4-4.6,2.8-6.9,4.1c-2,1.2-4.6,2.4-6.6,1.2c-1.7-1-2.1-3.4-1.5-5.2
				c0.6-1.8,2-3.3,3.4-4.7c7.3-7.5,15.6-15.4,26-16.4c0.5,0,1.1-0.1,1.5,0.2c0.9,0.6,0.5,2.1,0,3.1c-4.6,8.7-12,15.8-20.9,20.1"/>
		</g>
		<g>
			<path fill="#E6E6CC" d="M276.2,518.6c-0.1-1.3-1.5-2.1-2.7-2.6c-7-3.1-14-6.3-21.1-9.4c-2.5-1.1-6.2-1.8-7.2,0.8
				c-0.4,1.1-0.1,2.3,0.4,3.3c3.5,7.9,12.1,12.1,20,15.6c2,0.9,4.4,1.8,6.4,0.9c2-0.9,2.3-4.7,0.1-5"/>
		</g>
		<g>
			<g>
				<path fill="#DAD980" d="M274.2,530.6c1-2.8,2-5.5,3.1-8.3c0.4-1.2,0.8-2.5,1.4-3.7c0.3-0.7,0.7-1.3,1.2-1.9
					c3-1.1,4.5-0.6,4.3,1.7c0.9,5.7-7.7,10.3-12.1,11.9c0.2,0.3,0.4,0.7,0.6,1c4-3.7,6.9-8.1,8.8-13.2c0.2-0.4-0.3-0.9-0.8-0.8
					c-4.1,1.5-7.1,4.4-8.8,8.5c-0.1,0.4,0.2,0.8,0.6,0.8c3.3-0.4,5.9-2.2,7.4-5.2c0.3-0.6-0.5-1.3-1-0.8c-2.4,2.9-4.8,5.9-7.2,8.8
					c0.3,0.3,0.7,0.5,1,0.8c2-4.5,5.1-8.3,8.8-11.5c-0.6,0.5,0.3,1.4,0.9,0.9c0.8-0.7,0.8-1.5,0.1-2.3c-0.2-0.2-0.5-0.3-0.8-0.1
					c-4.4,3.2-7.8,7.3-10.1,12.4c-0.3,0.6,0.5,1.4,1,0.8c2.4-2.9,4.8-5.9,7.2-8.8c-0.3-0.3-0.7-0.5-1-0.8c-1.3,2.6-3.4,4.3-6.3,4.6
					c0.2,0.3,0.4,0.5,0.6,0.8c1.5-3.6,4.2-6.3,7.9-7.6c-0.3-0.3-0.5-0.5-0.8-0.8c-1.8,4.9-4.7,9.1-8.5,12.7c-0.4,0.4,0,1.3,0.6,1
					c4.4-1.6,18.1-9.5,12.1-15.8c-6.1-6.6-10.7,12.1-11.6,14.6C272.8,531,274,531.3,274.2,530.6L274.2,530.6z"/>
			</g>
		</g>
		<g>
			<path fill="#6B7F58" d="M379.8,526.2c-3.5-2.4-7-4.8-10.5-7.1c-44.6-28.7-98.4-39.4-151.2-45.2c-24.3-2.7-50.5-4.1-71.6,8.2
				c-12.6,7.3-22.2,19-35,25.9c-7.5,4-15.9,6.2-23.5,10s-14.9,9.6-17.3,17.8c18-15.3,43.4-18.2,67-17.5c27.4,0.7,54.6,5.3,80.7,13.3
				c10.4,3.2,20.9,7.1,31.8,7.2c10.1,0.1,20-3,30-4.5c11.4-1.7,23.1-1.4,34.5,0.3c9.3,1.4,18.6,3.6,27.9,2.7
				c5.2-0.5,10.3-2,15.3-3.5c8.5-2.5,17-5,25.5-7.5"/>
		</g>
		<g opacity="0.16">
			<g>
				<path fill="#A9AF61" d="M376.2,526.1c-14.9-9.6-32.4-12.1-49.7-14.2c-21.5-2.6-42.8-6.4-64.1-10.6c-21.1-4.2-42.2-8.6-63.6-11.6
					c-8.7-1.2-17.7-2.2-26.3,0.1c-9.8,2.7-18.4,8.6-27.8,12c-10.3,3.8-20.9,5.3-31.7,7c-8.7,1.4-17,3.5-23.9,9.2
					c-0.3,0.2,0,0.7,0.4,0.6c18.7-5.6,37.4-11.3,56.1-16.9c18.9-5.7,37.7-12.2,57.7-9c17.3,2.7,33.5,9.4,51,11
					c19.4,1.8,38.8,1.7,58.1,4.5c21.3,3.1,42.2,8.1,62.6,14.9c0.5,0.2,0.7-0.6,0.2-0.7c-18.6-6.2-37.7-10.9-57-14
					c-18.8-3-37.5-3.8-56.5-4.8c-10.4-0.6-20.5-2.1-30.6-4.7c-8.9-2.3-17.8-5.1-26.9-6.6c-18.3-3.1-35.1,1.6-52.5,6.8
					c-19.3,5.8-38.7,11.7-58,17.5c-0.9,0.3-2.8,1.7-2.4,0.5c0.2-0.7,1.7-1.1,2.3-1.5c1.9-1.1,3.9-2.1,6-2.8
					c3.8-1.4,7.9-2.2,11.9-2.9c8.5-1.4,17.1-2.3,25.4-4.7c8.5-2.4,16.3-6.2,24.3-10c10.2-4.9,19.8-6.7,31-5.5
					c20.3,2.1,40.4,6.4,60.4,10.4c21.2,4.3,42.3,8.6,63.7,11.3c20.3,2.6,41.6,3.9,59.3,15.3C376.2,527,376.6,526.3,376.2,526.1
					L376.2,526.1z"/>
			</g>
		</g>
		<g opacity="0.16">
			<g>
				<path fill="#A9AF61" d="M347.2,515.8c-6.4,0.7-12.6,2.1-18.5,4.4c-6.8,2.6-13.4,7.4-21,6.1c-0.5-0.1-0.7,0.6-0.2,0.7
					c5.5,1,10.2-1.1,15.1-3.3c7.9-3.7,16-6.1,24.7-7.1C347.7,516.5,347.7,515.8,347.2,515.8L347.2,515.8z"/>
			</g>
		</g>
		<g opacity="0.16">
			<g>
				<path fill="#A9AF61" d="M291.2,507.7c-8.8-2.9-16.2,2.3-23.3,6.8c-4.3,2.7-8.7,5.2-13.2,7.5c-5.9,3-12.1,6.4-19,5.5
					c-0.5-0.1-0.7,0.7-0.2,0.7c8.4,1.1,16.4-3.8,23.5-7.6c9.4-5.2,20.5-16,32-12.1C291.4,508.6,291.6,507.9,291.2,507.7L291.2,507.7
					z"/>
			</g>
		</g>
		<g opacity="0.16">
			<g>
				<path fill="#A9AF61" d="M232.7,500.5c-5.7-1.1-11.5-0.7-16.8,1.8c-8,3.7-13.2,12.4-22.9,11.9c-0.5,0-0.5,0.7,0,0.8
					c6,0.3,10.5-2.7,15-6.3c7.4-5.9,14.9-9.3,24.5-7.4C233,501.3,233.2,500.6,232.7,500.5L232.7,500.5z"/>
			</g>
		</g>
		<g opacity="0.16">
			<g>
				<path fill="#A9AF61" d="M177.1,493.1c-11.2,6.4-18.9,19.5-32.7,20.4c-0.5,0-0.5,0.8,0,0.8c14-0.9,21.8-14,33.1-20.5
					C177.9,493.5,177.5,492.9,177.1,493.1L177.1,493.1z"/>
			</g>
		</g>
		<g opacity="0.16">
			<g>
				<path fill="#A9AF61" d="M227.4,496.8C215,485,190.6,470,173.9,482c-0.4,0.3,0,0.9,0.4,0.6c16.4-11.8,40.4,3,52.6,14.6
					C227.3,497.6,227.8,497.1,227.4,496.8L227.4,496.8z"/>
			</g>
		</g>
		<g opacity="0.16">
			<g>
				<path fill="#A9AF61" d="M282.6,503.9c-5.7-7.5-13.3-10.5-22.2-12.6c-12.2-2.8-24.4-5.6-36.5-8.4c-0.5-0.1-0.7,0.6-0.2,0.7
					c10.3,2.4,20.7,4.7,31,7.1c10.5,2.4,20.4,4.5,27.3,13.5C282.3,504.7,282.9,504.3,282.6,503.9L282.6,503.9z"/>
			</g>
		</g>
		<g opacity="0.16">
			<g>
				<path fill="#A9AF61" d="M339,511.6c-5.8-0.6-10.6-3.9-16-5.9c-5.1-1.9-10.4-2.9-15.7-3.9c-10.7-2-21.6-3.7-30.7-10.1
					c-0.4-0.3-0.8,0.4-0.4,0.6c9.1,6.5,20.1,8.2,30.9,10.2c5.6,1,11.1,2.2,16.4,4.2c5.2,2,9.8,5,15.5,5.6
					C339.5,512.4,339.5,511.7,339,511.6L339,511.6z"/>
			</g>
		</g>
	</g>
	<g>
		<g>
			<path fill="#5E744C" d="M388.9,508c-0.3-12-0.4-23.9-0.2-35.9c0.1-9.3,0.4-18.6,2.1-27.7c7.2-38.5,39.5-68.7,76.1-82.6
				c36.6-14,76.9-14.2,115.9-11.4c12,0.9,24.1,2,35.3,6.4s21.4,12.5,25.8,23.6c-10.9-1.3-21.9-2-32.9-2.3c-2.8-0.1-5.8-0.1-8.3,1.1
				c-2.9,1.3-4.9,4-6.7,6.7c-6.3,8.9-12.3,18.2-20.2,25.7c-18.2,17.4-44.2,23.7-69.1,26.4c-25,2.7-50.6,2.6-74.5,10.2
				c-6.3,2-12.5,4.5-17.9,8.4c-16.9,12.2-22,34.8-25.8,55.3"/>
		</g>
		<g opacity="0.16">
			<g>
				<path fill="#A9AF61" d="M393.6,465.4c5-15.7,14.2-29.8,26.6-40.8c13.8-12.2,30.5-18.6,48.4-22.2c18.4-3.7,36.9-5.5,54.5-12.5
					c18.1-7.1,35.1-14.8,54.6-17.3c21.9-2.8,44.2-0.5,65.2,6.6c0.5,0.2,0.7-0.6,0.2-0.7c-18.5-6.2-38-8.8-57.4-7.4
					c-19.5,1.4-37.2,7.3-55,14.9c-10.2,4.3-20.4,7.9-31.2,10.1c-9.7,2-19.5,3.3-29.2,5.2c-17.1,3.3-33.2,8.9-47,19.8
					c-14.2,11.3-24.8,26.7-30.3,44C392.7,465.7,393.4,465.8,393.6,465.4L393.6,465.4z"/>
			</g>
		</g>
		<g opacity="0.16">
			<g>
				<path fill="#A9AF61" d="M473.9,401.1c5.5-4.3,5.6-12.1,7.6-18.4c2.8-9.1,7.2-17.4,12.9-25c0.3-0.4-0.4-0.8-0.6-0.4
					c-4.7,6.2-8.5,13-11.3,20.3c-2.6,7-2.9,18.1-9,22.9C473,400.9,473.5,401.4,473.9,401.1L473.9,401.1z"/>
			</g>
		</g>
		<g opacity="0.16">
			<g>
				<path fill="#A9AF61" d="M521.9,387.6c2.4-4.6,4.2-9.3,4.9-14.5c1.1-7.4,0.7-18.8,10.6-20.1c0.5-0.1,0.5-0.8,0-0.8
					c-5,0.7-8.1,4.4-9.6,9c-1.2,3.8-1.2,7.8-1.8,11.6c-0.8,5.1-2.4,9.7-4.8,14.3C521.1,387.7,521.7,388,521.9,387.6L521.9,387.6z"/>
			</g>
		</g>
		<g opacity="0.16">
			<g>
				<path fill="#A9AF61" d="M560.9,375.9c3.7-3.4,5-8.3,8.1-12.1c3.9-4.7,9.5-7.4,15.5-7.9c0.5,0,0.5-0.8,0-0.8
					c-4.8,0.5-9.3,2.1-13.1,5.2c-5.1,4.2-6.4,10.7-11.1,15.1C560,375.7,560.5,376.2,560.9,375.9L560.9,375.9z"/>
			</g>
		</g>
		<g opacity="0.16">
			<g>
				<path fill="#A9AF61" d="M607.2,369.8c4.5-2.2,9-4.4,13.5-6.6c0.4-0.2,0.1-0.9-0.4-0.6c-4.5,2.2-9,4.4-13.5,6.6
					C606.4,369.4,606.8,370.1,607.2,369.8L607.2,369.8z"/>
			</g>
		</g>
		<g opacity="0.16">
			<g>
				<path fill="#A9AF61" d="M474.9,402.8c3.3,4,9,3.2,13.6,2.7c8.5-1,17.1-3,24.9,1.8c6.6,4.1,12.2,10.2,18.1,15.3
					c3.7,3.2,7.6,6.1,12.6,4.9c0.5-0.1,0.3-0.8-0.2-0.7c-7.7,1.8-14.9-7.4-20.1-12c-4-3.5-8-7.5-12.9-9.6c-4.8-2-10-1.9-15.1-1.3
					c-5.8,0.7-16,3.9-20.4-1.5C475.2,401.9,474.6,402.5,474.9,402.8L474.9,402.8z"/>
			</g>
		</g>
		<g opacity="0.16">
			<g>
				<path fill="#A9AF61" d="M525.5,389.7c12.8,0.9,26.8,2.3,35.6,12.7c2.4,2.8,5.8,8.6,10.1,8.8c2.3,0.1,3.4-1.3,2.9-3.5
					c-0.1-0.5-0.8-0.3-0.7,0.2c-1.4,0.6-2.8,1.2-4.2,1.7c-1-0.6-1.9-1.3-2.8-2.2c-0.7-0.7-1.3-1.4-2-2.2c-1.4-1.7-2.7-3.5-4.3-5.1
					c-2.7-2.8-6-5-9.6-6.6c-7.9-3.4-16.6-4.1-25.1-4.7C525,389,525,389.7,525.5,389.7L525.5,389.7z"/>
			</g>
		</g>
		<g opacity="0.16">
			<g>
				<path fill="#A9AF61" d="M562.1,377.3c8.5-0.1,16.1,4.9,19.4,12.7c0.2,0.4,0.9,0.2,0.7-0.2c-3.4-8.1-11.3-13.3-20.1-13.2
					C561.6,376.6,561.6,377.4,562.1,377.3L562.1,377.3z"/>
			</g>
		</g>
		<g opacity="0.16">
			<g>
				<path fill="#A9AF61" d="M430,416.8c0-11.8,4-23.2,11.7-32.1c8.2-9.6,20-14.5,31.4-19.1c0.4-0.2,0.2-0.9-0.2-0.7
					c-12.1,4.9-24.3,10.1-32.7,20.5c-7.2,8.9-11,20.1-11,31.5C429.2,417.3,430,417.3,430,416.8L430,416.8z"/>
			</g>
		</g>
		<g opacity="0.16">
			<g>
				<path fill="#A9AF61" d="M434,416.7c7.1,1.4,14.2,2.3,21.4,2.4c7,0.1,15.4-1.1,21.5,3.1c5.2,3.5,7.8,8.5,13.9,11
					c4.9,2,10,2.3,15.2,1.4c0.5-0.1,0.3-0.8-0.2-0.7c-7.4,1.4-15.1-0.3-21-5.1c-4-3.3-6.4-7.4-11.5-9.1c-4.8-1.6-10.1-1.2-15.1-1.2
					c-8.1,0-16.1-0.8-24-2.4C433.7,415.9,433.5,416.6,434,416.7L434,416.7z"/>
			</g>
		</g>
	</g>
	<g>
		<g>
			<path fill="#788669" d="M387,453.9c2-5.4-1-11.7-5.5-15.4c-4.5-3.7-10.2-5.5-15.5-7.7c-15.9-6.6-29.8-17.3-43.4-27.9
				c-3.5-2.7-7-5.4-9.7-8.9c-5.9-7.4-7.6-17.1-9.2-26.4c-0.3,11.7,6,22.7,14.5,30.7s19,13.5,29.3,18.8c7.5,3.9,15.1,7.8,22.6,11.7
				c7.3,3.8,15.1,8.1,18.5,15.5"/>
		</g>
		<g>
			<g>
				<path fill="#788669" d="M387.6,454c2.3-8-3-14.9-9.7-18.7c-4.7-2.7-10-4.3-14.9-6.5c-5.4-2.5-10.6-5.4-15.6-8.6
					c-10-6.4-19.9-13.6-29-21.4c-9.6-8.2-12.2-19.4-14.2-31.4c-0.1-0.7-1.2-0.5-1.2,0.2c0,19.3,14.7,33.3,30.3,42.5
					c9.6,5.7,19.6,10.5,29.5,15.6c9.2,4.8,20.3,9.1,25.2,18.9c0.4,0.7,1.4,0.1,1.1-0.6c-3.5-7-10.1-11.1-16.8-14.7
					c-9.7-5.1-19.5-10-29.2-15.1c-18.3-9.6-38.9-23.5-38.9-46.5c-0.4,0.1-0.8,0.1-1.2,0.2c1.5,9.2,3.2,19,9.2,26.6
					c6,7.5,15.1,13.2,22.8,18.8c8.9,6.5,18.1,12.6,28.2,17.1c9.5,4.3,27.4,9.2,23.2,23.4C386.2,454.5,387.4,454.8,387.6,454
					L387.6,454z"/>
			</g>
		</g>
	</g>
	<g>
		<g>
			<path fill="#788669" d="M391.2,482.6c-0.7-7.6,3.9-14.6,8.2-20.9c1.9-2.8,3.9-5.6,6.7-7.6c3.4-2.4,7.7-3.2,11.8-3.9
				c4.3-0.7,9.2-1.4,12.8,1.2c-8.9-1.7-18.2,2.1-24.8,8.2c-6.6,6.1-11,14.3-14.5,22.7c-1.9,4.6-3.7,9.5-3.1,14.5"/>
		</g>
		<g>
			<g>
				<path fill="#788669" d="M391.8,482.6c-0.4-9.1,5.7-18.7,11.7-25.2c5.4-5.9,19.7-9.8,27-5.4c0.2-0.4,0.3-0.8,0.5-1.1
					c-11.2-1.8-21.7,3.6-28.9,12.1c-7.3,8.5-15,22.4-14.3,33.9c0.1,0.8,1.3,0.8,1.2,0c-0.7-10.4,5.8-22.3,11.9-30.5
					c6.9-9.3,17.7-16.1,29.7-14.3c0.7,0.1,1.1-0.8,0.5-1.1c-7-4.2-19.9-1.5-26.1,3.3c-4.3,3.4-7.5,8.8-10.2,13.5
					c-2.7,4.7-4.5,9.5-4.2,15C390.6,483.4,391.9,483.4,391.8,482.6L391.8,482.6z"/>
			</g>
		</g>
	</g>
	<g>
		<g>
			<path fill="#788669" d="M389.9,523.8c-3.8,4.8-7.1,9.9-10,15.3c-2.4,4.5-4.6,9.8-3.1,14.7c0.7,2.2,2.1,4.2,2.8,6.5
				c1.5,4.7-0.7,10.4-5,12.9c5.6-3.3,6.9-10.9,6.7-17.4c-0.1-6.5-0.9-13.6,2.5-19.1c1.9-3.1,4.9-5.4,6.7-8.5
				c1.8-3.1,1.8-7.9-1.4-9.6"/>
		</g>
		<g>
			<g>
				<path fill="#788669" d="M389.4,523.5c-5.2,6.8-11.6,15-13.3,23.5c-0.7,3.2-0.3,5.8,0.8,8.8c1.3,3.4,3.1,5.9,2.4,9.7
					c-0.6,3.1-2.4,5.4-4.9,7.2c0.2,0.4,0.4,0.7,0.6,1.1c9.8-6.7,5.9-19.5,7.1-29.4c0.6-5,2.9-8.3,6.1-12.1c1.3-1.6,2.7-3.1,3.5-5.1
					c1.4-3.4,0.8-7.1-2.2-9.2c-0.7-0.5-1.3,0.6-0.6,1.1c1.7,1.2,2.6,4.6,2.1,6.6c-0.5,2-1.8,3.6-3,5.1c-1.2,1.4-2.5,2.7-3.6,4.2
					c-2.2,3-3.2,6.4-3.5,10.1c-0.8,9.1,2.7,21.5-6.4,27.6c-0.7,0.4,0,1.5,0.6,1.1c5.3-3.6,6.9-9.5,4.5-15.3c-1.5-3.8-3.1-6.8-2.2-11
					c0.6-3.1,2.1-6,3.6-8.7c2.8-5.1,6-9.9,9.6-14.5C391,523.5,389.9,522.8,389.4,523.5L389.4,523.5z"/>
			</g>
		</g>
	</g>
	<g>
		<path fill="#546744" d="M150.6,368c-22.5-2.3-45.7,3.5-64.9,18.7C66.4,402,51.5,427.2,47,456c6.4-2,11.5-8.2,16.7-13.4
			c29-29.2,68.3-35.1,104.7-30.5c36.5,4.7,71.9,18.7,108.2,25.1l5.2-11.5c0,0-60.1-37.9-62.4-38.8c-2.3-0.9-51.4-15.1-51.4-15.1
			L150.6,368z"/>
	</g>
	<g>
		<path fill="#CBCBB5" d="M240.3,581c0,6.1,2.1,12.1,5.8,16.9c1.9,2.4,5.7,4.5,7.7,2.3c1-1.1,1-2.9,0.8-4.4
			c-0.6-5.3-2.2-10.4-4.7-15.1"/>
	</g>
	<g>
		<path fill="#CBCBB5" d="M217.9,576.3c-7.2,2.7-13.9,6.5-20,11.1c-2.1,1.6-4.3,3.9-3.5,6.4c0.3,1.1,1.2,1.9,2.2,2.5
			c3.9,2.4,9.1,1.2,13.2-1c4.1-2.1,7.9-5.1,12.4-6.1"/>
	</g>
	<g>
		<g>
			<path fill="#5E744C" d="M395.9,525.9c0.8,0,0.8-1.2,0-1.2C395.1,524.6,395.1,525.9,395.9,525.9L395.9,525.9z"/>
		</g>
	</g>
	<g>
		<path fill="#6B7F58" d="M394.1,528.4c-13.4-20.5-26.7-41-40.1-61.6c-5-7.6-10-15.3-15.9-21.7c-6.6-7.1-14.1-12.6-21.6-17.9
			c-12.5-9-25.1-18-38.4-24.8c-15.6-8-32-13-48.3-18c-8.3-2.5-16.7-5.1-25-7.6c-19.2-5.8-38.9-11.7-58.5-8.8
			c38.7,4.4,76.5,21.5,109,49.2c10.3,8.8,20.2,18.7,30.9,26.7c27.8,20.7,61,28.2,87.2,52.1c1.9,1.7,3.7,3.6,4.9,6.1
			c1.2,2.6,1.6,5.8,2.4,8.7c1.8,6.4,5.6,11.7,10.3,14.4c-0.7-1-1.3-1.9-2-2.9"/>
	</g>
	<g>
		<path fill="#5E744C" d="M394.4,524c10.9-1.6,21.9-3,32.8-4.3c24.2-2.9,48.8-5.3,73-2.6c24.3,2.7,48.5,10.8,67,26.8
			c14.9,12.8,25.3,30,38.3,44.8c18.6,21.2,42.2,37.3,62.6,56.6c8.1,7.7,16.2,16.7,17.5,27.9c0.7,6-0.7,11.9-2.1,17.8
			c-1.7,7.2-3.4,14.3-5.1,21.5c-1.1,4.8-2.3,9.8-5,14c-4.9,7.7-13.9,11.5-22.3,14.9c2.2-7.9,4.3-16.8,0.3-23.9
			c-4.9-8.7-16.2-10.8-26-12.9c-14.3-3.1-28.1-8.4-40.9-15.5c-33.4-18.8-57.8-49.8-81.4-80c-7-9-14.1-18-20-27.8
			c-5-8.4-9.2-17.3-14.8-25.4c-17.1-24.6-47.9-39-77.8-36.3"/>
	</g>
	<g>
		<path fill="#788669" d="M383.2,524c-18.8-1-37.6-0.7-56.4,0.7c-8.1,0.6-16.1,1.4-24,3.4c-9,2.3-17.5,6.2-26,10
			c-12.6,5.7-25.2,11.4-37.9,17.1c-2.1,0.9-4.4,2.2-4.7,4.5c-0.5,4.1,6.5,7.1,4.7,10.8c5.8-7.6,13.4-13.8,22-18
			c-3.6,6.1-6.7,12.6-9.4,19.2c3.6,0.4,7.1,0.9,10.7,1.3c1.3,0.2,2.7,0.3,3.7-0.4c1.5-1,1.5-3.2,1.5-5c0.2-13.1,10.6-24.2,22.6-29.3
			c12-5.1,25.5-5.4,38.5-5.7c9.8-0.2,19.7-0.4,29.5-0.5c7.5-0.1,14.9-0.3,22.3-1.6c4.7-0.9,9.4-2.2,13.9-4"/>
	</g>
	<g>
		<path fill="#E6E6CC" d="M251.3,570.5c-8.4,2.8-16,8.1-21.6,15c-0.3,0.4-0.7,1-0.5,1.5c0.1,0.4,0.6,0.7,1.1,0.9
			c2.7,0.9,5.8,0,8.1-1.8c2.3-1.7,4-4.2,5.6-6.6c3.4,2.5-1.6,9.7,2.2,11.6c1.9,0.9,4-0.8,5.4-2.3c3.1-3.5,6-7.1,8.8-10.8
			c0.8,9,4.8,17.6,11.2,24c0.7,0.7,1.6,1.5,2.6,1.5c1.7,0.1,3-1.8,2.9-3.5c-0.1-1.7-1-3.2-1.9-4.7c-4.6-7.3-8.4-15.1-11.3-23.3"/>
	</g>
	<g>
		<path fill="#E6E6CC" d="M234.2,557.9c-7.6-0.5-14.9,2.9-20.8,7.6c-5.9,4.8-10.5,10.9-15,16.9c5.1,3.9,12.4,1.5,18.3-1
			c-0.4,3.9-0.9,7.9-1.3,11.8c-0.2,1.4-0.3,2.9,0.5,4c1.3,1.9,4.4,1.4,6.2,0c1.8-1.4,2.9-3.6,4.7-5.1c-0.2,5.5-0.1,11.8,4.1,15.3
			c2,1.6,5.4,2.1,6.9,0c1-1.4,0.7-3.4,0.3-5c-1-4.6-2-9.1-2.9-13.7c-0.1-0.5-0.4-1.2-0.9-1.2s-0.3,1.2,0.1,0.8"/>
	</g>
	<g>
		<path fill="#E6E6CC" d="M273.3,530.1c-6-4-14.2-3.3-20.6,0c-6.4,3.2-11.5,8.6-16.4,13.9c-1.1,1.2-2.3,2.6-2,4.2
			c0.4,2.6,3.9,3.1,6.5,2.8c13.2-1.8,25.5-8.9,33.6-19.5c1-1.3,1.9-2.7,1.9-4.3s-1.5-3.2-3-2.8"/>
	</g>
	<g>
		<path fill="#788669" d="M299.4,536.4c3.1,15.5,1.4,32-4.7,46.5c1.8,1.7,4.7,0.3,6.6-1.2c1.9-1.5,4.3-3.4,6.6-2.4
			c1.4,0.6,2.5,2.2,4,1.7c1.1-0.3,1.5-1.6,1.6-2.7c2-14.7-13.3-28.2-10.1-42.7"/>
	</g>
	<g>
		<path fill="#CBCBB5" d="M295.4,582.1c-3.6,6.3-7.7,13.1-14.6,15.4c-3.7,1.3-7.7,1-11.6,1.5s-8,2-9.8,5.5c-0.4,0.7-0.6,1.4-0.5,2.2
			c0.3,1.3,1.8,2,3.1,2.3c5.6,1.2,11.3-0.7,16.5-2.9c5.1-2.1,10.3-4.6,13.8-8.9c2.3-2.7,4.8-6.6,8.3-5.8c1.2,0.2,2.1,1,3.1,1.7
			c5.6,3.7,12.7,5,19.2,3.4s12.2-6,15.4-11.9c1-1.9,1.7-4.4,0.3-6.1c-1.2-1.4-3.4-1.3-5-0.5s-2.7,2.3-3.9,3.7c-1.6,2-3.5,3.8-6,4.7
			c-2.4,0.8-5.5,0.2-6.8-2c-1.1-1.7-0.8-3.9-1.2-6c-0.3-2-1.9-4.2-3.9-3.8"/>
	</g>
	<g>
		<path fill="#788669" d="M397.1,353.3c-5.6,3.2-12.8,3.2-18.4,0.1c-1.4,7.9-2.6,16.8,2.1,23.3c1.2,1.6,2.6,2.9,3.7,4.6
			c2.5,3.9,2.5,8.8,2.4,13.4c-0.6,40.6-0.2,81.2,1.4,121.8c0.1,2.4,0.4,5.2,2.3,6.6c3.6-6.1,2.9-13.7,2.3-20.8
			c-2.8-29.7-3.2-59.6-1.2-89.3c0.5-8.1,1.3-16.4-0.2-24.4c-0.5-3-1.4-6-1.1-9c0.4-4.5,3.3-8.4,4.9-12.7c1.7-4.3,1.6-10-2.3-12.4"/>
	</g>
	<g>
		<path fill="#E6E6CC" d="M375.6,353.8c0.5-1.5-1.3-2.8-2.8-3.5c-3.8-1.6-7.6-3.3-11.4-4.9c-2-0.9-4.3-2.4-3.8-4.5
			c0.4-1.5,2.2-2.1,3.7-1.8c1.5,0.3,2.7,1.3,3.8,2.3c2.9,2.5,5.9,5,8.8,7.5c-1-8.6-4.7-16.8-10.4-23.3c-0.9-1-1.8-2.2-1.5-3.4
			c0.5-1.8,3-1.9,4.8-1.3c6.3,2,11.5,7,13.7,13.3s1.1,13.5-2.6,18.9c-0.4,0.6-1.7,0.9-1.6,0.2"/>
	</g>
	<g>
		<path fill="#E6E6CC" d="M381.9,354.3c3.4-5.7,7.6-10.9,12.6-15.3c4.4-4,9.5-7.4,15.2-8.9c3.9-1,8.8-0.8,11.1,2.5
			c1.4,2,1.5,4.7,1.6,7.2c0,1.2,0,2.5-0.7,3.5c-1,1.4-2.9,1.6-4.6,1.6c-6.8,0.2-13.7-0.9-20.4,0.2c-6.7,1-13.7,4.7-16.1,11"/>
	</g>
	<g>
		<path fill="#E6E6CC" d="M384,354c4.2-0.4,8.4-0.8,12.4,0.3c4,1.1,7.9,3.9,8.9,7.9c0.6,2.2,0.3,4.6,0.6,6.9
			c0.3,2.3,1.6,4.7,3.8,5.2c2.2,0.5,4.5-1.3,5.3-3.4c0.8-2.2,0.4-4.6-0.2-6.8c-1.6-6.3-5-12.3-10.4-15.9c-5.3-3.6-12.8-4.5-18.3-1.2
			"/>
	</g>
	<g>
		<g>
			<path fill="#788669" d="M385.2,414.3c-1.4-6.1-4.1-11.6-8.2-16.3c-2.3-2.6-6.8-7.8-10.5-4.7c-1.2,1,0.5,2.8,1.8,1.8
				c2.3-2,8.9,7.1,9.8,8.5c2.3,3.5,3.8,7.3,4.7,11.4C383.2,416.5,385.6,415.8,385.2,414.3L385.2,414.3z"/>
		</g>
	</g>
	<g>
		<path fill="#E6E6CC" d="M365.9,390.6c-1.9-4.7-0.8-10.1,0.3-15.1c1.2-5,2.4-10.3,0.8-15.1c-1.7-4.8-7.5-8.6-12-6.2
			c-3.9,2.1-4.7,7.5-3.5,11.7s3.9,7.9,5.5,12c2.1,5.5,2.7,12.7,8.1,15.1c1.6-3.1,1.3-7-0.7-9.8"/>
	</g>
	<g>
		<path fill="#E6E6CC" d="M361.6,389.8c-0.4-7.5-4-14.9-9.7-19.8c-5.7-5-13.4-7.5-21-6.9c-2.8,0.2-5.7,0.9-8,2.7
			c-2.3,1.7-3.9,4.6-3.4,7.4c0.4,2.9,2.8,5.2,5.2,6.9c4.6,3.2,9.8,5.1,15,7.1c5.7,2.1,11.4,4.3,17.2,6.4c2.6,1,6.3,1.4,7.3-1.1
			c-16.9-0.5-33.5,11.3-38.5,27.5c-1,3.1-1.3,7.2,1.3,9.1c3.1,2.4,7.5-0.1,10.4-2.8c11.3-10.6,17.9-25.4,28.8-36.4
			c-9.1,8.5-14.7,20.6-15.2,33.1c-0.1,2.9,0.2,6.1,2.3,8.1c2.8,2.6,7.7,1.7,10.3-1.1c2.6-2.8,3.5-6.8,3.8-10.7
			c0.6-6.6-0.1-13.4-2-19.8c-1.1-3.5-2.5-7.3-1.4-10.8"/>
	</g>
	<g>
		<path fill="#E6E6CC" d="M307.9,369.1c4.4-4.1,7.6-9.5,9-15.4c0.5-2,0.7-4.2,0-6.1c-0.8-1.9-2.9-3.4-4.8-2.9
			c-1.6,0.4-2.7,2-3.5,3.5c-3.9,7.3-5.2,15.9-3.7,24.1c-1.6-5.6-3.7-11.2-8-15.1c-4.3-3.9-11.2-5.3-15.9-1.9c-1.1,0.8-2.1,2-2.1,3.4
			c0.1,1.5,1.3,2.6,2.5,3.5c6.3,4.6,14,6.6,21.6,8.5c-4.5,4.7-5.6,11.7-6.4,18.2c-0.8,6.4-1.6,12.7-2.4,19.1c-0.2,1.3-0.3,2.8,0.4,4
			c1.3,2.1,4.8,1.8,6.5-0.1s2-4.5,2.3-7c1-10.4,1.2-21,0.6-31.4c0,6.5,1.2,13,4.1,18.8c2.2,4.3,5.5,8.5,10.2,9.9
			c4.6,1.4,10.6-1,11.7-5.7c1.1-4.7-2.6-9-6.2-12.1c-6.2-5.5-12.9-10.4-20-14.7"/>
	</g>
	<g>
		<g>
			<path fill="#788669" d="M389,418.1c9.1-7.4,19.9-12,31.6-13.4c1.6-0.2,1.6-2.7,0-2.5c-12.4,1.5-23.6,6.3-33.3,14.2
				C385.9,417.3,387.7,419.1,389,418.1L389,418.1z"/>
		</g>
	</g>
	<g>
		<path fill="#CBCBB5" d="M433.5,414.5c3.3-0.6,6,2.4,9,4c2.7,1.5,6,1.8,8.9,1c3.5-1,6.6-4.2,6.1-7.8c-0.6-4.4-5.7-6.3-9.9-7.4
			c-4.4-1.1-8.8-2.3-13.2-3.4"/>
	</g>
	<g>
		<g>
			<path fill="#5E744C" d="M374.9,565.1c-8.8-4.2-19.4,0.2-26.5,6.8s-11.9,15.3-18.6,22.3c-16.9,17.6-45.1,24.3-55.5,46.3
				c-9.2,19.6-0.1,42.4,2.5,64c1.9,16,0.1,32.4-5.3,47.6c-3.4,9.5-8.1,18.5-10.3,28.2c-2.5,11.1-1.5,23,2.7,33.6
				c4.9,12.2,13.9,22.3,18.8,34.5c6.5,16,5.5,34.7,13.9,49.8c1.3,2.3,2.8,4.5,5,5.8c1.9,1.1,4.2,1.4,6.4,1.6
				c20.5,1.1,37.8-14.2,52-29c17.4-18.1,34.1-37.2,46.7-58.9c15.2-26.3,24.1-55.6,32.9-84.7c2.1-7.1,4.3-14.3,4.7-21.7
				c0.6-9.5-1.6-18.8-4.1-28c-5.9-21.7-13.5-43.1-15.5-65.5c-0.6-6.6-0.7-13.3-2.4-19.8c-3.2-12.1-12-22.4-23.1-28.4
				c-11-6-24-7.8-36.5-6.4"/>
		</g>
		<g opacity="0.21">
			<g>
				<path fill="#4F5F40" d="M295.5,658.6c13-12,21.9-31.5,19.7-49.3c-15.4,10.2-33,18.1-40.7,34.4c-5.1,10.9-4.6,22.8-2.7,35
					C279.6,671.9,287.8,665.7,295.5,658.6z"/>
			</g>
		</g>
		<g opacity="0.21">
			<g>
				<path fill="#4F5F40" d="M435.4,676c-16,7.9-19.7,36.6-21.9,51.5c-1.6,10.6-1.9,21.4-5.6,31.6c-4.6,12.6-13,22.3-22.3,31.7
					c-3.9,4-8.7,8.2-10.1,13.8c-1.6,6.5,1.1,13.7,0.8,20.3c-0.6,12.6-5.8,23.9-12.8,34.3c-9.2,13.5-17.8,27.8-28.2,40.6
					c8.3-5.5,15.9-12.7,22.8-19.9c17.4-18.1,34.1-37.2,46.7-58.9c15.2-26.3,24.1-55.6,32.9-84.7c2.1-7.1,4.3-14.3,4.7-21.7
					c0.6-9.5-1.6-18.8-4.1-28C437.4,683,436.4,679.5,435.4,676z"/>
			</g>
		</g>
	</g>
	<g opacity="0.16">
		<g>
			<path fill="#A9AF61" d="M380.6,563.9c-12.9,16.7-5.5,40-11.1,59c-3.4,11.7-8.5,22.6-10.7,34.7c-2,11.2-2.7,22.6-3.6,33.9
				c-1,12.4-2.3,24.9-6,36.8c-3.5,11.2-9.3,21.6-11,33.3c-1.8,12.3-1.7,24.5-4.4,36.6c-2.5,11.2-5.2,22.1-4.5,33.6
				c0.5,8.2,1,15.6-2.8,23.2c-2.7,5.4-6.6,10.2-9.7,15.4c-6.3,10.7-10,22.8-11,35.2c0,0.5,0.7,0.5,0.8,0c1.1-12.9,5-25.3,11.8-36.3
				c5.3-8.6,11.8-16.3,12.1-26.9c0.2-5.3-0.7-10.6-0.6-15.9c0.1-6.8,1.4-13.6,2.9-20.2c2.5-11.2,4.6-21.9,5.3-33.4
				c0.4-6.7,1-13.4,2.9-19.9c1.7-5.6,4-10.9,6.1-16.3c4.1-10.6,6.5-21.5,7.8-32.8c1.4-11.6,1.8-23.2,3.2-34.8
				c1.4-12.2,4.3-23.7,8.6-35.2c4.2-11.3,6.4-21.8,6.7-33.9c0.3-12.4,0.2-25.5,8.1-35.8C381.5,563.9,380.8,563.5,380.6,563.9
				L380.6,563.9z"/>
		</g>
	</g>
	<g opacity="0.16">
		<g>
			<path fill="#A9AF61" d="M372.7,593.2c-6.8-1.1-12.5,1.8-18,5.6c-7.3,5.1-13.9,9.1-22.9,10.5c-7.3,1.2-13.2,1.1-18.9,6.2
				c-6.6,5.8-13.5,10.2-21.9,12.9c-0.5,0.1-0.3,0.9,0.2,0.7c6.2-2,12-4.9,17.2-8.8c2.6-2,4.9-4.5,7.6-6.4c4.3-2.9,9.2-3,14.2-3.6
				c6.3-0.9,12.3-2.5,17.7-5.8c7.7-4.8,14.6-12.1,24.6-10.5C373,594,373.2,593.3,372.7,593.2L372.7,593.2z"/>
		</g>
	</g>
	<g opacity="0.16">
		<g>
			<path fill="#A9AF61" d="M366.1,633.7c-7.6-1.6-14.8-0.9-21.8,2.4c-9.2,4.3-16.8,11.3-26.2,15.5c-5.1,2.3-10.5,3.9-16.1,4.6
				c-5.8,0.7-11.2-0.3-16.9-0.7c-6.5-0.4-14.3,1.6-15.7,9c-0.1,0.5,0.6,0.7,0.7,0.2c2.3-12.6,18.4-7.3,26.9-7.4
				c7.4,0,14.7-2.1,21.4-5.1c8-3.5,14.6-8.9,22-13.3c8-4.7,16.3-6.4,25.4-4.5C366.4,634.6,366.6,633.8,366.1,633.7L366.1,633.7z"/>
		</g>
	</g>
	<g opacity="0.16">
		<g>
			<path fill="#A9AF61" d="M356.2,667.2c-6.6-0.3-13.3-0.3-19.6,1.9c-5.6,1.9-10.1,5.7-15.2,8.4c-6.9,3.7-14.3,5.5-22.1,5.9
				c-4.4,0.2-8.7,0.5-11.9,3.9c-0.3,0.4,0.2,0.9,0.5,0.5c4.2-4.5,10.8-3.4,16.4-4.1c5.5-0.7,10.9-2.3,15.9-4.8
				c5.2-2.6,9.7-6.3,15.1-8.5c6.7-2.7,13.9-2.7,21-2.5C356.7,667.9,356.7,667.2,356.2,667.2L356.2,667.2z"/>
		</g>
	</g>
	<g opacity="0.16">
		<g>
			<path fill="#A9AF61" d="M355.1,701.4c-10.7-5.9-22.9-1.3-33.3,3c-13.3,5.5-26.1,12.2-38.2,20c-0.4,0.3,0,0.9,0.4,0.6
				c10.6-6.8,21.6-12.8,33.1-17.8c11.3-5,25.7-11.8,37.7-5.2C355.1,702.3,355.5,701.6,355.1,701.4L355.1,701.4z"/>
		</g>
	</g>
	<g opacity="0.16">
		<g>
			<path fill="#A9AF61" d="M348,735.1c-17-0.6-31.1,9.6-42.6,21.1c-6.8,6.8-12.7,14.5-20.8,19.7c-8.7,5.6-18.8,9-28.9,10.8
				c-0.5,0.1-0.3,0.8,0.2,0.7c8.5-1.5,16.7-4.2,24.4-8.2c7.8-4.1,13.6-9.8,19.6-16.2c12.9-13.7,28-28,48.2-27.3
				C348.5,735.8,348.5,735.1,348,735.1L348,735.1z"/>
		</g>
	</g>
	<g opacity="0.16">
		<g>
			<path fill="#A9AF61" d="M335.3,782.2c-12.4,0.9-23,9.3-33.7,14.9c-6.2,3.3-13.1,7.4-19.9,9.2c-5.7,1.5-11.6,0.5-17,3.3
				c-0.4,0.2,0,0.9,0.4,0.6c5.5-2.9,11.8-1.7,17.6-3.5c5.5-1.7,10.8-4.7,15.9-7.3c11.5-5.8,23.4-15.5,36.6-16.5
				C335.7,782.9,335.7,782.1,335.3,782.2L335.3,782.2z"/>
		</g>
	</g>
	<g opacity="0.16">
		<g>
			<path fill="#A9AF61" d="M328.3,817.5c-8.1,1.7-15.8,4.7-22.9,8.9c-3.7,2.2-7.2,5.2-11.4,6.3c-3.4,0.9-6.7,0.3-9.9,2.1
				c-0.4,0.2,0,0.9,0.4,0.6c3.4-2,7.5-1.2,11.2-2.6c3.1-1.1,5.8-3.2,8.6-4.9c7.5-4.7,15.6-7.9,24.2-9.8
				C329,818.1,328.8,817.4,328.3,817.5L328.3,817.5z"/>
		</g>
	</g>
	<g opacity="0.16">
		<g>
			<path fill="#A9AF61" d="M331.5,838.1c9.4,4.6,14.2,12.4,16.8,22.3c0.7,2.8,1.6,5.7,3.9,7.7c2.3,2.1,6.6,1.4,8.4,3.8
				c0.3,0.4,0.9,0,0.6-0.4c-1.6-2.1-3.6-1.6-5.9-2.5c-6.3-2.3-6.1-10.3-8.2-15.6c-2.9-7.1-8.4-12.7-15.2-16.1
				C331.5,837.3,331.1,837.9,331.5,838.1L331.5,838.1z"/>
		</g>
	</g>
	<g opacity="0.16">
		<g>
			<path fill="#A9AF61" d="M335.3,790.3c6.5,2.9,11.9,7.3,15.7,13.3c3.6,5.6,5.6,12,8.4,18.1c2.3,5.1,4.7,7.8,9.6,10.3
				c6.8,3.3,13.3,8.6,12.9,16.9c0,0.5,0.7,0.5,0.8,0c0.3-5.6-2.5-10.2-6.7-13.6c-2-1.6-4.2-2.7-6.5-3.9c-4.7-2.3-7.3-5.4-9.4-10
				c-3.1-6.8-5.3-14.1-9.8-20.2c-3.7-5.1-8.8-8.8-14.5-11.4C335.2,789.5,334.8,790.1,335.3,790.3L335.3,790.3z"/>
		</g>
	</g>
	<g opacity="0.16">
		<g>
			<path fill="#A9AF61" d="M345.2,743c4.8,4.9,9.1,10.3,12.6,16.2c3,4.9,4.9,10.7,8.8,15c7.8,8.8,23.6,6.1,28.7,17.7
				c0.2,0.4,0.8,0.1,0.6-0.4c-5-11.3-19.7-9.2-27.7-16.7c-4.9-4.6-7.1-11.8-10.7-17.5c-3.4-5.4-7.4-10.3-11.8-14.9
				C345.3,742.1,344.8,742.6,345.2,743L345.2,743z"/>
		</g>
	</g>
	<g opacity="0.16">
		<g>
			<path fill="#A9AF61" d="M369.3,776.5c6.8,11.4,16.8,23.3,14.3,37.3c-1.4,7.6-4.2,16.8,3.2,22.3c0.4,0.3,0.8-0.4,0.4-0.6
				c-10.1-7.4-0.5-21.5-2.6-31.5c-2-9.9-9.5-19.2-14.7-27.8C369.7,775.7,369.1,776.1,369.3,776.5L369.3,776.5z"/>
		</g>
	</g>
	<g opacity="0.16">
		<g>
			<path fill="#A9AF61" d="M356.4,713.1c6.3,6.8,12.8,13.7,21.5,17.4c5.9,2.5,11.3,4,15,9.6c2.3,3.5,3.7,7.4,6,10.9
				c1.9,2.9,4.2,4.9,7.2,6.5c3.1,1.6,5.9,2.9,6.8,6.5c0.7,2.6,0.4,5.1,0.8,7.8c1,5.8,6.8,8.7,12,6.1c0.4-0.2,0.1-0.9-0.4-0.6
				c-3.3,1.6-7.7,0.8-9.9-2.4c-1.8-2.7-1-6.4-1.4-9.5c-0.3-2.4-1.1-4.3-3-5.9c-3.1-2.6-7-3.4-9.8-6.4c-2.8-3-4.3-7-6.2-10.5
				c-3.4-6.3-7.6-9.1-14.2-11.7c-9.8-3.8-16.9-10.8-24-18.3C356.6,712.2,356.1,712.7,356.4,713.1L356.4,713.1z"/>
		</g>
	</g>
	<g opacity="0.16">
		<g>
			<path fill="#A9AF61" d="M368,636.9c0,19.7,24.5,21.5,37,29.7c4.7,3.1,8.5,7.2,10,12.8c1.1,4.2,1.1,8.4,3.4,12.2
				c4.9,8,19.9,16.4,13,27.4c-0.3,0.4,0.4,0.8,0.6,0.4c4-6.4,0.2-13.5-4.3-18.4c-3.9-4.3-8.7-8.1-10.4-13.9
				c-1.3-4.3-1.1-8.7-3.4-12.7c-10-17.2-45.1-13.4-45.1-37.4C368.8,636.4,368.1,636.4,368,636.9L368,636.9z"/>
		</g>
	</g>
	<g opacity="0.16">
		<g>
			<path fill="#A9AF61" d="M357.7,670.2c12.9,1.4,15.6,16,21.8,24.8c5.4,7.6,14.3,10.6,22.2,15c4.7,2.6,9.4,5.9,12.1,10.7
				c3,5.3,2.2,11.6,2.8,17.4c1,9.1,6.9,13.7,14.4,17.9c0.4,0.2,0.8-0.4,0.4-0.6c-5.6-3.2-11.6-6.8-13.4-13.5
				c-1.4-5.2-0.5-10.6-1.5-15.8c-1.7-9-9.3-14.1-17-18c-4.8-2.4-9.8-4.6-14-7.9c-4.9-3.8-7.6-9-10.3-14.4
				c-3.7-7.4-8.5-15.2-17.5-16.1C357.2,669.4,357.2,670.2,357.7,670.2L357.7,670.2z"/>
		</g>
	</g>
	<g opacity="0.16">
		<g>
			<path fill="#A9AF61" d="M373.3,595.4c16.6,4.1,23.8,20.1,29.3,34.7c2.3,6,4.9,11.8,9.6,16.2c6.3,6,18.7,12.4,14,23.2
				c-0.2,0.4,0.5,0.8,0.6,0.4c2.8-6.3-0.6-12.5-5.4-16.8c-3.8-3.4-8.1-6.1-11.4-10.1c-3.4-4.3-5.4-9.4-7.3-14.5
				c-5.3-14.3-13.1-29.7-29.2-33.7C373,594.5,372.8,595.2,373.3,595.4L373.3,595.4z"/>
		</g>
	</g>
	<g opacity="0.21">
		<g>
			<path fill="#4F5F40" d="M635.7,705.9c-2.5-2.8-5.1-5.6-7.4-8.4c-9-10.8-17.1-22-22.7-34.9c-6.1-13.8-8.8-28.9-17.6-41.3
				c-8.3-11.7-20.1-20.3-31.8-28.2c-11.9-8-23.6-16.4-35.6-24.2c-18.8-12.4-38.8-20-59.9-23.7c2.9,3.1,5.7,6.3,8.1,9.8
				c5.6,8,9.7,17,14.8,25.4c5.9,9.8,12.9,18.8,20,27.8c23.6,30.2,48.1,61.2,81.4,80c12.7,7.2,26.6,12.4,40.9,15.5
				C628.9,704.3,632.3,705,635.7,705.9z"/>
		</g>
	</g>
	<g opacity="0.16">
		<g>
			<path fill="#A9AF61" d="M418.5,520.1c24.1,2.4,47.7,8.1,70.2,17.1c22.1,8.9,44.6,20.7,61.9,37.3c8.5,8.2,14.7,18.1,21.7,27.5
				c6.4,8.6,13.9,15,22.9,20.8c9.8,6.3,18.3,13.4,25.9,22.3c7.1,8.3,13.4,17.2,20.5,25.5c3.8,4.4,7.8,8.6,12.3,12.3
				c5.8,4.9,11,8.7,11.1,17.1c0.2,13.9-6.6,28.5-14.5,39.5c-0.3,0.4,0.4,0.8,0.6,0.4c7.1-9.8,12-21.1,14-33.1
				c0.7-4.4,1.3-9.1-0.3-13.4c-1.8-4.7-6-7.5-9.7-10.5c-17.9-14.8-28.4-36.3-46.1-51.3c-9.2-7.9-20.6-12.8-29.1-21.6
				c-8.5-8.9-14.3-20.1-22.3-29.4c-15.6-17.9-37.3-30.3-58.7-40c-25.4-11.4-52.5-18.6-80.2-21.3C418,519.3,418,520.1,418.5,520.1
				L418.5,520.1z"/>
		</g>
	</g>
	<g opacity="0.16">
		<g>
			<path fill="#A9AF61" d="M481.8,536.1c-10,4.4-8.4,16.4-7.8,25.3c0,0.5,0.8,0.5,0.8,0c-0.6-8.7-2.4-20.4,7.5-24.7
				C482.6,536.6,482.2,535.9,481.8,536.1L481.8,536.1z"/>
		</g>
	</g>
	<g opacity="0.16">
		<g>
			<path fill="#A9AF61" d="M520,551.2c-5.6,3-7,9.3-6.8,15.2c0.2,5.1,1.5,10.4,0.2,15.5c-1.5,5.7-5.9,9.6-10.2,13.2
				c-0.4,0.3,0.2,0.8,0.5,0.5c5.5-4.7,10.3-9.4,10.9-17c0.6-8.8-4.2-21.4,5.8-26.7C520.8,551.6,520.4,551,520,551.2L520,551.2z"/>
		</g>
	</g>
	<g opacity="0.16">
		<g>
			<path fill="#A9AF61" d="M552,576.9c0.3,13.2-0.9,27.6-13.2,35.4c-7.7,4.9-8.7,10.5-7.5,19.3c0.1,0.5,0.8,0.3,0.7-0.2
				c-1.1-7.7-0.5-13.5,6.5-18.1c3.2-2.1,6-4.2,8.2-7.4c5.9-8.5,6.2-19.1,6-29C552.7,576.4,552,576.4,552,576.9L552,576.9z"/>
		</g>
	</g>
	<g opacity="0.16">
		<g>
			<path fill="#A9AF61" d="M582.5,617c-6.3,4-8,11.6-7.7,18.7c0.2,5.6,1.5,11.2,1.2,16.9c-0.5,7.1-4.4,12.5-8,18.3
				c-0.3,0.4,0.4,0.8,0.6,0.4c5.2-8.4,8.7-14.8,7.9-25c-0.8-9.7-3.5-22.4,6.3-28.6C583.3,617.3,582.9,616.7,582.5,617L582.5,617z"/>
		</g>
	</g>
	<g opacity="0.16">
		<g>
			<path fill="#A9AF61" d="M616.4,636.9c-1.9,8.6-3,17.3-2.8,26.1c0.1,9.2,5,24.8-8.8,26.1c-0.5,0-0.5,0.8,0,0.8
				c7.7-0.7,11.3-6.9,10.6-14.1c-1.3-13.1-1.1-25.7,1.8-38.7C617.3,636.6,616.5,636.4,616.4,636.9L616.4,636.9z"/>
		</g>
	</g>
	<g opacity="0.16">
		<g>
			<path fill="#A9AF61" d="M642.2,672.1c1.1,7.7,5.4,19.7-0.8,25.6c-3.5,3.3-7.9,5.2-10.6,9.3c-0.3,0.4,0.4,0.8,0.6,0.4
				c3.4-5.2,10.7-7.1,13.3-12.9c1.1-2.4,0.8-4.9,0.5-7.5c-0.6-5.1-1.5-10.1-2.3-15.2C642.9,671.5,642.2,671.7,642.2,672.1
				L642.2,672.1z"/>
		</g>
	</g>
	<g opacity="0.16">
		<g>
			<path fill="#A9AF61" d="M644.4,671.5c8.6,1.5,19.4-3.8,24.2,6.4c2.5,5.4,6.6,8.6,12.6,9.1c0.5,0,0.5-0.7,0-0.8
				c-5.4-0.4-9.3-3.3-11.7-8.1c-1.2-2.4-2.1-4.5-4.5-5.9c-6.2-3.6-13.8-0.4-20.4-1.5C644.1,670.7,643.9,671.4,644.4,671.5
				L644.4,671.5z"/>
		</g>
	</g>
	<g opacity="0.16">
		<g>
			<path fill="#A9AF61" d="M616.2,640.8c11.9-1.3,25.4-2.6,35.3,5.5c3.1,2.5,4.6,7.4,8.2,9.1c1.7,0.8,3.8,0.6,5.6,1.1
				c4.3,1.2,6.9,5,6.9,9.4c0,0.5,0.8,0.5,0.8,0c0-4.2-2.1-8.1-6.1-9.7c-3.7-1.5-6.2-0.1-9.3-3.9c-1.8-2.1-2.8-4.3-4.9-6.1
				c-10-8.7-24.1-7.5-36.4-6.2C615.7,640.1,615.7,640.9,616.2,640.8L616.2,640.8z"/>
		</g>
	</g>
	<g opacity="0.16">
		<g>
			<path fill="#A9AF61" d="M585.4,615.1c6.1-0.6,12.4-1.1,18.5-0.4c6.8,0.8,12.4,3.4,17.9,7.2c3.8,2.6,7.7,5.5,12.2,6.7
				c6.5,1.8,16.3-2.6,20.2,4.8c0.2,0.4,0.9,0,0.6-0.4c-2.5-4.6-7.3-5-12.1-4.8c-4.4,0.2-8.4,0.1-12.4-1.9c-2.9-1.4-5.5-3.3-8.1-5.1
				c-11.6-7.9-23.2-8.1-36.8-6.9C584.9,614.4,584.9,615.2,585.4,615.1L585.4,615.1z"/>
		</g>
	</g>
	<g opacity="0.16">
		<g>
			<path fill="#A9AF61" d="M555.4,576.6c7.3-0.1,15.2-0.3,21.8,3.4c6.1,3.4,9.9,9.4,13.4,15.2c2.2,3.6,4.1,6.5,8.4,7.6
				c7.5,1.9,20.5,2.4,18.5,13.9c-0.1,0.5,0.6,0.7,0.7,0.2c0.9-5.3-2.2-9.7-6.9-11.9c-3.4-1.7-7.1-1.8-10.7-2.6
				c-5.4-1.1-7.5-4.5-10.2-8.9c-3.5-5.7-7.4-11.5-13.6-14.5c-6.6-3.3-14.3-3.2-21.5-3.1C554.9,575.9,554.9,576.6,555.4,576.6
				L555.4,576.6z"/>
		</g>
	</g>
	<g opacity="0.16">
		<g>
			<path fill="#A9AF61" d="M520.1,551.1c6.4-0.2,12.8-0.4,19.1-0.6c6.7-0.2,12.8-0.5,18.9,2.9c4.1,2.3,7.7,5.4,11.7,7.7
				c1.8,1,3.6,1.7,5.5,2.5c5.6,2.4,6.6,5.2,7.3,10.4c0.1,0.5,0.8,0.3,0.7-0.2c-0.6-4.7-1.7-8.5-6.2-10.4c-6.5-2.7-11.5-6.4-17.4-10
				c-4.7-2.9-9.4-4-14.9-3.9c-8.2,0.1-16.5,0.6-24.7,0.8C519.7,550.3,519.7,551.1,520.1,551.1L520.1,551.1z"/>
		</g>
	</g>
	<g opacity="0.16">
		<g>
			<path fill="#A9AF61" d="M482.1,535.9c10.4-5.9,22.3-7.4,34.1-7.5c3.3,0,6.7,0.1,9.9,1.2c2.9,1,5.5,2.9,8.2,4.3
				c3.5,1.8,6.9,2.8,10.8,1.7c0.5-0.1,0.3-0.8-0.2-0.7c-7.3,1.9-12.3-3.8-18.6-6c-4.9-1.7-10.3-1.3-15.3-1
				c-10.2,0.5-20.2,2.3-29.2,7.4C481.3,535.5,481.7,536.2,482.1,535.9L482.1,535.9z"/>
		</g>
	</g>
	<g>
		<path fill="#6B7F58" d="M393.5,527.3c13.2-11.8,12.1-33.9,24.3-46.7c5.9-6.1,14.1-9.3,22-12.2c10.9-4,21.9-7.7,32.9-11.2
			c19-6.1,38.3-11.6,58.2-13c6.5-0.5,13.1-0.5,19.5,1.1c10.4,2.6,19.3,9.2,28.6,14.5c15.8,9.1,33.3,14.8,50.4,21.2
			c17.1,6.4,34.2,13.7,48.2,25.4c14,11.7,24.7,28.5,25.4,46.7c0.4,10.3-4.7,22.6-15,23.6c2-13.2,3.5-28.1-4.8-38.5
			c-3.3-4.1-7.7-7-12.2-9.7c-7.5-4.6-15.4-8.7-23.9-11.2c-34.5-10.1-70.4,9.4-106.4,10.6c-40.6,1.3-77.8-20.6-114.8-37.6
			c-2.1-1-4.3-1.9-6.6-1.8c-3.5,0.2-6.3,3-8.7,5.6c-8.8,9.4-18.3,20.4-17.4,33.3"/>
	</g>
	<g opacity="0.21">
		<g>
			<path fill="#4F5F40" d="M543.6,516.9c-16.3-0.4-32.9-2-48.4-7.2c-16-5.4-29.7-14.3-44.4-22.3c-6.9-3.7-14.9-7.5-22.8-4.9
				c-4.2,1.4-8,4.2-11.4,7.3c0.7-0.2,1.4-0.4,2.1-0.5c2.3-0.2,4.5,0.8,6.6,1.8c37,16.9,74.1,38.9,114.8,37.6
				c22.4-0.7,44.8-8.6,66.9-12C585.9,515.5,564.2,517.4,543.6,516.9z"/>
		</g>
	</g>
	<g opacity="0.16">
		<g>
			<path fill="#A9AF61" d="M419.9,485.9c18.6-7.6,38.6-13.9,58.9-10.3c8.8,1.5,17.3,4.6,25.9,6.6c8.9,2.1,18.1,2.8,27.2,3.1
				c20.3,0.7,40,2,60,6.2c9.5,2,18.8,4.3,28.2,6.6c9.5,2.4,19,4.7,27.4,9.8c0.4,0.3,0.8-0.4,0.4-0.6c-12.2-7.4-27-9.9-40.7-13.1
				c-15-3.6-30.2-6.8-45.6-8.3c-16.7-1.7-33.7-0.3-50.4-3.1c-14.3-2.4-27.7-8.5-42.3-9c-17.1-0.5-33.6,5-49.2,11.4
				C419.2,485.3,419.4,486,419.9,485.9L419.9,485.9z"/>
		</g>
	</g>
	<g opacity="0.16">
		<g>
			<path fill="#A9AF61" d="M475.2,477.4c9,7.4,14.9,16.6,18.6,27.6c2.8,8.1,5.6,16.3,13.1,21.1c0.4,0.3,0.8-0.4,0.4-0.6
				c-9.5-6.1-11.1-17.6-15.3-27.2c-3.6-8.4-9.3-15.6-16.4-21.4C475.3,476.6,474.8,477.1,475.2,477.4L475.2,477.4z"/>
		</g>
	</g>
	<g opacity="0.16">
		<g>
			<path fill="#A9AF61" d="M537.1,485.7c1.6,11.5,3.2,22.9,4.8,34.4c0.1,0.5,0.8,0.3,0.7-0.2c-1.6-11.5-3.2-22.9-4.8-34.4
				C537.8,485,537.1,485.2,537.1,485.7L537.1,485.7z"/>
		</g>
	</g>
	<g opacity="0.16">
		<g>
			<path fill="#A9AF61" d="M577.2,490.7c5.4,5.4,7.5,13,5.2,20.4c-2,6.3-4.5,11.3-4.6,18c0,0.5,0.7,0.5,0.8,0
				c0-5.7,1.6-10.2,3.6-15.4c1-2.7,1.8-5.4,1.9-8.3c0.1-5.8-2.3-11.1-6.4-15.2C577.4,489.8,576.9,490.3,577.2,490.7L577.2,490.7z"/>
		</g>
	</g>
	<g opacity="0.16">
		<g>
			<path fill="#A9AF61" d="M577.9,489.7c6.9-2.8,14-5,21.4-6.2c5.7-0.9,12.9-0.1,18-3.2c0.4-0.3,0-0.9-0.4-0.6
				c-5.4,3.3-13.5,2.4-19.7,3.5c-6.7,1.2-13.2,3.3-19.6,5.9C577.3,489.2,577.5,489.9,577.9,489.7L577.9,489.7z"/>
		</g>
	</g>
	<g opacity="0.16">
		<g>
			<path fill="#A9AF61" d="M547.3,484.4c9.4-10.9,25.6-6.4,37.8-11.5c0.4-0.2,0.2-0.9-0.2-0.7c-12.2,5.1-28.5,0.6-38.1,11.6
				C546.5,484.2,547,484.8,547.3,484.4L547.3,484.4z"/>
		</g>
	</g>
	<g opacity="0.16">
		<g>
			<path fill="#A9AF61" d="M483.6,476c3.4-7.2,12.4-9.1,19.4-10.9c8.5-2.1,17.3-3.3,26-3.5c11.1-0.2,28.3,5.3,35.7-6
				c0.3-0.4-0.4-0.8-0.6-0.4c-5.6,8.5-16.4,6.4-25,5.9c-7.9-0.5-15.8-0.2-23.7,0.8c-7.3,1-14.6,2.6-21.5,5.1
				c-4.6,1.7-8.8,4-10.9,8.6C482.8,476,483.4,476.4,483.6,476L483.6,476z"/>
		</g>
	</g>
	<g opacity="0.16">
		<g>
			<path fill="#A9AF61" d="M618.3,496.4c7.7,1,15.6-1.2,23.2,0.2c4.5,0.9,7.7,3.4,11.3,5.9c3,2,6.3,3.4,9.5,4.9
				c3.7,1.7,6.9,3.8,10,6.5c2,1.7,3.9,3.4,6.3,4.5c5.4,2.5,11,1.9,9.8,10.7c-0.3,2-0.8,3.1,0.5,4.9c0.3,0.4,0.9,0,0.6-0.4
				c-2.1-2.9,1.2-6.7-0.1-9.9c-0.7-1.8-2.5-3-4.1-3.8c-2.5-1.2-5.2-1.5-7.7-2.9c-2.2-1.2-4-3.1-5.9-4.7c-2.8-2.3-5.7-4.1-9-5.6
				c-3.8-1.7-7.4-3.4-10.9-5.8c-3-2.1-5.8-4-9.4-4.8c-7.9-1.8-16.2,0.7-24.2-0.4C617.8,495.5,617.8,496.3,618.3,496.4L618.3,496.4z"
				/>
		</g>
	</g>
	<g>
		<line fill="#E6E6CC" x1="415.5" y1="300.7" x2="408.6" y2="320.4"/>
	</g>
	<g>
		<line fill="#E6E6CC" x1="415.5" y1="300.7" x2="408.6" y2="320.4"/>
	</g>
	<g>
		<line fill="#E6E6CC" x1="415.5" y1="300.7" x2="409.6" y2="330.2"/>
	</g>
	<g>
		<line fill="#E6E6CC" x1="415.5" y1="300.7" x2="417" y2="345"/>
	</g>
	<g>
		<line fill="#E6E6CC" x1="415.5" y1="300.7" x2="417" y2="345"/>
	</g>
	<g>
		<line fill="#E6E6CC" x1="415.5" y1="300.7" x2="416.7" y2="353.3"/>
	</g>
	<g>
		<line fill="#E6E6CC" x1="415.5" y1="300.7" x2="416.7" y2="353.3"/>
	</g>
	<g>
		<line fill="#E6E6CC" x1="415.5" y1="300.7" x2="414.8" y2="364.2"/>
	</g>
	<g>
		<line fill="#E6E6CC" x1="415.5" y1="300.7" x2="414.8" y2="364.2"/>
	</g>
	<g>
		<line fill="#E6E6CC" x1="415.5" y1="300.7" x2="414.8" y2="364.2"/>
	</g>
	<g>
		<line fill="#E6E6CC" x1="415.5" y1="300.7" x2="414.8" y2="364.2"/>
	</g>
	<g>
		<line fill="#E6E6CC" x1="415.5" y1="300.7" x2="422.3" y2="367.5"/>
	</g>
	<g>
		<line fill="#E6E6CC" x1="415.5" y1="300.7" x2="422.3" y2="367.5"/>
	</g>
	<g>
		<line fill="#E6E6CC" x1="415.5" y1="300.7" x2="422.3" y2="367.5"/>
	</g>
	<g>
		<line fill="#E6E6CC" x1="415.5" y1="300.7" x2="422.3" y2="367.5"/>
	</g>
	<g>
		<line fill="#E6E6CC" x1="415.5" y1="300.7" x2="422.3" y2="367.5"/>
	</g>
	<g>
		<line fill="#E6E6CC" x1="415.5" y1="300.7" x2="422.3" y2="367.5"/>
	</g>
	<g>
		<line fill="#E6E6CC" x1="415.5" y1="300.7" x2="422.3" y2="367.5"/>
	</g>
	<g>
		<line fill="#E6E6CC" x1="415.5" y1="300.7" x2="422.3" y2="367.5"/>
	</g>
	<g>
		<line fill="#E6E6CC" x1="415.5" y1="300.7" x2="422.3" y2="367.5"/>
	</g>
	<g>
		<line fill="#E6E6CC" x1="415.5" y1="300.7" x2="422.3" y2="367.5"/>
	</g>
	<g>
		<line fill="#E6E6CC" x1="415.5" y1="300.7" x2="422.3" y2="367.5"/>
	</g>
	<g>
		<line fill="#E6E6CC" x1="415.5" y1="300.7" x2="422.3" y2="367.5"/>
	</g>
	<g>
		<line fill="#E6E6CC" x1="415.5" y1="300.7" x2="422.3" y2="367.5"/>
	</g>
	<g>
		<line fill="#E6E6CC" x1="415.5" y1="300.7" x2="422.3" y2="367.5"/>
	</g>
	<g>
		<line fill="#E6E6CC" x1="415.5" y1="300.7" x2="422.3" y2="367.5"/>
	</g>
	<g>
		<line fill="#E6E6CC" x1="415.5" y1="300.7" x2="422.3" y2="367.5"/>
	</g>
	<g>
		<line fill="#E6E6CC" x1="415.5" y1="300.7" x2="422.3" y2="367.5"/>
	</g>
	<g>
		<line fill="#E6E6CC" x1="415.5" y1="300.7" x2="422.3" y2="367.5"/>
	</g>
	<g>
		<line fill="#E6E6CC" x1="415.5" y1="300.7" x2="422.3" y2="367.5"/>
	</g>
	<g>
		<line fill="#E6E6CC" x1="415.5" y1="300.7" x2="422.3" y2="367.5"/>
	</g>
	<g>
		<path fill="#E6E6CC" d="M437.8,398.9c-2.5-0.3-5.1-0.5-7.5,0.1s-4.7,2.4-5.3,4.8c-1,4,2.8,7.4,5.8,10.2c0.8,0.8,1.6,1.6,2.1,2.6
			c1.5,3.5-1.7,7.2-4.7,9.6c-1.5,1.2-3.3,2.9-2.6,4.8c0.3,1,1.3,1.6,2.2,2.1c5.1,2.2,11.4-1.1,13.8-6.1c2.4-5,1.5-11.1-0.7-16.2
			c-1.1-2.5-2.5-5.3-1.2-7.7c1.3-2.4,4.5-2.9,7.1-3.8c6.3-2.1,11-8.4,11.2-15.1c0-0.7,0-1.5-0.4-2.1c-0.8-1.6-3.2-1.8-4.8-0.9
			s-2.6,2.5-3.7,4c-4.9,6.8-12.8,11.4-21.1,12.5"/>
	</g>
	<g>
		<g opacity="0.61">
			<g>
				<path fill="#DAD980" d="M375.2,334.7c0,0-0.1,0-0.1,0c-1,0.9-2,1.7-3.1,2.6c1.3,3.4,2.2,6.9,2.7,10.5c-2.6-2.2-5.1-4.3-7.7-6.5
					c-1.4,1.2-2.6,2.4-3.5,3.7c3.4,1.4,6.7,2.9,10.1,4.3c1.5,0.6,3.3,1.9,2.8,3.5l0.9-0.7c-0.1,0.7,1.1,0.4,1.6-0.2
					c3.3-4.8,4.5-11,3.2-16.7C379.7,335.3,377.6,335.3,375.2,334.7z"/>
			</g>
		</g>
		<g opacity="0.61">
			<g>
				<path fill="#DAD980" d="M402.2,343.7c-0.5-3.3-1-6.6-1.8-9.9c-1.9,1.3-3.7,2.7-5.3,4.2c-3.9,3.5-7.4,7.5-10.4,11.9
					c3.3-3.2,7.9-5.1,12.5-5.8C398.9,343.8,400.6,343.7,402.2,343.7z"/>
			</g>
		</g>
		<g opacity="0.61">
			<g>
				<path fill="#DAD980" d="M397.1,353.3c2.5,0.6,4.8,2,6.6,3.8c-0.3-3.8-0.6-7.6-1.1-11.3c-5-2.3-11-2.6-15.7,0.2l-2.2,7
					C388.8,352.6,393.1,352.2,397.1,353.3z"/>
			</g>
		</g>
	</g>
	<g>
		<g>
			<path fill="#DAD980" d="M306.8,374c-0.4-4,3.8-21.6-6.8-17.6c-0.3,0.1-0.4,0.3-0.5,0.6c-0.5,5.8,0.4,11.2,2.7,16.5
				c0.3,0.6,1.2,0.3,1.2-0.3c0.1-4.7,0.7-9.1,2-13.6c-0.4,0-0.8,0-1.2,0c0.7,3.1,0.6,5.1-0.1,8.2c0.4,0,0.8,0,1.2,0
				c-0.9-2.4-1.9-4.8-2.8-7.2c-0.3-0.7-1.2-0.6-1.2,0.2c-0.7,9,0.1,17.8,2.3,26.6c0.1,0.5,0.9,0.6,1.1,0.1c3.5-5.1,2.7-11.6-1.7-16
				c-0.4-0.4-1-0.1-1.1,0.4c-0.5,4.7,0.8,8.6,3.8,12.1c0.5,0.6,1.4-0.3,0.9-0.9c-2.8-3.3-3.8-7-3.4-11.2c-0.4,0.1-0.7,0.3-1.1,0.4
				c4.1,4,4.6,9.7,1.5,14.4c0.4,0,0.8,0.1,1.1,0.1c-2.2-8.7-2.9-17.4-2.3-26.3c-0.4,0.1-0.8,0.1-1.2,0.2c0.9,2.4,1.9,4.8,2.8,7.2
				c0.2,0.5,1,0.7,1.2,0c0.7-3,0.7-5.8,0.1-8.8c-0.1-0.6-1-0.6-1.2,0c-1.3,4.6-2,9.2-2,13.9c0.4-0.1,0.8-0.2,1.2-0.3
				c-1.1-2.5-1.9-5.1-2.4-7.8c-0.3-1.6-0.4-3.2-0.4-4.8c-0.5-2.3,0.5-2.5,2.8-0.5c2.6,0.1,3.6,1.4,3,3.9c-0.1,1.6-0.3,3.1-0.7,4.6
				c-0.3,2-0.4,3.7-0.3,5.7C305.7,374.8,306.9,374.8,306.8,374L306.8,374z"/>
		</g>
	</g>
	<g>
		<g>
			<path fill="#DAD980" d="M443.3,402.6c3.5-1.3,7.1-2.2,10.9-2.4c0.7,0,3.2-0.3,3.8,0c4.5,2.8-4.1,4.8-5.8,4.8
				c-0.7,0-11.7,0.5-9.8-2.7c0.3-0.6,5.8-0.9,6.2-1c1.7-0.2,3.4-0.4,5.2-0.6c-0.1-0.4-0.1-0.8-0.2-1.2c-3.2,1.2-6.4,2-9.8,2.4
				c-0.8,0.1-0.8,1.3,0,1.2c3.2,0,6.5,0,9.7,0c0.8,0,0.8-1.2,0-1.2c-1.3,0-2.6,0-3.9,0c-0.6,0-0.9,0.9-0.3,1.2
				c1.4,0.6,2.5,0.9,4.1,0.8c0.8,0,0.8-1.3,0-1.2c-1.2,0.1-2.3-0.1-3.4-0.7c-0.1,0.4-0.2,0.8-0.3,1.2c1.3,0,2.6,0,3.9,0
				c0-0.4,0-0.8,0-1.2c-3.2,0-6.5,0-9.7,0c0,0.4,0,0.8,0,1.2c3.5-0.4,6.9-1.2,10.2-2.4c0.6-0.2,0.6-1.3-0.2-1.2
				c-3.5,0.3-7,0.8-10.5,1.3c-1.7,0.3-3.7,0.3-3.6,2.5c0.1,1.8,1.9,2.5,3.4,2.7c3.2,0.5,6.9,0.3,10.1,0.1c2.6-0.1,9.5-2.5,6.6-6.4
				c-1.2-1.7-4.5-0.9-6.4-0.8c-3.7,0.3-7.2,1.1-10.6,2.4C442.2,401.6,442.6,402.9,443.3,402.6L443.3,402.6z"/>
		</g>
	</g>
	<g>
		<g>
			<path fill="#DAD980" d="M363.5,396.5c2.1-4.4,3.3-9.4,1.2-14c-1.9-4.2-5.9-6.9-10.6-6.7c-0.7,0-1.5,0.8-1.2,1.6
				c2.5,6.7,4.9,13.3,7.4,20c0.8-0.3,1.5-0.6,2.3-1c-1-2.4-1.5-4.6-1.5-7.2c-0.8,0.1-1.6,0.2-2.5,0.3c0.5,1.5,1,2.3,2.5,3
				c0.8,0.4,2,0,1.9-1.1c-0.3-3.1-0.9-6-2-8.9c-0.5-1.3-2.5-1.2-2.5,0.3c0.1,2.6,0.1,5.1,0.2,7.7c0,1.6,2.5,1.6,2.5,0
				c-0.1-2.6-0.1-5.1-0.2-7.7c-0.8,0.1-1.6,0.2-2.5,0.3c1,2.7,1.6,5.4,1.9,8.3c0.6-0.4,1.3-0.7,1.9-1.1c-0.5-0.5-0.9-1-1.4-1.5
				c-0.4-1.3-2.5-1.1-2.5,0.3c0,3,0.6,5.7,1.8,8.4c0.6,1.3,2.8,0.4,2.3-1c-2.5-6.7-4.9-13.3-7.4-20c-0.4,0.5-0.8,1.1-1.2,1.6
				c9.5-0.4,10.3,10.5,7.2,17C360.6,396.6,362.8,397.9,363.5,396.5L363.5,396.5z"/>
		</g>
	</g>
	<g>
		<g>
			<path fill="#DAD980" d="M363.6,397c-0.7,3.1-1.6,6.2-2.9,9.2c-0.6,1.3-1.3,2.7-2,3.9c-0.6,1-1.3,2.8-2,1.2c-1-2.1,2.2-6.5,3.5-8
				c1.8-2.2,4.1-3.7,6.7-4.9c-0.5-0.7-1-1.3-1.5-2c-3,3-6.1,6-9.1,9c-1.1,1.1,0.6,2.9,1.8,1.8c3-3,6.1-6,9.1-9
				c1.1-1.1-0.3-2.5-1.5-2c-4,1.8-7.5,4.8-9.5,8.7c-1.3,2.5-3,6.4-1,9c4.8,6,10.5-13.7,11-16.3C366.4,396.1,364,395.4,363.6,397
				L363.6,397z"/>
		</g>
	</g>
	<g>
		<g>
			<path fill="#B3C676" d="M362.7,395.9c0.4-3,0.2-5.9-0.7-8.8c-0.2-0.6-1-0.6-1.2,0c-1.3,3.5-0.5,7.3,2.2,9.9
				c0.1-0.4,0.3-0.7,0.4-1.1c-1.5-0.2-9.2-0.4-7.7,3.2c1.3,3.3,8.4-1.1,9.9-2.3c0.6-0.5-0.3-1.4-0.9-0.9c-1.3,1-4.3,3.1-6.2,2.8
				c-3.7-0.7,1.1-1.7,1.5-1.7c1.1-0.1,2.3,0,3.4,0.1c0.6,0.1,0.8-0.7,0.4-1.1c-2.4-2.3-3-5.6-1.9-8.7c-0.4,0-0.8,0-1.2,0
				c0.8,2.7,1.1,5.4,0.7,8.1C361.4,396.3,362.6,396.7,362.7,395.9L362.7,395.9z"/>
		</g>
	</g>
	<g>
		<g>
			<path fill="#B3C676" d="M303.3,370.9c-0.6,2-0.3,4.2,1,5.9c0.3,0.4,1,0.4,1.1-0.1c0.6-2.2,0.7-4.4,0.3-6.7
				c-0.1-0.3-0.5-0.5-0.8-0.4c-3.2,0.8-5.1,4.4-3.9,7.4c0.2,0.6,1,0.6,1.2,0c0.2-0.7,0.4-1.3,0.6-2c0.2-0.8-1-1.1-1.2-0.3
				c-0.2,0.7-0.4,1.3-0.6,2c0.4,0,0.8,0,1.2,0c-1-2.4,0.5-5.3,3-5.9c-0.3-0.1-0.5-0.3-0.8-0.4c0.3,2,0.2,4-0.3,6
				c0.4,0,0.8-0.1,1.1-0.1c-1.1-1.5-1.4-3.2-0.9-4.9C304.8,370.5,303.6,370.1,303.3,370.9L303.3,370.9z"/>
		</g>
	</g>
	<g>
		<g>
			<path fill="#E6E6CC" d="M277.1,372.3c-0.8-2.2,0.1-4.5,0.6-6.8c0.5-2.3,0.2-5.1-1.8-6.2c-1.7-0.9-3.9-0.1-5.1,1.4
				c-1.2,1.5-1.5,3.5-1.4,5.5c0,2.9,0.7,5.8,2,8.5c0.4,0.8,0.8,1.8,0.2,2.4c-0.4,0.4-1.1,0.4-1.6,0.4c-5-0.4-9.9-1.8-14.9-1.7
				c-5,0-10.4,1.9-12.8,6.3c-0.4,0.7-0.7,1.5-0.4,2.2c0.2,0.7,0.9,1.1,1.6,1.4c7.9,3.8,16.8-4,25.5-3.1c-3.8,5-4.2,12.4-0.9,17.8
				c1.3,2.1,3.6,4.1,6,3.6c2.9-0.6,4-4.2,4.2-7.2c0.2-3.9-0.2-7.8-1.3-11.6c2.2,1.8,4.6,3.3,7.1,4.6c1.1,0.6,2.3,1.1,3.6,1
				c3.5-0.3,4.8-5.2,3-8.2c-1.8-3-5.2-4.5-8.3-6c-3.1-1.5-6.5-3.5-7.5-6.8"/>
		</g>
		<g>
			<g>
				<path fill="#DAD980" d="M273,379.9c-2.5-1.6-5.1-0.3-6.8,1.8c-1,1.2-3.1,4.2-0.5,5c2.6,0.8,6.1-2.4,7.4-4.2
					c1.7-2.2,2-5.1,0.2-7.3c-0.3-0.3-0.8-0.2-1,0.1c-2.9,4.4-5.3,9.1-7.3,14c0.4,0,0.8,0,1.2,0c-2.1-6.6,4.6-10.3,9.6-12.3
					c0.7-0.3,0.4-1.5-0.3-1.2c-5.7,2.3-12.8,6.6-10.5,13.9c0.2,0.6,1,0.6,1.2,0c2-4.8,4.4-9.4,7.2-13.7c-0.3,0-0.7,0.1-1,0.1
					c2.9,3.5-1.5,7.7-4.6,9c-0.9,0.4-1.3,0.7-1.7-0.2c-0.3-0.8,0-1,0.4-1.6c1.3-1.8,3.4-3.8,5.8-2.3
					C273,381.4,273.6,380.3,273,379.9L273,379.9z"/>
			</g>
		</g>
		<g>
			<g>
				<path fill="#B3C676" d="M274.2,376.6c-3.1-2.6-7.4-3-11-1c-0.3,0.2-0.4,0.7-0.1,1c2.9,2.3,6.3,3.4,9.9,3.1
					c0.7-0.1,0.9-1,0.2-1.2c-1.2-0.4-2.3-0.8-3.4-1.4c-0.4-0.2-3.6-1.9-3.6-1.8c-0.1,0.8,1.2,0.8,1.2,0c0-0.1,0-0.1,0-0.2
					c0-0.2-0.1-0.4-0.3-0.5c-1-0.6-2,0.4-1.4,1.4c0.6,1,2.1,1.6,3.1,2.1c1.3,0.7,2.6,1.2,4,1.6c0.1-0.4,0.1-0.8,0.2-1.2
					c-3.3,0.3-6.4-0.6-9-2.7c0,0.3-0.1,0.7-0.1,1c3.1-1.7,6.8-1.4,9.5,0.8C274,378,274.9,377.1,274.2,376.6L274.2,376.6z"/>
			</g>
		</g>
	</g>
	<g>
		<g>
			<path fill="#B3C676" d="M385.4,347.9c-2.3-0.2-4,1-4.8,3.1c0.4,0,0.8,0,1.2,0c-0.8-2.7,1.6-5.2,4.3-4.5c0.1-0.4,0.1-0.8,0.2-1.2
				c-3.3-0.1-7.6,0.3-8.5,4.1c-0.1,0.3,0.1,0.7,0.4,0.8c2.2,0.5,4.3,0.7,6.6,0.8c-0.1-0.4-0.2-0.8-0.3-1.2c-1.6,1.1-3.2,1.5-5.1,1.3
				c-0.6-0.1-0.8,0.7-0.4,1.1c2.2,2.4,3,3.7,6.3,4c3.2,0.2,6.2-0.4,9.1-1.5c0.7-0.3,0.4-1.5-0.3-1.2c-2.3,0.9-4.7,1.5-7.2,1.5
				c-3.3,0.1-4.9-1.4-7-3.6c-0.1,0.4-0.3,0.7-0.4,1.1c2.2,0.2,4-0.2,5.8-1.5c0.5-0.3,0.3-1.2-0.3-1.2c-1.6,0-7.5,0.1-4.1-2.2
				c1.6-1,3.9-1,5.7-0.9c0.7,0,0.8-1.1,0.2-1.2c-3.6-0.9-6.9,2.5-5.8,6.1c0.2,0.6,1,0.6,1.2,0c0.8-1.8,2-2.5,3.6-2.2
				C386.2,349.3,386.2,348,385.4,347.9L385.4,347.9z"/>
		</g>
	</g>
	<g>
		<g>
			<path fill="#B3C676" d="M440.2,405.8c1.2,1.9,2.3,3.7,3.5,5.6c0.4,0.7,1.4,0.1,1.1-0.6c-0.6-1.5-1.3-3-1.9-4.5
				c-0.2-0.5-0.4-1-0.6-1.5c0.8-1.7,1.3-1.8,1.4-0.3c0.4,1.4-0.2,2.1-1,3.2c0.4,0,0.7,0,1.1,0c-1.1-2.1-1.2-4.3-0.1-6.4
				c0.4-0.7-0.7-1.3-1.1-0.6c-1.3,2.5-1.3,5.2,0.1,7.6c0.2,0.4,0.8,0.4,1.1,0c0.9-1.3,2-3.1,1.3-4.7c-0.4-0.9-1.6-1.6-2.7-1.5
				c-1.2,0.2-1.7,1.3-1.5,2.5c0.3,2.3,1.9,4.7,2.8,6.8c0.4-0.2,0.7-0.4,1.1-0.6c-1.2-1.9-2.3-3.7-3.5-5.6
				C440.8,404.5,439.7,405.1,440.2,405.8L440.2,405.8z"/>
		</g>
	</g>
	<g>
		<g>
			<path fill="#788669" d="M367.4,387.7c0.4,3.1,3.7,15.8-1.3,16.3c-0.5,0.1-0.9,0.9-0.3,1.2c10.6,4.6,21.4,12.4,20.6,25.3
				c0.4,0,0.8,0,1.2,0c-0.4-13.2-8.1-25-20.1-30.5c-0.6-0.3-1.3,0.4-0.8,1c2.3,2.3,4.7,4,7.7,5.4c0.4,0.2,1.1-0.1,0.9-0.7
				c-0.8-2.3-1.9-4.3-3.3-6.3c-0.3,0.3-0.7,0.5-1,0.8c2.4,2.3,4.7,4.5,7.1,6.8c0.6,0.6,1.5-0.3,0.9-0.9c-2.4-2.3-4.7-4.5-7.1-6.8
				c-0.5-0.5-1.4,0.2-1,0.8c1.4,2,2.3,3.7,3.2,6c0.3-0.2,0.6-0.5,0.9-0.7c-2.8-1.3-5.2-3-7.4-5.2c-0.3,0.3-0.5,0.7-0.8,1
				c11.6,5.3,19.1,16.7,19.5,29.5c0,0.8,1.2,0.8,1.2,0c0.8-13.3-10.2-21.6-21.2-26.4c-0.1,0.4-0.2,0.8-0.3,1.2
				c7.5-0.7,3.1-13.5,2.5-17.9C368.4,386.6,367.2,386.9,367.4,387.7L367.4,387.7z"/>
		</g>
	</g>
	<g>
		<g>
			<path fill="#788669" d="M392,413.1c11.1-8.3,23.4-16.9,38-15.9c-0.1-0.4-0.1-0.8-0.2-1.2c-5.8,1-13.1,10.9-5.4,14.5
				c0.2-0.4,0.3-0.8,0.5-1.1c-5.7-2-11.7-2.5-17.6-1c-7,1.8-11.5,7.6-18.2,9.7c0.2,0.3,0.4,0.7,0.6,1c9.3-8.8,19.9-15.8,31.8-20.7
				c0.6-0.3,0.6-1.2-0.2-1.2c-3.2-0.2-5.8,0.6-8.5,2.3c-0.7,0.4,0,1.5,0.6,1.1c2.5-1.6,4.9-2.3,7.9-2.2c-0.1-0.4-0.1-0.8-0.2-1.2
				c-12,5-22.9,12.1-32.3,21.1c-0.4,0.4,0,1.2,0.6,1c5.7-1.8,9.6-6.6,15.2-8.8c6.5-2.5,13.5-2.3,20,0c0.7,0.2,1.1-0.8,0.5-1.1
				c-0.6-2.3-1.3-4.6-1.9-6.9c0.5-0.9,1.2-1.8,1.9-2.5c1.4-1.5,2.9-2.5,5-2.8c0.7-0.1,0.5-1.2-0.2-1.2c-14.8-1.1-27.3,7.6-38.6,16
				C390.7,412.5,391.3,413.6,392,413.1L392,413.1z"/>
		</g>
	</g>
	<g>
		<g>
			<path fill="#DAD980" d="M258.6,580.9c-2.8,1.3-5.2,3.3-7.1,5.8c-1,1.4-3.2,4.6-1.9,6.4c3.4,4.8,9.2-10.1,9.9-12
				c0.2-0.6-0.7-1.1-1-0.6c-2.9,3.6-5.6,7.4-8,11.5c-0.3,0.4,0.2,1.1,0.7,0.9c4.5-1.6,7.5-5.7,7.5-10.5c0-0.4-0.5-0.8-0.9-0.5
				c-2.6,1.8-9.2,7.1-7.2,11c0.8,1.6,2.6,1.3,3.9,0.5c2.2-1.5,3.6-4,4.3-6.6c0.2-0.8-1-1.1-1.2-0.3c-0.5,1.7-1.2,3.3-2.4,4.6
				c-0.2,0.2-0.4,0.4-0.6,0.6c-0.7,1.1-1.3,1.1-2,0.1c-1.2-1-1.1-1-0.4-2.3c1.4-2.6,3.8-4.8,6.2-6.5c-0.3-0.2-0.6-0.4-0.9-0.5
				c0,4.2-2.6,7.9-6.6,9.3c0.2,0.3,0.5,0.6,0.7,0.9c2.3-3.9,4.9-7.7,7.8-11.2c-0.3-0.2-0.7-0.4-1-0.6c-0.8,2.2-1.8,4.4-2.9,6.5
				c-0.6,1.1-1.1,2.2-1.8,3.2c-0.4,0.8-1,1.5-1.7,2c-1.2-0.6-1.5-1.3-1-2.1c0.7-3.7,5.3-7,8.4-8.5
				C260,581.6,259.3,580.5,258.6,580.9L258.6,580.9z"/>
		</g>
	</g>
	<g>
		<g>
			<path fill="#DAD980" d="M299.8,590.6c-2.7,1.9-5.3,4.1-7.6,6.5c-1.6,1.6-3.5,3.6-3.7,6c-0.4,4.4,4.8,4.7,7.1,1.8
				c1.8-2.3,2.5-5.7,3.3-8.4c0.5-1.5,1.4-4.1-0.3-5.2c-1.4-0.9-2.5,0.4-3.2,1.3c-2.5,3.2-4.6,6.9-6.8,10.2c-0.4,0.6,0.3,1.1,0.9,0.9
				c4.9-2.3,8.3-6.4,9.7-11.6c0.2-0.7-0.8-1.1-1.1-0.5c-1.7,2.9-3.6,5.5-5.9,7.9c-0.6,0.6,0.3,1.5,0.9,0.9c2.3-2.5,4.4-5.2,6.1-8.1
				c-0.4-0.2-0.8-0.3-1.1-0.5c-1.3,4.9-4.5,8.7-9.1,10.9c0.3,0.3,0.6,0.6,0.9,0.9c2-2.9,3.9-5.9,5.9-8.8c0.4-0.5,1.9-3.4,2.8-0.8
				c0.2,0.5-0.4,1.8-0.6,2.3c-0.5,1.7-1.1,3.5-1.7,5.2c-0.3,0.7-0.5,1.5-1,2.2c-0.4,0.9-1.1,1.4-2,1.6c-1.1,0.9-1.8,0.5-2.1-1.1
				c-1.1-1.7-1.1-2-0.1-3.6c0.4-0.7,1-1.3,1.5-1.9c2.4-2.6,5.1-4.9,8-7C301.1,591.2,300.4,590.2,299.8,590.6L299.8,590.6z"/>
		</g>
	</g>
	<g>
		<g>
			<path fill="#DAD980" d="M215.5,582.2c-6.3,0.7-11.7,4.5-14.5,10.3c-0.1,0.3-0.1,0.7,0.2,0.9c6.5,3.1,13.6-1.2,13.8-8.4
				c0-0.4-0.4-0.7-0.8-0.6c-5.1,1.2-9.4,4.3-12.2,8.7c-0.3,0.5,0.2,1,0.7,0.9c3.7-0.9,6.8-2.7,9.3-5.4c0.5-0.6-0.3-1.5-0.9-0.9
				c-2.4,2.6-5.3,4.3-8.8,5.1c0.2,0.3,0.5,0.6,0.7,0.9c2.6-4.2,6.6-7,11.4-8.2c-0.3-0.2-0.5-0.4-0.8-0.6c-0.2,6.2-6.3,10-11.9,7.3
				c0.1,0.3,0.1,0.6,0.2,0.9c2.5-5.3,7.5-9,13.4-9.7C216.3,583.3,216.3,582.1,215.5,582.2L215.5,582.2z"/>
		</g>
	</g>
	<g>
		<g>
			<path fill="#DAD980" d="M270.7,529.9c-3.8-3.1-8.2-5.1-13.1-5.4c-3-0.2-7.9-0.1-8.8,3.6c-0.9,3.8,4.2,5.1,7,5.7
				c5.2,1.1,10.3,0.1,14.9-2.2c0.6-0.3,0.3-1.1-0.3-1.2c-5.7-0.2-11.3-0.8-16.9-1.8c-0.1,0.4-0.1,0.8-0.2,1.2
				c3.7-0.3,7.4-0.2,11.1,0.4c0.1-0.4,0.1-0.8,0.2-1.2c-4.2-0.5-8-1.6-11.8-3.4c-0.1,0.4-0.2,0.8-0.3,1.2c6,0.7,14.1,1.1,19.7,3.7
				c0.7,0.3,1.4-0.7,0.6-1.1c-5.9-2.7-13.9-3.1-20.3-3.9c-0.6-0.1-0.9,0.9-0.3,1.2c4,1.9,8.1,3.1,12.5,3.6c0.7,0.1,0.9-1.1,0.2-1.2
				c-3.8-0.6-7.6-0.7-11.4-0.4c-0.7,0.1-0.9,1.1-0.2,1.2c5.7,1.1,11.4,1.7,17.2,1.9c-0.1-0.4-0.2-0.8-0.3-1.2
				c-2.9,1.4-5.8,2.3-9,2.4c-1.7,0.1-3.4,0-5-0.4c-2.9-0.6-3-0.2-2.1-3.8c0.8-3.3,0.3-3.1,2.9-3c1.6,0.1,3.1,0.3,4.7,0.7
				c3.1,0.9,5.8,2.4,8.3,4.4C270.4,531.3,271.3,530.4,270.7,529.9L270.7,529.9z"/>
		</g>
	</g>
	<g opacity="0.16">
		<g>
			<path fill="#A9AF61" d="M368,489.9c-1.7-7.3-7.4-11.9-12.9-16.7c-7.1-6.2-14.4-12.1-21.9-17.6c-16-11.7-33.1-22-49.9-32.8
				c-16.7-10.7-33.1-21.9-50.4-31.7c-15.1-8.6-31.5-15.7-49.1-15.8c-0.5,0-0.5,0.7,0,0.8c18.2,0.1,34.9,7.6,50.3,16.6
				c16.1,9.3,31.5,19.8,47.1,29.8c15.7,10.1,31.7,19.8,47,30.6c7.6,5.3,14.9,11,22,17c6.5,5.5,14.9,11.3,17,20.1
				C367.4,490.6,368.1,490.4,368,489.9L368,489.9z"/>
		</g>
	</g>
	<g opacity="0.16">
		<g>
			<path fill="#A9AF61" d="M367.6,491.5c-4.2-8.8-10.1-16.9-18.2-22.5c-4.2-2.9-8.9-4.7-13.4-6.8c-6.1-2.8-10.2-6.8-14.4-11.9
				c-7.3-8.9-17.1-14.5-26.7-20.7c-11.6-7.5-23.2-15-34.8-22.4c-0.4-0.3-0.8,0.4-0.4,0.6c10.8,6.9,21.6,13.9,32.3,20.8
				c10.3,6.6,21.1,12.6,29,22.2c3.1,3.8,6.1,7.4,10.4,9.9c4.2,2.5,8.9,4,13.3,6.2c10.1,5.4,17.4,14.6,22.2,24.8
				C367.1,492.3,367.8,492,367.6,491.5L367.6,491.5z"/>
		</g>
	</g>
	<g opacity="0.16">
		<g>
			<path fill="#A9AF61" d="M380.2,566.5c-1.5-0.1-3-0.2-4.5-0.3c1.4-0.4,3.1,0.3,3.9,1.6c-2-1.6-3.9-3.2-5.9-4.9
				c3.5-0.2,7.1,1.7,8.8,4.8c-2.5-1.2-5-2.4-7.6-3.5c-7.4,10.4-6.4,24.3-6.4,37.1c-0.1,20.5-3.9,40.7-7.7,60.8
				c-1.2,6.2-2.3,12.4-3.5,18.6c-5.7,30.1-11.4,60.2-19.7,89.6c6.3-13.1,10-27.4,10.9-41.8c0.4-6,0.2-12,1.5-17.8
				c1.3-5.9,4.1-11.4,5.4-17.3c2.1-9.7,0.3-20.1,3-29.7c2-6.9,6.2-13,8.1-19.9c2-7.6,1-15.6,1-23.5c-0.1-17.8,4.8-35.6,14.1-50.8"/>
		</g>
		<g>
			<g>
				<path fill="#A9AF61" d="M380.2,566.1c-1.2-0.1-4-1-1.8,0.1c-1.6-0.8-4.6-3.2-1-2.4c1.1,0.3,5,2.9,3,2.4
					c-1.8-0.4-3.7-1.7-5.3-2.5c-0.2-0.1-0.4,0-0.5,0.1c-8.5,12.7-6.1,28.6-6.6,43.1c-0.7,18.5-4.2,36.8-7.6,55
					c-6.8,36.2-13.2,72.6-23.2,108.2c-0.1,0.4,0.5,0.7,0.7,0.3c7.5-15.8,10.4-31.9,11.3-49.2c0.5-9.4,3.8-17.2,6.1-26.1
					c2.1-8.1,1.3-16.4,2.2-24.7c1-9.2,6.1-16.5,8.9-25.1c2.4-7.6,1.6-15.5,1.5-23.3c-0.3-18.5,4.5-36.5,14-52.4
					c0.2-0.4-0.4-0.8-0.6-0.4c-6.5,10.9-11,22.9-12.9,35.4c-0.9,5.7-1.2,11.5-1.1,17.3c0.1,7.8,0.9,15.6-1.4,23.1
					c-1.8,5.8-5.2,11-7.1,16.7c-1.9,5.6-2.1,11.5-2.3,17.4c-0.2,7.2-1,14-3.3,20.9c-2.2,6.5-4,12.5-4.4,19.3
					c-0.9,14.6-2.4,28.6-7.7,42.4c-0.7,1.9-1.8,3.8-2.4,5.8c-0.8,2.3,0.4-0.5,0.6-1c1.4-3.5,2.1-7.7,3-11.3
					c1.8-6.9,3.4-13.9,4.9-20.9c6.4-28.9,11.9-58.1,17-87.3c2.7-15.1,4.8-30.4,4.9-45.8c0.1-7.5-0.3-15.1,0.9-22.5
					c0.6-3.6,1.5-7.1,3.1-10.4c0.9-1.8,1.1-3.1,3.4-3.2c1.5-0.1,4.7,2.2,6.1,2.8c0.3,0.1,0.7-0.2,0.5-0.5c-2.1-3.3-5.2-5-9.1-5
					c-0.3,0-0.5,0.4-0.3,0.6c2,1.6,3.9,3.2,5.9,4.9c0.4,0.3,0.9-0.2,0.5-0.5c-1.2-1.4-2.3-1.8-4.1-1.7c-0.5,0-0.5,0.7,0,0.8
					c1.5,0.1,3,0.2,4.5,0.3C380.6,566.9,380.6,566.2,380.2,566.1L380.2,566.1z"/>
			</g>
		</g>
	</g>
	<g>
		<g>
			<path fill="#E6E6CC" d="M392.7,523c0.5-4.5,0.6-9.2-0.8-13.5c-1.5-4.3-4.7-8.2-9.1-9.5c-0.7-0.2-1.5-0.3-2.2-0.1
				c-1.5,0.5-1.9,2.4-2.1,3.9c-0.6,4.8-0.8,10.5,3,13.6c3.3,2.7,9.3,2.9,10.2,7.1c-12.2-4.4-25.6-5.7-38.4-3.8
				c-1.3,4.4,3.9,7.9,8.4,8.9c11.8,2.8,24.2,0.5,36.1-1.8c-5,2.4-6.5,8.9-5.9,14.3c0.8,6.9,4.1,13.5,9.1,18.2
				c0.7-6.6,1.5-13.2,2.2-19.7c0.4-3.4,0.7-7-0.5-10.2c-1.2-3.2-4.7-5.9-8-5.1c3.4,4.4,6.8,8.8,11.2,12.1s9.9,5.6,15.4,4.9
				c-3.1-2.1-7.2-2.2-10.6-3.6c-5.9-2.4-9.8-8-13.4-13.3c-1.4-2.2-2.9-4.7-2.2-7.2c-1-0.3-2-0.5-3-0.8"/>
		</g>
		<g>
			<g>
				<path fill="#E6E6CC" d="M393.4,523c0.9-8.2,0-18.5-8.3-22.7c-7.4-3.7-7.8,5.1-7.3,10.4c0.3,2.8,1.3,5.5,3.5,7.3
					c1.3,1.1,2.9,1.7,4.4,2.3c1.4,0.6,2.8,1,3.8,2.3c1.6,2-1.7,0-2.7-0.3c-11-3.1-22.4-3.7-33.7-2.1c-0.2,0-0.4,0.2-0.4,0.4
					c-1.2,7.3,7.7,9.8,13.3,10.5c10.7,1.5,21.5-0.6,32-2.6c-0.2-0.4-0.3-0.8-0.5-1.1c-12.5,7.1-4.5,26,3.1,33.5
					c0.4,0.4,1,0.1,1.1-0.4c0.6-5.3,1.2-10.5,1.7-15.8c0.4-3.6,1.1-7.4,0.7-11c-0.6-4.9-4-9.5-9.4-8.8c-0.6,0.1-0.8,0.6-0.4,1.1
					c6.8,8.7,14.9,18,27.1,17.1c0.6,0,0.9-0.8,0.3-1.2c-5.2-2.9-11.3-2.9-16-7c-3.8-3.3-10.6-10.9-9.9-16.4c0-0.3-0.1-0.7-0.4-0.8
					c-1-0.3-2-0.5-3-0.8c-0.8-0.2-1.1,1-0.3,1.2c3.1,0.8,2.5,3.8,3.9,6.3c1.6,2.8,3.7,5.6,5.8,8.1c2.1,2.4,4.5,4.7,7.3,6.1
					c3.8,1.9,8.2,2.1,12,4.2c0.1-0.4,0.2-0.8,0.3-1.2c-11.8,0.9-19.6-8.3-26.2-16.8c-0.1,0.4-0.3,0.7-0.4,1.1
					c9.4-1.1,8.3,10.8,7.7,16.7c-0.6,5.9-1.3,11.8-2,17.8c0.4-0.1,0.7-0.3,1.1-0.4c-7-7-15.1-24.9-3.3-31.6c0.6-0.4,0.2-1.3-0.5-1.1
					c-6.8,1.3-13.7,2.6-20.7,2.9c-6.3,0.3-14.3,0.4-19.8-3.2c-2.5-1.6-2.9-5,0.5-6.3c1.3-0.5,3.1-0.2,4.4-0.3c3-0.1,5.9-0.1,8.9,0.2
					c7.1,0.5,13.9,2.1,20.6,4.4c0.4,0.2,0.9-0.3,0.8-0.8c-0.8-2.4-2.3-3.4-4.5-4.5c-5.3-2.6-8.8-4.6-8.9-11.3c0-2.7-0.2-5.4,2.1-6.9
					c2.3-1.5,3.9-0.5,6,1.4c1,0.9,1.8,1.9,2.5,3c3.2,5,3.1,11.1,2.5,16.9C392,523.8,393.3,523.8,393.4,523L393.4,523z"/>
			</g>
		</g>
	</g>
	<g>
		<g>
			<path fill="#DAD980" d="M391.1,523.9c-2.5-1.9-5.3-3.8-8.4-3.8c-5.2,0.1-8.7,5.8-9.1,11.1c0,0.3,0,0.6,0.1,0.8
				c0.3,0.8,1.3,1,2.2,0.8c3.3-0.5,5.6-3.6,7.9-6c2.3-2.5,6-4.6,8.9-2.9c2.4,1.4,2.8,4.9,1.7,7.5s-3.4,4.4-5.6,6.1
				c-0.8,0.7-1.8,1.4-1.9,2.5c-0.3,2.5,3.5,3.2,5.7,2c5.6-3.1,6.3-12.2,1.2-16.1"/>
		</g>
		<g>
			<g>
				<path fill="#DAD980" d="M391.5,523.4c-3.5-2.6-7.7-5.2-12.1-3c-3.4,1.7-5.6,5.8-6.1,9.5c-0.3,2.7,0.6,4.1,3.5,3.4
					c2-0.5,3.5-1.8,4.9-3.2c1.1-1.1,2-2.3,3.1-3.3c2.5-2.3,9-5.9,9.7,1.5c0.4,4.7-4.4,6.5-6.9,9.5c-0.8,0.9-1.5,1.8-1.2,3.1
					c0.6,2.7,4.4,2.7,6.4,1.8c6.5-3,6.4-12.9,1.4-17.1c-0.6-0.5-1.5,0.4-0.9,0.9c3.2,2.7,4.1,7.1,2.5,11c-0.9,2.1-3,4.8-5.5,4.4
					c-1.3,0.4-1.8-0.1-1.6-1.6c-0.7-1.1-0.5-1.8,0.5-2.3c0.5-0.7,1.5-1.2,2.2-1.8c3.1-2.8,6.4-8.4,2.6-12c-4-3.8-9.1,0.7-11.9,3.7
					c-0.7,0.8-1.4,1.6-2.3,2.3c-1.1,0.9-4.2,2.5-5.5,1.1c-0.8-0.9,1.5-5.4,2-6.2c3.7-6.1,9.8-4,14.5-0.5
					C391.5,524.9,392.1,523.9,391.5,523.4L391.5,523.4z"/>
			</g>
		</g>
	</g>
	<g>
		<g>
			<path fill="#788669" d="M403,529.8c3-9,2.1-22.3-9.8-23.5c-0.4,0-0.6,0.3-0.6,0.6c-0.3,2.9,0.1,5.6,1.5,8.2
				c1.4,2.6,8.8,7.8,7.9,10.4c0.4,0.1,0.8,0.1,1.2,0.2c0-6.5-2.9-12.1-8.3-15.8c-0.6-0.4-1.2,0.5-0.8,1c2.4,2.8,10,6.5,8.8,11
				c-0.7,0.7-1.5,1.5-2.2,2.2c-0.5-0.7-1.1-1.5-1.6-2.2c-0.5-0.8-1-1.7-1.4-2.6c-1.4-3-2-6.3-2.1-9.6c0-0.8-1.2-0.8-1.2,0
				c-0.1,3.5,0.6,6.6,2.1,9.8c0.3,0.6,1.4,0.2,1.1-0.5c-1-3-1.9-6-2.9-9c-0.4,0.2-0.8,0.3-1.1,0.5c1.1,1.9,2.4,6.1,4.5,6.9
				c0.8,0.3,1.1-0.9,0.3-1.2c-1.2-0.4-3.1-5.1-3.8-6.3c-0.3-0.6-1.4-0.2-1.1,0.5c1,3,1.9,6,2.9,9c0.4-0.2,0.8-0.3,1.1-0.5
				c-1.4-3-2-5.9-1.9-9.2c-0.4,0-0.8,0-1.2,0c0.1,6.2,2.3,11.7,6.4,16.3c0.2,0.2,0.5,0.2,0.8,0.1c2.4-1.3,3.1-3.8,2.4-6.4
				c-1.2-4.4-6.2-6.4-8.9-9.7c-0.3,0.3-0.5,0.7-0.8,1c5,3.4,7.7,8.7,7.6,14.7c0,0.7,1,0.8,1.2,0.2c0.6-1.8,0.3-3.2-0.9-4.6
				c-1.2-1.4-3.2-2.2-4.5-3.4c-1.7-1.5-2.8-3.4-3.5-5.5c-0.6-1.9-1.7-4.8,1.3-4.4c2.6,0.3,5.2,3.4,6.3,5.5c2.7,5,1.6,10.8-0.1,16
				C401.5,530.3,402.8,530.6,403,529.8L403,529.8z"/>
		</g>
	</g>
	<g>
		<g>
			<path fill="#788669" d="M364.1,532.1c-4.1,2.3-8.2,4.5-12.2,6.8c-4.3,2.4-9.4,6.2-14.5,6.2c-8,0.1-15.3-8.3-22.2-11.7
				c-12.6-6.1-26.8-7.9-40.5-5.3c-0.7,0.1-0.5,1.3,0.2,1.2c11-0.6,21.5,1.4,31.5,5.8c7.5,3.3,14.7,7.1,22.9,8.5
				c7.4,1.3,15,1,22.3-0.9c3.6-0.9,7.7-2.2,10.9-4.3c1.7-1.1,5.3-7.4,7-6.9c0.8,0.2,1.1-1,0.3-1.2c-1.5-0.5-2.1-0.1-3.2,1
				c-2.1,2.1-2,4-4.8,6c-2.1,1.5-4.9,2.4-7.3,3.2c-9.1,3-19,3.4-28.2,1.2c-8.5-2.1-16.1-6.7-24.2-9.7c-8.7-3.2-17.9-4.4-27.1-3.9
				c0.1,0.4,0.1,0.8,0.2,1.2c17.5-3.3,34.9,0.9,49.3,11.1c5,3.6,10.1,7.1,16.6,5.3c3.5-1,6.7-3.1,9.9-4.9c4.7-2.6,9.3-5.2,14-7.7
				C365.5,532.8,364.8,531.7,364.1,532.1L364.1,532.1z"/>
		</g>
	</g>
	<g>
		<path fill="#E6E6CC" d="M433.4,443.5c-4,0.6-5.6,5.9-4.1,9.7c1.5,3.8,4.8,6.4,7.5,9.4c2.7,3,5.1,7,3.8,10.9
			c5.2-4.1,5.3-13.2,0.2-17.4c-1.8-1.5-4-2.4-5.8-3.9c-1.8-1.5-3.1-4-2.1-6.1c1.2-2.7,4.9-2.8,7.8-2.9c3.6-0.1,7.6-0.9,9.9-3.7
			s1.6-8-1.9-9c-4,5.3-10.1,9-16.7,10c-1.8,0.3-3.7,0.4-5.1,1.4c-1.5,1-2.3,3.3-1.2,4.6c1.5,1.8,4.4,0.4,6.7,0.8
			c3.2,0.5,4.6,4.1,6.6,6.6c1.8,2.3,4.3,3.8,6.8,5.3c2.4,1.5,5.7,2.9,7.9,1.1c2.5-2.1,0.9-6.3-1.4-8.6c-5.4-5.4-13.8-7.6-21.1-5.4"
			/>
	</g>
	<g>
		<g>
			<path fill="#DAD980" d="M435.6,446.7c5.4,1.8,10.9,1.6,16.2-0.5c0.4-0.2,0.6-0.7,0.3-1c-5.3-5.3-14.3-4.6-18.8,1.4
				c-0.4,0.5,0.4,1.1,0.9,0.9c3.9-2.2,8.5-4.6,13-2.5c0-0.3-0.1-0.7-0.1-1c-0.6,0.2-1.1,0.4-1.7,0.6c-0.8,0-0.8,1.2,0,1.2
				c1.2,0.1,1.7-0.2,2.6-0.9c0.3-0.2,0.2-0.8-0.1-1c-5-2.3-9.9,0-14.3,2.5c0.3,0.3,0.6,0.6,0.9,0.9c4-5.3,12.2-5.8,16.9-1.1
				c0.1-0.3,0.2-0.7,0.3-1c-5.1,2-10.3,2.2-15.6,0.5C435.2,445.3,434.8,446.5,435.6,446.7L435.6,446.7z"/>
		</g>
	</g>
</g>
<g>
	<path fill="#FFFFFF" d="M802.5,1383.5h-848v-1426h848V1383.5z M-40.5,1378.5h838v-1416h-838V1378.5z"/>
</g>
</svg>
