<?xml version="1.0" encoding="utf-8"?>
<!-- Generator: Adobe Illustrator 18.0.0, SVG Export Plug-In . SVG Version: 6.00 Build 0)  -->
<!DOCTYPE svg PUBLIC "-//W3C//DTD SVG 1.1//EN" "http://www.w3.org/Graphics/SVG/1.1/DTD/svg11.dtd" [
	<!ENTITY ns_flows "http://ns.adobe.com/Flows/1.0/">
	<!ENTITY ns_extend "http://ns.adobe.com/Extensibility/1.0/">
	<!ENTITY ns_ai "http://ns.adobe.com/AdobeIllustrator/10.0/">
	<!ENTITY ns_graphs "http://ns.adobe.com/Graphs/1.0/">
]>
<svg version="1.1" id="Capa_1" xmlns:x="&ns_extend;" xmlns:i="&ns_ai;" xmlns:graph="&ns_graphs;"
	 xmlns="http://www.w3.org/2000/svg" xmlns:xlink="http://www.w3.org/1999/xlink" xmlns:a="http://ns.adobe.com/AdobeSVGViewerExtensions/3.0/"
	 x="0px" y="0px" viewBox="0 0 750 285.9" enable-background="new 0 0 750 285.9" xml:space="preserve">
<g>
	<polygon fill="#FFFFFF" points="2215,2067.7 2086.8,2067.7 2086.8,-674.3 3.5,-674.3 3.5,-681.3 2093.8,-681.3 2093.8,2060.7 
		2215,2060.7 	"/>
</g>
<g>
	<polygon fill="#FFFFFF" points="2155.5,4108.7 1988,4108.7 1988,-346.3 3.5,-346.3 3.5,-353.3 1995,-353.3 1995,4101.7 
		2155.5,4101.7 	"/>
</g>
<g>
	<g>
		<path fill="#FFFFFF" stroke="#FFFFFF" stroke-miterlimit="10" d="M69.3,113.9V75h8.9c3.5,0,6.1,0.8,7.9,2.4s2.6,4,2.6,7.4
			c0,5-1.9,7.7-5.6,8.2c2.3,0.6,4,1.6,5,3.2s1.6,3.8,1.6,6.6c0,3.5-0.8,6.2-2.5,8.2s-4.1,2.9-7.5,2.9H69.3z M74.7,91.2h3.2
			c2.2,0,3.8-0.5,4.7-1.5s1.3-2.7,1.3-5c0-0.8-0.1-1.4-0.2-2s-0.2-1.1-0.4-1.5s-0.4-0.7-0.8-1s-0.7-0.5-1.1-0.7s-0.8-0.3-1.5-0.4
			s-1.2-0.1-1.8-0.2s-1.3,0-2.2,0h-1.3V91.2z M74.7,110h3.7c2.3,0,3.9-0.6,4.8-1.7s1.3-3,1.3-5.6c0-2.5-0.5-4.3-1.5-5.6
			s-2.7-1.8-5-1.8h-3.2V110z"/>
		<path fill="#FFFFFF" stroke="#FFFFFF" stroke-miterlimit="10" d="M109.2,114.3c-1.9,0-3.6-0.3-5-0.9s-2.5-1.4-3.3-2.6
			s-1.4-2.4-1.8-3.9s-0.6-3.2-0.6-5.2V86.9c0-4,0.8-7.1,2.5-9.2s4.4-3.1,8.1-3.1c3.8,0,6.5,1.1,8.1,3.2s2.5,5.2,2.5,9.2v14.7
			c0,4-0.8,7.2-2.5,9.3S112.9,114.3,109.2,114.3z M106.5,109.5c0.7,0.3,1.6,0.5,2.6,0.5s1.9-0.2,2.6-0.5s1.2-0.8,1.6-1.5
			s0.6-1.4,0.7-2.2s0.2-1.8,0.2-3v-17c0-1.2-0.1-2.1-0.2-2.9s-0.4-1.5-0.7-2.2s-0.9-1.1-1.6-1.4s-1.6-0.5-2.6-0.5s-1.9,0.2-2.6,0.5
			s-1.2,0.8-1.6,1.4s-0.6,1.4-0.7,2.2s-0.2,1.8-0.2,2.9v17c0,1.2,0.1,2.2,0.2,3s0.4,1.5,0.7,2.2S105.8,109.2,106.5,109.5z"/>
		<path fill="#FFFFFF" stroke="#FFFFFF" stroke-miterlimit="10" d="M130,113.9V75h7.8c3.9,0,6.8,0.8,8.7,2.4s2.8,4.2,2.8,7.9
			c0,5-1.6,8-4.8,9.1l5.6,19.5h-5.2l-5.1-18.2h-4.2v18.2H130z M135.4,91.7h2c2.4,0,4-0.5,5.1-1.4s1.5-2.6,1.5-5.1c0-2.4-0.4-4-1.3-5
			s-2.5-1.4-4.9-1.4h-2.4V91.7z"/>
		<path fill="#FFFFFF" stroke="#FFFFFF" stroke-miterlimit="10" d="M159.7,113.9V75h8.4c4.2,0,7.2,1,8.9,2.9s2.6,4.9,2.6,9v14.3
			c0,4.3-0.9,7.4-2.6,9.6s-4.6,3.2-8.5,3.2H159.7z M165.1,110h3c0.8,0,1.6-0.1,2.2-0.2s1.2-0.4,1.6-0.6s0.8-0.6,1.1-1.1
			s0.5-1,0.7-1.4s0.3-1,0.3-1.9s0.1-1.5,0.1-2.1s0-1.4,0-2.5V87.5c0-0.9,0-1.7,0-2.4s-0.1-1.3-0.2-1.9s-0.2-1.2-0.4-1.6
			s-0.4-0.8-0.7-1.2s-0.7-0.6-1.1-0.8s-1-0.3-1.5-0.5S168.8,79,168,79h-2.9V110z"/>
		<path fill="#FFFFFF" stroke="#FFFFFF" stroke-miterlimit="10" d="M189.8,113.9V75h15v4h-9.6v12.8h7.8v3.9h-7.8V110h9.8v3.9H189.8z
			"/>
		<path fill="#FFFFFF" stroke="#FFFFFF" stroke-miterlimit="10" d="M243.5,113.9l8.3-38.9h5.2l8.3,38.9h-5.2l-1.8-9.8h-7.9l-1.9,9.8
			H243.5z M251.2,100.2h6.5l-3.3-17.6L251.2,100.2z"/>
		<path fill="#FFFFFF" stroke="#FFFFFF" stroke-miterlimit="10" d="M283.2,114.3c-3.3,0-5.8-1-7.5-3s-2.7-4.8-2.9-8.3l4.8-1.3
			c0.3,5.6,2.2,8.3,5.5,8.3c1.4,0,2.4-0.4,3.2-1.2s1.1-1.9,1.1-3.4c0-0.8-0.1-1.6-0.3-2.3s-0.5-1.3-1-2s-0.9-1.1-1.3-1.6
			s-1-1-1.7-1.7l-6.5-5.8c-1.3-1.2-2.3-2.4-2.9-3.8s-0.9-2.9-0.9-4.8c0-2.8,0.8-5,2.4-6.6s3.9-2.4,6.7-2.4c3.1,0,5.4,0.8,7,2.4
			s2.5,4.2,2.8,7.7l-4.6,1.3c-0.1-0.8-0.1-1.6-0.3-2.2s-0.3-1.3-0.5-2s-0.6-1.2-0.9-1.6s-0.8-0.7-1.4-1s-1.3-0.3-2.1-0.3
			c-2.9,0.2-4.3,1.6-4.3,4.3c0,1.1,0.2,2.1,0.6,2.9s1,1.6,2,2.4l6.6,5.8c1.7,1.5,3.1,3.2,4.1,4.9s1.5,3.7,1.5,6
			c0,2.8-0.9,5.1-2.6,6.8S286,114.3,283.2,114.3z"/>
		<path fill="#FFFFFF" stroke="#FFFFFF" stroke-miterlimit="10" d="M301.6,113.9V75h15v4H307v12.8h7.8v3.9H307V110h9.8v3.9H301.6z"
			/>
		<path fill="#FFFFFF" stroke="#FFFFFF" stroke-miterlimit="10" d="M325.9,113.9V75h7.8c3.9,0,6.8,0.8,8.7,2.4s2.8,4.2,2.8,7.9
			c0,5-1.6,8-4.8,9.1l5.6,19.5h-5.2l-5.1-18.2h-4.2v18.2H325.9z M331.3,91.7h2c2.4,0,4-0.5,5.1-1.4s1.5-2.6,1.5-5.1
			c0-2.4-0.4-4-1.3-5s-2.5-1.4-4.9-1.4h-2.4V91.7z"/>
		<path fill="#FFFFFF" stroke="#FFFFFF" stroke-miterlimit="10" d="M355.6,113.9V75h7.8c3.9,0,6.8,0.8,8.7,2.4s2.8,4.2,2.8,7.9
			c0,5-1.6,8-4.8,9.1l5.6,19.5h-5.2l-5.1-18.2H361v18.2H355.6z M361,91.7h2c2.4,0,4-0.5,5.1-1.4s1.5-2.6,1.5-5.1c0-2.4-0.4-4-1.3-5
			s-2.5-1.4-4.9-1.4H361V91.7z"/>
		<path fill="#FFFFFF" stroke="#FFFFFF" stroke-miterlimit="10" d="M383.2,113.9l8.3-38.9h5.2l8.3,38.9h-5.2l-1.8-9.8h-7.9l-1.9,9.8
			H383.2z M390.9,100.2h6.5l-3.3-17.6L390.9,100.2z"/>
		<path fill="#FFFFFF" stroke="#FFFFFF" stroke-miterlimit="10" d="M413.7,113.9V75h8.4c4.2,0,7.2,1,8.9,2.9s2.6,4.9,2.6,9v14.3
			c0,4.3-0.9,7.4-2.6,9.6s-4.6,3.2-8.5,3.2H413.7z M419.1,110h3c0.8,0,1.6-0.1,2.2-0.2s1.2-0.4,1.6-0.6s0.8-0.6,1.1-1.1
			s0.5-1,0.7-1.4s0.3-1,0.3-1.9s0.1-1.5,0.1-2.1s0-1.4,0-2.5V87.5c0-0.9,0-1.7,0-2.4s-0.1-1.3-0.2-1.9s-0.2-1.2-0.4-1.6
			s-0.4-0.8-0.7-1.2s-0.7-0.6-1.1-0.8s-1-0.3-1.5-0.5s-1.3-0.2-2.1-0.2h-2.9V110z"/>
		<path fill="#FFFFFF" stroke="#FFFFFF" stroke-miterlimit="10" d="M453.7,114.3c-1.9,0-3.6-0.3-5-0.9s-2.5-1.4-3.3-2.6
			s-1.4-2.4-1.8-3.9s-0.6-3.2-0.6-5.2V86.9c0-4,0.8-7.1,2.5-9.2s4.4-3.1,8.1-3.1c3.8,0,6.5,1.1,8.1,3.2s2.5,5.2,2.5,9.2v14.7
			c0,4-0.8,7.2-2.5,9.3S457.5,114.3,453.7,114.3z M451.1,109.5c0.7,0.3,1.6,0.5,2.6,0.5s1.9-0.2,2.6-0.5s1.2-0.8,1.6-1.5
			s0.6-1.4,0.7-2.2s0.2-1.8,0.2-3v-17c0-1.2-0.1-2.1-0.2-2.9s-0.4-1.5-0.7-2.2s-0.9-1.1-1.6-1.4s-1.6-0.5-2.6-0.5s-1.9,0.2-2.6,0.5
			s-1.2,0.8-1.6,1.4s-0.6,1.4-0.7,2.2s-0.2,1.8-0.2,2.9v17c0,1.2,0.1,2.2,0.2,3s0.4,1.5,0.7,2.2S450.4,109.2,451.1,109.5z"/>
		<path fill="#FFFFFF" stroke="#FFFFFF" stroke-miterlimit="10" d="M69.3,188.9V150h7.8c3.9,0,6.8,0.8,8.7,2.4s2.8,4.2,2.8,7.9
			c0,5-1.6,8-4.8,9.1l5.6,19.5h-5.2l-5.1-18.2h-4.2v18.2H69.3z M74.7,166.7h2c2.4,0,4-0.5,5.1-1.4s1.5-2.6,1.5-5.1
			c0-2.4-0.4-4-1.3-5s-2.5-1.4-4.9-1.4h-2.4V166.7z"/>
		<path fill="#FFFFFF" stroke="#FFFFFF" stroke-miterlimit="10" d="M99,188.9V150h15v4h-9.6v12.8h7.8v3.9h-7.8V185h9.8v3.9H99z"/>
		<path fill="#FFFFFF" stroke="#FFFFFF" stroke-miterlimit="10" d="M132.7,189.3c-3.5,0-6.1-1.1-7.6-3.3s-2.3-5.5-2.3-9.9v-13
			c0-1.8,0.1-3.3,0.3-4.7s0.5-2.6,1-3.7s1.1-2.1,1.9-2.8s1.8-1.3,3-1.7s2.6-0.6,4.2-0.6c3.6,0,6.2,0.9,7.8,2.7s2.4,4.7,2.4,8.6v1.4
			h-5.1v-1.2c0-1.1,0-2-0.1-2.7s-0.2-1.4-0.4-2s-0.5-1.1-0.8-1.5s-0.8-0.6-1.4-0.8s-1.3-0.3-2.2-0.3c-0.7,0-1.3,0.1-1.8,0.2
			s-1,0.3-1.3,0.6s-0.7,0.6-0.9,1s-0.4,0.9-0.6,1.3s-0.2,0.9-0.3,1.6s-0.1,1.2-0.1,1.8s0,1.2,0,2v14.4c0,3,0.4,5.1,1.1,6.4
			s2.1,1.9,4.1,1.9s3.4-0.7,4.2-2.1s1.1-3.7,1.1-6.8v-2.7h-4.9v-3.8h9.8v19.3h-3.4l-0.5-4.5C138.4,187.7,136.1,189.3,132.7,189.3z"
			/>
		<path fill="#FFFFFF" stroke="#FFFFFF" stroke-miterlimit="10" d="M168.2,188.6c-1.2,0.4-2.7,0.6-4.3,0.6s-3.1-0.2-4.3-0.6
			s-2.2-1-3-1.8s-1.4-1.7-1.8-2.9s-0.8-2.4-0.9-3.7s-0.3-2.8-0.3-4.6V150h5.2v26c0,1.1,0,2.1,0.1,2.9s0.2,1.6,0.4,2.4s0.5,1.5,0.9,2
			s0.9,0.9,1.5,1.2s1.4,0.5,2.3,0.5s1.7-0.2,2.3-0.5s1.1-0.7,1.5-1.2s0.7-1.2,0.9-2s0.4-1.6,0.4-2.4s0.1-1.8,0.1-2.9v-26h5.2v25.8
			c0,1.7-0.1,3.3-0.3,4.6s-0.5,2.5-0.9,3.7s-1.1,2.1-1.8,2.9S169.4,188.2,168.2,188.6z"/>
		<path fill="#FFFFFF" stroke="#FFFFFF" stroke-miterlimit="10" d="M184.8,188.9V150h5.4v35h9.9v3.9H184.8z"/>
		<path fill="#FFFFFF" stroke="#FFFFFF" stroke-miterlimit="10" d="M206.5,188.9l8.3-38.9h5.2l8.3,38.9h-5.2l-1.8-9.8h-7.9l-1.9,9.8
			H206.5z M214.2,175.2h6.5l-3.3-17.6L214.2,175.2z"/>
		<path fill="#FFFFFF" stroke="#FFFFFF" stroke-miterlimit="10" d="M237,188.9V150h7.8c3.9,0,6.8,0.8,8.7,2.4s2.8,4.2,2.8,7.9
			c0,5-1.6,8-4.8,9.1l5.6,19.5h-5.2l-5.1-18.2h-4.2v18.2H237z M242.4,166.7h2c2.4,0,4-0.5,5.1-1.4s1.5-2.6,1.5-5.1
			c0-2.4-0.4-4-1.3-5s-2.5-1.4-4.9-1.4h-2.4V166.7z"/>
	</g>
	<g>
		<g>
			<g>
				<g>
					<path fill="#59704B" d="M507.3,186.8c8.5,5.3,8.5,3.5,14.9,6.7c6.4,3.2,13.7,3.9,20.8,4.4c17,1.4,34.6,2.5,50.4-4
						c22.4-9.1,36.3-31.4,46.5-53.3c10.2-21.9,18.5-45.5,35.4-62.7c-16.1-7.1-34.5-7.4-51.7-3.7s-33.3,11.2-48.9,19.3
						c-24.7,12.9-49.2,28-65.7,50.5c-4.8,6.5-8.9,13.8-9.2,21.9C499.5,173.9,494.9,176,507.3,186.8"/>
				</g>
			</g>
			<g>
				<g>
					<path fill="#59704B" d="M492.2,204.9c3.2-5.1,6.4-10.1,9.7-15.2c2.6-4,6.3-10.9,12.1-9.7c0-3.2,0-6.4,0-9.6
						c-20.5,7.1-34.6,28-32.2,49.8c0.7,6.3,10.7,6.4,10,0c-1.9-17.2,8.3-34.4,24.9-40.2c4.3-1.5,5.2-8.6,0-9.6
						c-7.7-1.6-14.1,1.8-18.9,7.8c-5.3,6.7-9.6,14.5-14.2,21.7C480.2,205.3,488.8,210.3,492.2,204.9L492.2,204.9z"/>
				</g>
			</g>
		</g>
		<g>
			<g>
				<path fill="#59704B" d="M499.4,181.5c1.3-3.7-2-8.3-5.9-8.2c5.7-1.1,7.9-10,3.3-13.6c3.9,1.5,8.7-0.6,10.2-4.5
					s-0.5-8.7-4.2-10.3c2.7,1.9,6.9,1.2,8.9-1.5s1.3-6.9-1.4-8.9c2.8,1.2,6.3,0.9,8.5-1.2c2.2-2.1,2.6-6,0.4-8.1
					c2.3,2.5,6.7,2.7,9.2,0.5c2.6-2.3,2.9-6.6,0.7-9.2c2.5,2.1,6.5,2,8.9-0.2s2.8-6.2,0.8-8.8c1.4,3.5,6.3,4.6,9.4,2.6
					s4.2-6.4,3-9.9c1.2,3.3,5.9,4.6,8.8,2.6c2.9-2,3.7-6.4,1.8-9.4c1.6,2.6,5.3,3.8,8.1,2.5c2.8-1.3,4.4-4.8,3.6-7.7
					c0.9,3.3,5.5,4.5,8.5,2.8c3-1.7,4.4-5.3,4.7-8.7c0.1,3.8,5.6,5.5,8.6,3.3c3.1-2.2,3.7-6.7,2.8-10.3c1.7,2.5,5.3,3.6,8.1,2.5
					c2.8-1.2,4.6-4.4,4.1-7.4c0.8,3.8,5,6.4,8.7,5.6s6.5-4.8,5.9-8.6c0,3.5,3.2,6.6,6.7,6.6c3.5,0,6.6-3.1,6.7-6.6
					c0.1,3.5,3.5,6.6,7,6.3c3.5-0.3,6.4-4,5.7-7.4c-0.7,3.7,2.2,7.7,5.9,8.2c3.7,0.5,7.6-2.4,8-6.2c-0.9,3.1,1,6.8,4,7.9
					c3.1,1.1,6.8-0.6,8-3.6"/>
			</g>
			<g>
				<g>
					<path fill="#59704B" d="M500.6,181.9c1.1-5-2.1-9.3-7.1-9.8c0.1,0.8,0.2,1.6,0.3,2.5c6.7-2,8.9-10.8,3.9-15.7
						c-0.4,0.7-0.8,1.4-1.2,2.1c11,3.1,17.1-11.6,7-17.1c-1.4-0.8-2.7,1.4-1.3,2.2c8.3,4.5,16-5.8,9-12.4c-0.4,0.7-0.8,1.4-1.2,2.1
						c6.8,2.2,15.9-3.8,10.4-11.1c-0.7,0.5-1.3,1-2,1.5c7.3,6.3,17.4-2,11.9-10.2c-0.6,0.6-1.1,1.1-1.7,1.7c7.5,5,16-3,11.4-10.7
						c-0.8-1.4-2.9-0.2-2.2,1.3c1.9,3.6,6.3,5.3,10.2,3.6c4.6-2,5.8-7.4,4.6-11.9c-0.8,0.3-1.5,0.6-2.3,1c1.9,3.8,6.8,5.5,10.6,3.1
						c3.8-2.4,4.1-7.4,2.3-11.1c-0.7,0.5-1.3,1-2,1.5c5.5,6.9,15.3,1.9,13.8-6.5c-0.8,0.3-1.5,0.6-2.3,1c1.5,3.5,5.5,5,9,3.8
						c4.3-1.5,6-6.2,6.5-10.3c-0.8,0.1-1.6,0.2-2.5,0.3c0.7,4.2,5.5,6.3,9.3,4.7c4.8-2,5.3-7.9,4.5-12.4c-0.7,0.4-1.4,0.8-2.1,1.2
						c5.3,6.3,14.9,2.4,14.3-5.8c-0.8,0.1-1.6,0.2-2.5,0.3c3.3,10.2,17.9,7.5,17.1-3.3c-0.8,0-1.7,0-2.5,0c1.2,10,14.6,10.1,15.8,0
						c-0.8,0.1-1.6,0.2-2.5,0.3c1.5,10,15.9,8.9,15.1-1.4c-0.1-1.6-2.4-1.6-2.5,0c-0.9,10.7,14.1,12.9,16.3,2.4
						c-0.8-0.2-1.6-0.4-2.4-0.7c-1.7,9,9.9,13.5,14.3,5.2c0.8-1.4-1.4-2.7-2.2-1.3c-2.9,5.4-10.9,3-9.8-3.3c0.3-1.6-2.1-2.3-2.4-0.7
						c-1.6,7.5-12.1,6.2-11.4-1.7c-0.8,0-1.7,0-2.5,0c0.3,3.5-1.5,5.6-5,5.4c-2.9-0.1-4.7-1.7-5.2-4.7c-0.2-1.5-2.3-0.9-2.5,0.3
						c-0.8,6.9-10,6.9-10.8,0c-0.2-1.6-2.6-1.6-2.5,0c0.6,7.8-9.6,10.3-12.1,2.7c-0.4-1.3-2.6-1.1-2.5,0.3c0.4,6.1-6.3,8.5-10,4.1
						c-0.9-1-2.3,0.1-2.1,1.2c0.5,2.4,0.6,4.8-0.8,7c-1.9,3-7.3,4.4-8.2-0.6c-0.3-1.5-2.3-0.9-2.5,0.3c-0.3,2.6-1,4.8-3,6.6
						c-2.5,2.2-6.4,2.4-7.9-1.3c-0.6-1.4-2.5-0.3-2.3,1c1.1,6.3-6,8.6-9.6,4c-0.9-1.2-2.6,0.3-2,1.5c3,6-5.1,12.3-8.5,5.5
						c-0.7-1.3-2.6-0.4-2.3,1c0.7,2.7,0.6,5.9-1.7,8c-2.8,2.5-6.8,1.5-8.4-1.6c-0.7,0.4-1.4,0.8-2.2,1.3c3.2,5.5-2.9,10.8-8,7.3
						c-1-0.7-2.4,0.7-1.7,1.7c3.6,5.5-2.9,11.7-8,7.2c-1-0.9-2.9,0.3-2,1.5c4.2,5.5-3,8.9-7.5,7.4c-1.2-0.4-2.1,1.3-1.2,2.1
						c4.6,4.3-0.2,11.5-6,8.4c-0.4,0.7-0.8,1.4-1.3,2.2c7.4,4,3.2,14.8-5,12.5c-1.2-0.3-2.1,1.2-1.2,2.1c3.7,3.5,2.2,10.1-2.7,11.5
						c-1.4,0.4-1,2.3,0.3,2.5c3.4,0.3,5.4,3.4,4.7,6.6C497.8,182.8,500.2,183.4,500.6,181.9L500.6,181.9z"/>
				</g>
			</g>
		</g>
		<g>
			<g>
				<path fill="#59704B" d="M505.6,181.8c2.1-0.6,4.6,1,4.9,3.2c0.3,2.2-1.8,4.4-4,4.3c2.7-1.7,6.1-2.8,9.1-1.7
					c3,1.1,4.9,5.2,2.8,7.7c0.4-2.5,3.9-3.3,6-1.9c2.1,1.3,3.1,3.9,3.9,6.2c0.8-2.8,3.9-4.6,6.7-3.9c2.8,0.7,4.7,3.9,4,6.6
					c0.4-3.5,3.7-6.4,7.2-6.2c3.5,0.2,6.6,3.4,6.6,6.9c0.6-3.3,4-5.8,7.4-5.4c3.3,0.4,6.1,3.6,5.9,7c2.3-6.1,12.1-7.4,15.8-2.1
					c-1-3,1.6-6.4,4.7-7.1c3.1-0.7,6.4,0.6,9,2.3c0.2-2.9,2.2-5.6,4.9-6.6c2.7-1,6-0.3,8,1.8c-1.9-2.2-0.6-5.9,1.8-7.5
					s5.6-1.5,8.5-1.3c-3.6-0.8-4.4-6.2-2-9c2.4-2.8,6.5-3.4,10.2-3c-1.7-2.8-1.6-6.7,0.2-9.4c1.8-2.8,5.3-4.3,8.6-3.8
					c-3.5-1.7-3.2-7.2-0.4-9.9c2.8-2.7,7-3.2,10.8-3.5c-3.5,1.3-6.3-4.2-4.3-7.3c1.9-3.2,6-4.2,9.7-4.8c-4,1.1-7.1-4.8-5-8.5
					c2-3.7,6.6-5,10.8-5.5c-3.9-0.9-5.3-6.2-3.4-9.7s6-5.1,10-5.6c-4-0.4-4.8-6.5-1.9-9.3s7.2-3,11.2-3.1c-2.4,0.9-5-1.4-5.2-3.9
					c-0.1-2.5,1.7-4.8,3.9-6c2.2-1.2,4.8-1.5,7.3-1.8c-0.6-2.5-1.2-5.1-1.8-7.6"/>
			</g>
			<g>
				<g>
					<path fill="#59704B" d="M505.6,183.1c0.2,1.7,0.4,3.4,0.6,5.1c0.3,0.8,0.6,1.5,1,2.3c1.3-0.8,2.7-1.4,4.1-1.8c5-0.7,7,1.3,6,6
						c0.8,0.3,1.5,0.6,2.3,1c2.6-7.3,7.4,3.9,7.5,4.3c0.5,1.2,1.9,1.1,2.4,0c2.4-4,4.6-4.3,6.3-1c1.7,0.8,2.4,1.9,1.9,3.4
						c-0.2,1.4,2.2,1.7,2.5,0.3c1.3-6.4,10.5-6.9,11.4,0.3c0.2,1.3,2,1.8,2.5,0.3c1.9-6.2,10.5-5.3,10.9,1.2
						c0.1,1.1,1.8,1.9,2.3,0.6c2.5-5.5,10-6.5,13.9-1.8c0.9,1.1,2.3-0.1,2.1-1.2c1.5-4.9,4.1-6.6,7.9-5.3c1.4,0.5,2.8,1.1,4.1,2
						c0.6,0.4,1.7,0.1,1.8-0.7c0.9-5.5,6.3-8.1,10.8-4.3c1,0.9,2.8-0.2,2-1.5c0.2-1.7,0.4-3.5,0.7-5.2c1.3-1.1,2.8-1.7,4.4-1.7
						c1.4-0.2,2.8-0.1,4.2,0c1.5,0.1,1.6-2,0.3-2.5c-5.5-2.1-1.2-7.6,1.6-8.8c2-0.9,4.2-0.8,6.3-0.7c1,0.1,1.5-1.1,1.1-1.9
						c-2.9-5.9,1.3-11.7,7.7-11.4c1.3,0.1,1.6-1.7,0.6-2.3c-4.2-2.8-1.1-7.8,1.9-9.4c2.4-1.2,5.2-1.5,7.9-1.7
						c-0.1-0.8-0.2-1.6-0.3-2.5c-3-0.5-4-2.4-2.9-5.5c0.9-1.4,2.1-2.3,3.6-2.8c1.7-0.8,3.5-1.1,5.3-1.5c1.4-0.3,1.1-2.6-0.3-2.5
						c-2,0.2-3.8-1.3-4.2-3.1c-0.7-2.7,1-4.9,3.2-6.3c2.1-1.3,4.7-1.7,7.1-2.1c1.3-0.2,1-2,0-2.4c-1.7-0.6-3.3-3.2-3.3-5
						c0-2.2,1.3-4,3-5.3c2.1-1.5,4.4-2.2,6.9-2.6c1.2-0.2,1.2-2.2,0-2.4c-4.7-1-2.3-6.6,0.2-8.2c2.6-1.7,5.7-1.7,8.7-1.8
						c-0.1-0.8-0.2-1.6-0.3-2.5c-0.7-2.1-1.4-4.2-2.1-6.3c0.8-0.9,1.8-1.5,3-1.8c1.8-0.7,3.5-0.9,5.4-1.2c0.8-0.1,1.4-0.7,1.2-1.6
						c-0.6-2.5-1.2-5.1-1.8-7.6c-0.4-1.6-2.8-0.9-2.4,0.7c0.6,2.5,1.2,5.1,1.8,7.6c0.4-0.5,0.8-1.1,1.2-1.6
						c-4.7,0.6-11.2,1.9-12.3,7.5c-0.8,4.2,2.6,7.3,6.6,6.7c1.4-0.2,1.1-2.5-0.3-2.5c-5,0.1-11.8,0.6-13.7,6.1
						c-1.3,3.6,0.2,7.9,4.1,8.7c0-0.8,0-1.6,0-2.4c-4.7,0.8-10.2,3-11.5,8.2c-1.1,4.1,0.9,8.1,4.9,9.5c0-0.8,0-1.6,0-2.4
						c-5,0.7-11.7,2.7-12.3,8.7c-0.4,4.1,2.6,8.3,6.9,7.7c-0.1-0.8-0.2-1.6-0.3-2.5c-4.4,0.8-10.9,2.6-11.2,8.1
						c-0.2,3.8,2.7,7.1,6.5,6.4c1.4-0.3,1.1-2.6-0.3-2.5c-4.8,0.4-10.9,1.1-13.3,6c-1.8,3.5-1.1,7.5,2.2,9.7
						c0.2-0.8,0.4-1.6,0.6-2.3c-8.5-0.5-13.6,7.6-9.9,15.1c0.4-0.6,0.7-1.3,1.1-1.9c-4.6-0.3-10.6,0.6-12.4,5.6
						c-1.3,3.6,0.3,7.4,3.8,8.7c0.1-0.8,0.2-1.6,0.3-2.5c-3.8-0.2-8.1-0.2-10.8,2.9c-2,2.3-2.2,5.2-0.6,7.7c0.7-0.5,1.3-1,2-1.5
						c-5.7-4.8-13.8-2.2-15,5.4c0.6-0.2,1.2-0.5,1.8-0.7c-3.4-2.1-7.7-3.8-11.6-1.9c-3.2,1.6-4.6,4.7-4,8c0.7-0.4,1.4-0.8,2.1-1.2
						c-4.8-5.8-14.7-4.5-17.8,2.3c0.8,0.2,1.6,0.4,2.3,0.6c-0.6-9.5-13-11.1-15.8-1.9c0.8,0.1,1.6,0.2,2.5,0.3
						c-1.1-9.7-14.2-10.8-16.3-1c0.8,0.1,1.6,0.2,2.5,0.3c0.9-8.5-10-10.7-13.1-3.1c0.8,0,1.6,0,2.4,0c-1.2-3.3-2.9-7.3-6.9-7.7
						c-2.6-0.3-4.7,1-5.5,3.4c-0.5,1.4,1.6,2.1,2.3,1c1.8-3,1-6.6-1.9-8.6c-3.6-2.6-8.2-0.9-11.7,1c-1.3,0.7-0.3,2.5,1,2.3
						c7-1,5.8-10.6-1.2-10C504,180.7,504,183.2,505.6,183.1L505.6,183.1z"/>
				</g>
			</g>
		</g>
	</g>
</g>
</svg>
