<?xml version="1.0" encoding="utf-8"?>
<!-- Generator: Adobe Illustrator 18.0.0, SVG Export Plug-In . SVG Version: 6.00 Build 0)  -->
<!DOCTYPE svg PUBLIC "-//W3C//DTD SVG 1.1//EN" "http://www.w3.org/Graphics/SVG/1.1/DTD/svg11.dtd" [
	<!ENTITY ns_flows "http://ns.adobe.com/Flows/1.0/">
	<!ENTITY ns_extend "http://ns.adobe.com/Extensibility/1.0/">
	<!ENTITY ns_ai "http://ns.adobe.com/AdobeIllustrator/10.0/">
	<!ENTITY ns_graphs "http://ns.adobe.com/Graphs/1.0/">
]>
<svg version="1.1" id="Capa_1" xmlns:x="&ns_extend;" xmlns:i="&ns_ai;" xmlns:graph="&ns_graphs;"
	 xmlns="http://www.w3.org/2000/svg" xmlns:xlink="http://www.w3.org/1999/xlink" xmlns:a="http://ns.adobe.com/AdobeSVGViewerExtensions/3.0/"
	 x="0px" y="0px" viewBox="0 0 750 285.9" enable-background="new 0 0 750 285.9" xml:space="preserve">
<g>
	<g>
		<path fill="#FFFFFF" stroke="#FFFFFF" stroke-miterlimit="10" d="M98.4,204.5v-38.9h8.9c3.5,0,6.1,0.8,7.9,2.4s2.6,4,2.6,7.4
			c0,5-1.9,7.7-5.6,8.2c2.3,0.6,4,1.6,5,3.2s1.6,3.8,1.6,6.6c0,3.5-0.8,6.2-2.5,8.2s-4.1,2.9-7.5,2.9H98.4z M103.8,181.8h3.2
			c2.2,0,3.8-0.5,4.7-1.5s1.3-2.7,1.3-5c0-0.8-0.1-1.4-0.2-2s-0.2-1.1-0.4-1.5s-0.4-0.7-0.8-1s-0.7-0.5-1.1-0.7s-0.8-0.3-1.5-0.4
			s-1.2-0.1-1.8-0.2s-1.3,0-2.2,0h-1.3V181.8z M103.8,200.6h3.7c2.3,0,3.9-0.6,4.8-1.7s1.3-3,1.3-5.6c0-2.5-0.5-4.3-1.5-5.6
			s-2.7-1.8-5-1.8h-3.2V200.6z"/>
		<path fill="#FFFFFF" stroke="#FFFFFF" stroke-miterlimit="10" d="M138.2,204.9c-1.9,0-3.6-0.3-5-0.9s-2.5-1.4-3.3-2.6
			s-1.4-2.4-1.8-3.9s-0.6-3.2-0.6-5.2v-14.7c0-4,0.8-7.1,2.5-9.2s4.4-3.1,8.1-3.1c3.8,0,6.5,1.1,8.1,3.2s2.5,5.2,2.5,9.2v14.7
			c0,4-0.8,7.2-2.5,9.3S142,204.9,138.2,204.9z M135.6,200.2c0.7,0.3,1.6,0.5,2.6,0.5s1.9-0.2,2.6-0.5s1.2-0.8,1.6-1.5
			s0.6-1.4,0.7-2.2s0.2-1.8,0.2-3v-17c0-1.2-0.1-2.1-0.2-2.9s-0.4-1.5-0.7-2.2s-0.9-1.1-1.6-1.4s-1.6-0.5-2.6-0.5s-1.9,0.2-2.6,0.5
			s-1.2,0.8-1.6,1.4s-0.6,1.4-0.7,2.2s-0.2,1.8-0.2,2.9v17c0,1.2,0.1,2.2,0.2,3s0.4,1.5,0.7,2.2S134.9,199.8,135.6,200.2z"/>
		<path fill="#FFFFFF" stroke="#FFFFFF" stroke-miterlimit="10" d="M159,204.5v-38.9h7.8c3.9,0,6.8,0.8,8.7,2.4s2.8,4.2,2.8,7.9
			c0,5-1.6,8-4.8,9.1l5.6,19.5h-5.2l-5.1-18.2h-4.2v18.2H159z M164.4,182.4h2c2.4,0,4-0.5,5.1-1.4s1.5-2.6,1.5-5.1
			c0-2.4-0.4-4-1.3-5s-2.5-1.4-4.9-1.4h-2.4V182.4z"/>
		<path fill="#FFFFFF" stroke="#FFFFFF" stroke-miterlimit="10" d="M188.7,204.5v-38.9h8.4c4.2,0,7.2,1,8.9,2.9s2.6,4.9,2.6,9v14.3
			c0,4.3-0.9,7.4-2.6,9.6s-4.6,3.2-8.5,3.2H188.7z M194.1,200.6h3c0.8,0,1.6-0.1,2.2-0.2s1.2-0.4,1.6-0.6s0.8-0.6,1.1-1.1
			s0.5-1,0.7-1.4s0.3-1,0.3-1.9s0.1-1.5,0.1-2.1s0-1.4,0-2.5v-12.6c0-0.9,0-1.7,0-2.4s-0.1-1.3-0.2-1.9s-0.2-1.2-0.4-1.6
			s-0.4-0.8-0.7-1.2s-0.7-0.6-1.1-0.8s-1-0.3-1.5-0.5s-1.3-0.2-2.1-0.2h-2.9V200.6z"/>
		<path fill="#FFFFFF" stroke="#FFFFFF" stroke-miterlimit="10" d="M218.8,204.5v-38.9h15v4h-9.6v12.8h7.8v3.9h-7.8v14.2h9.8v3.9
			H218.8z"/>
		<path fill="#FFFFFF" stroke="#FFFFFF" stroke-miterlimit="10" d="M274.7,204.5v-38.9h5.4v35h9.9v3.9H274.7z"/>
		<path fill="#FFFFFF" stroke="#FFFFFF" stroke-miterlimit="10" d="M298.8,204.5v-38.9h5.3v38.9H298.8z"/>
		<path fill="#FFFFFF" stroke="#FFFFFF" stroke-miterlimit="10" d="M324.4,204.9c-3.3,0-5.8-1-7.5-3s-2.7-4.8-2.9-8.3l4.8-1.3
			c0.3,5.6,2.2,8.3,5.5,8.3c1.4,0,2.4-0.4,3.2-1.2s1.1-1.9,1.1-3.4c0-0.8-0.1-1.6-0.3-2.3s-0.5-1.3-1-2s-0.9-1.1-1.3-1.6
			s-1-1-1.7-1.7l-6.5-5.8c-1.3-1.2-2.3-2.4-2.9-3.8s-0.9-2.9-0.9-4.8c0-2.8,0.8-5,2.4-6.6s3.9-2.4,6.7-2.4c3.1,0,5.4,0.8,7,2.4
			s2.5,4.2,2.8,7.7l-4.6,1.3c-0.1-0.8-0.1-1.6-0.3-2.2s-0.3-1.3-0.5-2s-0.6-1.2-0.9-1.6s-0.8-0.7-1.4-1s-1.3-0.3-2.1-0.3
			c-2.9,0.2-4.3,1.6-4.3,4.3c0,1.1,0.2,2.1,0.6,2.9s1,1.6,2,2.4l6.6,5.8c1.7,1.5,3.1,3.2,4.1,4.9s1.5,3.7,1.5,6
			c0,2.8-0.9,5.1-2.6,6.8S327.1,204.9,324.4,204.9z"/>
		<path fill="#FFFFFF" stroke="#FFFFFF" stroke-miterlimit="10" d="M352.6,204.9c-1.9,0-3.6-0.3-5-0.9s-2.5-1.4-3.3-2.6
			s-1.4-2.4-1.8-3.9s-0.6-3.2-0.6-5.2v-14.7c0-4,0.8-7.1,2.5-9.2s4.4-3.1,8.1-3.1c3.8,0,6.5,1.1,8.1,3.2s2.5,5.2,2.5,9.2v14.7
			c0,4-0.8,7.2-2.5,9.3S356.4,204.9,352.6,204.9z M350,200.2c0.7,0.3,1.6,0.5,2.6,0.5s1.9-0.2,2.6-0.5s1.2-0.8,1.6-1.5
			s0.6-1.4,0.7-2.2s0.2-1.8,0.2-3v-17c0-1.2-0.1-2.1-0.2-2.9s-0.4-1.5-0.7-2.2s-0.9-1.1-1.6-1.4s-1.6-0.5-2.6-0.5s-1.9,0.2-2.6,0.5
			s-1.2,0.8-1.6,1.4s-0.6,1.4-0.7,2.2s-0.2,1.8-0.2,2.9v17c0,1.2,0.1,2.2,0.2,3s0.4,1.5,0.7,2.2S349.3,199.8,350,200.2z"/>
	</g>
	<g>
		<g>
			<g>
				<path fill="#59704B" d="M498.8,183.5c9,5.6,8.9,3.7,15.6,7c6.7,3.4,14.4,4.1,21.9,4.7c17.8,1.5,36.4,2.6,53-4.2
					c23.5-9.6,38.2-33,48.9-56s19.5-47.9,37.3-66c-16.9-7.5-36.3-7.8-54.4-3.9c-18.1,3.9-35,11.8-51.4,20.3
					c-26,13.5-51.7,29.5-69.1,53.1c-5,6.8-9.4,14.6-9.7,23C490.6,169.9,485.8,172.1,498.8,183.5"/>
			</g>
		</g>
		<g>
			<g>
				<path fill="#59704B" d="M482.8,202.4c3.6-5.6,7.1-11.2,10.7-16.8c2.7-4.2,6.5-10.8,12.5-9.5c0-3.2,0-6.4,0-9.6
					c-21.4,7.4-36.2,29.4-33.7,52.1c0.7,6.3,10.7,6.4,10,0c-2-18.2,8.9-36.5,26.4-42.5c4.3-1.5,5.1-8.5,0-9.6
					c-7.7-1.7-14.3,1.7-19.2,7.6c-5.9,7.1-10.3,15.6-15.3,23.4C470.7,202.8,479.3,207.8,482.8,202.4L482.8,202.4z"/>
			</g>
		</g>
	</g>
</g>
</svg>
