<?xml version="1.0" encoding="utf-8"?>
<!-- Generator: Adobe Illustrator 18.0.0, SVG Export Plug-In . SVG Version: 6.00 Build 0)  -->
<!DOCTYPE svg PUBLIC "-//W3C//DTD SVG 1.1//EN" "http://www.w3.org/Graphics/SVG/1.1/DTD/svg11.dtd" [
	<!ENTITY ns_flows "http://ns.adobe.com/Flows/1.0/">
	<!ENTITY ns_extend "http://ns.adobe.com/Extensibility/1.0/">
	<!ENTITY ns_ai "http://ns.adobe.com/AdobeIllustrator/10.0/">
	<!ENTITY ns_graphs "http://ns.adobe.com/Graphs/1.0/">
]>
<svg version="1.1" id="Capa_1" xmlns:x="&ns_extend;" xmlns:i="&ns_ai;" xmlns:graph="&ns_graphs;"
	 xmlns="http://www.w3.org/2000/svg" xmlns:xlink="http://www.w3.org/1999/xlink" xmlns:a="http://ns.adobe.com/AdobeSVGViewerExtensions/3.0/"
	 x="0px" y="0px" viewBox="0 0 595.3 841.9" enable-background="new 0 0 595.3 841.9" xml:space="preserve">
<g>
	<g>
		<path fill="#FFFFFF" stroke="#FFFFFF" stroke-miterlimit="10" d="M90.7,204l8.2-43.3h10.8l8.2,43.3h-8.8l-1.5-9.2h-6.3l-1.5,9.2
			H90.7z M102.1,189.1h4.6l-2.3-16.8L102.1,189.1z"/>
		<path fill="#FFFFFF" stroke="#FFFFFF" stroke-miterlimit="10" d="M127.6,204v-43.3h9.6v36.9h9.9v6.5H127.6z"/>
		<path fill="#FFFFFF" stroke="#FFFFFF" stroke-miterlimit="10" d="M175.6,204l0.7-43.3h10.2l4.8,25.4l5.2-25.4h9.9l0.7,43.3h-6.8
			l-0.7-28.8l-5.1,28.8h-6l-5.3-29l-0.7,29H175.6z"/>
		<path fill="#FFFFFF" stroke="#FFFFFF" stroke-miterlimit="10" d="M218.8,204v-43.3h19.5v6.5h-9.9v10.7h7.6v6.7h-7.6v12.9h10v6.5
			H218.8z"/>
		<path fill="#FFFFFF" stroke="#FFFFFF" stroke-miterlimit="10" d="M248,204v-43.3h6.7l8.9,20.8v-20.8h7.9V204h-6.5l-8.9-22.4V204
			H248z"/>
		<path fill="#FFFFFF" stroke="#FFFFFF" stroke-miterlimit="10" d="M295.8,204.6c-2.4,0-4.5-0.3-6.2-1c-1.7-0.6-3-1.6-4.1-2.8
			c-1-1.3-1.7-2.7-2.2-4.5c-0.4-1.7-0.7-3.7-0.7-6v-16c0-2.3,0.2-4.4,0.7-6.1c0.4-1.7,1.2-3.2,2.2-4.4c1-1.3,2.4-2.2,4.1-2.8
			c1.7-0.6,3.8-0.9,6.2-0.9c4.7,0,8,1.2,10.1,3.6s3,5.9,3,10.7v16c0,4.7-1,8.3-3,10.7C303.8,203.4,300.5,204.6,295.8,204.6z
			 M294.3,197.5c0.4,0.2,0.9,0.3,1.5,0.3s1.1-0.1,1.5-0.3c0.4-0.2,0.7-0.5,1-0.8c0.2-0.3,0.4-0.7,0.5-1.2c0.1-0.5,0.2-0.9,0.2-1.4
			s0.1-0.9,0.1-1.5v-20.8c0-0.6,0-1.1-0.1-1.5c0-0.4-0.1-0.9-0.2-1.4c-0.1-0.5-0.3-0.9-0.5-1.2c-0.2-0.3-0.5-0.5-1-0.7
			c-0.4-0.2-0.9-0.3-1.5-0.3s-1.1,0.1-1.5,0.3c-0.4,0.2-0.7,0.4-1,0.7c-0.2,0.3-0.4,0.7-0.5,1.2c-0.1,0.5-0.2,0.9-0.2,1.3
			c0,0.4,0,0.9,0,1.5v20.8c0,0.6,0,1.1,0,1.5c0,0.4,0.1,0.9,0.2,1.4c0.1,0.5,0.3,0.9,0.5,1.2C293.6,197.1,293.9,197.3,294.3,197.5z"
			/>
		<path fill="#FFFFFF" stroke="#FFFFFF" stroke-miterlimit="10" d="M331.5,204.6c-4.1,0-7.2-1.1-9.2-3.3c-2-2.2-3.1-5.7-3.3-10.5
			l8.2-1.3c0,2.7,0.4,4.7,1,5.9c0.6,1.2,1.5,1.8,2.8,1.8c1.6,0,2.4-1,2.4-3.1c0-1.2-0.2-2.2-0.6-3.2c-0.4-1-0.9-1.8-1.5-2.5
			c-0.6-0.7-1.5-1.5-2.6-2.5l-3.8-3.3c-0.9-0.8-1.7-1.5-2.3-2.2c-0.6-0.7-1.2-1.5-1.8-2.4c-0.6-0.9-1-1.9-1.3-3
			c-0.3-1.1-0.4-2.3-0.4-3.7c0-3.6,1.1-6.4,3.2-8.4s5.1-3,8.9-3c1.3,0,2.5,0.1,3.5,0.4c1.1,0.3,1.9,0.6,2.7,1.1s1.4,1,1.9,1.7
			c0.5,0.7,1,1.4,1.3,2.1s0.6,1.5,0.8,2.3c0.2,0.9,0.4,1.7,0.4,2.4c0.1,0.7,0.1,1.5,0.2,2.3l-8.3,1.1c0-0.7,0-1.3-0.1-1.8
			c0-0.5-0.1-1-0.1-1.5c-0.1-0.5-0.2-1-0.3-1.3s-0.3-0.6-0.5-0.9s-0.5-0.5-0.8-0.6s-0.7-0.2-1.1-0.2c-0.8,0-1.5,0.4-1.9,1.1
			c-0.4,0.7-0.7,1.5-0.7,2.3c0,0.8,0.1,1.6,0.3,2.2c0.2,0.7,0.5,1.3,1,1.9c0.5,0.6,0.9,1.1,1.2,1.4s0.8,0.8,1.6,1.5l3.7,3.2
			c1,0.9,1.9,1.8,2.6,2.6c0.7,0.8,1.4,1.8,2.1,2.8c0.7,1.1,1.2,2.2,1.5,3.5c0.3,1.3,0.5,2.6,0.5,4.1c0,3.1-1,5.7-3.1,7.8
			C337.7,203.6,334.9,204.6,331.5,204.6z"/>
		<path fill="#FFFFFF" stroke="#FFFFFF" stroke-miterlimit="10" d="M372,204v-43.3h10.9c2.8,0,5.2,0.3,7.1,0.8
			c1.9,0.5,3.4,1.3,4.5,2.5c1.1,1.2,1.9,2.6,2.4,4.2c0.5,1.7,0.7,3.8,0.7,6.3V190c0,2.5-0.2,4.6-0.7,6.3s-1.2,3.1-2.4,4.3
			c-1.1,1.2-2.6,2-4.4,2.5s-4.2,0.8-7,0.8H372z M381.5,197.4h1.5c0.7,0,1.4,0,1.9-0.1c0.5-0.1,0.9-0.3,1.3-0.5
			c0.3-0.2,0.6-0.5,0.8-0.8c0.2-0.3,0.3-0.7,0.4-1.2c0.1-0.5,0.2-1,0.2-1.5s0-1.1,0-1.9v-18.6c0-1.1,0-1.9-0.1-2.5
			c-0.1-0.6-0.3-1.1-0.6-1.6c-0.3-0.5-0.8-0.8-1.4-1c-0.6-0.2-1.5-0.3-2.5-0.3h-1.4V197.4z"/>
		<path fill="#FFFFFF" stroke="#FFFFFF" stroke-miterlimit="10" d="M421,204.6c-2.4,0-4.5-0.3-6.2-1c-1.7-0.6-3-1.6-4.1-2.8
			c-1-1.3-1.7-2.7-2.2-4.5c-0.4-1.7-0.7-3.7-0.7-6v-16c0-2.3,0.2-4.4,0.7-6.1c0.4-1.7,1.2-3.2,2.2-4.4c1-1.3,2.4-2.2,4.1-2.8
			c1.7-0.6,3.8-0.9,6.2-0.9c4.7,0,8,1.2,10.1,3.6s3,5.9,3,10.7v16c0,4.7-1,8.3-3,10.7C429.1,203.4,425.7,204.6,421,204.6z
			 M419.6,197.5c0.4,0.2,0.9,0.3,1.5,0.3s1.1-0.1,1.5-0.3c0.4-0.2,0.7-0.5,1-0.8c0.2-0.3,0.4-0.7,0.5-1.2c0.1-0.5,0.2-0.9,0.2-1.4
			s0.1-0.9,0.1-1.5v-20.8c0-0.6,0-1.1-0.1-1.5c0-0.4-0.1-0.9-0.2-1.4c-0.1-0.5-0.3-0.9-0.5-1.2c-0.2-0.3-0.5-0.5-1-0.7
			c-0.4-0.2-0.9-0.3-1.5-0.3s-1.1,0.1-1.5,0.3c-0.4,0.2-0.7,0.4-1,0.7c-0.2,0.3-0.4,0.7-0.5,1.2c-0.1,0.5-0.2,0.9-0.2,1.3
			c0,0.4,0,0.9,0,1.5v20.8c0,0.6,0,1.1,0,1.5c0,0.4,0.1,0.9,0.2,1.4c0.1,0.5,0.3,0.9,0.5,1.2C418.8,197.1,419.2,197.3,419.6,197.5z"
			/>
		<path fill="#FFFFFF" stroke="#FFFFFF" stroke-miterlimit="10" d="M456.8,204.6c-4.1,0-7.2-1.1-9.2-3.3c-2-2.2-3.1-5.7-3.3-10.5
			l8.2-1.3c0,2.7,0.4,4.7,1,5.9c0.6,1.2,1.5,1.8,2.8,1.8c1.6,0,2.4-1,2.4-3.1c0-1.2-0.2-2.2-0.6-3.2c-0.4-1-0.9-1.8-1.5-2.5
			c-0.6-0.7-1.5-1.5-2.6-2.5l-3.8-3.3c-0.9-0.8-1.7-1.5-2.3-2.2c-0.6-0.7-1.2-1.5-1.8-2.4c-0.6-0.9-1-1.9-1.3-3
			c-0.3-1.1-0.4-2.3-0.4-3.7c0-3.6,1.1-6.4,3.2-8.4s5.1-3,8.9-3c1.3,0,2.5,0.1,3.5,0.4c1.1,0.3,1.9,0.6,2.7,1.1s1.4,1,1.9,1.7
			c0.5,0.7,1,1.4,1.3,2.1s0.6,1.5,0.8,2.3c0.2,0.9,0.4,1.7,0.4,2.4c0.1,0.7,0.1,1.5,0.2,2.3l-8.3,1.1c0-0.7,0-1.3-0.1-1.8
			c0-0.5-0.1-1-0.1-1.5c-0.1-0.5-0.2-1-0.3-1.3s-0.3-0.6-0.5-0.9s-0.5-0.5-0.8-0.6s-0.7-0.2-1.1-0.2c-0.8,0-1.5,0.4-1.9,1.1
			c-0.4,0.7-0.7,1.5-0.7,2.3c0,0.8,0.1,1.6,0.3,2.2c0.2,0.7,0.5,1.3,1,1.9c0.5,0.6,0.9,1.1,1.2,1.4s0.8,0.8,1.6,1.5l3.7,3.2
			c1,0.9,1.9,1.8,2.6,2.6c0.7,0.8,1.4,1.8,2.1,2.8c0.7,1.1,1.2,2.2,1.5,3.5c0.3,1.3,0.5,2.6,0.5,4.1c0,3.1-1,5.7-3.1,7.8
			C462.9,203.6,460.2,204.6,456.8,204.6z"/>
		<path fill="#FFFFFF" stroke="#FFFFFF" stroke-miterlimit="10" d="M144.8,268.3v-43.3h19.5v6.5h-9.9v10.7h7.6v6.7h-7.6v12.9h10v6.5
			H144.8z"/>
		<path fill="#FFFFFF" stroke="#FFFFFF" stroke-miterlimit="10" d="M174.1,268.3v-43.3h6.7l8.9,20.8v-20.8h7.9v43.3h-6.5l-8.9-22.4
			v22.4H174.1z"/>
		<path fill="#FFFFFF" stroke="#FFFFFF" stroke-miterlimit="10" d="M228.5,268.3v-43.3h9.6v36.9h9.9v6.5H228.5z"/>
		<path fill="#FFFFFF" stroke="#FFFFFF" stroke-miterlimit="10" d="M255.5,268.3l8.2-43.3h10.8l8.2,43.3h-8.8l-1.5-9.2H266l-1.5,9.2
			H255.5z M266.9,253.3h4.6l-2.3-16.8L266.9,253.3z"/>
		<path fill="#FFFFFF" stroke="#FFFFFF" stroke-miterlimit="10" d="M311.5,268.3v-43.3h11.3c1.6,0,3.1,0.1,4.3,0.2
			c1.3,0.2,2.5,0.5,3.8,1c1.2,0.5,2.3,1.1,3.1,1.9c0.8,0.8,1.5,1.9,1.9,3.3c0.5,1.3,0.7,2.8,0.7,4.5c0,0.1,0,0.2,0,0.4
			c-0.1,5.1-2.2,8-6.4,8.7c2.5,0.3,4.4,1.4,5.7,3.1c1.3,1.8,2,4.2,2,7.3c0,0.1,0,0.2,0,0.3c0,4.2-1.1,7.4-3.3,9.4
			c-2.3,2.1-5.5,3.1-9.8,3.1H311.5z M321.1,242.3h1.8c2.1,0,3.5-0.5,4.2-1.4c0.7-0.9,1.1-2.4,1.1-4.4c0-3.4-1.9-5.1-5.6-5.1h-1.5
			V242.3z M321.1,261.6h2c2.1,0,3.5-0.5,4.4-1.5s1.3-2.6,1.3-4.8c0-2.4-0.4-4.2-1.3-5.2c-0.9-1-2.3-1.5-4.5-1.5h-1.9V261.6z"/>
		<path fill="#FFFFFF" stroke="#FFFFFF" stroke-miterlimit="10" d="M346.1,268.3l8.2-43.3h10.8l8.2,43.3h-8.8l-1.5-9.2h-6.3
			l-1.5,9.2H346.1z M357.5,253.3h4.6l-2.3-16.8L357.5,253.3z"/>
		<path fill="#FFFFFF" stroke="#FFFFFF" stroke-miterlimit="10" d="M394.5,268.9c-4.1,0-7.2-1.1-9.2-3.3c-2-2.2-3.1-5.7-3.3-10.5
			l8.2-1.3c0,2.7,0.4,4.7,1,5.9c0.6,1.2,1.5,1.8,2.8,1.8c1.6,0,2.4-1,2.4-3.1c0-1.2-0.2-2.2-0.6-3.2c-0.4-1-0.9-1.8-1.5-2.5
			c-0.6-0.7-1.5-1.5-2.6-2.5l-3.8-3.3c-0.9-0.8-1.7-1.5-2.3-2.2s-1.2-1.5-1.8-2.4c-0.6-0.9-1-1.9-1.3-3c-0.3-1.1-0.4-2.3-0.4-3.7
			c0-3.6,1.1-6.4,3.2-8.4c2.2-2,5.1-3,8.9-3c1.3,0,2.5,0.1,3.5,0.4c1.1,0.3,1.9,0.6,2.7,1.1c0.7,0.5,1.4,1,1.9,1.7s1,1.4,1.3,2.1
			s0.6,1.5,0.8,2.3c0.2,0.9,0.4,1.7,0.4,2.4c0.1,0.7,0.1,1.5,0.2,2.3l-8.3,1.1c0-0.7,0-1.3-0.1-1.8c0-0.5-0.1-1-0.1-1.5
			s-0.2-1-0.3-1.3s-0.3-0.6-0.5-0.9c-0.2-0.3-0.5-0.5-0.8-0.6s-0.7-0.2-1.1-0.2c-0.8,0-1.5,0.4-1.9,1.1c-0.4,0.7-0.7,1.5-0.7,2.3
			c0,0.8,0.1,1.6,0.3,2.2c0.2,0.7,0.5,1.3,1,1.9c0.5,0.6,0.9,1.1,1.2,1.4c0.3,0.3,0.8,0.8,1.6,1.5l3.7,3.2c1,0.9,1.9,1.8,2.6,2.6
			c0.7,0.8,1.4,1.8,2.1,2.8c0.7,1.1,1.2,2.2,1.5,3.5c0.3,1.3,0.5,2.6,0.5,4.1c0,3.1-1,5.7-3.1,7.8
			C400.7,267.8,397.9,268.9,394.5,268.9z"/>
		<path fill="#FFFFFF" stroke="#FFFFFF" stroke-miterlimit="10" d="M415.9,268.3v-43.3h19.5v6.5h-9.9v10.7h7.6v6.7h-7.6v12.9h10v6.5
			H415.9z"/>
	</g>
	<g>
		<g>
			<path fill="#59704B" d="M162.4,609.2c17.3,10.8,17.3,7.1,30.3,13.6c13,6.5,27.9,7.8,42.3,9c34.6,2.8,70.6,5,102.7-8.1
				c45.6-18.6,74-63.9,94.7-108.5s37.7-92.7,72.2-127.8c-32.7-14.5-70.3-15.1-105.3-7.6c-35,7.5-67.8,22.8-99.5,39.3
				c-50.3,26.2-100.1,57.1-133.8,102.8c-9.7,13.2-18.2,28.2-18.8,44.5S137.3,587.1,162.4,609.2"/>
		</g>
	</g>
	<g>
		<g>
			<path fill="#59704B" d="M127.4,643.4c7.3-11.5,14.6-23.1,22-34.6c6.1-9.4,15.2-21.8,28.1-18.5c0-3.2,0-6.4,0-9.6
				c-39.5,13.2-66.7,54.9-61.8,96.5c0.7,6.3,10.8,6.4,10,0c-4.4-37,18.9-74.9,54.5-86.8c4.5-1.5,5-8.4,0-9.6
				c-14.5-3.6-26.6,5.4-34.8,16.5c-9.7,13.1-17.8,27.6-26.6,41.3C115.3,643.8,123.9,648.9,127.4,643.4L127.4,643.4z"/>
		</g>
	</g>
	<g opacity="0.4">
		<g>
			<path fill="#8B9D80" d="M167.3,588.6c18.7-30.5,50.9-50,83.5-64.6c32.6-14.6,67.2-25.5,97.4-44.6c44.2-27.8,79.3-72.8,130.1-85
				c-55.1,9.7-87.6,67.1-136.3,94.9c-14.8,8.4-30.9,14.1-46.8,20.1c-26.1,9.9-51.9,20.9-77.1,33c-22.1,10.6-46.7,26.1-48.7,50.5
				c-2.1,1.8-5.3-2.6-3-4.1"/>
		</g>
		<g>
			<g>
				<path fill="#8B9D80" d="M168.6,589.4c27-43.4,77.2-62,122.3-80.4c23.3-9.5,46.3-19.8,67.1-34.2c18.4-12.8,35.1-27.8,52.7-41.7
					c20.4-16.2,42.4-30.9,68.1-37.2c1.9-0.5,1.1-3.2-0.8-2.9c-45.1,8.3-75.1,46.7-108.3,74.8c-9.4,7.9-19.2,15.2-29.9,21.2
					c-13.2,7.3-27.4,12.5-41.5,17.7c-27.9,10.4-55.4,22-82.1,35c-11.4,5.6-22.7,12-32,20.7c-4.4,4.2-8.4,8.9-11.3,14.3
					c-1.3,2.5-2.5,5.1-3.3,7.8c-0.4,1.3-0.7,2.6-1,4c-0.2,0.9-0.3,1.8-0.4,2.7c-0.1,1-0.3,0.6-0.6-1.2c1.4-1.4-0.7-3.5-2.1-2.1
					c-1.9,1.9-1.4,5.1,1,6.5c3.9,2.2,4.4-1.7,4.9-4.4c2.3-13.1,11.5-23.4,21.8-31.1c10.5-7.9,22.5-13.6,34.4-19.2
					c15.1-7.1,30.4-13.8,45.9-20.1c27.4-11.1,56.7-19.3,81.2-36.4c19.7-13.7,36.4-30.9,54.1-46.9c20.2-18.3,42.5-35.2,69.9-40.3
					c-0.3-1-0.5-1.9-0.8-2.9c-45.8,11.3-78.4,47.7-115.2,74.7c-21.3,15.7-44.9,27-69.3,37c-23.8,9.8-47.9,18.8-70.3,31.5
					c-22.6,12.8-43.3,29.4-57.1,51.6C165,589.5,167.5,591,168.6,589.4L168.6,589.4z"/>
			</g>
		</g>
	</g>
	<g opacity="0.4">
		<g>
			<path fill="#8B9D80" d="M211.5,568.4c-3.1-4.5-10.7-4.3-14.1,0c-3.3,4.3-2,11.3,2.5,14.5c4.5,3.2,11.1,2.4,15.1-1.2
				c2.7-2.4,4.4-6.3,3.3-9.7c-1.1-3.5-5.5-5.8-8.6-3.9"/>
		</g>
		<g>
			<g>
				<path fill="#8B9D80" d="M212.6,567.3c-4.2-5.2-13-4.9-16.7,0.7c-4,6-0.8,14.7,5.7,17.3c7,2.8,16.1-1,18.2-8.4
					c1.9-6.6-4-13.4-10.8-10.3c-1.8,0.8-0.2,3.4,1.5,2.6c3-1.4,6,1.1,6.5,4c0.5,2.7-1,5.5-3,7.3c-3.6,3.2-10.1,3.9-13.8,0.5
					c-3.2-2.9-4.2-8.2-1.5-11.7c2.9-3.9,8.9-3.5,11.8,0.1C211.7,570.9,213.8,568.8,212.6,567.3L212.6,567.3z"/>
			</g>
		</g>
	</g>
	<g opacity="0.4">
		<g>
			<path fill="#8B9D80" d="M177.5,539.4c-3.1-4.5-10.7-4.3-14.1,0c-3.3,4.3-2,11.3,2.5,14.5c4.5,3.2,11.1,2.4,15.1-1.2
				c2.7-2.4,4.4-6.3,3.3-9.7c-1.1-3.5-5.5-5.8-8.6-3.9"/>
		</g>
		<g>
			<g>
				<path fill="#8B9D80" d="M178.6,538.3c-4.2-5.2-13-4.9-16.7,0.7c-4,6-0.8,14.7,5.7,17.3c7,2.8,16.1-1,18.2-8.4
					c1.9-6.6-4-13.4-10.8-10.3c-1.8,0.8-0.2,3.4,1.5,2.6c3-1.4,6,1.1,6.5,4c0.5,2.7-1,5.5-3,7.3c-3.6,3.2-10.1,3.9-13.8,0.5
					c-3.2-2.9-4.2-8.2-1.5-11.7c2.9-3.9,8.9-3.5,11.8,0.1C177.7,541.9,179.8,539.8,178.6,538.3L178.6,538.3z"/>
			</g>
		</g>
	</g>
</g>
</svg>
