<?xml version="1.0" encoding="utf-8"?>
<!-- Generator: Adobe Illustrator 18.0.0, SVG Export Plug-In . SVG Version: 6.00 Build 0)  -->
<!DOCTYPE svg PUBLIC "-//W3C//DTD SVG 1.1//EN" "http://www.w3.org/Graphics/SVG/1.1/DTD/svg11.dtd" [
	<!ENTITY ns_flows "http://ns.adobe.com/Flows/1.0/">
	<!ENTITY ns_extend "http://ns.adobe.com/Extensibility/1.0/">
	<!ENTITY ns_ai "http://ns.adobe.com/AdobeIllustrator/10.0/">
	<!ENTITY ns_graphs "http://ns.adobe.com/Graphs/1.0/">
]>
<svg version="1.1" id="Capa_1" xmlns:x="&ns_extend;" xmlns:i="&ns_ai;" xmlns:graph="&ns_graphs;"
	 xmlns="http://www.w3.org/2000/svg" xmlns:xlink="http://www.w3.org/1999/xlink" xmlns:a="http://ns.adobe.com/AdobeSVGViewerExtensions/3.0/"
	 x="0px" y="0px" viewBox="0 0 595.3 841.9" enable-background="new 0 0 595.3 841.9" xml:space="preserve">
<g>
	<g>
		<path fill="#FFFFFF" stroke="#FFFFFF" stroke-miterlimit="10" d="M102.4,185.3v-32.2h7c3.5,0,5.9,0.8,7.4,2.4s2.1,4.1,2.1,7.5
			v11.8c0,3.5-0.7,6.2-2.1,7.9c-1.4,1.7-3.8,2.6-7.1,2.6H102.4z M106.9,182.1h2.5c0.7,0,1.3-0.1,1.8-0.2c0.5-0.1,1-0.3,1.3-0.5
			c0.3-0.2,0.6-0.5,0.9-0.9c0.2-0.4,0.4-0.8,0.5-1.1s0.2-0.9,0.3-1.6c0.1-0.7,0.1-1.3,0.1-1.8c0-0.5,0-1.2,0-2.1v-10.5
			c0-0.8,0-1.4,0-2c0-0.5-0.1-1.1-0.2-1.6c-0.1-0.5-0.2-1-0.3-1.3s-0.4-0.7-0.6-1c-0.2-0.3-0.6-0.5-0.9-0.7
			c-0.4-0.2-0.8-0.3-1.3-0.4c-0.5-0.1-1.1-0.1-1.7-0.1h-2.4V182.1z"/>
		<path fill="#FFFFFF" stroke="#FFFFFF" stroke-miterlimit="10" d="M127.6,185.3v-32.2h4.4v32.2H127.6z"/>
		<path fill="#FFFFFF" stroke="#FFFFFF" stroke-miterlimit="10" d="M148.8,185.6c-2.7,0-4.8-0.8-6.2-2.5s-2.2-4-2.4-6.9l4-1.1
			c0.3,4.6,1.8,6.9,4.6,6.9c1.2,0,2-0.3,2.6-1c0.6-0.6,0.9-1.6,0.9-2.8c0-0.7-0.1-1.3-0.2-1.9c-0.2-0.6-0.4-1.1-0.8-1.6
			s-0.7-0.9-1-1.3c-0.3-0.3-0.8-0.8-1.4-1.4l-5.4-4.8c-1.1-1-1.9-2-2.4-3.1c-0.5-1.1-0.7-2.4-0.7-4c0-2.3,0.7-4.1,2-5.4
			c1.4-1.3,3.2-2,5.5-2c2.6,0,4.5,0.6,5.8,2c1.3,1.4,2.1,3.5,2.3,6.3l-3.8,1c-0.1-0.7-0.1-1.3-0.2-1.9c-0.1-0.5-0.2-1.1-0.4-1.6
			s-0.5-1-0.8-1.3s-0.7-0.6-1.2-0.8c-0.5-0.2-1.1-0.3-1.7-0.2c-2.4,0.2-3.6,1.3-3.6,3.5c0,0.9,0.2,1.7,0.5,2.4
			c0.3,0.6,0.9,1.3,1.6,2l5.4,4.8c1.4,1.3,2.5,2.6,3.4,4.1c0.8,1.5,1.3,3.1,1.3,4.9c0,2.4-0.7,4.2-2.1,5.6
			C152.9,184.9,151,185.6,148.8,185.6z"/>
		<path fill="#FFFFFF" stroke="#FFFFFF" stroke-miterlimit="10" d="M164,185.3v-32.2h8c2.8,0,4.8,0.8,6.1,2.3
			c1.3,1.5,1.9,3.7,1.9,6.6c0,2.6-0.7,4.7-2,6.1c-1.4,1.5-3.3,2.2-5.9,2.2h-3.5v15H164z M168.5,167.1h2c2,0,3.3-0.3,4.1-1
			c0.7-0.7,1.1-2,1.1-4c0-0.8,0-1.5-0.1-2c0-0.5-0.1-1-0.3-1.5c-0.1-0.5-0.3-0.8-0.5-1.1c-0.2-0.3-0.5-0.5-0.9-0.7
			c-0.4-0.2-0.9-0.3-1.4-0.4c-0.5-0.1-1.2-0.1-2-0.1h-2.1V167.1z"/>
		<path fill="#FFFFFF" stroke="#FFFFFF" stroke-miterlimit="10" d="M198.9,185.1c-1,0.4-2.2,0.5-3.6,0.5c-1.4,0-2.6-0.2-3.6-0.5
			s-1.8-0.8-2.5-1.5c-0.6-0.6-1.1-1.4-1.5-2.4c-0.4-1-0.6-2-0.8-3.1c-0.1-1.1-0.2-2.3-0.2-3.8v-21.3h4.3v21.6c0,0.9,0,1.7,0.1,2.4
			s0.2,1.3,0.3,2c0.2,0.7,0.4,1.2,0.7,1.6c0.3,0.4,0.7,0.8,1.3,1c0.5,0.3,1.2,0.4,1.9,0.4s1.4-0.1,1.9-0.4c0.5-0.3,0.9-0.6,1.2-1
			c0.3-0.4,0.5-1,0.7-1.6c0.2-0.7,0.3-1.3,0.3-2s0.1-1.5,0.1-2.4v-21.6h4.3v21.3c0,1.4-0.1,2.7-0.2,3.8c-0.1,1.1-0.4,2.1-0.8,3.1
			c-0.4,1-0.9,1.8-1.5,2.4C200.8,184.3,199.9,184.7,198.9,185.1z"/>
		<path fill="#FFFFFF" stroke="#FFFFFF" stroke-miterlimit="10" d="M212.7,185.3v-32.2h12.5v3.3h-8V167h6.5v3.2h-6.5v11.8h8.1v3.2
			H212.7z"/>
		<path fill="#FFFFFF" stroke="#FFFFFF" stroke-miterlimit="10" d="M240.4,185.6c-2.7,0-4.8-0.8-6.2-2.5s-2.2-4-2.4-6.9l4-1.1
			c0.3,4.6,1.8,6.9,4.6,6.9c1.2,0,2-0.3,2.6-1c0.6-0.6,0.9-1.6,0.9-2.8c0-0.7-0.1-1.3-0.2-1.9c-0.2-0.6-0.4-1.1-0.8-1.6
			s-0.7-0.9-1-1.3c-0.3-0.3-0.8-0.8-1.4-1.4l-5.4-4.8c-1.1-1-1.9-2-2.4-3.1c-0.5-1.1-0.7-2.4-0.7-4c0-2.3,0.7-4.1,2-5.4
			c1.4-1.3,3.2-2,5.5-2c2.6,0,4.5,0.6,5.8,2c1.3,1.4,2.1,3.5,2.3,6.3l-3.8,1c-0.1-0.7-0.1-1.3-0.2-1.9c-0.1-0.5-0.2-1.1-0.4-1.6
			s-0.5-1-0.8-1.3s-0.7-0.6-1.2-0.8c-0.5-0.2-1.1-0.3-1.7-0.2c-2.4,0.2-3.6,1.3-3.6,3.5c0,0.9,0.2,1.7,0.5,2.4
			c0.3,0.6,0.9,1.3,1.6,2l5.4,4.8c1.4,1.3,2.5,2.6,3.4,4.1c0.8,1.5,1.3,3.1,1.3,4.9c0,2.4-0.7,4.2-2.1,5.6
			C244.6,184.9,242.7,185.6,240.4,185.6z"/>
		<path fill="#FFFFFF" stroke="#FFFFFF" stroke-miterlimit="10" d="M258.9,185.3v-28.9H253v-3.3h16v3.3h-5.7v28.9H258.9z"/>
		<path fill="#FFFFFF" stroke="#FFFFFF" stroke-miterlimit="10" d="M273.6,185.3l6.9-32.2h4.3l6.9,32.2h-4.3l-1.5-8.1h-6.5l-1.5,8.1
			H273.6z M280,174h5.4l-2.7-14.5L280,174z"/>
		<path fill="#FFFFFF" stroke="#FFFFFF" stroke-miterlimit="10" d="M306.5,185.6c-2.7,0-4.8-0.8-6.2-2.5s-2.2-4-2.4-6.9l4-1.1
			c0.3,4.6,1.8,6.9,4.6,6.9c1.2,0,2-0.3,2.6-1c0.6-0.6,0.9-1.6,0.9-2.8c0-0.7-0.1-1.3-0.2-1.9c-0.2-0.6-0.4-1.1-0.8-1.6
			s-0.7-0.9-1-1.3c-0.3-0.3-0.8-0.8-1.4-1.4l-5.4-4.8c-1.1-1-1.9-2-2.4-3.1c-0.5-1.1-0.7-2.4-0.7-4c0-2.3,0.7-4.1,2-5.4
			c1.4-1.3,3.2-2,5.5-2c2.6,0,4.5,0.6,5.8,2c1.3,1.4,2.1,3.5,2.3,6.3l-3.8,1c-0.1-0.7-0.1-1.3-0.2-1.9c-0.1-0.5-0.2-1.1-0.4-1.6
			s-0.5-1-0.8-1.3s-0.7-0.6-1.2-0.8c-0.5-0.2-1.1-0.3-1.7-0.2c-2.4,0.2-3.6,1.3-3.6,3.5c0,0.9,0.2,1.7,0.5,2.4
			c0.3,0.6,0.9,1.3,1.6,2l5.4,4.8c1.4,1.3,2.5,2.6,3.4,4.1c0.8,1.5,1.3,3.1,1.3,4.9c0,2.4-0.7,4.2-2.1,5.6
			C310.7,184.9,308.8,185.6,306.5,185.6z"/>
		<path fill="#FFFFFF" stroke="#FFFFFF" stroke-miterlimit="10" d="M334.8,185.3v-32.2h12.5v3.3h-8V167h6.5v3.2h-6.5v11.8h8.1v3.2
			H334.8z"/>
		<path fill="#FFFFFF" stroke="#FFFFFF" stroke-miterlimit="10" d="M355,185.3v-32.2h3l9.1,21.4v-21.4h3.7v32.2h-2.9l-9.3-22v22H355
			z"/>
		<path fill="#FFFFFF" stroke="#FFFFFF" stroke-miterlimit="10" d="M393.1,185.3v-32.2h12.4v3.2h-7.9V167h6.2v3.2h-6.2v15.1H393.1z"
			/>
		<path fill="#FFFFFF" stroke="#FFFFFF" stroke-miterlimit="10" d="M420.8,185.6c-1.6,0-3-0.2-4.1-0.7s-2.1-1.2-2.7-2.1
			c-0.7-0.9-1.2-2-1.5-3.3c-0.3-1.2-0.5-2.7-0.5-4.4V163c0-3.4,0.7-5.9,2-7.6c1.4-1.7,3.6-2.6,6.8-2.6c3.1,0,5.4,0.9,6.7,2.6
			c1.4,1.7,2.1,4.3,2.1,7.6v12.2c0,3.4-0.7,5.9-2.1,7.7C426.1,184.7,423.9,185.6,420.8,185.6z M418.6,181.7c0.6,0.3,1.3,0.4,2.2,0.4
			c0.9,0,1.6-0.1,2.2-0.4c0.6-0.3,1-0.7,1.3-1.2c0.3-0.6,0.5-1.2,0.6-1.8c0.1-0.7,0.2-1.5,0.2-2.5V162c0-1-0.1-1.8-0.2-2.4
			c-0.1-0.6-0.3-1.2-0.6-1.8s-0.7-0.9-1.3-1.2c-0.6-0.3-1.3-0.4-2.2-0.4c-0.9,0-1.6,0.1-2.2,0.4s-1,0.7-1.3,1.2s-0.5,1.1-0.6,1.8
			c-0.1,0.6-0.2,1.5-0.2,2.4v14.1c0,1,0.1,1.8,0.2,2.5c0.1,0.7,0.3,1.3,0.6,1.8C417.6,181,418,181.4,418.6,181.7z"/>
		<path fill="#FFFFFF" stroke="#FFFFFF" stroke-miterlimit="10" d="M438,185.3v-32.2h6.5c3.3,0,5.7,0.7,7.2,2
			c1.5,1.3,2.3,3.5,2.3,6.5c0,4.1-1.3,6.6-4,7.5l4.6,16.2h-4.4l-4.2-15.1h-3.5v15.1H438z M442.5,166.9h1.7c2,0,3.4-0.4,4.2-1.2
			c0.8-0.8,1.3-2.2,1.3-4.2c0-2-0.4-3.3-1.1-4.1s-2.1-1.2-4.1-1.2h-2V166.9z"/>
		<path fill="#FFFFFF" stroke="#FFFFFF" stroke-miterlimit="10" d="M462.5,185.3l0.6-32.2h4.4l5.7,26.1l5.7-26.1h4.4l0.6,32.2h-3.6
			l-0.3-23.4l-5.5,23.4H472l-5.4-23.4l-0.3,23.4H462.5z"/>
		<path fill="#FFFFFF" stroke="#FFFFFF" stroke-miterlimit="10" d="M491.1,185.3l6.9-32.2h4.3l6.9,32.2h-4.3l-1.5-8.1h-6.5l-1.5,8.1
			H491.1z M497.4,174h5.4l-2.7-14.5L497.4,174z"/>
		<path fill="#FFFFFF" stroke="#FFFFFF" stroke-miterlimit="10" d="M223.3,238.5l-7.2-32.2h4.2l5.1,23.7l4.9-23.7h4.1l-7.1,32.2
			H223.3z"/>
		<path fill="#FFFFFF" stroke="#FFFFFF" stroke-miterlimit="10" d="M241.8,238.5v-32.2h12.5v3.3h-8v10.6h6.5v3.2h-6.5v11.8h8.1v3.2
			H241.8z"/>
		<path fill="#FFFFFF" stroke="#FFFFFF" stroke-miterlimit="10" d="M261.9,238.5v-32.2h6.5c3.3,0,5.7,0.7,7.2,2
			c1.5,1.3,2.3,3.5,2.3,6.5c0,4.1-1.3,6.6-4,7.5l4.6,16.2h-4.4l-4.2-15.1h-3.5v15.1H261.9z M266.4,220.1h1.7c2,0,3.4-0.4,4.2-1.2
			c0.8-0.8,1.3-2.2,1.3-4.2c0-2-0.4-3.3-1.1-4.1s-2.1-1.2-4.1-1.2h-2V220.1z"/>
		<path fill="#FFFFFF" stroke="#FFFFFF" stroke-miterlimit="10" d="M289.9,238.5v-28.9H284v-3.3h16v3.3h-5.7v28.9H289.9z"/>
		<path fill="#FFFFFF" stroke="#FFFFFF" stroke-miterlimit="10" d="M306.7,238.5v-32.2h4.4v32.2H306.7z"/>
		<path fill="#FFFFFF" stroke="#FFFFFF" stroke-miterlimit="10" d="M328.3,238.8c-1.3,0-2.5-0.2-3.5-0.5c-1-0.4-1.8-0.9-2.5-1.5
			c-0.6-0.6-1.2-1.4-1.6-2.3s-0.7-1.9-0.8-2.9s-0.2-2.2-0.2-3.4v-11.4c0-1.4,0.1-2.6,0.2-3.6s0.4-2.1,0.8-3s0.9-1.7,1.6-2.3
			c0.6-0.6,1.5-1.1,2.5-1.4c1-0.3,2.2-0.5,3.5-0.5c2.9,0,5,0.8,6.2,2.4c1.3,1.6,1.9,3.9,1.9,6.9v2.6h-4.3v-2.3c0-0.5,0-0.9,0-1.2
			s0-0.6,0-1c0-0.4-0.1-0.7-0.1-1s-0.1-0.5-0.2-0.8c-0.1-0.3-0.2-0.6-0.3-0.7c-0.1-0.2-0.3-0.4-0.5-0.6c-0.2-0.2-0.4-0.3-0.7-0.4
			s-0.5-0.2-0.9-0.2c-0.3-0.1-0.7-0.1-1.1-0.1c-0.6,0-1.2,0.1-1.6,0.2c-0.5,0.1-0.8,0.3-1.1,0.6s-0.5,0.6-0.7,1s-0.3,0.8-0.4,1.4
			c-0.1,0.6-0.2,1.1-0.2,1.6c0,0.5,0,1.1,0,1.9v12.7c0,2.4,0.3,4.1,0.9,5.1c0.6,0.9,1.7,1.4,3.2,1.4c0.6,0,1.1-0.1,1.5-0.2
			c0.4-0.1,0.8-0.3,1.1-0.6s0.5-0.6,0.7-0.9c0.2-0.3,0.3-0.8,0.4-1.3c0.1-0.6,0.1-1.1,0.1-1.5s0-1.1,0-1.8v-2.4h4.3v2.4
			c0,1.2-0.1,2.3-0.2,3.3c-0.2,1-0.4,1.9-0.8,2.7c-0.4,0.8-0.9,1.6-1.5,2.1c-0.6,0.6-1.4,1-2.3,1.3
			C330.7,238.7,329.6,238.8,328.3,238.8z"/>
		<path fill="#FFFFFF" stroke="#FFFFFF" stroke-miterlimit="10" d="M343,238.5l6.9-32.2h4.3l6.9,32.2h-4.3l-1.5-8.1h-6.5l-1.5,8.1
			H343z M349.3,227.2h5.4l-2.7-14.5L349.3,227.2z"/>
		<path fill="#FFFFFF" stroke="#FFFFFF" stroke-miterlimit="10" d="M368.3,238.5v-32.2h4.5v29h8.2v3.2H368.3z"/>
		<path fill="#FFFFFF" stroke="#FFFFFF" stroke-miterlimit="10" d="M32.3,291.7v-11.4l-7-20.8h4.2l4.9,15.5l4.9-15.5h4.2l-6.9,20.8
			v11.4H32.3z"/>
		<path fill="#FFFFFF" stroke="#FFFFFF" stroke-miterlimit="10" d="M63.6,291.7v-32.2h7c3.5,0,5.9,0.8,7.4,2.4s2.1,4.1,2.1,7.5v11.8
			c0,3.5-0.7,6.2-2.1,7.9c-1.4,1.7-3.8,2.6-7.1,2.6H63.6z M68.1,288.5h2.5c0.7,0,1.3-0.1,1.8-0.2c0.5-0.1,1-0.3,1.3-0.5
			c0.3-0.2,0.6-0.5,0.9-0.9c0.2-0.4,0.4-0.8,0.5-1.1s0.2-0.9,0.3-1.6c0.1-0.7,0.1-1.3,0.1-1.8c0-0.5,0-1.2,0-2.1v-10.5
			c0-0.8,0-1.4,0-2c0-0.5-0.1-1.1-0.2-1.6c-0.1-0.5-0.2-1-0.3-1.3s-0.4-0.7-0.6-1c-0.2-0.3-0.6-0.5-0.9-0.7
			c-0.4-0.2-0.8-0.3-1.3-0.4c-0.5-0.1-1.1-0.1-1.7-0.1h-2.4V288.5z"/>
		<path fill="#FFFFFF" stroke="#FFFFFF" stroke-miterlimit="10" d="M88.5,291.7v-32.2H101v3.3h-8v10.6h6.5v3.2H93v11.8h8.1v3.2H88.5
			z"/>
		<path fill="#FFFFFF" stroke="#FFFFFF" stroke-miterlimit="10" d="M116.3,292c-2.7,0-4.8-0.8-6.2-2.5s-2.2-4-2.4-6.9l4-1.1
			c0.3,4.6,1.8,6.9,4.6,6.9c1.2,0,2-0.3,2.6-1c0.6-0.6,0.9-1.6,0.9-2.8c0-0.7-0.1-1.3-0.2-1.9c-0.2-0.6-0.4-1.1-0.8-1.6
			s-0.7-0.9-1-1.3c-0.3-0.3-0.8-0.8-1.4-1.4l-5.4-4.8c-1.1-1-1.9-2-2.4-3.1c-0.5-1.1-0.7-2.4-0.7-4c0-2.3,0.7-4.1,2-5.4
			c1.4-1.3,3.2-2,5.5-2c2.6,0,4.5,0.6,5.8,2c1.3,1.4,2.1,3.5,2.3,6.3l-3.8,1c-0.1-0.7-0.1-1.3-0.2-1.9c-0.1-0.5-0.2-1.1-0.4-1.6
			s-0.5-1-0.8-1.3s-0.7-0.6-1.2-0.8c-0.5-0.2-1.1-0.3-1.7-0.2c-2.4,0.2-3.6,1.3-3.6,3.5c0,0.9,0.2,1.7,0.5,2.4
			c0.3,0.6,0.9,1.3,1.6,2l5.4,4.8c1.4,1.3,2.5,2.6,3.4,4.1c0.8,1.5,1.3,3.1,1.3,4.9c0,2.4-0.7,4.2-2.1,5.6
			C120.4,291.3,118.6,292,116.3,292z"/>
		<path fill="#FFFFFF" stroke="#FFFFFF" stroke-miterlimit="10" d="M139.7,292c-1.6,0-3-0.2-4.1-0.7s-2.1-1.2-2.7-2.1
			c-0.7-0.9-1.2-2-1.5-3.3c-0.3-1.2-0.5-2.7-0.5-4.4v-12.2c0-3.4,0.7-5.9,2-7.6c1.4-1.7,3.6-2.6,6.8-2.6c3.1,0,5.4,0.9,6.7,2.6
			c1.4,1.7,2.1,4.3,2.1,7.6v12.2c0,3.4-0.7,5.9-2.1,7.7C145.1,291.1,142.8,292,139.7,292z M137.5,288.1c0.6,0.3,1.3,0.4,2.2,0.4
			c0.9,0,1.6-0.1,2.2-0.4c0.6-0.3,1-0.7,1.3-1.2c0.3-0.6,0.5-1.2,0.6-1.8c0.1-0.7,0.2-1.5,0.2-2.5v-14.1c0-1-0.1-1.8-0.2-2.4
			c-0.1-0.6-0.3-1.2-0.6-1.8s-0.7-0.9-1.3-1.2c-0.6-0.3-1.3-0.4-2.2-0.4c-0.9,0-1.6,0.1-2.2,0.4s-1,0.7-1.3,1.2s-0.5,1.1-0.6,1.8
			c-0.1,0.6-0.2,1.5-0.2,2.4v14.1c0,1,0.1,1.8,0.2,2.5c0.1,0.7,0.3,1.3,0.6,1.8C136.5,287.4,136.9,287.8,137.5,288.1z"/>
		<path fill="#FFFFFF" stroke="#FFFFFF" stroke-miterlimit="10" d="M156.9,291.7v-32.2h6.5c3.3,0,5.7,0.7,7.2,2
			c1.5,1.3,2.3,3.5,2.3,6.5c0,4.1-1.3,6.6-4,7.5l4.6,16.2h-4.4l-4.2-15.1h-3.5v15.1H156.9z M161.4,273.3h1.7c2,0,3.4-0.4,4.2-1.2
			c0.8-0.8,1.3-2.2,1.3-4.2c0-2-0.4-3.3-1.1-4.1s-2.1-1.2-4.1-1.2h-2V273.3z"/>
		<path fill="#FFFFFF" stroke="#FFFFFF" stroke-miterlimit="10" d="M181.6,291.7v-32.2h7c3.5,0,5.9,0.8,7.4,2.4s2.1,4.1,2.1,7.5
			v11.8c0,3.5-0.7,6.2-2.1,7.9c-1.4,1.7-3.8,2.6-7.1,2.6H181.6z M186,288.5h2.5c0.7,0,1.3-0.1,1.8-0.2c0.5-0.1,1-0.3,1.3-0.5
			c0.3-0.2,0.6-0.5,0.9-0.9c0.2-0.4,0.4-0.8,0.5-1.1s0.2-0.9,0.3-1.6c0.1-0.7,0.1-1.3,0.1-1.8c0-0.5,0-1.2,0-2.1v-10.5
			c0-0.8,0-1.4,0-2c0-0.5-0.1-1.1-0.2-1.6c-0.1-0.5-0.2-1-0.3-1.3s-0.4-0.7-0.6-1c-0.2-0.3-0.6-0.5-0.9-0.7
			c-0.4-0.2-0.8-0.3-1.3-0.4c-0.5-0.1-1.1-0.1-1.7-0.1H186V288.5z"/>
		<path fill="#FFFFFF" stroke="#FFFFFF" stroke-miterlimit="10" d="M206.5,291.7v-32.2H219v3.3h-8v10.6h6.5v3.2H211v11.8h8.1v3.2
			H206.5z"/>
		<path fill="#FFFFFF" stroke="#FFFFFF" stroke-miterlimit="10" d="M226.7,291.7v-32.2h3l9.1,21.4v-21.4h3.7v32.2h-2.9l-9.3-22v22
			H226.7z"/>
		<path fill="#FFFFFF" stroke="#FFFFFF" stroke-miterlimit="10" d="M249.9,291.7l6.9-32.2h4.3l6.9,32.2h-4.3l-1.5-8.1h-6.5l-1.5,8.1
			H249.9z M256.2,280.4h5.4l-2.7-14.5L256.2,280.4z"/>
		<path fill="#FFFFFF" stroke="#FFFFFF" stroke-miterlimit="10" d="M275.2,291.7v-32.2h7c3.5,0,5.9,0.8,7.4,2.4s2.1,4.1,2.1,7.5
			v11.8c0,3.5-0.7,6.2-2.1,7.9c-1.4,1.7-3.8,2.6-7.1,2.6H275.2z M279.7,288.5h2.5c0.7,0,1.3-0.1,1.8-0.2c0.5-0.1,1-0.3,1.3-0.5
			c0.3-0.2,0.6-0.5,0.9-0.9c0.2-0.4,0.4-0.8,0.5-1.1s0.2-0.9,0.3-1.6c0.1-0.7,0.1-1.3,0.1-1.8c0-0.5,0-1.2,0-2.1v-10.5
			c0-0.8,0-1.4,0-2c0-0.5-0.1-1.1-0.2-1.6c-0.1-0.5-0.2-1-0.3-1.3s-0.4-0.7-0.6-1c-0.2-0.3-0.6-0.5-0.9-0.7
			c-0.4-0.2-0.8-0.3-1.3-0.4c-0.5-0.1-1.1-0.1-1.7-0.1h-2.4V288.5z"/>
		<path fill="#FFFFFF" stroke="#FFFFFF" stroke-miterlimit="10" d="M297.9,291.7l6.9-32.2h4.3l6.9,32.2h-4.3l-1.5-8.1h-6.5l-1.5,8.1
			H297.9z M304.3,280.4h5.4l-2.7-14.5L304.3,280.4z"/>
		<path fill="#FFFFFF" stroke="#FFFFFF" stroke-miterlimit="10" d="M330.8,292c-2.7,0-4.8-0.8-6.2-2.5s-2.2-4-2.4-6.9l4-1.1
			c0.3,4.6,1.8,6.9,4.6,6.9c1.2,0,2-0.3,2.6-1c0.6-0.6,0.9-1.6,0.9-2.8c0-0.7-0.1-1.3-0.2-1.9c-0.2-0.6-0.4-1.1-0.8-1.6
			s-0.7-0.9-1-1.3c-0.3-0.3-0.8-0.8-1.4-1.4l-5.4-4.8c-1.1-1-1.9-2-2.4-3.1c-0.5-1.1-0.7-2.4-0.7-4c0-2.3,0.7-4.1,2-5.4
			c1.4-1.3,3.2-2,5.5-2c2.6,0,4.5,0.6,5.8,2c1.3,1.4,2.1,3.5,2.3,6.3l-3.8,1c-0.1-0.7-0.1-1.3-0.2-1.9c-0.1-0.5-0.2-1.1-0.4-1.6
			s-0.5-1-0.8-1.3s-0.7-0.6-1.2-0.8c-0.5-0.2-1.1-0.3-1.7-0.2c-2.4,0.2-3.6,1.3-3.6,3.5c0,0.9,0.2,1.7,0.5,2.4
			c0.3,0.6,0.9,1.3,1.6,2l5.4,4.8c1.4,1.3,2.5,2.6,3.4,4.1c0.8,1.5,1.3,3.1,1.3,4.9c0,2.4-0.7,4.2-2.1,5.6
			C334.9,291.3,333.1,292,330.8,292z"/>
		<path fill="#FFFFFF" stroke="#FFFFFF" stroke-miterlimit="10" d="M359.1,291.7v-32.2h12.5v3.3h-8v10.6h6.5v3.2h-6.5v11.8h8.1v3.2
			H359.1z"/>
		<path fill="#FFFFFF" stroke="#FFFFFF" stroke-miterlimit="10" d="M379.3,291.7v-32.2h3l9.1,21.4v-21.4h3.7v32.2h-2.9l-9.3-22v22
			H379.3z"/>
		<path fill="#FFFFFF" stroke="#FFFFFF" stroke-miterlimit="10" d="M417.3,291.7v-32.2h12.5v3.3h-8v10.6h6.5v3.2h-6.5v11.8h8.1v3.2
			H417.3z"/>
		<path fill="#FFFFFF" stroke="#FFFFFF" stroke-miterlimit="10" d="M437.5,291.7v-32.2h4.5v29h8.2v3.2H437.5z"/>
		<path fill="#FFFFFF" stroke="#FFFFFF" stroke-miterlimit="10" d="M473.6,291.7v-28.9h-5.9v-3.3h16v3.3h-5.7v28.9H473.6z"/>
		<path fill="#FFFFFF" stroke="#FFFFFF" stroke-miterlimit="10" d="M488.3,291.7l6.9-32.2h4.3l6.9,32.2h-4.3l-1.5-8.1h-6.5l-1.5,8.1
			H488.3z M494.7,280.4h5.4l-2.7-14.5L494.7,280.4z"/>
		<path fill="#FFFFFF" stroke="#FFFFFF" stroke-miterlimit="10" d="M513.7,291.7v-32.2h4.5v29h8.2v3.2H513.7z"/>
		<path fill="#FFFFFF" stroke="#FFFFFF" stroke-miterlimit="10" d="M533.4,291.7v-32.2h4.5v29h8.2v3.2H533.4z"/>
		<path fill="#FFFFFF" stroke="#FFFFFF" stroke-miterlimit="10" d="M561.1,292c-1.6,0-3-0.2-4.1-0.7s-2.1-1.2-2.7-2.1
			c-0.7-0.9-1.2-2-1.5-3.3c-0.3-1.2-0.5-2.7-0.5-4.4v-12.2c0-3.4,0.7-5.9,2-7.6c1.4-1.7,3.6-2.6,6.8-2.6c3.1,0,5.4,0.9,6.7,2.6
			c1.4,1.7,2.1,4.3,2.1,7.6v12.2c0,3.4-0.7,5.9-2.1,7.7C566.5,291.1,564.2,292,561.1,292z M558.9,288.1c0.6,0.3,1.3,0.4,2.2,0.4
			c0.9,0,1.6-0.1,2.2-0.4c0.6-0.3,1-0.7,1.3-1.2c0.3-0.6,0.5-1.2,0.6-1.8c0.1-0.7,0.2-1.5,0.2-2.5v-14.1c0-1-0.1-1.8-0.2-2.4
			c-0.1-0.6-0.3-1.2-0.6-1.8s-0.7-0.9-1.3-1.2c-0.6-0.3-1.3-0.4-2.2-0.4c-0.9,0-1.6,0.1-2.2,0.4s-1,0.7-1.3,1.2s-0.5,1.1-0.6,1.8
			c-0.1,0.6-0.2,1.5-0.2,2.4v14.1c0,1,0.1,1.8,0.2,2.5c0.1,0.7,0.3,1.3,0.6,1.8C557.9,287.4,558.4,287.8,558.9,288.1z"/>
	</g>
	<g>
		<g>
			<path fill="#59704B" d="M340.5,677.8c-6,4-12.1,8.1-18.9,8.8c-6.8,0.7-14.3-2.9-17-10.7c-4.7-13.4,6.9-26.3,16.7-34.6
				c69.1-59.2,113.1-161.1,114.7-265.4c3-3.3,8.2-1,10.2,3.3s2,9.6,1.8,14.6c-3.2,67.6-18.3,134.4-44.1,194.1
				c-16.8,39-31.1,64.2-63.3,90.2"/>
		</g>
		<g>
			<g>
				<path fill="#59704B" d="M339.3,675.7c-8.9,6-23.9,14.7-31.3,1.6c-6.4-11.4,4-23.8,11.8-31.2c7.5-7,15.3-13.6,22.4-21.1
					c7.2-7.6,14.1-15.6,20.5-23.9c26.3-34,45.5-73.2,58.2-114.2c6.7-21.6,11.5-43.9,14.4-66.3c1.5-11.5,2.5-23.1,3-34.7
					c0.1-1.5-0.6-7.4,0.2-8.3c2.9-2.9,6,3.4,6.4,5.3c1.7,6.3,0.5,13.8,0.1,20.2c-3.2,51.2-13.3,102.1-30.4,150.6
					c-8.6,24.4-18.5,48.8-31.4,71.2c-11.5,20-26.5,37-44.3,51.5c-2.5,2,1.1,5.5,3.5,3.5c17-13.9,31.6-30,43-48.9
					c12.4-20.6,21.9-43.3,30.4-65.8c19.7-52.5,31-108.1,34.4-164c0.5-8.6,3.1-24.5-7.4-28.7c-2.9-1.1-7.4-0.8-8.9,2.4
					c-0.9,2-0.3,5.5-0.4,7.6c-0.1,3.3-0.3,6.6-0.4,10c-1.5,25.6-5.5,51-11.9,75.8c-12.3,47.4-33.3,93-63.6,131.6
					c-8,10.2-16.6,19.8-25.9,28.8c-9,8.7-20.1,16.3-26.4,27.4c-5.3,9.5-5.8,22.4,3.8,29.4c10.9,8,23.4,0.9,33-5.6
					C344.5,678.2,342,673.9,339.3,675.7L339.3,675.7z"/>
			</g>
		</g>
	</g>
	<g>
		<g>
			<path fill="#59704B" d="M411,599.2c-9.4,9.6-22.5,15.4-35.9,15.9c-2.3,0.1-5.1-0.3-6-2.4c-1-2.5,1.4-4.9,3.7-6.3
				c19.8-12.4,46.1-13.6,62.6-30c5.7-5.7,10.5-13.3,18.3-15.2c0.4,5-2,9.9-5.3,13.5c-3.4,3.7-7.7,6.4-11.9,9
				c-11.6,7.2-23.2,14.4-34.8,21.6"/>
		</g>
		<g>
			<g>
				<path fill="#59704B" d="M410.2,598.3c-4.5,4.5-9.7,8.1-15.5,10.8c-3.1,1.4-6.3,2.5-9.6,3.3c-2.9,0.7-7,2-10,1.4
					c-1.5,0.3-2.3-0.5-2.4-2.4c-1.9-1.8-1.6-3.1,0.7-4c1-0.7,2.1-1.3,3.2-1.9c2.4-1.3,4.9-2.5,7.4-3.6c5.4-2.4,11.1-4.2,16.7-6.2
					c9.9-3.4,20-6.8,28.6-12.8c8.7-6,14.4-17.7,24.8-20.7c-0.5-0.4-1.1-0.8-1.6-1.2c0.4,12.6-12.4,18.8-21.6,24.5
					c-10,6.2-19.9,12.4-29.9,18.6c-1.4,0.8-0.1,3,1.3,2.2c12.1-7.5,24.2-14.9,36.3-22.5c8.3-5.2,16.7-12,16.4-22.7
					c0-0.8-0.8-1.4-1.6-1.2c-6.4,1.8-10.6,6.5-14.9,11.3c-4.9,5.5-10.2,10-16.7,13.4c-12.6,6.7-26.7,9.7-39.7,15.5
					c-4.2,1.8-12.7,4.8-14.2,9.8c-1.2,4.1,2.4,6.2,6,6.4c13.8,0.9,28.4-6.8,38-16.2C413.1,598.9,411.3,597.2,410.2,598.3
					L410.2,598.3z"/>
			</g>
		</g>
	</g>
	<g>
		<g>
			<path fill="#59704B" d="M384.7,577.3c-8.3-2-12.5-11-15.3-19c-3.9-11-7.4-22.1-10.6-33.3c-1.5-5.4-2.9-11.1-1.5-16.5
				c3.7,1.2,5.9,5.2,6.5,9.1s0.3,7.9,1,11.7c0.4,2.4,1.3,4.8,2.2,7c3.9,10,8.8,19.7,14.5,28.8c1.8,2.8,3.6,5.7,4.1,9
				c0.1,0.5,0.1,1.1-0.2,1.5c-0.5,1-2,0.9-3,0.5c-2.6-0.9-4.9-2.6-6.5-4.8"/>
		</g>
		<g>
			<g>
				<path fill="#59704B" d="M385,576c-11.2-3.3-14.4-17.7-17.6-27.3c-2-5.8-3.8-11.7-5.5-17.6c-2.1-7.2-4.9-14.8-3.4-22.4
					c-0.5,0.3-1,0.6-1.5,0.9c7.2,3,5.6,12.1,6.4,18.3c0.8,6,3.5,11.8,6,17.3c2.7,6,5.8,11.8,9.1,17.4c1.5,2.4,3.2,4.8,4.4,7.4
					c1.2,2.6,1.3,6-2.4,3.8c-1.5-0.9-2.7-2.1-3.8-3.4c-1-1.2-2.8,0.5-1.8,1.8c1.8,2.2,9.4,8.7,11.7,3.7c1.3-2.8-1.5-7.1-2.8-9.3
					c-2.6-4.3-5.2-8.5-7.6-13c-5-9.4-10.2-19.4-10.7-30.2c-0.3-6.5-1.2-13.4-7.9-16.2c-0.6-0.2-1.4,0.3-1.5,0.9
					c-1.4,7.2,0.6,14,2.6,20.9c2.3,8.1,4.8,16.1,7.6,24c3.4,9.8,7,22.1,18.1,25.4C385.9,578.9,386.6,576.5,385,576L385,576z"/>
			</g>
		</g>
	</g>
	<g>
		<g>
			<path fill="#59704B" d="M423.5,549c-4.5,2.8-10.3,3.5-15.4,1.8c-0.9-0.3-1.9-0.7-2.3-1.6c-1.3-2.1,1.4-4.4,3.8-5.3
				c4.6-1.7,9.5-2.4,14.3-3.2c9.9-1.5,19.8-3,29.6-4.5c7-1.1,14.4-2.1,21.2,0c-1.7,4.1-6.5,5.9-10.8,6.9
				c-15.1,3.5-31.3,2.4-45.8,7.8"/>
		</g>
		<g>
			<g>
				<path fill="#59704B" d="M422.9,547.9c-3.1,1.8-6.4,2.8-10,2.5c-0.9-0.1-1.9-0.3-2.8-0.4c-2.2-2.9-2.1-4.6,0.3-5
					c1.2-0.9,3.4-1.1,4.9-1.5c6.2-1.5,12.6-2.2,18.9-3.1c12.7-1.9,27.5-6.5,40.3-3.1c-0.2-0.6-0.5-1.2-0.7-1.8
					c-4.4,8.5-20.3,8.2-28.4,9c-9.3,1-18.6,2-27.5,5.1c-1.5,0.5-0.9,3,0.7,2.4c11.6-4.1,23.8-4.5,35.8-6.1c7.4-1,17.7-1.7,21.6-9.2
					c0.4-0.7,0.1-1.6-0.7-1.8c-9.2-2.5-18.6-0.5-27.8,0.9c-10.9,1.7-22.1,2.7-32.8,5.2c-3.2,0.8-13,3.4-9.7,8.8
					c3.5,5.7,14.9,2.5,19.3,0.1C425.5,549.3,424.3,547.1,422.9,547.9L422.9,547.9z"/>
			</g>
		</g>
	</g>
	<g>
		<g>
			<path fill="#59704B" d="M410.5,497.5c-22.7-9.8-47-15.7-71.6-17.5c-0.2,4.4,4.7,6.9,8.9,8.3c19.6,6.5,39.2,13,59.3,17.7
				c1.2,0.3,2.5,0.6,3.7,0.1c2.1-0.8,2.7-3.8,1.7-5.8c-1-2-3.2-3.2-5.3-4.1s-4.4-1.5-6.2-2.8"/>
		</g>
		<g>
			<g>
				<path fill="#59704B" d="M411.1,496.5c-23-9.8-47.3-15.8-72.2-17.7c-0.6,0-1.3,0.6-1.2,1.2c0.5,8.1,11,9.9,17.1,11.9
					c11.6,3.8,23.3,7.6,35.1,10.9c5.6,1.6,11.2,3.3,16.9,4.4c2.5,0.5,5,0.6,6.6-1.8c5-7.5-8-10.8-11.8-13.1
					c-1.4-0.8-2.6,1.3-1.3,2.2c2.6,1.6,6.5,2.1,8.7,4c3.5,3.1,3.2,6.4-2.5,6.1c-1.5-0.1-3.2-0.8-4.7-1.1c-7.2-1.8-14.3-3.8-21.4-6
					c-6.8-2.1-13.6-4.2-20.3-6.4c-5.3-1.7-19.5-3.9-19.9-11c-0.4,0.4-0.8,0.8-1.2,1.2c24.5,1.9,48.4,7.7,71,17.3
					C411.3,499.3,412.6,497.1,411.1,496.5L411.1,496.5z"/>
			</g>
		</g>
	</g>
	<g>
		<g>
			<path fill="#59704B" d="M447.2,491.8c-3.6,1.4-7.3,2.9-11.2,3.2c-3.9,0.3-8.1-0.7-10.8-3.5c-0.5-0.5-1-1.2-1-1.9
				c-0.1-1.4,1.2-2.4,2.4-3c4.8-2.4,10.4-2.5,15.7-3.4c14.9-2.8,28.4-13,43.5-11.5c0.7,0.1,1.5,0.2,2,0.8c0.8,0.9,0.2,2.3-0.6,3.3
				c-4.7,6.3-12.9,8.6-20.4,10.6c-9.5,2.5-19.1,5-28.6,7.5"/>
		</g>
		<g>
			<g>
				<path fill="#59704B" d="M446.8,490.6c-4.7,1.9-12.7,5.4-17.6,2.1c-1.4-0.2-2-1.2-1.6-2.8c-1.2-2.2-0.4-3.3,2.2-3.3
					c1-0.3,2.1-0.6,3.1-0.8c2.4-0.5,4.8-0.7,7.2-1.1c10.3-1.6,19.6-6.5,29.4-9.6c2.3-0.7,4.6-1.4,7-1.8c1.4-0.3,2.9-0.4,4.4-0.5
					c2.2-0.1,3-0.6,3.8,1.6c1.1,2.7-2.5,4.5-4.7,5.9c-2.5,1.4-5.2,2.4-7.9,3.3c-11.3,3.6-22.9,6.2-34.3,9.2
					c-1.6,0.4-0.9,2.8,0.7,2.4c9.5-2.5,19.1-5,28.6-7.5c6.3-1.7,13-3.5,18-7.8c2.4-2,6.7-6.7,2.4-9c-4.8-2.6-14.6,0.6-19.3,2.2
					c-7.8,2.6-15.1,6.3-23.1,8.3c-6.2,1.6-15.2,0.7-20.4,5c-4,3.4-0.2,7.2,3.3,8.8c6.4,2.9,13.3,0.4,19.4-2
					C449,492.5,448.3,490.1,446.8,490.6L446.8,490.6z"/>
			</g>
		</g>
	</g>
	<g>
		<g>
			<path fill="#59704B" d="M432.2,454.6c-1.2-6.2-6.1-11.1-11.1-15c-10.5-8.3-22.6-14.6-35.4-18.5c-2.6-0.8-5.4-1.5-8.1-0.9
				c-2.7,0.6-5.2,2.9-5,5.7c0.1,2.4,2.2,4.3,4.4,5.1s4.7,0.8,7,1c17.2,1.2,33.3,12.1,40.8,27.6c0.9,1.9,1.7,3.9,3.2,5.5
				c1.4,1.6,3.6,2.7,5.7,2.1c1.5-0.4,2.7-1.7,3.5-3.1c2.2-3.9,1.8-9.1-1-12.7c-2.8-3.5-7.7-5.2-12-4.1"/>
		</g>
		<g>
			<g>
				<path fill="#59704B" d="M433.4,454.2c-1.8-7.2-7-12.2-12.8-16.7c-6.3-4.9-13.2-9-20.4-12.4c-6.2-2.9-14.2-7-21.1-6.5
					c-4.3,0.3-9,4-7.4,8.8c2.2,6.5,11.2,5.3,16.4,6.1c7.6,1.2,14.9,4.4,21.2,9.1c6.4,4.8,11.3,11,14.8,18.2c1.9,4,5.5,9.5,10.7,7.1
					c5.2-2.4,5.9-10.1,3.9-14.7c-2.5-5.9-8.9-8.4-14.9-7.2c-1.6,0.3-0.9,2.7,0.7,2.4c4.4-0.9,9.1,0.7,11.4,4.7
					c1.7,2.9,2.1,14.8-4.4,12.7c-3.7-1.2-5-5.9-6.6-9c-1.3-2.4-2.8-4.6-4.4-6.8c-6.4-8.2-15.3-14.3-25.3-17.4
					c-2.6-0.8-5.2-1.4-7.9-1.8c-2.5-0.3-9.3,0.4-11-1.8c0.5-2.6,1.1-5.3,1.6-7.9c2-0.3,3.9-0.1,5.8,0.4c1.7,0.4,3.3,1,4.9,1.5
					c3.5,1.2,6.9,2.5,10.2,4.1c6.1,2.8,11.9,6.2,17.3,10.1c6.3,4.5,12.8,9.6,14.7,17.4C431.4,456.5,433.8,455.8,433.4,454.2
					L433.4,454.2z"/>
			</g>
		</g>
	</g>
	<g>
		<g>
			<path fill="#59704B" d="M457.6,420.1c-3.5,1.8-7.3,2.9-11.2,3.4c-1.9,0.2-4,0.3-5.8-0.5c-1.8-0.8-3.3-2.5-3.2-4.5
				c0.1-3.3,4.1-4.9,7.3-5.7c19.1-5.2,36.5-16.7,48.8-32.3c1.2-1.5,2.6-3.2,4.5-3.3c2.1-0.2,3.9,1.8,4.3,3.8
				c0.4,2.1-0.3,4.2-1.2,6.1c-4.7,10.2-14.6,17-24,23.2c-10.4,6.9-22.1,14-34.3,11.9"/>
		</g>
		<g>
			<g>
				<path fill="#59704B" d="M457,419c-3.1,1.5-8.4,3.8-12,3.3c-2,0.5-3-0.6-2.9-3.3c-2.2-2-2.3-3.3-0.3-3.9c1.2-0.9,3.5-1.2,4.9-1.6
					c5.1-1.5,10.1-3.4,14.9-5.7c10.6-5.2,20.3-12.4,28.3-21.1c1.5-1.6,3.6-5.6,5.5-6.5c4.6,0.3,6.4,1.8,5.4,4.2
					c-0.3,1.2-0.8,2.3-1.4,3.3c-0.7,1.3-1.5,2.6-2.4,3.9c-3.9,5.5-9.3,9.8-14.7,13.6c-11.3,7.9-24.6,17.7-39.1,15.7
					c-1.6-0.2-2.3,2.2-0.7,2.4c14.7,2.1,27.5-6.7,39.1-14.6c5.8-4,11.5-8.3,16-13.8c3-3.7,7.4-9.9,5.7-15c-1.3-3.9-5.3-5.2-8.6-2.7
					c-2.6,2-4.5,5.3-6.7,7.6c-2.5,2.7-5.1,5.2-7.9,7.6c-6.1,5.2-12.8,9.6-20,13.1c-3.4,1.7-7,3.1-10.6,4.3c-3,1-6.4,1.6-9.2,3
					c-4.1,2.1-6,6.9-1.8,10.2c5.2,4.1,14.5,0.4,19.6-2C459.7,420.5,458.5,418.4,457,419L457,419z"/>
			</g>
		</g>
	</g>
	<g>
		<g>
			<path fill="#59704B" d="M450.1,391.9c-4.9-0.8-10.3,1.3-14.6-1.2c-1.5-0.9-2.7-2.3-3.8-3.7c-4.3-5.7-7.6-12.5-13.2-16.8
				c-1.2-0.9-3-1.8-4.3-0.8c-0.7,0.5-0.9,1.4-1.1,2.3c-1.5,7.8,1.4,16.1,6.9,21.9c5.5,5.8,13.2,9,21.1,9.8c1.1,0.1,2.2,0.2,3.2-0.2
				c1.5-0.6,2.5-2,3-3.5c0.9-2.8,0.4-6-1.6-8.2c-2-2.1-5.5-2.8-7.9-1.2"/>
		</g>
		<g>
			<g>
				<path fill="#59704B" d="M450.1,390.7c-4.2-0.4-10.1,1.2-14-1c-3.4-2-5.6-6.4-7.7-9.6c-2.6-3.9-6-9.7-10.6-11.7
					c-4.5-1.9-5.9,1.8-6.2,5.7c-0.5,6.3,1.6,12.7,5.3,17.7c3.3,4.5,8,7.9,13.2,10.1c4.1,1.7,12.1,4.8,16.2,1.6
					c7.6-5.9-0.4-18.5-9.1-14.2c-1.4,0.7-0.2,2.9,1.3,2.2c5.3-2.6,10.5,4.1,7.3,8.7c-2.2,3.3-6.9,1.8-9.8,1.1
					c-4.6-1.2-9.1-3.3-12.8-6.4c-3.5-2.9-6.2-6.7-7.8-11c-1.2-3.2-4.1-15.4,3.4-11.7c3.1,1.5,5.7,6.5,7.5,9.2
					c1.7,2.6,3.4,5.3,5.4,7.7c5.1,5.9,11.5,3.5,18.4,4.2C451.7,393.4,451.7,390.9,450.1,390.7L450.1,390.7z"/>
			</g>
		</g>
	</g>
	<g>
		<g>
			<path fill="#59704B" d="M366,601.4c-23.3-9.4-49-12.8-73.8-9.6c-5.9,0.7-12.9,3-14,8.8c6.7,2.9,14.3,1.6,21.5,1.1
				c14.2-1,28.4,1.1,42.5,3.1c6.4,0.9,13.2,2,18.5,5.7c1.3,0.9,2.6,2,4.2,2.3c4.2,0.8,7.1-5,5.4-8.9c-1.7-3.9-5.8-6.1-9.7-8"/>
		</g>
		<g>
			<g>
				<path fill="#59704B" d="M366.3,600.2c-16.8-6.7-34.6-10.4-52.7-10.8c-8-0.2-16.5,0-24.4,1.6c-5.4,1.1-10.8,3.6-12.3,9.3
					c-0.2,0.7,0.2,1.3,0.9,1.5c10.5,4,22.5,0.7,33.5,1c13,0.4,26.8,1.7,39.4,4.8c3,0.8,6,1.8,8.6,3.5c1.7,1.1,3.3,2.6,5.3,2.9
					c2.6,0.4,4.9-1.1,6.1-3.3c4.4-7.5-3.7-13-9.6-15.9c-1.4-0.7-2.7,1.4-1.3,2.2c4.2,2,11,5.4,9.2,11.2c-1.9,6.1-9.1,0.2-12.5-1.2
					c-7.4-3.2-16.1-3.7-24-4.7c-9-1.2-18.1-2.1-27.2-2c-9,0.1-18.3,2.4-27-0.9c0.3,0.5,0.6,1,0.9,1.5c2.1-7.7,12.6-8,19.1-8.6
					c7.4-0.6,14.9-0.7,22.4-0.2c15.4,1.1,30.5,4.6,44.9,10.4C367.1,603.2,367.8,600.8,366.3,600.2L366.3,600.2z"/>
			</g>
		</g>
	</g>
</g>
</svg>
