<?xml version="1.0" encoding="utf-8"?>
<!-- Generator: Adobe Illustrator 18.0.0, SVG Export Plug-In . SVG Version: 6.00 Build 0)  -->
<!DOCTYPE svg PUBLIC "-//W3C//DTD SVG 1.1//EN" "http://www.w3.org/Graphics/SVG/1.1/DTD/svg11.dtd" [
	<!ENTITY ns_flows "http://ns.adobe.com/Flows/1.0/">
	<!ENTITY ns_extend "http://ns.adobe.com/Extensibility/1.0/">
	<!ENTITY ns_ai "http://ns.adobe.com/AdobeIllustrator/10.0/">
	<!ENTITY ns_graphs "http://ns.adobe.com/Graphs/1.0/">
]>
<svg version="1.1" id="Capa_1" xmlns:x="&ns_extend;" xmlns:i="&ns_ai;" xmlns:graph="&ns_graphs;"
	 xmlns="http://www.w3.org/2000/svg" xmlns:xlink="http://www.w3.org/1999/xlink" xmlns:a="http://ns.adobe.com/AdobeSVGViewerExtensions/3.0/"
	 x="0px" y="0px" viewBox="0 0 595.3 841.9" enable-background="new 0 0 595.3 841.9" xml:space="preserve">
<g>
	<g>
		<path fill="#FFFFFF" stroke="#FFFFFF" stroke-miterlimit="10" d="M70.2,427.5c-3.6,0-6.7-0.6-9.2-1.7c-2.5-1.2-4.6-2.8-6-5.1
			c-1.5-2.2-2.6-4.8-3.2-7.7c-0.7-2.9-1-6.3-1-10.1v-23.5c0-3.1,0.2-5.9,0.7-8.4c0.4-2.5,1.2-4.8,2.2-6.8c1-2.1,2.3-3.8,4-5.2
			c1.6-1.4,3.6-2.4,6.1-3.2c2.4-0.8,5.2-1.1,8.4-1.1c3.1,0,5.8,0.3,8.2,1c2.4,0.7,4.3,1.6,5.9,2.7c1.6,1.2,2.9,2.6,3.9,4.4
			c1,1.8,1.7,3.7,2.1,5.7c0.4,2.1,0.6,4.4,0.6,6.9v4.5H77.4v-5.7c0-1.1,0-2-0.1-2.6c0-0.7-0.2-1.4-0.3-2.3c-0.2-0.8-0.5-1.5-0.8-1.9
			c-0.4-0.5-0.9-0.8-1.5-1.2c-0.7-0.3-1.5-0.5-2.5-0.5c-1,0-1.8,0.2-2.5,0.6c-0.7,0.4-1.2,0.8-1.6,1.3c-0.4,0.5-0.7,1.2-0.9,2.1
			c-0.2,0.9-0.3,1.7-0.4,2.4s-0.1,1.6-0.1,2.7v32.4c0,2.8,0.4,5,1.3,6.7c0.8,1.6,2.4,2.5,4.6,2.5c4.1,0,6.1-3.1,6.1-9.4V399h-6.4
			v-9.4h20.5v36.8H82.5l-0.9-5.9C79.5,425.2,75.7,427.5,70.2,427.5z"/>
		<path fill="#FFFFFF" stroke="#FFFFFF" stroke-miterlimit="10" d="M111.3,426.5v-70.8h15.6v60.2h16.2v10.6H111.3z"/>
		<path fill="#FFFFFF" stroke="#FFFFFF" stroke-miterlimit="10" d="M155.4,426.5l13.4-70.8h17.7l13.3,70.8h-14.4l-2.4-15h-10.3
			l-2.4,15H155.4z M173.1,349.5l5.4-17.6h14.6l-11.1,17.6H173.1z M173.9,402.1h7.6l-3.8-27.4L173.9,402.1z"/>
		<path fill="#FFFFFF" stroke="#FFFFFF" stroke-miterlimit="10" d="M215.6,426.5v-70.8h11l14.6,34v-34h13v70.8h-10.6L229,389.8v36.6
			H215.6z"/>
		<path fill="#FFFFFF" stroke="#FFFFFF" stroke-miterlimit="10" d="M273.3,426.5v-70.8h17.8c4.6,0,8.5,0.4,11.6,1.2
			c3.1,0.8,5.5,2.2,7.3,4.1s3.1,4.2,3.8,6.9c0.7,2.7,1.1,6.1,1.1,10.2v25.5c0,4.1-0.4,7.6-1.1,10.4c-0.8,2.8-2,5.1-3.8,7
			c-1.8,1.9-4.2,3.3-7.3,4.2s-6.8,1.3-11.4,1.3H273.3z M288.9,415.6h2.4c1.2,0,2.2-0.1,3.1-0.2c0.8-0.2,1.5-0.4,2.1-0.8
			c0.6-0.4,1-0.8,1.3-1.3c0.3-0.4,0.6-1.1,0.7-1.9c0.2-0.8,0.3-1.6,0.3-2.4c0-0.8,0.1-1.8,0.1-3.1v-30.4c0-1.8-0.1-3.2-0.2-4.1
			c-0.1-1-0.5-1.9-1-2.6c-0.5-0.8-1.3-1.3-2.3-1.6c-1-0.3-2.4-0.4-4.1-0.4h-2.3V415.6z"/>
		<path fill="#FFFFFF" stroke="#FFFFFF" stroke-miterlimit="10" d="M353.6,427.4c-3.2,0-6-0.3-8.4-1c-2.4-0.7-4.4-1.6-6-2.8
			c-1.6-1.2-2.9-2.8-3.8-4.8c-1-1.9-1.7-4.1-2.1-6.4c-0.4-2.3-0.6-5.1-0.6-8.2v-48.5h15.5v50.8c0,1.1,0,2.1,0.1,2.8
			c0.1,0.8,0.2,1.6,0.4,2.5c0.2,0.9,0.5,1.7,0.9,2.2s0.9,1.1,1.6,1.5c0.7,0.4,1.5,0.6,2.5,0.6s1.8-0.2,2.5-0.6
			c0.7-0.4,1.2-0.9,1.6-1.5c0.4-0.6,0.7-1.3,0.9-2.2c0.2-0.9,0.3-1.8,0.4-2.6c0.1-0.8,0.1-1.7,0.1-2.8v-50.8h15.5v48.5
			c0,3.9-0.3,7.3-1,10c-0.7,2.8-1.8,5.2-3.4,7.2c-1.6,2.1-3.7,3.6-6.4,4.5C361,427,357.6,427.4,353.6,427.4z"/>
		<path fill="#FFFFFF" stroke="#FFFFFF" stroke-miterlimit="10" d="M393.2,426.5v-70.8h15.6v60.2h16.2v10.6H393.2z"/>
		<path fill="#FFFFFF" stroke="#FFFFFF" stroke-miterlimit="10" d="M437.3,426.5l13.4-70.8h17.7l13.3,70.8h-14.4l-2.4-15h-10.3
			l-2.4,15H437.3z M455.8,402.1h7.6l-3.8-27.4L455.8,402.1z"/>
		<path fill="#FFFFFF" stroke="#FFFFFF" stroke-miterlimit="10" d="M516.3,427.4c-6.7,0-11.7-1.8-15-5.4c-3.3-3.6-5.1-9.3-5.3-17.1
			l13.4-2.1c0.1,4.4,0.6,7.7,1.6,9.7c1,2,2.5,3,4.5,3c2.6,0,4-1.7,4-5.1c0-1.9-0.3-3.7-1-5.3s-1.5-3-2.5-4.1c-1-1.1-2.4-2.5-4.2-4
			l-6.3-5.4c-1.5-1.3-2.8-2.5-3.8-3.6c-1-1.1-2-2.4-2.9-3.9c-1-1.5-1.7-3.2-2.1-5c-0.5-1.8-0.7-3.8-0.7-6c0-5.9,1.8-10.4,5.3-13.7
			s8.4-4.8,14.5-4.9c2.1,0,4,0.2,5.7,0.7c1.7,0.5,3.2,1.1,4.4,1.8c1.2,0.7,2.2,1.7,3.1,2.8c0.9,1.1,1.6,2.2,2.1,3.4
			c0.5,1.1,1,2.4,1.3,3.8c0.4,1.4,0.6,2.7,0.7,3.9s0.2,2.4,0.3,3.8l-13.5,1.8c0-1.2-0.1-2.2-0.1-3c0-0.8-0.1-1.6-0.2-2.5
			c-0.1-0.9-0.3-1.6-0.5-2.1c-0.2-0.5-0.5-1-0.8-1.5c-0.3-0.5-0.7-0.8-1.2-1c-0.5-0.2-1.1-0.3-1.8-0.3c-1.4,0-2.4,0.6-3.1,1.7
			c-0.7,1.1-1.1,2.4-1.1,3.8c0,1.3,0.2,2.6,0.5,3.7c0.3,1.1,0.9,2.2,1.7,3.2c0.8,1,1.5,1.8,2,2.3c0.5,0.5,1.4,1.3,2.6,2.4l6,5.3
			c1.7,1.5,3.1,2.9,4.3,4.2c1.2,1.4,2.3,2.9,3.4,4.6c1.1,1.7,1.9,3.6,2.5,5.7c0.6,2.1,0.8,4.3,0.8,6.6c0,5.1-1.7,9.4-5.1,12.7
			C526.3,425.8,521.9,427.4,516.3,427.4z"/>
	</g>
	<g>
		<path fill="#FFFFFF" stroke="#FFFFFF" stroke-miterlimit="10" d="M56,462.7c-0.3,0.6-0.6,1.2-1.1,1.6c-0.5,0.5-1,0.8-1.6,1.1
			c-0.6,0.3-1.3,0.4-2,0.4h-4.7v8h-1.9v-20.9h6.6c0.7,0,1.4,0.1,2,0.4c0.6,0.3,1.2,0.6,1.6,1.1c0.5,0.5,0.8,1,1.1,1.6s0.4,1.3,0.4,2
			v2.6C56.4,461.4,56.2,462.1,56,462.7z M54.5,458.1c0-0.5-0.1-0.9-0.3-1.3c-0.2-0.4-0.4-0.8-0.7-1.1c-0.3-0.3-0.7-0.5-1.1-0.7
			s-0.8-0.3-1.3-0.3h-4.7v9.3h4.7c0.5,0,0.9-0.1,1.3-0.3c0.4-0.2,0.8-0.4,1.1-0.7c0.3-0.3,0.5-0.7,0.7-1.1c0.2-0.4,0.3-0.8,0.3-1.3
			V458.1z"/>
		<path fill="#FFFFFF" stroke="#FFFFFF" stroke-miterlimit="10" d="M65.9,473.9v-20.9h11.8v1.8h-9.9v7.8h8v1.8h-8v7.8h9.9v1.8H65.9z
			"/>
		<path fill="#FFFFFF" stroke="#FFFFFF" stroke-miterlimit="10" d="M98.4,470.9c-0.2,0.6-0.6,1.1-1,1.6c-0.4,0.5-0.9,0.8-1.5,1.1
			c-0.6,0.3-1.2,0.5-1.9,0.5l1.9,4.3H94l-1.9-4.3c-0.7,0-1.4-0.1-2-0.4c-0.6-0.3-1.2-0.6-1.6-1.1c-0.5-0.5-0.8-1-1.1-1.6
			s-0.4-1.3-0.4-2v-11.2c0-0.7,0.1-1.4,0.4-2s0.6-1.2,1.1-1.6c0.5-0.5,1-0.8,1.6-1.1c0.6-0.3,1.3-0.4,2-0.4h1.5c0.7,0,1.4,0.1,2,0.4
			c0.6,0.3,1.2,0.6,1.6,1.1c0.5,0.5,0.8,1,1.1,1.6s0.4,1.3,0.4,2V469C98.7,469.7,98.6,470.3,98.4,470.9z M96.9,457.8
			c0-0.5-0.1-0.9-0.3-1.3c-0.2-0.4-0.4-0.8-0.7-1.1c-0.3-0.3-0.7-0.5-1.1-0.7c-0.4-0.2-0.8-0.3-1.3-0.3h-1.3c-0.5,0-0.9,0.1-1.3,0.3
			c-0.4,0.2-0.8,0.4-1.1,0.7c-0.3,0.3-0.5,0.7-0.7,1.1c-0.2,0.4-0.3,0.8-0.3,1.3V469c0,0.5,0.1,0.9,0.3,1.3c0.2,0.4,0.4,0.8,0.7,1.1
			c0.3,0.3,0.7,0.5,1.1,0.7c0.4,0.2,0.8,0.3,1.3,0.3h1.3c0.5,0,0.9-0.1,1.3-0.3c0.4-0.2,0.8-0.4,1.1-0.7c0.3-0.3,0.5-0.7,0.7-1.1
			c0.2-0.4,0.3-0.8,0.3-1.3V457.8z"/>
		<path fill="#FFFFFF" stroke="#FFFFFF" stroke-miterlimit="10" d="M120.3,471c-0.3,0.6-0.6,1.2-1.1,1.6s-1,0.8-1.6,1.1
			c-0.6,0.3-1.3,0.4-2,0.4h-1.5c-0.7,0-1.4-0.1-2-0.4c-0.6-0.3-1.2-0.6-1.6-1.1c-0.5-0.5-0.8-1-1.1-1.6s-0.4-1.3-0.4-2v-16.1h1.9
			V469c0,0.5,0.1,0.9,0.3,1.3c0.2,0.4,0.4,0.8,0.7,1.1c0.3,0.3,0.7,0.5,1.1,0.7c0.4,0.2,0.8,0.3,1.3,0.3h1.3c0.5,0,0.9-0.1,1.3-0.3
			c0.4-0.2,0.8-0.4,1.1-0.7c0.3-0.3,0.5-0.7,0.7-1.1c0.2-0.4,0.3-0.8,0.3-1.3v-16.1h1.9V469C120.7,469.7,120.6,470.4,120.3,471z"/>
		<path fill="#FFFFFF" stroke="#FFFFFF" stroke-miterlimit="10" d="M131.2,473.9v-20.9h11.8v1.8H133v7.8h8v1.8h-8v7.8h9.9v1.8H131.2
			z"/>
		<path fill="#FFFFFF" stroke="#FFFFFF" stroke-miterlimit="10" d="M163.3,473.9l-8.7-15.2l-0.2-0.9v16.1h-1.9v-20.9h1l8.7,15.2
			l0.2,0.9v-16.1h1.9v20.9H163.3z M160.3,448.6c0.4,0,0.7-0.2,0.9-0.5c0.2-0.3,0.3-0.7,0.3-1.2h1.4c0,0.4-0.1,0.8-0.2,1.2
			c-0.1,0.4-0.3,0.7-0.5,1s-0.5,0.5-0.8,0.7c-0.3,0.2-0.7,0.2-1.2,0.2c-0.5,0-0.9-0.1-1.2-0.3c-0.4-0.2-0.7-0.4-1-0.6
			c-0.3-0.2-0.6-0.4-0.9-0.6c-0.3-0.2-0.6-0.3-0.9-0.3c-0.4,0-0.7,0.2-0.9,0.5c-0.2,0.3-0.3,0.7-0.3,1.2h-1.4c0-0.4,0.1-0.8,0.2-1.2
			c0.1-0.4,0.3-0.7,0.5-1c0.2-0.3,0.5-0.5,0.8-0.7c0.3-0.2,0.7-0.2,1.2-0.2c0.4,0,0.8,0.1,1.2,0.3c0.3,0.2,0.7,0.4,0.9,0.6
			c0.3,0.2,0.6,0.4,0.9,0.6C159.7,448.6,160,448.6,160.3,448.6z"/>
		<path fill="#FFFFFF" stroke="#FFFFFF" stroke-miterlimit="10" d="M182.9,469h-6.6l-1.4,4.9h-2l6.1-20.9h1l6.2,20.9h-1.9L182.9,469
			z M176.8,467.2h5.6l-2.8-9.6l-0.1-0.8l-0.1,0.8L176.8,467.2z"/>
		<path fill="#FFFFFF" stroke="#FFFFFF" stroke-miterlimit="10" d="M206.3,469c0,0.7-0.1,1.4-0.4,2s-0.7,1.2-1.2,1.6s-1,0.8-1.7,1.1
			c-0.6,0.3-1.3,0.4-2,0.4h-1.5c-0.7,0-1.4-0.1-2-0.4s-1.2-0.6-1.7-1.1s-0.9-1-1.2-1.6c-0.3-0.6-0.4-1.3-0.4-2v-0.8l1.9-0.3v1.1
			c0,0.5,0.1,0.9,0.3,1.3c0.2,0.4,0.4,0.8,0.8,1.1c0.3,0.3,0.7,0.5,1.1,0.7c0.4,0.2,0.9,0.3,1.3,0.3h1.3c0.5,0,0.9-0.1,1.3-0.3
			c0.4-0.2,0.8-0.4,1.1-0.7c0.3-0.3,0.6-0.7,0.8-1.1c0.2-0.4,0.3-0.8,0.3-1.3v-0.6c0-0.7-0.1-1.3-0.4-1.8s-0.7-0.9-1.1-1.2
			c-0.5-0.3-1-0.6-1.6-0.9c-0.6-0.2-1.2-0.5-1.8-0.7c-0.6-0.2-1.2-0.5-1.8-0.8c-0.6-0.3-1.1-0.6-1.6-1.1c-0.5-0.4-0.8-0.9-1.1-1.6
			s-0.4-1.4-0.4-2.3v-0.4c0-0.7,0.1-1.4,0.4-2s0.6-1.2,1.1-1.6c0.5-0.5,1-0.8,1.6-1.1c0.6-0.3,1.3-0.4,2-0.4h1.3
			c0.7,0,1.4,0.1,2,0.4c0.6,0.3,1.2,0.6,1.6,1.1s0.8,1,1.1,1.6s0.4,1.3,0.4,2v0.5l-1.9,0.3v-0.8c0-0.5-0.1-0.9-0.3-1.3
			c-0.2-0.4-0.4-0.8-0.7-1.1c-0.3-0.3-0.7-0.5-1.1-0.7c-0.4-0.2-0.8-0.3-1.3-0.3h-1.2c-0.5,0-0.9,0.1-1.3,0.3
			c-0.4,0.2-0.8,0.4-1.1,0.7c-0.3,0.3-0.5,0.7-0.7,1.1c-0.2,0.4-0.3,0.8-0.3,1.3v0.4c0,0.7,0.1,1.2,0.4,1.7s0.7,0.8,1.1,1.2
			c0.5,0.3,1,0.6,1.6,0.8c0.6,0.2,1.2,0.5,1.8,0.7s1.2,0.5,1.8,0.8c0.6,0.3,1.1,0.7,1.6,1.1c0.5,0.4,0.8,1,1.1,1.6
			c0.3,0.6,0.4,1.4,0.4,2.3V469z"/>
		<path fill="#FFFFFF" stroke="#FFFFFF" stroke-miterlimit="10" d="M240.3,471c-0.3,0.6-0.6,1.2-1.1,1.6s-1,0.8-1.6,1.1
			c-0.6,0.3-1.3,0.4-2,0.4h-1.5c-0.7,0-1.4-0.1-2-0.4c-0.6-0.3-1.2-0.6-1.6-1.1c-0.5-0.5-0.8-1-1.1-1.6s-0.4-1.3-0.4-2v-11.2
			c0-0.7,0.1-1.4,0.4-2s0.6-1.2,1.1-1.6c0.5-0.5,1-0.8,1.6-1.1c0.6-0.3,1.3-0.4,2-0.4h1.5c0.7,0,1.4,0.1,2,0.4
			c0.6,0.3,1.2,0.6,1.6,1.1s0.8,1,1.1,1.6s0.4,1.3,0.4,2v0.8l-1.9,0.3v-1.1c0-0.5-0.1-0.9-0.3-1.3c-0.2-0.4-0.4-0.8-0.7-1.1
			c-0.3-0.3-0.7-0.5-1.1-0.7c-0.4-0.2-0.8-0.3-1.3-0.3h-1.3c-0.5,0-0.9,0.1-1.3,0.3c-0.4,0.2-0.8,0.4-1.1,0.7
			c-0.3,0.3-0.5,0.7-0.7,1.1c-0.2,0.4-0.3,0.8-0.3,1.3V469c0,0.5,0.1,0.9,0.3,1.3c0.2,0.4,0.4,0.8,0.7,1.1c0.3,0.3,0.7,0.5,1.1,0.7
			c0.4,0.2,0.8,0.3,1.3,0.3h1.3c0.5,0,0.9-0.1,1.3-0.3c0.4-0.2,0.8-0.4,1.1-0.7c0.3-0.3,0.5-0.7,0.7-1.1c0.2-0.4,0.3-0.8,0.3-1.3
			v-1.1l1.9,0.3v0.8C240.7,469.7,240.5,470.4,240.3,471z"/>
		<path fill="#FFFFFF" stroke="#FFFFFF" stroke-miterlimit="10" d="M261.9,471c-0.3,0.6-0.6,1.2-1.1,1.6s-1,0.8-1.6,1.1
			c-0.6,0.3-1.3,0.4-2,0.4h-1.5c-0.7,0-1.4-0.1-2-0.4c-0.6-0.3-1.2-0.6-1.6-1.1c-0.5-0.5-0.8-1-1.1-1.6s-0.4-1.3-0.4-2v-11.2
			c0-0.7,0.1-1.4,0.4-2s0.6-1.2,1.1-1.6c0.5-0.5,1-0.8,1.6-1.1c0.6-0.3,1.3-0.4,2-0.4h1.5c0.7,0,1.4,0.1,2,0.4
			c0.6,0.3,1.2,0.6,1.6,1.1s0.8,1,1.1,1.6s0.4,1.3,0.4,2V469C262.3,469.7,262.2,470.4,261.9,471z M260.4,457.8
			c0-0.5-0.1-0.9-0.3-1.3c-0.2-0.4-0.4-0.8-0.7-1.1c-0.3-0.3-0.7-0.5-1.1-0.7c-0.4-0.2-0.8-0.3-1.3-0.3h-1.3c-0.5,0-0.9,0.1-1.3,0.3
			c-0.4,0.2-0.8,0.4-1.1,0.7c-0.3,0.3-0.5,0.7-0.7,1.1c-0.2,0.4-0.3,0.8-0.3,1.3V469c0,0.5,0.1,0.9,0.3,1.3c0.2,0.4,0.4,0.8,0.7,1.1
			c0.3,0.3,0.7,0.5,1.1,0.7c0.4,0.2,0.8,0.3,1.3,0.3h1.3c0.5,0,0.9-0.1,1.3-0.3c0.4-0.2,0.8-0.4,1.1-0.7c0.3-0.3,0.5-0.7,0.7-1.1
			c0.2-0.4,0.3-0.8,0.3-1.3V457.8z"/>
		<path fill="#FFFFFF" stroke="#FFFFFF" stroke-miterlimit="10" d="M283.6,473.9l-8.7-15.2l-0.2-0.9v16.1h-1.9v-20.9h1l8.7,15.2
			l0.2,0.9v-16.1h1.9v20.9H283.6z"/>
		<path fill="#FFFFFF" stroke="#FFFFFF" stroke-miterlimit="10" d="M319.5,470.7c-0.3,0.6-0.6,1.2-1.1,1.6s-1,0.8-1.6,1.1
			c-0.6,0.3-1.3,0.4-2,0.4h-6.6v-20.9h6.6c0.7,0,1.4,0.1,2,0.4c0.6,0.3,1.2,0.6,1.6,1.1c0.5,0.5,0.8,1,1.1,1.6s0.4,1.3,0.4,2v10.6
			C319.9,469.4,319.8,470.1,319.5,470.7z M318.1,458.1c0-0.5-0.1-0.9-0.3-1.3c-0.2-0.4-0.4-0.8-0.7-1.1c-0.3-0.3-0.7-0.5-1.1-0.7
			s-0.8-0.3-1.3-0.3H310v17.3h4.7c0.5,0,0.9-0.1,1.3-0.3c0.4-0.2,0.8-0.4,1.1-0.7c0.3-0.3,0.5-0.7,0.7-1.1c0.2-0.4,0.3-0.8,0.3-1.3
			V458.1z"/>
		<path fill="#FFFFFF" stroke="#FFFFFF" stroke-miterlimit="10" d="M330.4,473.9v-20.9h1.9v20.9H330.4z"/>
		<path fill="#FFFFFF" stroke="#FFFFFF" stroke-miterlimit="10" d="M354.5,469c0,0.7-0.1,1.4-0.4,2s-0.7,1.2-1.2,1.6s-1,0.8-1.7,1.1
			c-0.6,0.3-1.3,0.4-2,0.4h-1.5c-0.7,0-1.4-0.1-2-0.4s-1.2-0.6-1.7-1.1s-0.9-1-1.2-1.6c-0.3-0.6-0.4-1.3-0.4-2v-0.8l1.9-0.3v1.1
			c0,0.5,0.1,0.9,0.3,1.3c0.2,0.4,0.4,0.8,0.8,1.1c0.3,0.3,0.7,0.5,1.1,0.7c0.4,0.2,0.9,0.3,1.3,0.3h1.3c0.5,0,0.9-0.1,1.3-0.3
			c0.4-0.2,0.8-0.4,1.1-0.7c0.3-0.3,0.6-0.7,0.8-1.1c0.2-0.4,0.3-0.8,0.3-1.3v-0.6c0-0.7-0.1-1.3-0.4-1.8s-0.7-0.9-1.1-1.2
			c-0.5-0.3-1-0.6-1.6-0.9c-0.6-0.2-1.2-0.5-1.8-0.7c-0.6-0.2-1.2-0.5-1.8-0.8c-0.6-0.3-1.1-0.6-1.6-1.1c-0.5-0.4-0.8-0.9-1.1-1.6
			s-0.4-1.4-0.4-2.3v-0.4c0-0.7,0.1-1.4,0.4-2s0.6-1.2,1.1-1.6c0.5-0.5,1-0.8,1.6-1.1c0.6-0.3,1.3-0.4,2-0.4h1.3
			c0.7,0,1.4,0.1,2,0.4c0.6,0.3,1.2,0.6,1.6,1.1s0.8,1,1.1,1.6s0.4,1.3,0.4,2v0.5l-1.9,0.3v-0.8c0-0.5-0.1-0.9-0.3-1.3
			c-0.2-0.4-0.4-0.8-0.7-1.1c-0.3-0.3-0.7-0.5-1.1-0.7c-0.4-0.2-0.8-0.3-1.3-0.3H348c-0.5,0-0.9,0.1-1.3,0.3
			c-0.4,0.2-0.8,0.4-1.1,0.7c-0.3,0.3-0.5,0.7-0.7,1.1c-0.2,0.4-0.3,0.8-0.3,1.3v0.4c0,0.7,0.1,1.2,0.4,1.7s0.7,0.8,1.1,1.2
			c0.5,0.3,1,0.6,1.6,0.8c0.6,0.2,1.2,0.5,1.8,0.7s1.2,0.5,1.8,0.8c0.6,0.3,1.1,0.7,1.6,1.1c0.5,0.4,0.8,1,1.1,1.6
			c0.3,0.6,0.4,1.4,0.4,2.3V469z"/>
		<path fill="#FFFFFF" stroke="#FFFFFF" stroke-miterlimit="10" d="M369.6,454.7v19.1h-1.9v-19.1h-5v-1.8h11.9v1.8H369.6z"/>
		<path fill="#FFFFFF" stroke="#FFFFFF" stroke-miterlimit="10" d="M393.4,473.9l-5.7-8.9h-2.6v8.9h-1.9v-20.9h6.6
			c0.7,0,1.4,0.1,2,0.4c0.6,0.3,1.2,0.6,1.6,1.1c0.5,0.5,0.8,1,1.1,1.6s0.4,1.3,0.4,2v1.7c0,0.7-0.1,1.4-0.4,2s-0.6,1.2-1.1,1.6
			s-1,0.8-1.6,1.1c-0.6,0.3-1.3,0.4-2,0.4l5.7,8.9H393.4z M393.1,458.1c0-0.5-0.1-0.9-0.3-1.3c-0.2-0.4-0.4-0.8-0.7-1.1
			c-0.3-0.3-0.7-0.5-1.1-0.7c-0.4-0.2-0.8-0.3-1.3-0.3h-4.7v8.4h4.7c0.5,0,0.9-0.1,1.3-0.3c0.4-0.2,0.8-0.4,1.1-0.7
			c0.3-0.3,0.5-0.7,0.7-1.1s0.3-0.8,0.3-1.3V458.1z"/>
		<path fill="#FFFFFF" stroke="#FFFFFF" stroke-miterlimit="10" d="M405.1,473.9v-20.9h1.9v20.9H405.1z"/>
		<path fill="#FFFFFF" stroke="#FFFFFF" stroke-miterlimit="10" d="M429.2,470.7c-0.3,0.6-0.6,1.2-1.1,1.6s-1,0.8-1.6,1.1
			c-0.6,0.3-1.3,0.4-2,0.4h-6.6v-20.9h6.6c0.7,0,1.4,0.1,2,0.4c0.6,0.3,1.2,0.6,1.6,1.1c0.5,0.5,0.8,1,1.1,1.6s0.4,1.3,0.4,2v0.2
			c0,0.5-0.1,1-0.2,1.4c-0.1,0.5-0.3,0.9-0.6,1.3s-0.5,0.7-0.9,1.1c-0.3,0.3-0.7,0.6-1.1,0.8c0.4,0.2,0.8,0.5,1.1,0.8
			c0.3,0.3,0.6,0.7,0.9,1.1s0.4,0.8,0.6,1.3c0.1,0.5,0.2,0.9,0.2,1.4v1.3C429.6,469.4,429.4,470.1,429.2,470.7z M427.7,458.1
			c0-0.5-0.1-0.9-0.3-1.3c-0.2-0.4-0.4-0.8-0.7-1.1c-0.3-0.3-0.7-0.5-1.1-0.7s-0.8-0.3-1.3-0.3h-4.7v7.2h4.7c0.5,0,0.9-0.1,1.3-0.3
			c0.4-0.2,0.8-0.4,1.1-0.7s0.5-0.7,0.7-1.1c0.2-0.4,0.3-0.8,0.3-1.3V458.1z M427.7,467.1c0-0.5-0.1-0.9-0.3-1.3
			c-0.2-0.4-0.4-0.8-0.7-1.1c-0.3-0.3-0.7-0.5-1.1-0.7c-0.4-0.2-0.8-0.3-1.3-0.3h-4.7v8.3h4.7c0.5,0,0.9-0.1,1.3-0.3
			c0.4-0.2,0.8-0.4,1.1-0.7c0.3-0.3,0.5-0.7,0.7-1.1c0.2-0.4,0.3-0.8,0.3-1.3V467.1z"/>
		<path fill="#FFFFFF" stroke="#FFFFFF" stroke-miterlimit="10" d="M450.2,471c-0.3,0.6-0.6,1.2-1.1,1.6s-1,0.8-1.6,1.1
			c-0.6,0.3-1.3,0.4-2,0.4H444c-0.7,0-1.4-0.1-2-0.4c-0.6-0.3-1.2-0.6-1.6-1.1c-0.5-0.5-0.8-1-1.1-1.6s-0.4-1.3-0.4-2v-16.1h1.9V469
			c0,0.5,0.1,0.9,0.3,1.3c0.2,0.4,0.4,0.8,0.7,1.1c0.3,0.3,0.7,0.5,1.1,0.7c0.4,0.2,0.8,0.3,1.3,0.3h1.3c0.5,0,0.9-0.1,1.3-0.3
			c0.4-0.2,0.8-0.4,1.1-0.7c0.3-0.3,0.5-0.7,0.7-1.1c0.2-0.4,0.3-0.8,0.3-1.3v-16.1h1.9V469C450.6,469.7,450.5,470.4,450.2,471z"/>
		<path fill="#FFFFFF" stroke="#FFFFFF" stroke-miterlimit="10" d="M472.1,471c-0.3,0.6-0.6,1.2-1.1,1.6s-1,0.8-1.6,1.1
			c-0.6,0.3-1.3,0.4-2,0.4h-1.5c-0.7,0-1.4-0.1-2-0.4c-0.6-0.3-1.2-0.6-1.6-1.1c-0.5-0.5-0.8-1-1.1-1.6s-0.4-1.3-0.4-2v-11.2
			c0-0.7,0.1-1.4,0.4-2s0.6-1.2,1.1-1.6c0.5-0.5,1-0.8,1.6-1.1c0.6-0.3,1.3-0.4,2-0.4h1.5c0.7,0,1.4,0.1,2,0.4
			c0.6,0.3,1.2,0.6,1.6,1.1s0.8,1,1.1,1.6s0.4,1.3,0.4,2v0.8l-1.9,0.3v-1.1c0-0.5-0.1-0.9-0.3-1.3c-0.2-0.4-0.4-0.8-0.7-1.1
			c-0.3-0.3-0.7-0.5-1.1-0.7c-0.4-0.2-0.8-0.3-1.3-0.3H466c-0.5,0-0.9,0.1-1.3,0.3c-0.4,0.2-0.8,0.4-1.1,0.7
			c-0.3,0.3-0.5,0.7-0.7,1.1c-0.2,0.4-0.3,0.8-0.3,1.3V469c0,0.5,0.1,0.9,0.3,1.3c0.2,0.4,0.4,0.8,0.7,1.1c0.3,0.3,0.7,0.5,1.1,0.7
			c0.4,0.2,0.8,0.3,1.3,0.3h1.3c0.5,0,0.9-0.1,1.3-0.3c0.4-0.2,0.8-0.4,1.1-0.7c0.3-0.3,0.5-0.7,0.7-1.1c0.2-0.4,0.3-0.8,0.3-1.3
			v-1.1l1.9,0.3v0.8C472.5,469.7,472.4,470.4,472.1,471z"/>
		<path fill="#FFFFFF" stroke="#FFFFFF" stroke-miterlimit="10" d="M493.8,471c-0.3,0.6-0.6,1.2-1.1,1.6s-1,0.8-1.6,1.1
			c-0.6,0.3-1.3,0.4-2,0.4h-1.5c-0.7,0-1.4-0.1-2-0.4c-0.6-0.3-1.2-0.6-1.6-1.1c-0.5-0.5-0.8-1-1.1-1.6s-0.4-1.3-0.4-2v-11.2
			c0-0.7,0.1-1.4,0.4-2s0.6-1.2,1.1-1.6c0.5-0.5,1-0.8,1.6-1.1c0.6-0.3,1.3-0.4,2-0.4h1.5c0.7,0,1.4,0.1,2,0.4
			c0.6,0.3,1.2,0.6,1.6,1.1s0.8,1,1.1,1.6s0.4,1.3,0.4,2v0.8l-1.9,0.3v-1.1c0-0.5-0.1-0.9-0.3-1.3c-0.2-0.4-0.4-0.8-0.7-1.1
			c-0.3-0.3-0.7-0.5-1.1-0.7c-0.4-0.2-0.8-0.3-1.3-0.3h-1.3c-0.5,0-0.9,0.1-1.3,0.3c-0.4,0.2-0.8,0.4-1.1,0.7
			c-0.3,0.3-0.5,0.7-0.7,1.1c-0.2,0.4-0.3,0.8-0.3,1.3V469c0,0.5,0.1,0.9,0.3,1.3c0.2,0.4,0.4,0.8,0.7,1.1c0.3,0.3,0.7,0.5,1.1,0.7
			c0.4,0.2,0.8,0.3,1.3,0.3h1.3c0.5,0,0.9-0.1,1.3-0.3c0.4-0.2,0.8-0.4,1.1-0.7c0.3-0.3,0.5-0.7,0.7-1.1c0.2-0.4,0.3-0.8,0.3-1.3
			v-1.1l1.9,0.3v0.8C494.2,469.7,494,470.4,493.8,471z"/>
		<path fill="#FFFFFF" stroke="#FFFFFF" stroke-miterlimit="10" d="M504.3,473.9v-20.9h1.9v20.9H504.3z"/>
		<path fill="#FFFFFF" stroke="#FFFFFF" stroke-miterlimit="10" d="M528,471c-0.3,0.6-0.6,1.2-1.1,1.6s-1,0.8-1.6,1.1
			c-0.6,0.3-1.3,0.4-2,0.4h-1.5c-0.7,0-1.4-0.1-2-0.4c-0.6-0.3-1.2-0.6-1.6-1.1c-0.5-0.5-0.8-1-1.1-1.6s-0.4-1.3-0.4-2v-11.2
			c0-0.7,0.1-1.4,0.4-2s0.6-1.2,1.1-1.6c0.5-0.5,1-0.8,1.6-1.1c0.6-0.3,1.3-0.4,2-0.4h1.5c0.7,0,1.4,0.1,2,0.4
			c0.6,0.3,1.2,0.6,1.6,1.1s0.8,1,1.1,1.6s0.4,1.3,0.4,2V469C528.4,469.7,528.3,470.4,528,471z M526.6,457.8c0-0.5-0.1-0.9-0.3-1.3
			c-0.2-0.4-0.4-0.8-0.7-1.1c-0.3-0.3-0.7-0.5-1.1-0.7c-0.4-0.2-0.8-0.3-1.3-0.3h-1.3c-0.5,0-0.9,0.1-1.3,0.3
			c-0.4,0.2-0.8,0.4-1.1,0.7c-0.3,0.3-0.5,0.7-0.7,1.1c-0.2,0.4-0.3,0.8-0.3,1.3V469c0,0.5,0.1,0.9,0.3,1.3c0.2,0.4,0.4,0.8,0.7,1.1
			c0.3,0.3,0.7,0.5,1.1,0.7c0.4,0.2,0.8,0.3,1.3,0.3h1.3c0.5,0,0.9-0.1,1.3-0.3c0.4-0.2,0.8-0.4,1.1-0.7c0.3-0.3,0.5-0.7,0.7-1.1
			c0.2-0.4,0.3-0.8,0.3-1.3V457.8z M522.1,450.6h-1.3l2.4-3.6h3L522.1,450.6z"/>
		<path fill="#FFFFFF" stroke="#FFFFFF" stroke-miterlimit="10" d="M549.7,473.9l-8.7-15.2l-0.2-0.9v16.1h-1.9v-20.9h1l8.7,15.2
			l0.2,0.9v-16.1h1.9v20.9H549.7z"/>
		<path fill="#FFFFFF" stroke="#FFFFFF" stroke-miterlimit="10" d="M239.5,509.7l-5.7-8.9h-2.6v8.9h-1.9v-20.9h6.6
			c0.7,0,1.4,0.1,2,0.4c0.6,0.3,1.2,0.6,1.6,1.1c0.5,0.5,0.8,1,1.1,1.6s0.4,1.3,0.4,2v1.7c0,0.7-0.1,1.4-0.4,2s-0.6,1.2-1.1,1.6
			s-1,0.8-1.6,1.1c-0.6,0.3-1.3,0.4-2,0.4l5.7,8.9H239.5z M239.2,494c0-0.5-0.1-0.9-0.3-1.3c-0.2-0.4-0.4-0.8-0.7-1.1
			c-0.3-0.3-0.7-0.5-1.1-0.7c-0.4-0.2-0.8-0.3-1.3-0.3h-4.7v8.4h4.7c0.5,0,0.9-0.1,1.3-0.3c0.4-0.2,0.8-0.4,1.1-0.7
			c0.3-0.3,0.5-0.7,0.7-1.1s0.3-0.8,0.3-1.3V494z"/>
		<path fill="#FFFFFF" stroke="#FFFFFF" stroke-miterlimit="10" d="M251.2,509.7v-20.9H263v1.8h-9.9v7.8h8v1.8h-8v7.8h9.9v1.8H251.2
			z"/>
		<path fill="#FFFFFF" stroke="#FFFFFF" stroke-miterlimit="10" d="M284,509.7h-0.6l-1.1-1.7c-0.5,0.6-1,1.1-1.7,1.4
			c-0.7,0.4-1.4,0.5-2.2,0.5h-1.1c-0.7,0-1.4-0.1-2-0.4c-0.6-0.3-1.2-0.6-1.6-1.1c-0.5-0.5-0.8-1-1.1-1.6s-0.4-1.3-0.4-2v-11.2
			c0-0.7,0.1-1.4,0.4-2s0.6-1.2,1.1-1.6c0.5-0.5,1-0.8,1.6-1.1c0.6-0.3,1.3-0.4,2-0.4h1.5c0.7,0,1.4,0.1,2,0.4
			c0.6,0.3,1.2,0.6,1.6,1.1s0.8,1,1.1,1.6s0.4,1.3,0.4,2v0.8l-1.9,0.3v-1.1c0-0.5-0.1-0.9-0.3-1.3c-0.2-0.4-0.4-0.8-0.7-1.1
			c-0.3-0.3-0.7-0.5-1.1-0.7c-0.4-0.2-0.8-0.3-1.3-0.3h-1.3c-0.5,0-0.9,0.1-1.3,0.3c-0.4,0.2-0.8,0.4-1.1,0.7
			c-0.3,0.3-0.5,0.7-0.7,1.1c-0.2,0.4-0.3,0.8-0.3,1.3v11.2c0,0.5,0.1,0.9,0.3,1.3c0.2,0.4,0.4,0.8,0.7,1.1c0.3,0.3,0.7,0.5,1.1,0.7
			c0.4,0.2,0.8,0.3,1.3,0.3h1.3c0.5,0,0.9-0.1,1.3-0.3c0.4-0.2,0.8-0.4,1.1-0.7c0.3-0.3,0.5-0.7,0.7-1.1c0.2-0.4,0.3-0.8,0.3-1.3
			v-4.4h-3.3v-1.8h5.2V509.7z"/>
		<path fill="#FFFFFF" stroke="#FFFFFF" stroke-miterlimit="10" d="M305.6,506.9c-0.3,0.6-0.6,1.2-1.1,1.6s-1,0.8-1.6,1.1
			c-0.6,0.3-1.3,0.4-2,0.4h-1.5c-0.7,0-1.4-0.1-2-0.4c-0.6-0.3-1.2-0.6-1.6-1.1c-0.5-0.5-0.8-1-1.1-1.6s-0.4-1.3-0.4-2v-16.1h1.9
			v16.1c0,0.5,0.1,0.9,0.3,1.3c0.2,0.4,0.4,0.8,0.7,1.1c0.3,0.3,0.7,0.5,1.1,0.7c0.4,0.2,0.8,0.3,1.3,0.3h1.3c0.5,0,0.9-0.1,1.3-0.3
			c0.4-0.2,0.8-0.4,1.1-0.7c0.3-0.3,0.5-0.7,0.7-1.1c0.2-0.4,0.3-0.8,0.3-1.3v-16.1h1.9v16.1C306,505.6,305.8,506.3,305.6,506.9z"/>
		<path fill="#FFFFFF" stroke="#FFFFFF" stroke-miterlimit="10" d="M316.1,509.7v-20.9h1.9v19.1h8v1.8H316.1z"/>
		<path fill="#FFFFFF" stroke="#FFFFFF" stroke-miterlimit="10" d="M342.8,504.9h-6.6l-1.4,4.9h-2l6.1-20.9h1l6.2,20.9h-1.9
			L342.8,504.9z M336.7,503.1h5.6l-2.8-9.6l-0.1-0.8l-0.1,0.8L336.7,503.1z"/>
		<path fill="#FFFFFF" stroke="#FFFFFF" stroke-miterlimit="10" d="M364.7,509.7l-5.7-8.9h-2.6v8.9h-1.9v-20.9h6.6
			c0.7,0,1.4,0.1,2,0.4c0.6,0.3,1.2,0.6,1.6,1.1c0.5,0.5,0.8,1,1.1,1.6s0.4,1.3,0.4,2v1.7c0,0.7-0.1,1.4-0.4,2s-0.6,1.2-1.1,1.6
			s-1,0.8-1.6,1.1c-0.6,0.3-1.3,0.4-2,0.4l5.7,8.9H364.7z M364.4,494c0-0.5-0.1-0.9-0.3-1.3c-0.2-0.4-0.4-0.8-0.7-1.1
			c-0.3-0.3-0.7-0.5-1.1-0.7c-0.4-0.2-0.8-0.3-1.3-0.3h-4.7v8.4h4.7c0.5,0,0.9-0.1,1.3-0.3c0.4-0.2,0.8-0.4,1.1-0.7
			c0.3-0.3,0.5-0.7,0.7-1.1s0.3-0.8,0.3-1.3V494z"/>
	</g>
</g>
</svg>
