<?xml version="1.0" encoding="utf-8"?>
<!-- Generator: Adobe Illustrator 18.0.0, SVG Export Plug-In . SVG Version: 6.00 Build 0)  -->
<!DOCTYPE svg PUBLIC "-//W3C//DTD SVG 1.1//EN" "http://www.w3.org/Graphics/SVG/1.1/DTD/svg11.dtd" [
	<!ENTITY ns_flows "http://ns.adobe.com/Flows/1.0/">
	<!ENTITY ns_extend "http://ns.adobe.com/Extensibility/1.0/">
	<!ENTITY ns_ai "http://ns.adobe.com/AdobeIllustrator/10.0/">
	<!ENTITY ns_graphs "http://ns.adobe.com/Graphs/1.0/">
]>
<svg version="1.1" id="Capa_1" xmlns:x="&ns_extend;" xmlns:i="&ns_ai;" xmlns:graph="&ns_graphs;"
	 xmlns="http://www.w3.org/2000/svg" xmlns:xlink="http://www.w3.org/1999/xlink" xmlns:a="http://ns.adobe.com/AdobeSVGViewerExtensions/3.0/"
	 x="0px" y="0px" viewBox="0 0 595.3 841.9" enable-background="new 0 0 595.3 841.9" xml:space="preserve">
<g>
	<g opacity="0.51"  a:adobe-blending-mode="multiply">
		<circle fill="#7CAA9A"  a:adobe-blending-mode="normal" cx="448.7" cy="564.1" r="114"/>
	</g>
	<g>
		<path fill="#FFFFFF" stroke="#FFFFFF" stroke-miterlimit="10" d="M62.1,220.3v-46h6.4v19.9h11.8v-19.9h6.4v46h-6.4v-21.6H68.5
			v21.6H62.1z"/>
		<path fill="#FFFFFF" stroke="#FFFFFF" stroke-miterlimit="10" d="M111.4,220.8c-2.3,0-4.3-0.3-5.9-1c-1.6-0.7-2.9-1.7-3.9-3
			c-1-1.3-1.7-2.9-2.1-4.7c-0.4-1.8-0.7-3.8-0.7-6.2v-17.4c0-4.8,1-8.4,2.9-10.9s5.2-3.7,9.6-3.7c4.5,0,7.7,1.2,9.6,3.7
			c2,2.5,2.9,6.1,2.9,10.9v17.5c0,4.8-1,8.5-3,11C119,219.5,115.8,220.8,111.4,220.8z M108.2,215.2c0.8,0.4,1.9,0.6,3.1,0.6
			c1.3,0,2.3-0.2,3.1-0.6s1.4-1,1.9-1.8c0.4-0.8,0.7-1.7,0.9-2.6c0.2-1,0.2-2.1,0.2-3.5v-20.1c0-1.4-0.1-2.5-0.2-3.5
			c-0.2-0.9-0.4-1.8-0.9-2.6c-0.4-0.8-1.1-1.3-1.9-1.7s-1.9-0.5-3.1-0.5c-1.3,0-2.3,0.2-3.1,0.5s-1.4,0.9-1.9,1.7
			c-0.4,0.8-0.7,1.6-0.9,2.6c-0.2,0.9-0.2,2.1-0.2,3.5v20.1c0,1.4,0.1,2.6,0.2,3.5c0.2,1,0.4,1.8,0.9,2.6
			C106.8,214.2,107.4,214.8,108.2,215.2z"/>
		<path fill="#FFFFFF" stroke="#FFFFFF" stroke-miterlimit="10" d="M132.8,221.3v-4.6c1.5,0,2.6-0.1,3.4-0.3c0.8-0.2,1.5-0.5,2-1.1
			c0.5-0.5,0.9-1.2,1-2.1c0.2-0.9,0.2-2,0.2-3.6v-35.5h6.4v35.6c0,2.1-0.2,3.8-0.5,5.1c-0.3,1.4-0.8,2.5-1.6,3.5
			c-0.8,1-1.8,1.7-3.1,2.1c-1.3,0.4-2.9,0.7-4.9,0.7H132.8z"/>
		<path fill="#FFFFFF" stroke="#FFFFFF" stroke-miterlimit="10" d="M156.2,220.3l9.8-46h6.2l9.8,46H176l-2.1-11.6h-9.4l-2.2,11.6
			H156.2z M165.3,204.1h7.7l-3.9-20.8L165.3,204.1z"/>
		<path fill="#FFFFFF" stroke="#FFFFFF" stroke-miterlimit="10" d="M203.2,220.8c-3.9,0-6.8-1.2-8.8-3.6c-2-2.4-3.2-5.7-3.4-9.8
			l5.7-1.6c0.4,6.6,2.6,9.9,6.5,9.9c1.6,0,2.9-0.5,3.8-1.4c0.9-0.9,1.3-2.3,1.3-4c0-1-0.1-1.9-0.3-2.7s-0.6-1.6-1.1-2.3
			c-0.5-0.7-1-1.4-1.5-1.8c-0.5-0.5-1.1-1.1-2-2l-7.7-6.9c-1.6-1.4-2.7-2.9-3.4-4.5c-0.7-1.6-1.1-3.5-1.1-5.7c0-3.3,1-5.9,2.9-7.8
			c1.9-1.9,4.6-2.8,7.9-2.8c3.7-0.1,6.4,0.9,8.3,2.8c1.8,2,2.9,5,3.3,9.1l-5.4,1.5c-0.1-1-0.2-1.9-0.3-2.7c-0.1-0.8-0.3-1.6-0.6-2.3
			c-0.3-0.8-0.7-1.4-1.1-1.9c-0.4-0.5-1-0.9-1.7-1.2c-0.7-0.3-1.5-0.4-2.4-0.3c-3.4,0.2-5.1,1.9-5.1,5.1c0,1.4,0.2,2.5,0.7,3.4
			c0.5,0.9,1.2,1.9,2.3,2.9l7.8,6.9c2,1.8,3.6,3.8,4.8,5.8c1.2,2.1,1.8,4.4,1.8,7c0,3.4-1,6-3.1,8
			C209.2,219.8,206.5,220.8,203.2,220.8z"/>
		<path fill="#FFFFFF" stroke="#FFFFFF" stroke-miterlimit="10" d="M262.3,220.3v-46h11.4c4,0,6.9,1.1,8.7,3.2
			c1.8,2.2,2.7,5.3,2.7,9.5c0,3.7-1,6.7-2.9,8.7c-1.9,2.1-4.8,3.1-8.5,3.1h-5v21.4H262.3z M268.7,194.2h2.9c2.8,0,4.7-0.5,5.8-1.5
			s1.6-2.9,1.6-5.7c0-1.2,0-2.1-0.1-2.9c-0.1-0.7-0.2-1.5-0.4-2.1s-0.4-1.2-0.8-1.5c-0.3-0.4-0.8-0.7-1.3-0.9s-1.2-0.4-2-0.5
			c-0.7-0.1-1.7-0.1-2.8-0.1h-3V194.2z"/>
		<path fill="#FFFFFF" stroke="#FFFFFF" stroke-miterlimit="10" d="M295.3,220.3v-46h17.8v4.7h-11.4v15.2h9.3v4.6h-9.3v16.9h11.5
			v4.6H295.3z"/>
		<path fill="#FFFFFF" stroke="#FFFFFF" stroke-miterlimit="10" d="M345.2,229.6c-2.4-1.2-5.2-4.1-8.3-8.8c-0.1,0-0.3,0-0.5,0
			c-0.2,0-0.4,0-0.6,0c-4.5,0-7.7-1.3-9.7-3.8c-2-2.6-2.9-6.3-2.9-11.1v-17.4c0-4.8,1-8.4,2.9-10.9s5.2-3.7,9.7-3.7
			c4.5,0,7.7,1.2,9.6,3.7c2,2.5,3,6.1,3,10.9v17.5c0,7.3-2.2,12-6.7,13.8c1.9,2.4,3.4,4,4.5,4.8L345.2,229.6z M332.7,215.2
			c0.8,0.4,1.9,0.6,3.1,0.6s2.3-0.2,3.1-0.6s1.5-1,1.9-1.8s0.7-1.7,0.9-2.6s0.2-2.1,0.2-3.5v-20.1c0-1.4-0.1-2.5-0.2-3.5
			c-0.2-0.9-0.5-1.8-0.9-2.6c-0.4-0.8-1.1-1.3-1.9-1.7s-1.9-0.5-3.1-0.5s-2.3,0.2-3.1,0.5s-1.5,0.9-1.9,1.7
			c-0.4,0.8-0.7,1.6-0.9,2.6c-0.2,0.9-0.2,2.1-0.2,3.5v20.1c0,1.4,0.1,2.6,0.2,3.5c0.2,1,0.5,1.8,0.9,2.6S331.9,214.8,332.7,215.2z"
			/>
		<path fill="#FFFFFF" stroke="#FFFFFF" stroke-miterlimit="10" d="M377.5,220c-1.4,0.5-3.1,0.8-5.1,0.8c-2,0-3.7-0.3-5.1-0.8
			s-2.6-1.2-3.5-2.1c-0.9-0.9-1.6-2-2.2-3.4c-0.5-1.4-0.9-2.8-1.1-4.4c-0.2-1.5-0.3-3.3-0.3-5.4v-30.5h6.1v30.8c0,1.3,0,2.5,0.1,3.4
			c0.1,1,0.2,1.9,0.5,2.9c0.3,1,0.6,1.8,1,2.3c0.4,0.6,1,1.1,1.8,1.5c0.8,0.4,1.7,0.6,2.7,0.6s2-0.2,2.7-0.6
			c0.8-0.4,1.3-0.9,1.8-1.5c0.4-0.6,0.8-1.4,1-2.3c0.3-1,0.4-1.9,0.5-2.9c0.1-1,0.1-2.1,0.1-3.4v-30.8h6.1v30.5
			c0,2.1-0.1,3.9-0.3,5.4c-0.2,1.5-0.6,3-1.1,4.4c-0.5,1.4-1.3,2.5-2.2,3.4C380.1,218.8,378.9,219.5,377.5,220z"/>
		<path fill="#FFFFFF" stroke="#FFFFFF" stroke-miterlimit="10" d="M397.1,220.3v-46h17.8v4.7h-11.4v15.2h9.3v4.6h-9.3v16.9H415v4.6
			H397.1z"/>
		<path fill="#FFFFFF" stroke="#FFFFFF" stroke-miterlimit="10" d="M425.9,220.3v-46h4.4l13.1,30.6v-30.6h5.4v46h-4.1l-13.3-31.4
			v31.4H425.9z M441.1,170.4c-1,0-2.3-0.5-4-1.4c-1.7-0.9-2.8-1.4-3.3-1.4c-0.5,0-0.9,0.1-1.1,0.5c-0.2,0.4-0.3,1-0.3,1.8h-3.5
			c0-4.2,1.6-6.2,4.9-6.1c1,0,2.4,0.5,4.1,1.4c1.8,0.9,2.8,1.4,3.2,1.4c0.5,0,0.8-0.1,1-0.5c0.2-0.4,0.3-1,0.3-1.9h3.4
			c0,1.9-0.4,3.5-1.1,4.6C444,169.9,442.8,170.4,441.1,170.4z"/>
		<path fill="#FFFFFF" stroke="#FFFFFF" stroke-miterlimit="10" d="M459,220.3l9.8-46h6.2l9.8,46h-6.1l-2.1-11.6h-9.4l-2.2,11.6H459
			z M468.1,204.1h7.7l-3.9-20.8L468.1,204.1z"/>
		<path fill="#FFFFFF" stroke="#FFFFFF" stroke-miterlimit="10" d="M506,220.8c-3.9,0-6.8-1.2-8.8-3.6c-2-2.4-3.2-5.7-3.4-9.8
			l5.7-1.6c0.4,6.6,2.6,9.9,6.5,9.9c1.6,0,2.9-0.5,3.8-1.4c0.9-0.9,1.3-2.3,1.3-4c0-1-0.1-1.9-0.3-2.7s-0.6-1.6-1.1-2.3
			c-0.5-0.7-1-1.4-1.5-1.8c-0.5-0.5-1.1-1.1-2-2l-7.7-6.9c-1.6-1.4-2.7-2.9-3.4-4.5c-0.7-1.6-1.1-3.5-1.1-5.7c0-3.3,1-5.9,2.9-7.8
			c1.9-1.9,4.6-2.8,7.9-2.8c3.7-0.1,6.4,0.9,8.3,2.8c1.8,2,2.9,5,3.3,9.1l-5.4,1.5c-0.1-1-0.2-1.9-0.3-2.7c-0.1-0.8-0.3-1.6-0.6-2.3
			c-0.3-0.8-0.7-1.4-1.1-1.9c-0.4-0.5-1-0.9-1.7-1.2c-0.7-0.3-1.5-0.4-2.4-0.3c-3.4,0.2-5.1,1.9-5.1,5.1c0,1.4,0.2,2.5,0.7,3.4
			c0.5,0.9,1.2,1.9,2.3,2.9l7.8,6.9c2,1.8,3.6,3.8,4.8,5.8c1.2,2.1,1.8,4.4,1.8,7c0,3.4-1,6-3.1,8C512,219.8,509.3,220.8,506,220.8z
			"/>
		<path fill="#FFFFFF" stroke="#FFFFFF" stroke-miterlimit="10" d="M23.4,295.3l9.8-46h6.2l9.8,46h-6.1L41,283.7h-9.4l-2.2,11.6
			H23.4z M32.5,279.1h7.7l-3.9-20.8L32.5,279.1z"/>
		<path fill="#FFFFFF" stroke="#FFFFFF" stroke-miterlimit="10" d="M96.8,295.3l0.9-46h6.3l8.1,37.3l8.2-37.3h6.3l0.9,46h-5.2
			l-0.5-33.4l-7.8,33.4h-3.6l-7.7-33.4l-0.5,33.4H96.8z"/>
		<path fill="#FFFFFF" stroke="#FFFFFF" stroke-miterlimit="10" d="M151.8,295.8c-2.3,0-4.3-0.3-5.9-1c-1.6-0.7-2.9-1.7-3.9-3
			c-1-1.3-1.7-2.9-2.1-4.7c-0.4-1.8-0.7-3.8-0.7-6.2v-17.4c0-4.8,1-8.4,2.9-10.9s5.2-3.7,9.6-3.7c4.5,0,7.7,1.2,9.6,3.7
			c2,2.5,2.9,6.1,2.9,10.9v17.5c0,4.8-1,8.5-3,11C159.5,294.5,156.3,295.8,151.8,295.8z M148.7,290.2c0.8,0.4,1.9,0.6,3.1,0.6
			c1.3,0,2.3-0.2,3.1-0.6s1.4-1,1.9-1.8c0.4-0.8,0.7-1.7,0.9-2.6c0.2-1,0.2-2.1,0.2-3.5v-20.1c0-1.4-0.1-2.5-0.2-3.5
			c-0.2-0.9-0.4-1.8-0.9-2.6c-0.4-0.8-1.1-1.3-1.9-1.7s-1.9-0.5-3.1-0.5c-1.3,0-2.3,0.2-3.1,0.5s-1.4,0.9-1.9,1.7
			c-0.4,0.8-0.7,1.6-0.9,2.6c-0.2,0.9-0.2,2.1-0.2,3.5v20.1c0,1.4,0.1,2.6,0.2,3.5c0.2,1,0.4,1.8,0.9,2.6
			C147.3,289.2,147.9,289.8,148.7,290.2z"/>
		<path fill="#FFFFFF" stroke="#FFFFFF" stroke-miterlimit="10" d="M176.4,295.3v-46h10c5,0,8.5,1.1,10.5,3.4
			c2,2.3,3.1,5.8,3.1,10.7v16.9c0,5.1-1,8.8-3,11.3c-2,2.5-5.4,3.7-10.1,3.7H176.4z M182.8,290.7h3.6c1,0,1.8-0.1,2.6-0.3
			s1.4-0.4,1.9-0.7c0.5-0.3,0.9-0.7,1.3-1.3c0.3-0.6,0.6-1.1,0.8-1.6s0.3-1.2,0.4-2.2c0.1-1,0.1-1.8,0.2-2.5c0-0.7,0-1.7,0-3v-15
			c0-1.1,0-2-0.1-2.8c0-0.8-0.1-1.5-0.2-2.3c-0.1-0.8-0.3-1.4-0.5-1.9c-0.2-0.5-0.5-0.9-0.9-1.4s-0.8-0.8-1.3-1
			c-0.5-0.2-1.1-0.4-1.8-0.5s-1.5-0.2-2.5-0.2h-3.5V290.7z"/>
		<path fill="#FFFFFF" stroke="#FFFFFF" stroke-miterlimit="10" d="M223.8,295.8c-2.3,0-4.3-0.3-5.9-1c-1.6-0.7-2.9-1.7-3.9-3
			c-1-1.3-1.7-2.9-2.1-4.7c-0.4-1.8-0.7-3.8-0.7-6.2v-17.4c0-4.8,1-8.4,2.9-10.9s5.2-3.7,9.6-3.7c4.5,0,7.7,1.2,9.6,3.7
			c2,2.5,2.9,6.1,2.9,10.9v17.5c0,4.8-1,8.5-3,11C231.4,294.5,228.2,295.8,223.8,295.8z M220.7,290.2c0.8,0.4,1.9,0.6,3.1,0.6
			c1.3,0,2.3-0.2,3.1-0.6s1.4-1,1.9-1.8c0.4-0.8,0.7-1.7,0.9-2.6c0.2-1,0.2-2.1,0.2-3.5v-20.1c0-1.4-0.1-2.5-0.2-3.5
			c-0.2-0.9-0.4-1.8-0.9-2.6c-0.4-0.8-1.1-1.3-1.9-1.7s-1.9-0.5-3.1-0.5c-1.3,0-2.3,0.2-3.1,0.5s-1.4,0.9-1.9,1.7
			c-0.4,0.8-0.7,1.6-0.9,2.6c-0.2,0.9-0.2,2.1-0.2,3.5v20.1c0,1.4,0.1,2.6,0.2,3.5c0.2,1,0.4,1.8,0.9,2.6
			C219.2,289.2,219.8,289.8,220.7,290.2z"/>
		<path fill="#FFFFFF" stroke="#FFFFFF" stroke-miterlimit="10" d="M285.7,295.3v-46h10c5,0,8.5,1.1,10.5,3.4
			c2,2.3,3.1,5.8,3.1,10.7v16.9c0,5.1-1,8.8-3,11.3c-2,2.5-5.4,3.7-10.1,3.7H285.7z M292.1,290.7h3.6c1,0,1.8-0.1,2.6-0.3
			s1.4-0.4,1.9-0.7c0.5-0.3,0.9-0.7,1.3-1.3c0.3-0.6,0.6-1.1,0.8-1.6s0.3-1.2,0.4-2.2c0.1-1,0.1-1.8,0.2-2.5c0-0.7,0-1.7,0-3v-15
			c0-1.1,0-2-0.1-2.8c0-0.8-0.1-1.5-0.2-2.3c-0.1-0.8-0.3-1.4-0.5-1.9c-0.2-0.5-0.5-0.9-0.9-1.4s-0.8-0.8-1.3-1
			c-0.5-0.2-1.1-0.4-1.8-0.5s-1.5-0.2-2.5-0.2h-3.5V290.7z"/>
		<path fill="#FFFFFF" stroke="#FFFFFF" stroke-miterlimit="10" d="M321.3,295.3v-46h17.8v4.7h-11.4v15.2h9.3v4.6h-9.3v16.9h11.5
			v4.6H321.3z"/>
		<path fill="#FFFFFF" stroke="#FFFFFF" stroke-miterlimit="10" d="M385,295.3l9.8-46h6.2l9.8,46h-6.1l-2.1-11.6h-9.4l-2.2,11.6H385
			z M394.1,279.1h7.7l-3.9-20.8L394.1,279.1z"/>
		<path fill="#FFFFFF" stroke="#FFFFFF" stroke-miterlimit="10" d="M431.9,295.8c-4.2,0-7.2-1.3-9-4c-1.9-2.6-2.8-6.5-2.8-11.7
			v-15.4c0-2.1,0.1-4,0.3-5.6c0.2-1.6,0.6-3.1,1.2-4.4c0.6-1.4,1.3-2.5,2.2-3.3c0.9-0.9,2.1-1.5,3.5-2c1.4-0.5,3.1-0.7,5-0.7
			c4.3,0,7.3,1.1,9.2,3.2c1.9,2.2,2.8,5.6,2.8,10.2v1.7h-6v-1.4c0-1.3,0-2.4-0.1-3.2c-0.1-0.8-0.2-1.6-0.5-2.4
			c-0.2-0.8-0.6-1.3-1-1.8c-0.4-0.4-1-0.7-1.7-1c-0.7-0.2-1.6-0.4-2.6-0.4c-0.8,0-1.5,0.1-2.1,0.3c-0.6,0.2-1.1,0.4-1.6,0.7
			s-0.8,0.7-1.1,1.2c-0.3,0.5-0.5,1-0.7,1.5c-0.2,0.5-0.3,1.1-0.4,1.9c-0.1,0.8-0.1,1.5-0.2,2.1c0,0.6,0,1.4,0,2.4v17
			c0,3.5,0.4,6.1,1.3,7.6c0.9,1.5,2.5,2.3,4.9,2.3c2.4,0,4.1-0.8,4.9-2.5c0.9-1.7,1.3-4.3,1.3-8V277h-5.8v-4.6h11.7v22.8h-4.1
			l-0.6-5.3C438.7,293.9,436,295.8,431.9,295.8z"/>
		<path fill="#FFFFFF" stroke="#FFFFFF" stroke-miterlimit="10" d="M474,295c-1.4,0.5-3.1,0.8-5.1,0.8c-2,0-3.7-0.3-5.1-0.8
			s-2.6-1.2-3.5-2.1c-0.9-0.9-1.6-2-2.2-3.4c-0.5-1.4-0.9-2.8-1.1-4.4c-0.2-1.5-0.3-3.3-0.3-5.4v-30.5h6.1v30.8c0,1.3,0,2.5,0.1,3.4
			c0.1,1,0.2,1.9,0.5,2.9c0.3,1,0.6,1.8,1,2.3c0.4,0.6,1,1.1,1.8,1.5c0.8,0.4,1.7,0.6,2.7,0.6s2-0.2,2.7-0.6
			c0.8-0.4,1.3-0.9,1.8-1.5c0.4-0.6,0.8-1.4,1-2.3c0.3-1,0.4-1.9,0.5-2.9c0.1-1,0.1-2.1,0.1-3.4v-30.8h6.1v30.5
			c0,2.1-0.1,3.9-0.3,5.4c-0.2,1.5-0.6,3-1.1,4.4c-0.5,1.4-1.3,2.5-2.2,3.4C476.6,293.8,475.4,294.5,474,295z"/>
		<path fill="#FFFFFF" stroke="#FFFFFF" stroke-miterlimit="10" d="M490.4,296.3v-4.6c1.5,0,2.6-0.1,3.4-0.3c0.8-0.2,1.5-0.5,2-1.1
			c0.5-0.5,0.9-1.2,1-2.1c0.2-0.9,0.2-2,0.2-3.6v-35.5h6.4v35.6c0,2.1-0.2,3.8-0.5,5.1c-0.3,1.4-0.8,2.5-1.6,3.5
			c-0.8,1-1.8,1.7-3.1,2.1c-1.3,0.4-2.9,0.7-4.9,0.7H490.4z"/>
		<path fill="#FFFFFF" stroke="#FFFFFF" stroke-miterlimit="10" d="M513.9,295.3l9.8-46h6.2l9.8,46h-6.1l-2.1-11.6h-9.4l-2.2,11.6
			H513.9z M523,279.1h7.7l-3.9-20.8L523,279.1z"/>
		<path fill="#FFFFFF" stroke="#FFFFFF" stroke-miterlimit="10" d="M560.9,295.8c-3.9,0-6.8-1.2-8.8-3.6c-2-2.4-3.2-5.7-3.4-9.8
			l5.7-1.6c0.4,6.6,2.6,9.9,6.5,9.9c1.6,0,2.9-0.5,3.8-1.4c0.9-0.9,1.3-2.3,1.3-4c0-1-0.1-1.9-0.3-2.7s-0.6-1.6-1.1-2.3
			c-0.5-0.7-1-1.4-1.5-1.8c-0.5-0.5-1.1-1.1-2-2l-7.7-6.9c-1.6-1.4-2.7-2.9-3.4-4.5c-0.7-1.6-1.1-3.5-1.1-5.7c0-3.3,1-5.9,2.9-7.8
			c1.9-1.9,4.6-2.8,7.9-2.8c3.7-0.1,6.4,0.9,8.3,2.8c1.8,2,2.9,5,3.3,9.1l-5.4,1.5c-0.1-1-0.2-1.9-0.3-2.7c-0.1-0.8-0.3-1.6-0.6-2.3
			c-0.3-0.8-0.7-1.4-1.1-1.9c-0.4-0.5-1-0.9-1.7-1.2c-0.7-0.3-1.5-0.4-2.4-0.3c-3.4,0.2-5.1,1.9-5.1,5.1c0,1.4,0.2,2.5,0.7,3.4
			c0.5,0.9,1.2,1.9,2.3,2.9l7.8,6.9c2,1.8,3.6,3.8,4.8,5.8c1.2,2.1,1.8,4.4,1.8,7c0,3.4-1,6-3.1,8
			C566.8,294.8,564.1,295.8,560.9,295.8z"/>
	</g>
	<g>
		<g>
			<g>
				<path fill="#59704B" d="M231.6,536.2c10.5,6.5,10.4,4.3,18.2,8.2s16.8,4.7,25.5,5.4c20.8,1.7,42.5,3,61.9-4.9
					c27.5-11.2,44.6-38.5,57.1-65.4c12.5-26.9,22.7-55.8,43.5-77c-19.7-8.7-42.4-9.1-63.5-4.6c-21.1,4.5-40.9,13.7-60,23.7
					c-30.3,15.8-60.3,34.4-80.6,62c-5.9,7.9-11,17-11.3,26.8C222.1,520.3,216.5,522.9,231.6,536.2"/>
			</g>
		</g>
		<g>
			<g>
				<path fill="#59704B" d="M212.2,557.9c4.2-6.5,8.3-13.1,12.5-19.6c3.3-5.2,8.1-13.1,15.5-11.5c0-3.2,0-6.4,0-9.6
					c-24.6,8.4-41.6,33.9-38.7,60c0.7,6.3,10.7,6.4,10,0c-2.4-21.6,10.6-43.3,31.4-50.4c4.4-1.5,5.1-8.5,0-9.6
					c-9-2-16.7,2.5-22.2,9.4c-6.4,8.2-11.5,17.6-17.1,26.3C200.1,558.3,208.8,563.3,212.2,557.9L212.2,557.9z"/>
			</g>
		</g>
	</g>
	<g>
		<g>
			<g>
				<path fill="#FFFFFF" d="M418.8,593.7v-6.3h17.6v-61.1l-17.6,7.4v-6.3l17.6-7.4h6.6v67.4h17.6v6.3H418.8z"/>
				<path fill="#FFFFFF" d="M461.1,594.2h-42.8v-7.3h17.6V527l-17.6,7.4V527l18.1-7.6h7.1v67.4h17.6V594.2z M419.3,593.2h40.8v-5.3
					h-17.6v-67.4h-6l-17.2,7.2v5.2l17.6-7.4v62.4h-17.6V593.2z"/>
			</g>
		</g>
		<g>
			<path fill="#FFFFFF" stroke="#FFFFFF" stroke-miterlimit="10" d="M488.7,590.4c-0.3,0.8-0.8,1.4-1.3,2c-0.6,0.6-1.2,1-2,1.3
				c-0.8,0.3-1.6,0.5-2.4,0.5h-1.8c-0.9,0-1.7-0.2-2.4-0.5c-0.8-0.3-1.4-0.8-2-1.3c-0.6-0.6-1-1.2-1.3-2s-0.5-1.6-0.5-2.4v-13.7
				c0-0.9,0.2-1.7,0.5-2.4s0.8-1.4,1.3-2c0.6-0.6,1.2-1,2-1.3c0.8-0.3,1.6-0.5,2.4-0.5h1.8c0.9,0,1.7,0.2,2.4,0.5s1.4,0.8,2,1.3
				c0.6,0.6,1,1.2,1.3,2c0.3,0.8,0.5,1.6,0.5,2.4v1l-2.3,0.4v-1.4c0-0.6-0.1-1.1-0.3-1.6c-0.2-0.5-0.5-0.9-0.9-1.3
				c-0.4-0.4-0.8-0.7-1.3-0.9s-1-0.3-1.6-0.3h-1.6c-0.6,0-1.1,0.1-1.6,0.3s-0.9,0.5-1.3,0.9c-0.4,0.4-0.7,0.8-0.9,1.3
				c-0.2,0.5-0.3,1-0.3,1.6V588c0,0.6,0.1,1.1,0.3,1.6s0.5,0.9,0.9,1.3s0.8,0.7,1.3,0.9s1,0.3,1.6,0.3h1.6c0.6,0,1.1-0.1,1.6-0.3
				s0.9-0.5,1.3-0.9s0.7-0.8,0.9-1.3s0.3-1,0.3-1.6v-1.4l2.3,0.4v1C489.2,588.8,489,589.7,488.7,590.4z"/>
			<path fill="#FFFFFF" stroke="#FFFFFF" stroke-miterlimit="10" d="M517.2,593.9v-17.4l-0.2,1.1l-5.9,16.4H510l-6-16.4l-0.1-1.1
				v17.4h-2.3v-25.4h1.2l7.7,20.9l0.1,0.9l0.1-0.9l7.7-20.9h1.2v25.4H517.2z"/>
		</g>
		<g>
			<line fill="#FFFFFF" x1="372.7" y1="563.9" x2="414.7" y2="563.9"/>
			<rect x="372.7" y="559.9" fill="#FFFFFF" width="42" height="8"/>
		</g>
	</g>
</g>
</svg>
