<?xml version="1.0" encoding="utf-8"?>
<!-- Generator: Adobe Illustrator 18.0.0, SVG Export Plug-In . SVG Version: 6.00 Build 0)  -->
<!DOCTYPE svg PUBLIC "-//W3C//DTD SVG 1.1//EN" "http://www.w3.org/Graphics/SVG/1.1/DTD/svg11.dtd">
<svg version="1.1" id="Capa_1" xmlns="http://www.w3.org/2000/svg" xmlns:xlink="http://www.w3.org/1999/xlink" x="0px" y="0px"
	 viewBox="0 0 500 500" enable-background="new 0 0 500 500" xml:space="preserve">
<g>
	<g>
		<g>
			<path fill="#FFFFFF" stroke="#FFFFFF" stroke-miterlimit="10" d="M342.2,758.1v-12.9h-10.8v12.9h-2.5v-28.2h2.5v12.9h10.8v-12.9
				h2.5v28.2H342.2z"/>
			<path fill="#FFFFFF" stroke="#FFFFFF" stroke-miterlimit="10" d="M380.2,754.3c-0.4,0.8-0.9,1.6-1.5,2.2s-1.4,1.1-2.2,1.5
				c-0.8,0.4-1.7,0.5-2.7,0.5h-2c-1,0-1.9-0.2-2.7-0.5c-0.8-0.4-1.6-0.9-2.2-1.5s-1.1-1.4-1.5-2.2c-0.4-0.8-0.5-1.7-0.5-2.7v-15.1
				c0-1,0.2-1.9,0.5-2.7c0.4-0.8,0.9-1.6,1.5-2.2s1.4-1.1,2.2-1.5c0.8-0.4,1.7-0.5,2.7-0.5h2c1,0,1.9,0.2,2.7,0.5
				c0.8,0.4,1.6,0.9,2.2,1.5s1.1,1.4,1.5,2.2c0.4,0.8,0.5,1.7,0.5,2.7v15.1C380.7,752.5,380.6,753.4,380.2,754.3z M378.2,736.4
				c0-0.6-0.1-1.2-0.4-1.8c-0.2-0.5-0.6-1-1-1.4c-0.4-0.4-0.9-0.7-1.4-1c-0.5-0.2-1.1-0.4-1.8-0.4h-1.8c-0.6,0-1.2,0.1-1.8,0.4
				c-0.5,0.2-1,0.6-1.4,1c-0.4,0.4-0.7,0.9-1,1.4c-0.2,0.5-0.4,1.1-0.4,1.8v15.1c0,0.6,0.1,1.2,0.4,1.8c0.2,0.5,0.6,1,1,1.4
				c0.4,0.4,0.9,0.7,1.4,1c0.5,0.2,1.1,0.4,1.8,0.4h1.8c0.6,0,1.2-0.1,1.8-0.4c0.5-0.2,1-0.6,1.4-1c0.4-0.4,0.7-0.9,1-1.4
				c0.2-0.5,0.4-1.1,0.4-1.8V736.4z"/>
			<path fill="#FFFFFF" stroke="#FFFFFF" stroke-miterlimit="10" d="M413,754.3c-0.4,0.8-0.9,1.6-1.5,2.2s-1.4,1.1-2.2,1.5
				s-1.7,0.5-2.7,0.5h-0.8c-1,0-1.9-0.2-2.7-0.5c-0.8-0.4-1.6-0.9-2.2-1.5s-1.1-1.4-1.5-2.2s-0.5-1.7-0.5-2.7v-1.1l2.5-0.4v1.5
				c0,0.6,0.1,1.2,0.4,1.8c0.2,0.5,0.6,1,1,1.4c0.4,0.4,0.9,0.7,1.4,1c0.5,0.2,1.1,0.4,1.8,0.4h0.6c0.6,0,1.2-0.1,1.7-0.4
				c0.6-0.2,1-0.6,1.4-1c0.4-0.4,0.7-0.9,1-1.4s0.4-1.1,0.4-1.8v-21.7h2.5v21.7C413.5,752.5,413.3,753.4,413,754.3z"/>
			<path fill="#FFFFFF" stroke="#FFFFFF" stroke-miterlimit="10" d="M443.8,751.5h-8.9l-1.8,6.6h-2.6l8.3-28.2h1.3l8.3,28.2h-2.6
				L443.8,751.5z M435.6,749.1h7.6l-3.7-13l-0.1-1l-0.1,1L435.6,749.1z"/>
		</g>
		<g>
			<path fill="#FFFFFF" stroke="#FFFFFF" stroke-miterlimit="10" d="M144.1,835.5V810c0-15.2,5.2-27.2,22.3-27.2
				c15.9,0,21.6,10.8,21.6,25.6v6.6h-15.3v-7.1c0-5.7-0.4-13.2-6.3-13.2c-5.9,0-6.7,6.6-6.7,11.4v33.2c0,4.8,0.9,11.3,6.7,11.3
				c5.7,0,6.4-7.2,6.4-13.2v-7.9H188l0,6.5c-0.2,13.8-4.8,26.6-21.5,26.6C149.3,862.6,144.1,850.3,144.1,835.5z"/>
			<path fill="#FFFFFF" stroke="#FFFFFF" stroke-miterlimit="10" d="M203,835.9V810c0-15.2,5.3-27.2,22.5-27.2
				c17.1,0,22.5,12,22.5,27.2v25.5c0,14.8-5.5,27.2-22.5,27.2C208.5,862.6,203,850.7,203,835.9z M232.4,839.4v-33.2
				c0-4.9-1-11.4-7-11.4c-5.9,0-6.9,6.5-6.9,11.4v33.2c0,4.9,1,11.3,6.9,11.3C231.5,850.7,232.4,844.3,232.4,839.4z"/>
			<path fill="#FFFFFF" stroke="#FFFFFF" stroke-miterlimit="10" d="M264.9,861.2v-76.9h18.6l8.2,51.3l8.8-51.3h18v76.9h-11.4
				l-0.3-54.1c-2.5,16.6-6.4,37.5-9,54.1h-11.6l-9.4-54.4l-0.3,54.4H264.9z"/>
			<path fill="#FFFFFF" stroke="#FFFFFF" stroke-miterlimit="10" d="M336.4,861.2v-76.9H355c13.8,0,19.2,8.2,19.2,21.8
				c0,17.6-8.4,22.1-22.1,22.2H352v32.9H336.4z M352,817.3h0.6c6.8,0,6.8-3.7,6.8-11.5c0-6.1,0-10.4-6.6-10.4H352V817.3z"/>
			<path fill="#FFFFFF" stroke="#FFFFFF" stroke-miterlimit="10" d="M388.8,832.6v-48.3h15.5v47.8c0,12.9,0,18.5,6.9,18.5
				c6.9,0,6.9-5.6,6.9-18.5v-47.8h15.5v48.3c0,15.8-2.9,30.1-22.4,30.1C391.7,862.6,388.8,848.4,388.8,832.6z"/>
			<path fill="#FFFFFF" stroke="#FFFFFF" stroke-miterlimit="10" d="M451.2,861.2v-76.9h32.1V795h-16.5v20.9h11.7v10.9h-11.7v23.7
				h16.5v10.7H451.2z"/>
			<path fill="#FFFFFF" stroke="#FFFFFF" stroke-miterlimit="10" d="M495.8,839.2l15.8-3c0,6.7,0.6,14.7,5.9,14.7
				c3.7,0,4.6-2.6,4.6-5.9c0-6.4-4.6-12.1-9.1-16.1l-4.8-4.1c-6.1-5.1-12.3-10.8-12.3-21.8c0-12.6,8.8-20.2,21.7-20.2
				c10.9,0,19.6,8.9,19.6,19.8c0,0.3,0,0.6,0,1.8l-16.1,2.2c0-1,0.1-1.9,0.1-3.1c0-3.6-0.8-8.8-4.9-8.8c-3.7,0-5.1,3.5-5.1,6.7
				c0,5.5,2.9,8.9,6.6,12c2,1.7,3.9,3.2,5.7,4.9c7.9,7,13.8,14.3,13.8,26.1c0,11-9.1,18.4-19.8,18.4
				C502.7,862.7,496.4,851.2,495.8,839.2z"/>
			<path fill="#FFFFFF" stroke="#FFFFFF" stroke-miterlimit="10" d="M558.2,861.2v-65.3H547v-11.6h37.9v11.6h-11.1v65.3H558.2z"/>
			<path fill="#FFFFFF" stroke="#FFFFFF" stroke-miterlimit="10" d="M591.5,861.2l16.6-76.9h13.8l16.6,76.9h-15.3l-3.2-16.4h-10
				l-3,16.4H591.5z M610.9,835.1h7.9l-3.9-28.5L610.9,835.1z"/>
		</g>
	</g>
	<g>
		<g>
			<g>
				<path fill="#59704B" d="M431.6,1019.5c5.8,2.6,5.6,1.4,9.9,2.8s8.9,1.2,13.4,0.9c10.7-0.6,21.9-1.5,31.1-7
					c13.2-7.7,19.9-22.8,24.3-37.4s7.5-30.1,16.5-42.3c-10.7-3-22.2-1.6-32.6,2.3c-10.4,3.8-19.8,9.9-28.8,16.4
					c-14.3,10.2-28.2,21.9-36.5,37.4c-2.4,4.5-4.3,9.4-3.8,14.5C425.6,1012.1,422.9,1013.9,431.6,1019.5"/>
			</g>
		</g>
		<g>
			<g>
				<path fill="#59704B" d="M290.7,1179c10.6-35.7,24.9-71,48.7-100.1c11.6-14.1,25.3-26.3,40.9-35.7c16.4-9.9,34.8-13.9,52.8-19.7
					c6.1-2,3.5-11.6-2.7-9.6c-18.3,5.9-36.8,10.2-53.7,19.8c-16.5,9.4-31,22.4-43.3,36.8c-25.9,30.3-41.2,68-52.4,105.8
					C279.2,1182.6,288.9,1185.2,290.7,1179L290.7,1179z"/>
			</g>
		</g>
		<g>
			<g>
				<path fill="#59704B" d="M365.8,1056.3c5.9-1.3,12.1-2.5,18.2-1.7c6.9,1,11.3,5.5,15.2,10.8c6.5,9,14.2,19.6,26.7,18.5
					c6.4-0.6,6.4-10.6,0-10c-12.8,1.2-18.5-16.7-27-23.5c-10.3-8.2-23.9-6.4-35.8-3.7C356.8,1048.1,359.5,1057.7,365.8,1056.3
					L365.8,1056.3z"/>
			</g>
		</g>
		<g>
			<g>
				<path fill="#59704B" d="M306.1,1134.3c9.3-7.3,18-12.4,30.1-9c11.1,3.1,21.6,9.9,31.9,15c5.7,2.9,10.8-5.7,5-8.6
					c-12.5-6.3-25.4-14.6-39.2-17.2c-13.7-2.6-24.6,4.7-34.9,12.7C294,1131.2,301.1,1138.2,306.1,1134.3L306.1,1134.3z"/>
			</g>
		</g>
		<g>
			<g>
				<path fill="#59704B" d="M390,1030.3c-1.4-6.1,0-11.9-2.7-17.8c-2.1-4.7-7.7-7.2-12.2-8.8c-10.2-3.5-23.5-5.1-26.7-17.4
					c-1.6-6.2-11.3-3.6-9.6,2.7c2.9,11.3,12.7,17.7,23.1,21.4c4.9,1.7,11,1.9,15.2,5.2c4.3,3.4,2.2,12.5,3.3,17.4
					C381.8,1039.3,391.4,1036.6,390,1030.3L390,1030.3z"/>
			</g>
		</g>
		<g>
			<g>
				<path fill="#59704B" d="M319,1107.3c10.3-6.2,10.7-19,5.2-28.6c-3.1-5.3-8-9.4-12.8-13c-1-0.8-16.1-13-12.9-14.1
					c6-2.1,3.4-11.8-2.7-9.6c-5,1.8-7.8,5.9-7.6,11.2c0.1,6.4,5.9,11.5,10.4,15.2c5.5,4.5,11.8,8.3,16.1,14.1
					c3.5,4.7,5.1,12.6-0.8,16.2C308.4,1102,313.4,1110.6,319,1107.3L319,1107.3z"/>
			</g>
		</g>
		<g>
			<g>
				<path fill="#59704B" d="M361.7,1136.5c-0.4,6.3,0.6,5.7,0.8,10.2c0.2,4.5,2,8.7,3.8,12.8c4.4,9.8,9.1,19.9,17.4,26.7
					c11.8,9.6,28.4,10.6,43.6,9.6c15.2-1,30.8-3.5,45.5,0.6c-0.9-11-6.3-21.4-13.6-29.8c-7.2-8.4-16.3-15-25.5-21.2
					c-14.6-9.8-30.4-18.7-47.8-21.1c-5-0.7-10.4-0.8-14.9,1.5S364,1126.4,361.7,1136.5"/>
			</g>
		</g>
		<g>
			<g>
				<path fill="#59704B" d="M356.6,1008.2c-6.2,1.4-5.8,0.3-10.2,0.8s-8.9-0.6-13.3-1.8c-10.4-2.8-21.1-5.9-29.1-13
					c-11.4-10.1-15-26.3-16.4-41.5c-1.4-15.2-1.4-31-7.8-44.8c11.1-0.8,22.1,2.9,31.5,8.7s17.4,13.7,25,21.8
					c12,12.9,23.3,27.1,28.4,43.9c1.5,4.9,2.4,10.1,0.9,14.9S366.2,1004.4,356.6,1008.2"/>
			</g>
		</g>
		<g>
			<g>
				<path fill="#59704B" d="M302.9,1072.9c-6.2,1.4-5.8,0.3-10.2,0.8c-4.5,0.5-8.9-0.6-13.3-1.8c-10.4-2.8-21.1-5.9-29.1-13
					c-11.4-10.1-15-26.3-16.4-41.5c-1.4-15.2-1.4-31-7.8-44.8c11.1-0.8,22.1,2.9,31.5,8.7c9.4,5.8,17.4,13.7,25,21.8
					c12,12.9,23.3,27.1,28.4,43.9c1.5,4.9,2.4,10.1,0.9,14.9S312.5,1069.1,302.9,1072.9"/>
			</g>
		</g>
		<g>
			<g>
				<path fill="#59704B" d="M409.9,1079.3c-0.4,6.3,0.6,5.7,0.8,10.2s2,8.7,3.8,12.8c4.4,9.8,9.1,19.9,17.4,26.7
					c11.8,9.6,28.4,10.6,43.6,9.6s30.8-3.5,45.5,0.6c-0.9-11-6.3-21.4-13.6-29.8c-7.2-8.4-16.3-15-25.5-21.2
					c-14.6-9.8-30.4-18.7-47.8-21.1c-5-0.7-10.4-0.8-14.9,1.5C414.7,1071.1,412.2,1069.2,409.9,1079.3"/>
			</g>
		</g>
	</g>
</g>
<g>
	<g>
		<g>
			<path fill="#FFFFFF" stroke="#FFFFFF" stroke-width="0.9214" stroke-miterlimit="10" d="M205.3,75.1V63.3h-9.9v11.9H193v-26h2.3
				V61h9.9V49.2h2.3v26H205.3z"/>
			<path fill="#FFFFFF" stroke="#FFFFFF" stroke-width="0.9214" stroke-miterlimit="10" d="M240.3,71.6c-0.3,0.8-0.8,1.4-1.4,2
				c-0.6,0.6-1.3,1-2,1.4c-0.8,0.3-1.6,0.5-2.5,0.5h-1.8c-0.9,0-1.7-0.2-2.5-0.5c-0.8-0.3-1.5-0.8-2-1.4c-0.6-0.6-1-1.3-1.4-2
				c-0.3-0.8-0.5-1.6-0.5-2.5V55.2c0-0.9,0.2-1.7,0.5-2.5c0.3-0.8,0.8-1.4,1.4-2c0.6-0.6,1.3-1,2-1.4c0.8-0.3,1.6-0.5,2.5-0.5h1.8
				c0.9,0,1.7,0.2,2.5,0.5c0.8,0.3,1.4,0.8,2,1.4c0.6,0.6,1,1.3,1.4,2c0.3,0.8,0.5,1.6,0.5,2.5v13.9C240.8,70,240.6,70.8,240.3,71.6
				z M238.5,55.2c0-0.6-0.1-1.1-0.3-1.6c-0.2-0.5-0.5-0.9-0.9-1.3c-0.4-0.4-0.8-0.7-1.3-0.9c-0.5-0.2-1-0.3-1.6-0.3h-1.6
				c-0.6,0-1.1,0.1-1.6,0.3c-0.5,0.2-0.9,0.5-1.3,0.9c-0.4,0.4-0.7,0.8-0.9,1.3c-0.2,0.5-0.3,1-0.3,1.6v13.9c0,0.6,0.1,1.1,0.3,1.6
				c0.2,0.5,0.5,0.9,0.9,1.3c0.4,0.4,0.8,0.7,1.3,0.9c0.5,0.2,1,0.3,1.6,0.3h1.6c0.6,0,1.1-0.1,1.6-0.3c0.5-0.2,0.9-0.5,1.3-0.9
				c0.4-0.4,0.7-0.8,0.9-1.3c0.2-0.5,0.3-1,0.3-1.6V55.2z"/>
			<path fill="#FFFFFF" stroke="#FFFFFF" stroke-width="0.9214" stroke-miterlimit="10" d="M270.5,71.6c-0.3,0.8-0.8,1.4-1.4,2
				c-0.6,0.6-1.3,1-2,1.4c-0.8,0.3-1.6,0.5-2.5,0.5h-0.7c-0.9,0-1.7-0.2-2.5-0.5c-0.8-0.3-1.5-0.8-2-1.4s-1-1.3-1.4-2
				s-0.5-1.6-0.5-2.5v-1l2.3-0.4v1.4c0,0.6,0.1,1.1,0.3,1.6c0.2,0.5,0.5,0.9,0.9,1.3c0.4,0.4,0.8,0.7,1.3,0.9c0.5,0.2,1,0.3,1.6,0.3
				h0.5c0.6,0,1.1-0.1,1.6-0.3c0.5-0.2,0.9-0.5,1.3-0.9c0.4-0.4,0.7-0.8,0.9-1.3c0.2-0.5,0.3-1,0.3-1.6v-20h2.3v20
				C271,70,270.8,70.8,270.5,71.6z"/>
			<path fill="#FFFFFF" stroke="#FFFFFF" stroke-width="0.9214" stroke-miterlimit="10" d="M298.9,69.1h-8.2l-1.7,6h-2.4l7.6-26h1.2
				l7.6,26h-2.4L298.9,69.1z M291.3,66.9h7l-3.4-12l-0.1-1l-0.1,1L291.3,66.9z"/>
		</g>
		<g>
			<path fill="#FFFFFF" stroke="#FFFFFF" stroke-width="0.9214" stroke-miterlimit="10" d="M22.8,146.4V123c0-14,4.8-25.1,20.5-25.1
				c14.7,0,19.9,10,19.9,23.6v6.1H49.1v-6.5c0-5.3-0.4-12.1-5.8-12.1c-5.4,0-6.2,6.1-6.2,10.5V150c0,4.4,0.8,10.4,6.2,10.4
				c5.2,0,5.9-6.7,5.9-12.2V141h14l0,6c-0.2,12.7-4.4,24.5-19.8,24.5C27.6,171.5,22.8,160.1,22.8,146.4z"/>
			<path fill="#FFFFFF" stroke="#FFFFFF" stroke-width="0.9214" stroke-miterlimit="10" d="M77.1,146.8V123c0-14,4.9-25.1,20.7-25.1
				c15.8,0,20.7,11.1,20.7,25.1v23.5c0,13.7-5,25-20.7,25C82.1,171.5,77.1,160.5,77.1,146.8z M104.2,150v-30.6
				c0-4.5-0.9-10.5-6.4-10.5c-5.4,0-6.4,6-6.4,10.5V150c0,4.5,0.9,10.4,6.4,10.4C103.3,160.5,104.2,154.6,104.2,150z"/>
			<path fill="#FFFFFF" stroke="#FFFFFF" stroke-width="0.9214" stroke-miterlimit="10" d="M134.1,170.1V99.3h17.2l7.6,47.2
				l8.1-47.2h16.6v70.8h-10.5l-0.3-49.8c-2.3,15.3-5.9,34.5-8.3,49.8h-10.7L145,120l-0.3,50.1H134.1z"/>
			<path fill="#FFFFFF" stroke="#FFFFFF" stroke-width="0.9214" stroke-miterlimit="10" d="M200,170.1V99.3h17.1
				c12.7,0,17.7,7.6,17.7,20.1c0,16.2-7.7,20.4-20.4,20.5h-0.1v30.3H200z M214.3,129.7h0.6c6.3,0,6.3-3.4,6.3-10.6
				c0-5.6,0-9.6-6.1-9.6h-0.8V129.7z"/>
			<path fill="#FFFFFF" stroke="#FFFFFF" stroke-width="0.9214" stroke-miterlimit="10" d="M248.2,143.8V99.3h14.3v44.1
				c0,11.9,0,17.1,6.3,17.1c6.4,0,6.3-5.2,6.3-17.1V99.3h14.3v44.5c0,14.6-2.6,27.7-20.7,27.7C250.9,171.5,248.2,158.4,248.2,143.8z
				"/>
			<path fill="#FFFFFF" stroke="#FFFFFF" stroke-width="0.9214" stroke-miterlimit="10" d="M305.7,170.1V99.3h29.6v9.8H320v19.3
				h10.8v10.1H320v21.8h15.2v9.8H305.7z"/>
			<path fill="#FFFFFF" stroke="#FFFFFF" stroke-width="0.9214" stroke-miterlimit="10" d="M346.8,149.8l14.5-2.8
				c0,6.2,0.5,13.5,5.5,13.5c3.4,0,4.2-2.4,4.2-5.4c0-5.9-4.2-11.2-8.4-14.8l-4.4-3.8c-5.6-4.7-11.4-9.9-11.4-20.1
				c0-11.6,8.1-18.7,20-18.7c10.1,0,18.1,8.2,18.1,18.3c0,0.2,0,0.6,0,1.7l-14.8,2c0-0.9,0.1-1.8,0.1-2.9c0-3.3-0.7-8.1-4.5-8.1
				c-3.4,0-4.7,3.2-4.7,6.2c0,5.1,2.7,8.2,6.1,11.1c1.8,1.5,3.6,3,5.2,4.5c7.3,6.5,12.7,13.1,12.7,24.1c0,10.2-8.3,16.9-18.2,16.9
				C353.2,171.6,347.3,160.9,346.8,149.8z"/>
			<path fill="#FFFFFF" stroke="#FFFFFF" stroke-width="0.9214" stroke-miterlimit="10" d="M404.3,170.1V110H394V99.3h34.9V110
				h-10.2v60.1H404.3z"/>
			<path fill="#FFFFFF" stroke="#FFFFFF" stroke-width="0.9214" stroke-miterlimit="10" d="M435,170.1l15.3-70.8h12.7l15.3,70.8
				h-14.1l-2.9-15.2h-9.2l-2.8,15.2H435z M452.9,146.1h7.3l-3.6-26.3L452.9,146.1z"/>
		</g>
	</g>
	<g>
		<g>
			<g>
				<path fill="#59704B" d="M287.6,316c5.3,2.4,5.2,1.3,9.1,2.6s8.2,1.1,12.3,0.8c9.9-0.6,20.1-1.4,28.7-6.4
					c12.1-7.1,18.3-21,22.4-34.5c4.1-13.4,6.9-27.7,15.2-39c-9.8-2.8-20.5-1.4-30.1,2.1c-9.6,3.5-18.2,9.2-26.5,15.1
					c-13.2,9.4-26,20.2-33.7,34.4c-2.2,4.1-4,8.7-3.5,13.3S279.7,310.8,287.6,316"/>
			</g>
		</g>
		<g>
			<g>
				<path fill="#59704B" d="M157.9,463c9.8-32.9,22.9-65.4,44.9-92.2c10.5-12.8,23.1-24,37.2-32.6c15.2-9.3,32.3-13.1,49.1-18.5
					c5.6-1.8,3.2-10.7-2.4-8.9c-17,5.4-34.2,9.5-49.8,18.5c-15,8.6-28.2,20.5-39.5,33.6c-23.9,27.9-38,62.8-48.4,97.6
					C147.3,466.2,156.2,468.7,157.9,463L157.9,463z"/>
			</g>
		</g>
		<g>
			<g>
				<path fill="#59704B" d="M227,349.9c5.3-1.2,10.6-2,16-1.7c6.4,0.4,10.9,4.7,14.5,9.6c6.2,8.4,13.1,18.5,24.9,17.4
					c5.9-0.5,5.9-9.7,0-9.2c-11.8,1-17-15.3-24.8-21.6c-9.4-7.6-22.1-6-33.1-3.5C218.8,342.3,221.3,351.2,227,349.9L227,349.9z"/>
			</g>
		</g>
		<g>
			<g>
				<path fill="#59704B" d="M172,421.7c8.6-6.7,16.5-11.4,27.7-8.3c10.2,2.8,20,9.1,29.5,13.9c5.3,2.7,10-5.3,4.7-8
					c-11.7-5.9-23.8-13.8-36.9-16c-12.3-2.1-22.2,4.6-31.4,11.8C160.9,418.9,167.4,425.3,172,421.7L172,421.7z"/>
			</g>
		</g>
		<g>
			<g>
				<path fill="#59704B" d="M249.3,326c-1.2-5.6-0.1-10.9-2.5-16.4c-1.9-4.2-6.8-6.5-10.8-7.9c-9.5-3.4-21.9-4.5-25-16.2
					c-1.5-5.7-10.4-3.3-8.9,2.4c2.7,10.3,11.4,16.1,20.9,19.6c4.7,1.7,9.8,2.1,14.1,4.7c4.2,2.6,2.3,11.9,3.3,16.2
					C241.7,334.2,250.6,331.8,249.3,326L249.3,326z"/>
			</g>
		</g>
		<g>
			<g>
				<path fill="#59704B" d="M183.9,396.9c9.1-5.5,9.8-16.6,5.3-25.4c-2.6-5.1-7.3-8.9-11.7-12.3c-1.1-0.8-15.5-12.4-12.6-13.5
					c5.5-2.1,3.1-11-2.4-8.9c-4.6,1.7-7.1,5.4-7,10.3c0,6,5.9,10.9,10.1,14.4c4.7,3.8,9.7,7.1,13.7,11.8c3.7,4.3,5.6,12.2-0.1,15.7
					C174.2,392,178.8,400,183.9,396.9L183.9,396.9z"/>
			</g>
		</g>
		<g>
			<g>
				<path fill="#59704B" d="M223.3,423.8c-0.3,5.8,0.6,5.3,0.7,9.4c0.2,4.1,1.8,8,3.5,11.8c4,9,8.4,18.4,16.1,24.6
					c10.9,8.9,26.1,9.8,40.1,8.9c14-0.9,28.4-3.2,41.9,0.6c-0.9-10.2-5.8-19.7-12.5-27.4c-6.7-7.7-15-13.9-23.5-19.5
					c-13.5-9-28-17.3-44.1-19.4c-4.6-0.6-9.5-0.7-13.7,1.4C227.7,416.2,225.4,414.5,223.3,423.8"/>
			</g>
		</g>
		<g>
			<g>
				<path fill="#59704B" d="M218.5,305.6c-5.7,1.2-5.3,0.3-9.4,0.8s-8.2-0.6-12.2-1.6c-9.6-2.5-19.5-5.4-26.8-12
					c-10.5-9.3-13.8-24.3-15.1-38.2c-1.3-14-1.3-28.5-7.2-41.3c10.2-0.8,20.4,2.7,29,8c8.7,5.4,16.1,12.6,23,20.1
					c11,11.9,21.5,24.9,26.1,40.4c1.4,4.5,2.2,9.3,0.8,13.8S227.4,302.1,218.5,305.6"/>
			</g>
		</g>
		<g>
			<g>
				<path fill="#59704B" d="M169.1,365.2c-5.7,1.2-5.3,0.3-9.4,0.8c-4.1,0.5-8.2-0.6-12.2-1.6c-9.6-2.5-19.5-5.4-26.8-12
					c-10.5-9.3-13.8-24.3-15.1-38.2c-1.3-14-1.3-28.5-7.2-41.3c10.2-0.8,20.4,2.7,29,8c8.7,5.4,16.1,12.6,23,20.1
					c11,11.9,21.5,24.9,26.1,40.4c1.4,4.5,2.2,9.3,0.8,13.8C175.9,359.7,177.9,361.7,169.1,365.2"/>
			</g>
		</g>
		<g>
			<g>
				<path fill="#59704B" d="M267.7,371.1c-0.3,5.8,0.6,5.3,0.7,9.4c0.2,4.1,1.8,8,3.5,11.8c4,9,8.4,18.4,16.1,24.6
					c10.9,8.9,26.1,9.8,40.1,8.9c14-0.9,28.4-3.2,41.9,0.6c-0.9-10.2-5.8-19.7-12.5-27.4c-6.7-7.7-15-13.9-23.5-19.5
					c-13.5-9-28-17.3-44.1-19.4c-4.6-0.6-9.5-0.7-13.7,1.4C272.1,363.5,269.8,361.8,267.7,371.1"/>
			</g>
		</g>
	</g>
</g>
</svg>
