<?xml version="1.0" encoding="utf-8"?>
<!-- Generator: Adobe Illustrator 18.0.0, SVG Export Plug-In . SVG Version: 6.00 Build 0)  -->
<!DOCTYPE svg PUBLIC "-//W3C//DTD SVG 1.1//EN" "http://www.w3.org/Graphics/SVG/1.1/DTD/svg11.dtd">
<svg version="1.1" id="Capa_1" xmlns="http://www.w3.org/2000/svg" xmlns:xlink="http://www.w3.org/1999/xlink" x="0px" y="0px"
	 viewBox="0 0 500 500" enable-background="new 0 0 500 500" xml:space="preserve">
<g>
	<g>
		<g>
			<path fill="#FFFFFF" stroke="#FFFFFF" stroke-miterlimit="10" d="M342.2,758.1v-12.9h-10.8v12.9h-2.5v-28.2h2.5v12.9h10.8v-12.9
				h2.5v28.2H342.2z"/>
			<path fill="#FFFFFF" stroke="#FFFFFF" stroke-miterlimit="10" d="M380.2,754.3c-0.4,0.8-0.9,1.6-1.5,2.2s-1.4,1.1-2.2,1.5
				c-0.8,0.4-1.7,0.5-2.7,0.5h-2c-1,0-1.9-0.2-2.7-0.5c-0.8-0.4-1.6-0.9-2.2-1.5s-1.1-1.4-1.5-2.2c-0.4-0.8-0.5-1.7-0.5-2.7v-15.1
				c0-1,0.2-1.9,0.5-2.7c0.4-0.8,0.9-1.6,1.5-2.2s1.4-1.1,2.2-1.5c0.8-0.4,1.7-0.5,2.7-0.5h2c1,0,1.9,0.2,2.7,0.5
				c0.8,0.4,1.6,0.9,2.2,1.5s1.1,1.4,1.5,2.2c0.4,0.8,0.5,1.7,0.5,2.7v15.1C380.7,752.5,380.6,753.4,380.2,754.3z M378.2,736.4
				c0-0.6-0.1-1.2-0.4-1.8c-0.2-0.5-0.6-1-1-1.4c-0.4-0.4-0.9-0.7-1.4-1c-0.5-0.2-1.1-0.4-1.8-0.4h-1.8c-0.6,0-1.2,0.1-1.8,0.4
				c-0.5,0.2-1,0.6-1.4,1c-0.4,0.4-0.7,0.9-1,1.4c-0.2,0.5-0.4,1.1-0.4,1.8v15.1c0,0.6,0.1,1.2,0.4,1.8c0.2,0.5,0.6,1,1,1.4
				c0.4,0.4,0.9,0.7,1.4,1c0.5,0.2,1.1,0.4,1.8,0.4h1.8c0.6,0,1.2-0.1,1.8-0.4c0.5-0.2,1-0.6,1.4-1c0.4-0.4,0.7-0.9,1-1.4
				c0.2-0.5,0.4-1.1,0.4-1.8V736.4z"/>
			<path fill="#FFFFFF" stroke="#FFFFFF" stroke-miterlimit="10" d="M413,754.3c-0.4,0.8-0.9,1.6-1.5,2.2s-1.4,1.1-2.2,1.5
				s-1.7,0.5-2.7,0.5h-0.8c-1,0-1.9-0.2-2.7-0.5c-0.8-0.4-1.6-0.9-2.2-1.5s-1.1-1.4-1.5-2.2s-0.5-1.7-0.5-2.7v-1.1l2.5-0.4v1.5
				c0,0.6,0.1,1.2,0.4,1.8c0.2,0.5,0.6,1,1,1.4c0.4,0.4,0.9,0.7,1.4,1c0.5,0.2,1.1,0.4,1.8,0.4h0.6c0.6,0,1.2-0.1,1.7-0.4
				c0.6-0.2,1-0.6,1.4-1c0.4-0.4,0.7-0.9,1-1.4s0.4-1.1,0.4-1.8v-21.7h2.5v21.7C413.5,752.5,413.3,753.4,413,754.3z"/>
			<path fill="#FFFFFF" stroke="#FFFFFF" stroke-miterlimit="10" d="M443.8,751.5h-8.9l-1.8,6.6h-2.6l8.3-28.2h1.3l8.3,28.2h-2.6
				L443.8,751.5z M435.6,749.1h7.6l-3.7-13l-0.1-1l-0.1,1L435.6,749.1z"/>
		</g>
		<g>
			<path fill="#FFFFFF" stroke="#FFFFFF" stroke-miterlimit="10" d="M144.1,835.5V810c0-15.2,5.2-27.2,22.3-27.2
				c15.9,0,21.6,10.8,21.6,25.6v6.6h-15.3v-7.1c0-5.7-0.4-13.2-6.3-13.2c-5.9,0-6.7,6.6-6.7,11.4v33.2c0,4.8,0.9,11.3,6.7,11.3
				c5.7,0,6.4-7.2,6.4-13.2v-7.9H188l0,6.5c-0.2,13.8-4.8,26.6-21.5,26.6C149.3,862.6,144.1,850.3,144.1,835.5z"/>
			<path fill="#FFFFFF" stroke="#FFFFFF" stroke-miterlimit="10" d="M203,835.9V810c0-15.2,5.3-27.2,22.5-27.2
				c17.1,0,22.5,12,22.5,27.2v25.5c0,14.8-5.5,27.2-22.5,27.2C208.5,862.6,203,850.7,203,835.9z M232.4,839.4v-33.2
				c0-4.9-1-11.4-7-11.4c-5.9,0-6.9,6.5-6.9,11.4v33.2c0,4.9,1,11.3,6.9,11.3C231.5,850.7,232.4,844.3,232.4,839.4z"/>
			<path fill="#FFFFFF" stroke="#FFFFFF" stroke-miterlimit="10" d="M264.9,861.2v-76.9h18.6l8.2,51.3l8.8-51.3h18v76.9h-11.4
				l-0.3-54.1c-2.5,16.6-6.4,37.5-9,54.1h-11.6l-9.4-54.4l-0.3,54.4H264.9z"/>
			<path fill="#FFFFFF" stroke="#FFFFFF" stroke-miterlimit="10" d="M336.4,861.2v-76.9H355c13.8,0,19.2,8.2,19.2,21.8
				c0,17.6-8.4,22.1-22.1,22.2H352v32.9H336.4z M352,817.3h0.6c6.8,0,6.8-3.7,6.8-11.5c0-6.1,0-10.4-6.6-10.4H352V817.3z"/>
			<path fill="#FFFFFF" stroke="#FFFFFF" stroke-miterlimit="10" d="M388.8,832.6v-48.3h15.5v47.8c0,12.9,0,18.5,6.9,18.5
				c6.9,0,6.9-5.6,6.9-18.5v-47.8h15.5v48.3c0,15.8-2.9,30.1-22.4,30.1C391.7,862.6,388.8,848.4,388.8,832.6z"/>
			<path fill="#FFFFFF" stroke="#FFFFFF" stroke-miterlimit="10" d="M451.2,861.2v-76.9h32.1V795h-16.5v20.9h11.7v10.9h-11.7v23.7
				h16.5v10.7H451.2z"/>
			<path fill="#FFFFFF" stroke="#FFFFFF" stroke-miterlimit="10" d="M495.8,839.2l15.8-3c0,6.7,0.6,14.7,5.9,14.7
				c3.7,0,4.6-2.6,4.6-5.9c0-6.4-4.6-12.1-9.1-16.1l-4.8-4.1c-6.1-5.1-12.3-10.8-12.3-21.8c0-12.6,8.8-20.2,21.7-20.2
				c10.9,0,19.6,8.9,19.6,19.8c0,0.3,0,0.6,0,1.8l-16.1,2.2c0-1,0.1-1.9,0.1-3.1c0-3.6-0.8-8.8-4.9-8.8c-3.7,0-5.1,3.5-5.1,6.7
				c0,5.5,2.9,8.9,6.6,12c2,1.7,3.9,3.2,5.7,4.9c7.9,7,13.8,14.3,13.8,26.1c0,11-9.1,18.4-19.8,18.4
				C502.7,862.7,496.4,851.2,495.8,839.2z"/>
			<path fill="#FFFFFF" stroke="#FFFFFF" stroke-miterlimit="10" d="M558.2,861.2v-65.3H547v-11.6h37.9v11.6h-11.1v65.3H558.2z"/>
			<path fill="#FFFFFF" stroke="#FFFFFF" stroke-miterlimit="10" d="M591.5,861.2l16.6-76.9h13.8l16.6,76.9h-15.3l-3.2-16.4h-10
				l-3,16.4H591.5z M610.9,835.1h7.9l-3.9-28.5L610.9,835.1z"/>
		</g>
	</g>
	<g>
		<g>
			<g>
				<path fill="#59704B" d="M431.6,1019.5c5.8,2.6,5.6,1.4,9.9,2.8s8.9,1.2,13.4,0.9c10.7-0.6,21.9-1.5,31.1-7
					c13.2-7.7,19.9-22.8,24.3-37.4s7.5-30.1,16.5-42.3c-10.7-3-22.2-1.6-32.6,2.3c-10.4,3.8-19.8,9.9-28.8,16.4
					c-14.3,10.2-28.2,21.9-36.5,37.4c-2.4,4.5-4.3,9.4-3.8,14.5C425.6,1012.1,422.9,1013.9,431.6,1019.5"/>
			</g>
		</g>
		<g>
			<g>
				<path fill="#59704B" d="M290.7,1179c10.6-35.7,24.9-71,48.7-100.1c11.6-14.1,25.3-26.3,40.9-35.7c16.4-9.9,34.8-13.9,52.8-19.7
					c6.1-2,3.5-11.6-2.7-9.6c-18.3,5.9-36.8,10.2-53.7,19.8c-16.5,9.4-31,22.4-43.3,36.8c-25.9,30.3-41.2,68-52.4,105.8
					C279.2,1182.6,288.9,1185.2,290.7,1179L290.7,1179z"/>
			</g>
		</g>
		<g>
			<g>
				<path fill="#59704B" d="M365.8,1056.3c5.9-1.3,12.1-2.5,18.2-1.7c6.9,1,11.3,5.5,15.2,10.8c6.5,9,14.2,19.6,26.7,18.5
					c6.4-0.6,6.4-10.6,0-10c-12.8,1.2-18.5-16.7-27-23.5c-10.3-8.2-23.9-6.4-35.8-3.7C356.8,1048.1,359.5,1057.7,365.8,1056.3
					L365.8,1056.3z"/>
			</g>
		</g>
		<g>
			<g>
				<path fill="#59704B" d="M306.1,1134.3c9.3-7.3,18-12.4,30.1-9c11.1,3.1,21.6,9.9,31.9,15c5.7,2.9,10.8-5.7,5-8.6
					c-12.5-6.3-25.4-14.6-39.2-17.2c-13.7-2.6-24.6,4.7-34.9,12.7C294,1131.2,301.1,1138.2,306.1,1134.3L306.1,1134.3z"/>
			</g>
		</g>
		<g>
			<g>
				<path fill="#59704B" d="M390,1030.3c-1.4-6.1,0-11.9-2.7-17.8c-2.1-4.7-7.7-7.2-12.2-8.8c-10.2-3.5-23.5-5.1-26.7-17.4
					c-1.6-6.2-11.3-3.6-9.6,2.7c2.9,11.3,12.7,17.7,23.1,21.4c4.9,1.7,11,1.9,15.2,5.2c4.3,3.4,2.2,12.5,3.3,17.4
					C381.8,1039.3,391.4,1036.6,390,1030.3L390,1030.3z"/>
			</g>
		</g>
		<g>
			<g>
				<path fill="#59704B" d="M319,1107.3c10.3-6.2,10.7-19,5.2-28.6c-3.1-5.3-8-9.4-12.8-13c-1-0.8-16.1-13-12.9-14.1
					c6-2.1,3.4-11.8-2.7-9.6c-5,1.8-7.8,5.9-7.6,11.2c0.1,6.4,5.9,11.5,10.4,15.2c5.5,4.5,11.8,8.3,16.1,14.1
					c3.5,4.7,5.1,12.6-0.8,16.2C308.4,1102,313.4,1110.6,319,1107.3L319,1107.3z"/>
			</g>
		</g>
		<g>
			<g>
				<path fill="#59704B" d="M361.7,1136.5c-0.4,6.3,0.6,5.7,0.8,10.2c0.2,4.5,2,8.7,3.8,12.8c4.4,9.8,9.1,19.9,17.4,26.7
					c11.8,9.6,28.4,10.6,43.6,9.6c15.2-1,30.8-3.5,45.5,0.6c-0.9-11-6.3-21.4-13.6-29.8c-7.2-8.4-16.3-15-25.5-21.2
					c-14.6-9.8-30.4-18.7-47.8-21.1c-5-0.7-10.4-0.8-14.9,1.5S364,1126.4,361.7,1136.5"/>
			</g>
		</g>
		<g>
			<g>
				<path fill="#59704B" d="M356.6,1008.2c-6.2,1.4-5.8,0.3-10.2,0.8s-8.9-0.6-13.3-1.8c-10.4-2.8-21.1-5.9-29.1-13
					c-11.4-10.1-15-26.3-16.4-41.5c-1.4-15.2-1.4-31-7.8-44.8c11.1-0.8,22.1,2.9,31.5,8.7s17.4,13.7,25,21.8
					c12,12.9,23.3,27.1,28.4,43.9c1.5,4.9,2.4,10.1,0.9,14.9S366.2,1004.4,356.6,1008.2"/>
			</g>
		</g>
		<g>
			<g>
				<path fill="#59704B" d="M302.9,1072.9c-6.2,1.4-5.8,0.3-10.2,0.8c-4.5,0.5-8.9-0.6-13.3-1.8c-10.4-2.8-21.1-5.9-29.1-13
					c-11.4-10.1-15-26.3-16.4-41.5c-1.4-15.2-1.4-31-7.8-44.8c11.1-0.8,22.1,2.9,31.5,8.7c9.4,5.8,17.4,13.7,25,21.8
					c12,12.9,23.3,27.1,28.4,43.9c1.5,4.9,2.4,10.1,0.9,14.9S312.5,1069.1,302.9,1072.9"/>
			</g>
		</g>
		<g>
			<g>
				<path fill="#59704B" d="M409.9,1079.3c-0.4,6.3,0.6,5.7,0.8,10.2s2,8.7,3.8,12.8c4.4,9.8,9.1,19.9,17.4,26.7
					c11.8,9.6,28.4,10.6,43.6,9.6s30.8-3.5,45.5,0.6c-0.9-11-6.3-21.4-13.6-29.8c-7.2-8.4-16.3-15-25.5-21.2
					c-14.6-9.8-30.4-18.7-47.8-21.1c-5-0.7-10.4-0.8-14.9,1.5C414.7,1071.1,412.2,1069.2,409.9,1079.3"/>
			</g>
		</g>
	</g>
</g>
<g>
	<g>
		<g>
			<path fill="#FFFFFF" stroke="#FFFFFF" stroke-miterlimit="10" d="M201,45.1V32.2h-10.8v12.9h-2.5V16.9h2.5v12.9H201V16.9h2.5
				v28.2H201z"/>
			<path fill="#FFFFFF" stroke="#FFFFFF" stroke-miterlimit="10" d="M238.9,41.2c-0.4,0.8-0.9,1.6-1.5,2.2s-1.4,1.1-2.2,1.5
				c-0.8,0.4-1.7,0.5-2.7,0.5h-2c-1,0-1.9-0.2-2.7-0.5c-0.8-0.4-1.6-0.9-2.2-1.5s-1.1-1.4-1.5-2.2c-0.4-0.8-0.5-1.7-0.5-2.7V23.4
				c0-1,0.2-1.9,0.5-2.7c0.4-0.8,0.9-1.6,1.5-2.2s1.4-1.1,2.2-1.5c0.8-0.4,1.7-0.5,2.7-0.5h2c1,0,1.9,0.2,2.7,0.5
				c0.8,0.4,1.6,0.9,2.2,1.5s1.1,1.4,1.5,2.2c0.4,0.8,0.5,1.7,0.5,2.7v15.1C239.5,39.5,239.3,40.4,238.9,41.2z M236.9,23.4
				c0-0.6-0.1-1.2-0.4-1.8c-0.2-0.5-0.6-1-1-1.4c-0.4-0.4-0.9-0.7-1.4-1c-0.5-0.2-1.1-0.4-1.8-0.4h-1.8c-0.6,0-1.2,0.1-1.8,0.4
				c-0.5,0.2-1,0.6-1.4,1c-0.4,0.4-0.7,0.9-1,1.4c-0.2,0.5-0.4,1.1-0.4,1.8v15.1c0,0.6,0.1,1.2,0.4,1.8c0.2,0.5,0.6,1,1,1.4
				c0.4,0.4,0.9,0.7,1.4,1c0.5,0.2,1.1,0.4,1.8,0.4h1.8c0.6,0,1.2-0.1,1.8-0.4c0.5-0.2,1-0.6,1.4-1c0.4-0.4,0.7-0.9,1-1.4
				c0.2-0.5,0.4-1.1,0.4-1.8V23.4z"/>
			<path fill="#FFFFFF" stroke="#FFFFFF" stroke-miterlimit="10" d="M271.7,41.2c-0.4,0.8-0.9,1.6-1.5,2.2s-1.4,1.1-2.2,1.5
				s-1.7,0.5-2.7,0.5h-0.8c-1,0-1.9-0.2-2.7-0.5c-0.8-0.4-1.6-0.9-2.2-1.5s-1.1-1.4-1.5-2.2s-0.5-1.7-0.5-2.7v-1.1l2.5-0.4v1.5
				c0,0.6,0.1,1.2,0.4,1.8c0.2,0.5,0.6,1,1,1.4c0.4,0.4,0.9,0.7,1.4,1c0.5,0.2,1.1,0.4,1.8,0.4h0.6c0.6,0,1.2-0.1,1.7-0.4
				c0.6-0.2,1-0.6,1.4-1c0.4-0.4,0.7-0.9,1-1.4s0.4-1.1,0.4-1.8V16.9h2.5v21.7C272.3,39.5,272.1,40.4,271.7,41.2z"/>
			<path fill="#FFFFFF" stroke="#FFFFFF" stroke-miterlimit="10" d="M302.6,38.5h-8.9l-1.8,6.6h-2.6l8.3-28.2h1.3l8.3,28.2h-2.6
				L302.6,38.5z M294.3,36.1h7.6l-3.7-13l-0.1-1l-0.1,1L294.3,36.1z"/>
		</g>
		<g>
			<path fill="#FFFFFF" stroke="#FFFFFF" stroke-miterlimit="10" d="M2.9,122.4V97c0-15.2,5.2-27.2,22.3-27.2
				c15.9,0,21.6,10.8,21.6,25.6v6.6H31.4v-7.1c0-5.7-0.4-13.2-6.3-13.2c-5.9,0-6.7,6.6-6.7,11.4v33.2c0,4.8,0.9,11.3,6.7,11.3
				c5.7,0,6.4-7.2,6.4-13.2v-7.9h15.2l0,6.5c-0.2,13.8-4.8,26.6-21.5,26.6C8.1,149.6,2.9,137.3,2.9,122.4z"/>
			<path fill="#FFFFFF" stroke="#FFFFFF" stroke-miterlimit="10" d="M61.8,122.8V97c0-15.2,5.3-27.2,22.5-27.2
				c17.1,0,22.5,12,22.5,27.2v25.5c0,14.8-5.5,27.2-22.5,27.2C67.3,149.6,61.8,137.7,61.8,122.8z M91.2,126.3V93.1
				c0-4.9-1-11.4-7-11.4c-5.9,0-6.9,6.5-6.9,11.4v33.2c0,4.9,1,11.3,6.9,11.3C90.2,137.7,91.2,131.3,91.2,126.3z"/>
			<path fill="#FFFFFF" stroke="#FFFFFF" stroke-miterlimit="10" d="M123.6,148.1V71.2h18.6l8.2,51.3l8.8-51.3h18v76.9h-11.4
				L165.5,94c-2.5,16.6-6.4,37.5-9,54.1h-11.6l-9.4-54.4l-0.3,54.4H123.6z"/>
			<path fill="#FFFFFF" stroke="#FFFFFF" stroke-miterlimit="10" d="M195.2,148.1V71.2h18.6c13.8,0,19.2,8.2,19.2,21.8
				c0,17.6-8.4,22.1-22.1,22.2h-0.1v32.9H195.2z M210.7,104.3h0.6c6.8,0,6.8-3.7,6.8-11.5c0-6.1,0-10.4-6.6-10.4h-0.9V104.3z"/>
			<path fill="#FFFFFF" stroke="#FFFFFF" stroke-miterlimit="10" d="M247.5,119.5V71.2h15.5v47.8c0,12.9,0,18.5,6.9,18.5
				c6.9,0,6.9-5.6,6.9-18.5V71.2h15.5v48.3c0,15.8-2.9,30.1-22.4,30.1C250.4,149.6,247.5,135.4,247.5,119.5z"/>
			<path fill="#FFFFFF" stroke="#FFFFFF" stroke-miterlimit="10" d="M309.9,148.1V71.2H342v10.7h-16.5v20.9h11.7v10.9h-11.7v23.7
				H342v10.7H309.9z"/>
			<path fill="#FFFFFF" stroke="#FFFFFF" stroke-miterlimit="10" d="M354.5,126.1l15.8-3c0,6.7,0.6,14.7,5.9,14.7
				c3.7,0,4.6-2.6,4.6-5.9c0-6.4-4.6-12.1-9.1-16.1l-4.8-4.1c-6.1-5.1-12.3-10.8-12.3-21.8c0-12.6,8.8-20.2,21.7-20.2
				c10.9,0,19.6,8.9,19.6,19.8c0,0.3,0,0.6,0,1.8l-16.1,2.2c0-1,0.1-1.9,0.1-3.1c0-3.6-0.8-8.8-4.9-8.8c-3.7,0-5.1,3.5-5.1,6.7
				c0,5.5,2.9,8.9,6.6,12c2,1.7,3.9,3.2,5.7,4.9c7.9,7,13.8,14.3,13.8,26.1c0,11-9.1,18.4-19.8,18.4
				C361.4,149.7,355.1,138.2,354.5,126.1z"/>
			<path fill="#FFFFFF" stroke="#FFFFFF" stroke-miterlimit="10" d="M417,148.1V82.9h-11.3V71.2h37.9v11.6h-11.1v65.3H417z"/>
			<path fill="#FFFFFF" stroke="#FFFFFF" stroke-miterlimit="10" d="M450.2,148.1l16.6-76.9h13.8l16.6,76.9h-15.3l-3.2-16.4h-10
				l-3,16.4H450.2z M469.7,122.1h7.9l-3.9-28.5L469.7,122.1z"/>
		</g>
	</g>
	<g>
		<g>
			<g>
				<path fill="#59704B" d="M290.3,306.5c5.8,2.6,5.6,1.4,9.9,2.8s8.9,1.2,13.4,0.9c10.7-0.6,21.9-1.5,31.1-7
					c13.2-7.7,19.9-22.8,24.3-37.4c4.4-14.6,7.5-30.1,16.5-42.3c-10.7-3-22.2-1.6-32.6,2.3c-10.4,3.8-19.8,9.9-28.8,16.4
					c-14.3,10.2-28.2,21.9-36.5,37.4c-2.4,4.5-4.3,9.4-3.8,14.5C284.3,299.1,281.7,300.8,290.3,306.5"/>
			</g>
		</g>
		<g>
			<g>
				<path fill="#59704B" d="M149.5,466c10.6-35.7,24.9-71,48.7-100.1c11.6-14.1,25.3-26.3,40.9-35.7c16.4-9.9,34.8-13.9,52.8-19.7
					c6.1-2,3.5-11.6-2.7-9.6c-18.3,5.9-36.8,10.2-53.7,19.8c-16.5,9.4-31,22.4-43.3,36.8c-25.9,30.3-41.2,68-52.4,105.8
					C138,469.5,147.6,472.2,149.5,466L149.5,466z"/>
			</g>
		</g>
		<g>
			<g>
				<path fill="#59704B" d="M224.5,343.3c5.9-1.3,12.1-2.5,18.2-1.7c6.9,1,11.3,5.5,15.2,10.8c6.5,9,14.2,19.6,26.7,18.5
					c6.4-0.6,6.4-10.6,0-10c-12.8,1.2-18.5-16.7-27-23.5c-10.3-8.2-23.9-6.4-35.8-3.7C215.6,335,218.3,344.7,224.5,343.3
					L224.5,343.3z"/>
			</g>
		</g>
		<g>
			<g>
				<path fill="#59704B" d="M164.9,421.2c9.3-7.3,18-12.4,30.1-9c11.1,3.1,21.6,9.9,31.9,15c5.7,2.9,10.8-5.7,5-8.6
					c-12.5-6.3-25.4-14.6-39.2-17.2c-13.7-2.6-24.6,4.7-34.9,12.7C152.7,418.1,159.8,425.1,164.9,421.2L164.9,421.2z"/>
			</g>
		</g>
		<g>
			<g>
				<path fill="#59704B" d="M248.7,317.3c-1.4-6.1,0-11.9-2.7-17.8c-2.1-4.7-7.7-7.2-12.2-8.8c-10.2-3.5-23.5-5.1-26.7-17.4
					c-1.6-6.2-11.3-3.6-9.6,2.7c2.9,11.3,12.7,17.7,23.1,21.4c4.9,1.7,11,1.9,15.2,5.2c4.3,3.4,2.2,12.5,3.3,17.4
					C240.5,326.2,250.1,323.6,248.7,317.3L248.7,317.3z"/>
			</g>
		</g>
		<g>
			<g>
				<path fill="#59704B" d="M177.7,394.3c10.3-6.2,10.7-19,5.2-28.6c-3.1-5.3-8-9.4-12.8-13c-1-0.8-16.1-13-12.9-14.1
					c6-2.1,3.4-11.8-2.7-9.6c-5,1.8-7.8,5.9-7.6,11.2c0.1,6.4,5.9,11.5,10.4,15.2c5.5,4.5,11.8,8.3,16.1,14.1
					c3.5,4.7,5.1,12.6-0.8,16.2C167.1,388.9,172.2,397.6,177.7,394.3L177.7,394.3z"/>
			</g>
		</g>
		<g>
			<g>
				<path fill="#59704B" d="M220.5,423.5c-0.4,6.3,0.6,5.7,0.8,10.2c0.2,4.5,2,8.7,3.8,12.8c4.4,9.8,9.1,19.9,17.4,26.7
					c11.8,9.6,28.4,10.6,43.6,9.6c15.2-1,30.8-3.5,45.5,0.6c-0.9-11-6.3-21.4-13.6-29.8c-7.2-8.4-16.3-15-25.5-21.2
					c-14.6-9.8-30.4-18.7-47.8-21.1c-5-0.7-10.4-0.8-14.9,1.5S222.7,413.4,220.5,423.5"/>
			</g>
		</g>
		<g>
			<g>
				<path fill="#59704B" d="M215.3,295.2c-6.2,1.4-5.8,0.3-10.2,0.8c-4.5,0.5-8.9-0.6-13.3-1.8c-10.4-2.8-21.1-5.9-29.1-13
					c-11.4-10.1-15-26.3-16.4-41.5s-1.4-31-7.8-44.8c11.1-0.8,22.1,2.9,31.5,8.7c9.4,5.8,17.4,13.7,25,21.8
					c12,12.9,23.3,27.1,28.4,43.9c1.5,4.9,2.4,10.1,0.9,14.9C222.7,289.2,224.9,291.4,215.3,295.2"/>
			</g>
		</g>
		<g>
			<g>
				<path fill="#59704B" d="M161.6,359.9c-6.2,1.4-5.8,0.3-10.2,0.8c-4.5,0.5-8.9-0.6-13.3-1.8c-10.4-2.8-21.1-5.9-29.1-13
					c-11.4-10.1-15-26.3-16.4-41.5c-1.4-15.2-1.4-31-7.8-44.8c11.1-0.8,22.1,2.9,31.5,8.7c9.4,5.8,17.4,13.7,25,21.8
					c12,12.9,23.3,27.1,28.4,43.9c1.5,4.9,2.4,10.1,0.9,14.9C169,353.9,171.2,356.1,161.6,359.9"/>
			</g>
		</g>
		<g>
			<g>
				<path fill="#59704B" d="M268.6,366.3c-0.4,6.3,0.6,5.7,0.8,10.2s2,8.7,3.8,12.8c4.4,9.8,9.1,19.9,17.4,26.7
					c11.8,9.6,28.4,10.6,43.6,9.6s30.8-3.5,45.5,0.6c-0.9-11-6.3-21.4-13.6-29.8c-7.2-8.4-16.3-15-25.5-21.2
					c-14.6-9.8-30.4-18.7-47.8-21.1c-5-0.7-10.4-0.8-14.9,1.5S270.9,356.2,268.6,366.3"/>
			</g>
		</g>
	</g>
</g>
</svg>
