<?xml version="1.0" encoding="utf-8"?>
<!-- Generator: Adobe Illustrator 18.0.0, SVG Export Plug-In . SVG Version: 6.00 Build 0)  -->
<!DOCTYPE svg PUBLIC "-//W3C//DTD SVG 1.1//EN" "http://www.w3.org/Graphics/SVG/1.1/DTD/svg11.dtd" [
	<!ENTITY ns_flows "http://ns.adobe.com/Flows/1.0/">
	<!ENTITY ns_extend "http://ns.adobe.com/Extensibility/1.0/">
	<!ENTITY ns_ai "http://ns.adobe.com/AdobeIllustrator/10.0/">
	<!ENTITY ns_graphs "http://ns.adobe.com/Graphs/1.0/">
]>
<svg version="1.1" id="Capa_1" xmlns:x="&ns_extend;" xmlns:i="&ns_ai;" xmlns:graph="&ns_graphs;"
	 xmlns="http://www.w3.org/2000/svg" xmlns:xlink="http://www.w3.org/1999/xlink" xmlns:a="http://ns.adobe.com/AdobeSVGViewerExtensions/3.0/"
	 x="0px" y="0px" viewBox="0 0 595.3 841.9" enable-background="new 0 0 595.3 841.9" xml:space="preserve">
<g>
	<g>
		<path fill="#FFFFFF" stroke="#FFFFFF" stroke-miterlimit="10" d="M123.8,255.5l1-60.2h14.2l6.7,35.2l7.2-35.2h13.8l1,60.2h-9.5
			l-1-40l-7.1,40h-8.3l-7.4-40.3l-0.9,40.3H123.8z"/>
		<path fill="#FFFFFF" stroke="#FFFFFF" stroke-miterlimit="10" d="M183.8,255.5v-60.2h27.1v9.1h-13.8v14.9h10.5v9.3h-10.5v18H211v9
			H183.8z"/>
		<path fill="#FFFFFF" stroke="#FFFFFF" stroke-miterlimit="10" d="M224.5,255.5v-60.2h9.4l12.4,28.9v-28.9h11v60.2h-9l-12.4-31.2
			v31.2H224.5z"/>
		<path fill="#FFFFFF" stroke="#FFFFFF" stroke-miterlimit="10" d="M290.9,256.4c-3.3,0-6.2-0.4-8.6-1.3s-4.2-2.2-5.6-4
			c-1.4-1.8-2.4-3.8-3-6.2s-0.9-5.2-0.9-8.4v-22.2c0-3.2,0.3-6,0.9-8.4c0.6-2.4,1.6-4.4,3-6.2c1.4-1.7,3.3-3.1,5.6-3.9
			s5.2-1.3,8.6-1.3c6.5,0,11.2,1.7,14,5c2.8,3.3,4.2,8.3,4.2,14.8v22.2c0,6.5-1.4,11.5-4.2,14.8C302,254.7,297.4,256.4,290.9,256.4z
			 M288.8,246.5c0.6,0.3,1.3,0.4,2.1,0.4s1.5-0.1,2.1-0.4c0.6-0.3,1-0.6,1.3-1.1c0.3-0.4,0.6-1,0.7-1.7s0.3-1.3,0.3-1.9
			s0.1-1.3,0.1-2.1v-28.9c0-0.8,0-1.5-0.1-2.1c0-0.6-0.2-1.2-0.3-1.9c-0.2-0.7-0.4-1.2-0.7-1.6c-0.3-0.4-0.8-0.8-1.3-1
			c-0.6-0.3-1.3-0.4-2.1-0.4s-1.5,0.1-2.1,0.4s-1,0.6-1.3,1c-0.3,0.4-0.6,0.9-0.7,1.6c-0.2,0.7-0.3,1.3-0.3,1.9
			c0,0.6-0.1,1.3-0.1,2.1v28.9c0,0.8,0,1.6,0.1,2.1s0.1,1.2,0.3,1.9c0.2,0.7,0.4,1.2,0.7,1.7C287.8,245.9,288.2,246.2,288.8,246.5z"
			/>
		<path fill="#FFFFFF" stroke="#FFFFFF" stroke-miterlimit="10" d="M324.5,255.5v-60.2h16.4c2.5,0,4.8,0.1,6.8,0.4
			c2,0.3,3.8,0.8,5.5,1.5s3.1,1.7,4.3,2.9c1.1,1.2,2,2.7,2.6,4.6s0.9,4,0.9,6.5c0,3.9-0.5,7.1-1.6,9.5c-1.1,2.4-3,4.3-5.8,5.6
			l8.3,29.2h-13.8l-6.6-27h-3.7v27H324.5z M337.8,220.9h3.4c2.7,0,4.6-0.7,5.7-2.1c1.1-1.4,1.7-3.5,1.7-6.4c0-2.8-0.5-4.9-1.5-6.2
			c-1-1.3-2.7-2-5.2-2h-4.1V220.9z"/>
		<path fill="#FFFFFF" stroke="#FFFFFF" stroke-miterlimit="10" d="M376.4,255.5v-60.2h27.1v9.1h-13.8v14.9h10.5v9.3h-10.5v18h13.9
			v9H376.4z"/>
		<path fill="#FFFFFF" stroke="#FFFFFF" stroke-miterlimit="10" d="M433.1,256.4c-5.7,0-10-1.5-12.8-4.6c-2.8-3-4.3-7.9-4.5-14.6
			l11.4-1.7c0,3.8,0.5,6.5,1.4,8.2c0.9,1.7,2.2,2.6,3.9,2.6c2.3,0,3.4-1.5,3.4-4.4c0-1.6-0.3-3.1-0.9-4.5c-0.6-1.4-1.3-2.5-2.1-3.5
			c-0.8-1-2-2.1-3.6-3.4l-5.3-4.6c-1.3-1.1-2.3-2.1-3.2-3.1c-0.8-0.9-1.7-2-2.5-3.3c-0.8-1.3-1.4-2.7-1.8-4.2
			c-0.4-1.5-0.6-3.3-0.6-5.1c0-5,1.5-8.9,4.5-11.6c3-2.7,7.1-4.1,12.4-4.1c1.8,0,3.4,0.2,4.9,0.6c1.5,0.4,2.7,0.9,3.7,1.5
			c1,0.6,1.9,1.4,2.7,2.4c0.8,1,1.4,1.9,1.8,2.9c0.4,1,0.8,2,1.1,3.2c0.3,1.2,0.5,2.3,0.6,3.3c0.1,1,0.2,2.1,0.2,3.2l-11.5,1.5
			c0-1-0.1-1.9-0.1-2.5c0-0.7-0.1-1.4-0.2-2.1c-0.1-0.8-0.2-1.4-0.4-1.8c-0.2-0.5-0.4-0.9-0.7-1.3c-0.3-0.4-0.6-0.7-1.1-0.9
			c-0.4-0.2-0.9-0.2-1.5-0.2c-1.2,0-2.1,0.5-2.7,1.5c-0.6,1-0.9,2-0.9,3.2c0,1.1,0.1,2.2,0.4,3.1c0.3,0.9,0.8,1.8,1.5,2.7
			s1.3,1.5,1.7,2c0.4,0.4,1.2,1.1,2.2,2l5.1,4.5c1.4,1.3,2.6,2.5,3.6,3.6c1,1.2,2,2.5,2.9,3.9c0.9,1.5,1.6,3.1,2.1,4.8
			c0.5,1.8,0.7,3.6,0.7,5.6c0,4.4-1.5,8-4.4,10.8C441.6,254.9,437.8,256.4,433.1,256.4z"/>
	</g>
	<g>
		<g opacity="0.51"  a:adobe-blending-mode="multiply">
			<circle fill="#7CAA9A"  a:adobe-blending-mode="normal" cx="370.4" cy="533.4" r="114"/>
		</g>
		<g>
			<g>
				<line fill="#FFFFFF" x1="296.4" y1="545.1" x2="341.4" y2="545.1"/>
				<rect x="296.4" y="541.6" fill="#FFFFFF" width="45" height="7"/>
			</g>
		</g>
		<g>
			<g>
				<path fill="#FFFFFF" stroke="#FFFFFF" stroke-miterlimit="10" d="M354.3,568.4v-4.9h13.6v-47.4l-13.6,5.7v-4.9l13.6-5.7h5.1
					v52.3h13.6v4.9H354.3z"/>
				<path fill="#FFFFFF" stroke="#FFFFFF" stroke-miterlimit="10" d="M419,560.6c-0.7,1.7-1.7,3.2-3,4.5c-1.3,1.3-2.8,2.3-4.5,3
					c-1.7,0.7-3.5,1.1-5.5,1.1h-2.4c-1.9,0-3.8-0.4-5.5-1.1s-3.2-1.7-4.5-3c-1.3-1.3-2.3-2.8-3-4.5c-0.7-1.7-1.1-3.5-1.1-5.5v-30.7
					c0-1.9,0.4-3.8,1.1-5.5c0.7-1.7,1.7-3.2,3-4.5c1.3-1.3,2.8-2.3,4.5-3s3.5-1.1,5.5-1.1h2.4c1.9,0,3.8,0.4,5.5,1.1
					c1.7,0.7,3.2,1.7,4.5,3c1.3,1.3,2.3,2.8,3,4.5c0.7,1.7,1.1,3.5,1.1,5.5v30.7C420.1,557.1,419.7,558.9,419,560.6z M414.9,524.4
					c0-1.3-0.2-2.5-0.7-3.6c-0.5-1.1-1.1-2.1-2-2.9c-0.8-0.8-1.8-1.5-2.9-2c-1.1-0.5-2.3-0.7-3.6-0.7h-2c-1.3,0-2.5,0.2-3.6,0.7
					s-2.1,1.1-2.9,2c-0.8,0.8-1.5,1.8-2,2.9c-0.5,1.1-0.7,2.3-0.7,3.6v30.7c0,1.3,0.2,2.5,0.7,3.6c0.5,1.1,1.1,2.1,2,2.9
					c0.8,0.8,1.8,1.5,2.9,2c1.1,0.5,2.3,0.7,3.6,0.7h2c1.3,0,2.5-0.2,3.6-0.7c1.1-0.5,2.1-1.1,2.9-2c0.8-0.8,1.5-1.8,2-2.9
					c0.5-1.1,0.7-2.3,0.7-3.6V524.4z"/>
			</g>
			<g>
				<path fill="#FFFFFF" stroke="#FFFFFF" stroke-miterlimit="10" d="M437.3,566.3c-0.2,0.5-0.5,1-0.9,1.4s-0.9,0.7-1.4,0.9
					s-1.1,0.3-1.7,0.3h-1.3c-0.6,0-1.2-0.1-1.7-0.3c-0.5-0.2-1-0.5-1.4-0.9s-0.7-0.9-0.9-1.4s-0.3-1.1-0.3-1.7v-9.5
					c0-0.6,0.1-1.2,0.3-1.7c0.2-0.5,0.5-1,0.9-1.4s0.9-0.7,1.4-0.9c0.5-0.2,1.1-0.3,1.7-0.3h1.3c0.6,0,1.2,0.1,1.7,0.3
					s1,0.5,1.4,0.9s0.7,0.9,0.9,1.4c0.2,0.5,0.3,1.1,0.3,1.7v0.7l-1.6,0.2v-1c0-0.4-0.1-0.8-0.2-1.1s-0.4-0.6-0.6-0.9
					c-0.3-0.3-0.6-0.5-0.9-0.6c-0.3-0.1-0.7-0.2-1.1-0.2h-1.1c-0.4,0-0.8,0.1-1.1,0.2s-0.6,0.4-0.9,0.6s-0.5,0.6-0.6,0.9
					s-0.2,0.7-0.2,1.1v9.5c0,0.4,0.1,0.8,0.2,1.1c0.1,0.3,0.4,0.6,0.6,0.9s0.6,0.5,0.9,0.6c0.3,0.1,0.7,0.2,1.1,0.2h1.1
					c0.4,0,0.8-0.1,1.1-0.2c0.3-0.1,0.6-0.4,0.9-0.6c0.3-0.3,0.5-0.6,0.6-0.9c0.1-0.3,0.2-0.7,0.2-1.1v-1l1.6,0.3v0.7
					C437.7,565.2,437.6,565.8,437.3,566.3z"/>
				<path fill="#FFFFFF" stroke="#FFFFFF" stroke-miterlimit="10" d="M457.2,568.7v-12.2l-0.1,0.8l-4.1,11.4h-0.8l-4.2-11.4
					l-0.1-0.8v12.2h-1.6V551h0.8l5.4,14.5l0,0.7l0-0.7L458,551h0.8v17.7H457.2z"/>
			</g>
		</g>
	</g>
	<g>
		<g>
			<g>
				<path fill="#59704B" d="M147.4,554.1c1.4,0.9,2.8,1.6,4.3,2.3c19.1-2.9,37.8-8.3,55.7-16c22.4-9.6,43.3-22.4,62.5-37.2
					c18.6-14.3,35.3-29.7,48.4-49.2c18.7-27.8,31.6-60.5,52-87.2c0-1.8-0.1-3.7-0.2-5.6c-0.2-2.4-0.4-5-1.9-7
					c-3.3-4.4-10.3-3.8-15.9-2.6c-40.9,8.6-81.7,20.1-117.7,40.4c-36,20.3-67.2,50.1-82.2,87.2c-8,19.9-11,27.1-14.1,48.1l-0.1,0
					C132.8,536.4,138.4,548.4,147.4,554.1z"/>
			</g>
			<g>
				<g>
					<path fill="#59704B" d="M147.1,554.7c4.6,2.7,5.8,2.2,11.2,1.3c6.1-1.1,12.2-2.5,18.3-4.1c11.2-3,22.1-6.9,32.7-11.6
						c20.7-9,40.1-20.8,58.1-34.3c16.8-12.6,32.7-26.6,45.5-43.3c13.5-17.5,23.3-37.6,33.9-56.9c5.5-10,11.1-19.9,17.5-29.4
						c2.3-3.4,6.8-7.2,6.7-11.4c-0.1-3.6,0-8.1-2.3-11.1c-4.6-5.9-14-3.3-20.1-2c-11.3,2.4-22.5,5.1-33.6,8.1
						c-41.7,11.3-82.8,28-116,56.2c-16.6,14.1-31.1,31-41.3,50.4c-5,9.6-9,19.9-12.7,30.2c-1,2.7-8.2,30.2-6.8,30.2
						c-0.2,0-0.4,0.1-0.5,0.3C132.2,537.3,138.2,548.7,147.1,554.7c0.7,0.5,1.3-0.6,0.6-1.1c-4.2-2.8-7.5-6.6-9.5-11.2
						c-0.9-2.2-1.5-4.5-1.5-6.8c0-0.7,0.7-7.5,1.6-7.5c0.2,0,0.6-0.2,0.6-0.5c5.4-36.1,21.2-70.8,46.5-97.2
						c28.1-29.2,64.8-48.3,102.8-61.2c20.1-6.8,40.7-12,61.5-16.4c4.4-0.9,9.9-2.4,14.3-0.7c4.1,1.6,5.1,5.3,5.4,9.2
						c0.3,4-0.5,6.2-2.8,9.4c-6.1,8.5-11.6,17.5-16.8,26.7c-10.1,17.8-19,36.3-30.2,53.4c-11.1,17.1-25.2,31.6-40.9,44.6
						c-18.1,14.9-37.8,28.1-58.8,38.5c-11.5,5.7-23.4,10.6-35.6,14.4c-6,1.9-12,3.5-18.1,4.8c-6.1,1.3-12.9,3.9-18.5,0.5
						C147,553.2,146.4,554.3,147.1,554.7z"/>
				</g>
			</g>
		</g>
		<g>
			<g>
				<path fill="#59704B" d="M182.4,513.2c-25.8,7-49.3,22.4-66,43.2c-1.2,1.5-2.4,3-2.8,4.8c-1.7,6.5,6,11.5,7.7,18
					c3.8-12,7.8-24.3,15.3-34.5c5-6.8,11.3-12.4,17.9-17.6c8.4-6.5,17.2-12.4,26.5-17.5"/>
			</g>
			<g>
				<g>
					<path fill="#59704B" d="M181.8,510.8c-19,5.3-36.7,14.7-51.6,27.7c-3.6,3.2-7.1,6.5-10.3,10.1c-2.8,3.1-6.4,6.5-8.1,10.4
						c-3.5,8.3,4.8,13.8,7.1,21c0.8,2.4,4.1,2.4,4.8,0c4.7-14.6,9.7-29.1,20.6-40.4c10.8-11.2,24.4-20.1,37.9-27.7
						c2.8-1.6,0.3-5.9-2.5-4.3c-14.3,8-28.9,17.5-40.1,29.7c-10.8,11.7-16,26.5-20.7,41.4c1.6,0,3.2,0,4.8,0
						c-2.3-7-11.2-13-5.6-20.4c5.2-6.7,11.5-12.8,18-18.2c13.7-11.3,29.8-19.6,46.9-24.3C186.2,514.8,184.9,509.9,181.8,510.8
						L181.8,510.8z"/>
				</g>
			</g>
		</g>
		<g opacity="0.4">
			<g>
				<path fill="#8B9D80" d="M148.8,528.3c21.9-27.7,47.3-52.3,74.3-75c28.7-24.2,58.5-47.1,89.2-68.7c15.6-11,32.5-20.7,51.6-23.5
					c1.6-0.2,0.9-2.6-0.7-2.4c-16.5,2.5-31.4,10-45.2,19c-15.5,10.2-30.4,21.5-45.2,32.8c-29.2,22.1-58.1,45.2-84.5,70.7
					c-14.7,14.2-28.6,29.3-41.3,45.4C146.1,527.8,147.8,529.6,148.8,528.3L148.8,528.3z"/>
			</g>
		</g>
	</g>
</g>
</svg>
