<?xml version="1.0" encoding="utf-8"?>
<!-- Generator: Adobe Illustrator 18.0.0, SVG Export Plug-In . SVG Version: 6.00 Build 0)  -->
<!DOCTYPE svg PUBLIC "-//W3C//DTD SVG 1.1//EN" "http://www.w3.org/Graphics/SVG/1.1/DTD/svg11.dtd" [
	<!ENTITY ns_flows "http://ns.adobe.com/Flows/1.0/">
	<!ENTITY ns_extend "http://ns.adobe.com/Extensibility/1.0/">
	<!ENTITY ns_ai "http://ns.adobe.com/AdobeIllustrator/10.0/">
	<!ENTITY ns_graphs "http://ns.adobe.com/Graphs/1.0/">
]>
<svg version="1.1" id="Capa_1" xmlns:x="&ns_extend;" xmlns:i="&ns_ai;" xmlns:graph="&ns_graphs;"
	 xmlns="http://www.w3.org/2000/svg" xmlns:xlink="http://www.w3.org/1999/xlink" xmlns:a="http://ns.adobe.com/AdobeSVGViewerExtensions/3.0/"
	 x="0px" y="0px" viewBox="0 0 595.3 841.9" enable-background="new 0 0 595.3 841.9" xml:space="preserve">
<g>
	<g>
		<path fill="#FFFFFF" stroke="#FFFFFF" stroke-miterlimit="10" d="M113.4,246v-50.4h-9.3v-9.8h31.8v9.8h-9.2V246H113.4z"/>
		<path fill="#FFFFFF" stroke="#FFFFFF" stroke-miterlimit="10" d="M165.8,246.9c-3.3,0-6.2-0.4-8.6-1.3s-4.2-2.2-5.6-4
			s-2.4-3.8-3-6.2s-0.9-5.2-0.9-8.4v-22.2c0-3.2,0.3-6,0.9-8.4c0.6-2.4,1.6-4.4,3-6.2c1.4-1.7,3.3-3.1,5.6-3.9s5.2-1.3,8.6-1.3
			c6.5,0,11.2,1.7,14,5c2.8,3.3,4.2,8.3,4.2,14.8V227c0,6.5-1.4,11.5-4.2,14.8C177,245.2,172.3,246.9,165.8,246.9z M163.7,237
			c0.6,0.3,1.3,0.4,2.1,0.4c0.8,0,1.5-0.1,2.1-0.4c0.6-0.3,1-0.6,1.3-1.1c0.3-0.4,0.6-1,0.7-1.7s0.3-1.3,0.3-1.9
			c0-0.6,0.1-1.3,0.1-2.1v-28.9c0-0.8,0-1.5-0.1-2.1c0-0.6-0.2-1.2-0.3-1.9c-0.2-0.7-0.4-1.2-0.7-1.6c-0.3-0.4-0.8-0.8-1.3-1
			c-0.6-0.3-1.3-0.4-2.1-0.4c-0.8,0-1.5,0.1-2.1,0.4c-0.6,0.3-1,0.6-1.3,1c-0.3,0.4-0.6,0.9-0.7,1.6c-0.2,0.7-0.3,1.3-0.3,1.9
			c0,0.6-0.1,1.3-0.1,2.1v28.9c0,0.8,0,1.6,0.1,2.1c0,0.6,0.1,1.2,0.3,1.9c0.2,0.7,0.4,1.2,0.7,1.7
			C162.7,236.4,163.2,236.7,163.7,237z"/>
		<path fill="#FFFFFF" stroke="#FFFFFF" stroke-miterlimit="10" d="M199.5,246v-60.2h15.2c3.9,0,7.2,0.4,9.8,1.1
			c2.6,0.7,4.7,1.9,6.2,3.5c1.5,1.6,2.6,3.6,3.3,5.9c0.6,2.3,0.9,5.2,0.9,8.7v21.7c0,3.5-0.3,6.4-1,8.8c-0.6,2.4-1.7,4.4-3.3,6
			s-3.6,2.8-6.2,3.5c-2.6,0.7-5.8,1.1-9.7,1.1H199.5z M212.7,236.8h2c1,0,1.9-0.1,2.6-0.2c0.7-0.1,1.3-0.4,1.8-0.7
			c0.5-0.3,0.8-0.7,1.1-1.1c0.3-0.4,0.5-0.9,0.6-1.6c0.1-0.7,0.2-1.4,0.3-2c0-0.6,0.1-1.5,0.1-2.6v-25.9c0-1.5-0.1-2.7-0.2-3.5
			c-0.1-0.8-0.4-1.6-0.8-2.3c-0.4-0.7-1.1-1.1-1.9-1.4c-0.9-0.3-2-0.4-3.5-0.4h-2V236.8z"/>
		<path fill="#FFFFFF" stroke="#FFFFFF" stroke-miterlimit="10" d="M246.7,246l11.4-60.2h15l11.3,60.2h-12.3l-2.1-12.8h-8.8l-2,12.8
			H246.7z M262.5,225.3h6.4l-3.2-23.3L262.5,225.3z"/>
		<path fill="#FFFFFF" stroke="#FFFFFF" stroke-miterlimit="10" d="M314,246.9c-5.7,0-10-1.5-12.8-4.6c-2.8-3-4.3-7.9-4.5-14.6
			l11.4-1.7c0,3.8,0.5,6.5,1.4,8.2c0.9,1.7,2.1,2.6,3.9,2.6c2.3,0,3.4-1.5,3.4-4.4c0-1.6-0.3-3.1-0.9-4.5c-0.6-1.4-1.3-2.5-2.1-3.5
			c-0.8-1-2-2.1-3.6-3.4l-5.3-4.6c-1.3-1.1-2.3-2.1-3.2-3.1c-0.8-0.9-1.7-2-2.5-3.3s-1.4-2.7-1.8-4.2s-0.6-3.3-0.6-5.1
			c0-5,1.5-8.9,4.5-11.6c3-2.7,7.1-4.1,12.4-4.1c1.8,0,3.4,0.2,4.9,0.6c1.5,0.4,2.7,0.9,3.7,1.5c1,0.6,1.9,1.4,2.7,2.4
			c0.8,1,1.4,1.9,1.8,2.9c0.4,1,0.8,2,1.1,3.2c0.3,1.2,0.5,2.3,0.6,3.3s0.2,2.1,0.2,3.2l-11.5,1.5c0-1-0.1-1.9-0.1-2.5
			c0-0.7-0.1-1.4-0.2-2.1c-0.1-0.8-0.2-1.4-0.4-1.8c-0.2-0.5-0.4-0.9-0.7-1.3s-0.6-0.7-1.1-0.9c-0.4-0.2-0.9-0.2-1.5-0.2
			c-1.2,0-2.1,0.5-2.7,1.5c-0.6,1-0.9,2-0.9,3.2c0,1.1,0.1,2.2,0.4,3.1s0.8,1.8,1.5,2.7c0.7,0.9,1.3,1.5,1.7,2
			c0.4,0.4,1.2,1.1,2.2,2l5.1,4.5c1.4,1.3,2.6,2.5,3.6,3.6c1,1.2,2,2.5,2.9,3.9c0.9,1.5,1.6,3.1,2.1,4.8c0.5,1.8,0.7,3.6,0.7,5.6
			c0,4.4-1.5,8-4.4,10.8S318.7,246.9,314,246.9z"/>
		<path fill="#FFFFFF" stroke="#FFFFFF" stroke-miterlimit="10" d="M370.2,246v-60.2h15.1c3.9,0,7.2,0.4,9.8,1.1
			c2.6,0.7,4.7,1.9,6.2,3.5s2.6,3.6,3.3,5.9c0.6,2.3,0.9,5.2,0.9,8.7v21.7c0,3.5-0.3,6.4-1,8.8c-0.6,2.4-1.7,4.4-3.3,6
			s-3.6,2.8-6.2,3.5c-2.6,0.7-5.8,1.1-9.7,1.1H370.2z M383.5,236.8h2c1,0,1.9-0.1,2.6-0.2c0.7-0.1,1.3-0.4,1.8-0.7
			c0.5-0.3,0.8-0.7,1.1-1.1c0.3-0.4,0.5-0.9,0.6-1.6c0.1-0.7,0.2-1.4,0.3-2c0-0.6,0.1-1.5,0.1-2.6v-25.9c0-1.5-0.1-2.7-0.2-3.5
			c-0.1-0.8-0.4-1.6-0.8-2.3c-0.4-0.7-1.1-1.1-1.9-1.4c-0.9-0.3-2-0.4-3.5-0.4h-2V236.8z"/>
		<path fill="#FFFFFF" stroke="#FFFFFF" stroke-miterlimit="10" d="M421.1,246v-60.2h27.1v9.1h-13.8v14.9h10.5v9.3h-10.5v18h13.9v9
			H421.1z"/>
		<path fill="#FFFFFF" stroke="#FFFFFF" stroke-miterlimit="10" d="M461.8,246v-60.2H475V237h13.8v9H461.8z"/>
		<path fill="#FFFFFF" stroke="#FFFFFF" stroke-miterlimit="10" d="M47.2,335.3l1-60.2h14.2l6.7,35.2l7.2-35.2H90l1,60.2h-9.5l-1-40
			l-7.1,40h-8.3l-7.4-40.3l-0.9,40.3H47.2z"/>
		<path fill="#FFFFFF" stroke="#FFFFFF" stroke-miterlimit="10" d="M107.2,335.3v-60.2h13.3v60.2H107.2z"/>
		<path fill="#FFFFFF" stroke="#FFFFFF" stroke-miterlimit="10" d="M152.9,336.2c-5.7,0-10-1.5-12.8-4.6c-2.8-3-4.3-7.9-4.5-14.6
			l11.4-1.7c0,3.8,0.5,6.5,1.4,8.2c0.9,1.7,2.1,2.6,3.9,2.6c2.3,0,3.4-1.5,3.4-4.4c0-1.6-0.3-3.1-0.9-4.5c-0.6-1.4-1.3-2.5-2.1-3.5
			s-2-2.1-3.6-3.4l-5.3-4.6c-1.3-1.1-2.3-2.1-3.2-3.1c-0.8-0.9-1.7-2-2.5-3.3s-1.4-2.7-1.8-4.2c-0.4-1.5-0.6-3.3-0.6-5.1
			c0-5,1.5-8.9,4.5-11.6c3-2.7,7.1-4.1,12.4-4.1c1.8,0,3.4,0.2,4.9,0.6c1.5,0.4,2.7,0.9,3.7,1.5c1,0.6,1.9,1.4,2.7,2.4
			c0.8,1,1.4,1.9,1.8,2.9c0.4,1,0.8,2,1.1,3.2s0.5,2.3,0.6,3.3s0.2,2.1,0.2,3.2l-11.5,1.5c0-1-0.1-1.9-0.1-2.5
			c0-0.7-0.1-1.4-0.2-2.1c-0.1-0.8-0.2-1.4-0.4-1.8c-0.2-0.5-0.4-0.9-0.7-1.3c-0.3-0.4-0.6-0.7-1.1-0.9c-0.4-0.2-0.9-0.2-1.5-0.2
			c-1.2,0-2.1,0.5-2.7,1.5c-0.6,1-0.9,2-0.9,3.2c0,1.1,0.1,2.2,0.4,3.1c0.3,0.9,0.8,1.8,1.5,2.7c0.7,0.9,1.3,1.5,1.7,2
			c0.4,0.4,1.2,1.1,2.2,2l5.1,4.5c1.4,1.3,2.6,2.5,3.6,3.6c1,1.2,2,2.5,2.9,3.9c0.9,1.5,1.6,3.1,2.1,4.8c0.5,1.8,0.7,3.6,0.7,5.6
			c0,4.4-1.5,8-4.4,10.8S157.6,336.2,152.9,336.2z"/>
		<path fill="#FFFFFF" stroke="#FFFFFF" stroke-miterlimit="10" d="M182.4,335.3l1-60.2h14.2l6.7,35.2l7.2-35.2h13.8l1,60.2h-9.5
			l-1-40l-7.1,40h-8.3l-7.4-40.3l-0.9,40.3H182.4z"/>
		<path fill="#FFFFFF" stroke="#FFFFFF" stroke-miterlimit="10" d="M259.7,336.2c-3.3,0-6.2-0.4-8.6-1.3s-4.2-2.2-5.6-4
			c-1.4-1.8-2.4-3.8-3-6.2c-0.6-2.4-0.9-5.2-0.9-8.4v-22.2c0-3.2,0.3-6,0.9-8.4c0.6-2.4,1.6-4.4,3-6.2c1.4-1.7,3.3-3.1,5.6-3.9
			s5.2-1.3,8.6-1.3c6.5,0,11.2,1.7,14,5s4.2,8.3,4.2,14.8v22.2c0,6.5-1.4,11.5-4.2,14.8C270.8,334.5,266.2,336.2,259.7,336.2z
			 M257.6,326.3c0.6,0.3,1.3,0.4,2.1,0.4c0.8,0,1.5-0.1,2.1-0.4c0.6-0.3,1-0.6,1.3-1.1c0.3-0.4,0.6-1,0.7-1.7s0.3-1.3,0.3-1.9
			c0-0.6,0.1-1.3,0.1-2.1v-28.9c0-0.8,0-1.5-0.1-2.1c0-0.6-0.2-1.2-0.3-1.9c-0.2-0.7-0.4-1.2-0.7-1.6c-0.3-0.4-0.8-0.8-1.3-1
			s-1.3-0.4-2.1-0.4c-0.8,0-1.5,0.1-2.1,0.4c-0.6,0.3-1,0.6-1.3,1c-0.3,0.4-0.6,0.9-0.7,1.6c-0.2,0.7-0.3,1.3-0.3,1.9
			c0,0.6-0.1,1.3-0.1,2.1v28.9c0,0.8,0,1.6,0.1,2.1c0,0.6,0.1,1.2,0.3,1.9c0.2,0.7,0.4,1.2,0.7,1.7C256.6,325.7,257,326,257.6,326.3
			z"/>
		<path fill="#FFFFFF" stroke="#FFFFFF" stroke-miterlimit="10" d="M337.1,336.2c-3.4,0-6.2-0.5-8.6-1.4c-2.4-0.9-4.2-2.3-5.6-4.1
			c-1.4-1.8-2.4-3.9-3-6.3s-0.9-5.2-0.9-8.4v-21.5c0-3.3,0.3-6.1,0.9-8.5c0.6-2.4,1.6-4.5,3-6.3c1.4-1.8,3.2-3.2,5.6-4.1
			c2.4-0.9,5.2-1.4,8.6-1.4c3.2,0,6,0.4,8.3,1.2c2.3,0.8,4.1,2,5.4,3.6c1.3,1.6,2.2,3.4,2.8,5.4c0.6,2,0.9,4.4,0.9,7.1v5.3h-13v-6.1
			c0-0.9,0-1.7,0-2.1c0-0.5-0.1-1.1-0.3-1.9c-0.1-0.8-0.4-1.3-0.6-1.7c-0.3-0.4-0.7-0.7-1.3-1c-0.6-0.3-1.3-0.5-2.1-0.5
			s-1.5,0.2-2.1,0.5s-1,0.7-1.3,1.1c-0.3,0.4-0.5,1-0.7,1.7s-0.3,1.4-0.3,2c0,0.6-0.1,1.4-0.1,2.3v28.1c0,2.4,0.3,4.3,0.9,5.5
			c0.6,1.3,1.8,1.9,3.6,1.9c0.8,0,1.5-0.2,2.1-0.5c0.6-0.3,1-0.7,1.3-1.1c0.3-0.4,0.5-1,0.7-1.7c0.2-0.8,0.2-1.4,0.3-2
			c0-0.6,0-1.3,0-2.2V313h13v5.2c0,2.2-0.2,4.1-0.5,5.8c-0.3,1.7-0.9,3.4-1.7,4.9c-0.8,1.5-1.9,2.8-3.2,3.9c-1.3,1-2.9,1.9-5,2.5
			C342.1,335.9,339.8,336.2,337.1,336.2z"/>
		<path fill="#FFFFFF" stroke="#FFFFFF" stroke-miterlimit="10" d="M386.4,336.2c-3.3,0-6.2-0.4-8.6-1.3s-4.2-2.2-5.6-4
			s-2.4-3.8-3-6.2s-0.9-5.2-0.9-8.4v-22.2c0-3.2,0.3-6,0.9-8.4c0.6-2.4,1.6-4.4,3-6.2c1.4-1.7,3.3-3.1,5.6-3.9s5.2-1.3,8.6-1.3
			c6.5,0,11.2,1.7,14,5c2.8,3.3,4.2,8.3,4.2,14.8v22.2c0,6.5-1.4,11.5-4.2,14.8C397.6,334.5,393,336.2,386.4,336.2z M384.4,326.3
			c0.6,0.3,1.3,0.4,2.1,0.4c0.8,0,1.5-0.1,2.1-0.4c0.6-0.3,1-0.6,1.3-1.1c0.3-0.4,0.6-1,0.7-1.7s0.3-1.3,0.3-1.9
			c0-0.6,0.1-1.3,0.1-2.1v-28.9c0-0.8,0-1.5-0.1-2.1c0-0.6-0.2-1.2-0.3-1.9c-0.2-0.7-0.4-1.2-0.7-1.6c-0.3-0.4-0.8-0.8-1.3-1
			c-0.6-0.3-1.3-0.4-2.1-0.4c-0.8,0-1.5,0.1-2.1,0.4c-0.6,0.3-1,0.6-1.3,1c-0.3,0.4-0.6,0.9-0.7,1.6c-0.2,0.7-0.3,1.3-0.3,1.9
			c0,0.6-0.1,1.3-0.1,2.1v28.9c0,0.8,0,1.6,0.1,2.1c0,0.6,0.1,1.2,0.3,1.9c0.2,0.7,0.4,1.2,0.7,1.7
			C383.4,325.7,383.8,326,384.4,326.3z"/>
		<path fill="#FFFFFF" stroke="#FFFFFF" stroke-miterlimit="10" d="M420.1,335.3v-60.2h13.3v51.2h13.8v9H420.1z"/>
		<path fill="#FFFFFF" stroke="#FFFFFF" stroke-miterlimit="10" d="M477,336.2c-3.3,0-6.2-0.4-8.6-1.3s-4.2-2.2-5.6-4
			s-2.4-3.8-3-6.2c-0.6-2.4-0.9-5.2-0.9-8.4v-22.2c0-3.2,0.3-6,0.9-8.4c0.6-2.4,1.6-4.4,3-6.2c1.4-1.7,3.3-3.1,5.6-3.9
			s5.2-1.3,8.6-1.3c6.5,0,11.2,1.7,14,5c2.8,3.3,4.2,8.3,4.2,14.8v22.2c0,6.5-1.4,11.5-4.2,14.8C488.2,334.5,483.5,336.2,477,336.2z
			 M475,326.3c0.6,0.3,1.3,0.4,2.1,0.4s1.5-0.1,2.1-0.4c0.6-0.3,1-0.6,1.3-1.1c0.3-0.4,0.6-1,0.7-1.7s0.3-1.3,0.3-1.9
			c0-0.6,0.1-1.3,0.1-2.1v-28.9c0-0.8,0-1.5-0.1-2.1c0-0.6-0.2-1.2-0.3-1.9c-0.2-0.7-0.4-1.2-0.7-1.6c-0.3-0.4-0.8-0.8-1.3-1
			c-0.6-0.3-1.3-0.4-2.1-0.4s-1.5,0.1-2.1,0.4c-0.6,0.3-1,0.6-1.3,1c-0.3,0.4-0.6,0.9-0.7,1.6c-0.2,0.7-0.3,1.3-0.3,1.9
			c0,0.6-0.1,1.3-0.1,2.1v28.9c0,0.8,0,1.6,0.1,2.1c0,0.6,0.1,1.2,0.3,1.9s0.4,1.2,0.7,1.7S474.4,326,475,326.3z"/>
		<path fill="#FFFFFF" stroke="#FFFFFF" stroke-miterlimit="10" d="M510.7,335.3v-60.2h16.4c2.5,0,4.8,0.1,6.8,0.4
			c2,0.3,3.8,0.8,5.5,1.5c1.7,0.7,3.1,1.7,4.2,2.9c1.1,1.2,2,2.7,2.6,4.6s0.9,4,0.9,6.5c0,3.9-0.5,7.1-1.6,9.5
			c-1.1,2.4-3,4.3-5.8,5.6l8.3,29.2h-13.8l-6.6-27H524v27H510.7z M524,300.7h3.4c2.7,0,4.6-0.7,5.7-2.1c1.1-1.4,1.7-3.5,1.7-6.4
			c0-2.8-0.5-4.9-1.5-6.2c-1-1.3-2.7-2-5.2-2H524V300.7z"/>
	</g>
	<g>
		<g>
			<g>
				<path fill="#59704B" d="M238,576.5c-34.7,5.6-67.6,22.4-92.4,47.4c-1.7,1.8-3.5,3.6-4.4,5.9c-3.1,8.3,6.2,15.9,7.6,24.7
					c6.7-15.2,13.6-30.7,24.8-43c7.4-8.2,16.5-14.7,25.9-20.5c11.8-7.4,24.3-13.8,37.1-19.2"/>
			</g>
			<g>
				<g>
					<path fill="#59704B" d="M237.3,574.1c-25.3,4.2-49.6,14.1-70.7,28.9c-5,3.5-9.9,7.4-14.6,11.4c-4.3,3.7-9.6,7.8-12.4,12.9
						c-5.5,9.8,4.9,18.8,6.8,27.9c0.4,2,3.7,2.6,4.6,0.6c8.2-18.6,16.8-37,32.6-50.4c15.9-13.5,35.3-23.4,54.3-31.5
						c2.9-1.3,0.4-5.6-2.5-4.3c-19.5,8.3-39.2,18.5-55.4,32.3c-16.1,13.7-25,32.4-33.3,51.4c1.5,0.2,3,0.4,4.6,0.6
						c-0.9-4.5-3.3-8.4-5.4-12.5c-3.2-6.1-3.5-10.5,1.5-15.7c8.1-8.4,17.4-15.7,27.2-22c19.4-12.6,41.3-20.9,64.1-24.7
						C241.8,578.3,240.5,573.5,237.3,574.1L237.3,574.1z"/>
				</g>
			</g>
		</g>
		<g>
			<g>
				<path fill="#59704B" d="M186.5,625.2c1.7,1.3,3.4,2.5,5.3,3.6c25.5-1.1,50.7-5.7,75.1-13.2c30.6-9.5,59.8-23.3,87.1-40
					c26.3-16.1,50.4-34,70.3-57.7c28.3-33.8,49.7-74.8,80.2-106.9c0.2-2.4,0.4-4.9,0.5-7.3c0.1-3.2,0.1-6.6-1.6-9.4
					c-3.7-6.3-13-6.4-20.5-5.6c-54.8,5.5-109.7,15-159.7,36.6c-50,21.6-95,56.3-119.7,102.8c-13.2,24.9-18.1,33.9-25.1,61.1l-0.2,0
					C169.8,599.9,175.4,616.4,186.5,625.2z"/>
			</g>
			<g>
				<g>
					<path fill="#59704B" d="M186.1,625.7c1.6,1.2,3.6,3.2,5.6,3.7c3.2,0.8,8.2-0.5,11.4-0.7c7.7-0.6,15.3-1.6,22.9-2.8
						c15.6-2.6,31.1-6.4,46.1-11.3c28.2-9.2,55.1-22.1,80.5-37.5c23.7-14.3,46.3-30.7,65.2-51.1c19.3-20.8,34.5-45.1,50.7-68.4
						c8.6-12.3,17.4-24.5,27.1-36c2.2-2.6,4.5-5.2,6.9-7.8c2-2.1,2.4-2.1,2.7-4.8c0.5-5.2,1.4-11.9-2.1-16.4
						c-6.8-8.5-22.4-4.6-31.3-3.6c-14.8,1.7-29.6,3.6-44.3,6.1c-56.4,9.5-112.8,26.6-159.7,60.4c-22.7,16.3-42.9,36.4-57.9,60.1
						c-7.4,11.8-14,24.4-19.8,37c-2.3,5-4.4,10.2-6.2,15.4c-0.6,1.9-6.1,20.2-5.7,20.2c-0.2,0-0.4,0.1-0.5,0.3
						c-8.7,12.3-2.2,28.3,8.4,37c0.6,0.5,1.5-0.4,0.9-0.9c-5.2-4.3-9.2-9.9-11.1-16.4c-0.9-3.2-1.3-6.4-0.9-9.7
						c0.1-1.1,1.9-9.3,3.4-9.2c0.3,0,0.5-0.2,0.6-0.5c11.8-45.5,36.6-88.2,72.3-119C292,435,343.1,414.6,395,402.8
						c28.8-6.6,58.3-11,87.8-13.7c5.4-0.5,11.9-1,16.7,2.1c4.4,2.8,4.9,7.6,4.7,12.4c-0.1,4.4-0.7,7.3-3.8,10.7
						c-8.6,9.5-16.4,19.6-23.9,29.9c-16.3,22.5-31,46.2-48.4,67.9c-16.7,20.8-36.7,38-58.7,52.9c-26.2,17.6-54.3,32.5-83.8,43.6
						c-15.5,5.8-31.4,10.5-47.6,13.9c-8.7,1.8-17.4,3.2-26.2,4.2c-4.1,0.5-8.2,0.9-12.4,1.1c-5.2,0.4-8.4,0.1-12.6-3.1
						C186.1,624.2,185.5,625.3,186.1,625.7z"/>
				</g>
			</g>
		</g>
		<g opacity="0.14">
			<g>
				<path fill="#ABAC84" d="M191.7,591.2c32.4-33.2,69-61.8,107.4-87.7c39.9-27,81.2-52.1,123.2-75.7c23-12.9,47.4-24.5,74.3-25.6
					c1.6-0.1,1.6-2.6,0-2.5c-22.3,0.9-43.3,8.9-62.9,19.1c-21.9,11.4-43.2,24.2-64.3,37c-41.2,24.9-82,51.1-120,80.8
					c-20.9,16.4-40.8,33.9-59.3,52.9C188.8,590.6,190.6,592.4,191.7,591.2L191.7,591.2z"/>
			</g>
		</g>
	</g>
</g>
</svg>
