<?xml version="1.0" encoding="utf-8"?>
<!-- Generator: Adobe Illustrator 18.0.0, SVG Export Plug-In . SVG Version: 6.00 Build 0)  -->
<!DOCTYPE svg PUBLIC "-//W3C//DTD SVG 1.1//EN" "http://www.w3.org/Graphics/SVG/1.1/DTD/svg11.dtd">
<svg version="1.1" id="Capa_1" xmlns="http://www.w3.org/2000/svg" xmlns:xlink="http://www.w3.org/1999/xlink" x="0px" y="0px"
	 viewBox="0 0 500 500" enable-background="new 0 0 500 500" xml:space="preserve">
<g>
	<g>
		<path fill="#FFFFFF" stroke="#FFFFFF" stroke-miterlimit="10" d="M65.4,112.9V87c0-15.2,5.3-27.2,22.5-27.2
			c17.1,0,22.5,12,22.5,27.2v25.5c0,14.8-5.5,27.2-22.5,27.2C70.9,139.6,65.4,127.7,65.4,112.9z M94.8,116.4V83.1
			c0-4.9-1-11.4-7-11.4c-5.9,0-6.9,6.5-6.9,11.4v33.2c0,4.9,1,11.3,6.9,11.3C93.8,127.7,94.8,121.3,94.8,116.4z"/>
		<path fill="#FFFFFF" stroke="#FFFFFF" stroke-miterlimit="10" d="M127.2,138.2V61.3h18.6c13.8,0,19.2,8.2,19.2,21.8
			c0,17.6-8.4,22.1-22.1,22.2h-0.1v32.9H127.2z M142.8,94.3h0.6c6.8,0,6.8-3.7,6.8-11.5c0-6.1,0-10.4-6.6-10.4h-0.9V94.3z"/>
		<path fill="#FFFFFF" stroke="#FFFFFF" stroke-miterlimit="10" d="M179.6,109.6V61.3h15.5v47.8c0,12.9,0,18.5,6.9,18.5
			c6.9,0,6.9-5.6,6.9-18.5V61.3h15.5v48.3c0,15.8-2.9,30.1-22.4,30.1C182.5,139.6,179.6,125.4,179.6,109.6z"/>
		<path fill="#FFFFFF" stroke="#FFFFFF" stroke-miterlimit="10" d="M242,138.2V61.3h32.1V72h-16.5v20.9h11.7v10.9h-11.7v23.7h16.5
			v10.7H242z"/>
		<path fill="#FFFFFF" stroke="#FFFFFF" stroke-miterlimit="10" d="M286.6,116.2l15.8-3c0,6.7,0.6,14.7,5.9,14.7
			c3.7,0,4.6-2.6,4.6-5.9c0-6.4-4.6-12.1-9.1-16.1l-4.8-4.1c-6.1-5.1-12.3-10.8-12.3-21.8c0-12.6,8.8-20.2,21.7-20.2
			c10.9,0,19.6,8.9,19.6,19.8c0,0.3,0,0.6,0,1.8l-16.1,2.2c0-1,0.1-1.9,0.1-3.1c0-3.6-0.8-8.8-4.9-8.8c-3.7,0-5.1,3.5-5.1,6.7
			c0,5.5,2.9,8.9,6.6,12c2,1.7,3.9,3.2,5.7,4.9c7.9,7,13.8,14.3,13.8,26.1c0,11-9.1,18.4-19.8,18.4
			C293.5,139.7,287.2,128.2,286.6,116.2z"/>
		<path fill="#FFFFFF" stroke="#FFFFFF" stroke-miterlimit="10" d="M349.1,138.2V72.9h-11.3V61.3h37.9v11.6h-11.1v65.3H349.1z"/>
		<path fill="#FFFFFF" stroke="#FFFFFF" stroke-miterlimit="10" d="M382.3,138.2l16.6-76.9h13.8l16.6,76.9h-15.3l-3.2-16.4h-10
			l-3,16.4H382.3z M401.7,112.1h7.9l-3.9-28.5L401.7,112.1z"/>
	</g>
</g>
<g>
	<g>
		<path fill="#59704B" d="M231.6,340c3,10,4.2,8.5,7,15.4c2.8,6.8,8,12.4,13.1,17.7c12.3,12.7,25.3,25.7,42,31.5
			c23.7,8.2,49.8,0.5,72.7-9.6s45.6-22.7,70.6-24.6c-7.6-16.5-21.8-29.4-37.7-38.3c-15.9-8.9-33.6-14.1-51.3-18.5
			c-28.1-6.9-57.5-11.9-85.7-5.7c-8.1,1.8-16.4,4.7-22.2,10.7C234.4,324.6,229.4,323.1,231.6,340"/>
	</g>
</g>
<g>
	<g>
		<path fill="#59704B" d="M199,302c-1.1,6.8-7.1,13.1-13.5,16.3c-6.4,3.2-13.3,4.1-20,4.8c-15.9,1.8-32.5,3.3-46-2.4
			c-19.2-8.1-28.4-29.1-34.1-49.9s-9.5-43.2-22.3-59.3c16.1-7.3,33.2-8.1,48.5-5s28.9,9.8,42,17.2c20.7,11.7,40.8,25.6,52.3,46.7
			c3.3,6.1,5.9,13.1,4.9,20.8c-1.1,7.7-6.8,16.2-14.4,18.3"/>
	</g>
</g>
<g>
	<g>
		<path fill="#59704B" d="M145.4,437c4.1-7.2,7.8-14.6,12.3-21.6c4.7-7.3,10.4-13.8,15.1-21.1c9.5-14.7,16.1-31,26.2-45.5
			c9.7-14,21.3-26.6,33.9-37.9c6.5-5.8,13.3-11.1,20.4-16.1c3.5-2.5,7.2-4.8,10.9-7c2.8-1.7,6.3-4.6,9.5-5.5
			c-1.3-0.2-2.6-0.3-3.9-0.5c0.1,0.1,0.2,0.1,0.4,0.2c4.8,2.9,10.4-4.1,6.1-7.9c-0.2-0.2-0.5-0.4-0.7-0.6c-4.1-3.5-11.2,1.1-7.9,6.1
			c0.1,0.1,0.2,0.3,0.3,0.4c1-2.4,2-4.9,3-7.3c-3,0.6-5.6,0.8-8,3.1c-3.4,3.2-6.2,6.9-10.2,9.4c-7.2,4.6-14.1,9.8-20.6,15.3
			c-13.8,11.5-25.8,25.1-36.8,39.3c-22.5,28.8-40.4,60.8-57.5,93c-3,5.7,5.6,10.7,8.6,5c16.1-30.2,32.9-60.1,53.4-87.6
			c10.6-14.1,22.4-27.4,35.5-39.2c6.1-5.5,12.7-10.5,19.5-15.1c3.3-2.2,6.5-4.3,9.4-7c1.6-1.5,3-3.2,4.5-4.7
			c1.4-1.4,3.1-1.4,4.9-1.7c3.1-0.6,4.7-4.8,3-7.3c-0.1-0.1-0.2-0.3-0.3-0.4c-2.6,2-5.2,4-7.9,6.1c0.2,0.2,0.5,0.4,0.7,0.6
			c2-2.6,4-5.2,6.1-7.9c-5.2-3.1-13.6,4.2-17.7,6.7c-8.3,5.1-16.1,10.8-23.7,16.8c-14.3,11.5-26.9,24.8-38.1,39.4
			c-11.6,15.1-19.5,31.8-28.8,48.3c-4.6,8-10.4,15.1-15.8,22.6c-5.6,7.8-9.8,16.4-14.4,24.7C133.6,437.6,142.3,442.6,145.4,437
			L145.4,437z"/>
	</g>
</g>
<g>
	<g>
		<path fill="#59704B" d="M211.6,334.5c3.5-1,7.1-2,10.6-3.1c3.4-1,8-3.2,10.7,0.2c1.6-2.8,3.2-5.6,4.9-8.4
			c-14.6-5.9-31.3-0.2-40.3,12.4c-3.8,5.3,4.9,10.2,8.6,5c6.6-9.2,18.8-11.9,29-7.8c5.2,2.1,7.5-5,4.9-8.4c-7.4-9.5-22-2.3-31,0.3
			C202.7,326.7,205.4,336.3,211.6,334.5L211.6,334.5z"/>
	</g>
</g>
<g>
	<g>
		<path fill="#59704B" d="M207.8,335.4c7.6-5.1,4.9-13.3,0.6-19.7c-2.4-3.5-3.5-7.5-6.3-10.8c-2.8-3.3-7.1-4-11-3.3
			c-4.8,0.8-4.7,8.8,0,9.6c3.5,0.6,5.6,3,7.6,5.8c1.4,1.9,6.7,8.2,3.5,10.4c-5.2,3.7-0.3,12.3,5,8.6c6.7-4.7,6.7-12.2,3.3-19.1
			c-3.3-6.6-9.3-14-16.9-15.4c0,3.2,0,6.4,0,9.6c1.8-0.3,9.4,15.3,9,15.5C197.5,330.4,202.5,339.1,207.8,335.4L207.8,335.4z"/>
	</g>
</g>
</svg>
