<?xml version="1.0" encoding="utf-8"?>
<!-- Generator: Adobe Illustrator 18.0.0, SVG Export Plug-In . SVG Version: 6.00 Build 0)  -->
<!DOCTYPE svg PUBLIC "-//W3C//DTD SVG 1.1//EN" "http://www.w3.org/Graphics/SVG/1.1/DTD/svg11.dtd" [
	<!ENTITY ns_flows "http://ns.adobe.com/Flows/1.0/">
	<!ENTITY ns_extend "http://ns.adobe.com/Extensibility/1.0/">
	<!ENTITY ns_ai "http://ns.adobe.com/AdobeIllustrator/10.0/">
	<!ENTITY ns_graphs "http://ns.adobe.com/Graphs/1.0/">
]>
<svg version="1.1" id="Capa_1" xmlns:x="&ns_extend;" xmlns:i="&ns_ai;" xmlns:graph="&ns_graphs;"
	 xmlns="http://www.w3.org/2000/svg" xmlns:xlink="http://www.w3.org/1999/xlink" xmlns:a="http://ns.adobe.com/AdobeSVGViewerExtensions/3.0/"
	 x="0px" y="0px" viewBox="0 0 749 1334" enable-background="new 0 0 749 1334" xml:space="preserve">
<g>
	<path fill="#FFFFFF" d="M323.2,1094.6h26.5c15.3,0,22.9,8.4,22.9,25.1v69.2c0,16.7-8,25-24,25.1h-25.4V1094.6z M340.4,1111.6v85.5
		h7.5c5,0,7.5-2.7,7.5-8.1v-69.2c0-5.4-2.5-8.2-7.5-8.2H340.4z"/>
	<path fill="#FFFFFF" d="M387.3,1094.6H432v17h-27.5v34.2h23.6v17h-23.6v34.2H432v17h-44.7V1094.6z"/>
	<path fill="#FFFFFF" d="M444.7,1214v-119.4H462v102.4h27.5v17H444.7z"/>
	<path fill="#FFFFFF" d="M499.8,1094.6h44.7v17H517v34.2h23.6v17H517v51.2h-17.2V1094.6z"/>
	<path fill="#FFFFFF" d="M556.3,1094.6h17.2V1214h-17.2V1094.6z"/>
	<path fill="#FFFFFF" d="M589.7,1094.6h17.2l16.3,69.3v-69.3h15.9V1214h-17.2l-15.7-67.1v67.1h-16.6V1094.6z"/>
	<path fill="#FFFFFF" d="M703.2,1190.9c0,16.7-8.3,25.1-24.8,25.1c-16.5,0-24.7-8.4-24.7-25.1v-73c0-16.7,8.2-25.1,24.7-25.1
		c16.5,0,24.8,8.4,24.8,25.1V1190.9z M686,1117.8c0-5.4-2.5-8.1-7.5-8.1h-0.1c-5,0-7.4,2.7-7.4,8.1v73c0,5.4,2.5,8.1,7.5,8.1
		c5,0,7.5-2.7,7.5-8.1V1117.8z"/>
</g>
<g>
	<path fill="#FFFFFF" d="M170.9,1250.9c0,0.8-0.1,1.7-0.3,2.6s-0.5,1.8-0.9,2.7s-1,1.7-1.6,2.5s-1.4,1.5-2.4,2.1s-2,1.1-3.2,1.4
		s-2.6,0.5-4.2,0.5h-4.2l-2.2,10.9c0,0.1-0.1,0.2-0.2,0.3s-0.2,0.2-0.4,0.2s-0.4,0.1-0.7,0.1s-0.6,0.1-1,0.1c-0.4,0-0.7,0-0.9,0
		s-0.4-0.1-0.6-0.1s-0.2-0.1-0.3-0.2s-0.1-0.2,0-0.3l5.6-28c0.1-0.6,0.4-1.1,0.8-1.3s0.8-0.4,1.4-0.4h6c0.8,0,1.5,0,2.1,0.1
		s1.2,0.1,1.7,0.3c0.8,0.2,1.6,0.5,2.3,0.9s1.3,0.9,1.7,1.4s0.8,1.2,1.1,2S170.9,1250,170.9,1250.9z M166.7,1251.4
		c0-1-0.2-1.8-0.7-2.5s-1.2-1.2-2.2-1.5c-0.4-0.1-0.8-0.2-1.2-0.2s-0.9,0-1.5,0h-3.8l-2.4,12.2h3.8c1.1,0,2-0.1,2.8-0.4s1.4-0.6,2-1
		s1.1-0.9,1.5-1.4s0.7-1.1,1-1.7s0.4-1.2,0.6-1.8S166.7,1251.9,166.7,1251.4z"/>
	<path fill="#FFFFFF" d="M191.2,1271.5c0,0.1,0,0.2,0,0.4s-0.1,0.4-0.1,0.6s-0.1,0.4-0.1,0.6s-0.1,0.4-0.2,0.6s-0.2,0.3-0.3,0.4
		s-0.3,0.2-0.4,0.2h-13.4c-0.2,0-0.4,0-0.5-0.1s-0.3-0.1-0.4-0.3s-0.2-0.3-0.3-0.5s0-0.5,0-0.8l5.6-28.1c0-0.1,0.1-0.2,0.2-0.3
		s0.2-0.2,0.4-0.2s0.4-0.1,0.7-0.1s0.6-0.1,1-0.1s0.7,0,0.9,0.1s0.5,0.1,0.6,0.1s0.2,0.1,0.3,0.2s0.1,0.2,0,0.3l-5.2,26.2h10.9
		c0.2,0,0.3,0.1,0.4,0.2S191.2,1271.2,191.2,1271.5z"/>
	<path fill="#FFFFFF" d="M220.1,1244.6c0,0.1,0,0.2,0,0.4s0,0.3-0.1,0.5s-0.1,0.4-0.1,0.6s-0.1,0.4-0.2,0.6s-0.2,0.3-0.3,0.4
		s-0.3,0.2-0.4,0.2H207l-1.9,9.5h10.2c0.2,0,0.3,0.1,0.4,0.2s0.1,0.3,0.1,0.6c0,0.1,0,0.2,0,0.4s-0.1,0.3-0.1,0.5s-0.1,0.4-0.1,0.6
		s-0.1,0.4-0.2,0.5s-0.2,0.3-0.3,0.4s-0.3,0.2-0.4,0.2h-10.2l-2.2,10.9h12.1c0.2,0,0.3,0.1,0.4,0.2s0.2,0.3,0.2,0.6
		c0,0.1,0,0.2,0,0.4s0,0.4-0.1,0.5s-0.1,0.4-0.1,0.6s-0.1,0.4-0.2,0.5s-0.2,0.3-0.3,0.4s-0.3,0.1-0.4,0.1h-14.6
		c-0.2,0-0.3,0-0.5-0.1s-0.3-0.1-0.4-0.3s-0.2-0.3-0.2-0.5s0-0.5,0-0.8l5.4-27c0.1-0.6,0.4-1,0.7-1.3s0.7-0.4,1.1-0.4h14.4
		C219.9,1243.8,220.1,1244.1,220.1,1244.6z"/>
	<path fill="#FFFFFF" d="M227.6,1273.6c0,0.1-0.1,0.2-0.2,0.3s-0.2,0.2-0.4,0.2s-0.4,0.1-0.7,0.1s-0.6,0.1-1,0.1c-0.4,0-0.7,0-1-0.1
		s-0.4-0.1-0.6-0.1s-0.2-0.1-0.3-0.2s-0.1-0.2,0-0.3l5.8-29.2c0-0.1,0.1-0.2,0.2-0.3s0.2-0.2,0.4-0.2s0.4-0.1,0.6-0.1
		s0.6-0.1,0.9-0.1s0.7,0,0.9,0.1s0.4,0.1,0.6,0.1s0.2,0.1,0.3,0.2s0.1,0.2,0,0.3L227.6,1273.6z"/>
	<path fill="#FFFFFF" d="M266.5,1254c0,1.2-0.1,2.5-0.3,4s-0.6,3-1.1,4.5s-1.2,3-2.1,4.5s-1.9,2.7-3.2,3.8s-2.7,2-4.5,2.7
		s-3.7,1-5.9,1c-1.8,0-3.3-0.2-4.7-0.7s-2.5-1.1-3.4-2s-1.6-2-2-3.3s-0.7-2.8-0.7-4.5c0-1.3,0.1-2.8,0.4-4.3s0.6-3.1,1.2-4.6
		s1.2-3,2.1-4.4s1.9-2.7,3.2-3.8s2.7-2,4.4-2.6s3.6-1,5.8-1c1.8,0,3.3,0.2,4.7,0.7s2.5,1.1,3.4,2s1.6,2,2,3.3
		S266.5,1252.3,266.5,1254z M262.2,1254.3c0-1.1-0.1-2.1-0.4-3s-0.6-1.7-1.2-2.4s-1.3-1.2-2.2-1.5s-2-0.6-3.3-0.6
		c-1.6,0-3.1,0.3-4.3,0.9s-2.3,1.4-3.2,2.4s-1.6,2.1-2.2,3.3s-1.1,2.5-1.4,3.7s-0.6,2.5-0.8,3.6s-0.2,2.2-0.2,3c0,1.1,0.1,2.1,0.4,3
		s0.6,1.7,1.2,2.3s1.3,1.1,2.2,1.5s2,0.5,3.3,0.5c1.6,0,3-0.3,4.2-0.9s2.3-1.4,3.2-2.3s1.6-2,2.2-3.2s1.1-2.4,1.4-3.7
		s0.6-2.4,0.8-3.6S262.2,1255.2,262.2,1254.3z"/>
	<path fill="#FFFFFF" d="M304.8,1273.6c0,0.1-0.1,0.2-0.2,0.3s-0.2,0.2-0.4,0.2s-0.4,0.1-0.6,0.1s-0.6,0.1-1,0.1
		c-0.4,0-0.7,0-0.9-0.1s-0.4-0.1-0.6-0.1s-0.2-0.1-0.3-0.2s0-0.2,0-0.3l5.3-26.4h0l-16.1,26.5c-0.1,0.2-0.4,0.4-0.7,0.5
		s-0.8,0.2-1.4,0.2c-0.6,0-1.1-0.1-1.4-0.2s-0.4-0.3-0.4-0.5l-5-26.5h0l-5.3,26.4c0,0.1-0.1,0.2-0.2,0.3s-0.2,0.2-0.4,0.2
		s-0.4,0.1-0.6,0.1s-0.6,0.1-1,0.1c-0.4,0-0.7,0-0.9-0.1s-0.4-0.1-0.6-0.1s-0.2-0.1-0.3-0.2s0-0.2,0-0.3l5.6-27.9
		c0.1-0.3,0.2-0.6,0.3-0.8s0.3-0.4,0.5-0.6s0.4-0.3,0.6-0.3s0.4-0.1,0.6-0.1h2.3c0.5,0,0.9,0.1,1.3,0.2s0.6,0.3,0.8,0.5
		s0.4,0.5,0.5,0.8s0.2,0.7,0.3,1.1l4.4,21.9h0.1l13.5-21.9c0.2-0.4,0.5-0.8,0.7-1.1s0.5-0.6,0.8-0.8s0.6-0.4,1-0.5s0.7-0.2,1.2-0.2
		h2.7c0.2,0,0.4,0,0.6,0.1s0.3,0.2,0.5,0.3s0.2,0.3,0.3,0.6s0,0.5,0,0.8L304.8,1273.6z"/>
	<path fill="#FFFFFF" d="M337.7,1244.6c0,0.1,0,0.2,0,0.4s0,0.3-0.1,0.5s-0.1,0.4-0.1,0.6s-0.1,0.4-0.2,0.6s-0.2,0.3-0.3,0.4
		s-0.3,0.2-0.4,0.2h-11.8l-1.9,9.5h10.2c0.2,0,0.3,0.1,0.4,0.2s0.1,0.3,0.1,0.6c0,0.1,0,0.2,0,0.4s-0.1,0.3-0.1,0.5
		s-0.1,0.4-0.1,0.6s-0.1,0.4-0.2,0.5s-0.2,0.3-0.3,0.4s-0.3,0.2-0.4,0.2h-10.2l-2.2,10.9h12.1c0.2,0,0.3,0.1,0.4,0.2
		s0.2,0.3,0.2,0.6c0,0.1,0,0.2,0,0.4s0,0.4-0.1,0.5s-0.1,0.4-0.1,0.6s-0.1,0.4-0.2,0.5s-0.2,0.3-0.3,0.4s-0.3,0.1-0.4,0.1h-14.6
		c-0.2,0-0.3,0-0.5-0.1s-0.3-0.1-0.4-0.3s-0.2-0.3-0.2-0.5s0-0.5,0-0.8l5.4-27c0.1-0.6,0.4-1,0.7-1.3s0.7-0.4,1.1-0.4h14.4
		C337.5,1243.8,337.7,1244.1,337.7,1244.6z"/>
	<path fill="#FFFFFF" d="M364.1,1250.2c0,1.1-0.2,2.1-0.5,3.1s-0.8,1.9-1.4,2.7s-1.4,1.5-2.3,2.2s-2,1.1-3.2,1.5
		c0.8,0.3,1.5,0.9,2,1.9s0.9,2.2,1.2,3.8l1.2,6.7c0,0.3,0.1,0.6,0.1,0.8s0.1,0.5,0.1,0.7c0,0.1,0,0.3-0.1,0.4s-0.2,0.2-0.4,0.2
		s-0.4,0.1-0.7,0.1s-0.7,0-1.1,0c-0.4,0-0.7,0-1,0s-0.4-0.1-0.6-0.2s-0.2-0.2-0.3-0.3s-0.1-0.3-0.1-0.5l-1.2-7.1
		c-0.1-0.8-0.3-1.6-0.5-2.2s-0.5-1.3-0.9-1.7s-0.9-0.9-1.6-1.1s-1.4-0.4-2.3-0.4h-2.7l-2.6,12.9c0,0.1-0.1,0.2-0.2,0.3
		s-0.2,0.2-0.4,0.2s-0.4,0.1-0.7,0.1s-0.6,0.1-1,0.1c-0.4,0-0.7,0-0.9,0s-0.5-0.1-0.6-0.1s-0.2-0.1-0.3-0.2s-0.1-0.2,0-0.3l5.6-28.1
		c0.1-0.6,0.4-1,0.8-1.3s0.8-0.4,1.2-0.4h6.6c1.4,0,2.7,0.1,3.8,0.4s2,0.7,2.7,1.2s1.3,1.2,1.7,2S364.1,1249.2,364.1,1250.2z
		 M359.7,1250.8c0-0.5-0.1-1-0.3-1.5s-0.5-0.8-0.9-1.2s-0.9-0.6-1.6-0.8s-1.4-0.3-2.3-0.3h-4.2l-2.1,10.2h3.6c1.4,0,2.6-0.2,3.6-0.6
		s1.8-0.9,2.4-1.5s1.1-1.3,1.4-2.1S359.7,1251.6,359.7,1250.8z"/>
	<path fill="#FFFFFF" d="M373.6,1273.6c0,0.1-0.1,0.2-0.2,0.3s-0.2,0.2-0.4,0.2s-0.4,0.1-0.7,0.1s-0.6,0.1-1,0.1c-0.4,0-0.7,0-1-0.1
		s-0.4-0.1-0.6-0.1s-0.2-0.1-0.3-0.2s-0.1-0.2,0-0.3l5.8-29.2c0-0.1,0.1-0.2,0.2-0.3s0.2-0.2,0.4-0.2s0.4-0.1,0.6-0.1
		s0.6-0.1,0.9-0.1s0.7,0,0.9,0.1s0.4,0.1,0.6,0.1s0.2,0.1,0.3,0.2s0.1,0.2,0,0.3L373.6,1273.6z"/>
	<path fill="#FFFFFF" d="M403.7,1246.1c0,0.1,0,0.3,0,0.4s0,0.3-0.1,0.5s-0.1,0.4-0.1,0.6s-0.1,0.4-0.2,0.5s-0.2,0.3-0.3,0.4
		s-0.2,0.1-0.3,0.1c-0.2,0-0.4-0.1-0.7-0.3s-0.7-0.4-1.2-0.6s-1-0.4-1.7-0.6s-1.4-0.3-2.3-0.3c-1,0-1.8,0.1-2.5,0.4
		s-1.3,0.7-1.8,1.2s-0.8,1.1-1.1,1.7s-0.4,1.3-0.4,1.9c0,0.7,0.2,1.3,0.5,1.8s0.7,1,1.2,1.4s1.1,0.8,1.7,1.2s1.3,0.8,1.9,1.1
		s1.3,0.8,1.9,1.3s1.2,1,1.7,1.5s0.9,1.3,1.2,2s0.5,1.6,0.5,2.6c0,1.3-0.3,2.6-0.8,3.7s-1.3,2.2-2.3,3s-2.2,1.6-3.6,2.1
		s-3,0.8-4.8,0.8c-1,0-1.8-0.1-2.7-0.2s-1.6-0.4-2.2-0.6s-1.2-0.5-1.7-0.8s-0.8-0.5-1-0.7s-0.3-0.5-0.3-0.9c0-0.1,0-0.2,0-0.4
		s0.1-0.4,0.1-0.6s0.1-0.4,0.2-0.6s0.1-0.4,0.2-0.5s0.2-0.3,0.3-0.4s0.2-0.2,0.4-0.2c0.2,0,0.6,0.1,0.9,0.4s0.8,0.5,1.4,0.8
		s1.2,0.6,2,0.8s1.7,0.4,2.7,0.4c1.1,0,2.1-0.2,2.9-0.5s1.6-0.7,2.2-1.2s1-1.1,1.3-1.8s0.5-1.5,0.5-2.2c0-0.7-0.1-1.3-0.4-1.8
		s-0.7-1-1.2-1.4s-1-0.8-1.7-1.2s-1.3-0.7-1.9-1.1s-1.3-0.8-1.9-1.3s-1.2-1-1.7-1.5s-0.9-1.3-1.2-2s-0.5-1.6-0.5-2.7
		c0-1.2,0.2-2.4,0.7-3.5s1.2-2,2.1-2.8s2-1.5,3.2-1.9s2.7-0.7,4.2-0.7c0.8,0,1.5,0.1,2.1,0.2s1.3,0.3,1.8,0.5s1,0.4,1.4,0.6
		s0.7,0.4,0.8,0.5s0.2,0.3,0.3,0.4S403.7,1245.9,403.7,1246.1z"/>
	<path fill="#FFFFFF" d="M446.3,1246.9c0,0.3-0.1,0.7-0.2,1.2s-0.3,0.9-0.4,1.1s-0.4,0.4-0.6,0.4c-0.2,0-0.5-0.1-0.8-0.4
		s-0.7-0.6-1.2-0.9s-1.1-0.6-1.9-0.9s-1.8-0.4-3-0.4c-1.3,0-2.5,0.2-3.6,0.7s-2.1,1.2-2.9,2s-1.6,1.8-2.3,2.9s-1.2,2.2-1.6,3.4
		s-0.8,2.4-1,3.6s-0.3,2.4-0.3,3.5c0,1.2,0.2,2.4,0.5,3.3s0.8,1.8,1.4,2.5s1.3,1.2,2.2,1.5s1.8,0.5,2.9,0.5c1.2,0,2.3-0.1,3.2-0.4
		s1.6-0.6,2.3-0.9s1.2-0.6,1.6-0.9s0.8-0.4,1-0.4c0.2,0,0.3,0.1,0.4,0.2s0.1,0.3,0.1,0.6c0,0.1,0,0.2,0,0.3s-0.1,0.3-0.1,0.5
		s-0.1,0.4-0.1,0.6s-0.1,0.4-0.2,0.6s-0.1,0.3-0.2,0.5s-0.2,0.3-0.4,0.5s-0.5,0.4-1,0.7s-1.2,0.6-1.9,0.9s-1.6,0.5-2.6,0.7
		s-1.9,0.3-3,0.3c-1.6,0-3-0.2-4.3-0.7s-2.4-1.2-3.3-2.1s-1.6-2.1-2.1-3.5s-0.7-3-0.7-4.8c0-1.5,0.2-3,0.5-4.6s0.8-3.1,1.4-4.6
		s1.4-2.9,2.3-4.2s2-2.5,3.2-3.5s2.6-1.8,4.1-2.3s3.2-0.9,5-0.9c1.1,0,2.2,0.1,3.2,0.4s1.8,0.6,2.5,1s1.2,0.7,1.5,1
		S446.3,1246.5,446.3,1246.9z"/>
	<path fill="#FFFFFF" d="M471.8,1272.7c0,0.3,0.1,0.6,0,0.8s-0.1,0.4-0.3,0.5s-0.4,0.2-0.7,0.2s-0.7,0-1.3,0c-0.3,0-0.6,0-0.9,0
		s-0.4-0.1-0.6-0.1s-0.2-0.1-0.3-0.2s-0.1-0.2-0.1-0.4l-1.1-7.4H454l-4,7.3c-0.1,0.2-0.2,0.3-0.3,0.4s-0.2,0.2-0.4,0.2
		s-0.4,0.1-0.7,0.1s-0.6,0-1.1,0c-0.5,0-0.8,0-1.1-0.1s-0.5-0.1-0.6-0.2s-0.1-0.3-0.1-0.5s0.2-0.5,0.3-0.8l15.8-28.2
		c0.1-0.2,0.2-0.3,0.4-0.4s0.3-0.2,0.5-0.3s0.5-0.1,0.8-0.1s0.7,0,1.1,0c0.5,0,0.9,0,1.3,0s0.6,0.1,0.8,0.1s0.3,0.2,0.4,0.3
		s0.1,0.3,0.2,0.4L471.8,1272.7z M463.9,1247.9L463.9,1247.9l-8.2,15.1h10.5L463.9,1247.9z"/>
	<path fill="#FFFFFF" d="M502.2,1272.5c0,0.3-0.1,0.6-0.3,0.8s-0.3,0.4-0.5,0.5s-0.4,0.2-0.6,0.3s-0.4,0.1-0.6,0.1h-1.5
		c-0.4,0-0.8,0-1-0.1s-0.5-0.3-0.7-0.5s-0.4-0.5-0.6-0.9s-0.3-0.8-0.5-1.4l-5.7-16.2c-0.4-1.2-0.8-2.3-1.2-3.5s-0.8-2.3-1.1-3.5h0
		c-0.2,1.3-0.4,2.6-0.7,3.8s-0.5,2.5-0.7,3.8l-3.5,17.7c0,0.1-0.1,0.2-0.2,0.3s-0.2,0.2-0.4,0.2s-0.4,0.1-0.6,0.1s-0.6,0.1-0.9,0.1
		s-0.7,0-0.9-0.1s-0.4-0.1-0.6-0.1s-0.2-0.1-0.2-0.2s0-0.2,0-0.3l5.6-28c0.1-0.6,0.4-1.1,0.8-1.3s0.8-0.4,1.2-0.4h1.9
		c0.4,0,0.7,0,1,0.1s0.5,0.2,0.7,0.4s0.4,0.5,0.5,0.8s0.3,0.7,0.5,1.2l5.7,16.4c0.4,1,0.7,2,1.1,3s0.7,2,1,3.1h0
		c0.2-1.3,0.5-2.6,0.7-4s0.5-2.7,0.8-4l3.3-16.4c0-0.1,0.1-0.2,0.2-0.3s0.2-0.2,0.4-0.2s0.4-0.1,0.6-0.1s0.6,0,0.9,0
		c0.4,0,0.7,0,0.9,0s0.4,0.1,0.6,0.1s0.2,0.1,0.3,0.2s0.1,0.2,0,0.3L502.2,1272.5z"/>
	<path fill="#FFFFFF" d="M535.3,1272.7c0,0.3,0.1,0.6,0,0.8s-0.1,0.4-0.3,0.5s-0.4,0.2-0.7,0.2s-0.7,0-1.3,0c-0.3,0-0.6,0-0.9,0
		s-0.4-0.1-0.6-0.1s-0.2-0.1-0.3-0.2s-0.1-0.2-0.1-0.4l-1.1-7.4h-12.6l-4,7.3c-0.1,0.2-0.2,0.3-0.3,0.4s-0.2,0.2-0.4,0.2
		s-0.4,0.1-0.7,0.1s-0.6,0-1.1,0c-0.5,0-0.8,0-1.1-0.1s-0.5-0.1-0.6-0.2s-0.1-0.3-0.1-0.5s0.2-0.5,0.3-0.8l15.8-28.2
		c0.1-0.2,0.2-0.3,0.4-0.4s0.3-0.2,0.5-0.3s0.5-0.1,0.8-0.1s0.7,0,1.1,0c0.5,0,0.9,0,1.3,0s0.6,0.1,0.8,0.1s0.3,0.2,0.4,0.3
		s0.1,0.3,0.2,0.4L535.3,1272.7z M527.4,1247.9L527.4,1247.9l-8.2,15.1h10.5L527.4,1247.9z"/>
	<path fill="#FFFFFF" d="M565.5,1250.2c0,1.1-0.2,2.1-0.5,3.1s-0.8,1.9-1.4,2.7s-1.4,1.5-2.3,2.2s-2,1.1-3.2,1.5
		c0.8,0.3,1.5,0.9,2,1.9s0.9,2.2,1.2,3.8l1.2,6.7c0,0.3,0.1,0.6,0.1,0.8s0.1,0.5,0.1,0.7c0,0.1,0,0.3-0.1,0.4s-0.2,0.2-0.4,0.2
		s-0.4,0.1-0.7,0.1s-0.7,0-1.1,0c-0.4,0-0.7,0-1,0s-0.4-0.1-0.6-0.2s-0.2-0.2-0.3-0.3s-0.1-0.3-0.1-0.5l-1.2-7.1
		c-0.1-0.8-0.3-1.6-0.5-2.2s-0.5-1.3-0.9-1.7s-0.9-0.9-1.6-1.1s-1.4-0.4-2.3-0.4h-2.7l-2.6,12.9c0,0.1-0.1,0.2-0.2,0.3
		s-0.2,0.2-0.4,0.2s-0.4,0.1-0.7,0.1s-0.6,0.1-1,0.1c-0.4,0-0.7,0-0.9,0s-0.5-0.1-0.6-0.1s-0.2-0.1-0.3-0.2s-0.1-0.2,0-0.3l5.6-28.1
		c0.1-0.6,0.4-1,0.8-1.3s0.8-0.4,1.2-0.4h6.6c1.4,0,2.7,0.1,3.8,0.4s2,0.7,2.7,1.2s1.3,1.2,1.7,2S565.5,1249.2,565.5,1250.2z
		 M561.2,1250.8c0-0.5-0.1-1-0.3-1.5s-0.5-0.8-0.9-1.2s-0.9-0.6-1.6-0.8s-1.4-0.3-2.3-0.3h-4.2l-2.1,10.2h3.6c1.4,0,2.6-0.2,3.6-0.6
		s1.8-0.9,2.4-1.5s1.1-1.3,1.4-2.1S561.2,1251.6,561.2,1250.8z"/>
	<path fill="#FFFFFF" d="M575.1,1273.6c0,0.1-0.1,0.2-0.2,0.3s-0.2,0.2-0.4,0.2s-0.4,0.1-0.7,0.1s-0.6,0.1-1,0.1c-0.4,0-0.7,0-1-0.1
		s-0.4-0.1-0.6-0.1s-0.2-0.1-0.3-0.2s-0.1-0.2,0-0.3l5.8-29.2c0-0.1,0.1-0.2,0.2-0.3s0.2-0.2,0.4-0.2s0.4-0.1,0.6-0.1
		s0.6-0.1,0.9-0.1s0.7,0,0.9,0.1s0.4,0.1,0.6,0.1s0.2,0.1,0.3,0.2s0.1,0.2,0,0.3L575.1,1273.6z"/>
	<path fill="#FFFFFF" d="M607.9,1244.6c0,0.1,0,0.2,0,0.4s0,0.3-0.1,0.5s-0.1,0.4-0.1,0.6s-0.1,0.4-0.2,0.6s-0.2,0.3-0.3,0.4
		s-0.3,0.2-0.4,0.2h-11.8l-1.9,9.5h10.2c0.2,0,0.3,0.1,0.4,0.2s0.1,0.3,0.1,0.6c0,0.1,0,0.2,0,0.4s-0.1,0.3-0.1,0.5
		s-0.1,0.4-0.1,0.6s-0.1,0.4-0.2,0.5s-0.2,0.3-0.3,0.4s-0.3,0.2-0.4,0.2h-10.2l-2.2,10.9h12.1c0.2,0,0.3,0.1,0.4,0.2
		s0.2,0.3,0.2,0.6c0,0.1,0,0.2,0,0.4s0,0.4-0.1,0.5s-0.1,0.4-0.1,0.6s-0.1,0.4-0.2,0.5s-0.2,0.3-0.3,0.4s-0.3,0.1-0.4,0.1h-14.6
		c-0.2,0-0.3,0-0.5-0.1s-0.3-0.1-0.4-0.3s-0.2-0.3-0.2-0.5s0-0.5,0-0.8l5.4-27c0.1-0.6,0.4-1,0.7-1.3s0.7-0.4,1.1-0.4h14.4
		C607.8,1243.8,607.9,1244.1,607.9,1244.6z"/>
	<path fill="#FFFFFF" d="M634.5,1272.5c0,0.3-0.1,0.6-0.3,0.8s-0.3,0.4-0.5,0.5s-0.4,0.2-0.6,0.3s-0.4,0.1-0.6,0.1H631
		c-0.4,0-0.8,0-1-0.1s-0.5-0.3-0.7-0.5s-0.4-0.5-0.6-0.9s-0.3-0.8-0.5-1.4l-5.7-16.2c-0.4-1.2-0.8-2.3-1.2-3.5s-0.8-2.3-1.1-3.5h0
		c-0.2,1.3-0.4,2.6-0.7,3.8s-0.5,2.5-0.7,3.8l-3.5,17.7c0,0.1-0.1,0.2-0.2,0.3s-0.2,0.2-0.4,0.2s-0.4,0.1-0.6,0.1s-0.6,0.1-0.9,0.1
		s-0.7,0-0.9-0.1s-0.4-0.1-0.6-0.1s-0.2-0.1-0.2-0.2s0-0.2,0-0.3l5.6-28c0.1-0.6,0.4-1.1,0.8-1.3s0.8-0.4,1.2-0.4h1.9
		c0.4,0,0.7,0,1,0.1s0.5,0.2,0.7,0.4s0.4,0.5,0.5,0.8s0.3,0.7,0.5,1.2l5.7,16.4c0.4,1,0.7,2,1.1,3s0.7,2,1,3.1h0
		c0.2-1.3,0.5-2.6,0.7-4s0.5-2.7,0.8-4l3.3-16.4c0-0.1,0.1-0.2,0.2-0.3s0.2-0.2,0.4-0.2s0.4-0.1,0.6-0.1s0.6,0,0.9,0
		c0.4,0,0.7,0,0.9,0s0.4,0.1,0.6,0.1s0.2,0.1,0.3,0.2s0.1,0.2,0,0.3L634.5,1272.5z"/>
	<path fill="#FFFFFF" d="M664.4,1246.1c0,0.1,0,0.3,0,0.4s0,0.3-0.1,0.5s-0.1,0.4-0.1,0.6s-0.1,0.4-0.2,0.5s-0.2,0.3-0.3,0.4
		s-0.2,0.1-0.3,0.1c-0.2,0-0.4-0.1-0.7-0.3s-0.7-0.4-1.2-0.6s-1-0.4-1.7-0.6s-1.4-0.3-2.3-0.3c-1,0-1.8,0.1-2.5,0.4
		s-1.3,0.7-1.8,1.2s-0.8,1.1-1.1,1.7s-0.4,1.3-0.4,1.9c0,0.7,0.2,1.3,0.5,1.8s0.7,1,1.2,1.4s1.1,0.8,1.7,1.2s1.3,0.8,1.9,1.1
		s1.3,0.8,1.9,1.3s1.2,1,1.7,1.5s0.9,1.3,1.2,2s0.5,1.6,0.5,2.6c0,1.3-0.3,2.6-0.8,3.7s-1.3,2.2-2.3,3s-2.2,1.6-3.6,2.1
		s-3,0.8-4.8,0.8c-1,0-1.8-0.1-2.7-0.2s-1.6-0.4-2.2-0.6s-1.2-0.5-1.7-0.8s-0.8-0.5-1-0.7s-0.3-0.5-0.3-0.9c0-0.1,0-0.2,0-0.4
		s0.1-0.4,0.1-0.6s0.1-0.4,0.2-0.6s0.1-0.4,0.2-0.5s0.2-0.3,0.3-0.4s0.2-0.2,0.4-0.2c0.2,0,0.6,0.1,0.9,0.4s0.8,0.5,1.4,0.8
		s1.2,0.6,2,0.8s1.7,0.4,2.7,0.4c1.1,0,2.1-0.2,2.9-0.5s1.6-0.7,2.2-1.2s1-1.1,1.3-1.8s0.5-1.5,0.5-2.2c0-0.7-0.1-1.3-0.4-1.8
		s-0.7-1-1.2-1.4s-1-0.8-1.7-1.2s-1.3-0.7-1.9-1.1s-1.3-0.8-1.9-1.3s-1.2-1-1.7-1.5s-0.9-1.3-1.2-2s-0.5-1.6-0.5-2.7
		c0-1.2,0.2-2.4,0.7-3.5s1.2-2,2.1-2.8s2-1.5,3.2-1.9s2.7-0.7,4.2-0.7c0.8,0,1.5,0.1,2.1,0.2s1.3,0.3,1.8,0.5s1,0.4,1.4,0.6
		s0.7,0.4,0.8,0.5s0.2,0.3,0.3,0.4S664.4,1245.9,664.4,1246.1z"/>
	<path fill="#FFFFFF" d="M672.9,1273.6c0,0.1-0.1,0.2-0.2,0.3s-0.2,0.2-0.4,0.2s-0.4,0.1-0.7,0.1s-0.6,0.1-1,0.1c-0.4,0-0.7,0-1-0.1
		s-0.4-0.1-0.6-0.1s-0.2-0.1-0.3-0.2s-0.1-0.2,0-0.3l5.8-29.2c0-0.1,0.1-0.2,0.2-0.3s0.2-0.2,0.4-0.2s0.4-0.1,0.6-0.1
		s0.6-0.1,0.9-0.1s0.7,0,0.9,0.1s0.4,0.1,0.6,0.1s0.2,0.1,0.3,0.2s0.1,0.2,0,0.3L672.9,1273.6z"/>
	<path fill="#FFFFFF" d="M703,1246.1c0,0.1,0,0.3,0,0.4s0,0.3-0.1,0.5s-0.1,0.4-0.1,0.6s-0.1,0.4-0.2,0.5s-0.2,0.3-0.3,0.4
		s-0.2,0.1-0.3,0.1c-0.2,0-0.4-0.1-0.7-0.3s-0.7-0.4-1.2-0.6s-1-0.4-1.7-0.6s-1.4-0.3-2.3-0.3c-1,0-1.8,0.1-2.5,0.4
		s-1.3,0.7-1.8,1.2s-0.8,1.1-1.1,1.7s-0.4,1.3-0.4,1.9c0,0.7,0.2,1.3,0.5,1.8s0.7,1,1.2,1.4s1.1,0.8,1.7,1.2s1.3,0.8,1.9,1.1
		s1.3,0.8,1.9,1.3s1.2,1,1.7,1.5s0.9,1.3,1.2,2s0.5,1.6,0.5,2.6c0,1.3-0.3,2.6-0.8,3.7s-1.3,2.2-2.3,3s-2.2,1.6-3.6,2.1
		s-3,0.8-4.8,0.8c-1,0-1.8-0.1-2.7-0.2s-1.6-0.4-2.2-0.6s-1.2-0.5-1.7-0.8s-0.8-0.5-1-0.7s-0.3-0.5-0.3-0.9c0-0.1,0-0.2,0-0.4
		s0.1-0.4,0.1-0.6s0.1-0.4,0.2-0.6s0.1-0.4,0.2-0.5s0.2-0.3,0.3-0.4s0.2-0.2,0.4-0.2c0.2,0,0.6,0.1,0.9,0.4s0.8,0.5,1.4,0.8
		s1.2,0.6,2,0.8s1.7,0.4,2.7,0.4c1.1,0,2.1-0.2,2.9-0.5s1.6-0.7,2.2-1.2s1-1.1,1.3-1.8s0.5-1.5,0.5-2.2c0-0.7-0.1-1.3-0.4-1.8
		s-0.7-1-1.2-1.4s-1-0.8-1.7-1.2s-1.3-0.7-1.9-1.1s-1.3-0.8-1.9-1.3s-1.2-1-1.7-1.5s-0.9-1.3-1.2-2s-0.5-1.6-0.5-2.7
		c0-1.2,0.2-2.4,0.7-3.5s1.2-2,2.1-2.8s2-1.5,3.2-1.9s2.7-0.7,4.2-0.7c0.8,0,1.5,0.1,2.1,0.2s1.3,0.3,1.8,0.5s1,0.4,1.4,0.6
		s0.7,0.4,0.8,0.5s0.2,0.3,0.3,0.4S703,1245.9,703,1246.1z"/>
</g>
<g>
	<g>
		<g>
			<g>
				<g>
					<path fill="#80834B" d="M332.3,596.8c3.2-26.4,16.2-51.2,35-70.1s43.1-31.7,68.9-38.4c26.2-6.8,55-7.8,77.3-23.3
						c8.8-6.1,16-14.2,23.1-22.1c7.6-8.5,15.2-17.1,22.9-25.6c-4.7,40.9-10.5,84.4-37,116c-10.3,12.3-23.1,22-35.9,31.7
						c-9.6,7.2-19.2,14.4-30,19.5c-17.1,8.1-36.4,10.4-55.2,12.1c-15.2,1.3-30.5,2.2-45.8,2.7c-8.4,0.3-17,0.4-24.8-2.6"/>
				</g>
				<g>
					<g>
						<path fill="#80834B" d="M333,596.8c5.2-40.7,32.3-75,68-94.1c17.7-9.5,36.6-14.5,56.3-18.3c18-3.4,36.6-6.6,52.5-16.2
							c9.6-5.8,17.4-13.9,24.9-22.2c8.4-9.4,16.8-18.8,25.2-28.3c-0.4-0.1-0.7-0.3-1.1-0.4c-4.6,39.5-9.9,82.3-35.8,114.3
							c-13.8,17-32.6,30.6-50.6,42.9c-19.5,13.3-40.9,18.5-64.1,20.8c-12.5,1.2-25.1,2.1-37.6,2.7c-13.1,0.7-27.3,2.5-39.9-1.9
							c-0.8-0.3-1.1,0.9-0.3,1.2c11,3.9,23,2.8,34.5,2.2c12.1-0.5,24.2-1.3,36.2-2.4c22.3-1.9,44.7-5.1,64.2-16.8
							c10-5.9,19.2-13.2,28.4-20.3c8.7-6.7,17.3-13.7,24.8-21.7c13.9-14.8,23-33.2,28.9-52.5c6.8-22.3,9.7-45.5,12.4-68.6
							c0.1-0.5-0.7-0.8-1.1-0.4c-7.6,8.5-15.2,17.1-22.9,25.6c-7.6,8.5-15.3,17.1-25,23.4c-16.9,11-37.3,14.1-56.7,17.8
							c-38.1,7.4-74.1,23.4-98.4,54.9c-13,16.9-21.6,36.9-24.3,58.1C331.6,597.6,332.9,597.6,333,596.8L333,596.8z"/>
					</g>
				</g>
			</g>
			<g>
				<g>
					<path fill="#91A259" d="M365.6,567.5c19.6-14,42.3-22.8,63.3-34.6c21.3-12,40.1-27.6,58-44.2c7.7-7.2,15.2-14.5,22.6-21.9
						c-21.4,12.4-47.9,13.7-72.1,20c-25.7,6.7-50.1,19.6-68.9,38.4c-18.8,18.8-31.8,43.7-35,70.1l-1.6-0.1c1.4,0.6,2.9,1,4.4,1.4
						C344.6,585.7,354,575.8,365.6,567.5z"/>
				</g>
				<g>
					<g>
						<path fill="#91A259" d="M365.9,568c23.9-16.8,51.8-26.5,76.2-42.5c25-16.4,46.6-37.3,67.8-58.2c0.5-0.5-0.1-1.3-0.8-1
							c-14.7,8.3-31.2,11.6-47.5,14.8c-15.9,3-31.5,6.3-46.5,12.6c-27.9,11.6-52.3,31.4-67.4,57.7c-4.1,7.1-7.5,14.6-10,22.4
							c-1.4,4.1-2.5,8.3-3.3,12.5c-0.4,2.1-0.7,4.3-1.1,6.4c-0.3,1.3,0.3,2-1.3,1.9c-0.7,0-0.8,1-0.2,1.2c1.5,0.5,2.9,1,4.4,1.4
							c0.3,0.1,0.5-0.1,0.7-0.3C345.2,586,354.7,576.1,365.9,568c0.6-0.5,0-1.6-0.6-1.1c-6.2,4.5-11.9,9.4-17.2,14.9
							c-2.8,2.9-5.4,5.9-8,8.9c-2.7,3.3-3.5,5.5-8,3.8c-0.1,0.4-0.1,0.8-0.2,1.2c0.5,0,1.1,0.1,1.6,0.1c0.4,0,0.6-0.3,0.6-0.6
							c3.9-30.6,20.4-58.4,44-78c12.1-10,25.8-17.9,40.4-23.7c14-5.5,28.7-8.5,43.4-11.3c16.5-3.1,33.1-6.6,47.8-14.9
							c-0.3-0.3-0.5-0.7-0.8-1c-21.5,21.3-43.5,42.5-69,59c-24,15.5-51.3,25-74.7,41.5C364.6,567.4,365.2,568.5,365.9,568z"/>
					</g>
				</g>
			</g>
		</g>
		<g>
			<g>
				<path fill="#91A259" d="M226.3,602.1c35.6-27.8,55.3-70.9,71.9-112.9c5.5-13.9,10.8-28.4,10.1-43.3c-0.9-17.3-9.9-33-17.7-48.5
					s-14.8-32.7-11.4-49.7c-18.4,20.3-32.5,44.6-41.1,70.7c-4.4,13.5-7.3,27.4-11.7,40.9c-3.5,10.7-7.9,21.2-11.1,32
					c-10.8,35.9-8.4,75.7,6.5,110.1"/>
			</g>
			<g>
				<g>
					<path fill="#91A259" d="M226.8,602.6c27.7-21.9,45.9-52.7,60.1-84.6c7.5-16.7,15.4-34,19.8-51.7c4.5-18.4,1-35.1-7-52
						c-9.8-20.9-24.4-42.2-20-66.4c0.1-0.6-0.6-1.1-1-0.6c-11.3,12.6-21.1,26.5-28.9,41.6c-8.2,15.9-13.6,32.6-18.2,49.8
						c-2.6,9.6-5.2,19.1-8.6,28.5c-3.2,9.1-6.8,18.1-9.3,27.4c-4.5,16.4-6.4,33.6-5.5,50.6c0.9,19.5,5.4,38.6,13.1,56.5
						c0.3,0.7,1.4,0.1,1.1-0.6c-13.8-32.3-16.9-68.8-8.3-102.8c4.4-17.6,12-34.2,16.8-51.8c4.8-17.4,9.3-34.5,17-50.8
						c8.2-17.3,19-33.2,31.8-47.5c-0.3-0.2-0.7-0.4-1-0.6c-7.1,39.1,32.6,67.9,28.9,106.7c-1.8,19.5-11.1,38.6-18.7,56.4
						c-6.8,15.9-14.4,31.5-23.6,46.2c-10.6,16.9-23.5,32.4-39.2,44.8C225.3,602.2,226.2,603,226.8,602.6L226.8,602.6z"/>
				</g>
			</g>
		</g>
		<g>
			<g>
				<path fill="#80834B" d="M309.1,445.2c-0.9-17.3-9.9-33-17.7-48.5c-7.1-14-13.5-29.4-12.1-44.8c-9.4,14.3-14.5,31.3-18,47.9
					c-4.1,19.2-6.1,38.7-8.2,58.2c-0.9,8.5-1.7,17-3.4,25.4c-2.3,11.5-6.2,22.6-9.8,33.8c-4,12.3-7.6,24.7-9,37.6
					c-0.9,9-1.5,18.1-3,27.1c-1.1,6.6-2.9,12.8-5.3,18.7c0,0.1,0,0.1,0.1,0.2l4.5,0.7c35.6-27.8,55.3-70.9,71.9-112.9
					C304.5,474.6,309.8,460.1,309.1,445.2z"/>
			</g>
			<g>
				<g>
					<path fill="#80834B" d="M309.7,445.2c-2.3-33.5-32.2-58.9-29.8-93.2c0-0.7-0.9-0.8-1.2-0.3c-16.6,25.9-20.8,58-24.3,87.9
						c-1.9,16.7-2.8,33.7-6.8,50c-3.9,15.9-10.2,31-14.1,46.9c-4,16.1-3.6,32.6-7,48.8c-0.8,3.7-1.8,7.4-3.1,11.1
						c-0.4,1-2.1,3.6-1.4,4.7c0.6,0.9,4.5,1.2,5.5,0.9c2.2-0.7,5.1-4.2,6.9-5.7c2.8-2.5,5.5-5.1,8.1-7.7c4.7-4.8,9-9.9,13.1-15.1
						c8.5-11.1,15.8-23.1,22.3-35.5c7-13.5,13.1-27.5,18.8-41.7C303.2,479.9,310.3,463.1,309.7,445.2c0-0.8-1.3-0.8-1.2,0
						c0.6,16.2-5.3,31.3-11.2,46.1c-5,12.5-10.2,25-16.1,37.2c-11.4,23.5-25.4,46.2-44.7,64.1c-2.2,2.1-9.2,10.7-12.8,7.6
						c-1.2-1.1,0.2,2.1,0.1-1.2c0-1.3,1.3-3.7,1.7-4.9c1.3-4,2.2-8,2.9-12.1c2.6-15,2.6-30.3,6.3-45.2c3.5-14.4,9-28.2,12.9-42.4
						c3.8-13.8,5.1-28,6.6-42.2c3.7-33.6,6.8-70.7,25.5-99.9c-0.4-0.1-0.8-0.2-1.2-0.3c-2.4,34.4,27.6,59.8,29.8,93.2
						C308.5,446,309.7,446,309.7,445.2z"/>
				</g>
			</g>
		</g>
		<g>
			<g>
				<g>
					<path fill="#91A259" d="M363.5,427.4c-13.4-16.7-24.3-35.3-32.2-55.2c-3.8-9.5-7-19.6-6.5-29.9c0.2-4.2,1-8.5,0-12.6
						c-1.1-4.8-4.6-8.7-6.5-13.2c-2.6-6.2-2.2-13.3-1.8-20c1.1-17,2.9-35.5,14.5-48c3.3-3.5,7.2-6.3,10.2-9.9
						c5.7-6.8,8.1-16.3,6.2-25c9.3,0.5,17.4,6.5,24.1,13.1c19,18.5,31.8,42.9,37.8,68.8c3.5,15.1,4.7,31.3-0.8,45.8
						c-4.2,11-11.8,20.3-18.7,29.9c-12,16.8-21.9,35.1-29.4,54.4"/>
				</g>
				<g>
					<g>
						<path fill="#91A259" d="M363.9,426.9c-10.3-13-19.2-27-26.4-42c-3.8-8-7.4-16.3-9.8-24.9c-1.2-4.3-2-8.7-2.3-13.2
							c-0.2-4.2,0.5-8.4,0.5-12.6c-0.1-7.7-5.3-12.5-7.6-19.4c-2.6-7.5-1.4-16-0.8-23.7c1.2-15.3,3.7-31.9,15.1-43.2
							c4.8-4.7,10-8.6,13.1-14.8c1.3-2.6,2.2-5.4,2.7-8.3c0.2-1.1,0.3-2.2,0.4-3.3c0.1-1-0.8-5.5-0.3-6.2c1.4-2.1,8.2,1.4,9.8,2.2
							c3.7,1.9,7,4.4,10.1,7.1c5.8,5.1,11,11,15.6,17.2c9.3,12.3,16.4,26.1,21.2,40.7c5.2,15.7,8.6,32.9,5.6,49.4
							c-3.3,18.1-16.5,31.6-26.3,46.5c-9.8,14.8-17.9,30.7-24.4,47.2c-0.3,0.8,0.9,1.1,1.2,0.3c6.7-17.3,15.3-33.8,25.7-49.2
							c9.5-13.9,21.3-26.7,24.8-43.7c3.3-16.1,0.2-33.1-4.7-48.6c-4.8-15.3-12-29.8-21.6-42.7c-9.1-12.3-21.6-27.2-37.9-28.6
							c-0.4,0-0.7,0.4-0.6,0.8c1.8,9.2-0.7,18.6-7.1,25.6c-4.5,4.9-9.8,8.7-13.5,14.3c-7.5,11.4-9.1,25.7-10.1,39
							c-0.5,6.9-1.3,14.1,0.5,20.9c0.9,3.3,2.6,6.2,4.3,9.1c2.7,4.7,4,8.8,3.7,14.3c-0.5,8.1-0.3,15.5,1.9,23.4
							c2,7.3,5,14.3,8.1,21.2c7.5,16.6,17.1,32.1,28.4,46.3C363.5,428.5,364.4,427.6,363.9,426.9L363.9,426.9z"/>
					</g>
				</g>
			</g>
			<g>
				<g>
					<path fill="#80834B" d="M411.7,295.5c-6-25.8-18.9-50.2-37.8-68.8c-6.7-6.5-14.8-12.6-24.1-13.1c0.3,1.4,0.5,2.8,0.6,4.3
						c1.6,1.5,3.4,2.9,4.9,4.6c2.9,3.2,5.2,6.9,7.1,10.8c3.7,8,5.6,17.3,6.9,26c5.3,37.7-4.4,75.4-7.5,112.8
						c-0.8,9.5-1,18.9-0.8,28.4c0.1,7.9,0.3,16,2.5,23.6c7.4-18.8,17-36.6,28.8-53c6.9-9.6,14.6-18.9,18.7-29.9
						C416.3,326.8,415.2,310.6,411.7,295.5z"/>
				</g>
				<g>
					<g>
						<path fill="#80834B" d="M412.3,295.3c-4.4-18.5-12.1-36.2-23.2-51.7c-9.2-12.9-22.4-29.1-39.4-30.6c-0.4,0-0.7,0.4-0.6,0.8
							c0.3,1.4,0.1,3.2,0.6,4.4c0.6,1.3,2.8,2.5,3.8,3.5c3,3,5.5,6.7,7.4,10.5c4.1,8,6,16.9,7.3,25.7c2.8,18.9,1.8,38.1-0.3,57
							c-2.1,18.5-5.2,36.8-6.8,55.3c-0.8,9.5-1.1,18.9-1,28.4c0.1,8.6,0.3,17.3,2.6,25.7c0.2,0.6,1,0.5,1.2,0
							c4.8-12.1,10.5-23.8,17.1-35c6.1-10.3,13.3-19.7,20.1-29.5c6.5-9.3,11.7-19.1,13.4-30.5C416.2,318,414.8,306.5,412.3,295.3
							c-0.2-0.8-1.4-0.5-1.2,0.3c2.9,12.6,4.3,25.9,1.3,38.7c-2.7,11.5-9.4,21.1-16.2,30.4c-13.6,18.4-24.9,38-33.3,59.3
							c0.4,0,0.8,0,1.2,0c-3-11.2-2.7-23.3-2.5-34.8c0.2-11.1,1.2-22.2,2.5-33.2c2.7-22.3,6.6-44.5,7.3-66.9
							c0.6-19.2-0.4-41.7-9.9-58.9c-1.9-3.4-4.2-6.6-6.9-9.3c-1.2-1.2-4.1-3.1-3.8-5.3c0.4-2.4,6.2,0.2,7.7,0.8
							c9.1,3.9,16.4,11.6,22.7,19c14.8,17.3,24.7,38.2,29.9,60.2C411.2,296.4,412.5,296.1,412.3,295.3z"/>
					</g>
				</g>
			</g>
		</g>
		<g>
			<g>
				<path fill="#91A259" d="M468.7,327c8.5-6.3,17-12.6,25.5-18.9c3.6-2.7,7.2-5.4,9.7-9c4.6-6.7,4.9-15.6,8.5-22.9
					c6.6-13.5,22.9-19,37.8-21.3c2.7-0.4,5.7-0.8,8.2,0.4c5.4,2.5,5.8,9.9,5,15.8c-2.5,18.7-8.7,36.7-14.9,54.5
					c-6.4,18.4-13,37.1-24.2,53.1c-22.7,32.3-61.7,49.4-100.4,57.5c-1.3-4.6,0.7-9.4,2.7-13.7c5.7-12.1,11.8-23.9,18.4-35.5
					c11.1-19.3,23.9-38.8,25.9-61"/>
			</g>
			<g>
				<g>
					<path fill="#91A259" d="M469.1,327.6c7.4-5.5,14.9-11,22.3-16.5c5.5-4.1,11.5-8,14.7-14.2c3.1-6,3.7-12.8,6.3-19
						c3-7.1,8.8-12.2,15.5-15.6c6.1-3.2,12.9-5,19.7-6.2c5.6-1,12.5-1.8,14.7,4.9c1.3,3.8,0.8,8,0.3,11.9
						c-2.5,17.5-8.3,34.3-14.1,50.9c-5.5,15.9-11,31.9-19.5,46.5c-7.8,13.3-18.2,24.7-30.5,34c-11.9,8.9-25.2,15.8-39,21.1
						c-6.5,2.5-13.2,4.7-20,6.5c-3.5,1-7,1.8-10.5,2.7c-0.7,0.2-1.6,0.5-2.3,0.5c-1.9,0-0.8,0.9-2.1-0.9c-1.8-2.6,1-7.8,2.1-10.4
						c7.7-17.5,17.6-33.9,27-50.5c8.4-14.7,16-30.1,17.8-47.1c0.1-0.8-1.2-0.8-1.2,0c-2.2,21-13.3,39.1-23.7,57
						c-5.3,9.2-10.4,18.5-15.2,28.1c-3.8,7.5-9.9,16.5-8.2,25.3c0.1,0.3,0.5,0.5,0.8,0.4c23.7-5,47.2-13,67.6-26.3
						c20.8-13.5,36-32,46-54.6c5.6-12.7,10-25.9,14.5-39c4.9-14.3,9.4-28.8,11.6-43.7c1.1-7.3,1.2-18.4-8.6-19.2
						c-4.9-0.4-10.4,1.2-15,2.4c-5.1,1.3-10.2,3.2-14.8,5.8c-4.8,2.8-9.2,6.5-12.2,11.3c-3.3,5.3-4.3,11.4-6.1,17.2
						c-2.9,9.1-9,13.8-16.4,19.3c-7.4,5.5-14.9,11-22.3,16.5C467.8,327,468.4,328,469.1,327.6L469.1,327.6z"/>
				</g>
			</g>
		</g>
		<g>
			<g>
				<path fill="#80834B" d="M531.4,287.9c-15.9,23.7-23.5,52.1-40.3,75.1c-9.4,12.9-21.8,21.6-36.4,27.7c-4.8,2-9.7,3.8-14.5,5.5
					c-4.8,8.8-9.3,17.7-13.6,26.8c-2,4.3-4,9.1-2.7,13.7c38.7-8,77.7-25.1,100.4-57.5c11.2-16,17.8-34.6,24.2-53.1
					c6.2-17.8,12.5-35.8,14.9-54.5c0.6-4.3,0.5-9.4-1.7-12.8C549.2,265.4,539.4,276.2,531.4,287.9z"/>
			</g>
			<g>
				<g>
					<path fill="#80834B" d="M530.9,287.6c-17.9,27-25.1,62-48.9,84.9c-5.7,5.5-12.1,10-19.1,13.6c-3.9,2-7.9,3.8-12,5.4
						c-3,1.2-8.6,2.1-11.1,4.1c-2,1.6-3.5,6.3-4.6,8.5c-2,3.9-4,7.8-5.9,11.7c-3.2,6.5-7.5,13.5-6,21c0.1,0.3,0.5,0.5,0.8,0.4
						c29.6-6.2,59.2-17.3,82.3-37.4c26.1-22.6,36.7-55.3,47.3-87c3.4-10.1,6.5-20.4,8.6-30.9c1.5-7.5,3.8-16.4,0-23.5
						c-0.2-0.3-0.6-0.4-0.9-0.2C548.7,265.1,539,275.8,530.9,287.6c-0.5,0.7,0.6,1.3,1.1,0.6c4.4-6.5,9.3-12.7,15.1-18.1
						c2.9-2.8,6.1-5.3,9.4-7.5c0.8-0.5,3.2-2.7,4.2-2.6c2.6,0.3,2.5,5.5,2.5,7c0.1,8.2-2.3,16.8-4.3,24.6
						c-2.1,8.2-4.7,16.3-7.5,24.4c-10.2,29.9-20.4,60.3-44.7,81.9c-21.5,19.1-49.1,30.3-76.9,36.7c-0.9,0.2-3.7,1.4-4.5,1
						c-2.7-1.2-0.1-7.6,0.5-9.2c1.6-4,3.6-7.9,5.5-11.7c1.8-3.7,3.6-7.3,5.5-10.9c0.9-1.8,1.8-4.2,3.1-5.8c1.7-2.2,4.5-2.7,6.9-3.7
						c12.8-4.7,25-10.7,35-20c24.7-22.9,32-58.7,50.2-86.2C532.4,287.6,531.3,287,530.9,287.6z"/>
				</g>
			</g>
		</g>
		<g>
			<path fill="#A4BA67" d="M348.5,604.2c-19.2-12.8-31.5-33.3-43.3-53.2c-15.2-25.7-30.5-51.4-45.7-77c-5.3-8.9-10.5-17.8-15.1-27
				c-3.7-7.5-7-15.1-10.5-22.7c-4.8-10.4-10.2-20.6-15.5-30.7c-4.6-8.8-9.2-17.6-13.8-26.3c-3.1-5.9-6.2-11.9-10.3-17.3
				c-3.8-4.9-8.3-9.2-12.7-13.5c-9.8-9.3-19.5-18.6-29.3-28c-1.7,12.8,0,25.9,1.7,38.7c1.5,11.4,2.9,22.9,4.4,34.3
				c4.3,33.7,9.1,68.6,27.4,97.2c-2.3,1.6-5.6,1.4-7.7-0.4c2.5,9.7,8.8,17.8,15,25.6c18.5,23.2,37.9,46.1,62.1,63.1
				c10.7,7.5,22.2,13.8,33.8,20.1c13.5,7.3,26.9,14.7,40.4,22c10,5.5,20.6,11.1,32,11c-6.6-3.1-12-8.5-15-15.1
				c-1.7-3.7-3.6-8.5-7.7-8.7"/>
		</g>
		<g>
			<path fill="#B8BA68" d="M308,584.9c-8.2-8.7-15-18.4-21.7-28.2c-7.6-11.2-15.7-21.9-23.7-32.8c-16.6-22.6-28.8-48-40.6-73.3
				c-6-12.9-11.7-25.9-17.2-39.1c-6.1-14.6-11.6-29.4-19.1-43.3c-6.2-11.6-13.5-22.2-21.1-32.8c-5.4-7.5-10.8-16-10.9-25.4
				c-0.5-0.4-0.9-0.9-1.4-1.3c-1.7,12.8,0,25.9,1.7,38.7c1.5,11.4,2.9,22.9,4.4,34.3c4.3,33.7,9.1,68.6,27.4,97.2
				c-2.3,1.6-5.6,1.4-7.7-0.4c2.5,9.7,8.8,17.8,15,25.6c18.5,23.2,37.9,46.1,62.1,63.1c10.7,7.5,22.2,13.8,33.8,20.1
				c13.5,7.3,26.9,14.7,40.4,22c9.2,5,18.8,10.1,29.1,10.9C341.7,608.5,322.2,600,308,584.9z"/>
		</g>
		<g>
			<path fill="#9BB057" d="M429.3,709.5c5.7-8,11.8-16.5,20.9-20.2c4.7-1.9,9.8-2.5,14.7-3.9c10.2-3,19-9.8,26.1-17.8
				c4.3-4.8,8.1-10.1,13.1-14.2c5-4.1,11.6-6.8,17.9-5.4c2.9,0.7,5.5,2.2,8.3,3.2c12.5,4.9,27.3,0.7,37.8-7.8
				c4-3.3,7.7-7.2,12.4-9.3c5.4-2.4,11.6-2.2,17.5-1.5c9.7,1.2,19.2,3.9,28.2,7.8c0.8,0.4,1.8,0.8,2.2,1.7c0.5,1.1-0.1,2.5-0.7,3.6
				c-17.2,29.9-46.5,52.7-79.7,62c-28.9,8.1-59.5,6.2-89.4,3.5c-4.5-0.4-9.2-0.9-12.9-3.6c-2.2-1.6-3.8-3.8-5.9-5.3
				c-2.2-1.6-5.3-2.4-7.4-0.8"/>
		</g>
		<g>
			<path fill="#B8BA68" d="M437.8,697c5.5-2.9,12-3.4,18.1-4c40.6-3.8,80.1-12.4,118.7-25.5c16.2-5.5,33.6-11,47.1-21.9
				c2.2-1.8,4.8-3.9,7.4-6.4c0-0.3-0.1-0.5-0.2-0.8c-0.4-0.8-1.3-1.3-2.2-1.7c-9-3.9-18.5-6.6-28.2-7.8c-5.9-0.8-12.1-1-17.5,1.5
				c-4.7,2.1-8.4,6-12.4,9.3c-10.5,8.5-25.2,12.7-37.8,7.8c-2.8-1.1-5.4-2.6-8.3-3.2c-6.3-1.4-12.9,1.3-17.9,5.4
				c-5,4.1-8.8,9.4-13.1,14.2c-7.1,8-15.9,14.8-26.1,17.8c-4.9,1.4-10,1.9-14.7,3.9c-5.7,2.4-10.3,6.6-14.3,11.4
				c0.3,0,0.7,0.1,1,0.2C437.6,697.1,437.7,697,437.8,697z"/>
		</g>
		<g opacity="0.24">
			<g>
				<path fill="#B09765" d="M628.8,642.3c-0.4-0.8-1.3-1.3-2.2-1.7c-9-3.9-18.5-6.6-28.2-7.8c-5.9-0.8-12.1-1-17.5,1.5
					c-3.2,1.4-6,3.7-8.7,6.1c1.2,0.7,2.5,1.4,3.7,2c7.3,3.9,16.4,6.5,22.4,12.5c8.1,8,3.6,18.1-3.2,25.1c-3.1,3.2-8.1,7.8-13.1,13.1
					c18.9-11.6,34.9-27.9,46-47.1C628.8,644.8,629.4,643.4,628.8,642.3z"/>
			</g>
		</g>
		<g opacity="0.24">
			<g>
				<path fill="#B09765" d="M610.1,664.7c-9.8,4.3-19.2,9.6-28.8,14.2c-29.1,14-60.5,24.9-91.9,32.1c-3.2,0.7-6.5,1.4-9.7,2.1
					c23.1,1.4,46.2,1,68.3-5.1c27.5-7.7,52.2-24.5,69.7-47C614.9,662.3,612.4,663.7,610.1,664.7z"/>
			</g>
		</g>
		<g opacity="0.48">
			<g>
				<path fill="#DAC868" d="M437.9,702.6c35.3-5.7,70.1-13.6,104.4-23.7c17-5,33.8-10.6,50.4-16.7c13.8-5.1,27.9-10.5,38.6-21
					c0.2-0.2-0.1-0.6-0.4-0.4c-11.8,11.5-27.6,17-42.9,22.5c-16.3,5.9-32.9,11.3-49.6,16.1c-33.1,9.6-66.7,17.2-100.7,22.7
					C437.5,702.2,437.6,702.7,437.9,702.6L437.9,702.6z"/>
			</g>
		</g>
		<g>
			<path fill="#7A6B68" d="M421.5,916.2c-9-14.5-14.9-30.8-17.4-47.7c-5,0.4-7.7,5.7-10,10.1c-2.2,4.4-6.2,9.3-11.1,8.2
				c-4.7-12.1,21.4-19.8,17.1-32.1c-0.9-2.6-3.1-4.5-4.8-6.6c-8.9-11.1-5.2-27.5-9.8-41c-3.3-9.6-10.9-17.6-12.4-27.7
				c-0.7-4.4-0.4-9.6-3.8-12.4c-2.7-2.2-6.7-1.9-10.2-1.7c-28.9,1.7-58.3-13.8-73.1-38.7c-1.7-2.9-3.3-6-5.8-8.3
				c-2.2-2-5-3.3-7.6-4.9c-7.4-4.5-13.2-11.7-16.1-20c11.1,9.5,21.2,20.3,29.9,32c3.2,4.3,6.4,8.9,11.1,11.5c4.9,2.8,10.9,3,16,5.6
				c4.4,2.2,7.9,6.1,12.3,8.3c3.9,1.9,8.2,2.4,12.5,3c10.7,1.3,21.4,2.5,32.1,3.8c3.1-12.9-11.2-24.5-10-37.7c0.3-3,1.4-6,1.4-9
				c0.1-3-1.3-6.5-4.3-7.3c-2.9-0.9-7.9-0.2-7.6-3.3c2.8-2.3,6.3-3.7,10-4c-3-37.6-6-75.2-9.1-112.8c-0.4-5-0.8-10.3,1.2-14.9
				c1.9-4.6,7-8.4,11.8-7.2c0.9-6.9,3.2-13.7,6.8-19.7c2.4,7.7-0.6,15.8-2.4,23.6c-4.6,19.2-2.2,39.4,0.1,59
				c1.9,16.1,3.9,32.3,5.8,48.4c0.6,5.3,1.4,11,5,15c1.6,1.8,3.8,3.4,3.8,5.8c0,2.9-3.1,4.6-4.7,7c-2,2.9-1.6,6.7-1.2,10.2
				c1.8,14.6,3.6,29.1,5.4,43.7c6-3.9,5.7-12.5,7.5-19.3c3.6-13.7,16.9-22.1,29-29.3c6.8-4,14.7-8.1,22.1-5.4
				c-13.8,5.9-23.3,18.6-32.2,30.7c-4.8,6.5-9.6,13.1-12.5,20.6c-4,10-4.5,21-5,31.7c-0.4,8.4-0.7,16.8-1.1,25.2
				c13.5-11.2,21.8-28.5,21.9-46.1c0.1-6.6-0.3-14.7,5.4-18.1c1.8,9.9,1,20.3-2.1,29.9c2.9-1.1,5.8-2.2,8.7-3.4
				c1.8,2.6-1.4,5.6-4,7.4c-11.8,7.9-19.7,21.3-20.8,35.5c-1.1,14.2,4.6,28.7,15.1,38.3c4.7-6.9,11.8-12.2,19.7-14.9
				c-1.8,7.1-11.6,9.3-14.4,16c-2.7,6.4,2.3,13.8,8.6,16.8c6.3,3,13.5,3.1,20.3,4.6c3.9,0.8,8.7,4.1,7,7.7
				c-10.3-3.1-20.6-6.6-30.7-10.4c-3.1,1.4-2.4,6-1.2,9.2c7.7,20.2,15.5,40.3,25.5,59.5c-7.9-11-17.2-20.9-27.6-29.5"/>
		</g>
		<g>
			<path fill="#A4BA67" d="M363.9,631.9c15.2-8,30.4-16.1,44.1-26.5c14.6-11.1,27.1-24.8,41.8-35.8c11.1-8.3,23.3-15,35.5-21.7
				c21.6-11.8,43.1-23.7,64.7-35.5c20.5-11.2,41.1-22.5,63.3-29.7c20.6-6.6,42.1-9.6,63.6-12.2c9.9-1.2,21.2-1.8,28.4,5.1
				c0.5,0.4,0.9,0.9,1,1.6c0.2,0.9-0.4,1.9-1.1,2.5c-2.3,2.2-5.6,2.9-8.6,3.9c-10.4,3.4-18.6,11.5-25,20.4
				c-6.5,8.8-11.5,18.6-18.1,27.3c-19.2,25.7-49.2,40.7-78.1,54.6c-9.6,4.7-19.3,9.3-29.5,12.7c-43.7,14.3-91.8,2.9-136.8,12.3
				c-16.3,3.4-31.9,9.6-46.2,18.1"/>
		</g>
		<g>
			<path fill="#A4BA67" d="M363.1,547.9c15-12.3,29-26,41-41.2c10.6-13.5,19.6-28.1,28.6-42.8c5.5-8.9,10.9-17.7,16.4-26.6
				c5.2-8.5,10.4-17,13.9-26.3c4.1-10.9,5.6-22.7,4.4-34.2c-0.4-4.5-1.3-9-0.2-13.4c1.3-5.1,4.9-9.1,8.1-13.3
				c5.6-7.4,9.9-16,10.7-25.2c0.7-8.2-1.3-16.3-3.4-24.2c-4.2-16.3-8.5-32.7-12.7-49c-1.2-4.8-2.5-9.6-3.7-14.5
				c-2.3-8.8-4.6-17.7-7.2-26.4c-12.5,18.5-33.8,28.9-49.3,44.9c-12.4,12.7-20.8,28.7-29,44.4c-6.6,12.6-13.3,25.3-17.4,39
				c-5.5,18.4-6.1,37.8-6.7,57c-0.4,12.4-0.7,24.8,0.5,37.1c1.7,16.9,6.5,33.6,5,50.5c-1,11.4-4.9,22.5-4.9,34
				c0,12.1,4.5,24.4,1.5,36.1c7.6-7.6,15.3-15.3,22.9-22.9"/>
		</g>
		<g>
			<path fill="#B8BA68" d="M362.2,480.8c-1,11.4-4.9,22.5-4.9,34c0,12.1,4.5,24.4,1.5,36.1c0.8-0.8,1.6-1.6,2.4-2.4
				c4.5-10.9,8.1-22.3,11.5-34C380,489,393,466,403.1,441.6c10.9-26.2,14.6-54.2,20.5-81.7c6.3-29.4,13.3-58.7,19.1-88.3
				c4.1-20.5,9.1-40.7,17.5-59.8c-0.4-1.3-0.7-2.6-1.1-3.9c-12.5,18.5-33.8,28.9-49.3,44.9c-12.4,12.7-20.8,28.7-29,44.4
				c-6.6,12.6-13.3,25.3-17.4,39c-5.5,18.4-6.1,37.8-6.7,57c-0.4,12.4-0.7,24.8,0.5,37.1C359,447.1,363.7,463.9,362.2,480.8z"/>
		</g>
		<g>
			<path fill="#B8BA68" d="M442.1,589.9c25-10.1,51.3-16.4,77.3-23.4c13.7-3.7,27.4-7.4,40.5-12.8c12-5,23.5-11.1,34.8-17.6
				c22.3-12.9,43.7-27.3,67.3-37.8c10.1-4.5,19.3-10.6,29.3-15.3c4.9-2.3,10-4.4,15.4-5.5c0.2,0,0.5-0.1,0.7-0.1
				c-0.2-0.6-0.6-1-1-1.5c-7.2-6.9-18.5-6.3-28.4-5.1c-21.5,2.6-43,5.5-63.6,12.2c-22.2,7.2-42.8,18.5-63.3,29.7
				c-21.6,11.8-43.1,23.7-64.7,35.5c-12.2,6.7-24.4,13.4-35.5,21.7c-14.7,11-27.3,24.6-41.8,35.8c-1.2,0.9-2.4,1.8-3.6,2.6
				C417.3,601.4,429.3,595,442.1,589.9z"/>
		</g>
		<g>
			<path fill="#AC9980" d="M382.1,534.2c-3.4-3.4-9.7-3.2-12.9,0.3c-1.1,1.2-1.9,2.7-3.4,3.3c-2,0.8-4.4-0.5-6.4,0.4
				c-3,1.3-2.4,5.7-4,8.5c-0.8,1.4-2.3,2.4-3.2,3.7c-1.7,2.5-1.5,5.7-1.1,8.7c0.5,5.1,1.2,10.5,4.4,14.4c1,1.2,2.2,2.2,3,3.5
				c3.4,5.6-1.1,14.3,3.6,18.9c0.7,0.7,1.8,1.2,2.7,0.9c0.8-0.3,1.3-1.3,1.6-2.1c1.6-4.2,3.1-8.4,3.2-12.9c0-2.7-0.5-5.4-0.8-8.1
				c-1.4-13.2,3.1-27,12.2-36.7c0.9-0.9,0.9-12.4,1.9-3.2c0.1,1.3-1.3-2.6-2.4-1.9"/>
		</g>
		<g>
			<g>
				<path fill="#C7C1AB" d="M368.7,562.7c3.5-0.8,7.2,1.4,8.7,4.6c1.6,3.2,1.2,7.1-0.2,10.3c3.5-3.4,3.7-9.5,0.6-13.2
					c3.2,1,6.5,1.5,9.9,1.3c-3.4-1.6-6.9-3.1-10.4-4.5c3-0.6,6.2-1.3,8.3-3.5s2.5-6.3,0-8c-1.2,3.5-4.2,6.3-7.8,7.3
					c-3.6,0.9-7.6-0.1-10.3-2.7c-1.5,1.9-1.2,5,0.6,6.5"/>
			</g>
			<g>
				<g>
					<path fill="#C7C1AB" d="M368.7,564c8-1,9.5,7.5,7.3,13.3c-0.4,1.2,1.3,2.1,2.1,1.2c3.7-4.3,4.2-10.1,0.8-14.8
						c-0.5,0.6-0.9,1.2-1.4,1.8c3.4,1,6.6,1.4,10.2,1.3c1.2,0,1.8-1.8,0.6-2.3c-3.5-1.7-7.1-3.2-10.7-4.6c0,0.8,0,1.6,0,2.4
						c3.9-0.8,8.5-1.9,10.3-6c1.2-2.7,0.7-5.6-1.5-7.6c-0.8-0.7-1.7-0.3-2.1,0.6c-2.7,6.7-10.4,8.6-16,4.1c-0.6-0.5-1.5-0.5-2,0.3
						c-1.7,2.8-1.4,5.6,0.8,8c1.1,1.2,2.8-0.6,1.8-1.8c-0.1-1.7-0.3-3.3-0.4-5c-0.7,0.1-1.3,0.2-2,0.3c7.1,5.8,16.7,3.3,20.2-5.2
						c-0.7,0.2-1.4,0.4-2.1,0.6c5.6,5-4.3,8.6-7.7,9.3c-1.3,0.3-1,2,0,2.4c3.4,1.3,6.8,2.8,10.1,4.3c0.2-0.8,0.4-1.6,0.6-2.3
						c-3.3,0.1-6.4-0.3-9.5-1.2c-1-0.3-2.1,0.9-1.4,1.8c2.7,3.7,2.7,8.2-0.4,11.7c0.7,0.4,1.4,0.8,2.1,1.2
						c2.8-7.3-0.2-17.7-9.7-16.5C367.1,561.7,367.1,564.2,368.7,564L368.7,564z"/>
				</g>
			</g>
		</g>
		<g>
			<g>
				<path fill="#7D765C" d="M363.5,684.1c-3-2.7-10.9-7.6-11.1-12c-0.1-2.7-4.2-3.5-4.9-0.7c-1.2,4.6-5.7,10.7,1.1,13.5
					c3.4,1.4,7.6,1,9.2,5c1.2,3.2-0.7,6.9,0.2,10.4c0.5,2,2.8,2.2,4.2,1.1c5.6-4.5,3-11.5-0.2-16.6c-1.7-2.7-6-0.2-4.3,2.5
					c2,3.2,4.8,7.5,1,10.5c1.4,0.4,2.8,0.7,4.2,1.1c-0.8-3.1,0.9-6.2,0.4-9.3c-0.4-2.2-1.6-4-3.3-5.5c-1.7-1.4-3.7-2.3-5.8-3
					c-2.1-0.7-3.9-1.2-3.5-4.1c0.2-1.3,1.4-3,1.8-4.3c-1.6-0.2-3.3-0.4-4.9-0.7c0.3,6.9,8,11.3,12.6,15.5
					C362.4,689.7,365.9,686.2,363.5,684.1L363.5,684.1z"/>
			</g>
		</g>
		<g>
			<path fill="#97897E" d="M349,668c0.2,4.5-3.1,8.8-7.4,9.8c0.5,2.1,3.3,2.4,5.4,2s4.5-1.1,6.1,0.2c0.6,0.5,1.1,1.2,1.8,1.7
				c1.6,1,3.9,0.1,5.3,1.4c1.1,1.1,0.8,2.9,0.7,4.5c0,1.6,1,3.6,2.5,3.1c1-0.3,1.3-1.4,1.3-2.4c-0.1-5.9-7.9-8.1-11-13.1
				c-1.1-1.8-1.6-4-2.8-5.8c-1.2-1.8-3.7-3-5.5-1.8"/>
		</g>
		<g>
			<path fill="#9E4659" d="M343,678.7c2.9-0.6,5.5-2.8,6.3-5.7c0.9-2.9,0-6.2-2.1-8.2c-2.7-2.7-7.9-2.8-10,0.4
				c-0.7,1.1-1,2.5-1.2,3.8c-0.3,2.8,0,5.9,1.8,8.2c1.8,2.2,5.4,3.2,7.6,1.4c2-1.6,2.3-4.5,2.3-7c0-1.8-0.1-3.9-1.5-5
				c-1-0.8-2.3-0.9-3.5-1c-2-0.1-4.2-0.2-6,0.8c-1.7,1.1-2.6,3.8-1.1,5.2"/>
		</g>
		<g>
			<g>
				<path fill="#9E4659" d="M327.2,756.5c-5,1.2-10.9,4.1-9.7,10.2c1.1,5.6,9.2,6.2,13,3c4.3-3.7,3.2-10.6-2.1-12.6
					c-5-1.9-11.4,2.8-9,8.3c1.2,2.7,4.5,4.5,7.3,3c2.7-1.4,3.6-4.5,2.3-7.2c-1.5-2.9-5.8-0.3-4.3,2.5c0.1,0.2-0.7,0.3-0.8-0.7
					c0-0.8,1.1-1.5,1.8-1.5c2.4-0.2,3.5,2.9,1.6,4.4c-1.2,0.9-5.1,1.4-4.8-1c0.4-2.6,4.1-3.2,6.1-3.7
					C331.7,760.6,330.4,755.8,327.2,756.5L327.2,756.5z"/>
			</g>
		</g>
		<g>
			<g>
				<path fill="#C7C1AB" d="M308.8,740.6c1.3-7.8-0.2-19.1-10.5-18.7c-1.2,0-1.8,1.7-0.6,2.3c4.8,2.4,12.2,6.3,9.2,13.1
					c0.8,0.3,1.5,0.6,2.3,1c1.7-6,2-12,0.8-18.2c-0.7,0.4-1.4,0.8-2.1,1.2c4.1,5.1,4,12.2-0.2,17.2c0.7,0.5,1.3,1,2,1.5
					c2.4-5.6,6.6-9.8,12.3-12c-0.3-0.8-0.6-1.5-1-2.3c-5.8,2.5-10.2,6.6-13,12.2c-0.5,1,0.3,2.1,1.4,1.8c5.8-1.2,12.4-11.2,18.3-6.8
					c0.2-0.8,0.4-1.6,0.6-2.3c-7.1,0.6-14.1,1.4-19.6,6.3c-0.7,0.6-0.4,1.9,0.6,2.1c2.4,0.5,4.5,0.3,6.9-0.5
					c3.6-1.1,11.2-6.2,13.6,0.2c0.5-0.5,1-1,1.5-1.5c-7.8-2.6-15.7-2-23.1,1.5c-1.5,0.7-0.2,2.8,1.3,2.2c6.8-3.2,14.1-3.6,21.2-1.3
					c0.9,0.3,1.9-0.7,1.5-1.5c-3.9-10.4-15.5-0.2-22.2-1.5c0.2,0.7,0.4,1.4,0.6,2.1c5-4.4,11.5-5.1,17.9-5.6
					c1.3-0.1,1.6-1.6,0.6-2.3c-7.5-5.5-13.6,5.2-20.3,6.6c0.5,0.6,0.9,1.2,1.4,1.8c2.7-5.2,6.7-9,12.1-11.3c1.3-0.6,0.4-2.8-1-2.3
					c-6.3,2.5-11.1,7-13.8,13.2c-0.5,1.2,1,2.7,2,1.5c5.2-6.1,5.2-14.5,0.2-20.7c-0.9-1.1-2.3,0.1-2.1,1.2
					c1.1,5.8,0.8,11.2-0.8,16.8c-0.4,1.3,1.7,2.3,2.3,1c3.6-8-3.7-13.3-10-16.5c-0.2,0.8-0.4,1.6-0.6,2.3c8.6-0.3,9.1,9.4,8.1,15.5
					C306.1,741.6,308.6,742.2,308.8,740.6L308.8,740.6z"/>
			</g>
		</g>
		<g>
			<g>
				<path fill="#C7C1AB" d="M286.5,722.8c1.1-6.5-0.8-12.7-5.4-17.4c-1-1-2.7,0.3-2,1.5c3.2,5,4.3,10.5,3.1,16.3
					c-0.2,1.1,0.8,1.9,1.8,1.4c1.7-0.9,2.3-2.1,2.5-4c0.2-1.5-0.2-2.9,0-4.4c0.3-3.5,2.5-5.8,5.8-6.6c-0.3-0.8-0.6-1.5-1-2.3
					c-5.4,2.9-8.5,8.1-8.5,14.1c0,1.2,1.7,1.7,2.3,0.6c2.4-4.6,6.4-7.3,11.5-8c-0.2-0.8-0.4-1.6-0.7-2.4c-5.6,2.1-9.5,6.1-11.7,11.6
					c-0.4,0.9,0.7,1.8,1.5,1.5c3.3-0.9,10.5-2.3,10.2,3.5c0.6-0.4,1.3-0.7,1.9-1.1c-4.6-2.7-9.4-3.9-14.8-3.7
					c-1.6,0.1-1.6,2.6,0,2.5c4.9-0.2,9.3,0.9,13.5,3.4c0.9,0.5,1.8-0.2,1.9-1.1c0.5-7.6-8.3-7.3-13.4-5.9c0.5,0.5,1,1,1.5,1.5
					c1.8-4.6,5.3-8.1,10-9.8c1.5-0.6,0.9-2.6-0.7-2.4c-5.7,0.8-10.3,4.1-13,9.2c0.8,0.2,1.6,0.4,2.3,0.6c0-5.2,2.7-9.5,7.3-12
					c1.3-0.7,0.4-2.6-1-2.3c-3,0.7-5.5,2.5-6.8,5.4c-1.2,2.5,0.3,8.6-2.1,9.8c0.6,0.5,1.2,0.9,1.8,1.4c1.3-6.4,0.2-12.6-3.3-18.2
					c-0.7,0.5-1.3,1-2,1.5c4,4,5.7,9.3,4.8,14.9C283.8,723.7,286.3,724.3,286.5,722.8L286.5,722.8z"/>
			</g>
		</g>
		<g>
			<g>
				<path fill="#7D716C" d="M410.8,867.2c7.6,1.3,15.3,2.6,22.9,3.9c5.7,0.9,9.2-0.3,14-3.4c0.8-0.5,2.9-2.6,3.8-2.4
					c0.6,1,1.3,2.1,1.9,3.1c-1,0.8-2,1.7-3,2.5c-5.5,3.7-8.8,2.3-14.1,1.3c-6.7-1.2-14.1,0.2-19.4-5.2c-0.2,0.3-0.4,0.7-0.6,1
					c13.1,3.5,27.4,6.8,39.7-0.8c0.6-0.4,0.2-1.2-0.5-1.1c-5.2,0.7-9.6,3-13.3,6.7c-0.6,0.6,0.3,1.4,0.9,0.9
					c2.4-2.3,4.7-4.6,7.1-6.9c-0.3-0.3-0.6-0.6-0.9-0.9c-1.2,1.4-2,3.6,0.6,3.6c0.2,0,0.4-0.1,0.5-0.3c0.1-0.2,0.2-0.4,0.3-0.5
					c0.2-0.4-0.2-1.1-0.7-0.9c-3.1,1.1-6.2,2.2-9.3,3.4c-0.6,0.2-0.6,1.2,0.2,1.2c2.4,0,4.7,0.1,7.1,0.1c-0.1-0.4-0.1-0.8-0.2-1.2
					c-3.6,0.8-7.2,1.7-10.9,2.5c-0.8,0.2-0.5,1.4,0.3,1.2c3.6-0.8,7.2-1.7,10.9-2.5c0.7-0.2,0.5-1.2-0.2-1.2c-2.4,0-4.7-0.1-7.1-0.1
					c0.1,0.4,0.1,0.8,0.2,1.2c3.1-1.1,6.2-2.2,9.3-3.4c-0.2-0.3-0.5-0.6-0.7-0.9c0.2-0.4,0.4-0.8,0.5-1.3c0.5-0.6-0.3-1.4-0.9-0.9
					c-2.4,2.3-4.7,4.6-7.1,6.9c0.3,0.3,0.6,0.6,0.9,0.9c3.6-3.6,7.8-5.7,12.8-6.4c-0.2-0.4-0.3-0.8-0.5-1.1
					c-12.1,7.4-26,4.1-38.7,0.7c-0.6-0.2-1,0.6-0.6,1c6.3,6.4,15.2,3.7,23,6.3c3.8,1.2,5.5,2.8,9.1,0.2c2.6-1.9,6.7-4.3,8-7.3
					c0.6-1.3,0.8-2.8-0.7-3.7c-2.3-1.4-6,1.8-7.7,2.9c-2.1,1.4-4.4,3.2-6.9,3.8c-3.7,1-7.8-0.3-11.5-0.9c-6.1-1-12.1-2-18.2-3.1
					C410.4,865.8,410,867,410.8,867.2L410.8,867.2z"/>
			</g>
		</g>
		<g>
			<g>
				<path fill="#7D716C" d="M389.6,827c-3.5-2.2-18.4-14.6-19.4-3.4c-0.3,3.2,2.1,5.6,4.8,6.8c2.1,1,4.4,1.1,6.7,1.1
					c4.5,0.1,8.6,0.2,13,1.3c0.7,0.2,1.1-0.8,0.5-1.1c-7-4.7-14.5-8.2-22.5-10.5c-0.8-0.2-1.1,1-0.3,1.2c5.2,1.6,10.4,3.2,15.5,4.9
					c0-0.4,0-0.8,0-1.2c-3.5,1.5-6.9,1.1-9.9-1.1c-0.1,0.4-0.2,0.8-0.3,1.2c3.1,0.2,6.1,0.7,9.1,1.5c0-0.4,0-0.8,0-1.2
					c-3.8,0.9-7.3,0.8-10.9-0.5c0,0.4,0.1,0.8,0.1,1.1c3.1-1.7,5.9-2,9.3-0.9c0-0.4,0-0.8,0-1.2c-3.7,1.3-7,1.4-10.7,0.3
					c0,0.4,0,0.8,0,1.2c3.6-1.2,7.1-1.6,10.9-1.2c-0.1-0.4-0.1-0.8-0.2-1.2c-3.6,0.9-7,0.9-10.6,0.1c0,0.4,0,0.8,0,1.2
					c1.5-0.4,6.5-1,7.7,0.8c1.4,2.3-3.7,2.3-4.8,2.3c0,0.4,0,0.8,0,1.2c2.8,0,5.6,0,8.4,0.1c0.8,0,0.8-1.2,0-1.2
					c-4.9-0.3-9.1-1.6-13.3-4.1c-0.1,0.4-0.2,0.8-0.3,1.2c4.4,0,9.1,0.4,13.2,2.1c4,1.7-1.1,2.3-2.9,2.4c-2.8,0.6-3.3-0.1-1.5-2
					c1.3,0,2.4,0.2,3.6,0.7c0.8,0.3,1.1-0.9,0.3-1.2c-1.6-0.6-9.1-1.6-7.2,2.3c1.8,3.7,9.2,0.5,11.3-1.1c0.3-0.2,0.5-0.9,0-1.1
					c-5.4-2.4-10.9-3.5-16.8-3.5c-0.6,0-0.8,0.8-0.3,1.2c4.3,2.6,8.8,4,13.9,4.3c0-0.4,0-0.8,0-1.2c-2.8,0-5.6,0-8.4-0.1
					c-0.8,0-0.8,1.2,0,1.2c2.8,0,5.1-0.5,7.6-1.8c0.3-0.2,0.4-0.7,0.1-1c-3.2-2.9-6.8-3.8-11-2.8c-0.6,0.1-0.6,1.1,0,1.2
					c3.8,0.9,7.5,0.9,11.3-0.1c0.7-0.2,0.5-1.2-0.2-1.2c-3.9-0.4-7.5,0-11.2,1.2c-0.6,0.2-0.6,1,0,1.2c3.9,1.2,7.5,1.1,11.4-0.3
					c0.6-0.2,0.6-1,0-1.2c-3.6-1.2-6.9-0.9-10.2,1c-0.5,0.3-0.3,1,0.1,1.1c3.9,1.3,7.6,1.5,11.5,0.5c0.6-0.2,0.6-1,0-1.2
					c-3.1-0.8-6.2-1.3-9.5-1.6c-0.7,0-0.8,0.8-0.3,1.2c3.4,2.4,7.1,2.9,10.9,1.3c0.6-0.2,0.6-1,0-1.2c-5.1-1.7-10.3-3.4-15.5-4.9
					c-0.1,0.4-0.2,0.8-0.3,1.2c8,2.2,15.4,5.7,22.3,10.3c0.2-0.4,0.3-0.8,0.5-1.1c-3-0.8-5.9-1.2-9-1.3c-3.5-0.1-7.2,0.5-10.5-1.1
					c-2.7-1.3-4.6-4.1-3.4-7.3c1.5-4,6.1-0.5,7.8,0.5c3.1,1.9,6.1,3.8,9.2,5.7C389.7,828.5,390.3,827.4,389.6,827L389.6,827z"/>
			</g>
		</g>
		<g>
			<g>
				<path fill="#7D716C" d="M397.1,822.2c2.6-5.3,5.3-10.9,9.9-14.7c6.6-5.5,15.3-4.6,23.1-3.5c0.4,0.1,0.8-0.2,0.8-0.6
					c0.1-9-10-10.4-16.7-7.8c-8.9,3.5-15.1,11.7-16.8,21c-0.1,0.8,0.9,1.1,1.2,0.3c3.3-9.8,10.2-20.7,22.2-18.6c0-0.4,0-0.8,0-1.2
					c-7.3,2.9-14.1,6.6-20.6,11c-0.7,0.4-0.1,1.5,0.6,1.1c7.1-4.1,14.2-8.2,21.3-12.2c0.7-0.4,0.1-1.5-0.6-1.1c-5,2.8-10,5.7-15,8.5
					c0.2,0.4,0.4,0.7,0.6,1.1c2.6-1.8,5.2-3.3,8.3-4.2c2-0.6,4.4-0.5,6.3-1.3c1.4-0.6,1.2-0.8,2.2-1.8c0.8-0.8-1.6-5.1,2.8-0.7
					c0.1-0.4,0.3-0.7,0.4-1.1c-1.5,0-2.9-0.2-4.3-0.7c-0.1,0.4-0.2,0.8-0.3,1.2c3.3,0.5-0.3,2.8-1.6,3.1c-0.7,0.2-0.6,1.3,0.2,1.2
					c1.9-0.2,3.8-0.4,5.7-0.6c0.8-0.1,0.8-1.2,0-1.2c-1.5,0-3,0-4.5,0c0.1,0.4,0.1,0.8,0.2,1.2c1.6-0.3,3.2-0.5,4.9-0.8
					c-0.1-0.4-0.2-0.8-0.3-1.2c-6.4,2.4-13.7-0.1-19.9,2.5c-5.3,2.3-6.5,7.7-7.2,12.9c-0.1,0.5,0.7,0.8,1.1,0.4
					c5.1-5.5,10.3-11,15.4-16.4c-0.3-0.3-0.7-0.5-1-0.8c-4,6-8.8,11-14.8,15.2c0.3,0.3,0.6,0.6,0.9,0.9c2.5-4.7,5.7-8.8,9.7-12.3
					c-0.3-0.3-0.6-0.6-0.9-0.9c-3.4,3.6-7,7-10.7,10.3c0.3,0.3,0.7,0.5,1,0.8c0.5-0.7,0.9-1.4,1.4-2.1c0.4-0.6-0.5-1.3-1-0.8
					c-0.3,0.3-0.6,0.6-0.9,0.9c-0.5,0.6,0.3,1.5,0.9,0.9c0.3-0.3,0.6-0.6,0.9-0.9c-0.3-0.3-0.7-0.5-1-0.8c-0.5,0.7-0.9,1.4-1.4,2.1
					c-0.4,0.6,0.5,1.2,1,0.8c3.7-3.3,7.3-6.7,10.7-10.3c0.6-0.6-0.3-1.4-0.9-0.9c-4.1,3.6-7.3,7.7-9.8,12.5
					c-0.3,0.5,0.3,1.2,0.9,0.9c6.1-4.3,11.1-9.4,15.2-15.7c0.4-0.6-0.5-1.3-1-0.8c-5.1,5.5-10.3,11-15.4,16.4
					c0.4,0.1,0.7,0.3,1.1,0.4c0.4-3.4,1-7.2,3.5-9.8c2.5-2.6,6.3-3,9.7-3c4.5-0.1,8.8,0.2,13-1.4c0.8-0.3,0.5-1.3-0.3-1.2
					c-1.6,0.3-3.2,0.5-4.9,0.8c-0.7,0.1-0.5,1.2,0.2,1.2c1.5,0,3,0,4.5,0c0-0.4,0-0.8,0-1.2c-1.9,0.2-3.8,0.4-5.7,0.6
					c0.1,0.4,0.1,0.8,0.2,1.2c2.2-0.6,3.7-1.5,5.2-3.3c0.3-0.3,0.2-0.8-0.1-1c-1.2-0.7-2.1-1.1-3.5-1.3c-0.8-0.1-1.1,1-0.3,1.2
					c1.6,0.5,3,0.7,4.6,0.8c0.5,0,0.8-0.7,0.4-1.1c-1.5-1.5-2.9-1.8-4.9-1c-0.4,0.1-0.6,0.5-0.4,0.9c1.1,1.8-8.6,3.9-9.6,4.3
					c-2.3,0.9-4.3,2.1-6.3,3.5c-0.6,0.5-0.1,1.5,0.6,1.1c5-2.8,10-5.7,15-8.5c-0.2-0.4-0.4-0.7-0.6-1.1c-7.1,4.1-14.2,8.2-21.3,12.2
					c0.2,0.4,0.4,0.7,0.6,1.1c6.4-4.4,13.1-8,20.3-10.9c0.5-0.2,0.7-1.1,0-1.2c-12.6-2.2-20.2,9-23.7,19.5c0.4,0.1,0.8,0.2,1.2,0.3
					c1.4-7.6,5.7-14.3,12.3-18.3c4.7-2.8,12.2-5.1,16.7-0.6c5.7,5.8-2.1,4.1-5,3.9c-5.7-0.3-11.3,0.6-15.9,4.2
					c-5,3.9-8,9.8-10.7,15.4C395.6,822.3,396.7,822.9,397.1,822.2L397.1,822.2z"/>
			</g>
		</g>
		<g opacity="0.43">
			<g>
				<path fill="#D9CE90" d="M400.8,612.7c17.3-13,37.8-20,58.5-25.5c21.1-5.6,42.3-10.4,63.2-16.7c20.4-6.2,40.6-13.7,59.3-24.1
					c19.7-10.9,37.2-25.1,55.9-37.6c21.1-14.2,44.5-26.3,70.4-27.3c0.3,0,0.3-0.5,0-0.5c-45.5,1.8-79.2,35.7-115.6,58.6
					c-38.6,24.2-83.1,34.4-126.6,45.5c-23,5.8-46,12.8-65.2,27.3C400.3,612.5,400.5,612.9,400.8,612.7L400.8,612.7z"/>
			</g>
		</g>
		<g opacity="0.48">
			<g>
				<path fill="#DAC868" d="M366.9,535.1c1.4-21.3,11.2-40.4,21.1-58.9c9.8-18.2,18.8-36.2,23.9-56.4c5.5-21.6,7.9-43.9,12-65.8
					c4.3-22.6,13.1-44.2,16.7-66.9c2.1-12.9,3.1-25.9,5.5-38.8c2.4-12.8,5.8-25.4,9.9-37.8c0.1-0.3-0.4-0.4-0.5-0.1
					c-7.3,21.7-11.2,43.8-14,66.5c-3,24-11.7,46.3-16.7,69.9c-4.6,21.8-6.9,44.1-11.8,65.9c-5,22.2-14,41.9-24.7,61.8
					c-10.3,19-20.6,38.6-22,60.6C366.4,535.4,366.9,535.4,366.9,535.1L366.9,535.1z"/>
			</g>
		</g>
		<g opacity="0.43">
			<g>
				<path fill="#D9CE90" d="M152.2,307.9c2.8,10.3,7.7,19.9,12.5,29.4c16.5,32.6,33.1,65.3,49.6,97.9c4.6,9.1,9.3,18.3,15.5,26.4
					c5.5,7.2,12.2,13.5,17.3,21c8.8,12.8,12.6,28.3,20.1,41.9c12.9,23.2,35.7,39.1,51.3,60.5c4.6,6.3,8.7,13.2,15.2,17.6
					c3.2,2.2,6.9,3.7,10.4,5.5c6.1,3.3,11.6,7.8,16.1,13.2c-11.1-3.4-22.8-7.1-30.9-15.5c-4.4-4.6-7.5-10.2-11.7-15
					c-4.9-5.5-11.1-9.5-16.6-14.4c-6.4-5.6-11.8-12.3-16.9-19.2c-14.9-20-27.6-41.5-40.2-63c-8.8-15-17.7-30.1-23.6-46.5
					c-3.4-9.6-6.3-20.5-14.8-26.2"/>
			</g>
			<g>
				<g>
					<path fill="#D9CE90" d="M151.9,307.9c6,20.9,18.1,40.4,27.9,59.7c10.8,21.4,21.6,42.7,32.5,64.1c4.8,9.5,9.5,19.1,15.7,27.8
						c6,8.3,13.7,15.3,19.4,23.9c5.9,8.9,9.5,18.9,13.7,28.7c3.7,8.8,8.1,17,13.9,24.6c11.5,15.2,26.3,27.4,38.4,42.1
						c6,7.2,10.5,16,17.7,22.1c3.2,2.7,6.9,4.5,10.6,6.3c5.1,2.5,9.8,5.6,13.9,9.6c0.8,0.7,3.7,3.1,3.1,3.8
						c-0.3,0.3-6.5-2.1-6.9-2.2c-5.2-1.8-10.4-3.9-15.1-6.9c-9.1-5.8-13.3-15.3-20.7-22.7c-7.2-7.3-15.9-12.7-22.7-20.4
						c-7.5-8.5-14.1-17.9-20.4-27.3c-13.9-20.6-26.7-42.2-38.7-63.9c-6.1-11.1-11.3-22.4-15.4-34.4c-2.8-8.1-6-16.2-13.2-21.5
						c-0.3-0.2-0.5,0.2-0.3,0.4c7.3,5.3,10.4,13.7,13.2,21.9c2.6,7.6,5.6,15,9.2,22.2c8.1,16.4,17.9,32.1,27.3,47.8
						c9.3,15.4,18.9,30.7,29.8,45c4.8,6.4,9.9,12.6,16,17.9c6.4,5.6,13.5,10.3,18.8,17c5.3,6.7,9.5,13.6,16.9,18.3
						c7.2,4.6,15.5,7.1,23.6,9.6c0.3,0.1,0.4-0.2,0.2-0.4c-3.2-3.7-6.7-7-10.7-9.8c-5-3.5-10.8-5.5-15.8-8.9
						c-9.4-6.4-14.9-17.9-22.2-26.4c-15.1-17.6-34-32.3-45-53.1c-5.7-10.7-9.2-22.3-14.8-33c-5.4-10.2-13.6-18.1-20.7-27
						c-8.3-10.5-14-22.9-20.1-34.8c-6.3-12.5-12.6-24.9-18.9-37.4c-6.9-13.6-13.8-27.3-20.7-40.9c-6.9-13.6-14.6-27.1-18.8-41.8
						C152.3,307.5,151.8,307.6,151.9,307.9L151.9,307.9z"/>
				</g>
			</g>
		</g>
		<g>
			<g>
				<path fill="#7D765C" d="M346.6,601.7c-2.7-4.8-7.4-8.3-12.6-4.3c-3.9,3-5.2,9.2-1.9,13.1c2,2.3,5.3,4.2,7.8,5.8
					c3.2,2,7.3,2.6,10.4,4.6c2.7,1.8,3.7,5.5,6.3,7.5c2.6,2,5.6,2.8,8.8,2.8c2.5,0,3.4-3.4,1.3-4.7c-3.6-2.1-6.7-5-8.6-8.8
					c-1.4-2.7-1.8-6-3.8-8.4c-1.9-2.3-4.3-3.8-6-6.4c-1.3-2-2.5-4-5-4.6c-3.9-1-7.8,2.1-7.8,6.1c0,6.6,8.6,7.3,13.3,8.7
					c-0.6-0.8-1.2-1.6-1.8-2.4c-1.2-0.8-1.8-1.9-2-3.2c-0.1-0.7-0.3-1.4-0.4-2.1c-0.3-1.2-0.7-2.2-1.2-3.3c-1.3-2.9-5.6-0.4-4.3,2.5
					c1.8,4,1.2,10.2,6.6,11.3c3.4,0.7,6.3-1.8,6.3-5.2c0-1.1-0.8-2.1-1.8-2.4c-1.9-0.5-5.9-0.9-7.4-2.1c0.2-2.2,0.6-2.4,1.2-0.6
					c0.4,0.8,0.9,1.6,1.4,2.3c2.2,2.9,5.1,4.1,6.5,7.7c2.4,6.6,6.1,11.7,12.3,15.3c0.4-1.6,0.8-3.1,1.3-4.7
					c-7.5,0-8.3-8.1-14.6-10.6c-3.4-1.3-6.6-2.5-9.7-4.6c-1.4-0.9-3.4-2-4.5-3.3c-2.6-3.9-1.3-6,3.9-6.3c0.7,0.8,1.3,1.7,1.8,2.7
					C343.8,607,348.2,604.5,346.6,601.7L346.6,601.7z"/>
			</g>
		</g>
		<g>
			<g>
				<path fill="#A4BA67" d="M257,685c-1.1-24.8-11.3-48.1-21.4-70.8c-3.8-8.6-7.8-17.4-14.2-24.4c-7.8-8.5-18.4-13.6-28.2-19.7
					c-30.6-19-53.5-48.3-82.8-69.2c-2.5-1.8-5.7-3.6-8.4-2.2c-2.8,1.4-3.2,5.1-3.3,8.2c-0.4,31.6,5.3,63.3,16.7,92.8
					c4.6,11.9,10.3,23.6,18.3,33.6c7.6,9.3,17,16.9,25.9,24.9c4.4,4,8.7,8.2,13.7,11.4c8.2,5.3,17.8,7.8,27.2,10.1
					c13.6,3.4,27.2,6.9,40.8,10.3c4.3,1.1,9.1,2.5,11.2,6.5c0.4,0.8,0.8,1.7,1.4,2.3c2.1,1.9,5.7-0.8,5.8-3.6c0.1-2.9-1.7-5.4-3-7.9
					s-1.9-6,0.2-8"/>
			</g>
			<g opacity="0.24">
				<g>
					<path fill="#B09765" d="M250.4,692c-5.9-3-11.9-5.6-17.1-9.8c-12.9-10.4-19.8-25.9-28.6-39.4c-3.9-6-8.7-11.2-13.8-16.2
						c-6.2-2.1-12.6-4-18.9-5.8c-15.8-4.5-29.8-10.8-43.8-19.4c-5.4-3.3-10.7-6.8-15.4-10.8c1,3,2.1,6.1,3.3,9.1
						c4.6,11.9,10.3,23.6,18.3,33.6c7.6,9.3,17,16.9,25.9,24.9c4.4,4,8.7,8.2,13.7,11.4c8.2,5.3,17.8,7.8,27.2,10.1
						c13.6,3.4,27.2,6.9,40.8,10.3c4.3,1.1,9.1,2.5,11.2,6.5c0.4,0.8,0.8,1.7,1.4,2.3c1.6,1.5,4,0.3,5.2-1.6
						C256.7,695,253,693.3,250.4,692z"/>
				</g>
			</g>
			<g>
				<path fill="#B8BA68" d="M141.4,556.4c10.8,18.2,19.3,37.3,34.8,52.3c7.5,7.2,15.9,13.5,22.7,21.3c5.3,6,9.5,13,13.6,19.9
					c8.7,14.5,17.3,28.4,32.9,36.1c3.8,1.9,10.2,4.4,15.2,7.9c0-2.7-1.7-5.1-3-7.6c-1.2-2.4-1.8-5.6-0.2-7.6
					c-2.2-22.8-11.7-44.5-21-65.6c-3.8-8.6-7.8-17.4-14.2-24.4c-7.8-8.5-18.4-13.6-28.2-19.7c-30.6-19-53.5-48.3-82.8-69.2
					c-2.5-1.8-5.7-3.6-8.4-2.2c-0.2,0.1-0.3,0.2-0.5,0.3C114.8,517.8,129.4,536.3,141.4,556.4z"/>
			</g>
			<g opacity="0.43">
				<g>
					<path fill="#D9CE90" d="M103.4,499.2c1.5,6.6,5.9,11.4,10.6,16.1c6.2,6.3,11.2,12.8,15.1,20.7c3.9,7.7,7.1,15.9,11.4,23.4
						c4.5,7.9,10.6,14.8,15.6,22.4c4.8,7.3,7.9,15.6,12.3,23.1c3.9,6.6,8.9,12.1,14.9,16.8c6.3,4.9,13.1,8.9,19.5,13.7
						c7.7,5.8,13.8,13,19.5,20.7c5.5,7.3,10.7,14.8,17.4,21.1c3.3,3.1,6.9,6,10,9.4c1.7,1.8,3.3,3.7,4.5,5.8
						c2.2,3.8,2.2,5.2-1.7,7.2c-0.3,0.1,0,0.6,0.3,0.4c1.4-0.7,2.8-1.5,4.2-2.2c0.1,0,0.1-0.2,0.1-0.3c-2.1-6.7-6.8-11.5-11.9-16.1
						c-6.7-6-12.6-12.3-18-19.6c-4.7-6.2-9.1-12.7-14.5-18.3c-5.4-5.7-11.7-10.1-18.1-14.5c-7.1-4.8-14.5-9.7-20.1-16.3
						c-6-7-9.4-15.7-13.7-23.8c-4.2-8.1-10-15.1-15.3-22.6c-4.8-6.8-8.3-14.3-11.8-21.8c-3.6-7.8-7.3-15.8-12.8-22.5
						c-6.1-7.4-14.8-13.2-17.1-23C103.8,498.7,103.3,498.9,103.4,499.2L103.4,499.2z"/>
				</g>
			</g>
		</g>
		<g>
			<g>
				<path fill="#7D765C" d="M254.9,682.9c0.2,1.9-2.4,2.7-3.7,4.1c-2.4,2.6-0.4,6.6,1.5,9.5c0.6,0.9,1.2,1.7,2.1,2.2
					c0.7,0.4,1.4,0.5,2.1,0.7c2.4,0.8,3.9,3.1,5.6,4.9s4.3,3.4,6.6,2.4c-7.1-6-11.8-14.7-12.9-23.9"/>
			</g>
			<g>
				<g>
					<path fill="#7D765C" d="M252.5,682.2c-0.3,1.4-2.9,2.7-3.8,4.1c-0.8,1.3-1.1,2.6-1.1,4.1c0.1,3.4,2.4,7.5,4.9,9.6
						c1.4,1.2,2.8,1.2,4.3,2.1c1.8,1.1,2.9,3.1,4.4,4.4c2.5,2.3,5.2,3.5,8.6,2.6c1.7-0.5,2.5-2.9,1.1-4.2c-6.8-6-11-13.8-12.3-22.8
						c-0.5-3.2-5.3-1.8-4.8,1.3c1.4,9.8,6.2,18.5,13.6,25c0.4-1.4,0.7-2.8,1.1-4.2c-3.2,0.8-5.3-3.3-7.2-5c-1.5-1.3-3.2-1.6-4.8-2.6
						c-3.2-2-4.6-6-2.2-9.1c1.2-1.6,2.5-1.9,2.9-4.1C257.9,680.4,253.1,679,252.5,682.2L252.5,682.2z"/>
				</g>
			</g>
		</g>
		<g>
			<g>
				<path fill="#7D765C" d="M418.9,708.9c3.5-3.1,7.9-5.1,12.2-6.9c6.7-2.9,13.5-5.8,20.2-8.8c0.3-0.1,0.6-0.2,0.9-0.2
					c0.8,0.2,0.7,1.3,0.5,2.1c-0.6,1.9-1.2,3.8-1.8,5.8c-0.4,1.4-0.9,2.8-2.1,3.6c-2.9,2-6.4-1.7-9.9-2.4c-4.7-0.9-8.8,3.9-13.6,4.1
					c-2.2,0.1-5.1-0.5-6.2,1.4"/>
			</g>
			<g>
				<g>
					<path fill="#7D765C" d="M420.7,710.7c4.4-3.7,9.9-5.7,15.1-8c5.4-2.3,11.4-6.1,17.1-7.2c-0.8-0.2-1.6-0.4-2.4-0.6
						c-0.5-0.4-1.1,3.1-1.5,4c-0.2,1.7-1.2,2.9-3,3.6c-1.1-0.5-2.1-1-3.2-1.5c-2.8-1.2-5.3-1.7-8.3-0.9c-3.7,1-6.4,3.5-10.4,3.7
						c-2.7,0.2-4.9-0.1-6.8,2.1c-2.1,2.4,1.4,5.9,3.5,3.5c1.1-1.2,4.6-0.6,6.1-0.9c1.4-0.3,2.7-0.8,4-1.4c2.1-0.9,4.3-2.6,6.7-2.6
						c2,0,3.9,1.5,5.7,2.2c7.6,3,11-4.9,11.8-11.4c1.1-8.5-9.3-2.5-12.7-1c-8.6,3.7-18.1,6.8-25.4,12.8
						C414.7,709.2,418.2,712.7,420.7,710.7L420.7,710.7z"/>
				</g>
			</g>
		</g>
		<g>
			<g>
				<path fill="#7D765C" d="M364.4,634.9c3-3.4,6.3-6.3,10.2-8.7c4-2.4,8.5-3.7,12.8-5.6c3.8-1.8,7.1-4.4,10.3-7
					c1.7-1.4,4.2-2.9,5.6-4.6c1.3-1.6,1.2-0.3,0-1c-0.7-0.4-2.4-0.1-3.2,0c-4.4,0.4-8.1,3.2-11.7,5.4c-4.3,2.7-8.7,5.3-13,8
					c-3.3,2.1-6.6,4.3-8.8,7.6c-2.7,4.2-4.4,9.3-6.5,13.9c-0.7,1.6-0.1,3,1.5,3.7c1.3,0.5,1.5,0.6,2.9,0.4c-0.8-0.6-1.6-1.2-2.4-1.8
					c2.4,6.7,4.1,13.5,4.9,20.5c0.4,3.2,5.4,3.2,5,0c-0.8-7.5-2.5-14.7-5-21.8c-0.3-1-1.3-2-2.4-1.8c-0.5-0.1-1.1-0.2-1.6-0.2
					c0.5,1.2,1,2.4,1.5,3.7c2.6-5.8,4.6-13.2,9.7-17.2c5.1-4,11.1-7.1,16.7-10.5c2.7-1.7,5.7-4.1,8.8-4.7c2.8-0.5,5.6,0.6,8.3-0.7
					c2.7-1.3,4.4-4.7,2.5-7.4c-5.3-7.9-17.2,6.1-21.3,8.9c-4.9,3.3-10.7,4.5-15.9,7.4c-4.8,2.6-9,6.1-12.6,10.2
					C358.7,633.7,362.2,637.3,364.4,634.9L364.4,634.9z"/>
			</g>
		</g>
		<g opacity="0.31">
			<g>
				<path fill="#5D692F" d="M381.5,754.1c0.6-0.1,1.1-0.4,1.5-0.7c-1.8-14.3-3.5-28.6-5.3-42.9c-0.4-3.5-0.8-7.3,1.2-10.2
					c1.6-2.4,4.8-4.1,4.7-7c0-2.4-2.2-4-3.8-5.8c-3.6-4-4.4-9.7-5-15c-0.6-5.3-1.3-10.5-1.9-15.8c-1.9,0.8-3.4,2.3-4.1,4.9
					c-1.3,5.1,0.1,10.7,0.6,15.8c0.7,6.8,0.9,13.7,1.2,20.5c0.3,7.7,1.2,14.3,3.7,21.5c1.9,5.6,2.1,9.8,1.1,15.5
					C374.9,738.4,373.4,755.7,381.5,754.1z"/>
			</g>
		</g>
		<g opacity="0.31">
			<g>
				<path fill="#5D692F" d="M421.9,911.3c0.1,0.1,0.2,0.2,0.3,0.3c-0.1-3-0.4-5.9-1-8.9c-1.2-6.8-3.6-13.2-4.6-20
					c-1-6.7-1.6-13.5-4.7-19.6c-4.6-9.3-12.3-16.5-18-25.1c-2.6-4-4.3-8.1-5.3-12.4c0.8,8.2,1.8,16.2,6.8,22.6
					c1.7,2.1,3.9,4,4.8,6.6c4.3,12.3-21.8,19.9-17.1,32.1c4.8,1.2,8.8-3.7,11.1-8.2c2.2-4.4,5-9.7,10-10.1
					c2.5,16.9,8.4,33.2,17.4,47.7L421.9,911.3z"/>
			</g>
		</g>
		<g>
			<path fill="#95465C" d="M396.6,843.5c-3.8-1-8,1.8-8.8,5.6c-0.9,3.8,1.4,8,4.9,9.7c1.7,0.9,3.9,1.2,5.6,0.2
				c1.2-0.7,2-1.9,2.6-3.1c0.8-1.7,1.3-3.5,1.1-5.3c-0.5-4.2-5.5-7-9.4-5.4s-5.4,7.2-2.8,10.5c2.2,2.8,6.7,3.4,9.5,1.2
				c2.8-2.2,3.2-6.8,0.8-9.4c-2.2-2.4-6.3-2.6-8.7-0.6"/>
		</g>
	</g>
	<g opacity="7.000000e-02">
		<g>
			<path fill="#B09765" d="M361.8,483.8c-0.3,3.2-0.8,6.4-1.4,9.6c4.3-8.3,8.2-16.8,11.9-25.4c10.1-23.9,18-48.6,25.1-73.5
				c7-24.4,14-48.9,19.1-73.7c4.9-23.8,8.3-48.1,16.7-71c2.9-7.9,6.4-15.4,10.6-22.5c-11.1,9.7-24,17.9-34.3,28.5
				c-12.4,12.7-20.8,28.7-29,44.4c-6.6,12.6-13.3,25.3-17.4,39c-5.5,18.4-6.1,37.8-6.7,57c-0.4,12.4-0.7,24.8,0.5,37.1
				C358.6,450.2,363.4,466.9,361.8,483.8z"/>
		</g>
	</g>
</g>
</svg>
