<?xml version="1.0" encoding="utf-8"?>
<!-- Generator: Adobe Illustrator 18.0.0, SVG Export Plug-In . SVG Version: 6.00 Build 0)  -->
<!DOCTYPE svg PUBLIC "-//W3C//DTD SVG 1.1//EN" "http://www.w3.org/Graphics/SVG/1.1/DTD/svg11.dtd" [
	<!ENTITY ns_flows "http://ns.adobe.com/Flows/1.0/">
	<!ENTITY ns_extend "http://ns.adobe.com/Extensibility/1.0/">
	<!ENTITY ns_ai "http://ns.adobe.com/AdobeIllustrator/10.0/">
	<!ENTITY ns_graphs "http://ns.adobe.com/Graphs/1.0/">
]>
<svg version="1.1" id="Capa_1" xmlns:x="&ns_extend;" xmlns:i="&ns_ai;" xmlns:graph="&ns_graphs;"
	 xmlns="http://www.w3.org/2000/svg" xmlns:xlink="http://www.w3.org/1999/xlink" xmlns:a="http://ns.adobe.com/AdobeSVGViewerExtensions/3.0/"
	 x="0px" y="0px" viewBox="0 0 749 1334" enable-background="new 0 0 749 1334" xml:space="preserve">
<g>
	<path fill="#FFFFFF" d="M359.2,1214v-119.4h17.2v102.4h27.5v17H359.2z"/>
	<path fill="#FFFFFF" d="M462.2,1171.7l5.6,42.4h-17.4l-3.3-25.3h-17.6l-3.4,25.3h-17.3l5.6-42.2l12.2-77.2h23.6L462.2,1171.7z
		 M444.8,1171.7l-6.6-49.7l-6.6,49.7H444.8z"/>
	<path fill="#FFFFFF" d="M527.1,1190.9c0,16.7-8.3,25.1-24.8,25.1c-16.5,0-24.7-8.4-24.7-25.1v-96.2h17.2v96.2
		c0,5.4,2.5,8.1,7.5,8.1c5,0,7.5-2.7,7.5-8.1v-96.2h17.2V1190.9z"/>
	<path fill="#FFFFFF" d="M542.3,1094.6h25.1c15.3,0,22.9,8.4,22.9,25.1v18c0,10.5-4.5,17.4-13.6,20.8l19.4,55.6h-18.9l-15.5-52.5
		l-2.2,0.3v52.2h-17.2V1094.6z M559.5,1111.6v34.2h4c2.4,0,4-0.2,4.9-0.5c3.1-1.3,4.7-3.8,4.7-7.6v-18c0-5.4-2.5-8.2-7.5-8.2H559.5z
		"/>
	<path fill="#FFFFFF" d="M605.8,1094.6h44.7v17H623v34.2h23.6v17H623v34.2h27.5v17h-44.7V1094.6z"/>
	<path fill="#FFFFFF" d="M663.3,1214v-119.4h17.2v102.4H708v17H663.3z"/>
</g>
<g>
	<path fill="#FFFFFF" d="M173.8,1271.5c0,0.1,0,0.2,0,0.4s-0.1,0.4-0.1,0.6s-0.1,0.4-0.1,0.6s-0.1,0.4-0.2,0.6s-0.2,0.3-0.3,0.4
		s-0.3,0.2-0.4,0.2h-13.4c-0.2,0-0.4,0-0.5-0.1s-0.3-0.1-0.4-0.3s-0.2-0.3-0.3-0.5s0-0.5,0-0.8l5.6-28.1c0-0.1,0.1-0.2,0.2-0.3
		s0.2-0.2,0.4-0.2s0.4-0.1,0.7-0.1s0.6-0.1,1-0.1s0.7,0,0.9,0.1s0.5,0.1,0.6,0.1s0.2,0.1,0.3,0.2s0.1,0.2,0,0.3l-5.2,26.2h10.9
		c0.2,0,0.3,0.1,0.4,0.2S173.8,1271.2,173.8,1271.5z"/>
	<path fill="#FFFFFF" d="M201.3,1272.7c0,0.3,0.1,0.6,0,0.8s-0.1,0.4-0.3,0.5s-0.4,0.2-0.7,0.2s-0.7,0-1.3,0c-0.3,0-0.6,0-0.9,0
		s-0.4-0.1-0.6-0.1s-0.2-0.1-0.3-0.2s-0.1-0.2-0.1-0.4l-1.1-7.4h-12.6l-4,7.3c-0.1,0.2-0.2,0.3-0.3,0.4s-0.2,0.2-0.4,0.2
		s-0.4,0.1-0.7,0.1s-0.6,0-1.1,0c-0.5,0-0.8,0-1.1-0.1s-0.5-0.1-0.6-0.2s-0.1-0.3-0.1-0.5s0.2-0.5,0.3-0.8l15.8-28.2
		c0.1-0.2,0.2-0.3,0.4-0.4s0.3-0.2,0.5-0.3s0.5-0.1,0.8-0.1s0.7,0,1.1,0c0.5,0,0.9,0,1.3,0s0.6,0.1,0.8,0.1s0.3,0.2,0.4,0.3
		s0.1,0.3,0.2,0.4L201.3,1272.7z M193.4,1247.9L193.4,1247.9l-8.2,15.1h10.5L193.4,1247.9z"/>
	<path fill="#FFFFFF" d="M230.2,1263.1c-0.4,1.9-1,3.6-1.8,5s-1.8,2.6-3,3.6s-2.5,1.7-4,2.2s-3.1,0.7-4.8,0.7
		c-1.8,0-3.4-0.2-4.7-0.7s-2.4-1.2-3.2-2.2s-1.3-2.2-1.6-3.6s-0.2-3.1,0.2-5.1l3.7-18.5c0-0.1,0.1-0.2,0.2-0.3s0.2-0.2,0.4-0.2
		s0.4-0.1,0.6-0.1s0.6-0.1,1-0.1s0.7,0,1,0.1s0.4,0.1,0.6,0.1s0.2,0.1,0.3,0.2s0,0.2,0,0.3l-3.7,18.5c-0.3,1.4-0.3,2.6-0.2,3.6
		s0.4,1.9,0.9,2.6s1.2,1.2,2,1.5s1.9,0.5,3.1,0.5c1.2,0,2.3-0.2,3.2-0.5s1.9-0.9,2.6-1.6s1.4-1.6,2-2.6s0.9-2.2,1.2-3.5l3.7-18.5
		c0-0.1,0.1-0.2,0.2-0.3s0.2-0.2,0.4-0.2s0.4-0.1,0.6-0.1s0.6-0.1,1-0.1c0.4,0,0.7,0,0.9,0.1s0.4,0.1,0.6,0.1s0.2,0.1,0.3,0.2
		s0.1,0.2,0,0.3L230.2,1263.1z"/>
	<path fill="#FFFFFF" d="M259.5,1250.2c0,1.1-0.2,2.1-0.5,3.1s-0.8,1.9-1.4,2.7s-1.4,1.5-2.3,2.2s-2,1.1-3.2,1.5
		c0.8,0.3,1.5,0.9,2,1.9s0.9,2.2,1.2,3.8l1.2,6.7c0,0.3,0.1,0.6,0.1,0.8s0.1,0.5,0.1,0.7c0,0.1,0,0.3-0.1,0.4s-0.2,0.2-0.4,0.2
		s-0.4,0.1-0.7,0.1s-0.7,0-1.1,0c-0.4,0-0.7,0-1,0s-0.4-0.1-0.6-0.2s-0.2-0.2-0.3-0.3s-0.1-0.3-0.1-0.5l-1.2-7.1
		c-0.1-0.8-0.3-1.6-0.5-2.2s-0.5-1.3-0.9-1.7s-0.9-0.9-1.6-1.1s-1.4-0.4-2.3-0.4h-2.7l-2.6,12.9c0,0.1-0.1,0.2-0.2,0.3
		s-0.2,0.2-0.4,0.2s-0.4,0.1-0.7,0.1s-0.6,0.1-1,0.1c-0.4,0-0.7,0-0.9,0s-0.5-0.1-0.6-0.1s-0.2-0.1-0.3-0.2s-0.1-0.2,0-0.3l5.6-28.1
		c0.1-0.6,0.4-1,0.8-1.3s0.8-0.4,1.2-0.4h6.6c1.4,0,2.7,0.1,3.8,0.4s2,0.7,2.7,1.2s1.3,1.2,1.7,2S259.5,1249.2,259.5,1250.2z
		 M255.1,1250.8c0-0.5-0.1-1-0.3-1.5s-0.5-0.8-0.9-1.2s-0.9-0.6-1.6-0.8s-1.4-0.3-2.3-0.3h-4.2l-2.1,10.2h3.6c1.4,0,2.6-0.2,3.6-0.6
		s1.8-0.9,2.4-1.5s1.1-1.3,1.4-2.1S255.1,1251.6,255.1,1250.8z"/>
	<path fill="#FFFFFF" d="M288,1263.1c-0.4,1.9-1,3.6-1.8,5s-1.8,2.6-3,3.6s-2.5,1.7-4,2.2s-3.1,0.7-4.8,0.7c-1.8,0-3.4-0.2-4.7-0.7
		s-2.4-1.2-3.2-2.2s-1.3-2.2-1.6-3.6s-0.2-3.1,0.2-5.1l3.7-18.5c0-0.1,0.1-0.2,0.2-0.3s0.2-0.2,0.4-0.2s0.4-0.1,0.6-0.1
		s0.6-0.1,1-0.1s0.7,0,1,0.1s0.4,0.1,0.6,0.1s0.2,0.1,0.3,0.2s0,0.2,0,0.3l-3.7,18.5c-0.3,1.4-0.3,2.6-0.2,3.6s0.4,1.9,0.9,2.6
		s1.2,1.2,2,1.5s1.9,0.5,3.1,0.5c1.2,0,2.3-0.2,3.2-0.5s1.9-0.9,2.6-1.6s1.4-1.6,2-2.6s0.9-2.2,1.2-3.5l3.7-18.5
		c0-0.1,0.1-0.2,0.2-0.3s0.2-0.2,0.4-0.2s0.4-0.1,0.6-0.1s0.6-0.1,1-0.1c0.4,0,0.7,0,0.9,0.1s0.4,0.1,0.6,0.1s0.2,0.1,0.3,0.2
		s0.1,0.2,0,0.3L288,1263.1z"/>
	<path fill="#FFFFFF" d="M314,1246.1c0,0.1,0,0.3,0,0.4s0,0.3-0.1,0.5s-0.1,0.4-0.1,0.6s-0.1,0.4-0.2,0.5s-0.2,0.3-0.3,0.4
		s-0.2,0.1-0.3,0.1c-0.2,0-0.4-0.1-0.7-0.3s-0.7-0.4-1.2-0.6s-1-0.4-1.7-0.6s-1.4-0.3-2.3-0.3c-1,0-1.8,0.1-2.5,0.4
		s-1.3,0.7-1.8,1.2s-0.8,1.1-1.1,1.7s-0.4,1.3-0.4,1.9c0,0.7,0.2,1.3,0.5,1.8s0.7,1,1.2,1.4s1.1,0.8,1.7,1.2s1.3,0.8,1.9,1.1
		s1.3,0.8,1.9,1.3s1.2,1,1.7,1.5s0.9,1.3,1.2,2s0.5,1.6,0.5,2.6c0,1.3-0.3,2.6-0.8,3.7s-1.3,2.2-2.3,3s-2.2,1.6-3.6,2.1
		s-3,0.8-4.8,0.8c-1,0-1.8-0.1-2.7-0.2s-1.6-0.4-2.2-0.6s-1.2-0.5-1.7-0.8s-0.8-0.5-1-0.7s-0.3-0.5-0.3-0.9c0-0.1,0-0.2,0-0.4
		s0.1-0.4,0.1-0.6s0.1-0.4,0.2-0.6s0.1-0.4,0.2-0.5s0.2-0.3,0.3-0.4s0.2-0.2,0.4-0.2c0.2,0,0.6,0.1,0.9,0.4s0.8,0.5,1.4,0.8
		s1.2,0.6,2,0.8s1.7,0.4,2.7,0.4c1.1,0,2.1-0.2,2.9-0.5s1.6-0.7,2.2-1.2s1-1.1,1.3-1.8s0.5-1.5,0.5-2.2c0-0.7-0.1-1.3-0.4-1.8
		s-0.7-1-1.2-1.4s-1-0.8-1.7-1.2s-1.3-0.7-1.9-1.1s-1.3-0.8-1.9-1.3s-1.2-1-1.7-1.5s-0.9-1.3-1.2-2s-0.5-1.6-0.5-2.7
		c0-1.2,0.2-2.4,0.7-3.5s1.2-2,2.1-2.8s2-1.5,3.2-1.9s2.7-0.7,4.2-0.7c0.8,0,1.5,0.1,2.1,0.2s1.3,0.3,1.8,0.5s1,0.4,1.4,0.6
		s0.7,0.4,0.8,0.5s0.2,0.3,0.3,0.4S314,1245.9,314,1246.1z"/>
	<path fill="#FFFFFF" d="M351,1272.5c0,0.3-0.1,0.6-0.3,0.8s-0.3,0.4-0.5,0.5s-0.4,0.2-0.6,0.3s-0.4,0.1-0.6,0.1h-1.5
		c-0.4,0-0.8,0-1-0.1s-0.5-0.3-0.7-0.5s-0.4-0.5-0.6-0.9s-0.3-0.8-0.5-1.4l-5.7-16.2c-0.4-1.2-0.8-2.3-1.2-3.5s-0.8-2.3-1.1-3.5h0
		c-0.2,1.3-0.4,2.6-0.7,3.8s-0.5,2.5-0.7,3.8l-3.5,17.7c0,0.1-0.1,0.2-0.2,0.3s-0.2,0.2-0.4,0.2s-0.4,0.1-0.6,0.1s-0.6,0.1-0.9,0.1
		s-0.7,0-0.9-0.1s-0.4-0.1-0.6-0.1s-0.2-0.1-0.2-0.2s0-0.2,0-0.3l5.6-28c0.1-0.6,0.4-1.1,0.8-1.3s0.8-0.4,1.2-0.4h1.9
		c0.4,0,0.7,0,1,0.1s0.5,0.2,0.7,0.4s0.4,0.5,0.5,0.8s0.3,0.7,0.5,1.2l5.7,16.4c0.4,1,0.7,2,1.1,3s0.7,2,1,3.1h0
		c0.2-1.3,0.5-2.6,0.7-4s0.5-2.7,0.8-4l3.3-16.4c0-0.1,0.1-0.2,0.2-0.3s0.2-0.2,0.4-0.2s0.4-0.1,0.6-0.1s0.6,0,0.9,0
		c0.4,0,0.7,0,0.9,0s0.4,0.1,0.6,0.1s0.2,0.1,0.3,0.2s0.1,0.2,0,0.3L351,1272.5z"/>
	<path fill="#FFFFFF" d="M387.8,1254c0,1.2-0.1,2.5-0.3,4s-0.6,3-1.1,4.5s-1.2,3-2.1,4.5s-1.9,2.7-3.2,3.8s-2.7,2-4.5,2.7
		s-3.7,1-5.9,1c-1.8,0-3.3-0.2-4.7-0.7s-2.5-1.1-3.4-2s-1.6-2-2-3.3s-0.7-2.8-0.7-4.5c0-1.3,0.1-2.8,0.4-4.3s0.6-3.1,1.2-4.6
		s1.2-3,2.1-4.4s1.9-2.7,3.2-3.8s2.7-2,4.4-2.6s3.6-1,5.8-1c1.8,0,3.3,0.2,4.7,0.7s2.5,1.1,3.4,2s1.6,2,2,3.3
		S387.8,1252.3,387.8,1254z M383.5,1254.3c0-1.1-0.1-2.1-0.4-3s-0.6-1.7-1.2-2.4s-1.3-1.2-2.2-1.5s-2-0.6-3.3-0.6
		c-1.6,0-3.1,0.3-4.3,0.9s-2.3,1.4-3.2,2.4s-1.6,2.1-2.2,3.3s-1.1,2.5-1.4,3.7s-0.6,2.5-0.8,3.6s-0.2,2.2-0.2,3c0,1.1,0.1,2.1,0.4,3
		s0.6,1.7,1.2,2.3s1.3,1.1,2.2,1.5s2,0.5,3.3,0.5c1.6,0,3-0.3,4.2-0.9s2.3-1.4,3.2-2.3s1.6-2,2.2-3.2s1.1-2.4,1.4-3.7
		s0.6-2.4,0.8-3.6S383.5,1255.2,383.5,1254.3z"/>
	<path fill="#FFFFFF" d="M402.9,1273.4c-0.1,0.2-0.2,0.3-0.4,0.4s-0.3,0.2-0.5,0.3s-0.5,0.1-0.8,0.1s-0.7,0-1.2,0
		c-0.5,0-0.9,0-1.2,0s-0.6-0.1-0.8-0.1s-0.3-0.2-0.4-0.3s-0.1-0.3-0.2-0.4l-4.3-28.4c0-0.3-0.1-0.5-0.1-0.7s0.1-0.3,0.2-0.4
		s0.3-0.2,0.6-0.2s0.7,0,1.1,0c0.5,0,0.8,0,1.1,0s0.5,0.1,0.6,0.1s0.3,0.1,0.3,0.3s0.1,0.2,0.1,0.4l3.5,25.5h0l13.5-25.5
		c0.1-0.2,0.2-0.3,0.3-0.4s0.2-0.2,0.4-0.2s0.4-0.1,0.7-0.1s0.7,0,1.1,0c0.5,0,0.9,0,1.1,0.1s0.5,0.1,0.6,0.2s0.1,0.3,0.1,0.5
		s-0.2,0.5-0.4,0.8L402.9,1273.4z"/>
	<path fill="#FFFFFF" d="M446.1,1254c0,1.2-0.1,2.5-0.3,4s-0.6,3-1.1,4.5s-1.2,3-2.1,4.5s-1.9,2.7-3.2,3.8s-2.7,2-4.5,2.7
		s-3.7,1-5.9,1c-1.8,0-3.3-0.2-4.7-0.7s-2.5-1.1-3.4-2s-1.6-2-2-3.3s-0.7-2.8-0.7-4.5c0-1.3,0.1-2.8,0.4-4.3s0.6-3.1,1.2-4.6
		s1.2-3,2.1-4.4s1.9-2.7,3.2-3.8s2.7-2,4.4-2.6s3.6-1,5.8-1c1.8,0,3.3,0.2,4.7,0.7s2.5,1.1,3.4,2s1.6,2,2,3.3
		S446.1,1252.3,446.1,1254z M441.8,1254.3c0-1.1-0.1-2.1-0.4-3s-0.6-1.7-1.2-2.4s-1.3-1.2-2.2-1.5s-2-0.6-3.3-0.6
		c-1.6,0-3.1,0.3-4.3,0.9s-2.3,1.4-3.2,2.4s-1.6,2.1-2.2,3.3s-1.1,2.5-1.4,3.7s-0.6,2.5-0.8,3.6s-0.2,2.2-0.2,3c0,1.1,0.1,2.1,0.4,3
		s0.6,1.7,1.2,2.3s1.3,1.1,2.2,1.5s2,0.5,3.3,0.5c1.6,0,3-0.3,4.2-0.9s2.3-1.4,3.2-2.3s1.6-2,2.2-3.2s1.1-2.4,1.4-3.7
		s0.6-2.4,0.8-3.6S441.8,1255.2,441.8,1254.3z"/>
	<path fill="#FFFFFF" d="M474.4,1246.9c0,0.3-0.1,0.7-0.2,1.2s-0.3,0.9-0.4,1.1s-0.4,0.4-0.6,0.4c-0.2,0-0.5-0.1-0.8-0.4
		s-0.7-0.6-1.2-0.9s-1.1-0.6-1.9-0.9s-1.8-0.4-3-0.4c-1.3,0-2.5,0.2-3.6,0.7s-2.1,1.2-2.9,2s-1.6,1.8-2.3,2.9s-1.2,2.2-1.6,3.4
		s-0.8,2.4-1,3.6s-0.3,2.4-0.3,3.5c0,1.2,0.2,2.4,0.5,3.3s0.8,1.8,1.4,2.5s1.3,1.2,2.2,1.5s1.8,0.5,2.9,0.5c1.2,0,2.3-0.1,3.2-0.4
		s1.6-0.6,2.3-0.9s1.2-0.6,1.6-0.9s0.8-0.4,1-0.4c0.2,0,0.3,0.1,0.4,0.2s0.1,0.3,0.1,0.6c0,0.1,0,0.2,0,0.3s-0.1,0.3-0.1,0.5
		s-0.1,0.4-0.1,0.6s-0.1,0.4-0.2,0.6s-0.1,0.3-0.2,0.5s-0.2,0.3-0.4,0.5s-0.5,0.4-1,0.7s-1.2,0.6-1.9,0.9s-1.6,0.5-2.6,0.7
		s-1.9,0.3-3,0.3c-1.6,0-3-0.2-4.3-0.7s-2.4-1.2-3.3-2.1s-1.6-2.1-2.1-3.5s-0.7-3-0.7-4.8c0-1.5,0.2-3,0.5-4.6s0.8-3.1,1.4-4.6
		s1.4-2.9,2.3-4.2s2-2.5,3.2-3.5s2.6-1.8,4.1-2.3s3.2-0.9,5-0.9c1.1,0,2.2,0.1,3.2,0.4s1.8,0.6,2.5,1s1.2,0.7,1.5,1
		S474.4,1246.5,474.4,1246.9z"/>
	<path fill="#FFFFFF" d="M498,1272.7c0,0.3,0.1,0.6,0,0.8s-0.1,0.4-0.3,0.5s-0.4,0.2-0.7,0.2s-0.7,0-1.3,0c-0.3,0-0.6,0-0.9,0
		s-0.4-0.1-0.6-0.1s-0.2-0.1-0.3-0.2s-0.1-0.2-0.1-0.4l-1.1-7.4h-12.6l-4,7.3c-0.1,0.2-0.2,0.3-0.3,0.4s-0.2,0.2-0.4,0.2
		s-0.4,0.1-0.7,0.1s-0.6,0-1.1,0c-0.5,0-0.8,0-1.1-0.1s-0.5-0.1-0.6-0.2s-0.1-0.3-0.1-0.5s0.2-0.5,0.3-0.8l15.8-28.2
		c0.1-0.2,0.2-0.3,0.4-0.4s0.3-0.2,0.5-0.3s0.5-0.1,0.8-0.1s0.7,0,1.1,0c0.5,0,0.9,0,1.3,0s0.6,0.1,0.8,0.1s0.3,0.2,0.4,0.3
		s0.1,0.3,0.2,0.4L498,1272.7z M490.1,1247.9L490.1,1247.9l-8.2,15.1h10.5L490.1,1247.9z"/>
	<path fill="#FFFFFF" d="M526.4,1272.5c0,0.3-0.1,0.6-0.3,0.8s-0.3,0.4-0.5,0.5s-0.4,0.2-0.6,0.3s-0.4,0.1-0.6,0.1H523
		c-0.4,0-0.8,0-1-0.1s-0.5-0.3-0.7-0.5s-0.4-0.5-0.6-0.9s-0.3-0.8-0.5-1.4l-5.7-16.2c-0.4-1.2-0.8-2.3-1.2-3.5s-0.8-2.3-1.1-3.5h0
		c-0.2,1.3-0.4,2.6-0.7,3.8s-0.5,2.5-0.7,3.8l-3.5,17.7c0,0.1-0.1,0.2-0.2,0.3s-0.2,0.2-0.4,0.2s-0.4,0.1-0.6,0.1s-0.6,0.1-0.9,0.1
		s-0.7,0-0.9-0.1s-0.4-0.1-0.6-0.1s-0.2-0.1-0.2-0.2s0-0.2,0-0.3l5.6-28c0.1-0.6,0.4-1.1,0.8-1.3s0.8-0.4,1.2-0.4h1.9
		c0.4,0,0.7,0,1,0.1s0.5,0.2,0.7,0.4s0.4,0.5,0.5,0.8s0.3,0.7,0.5,1.2l5.7,16.4c0.4,1,0.7,2,1.1,3s0.7,2,1,3.1h0
		c0.2-1.3,0.5-2.6,0.7-4s0.5-2.7,0.8-4l3.3-16.4c0-0.1,0.1-0.2,0.2-0.3s0.2-0.2,0.4-0.2s0.4-0.1,0.6-0.1s0.6,0,0.9,0
		c0.4,0,0.7,0,0.9,0s0.4,0.1,0.6,0.1s0.2,0.1,0.3,0.2s0.1,0.2,0,0.3L526.4,1272.5z"/>
	<path fill="#FFFFFF" d="M557.7,1272.7c0,0.3,0.1,0.6,0,0.8s-0.1,0.4-0.3,0.5s-0.4,0.2-0.7,0.2s-0.7,0-1.3,0c-0.3,0-0.6,0-0.9,0
		s-0.4-0.1-0.6-0.1s-0.2-0.1-0.3-0.2s-0.1-0.2-0.1-0.4l-1.1-7.4h-12.6l-4,7.3c-0.1,0.2-0.2,0.3-0.3,0.4s-0.2,0.2-0.4,0.2
		s-0.4,0.1-0.7,0.1s-0.6,0-1.1,0c-0.5,0-0.8,0-1.1-0.1s-0.5-0.1-0.6-0.2s-0.1-0.3-0.1-0.5s0.2-0.5,0.3-0.8l15.8-28.2
		c0.1-0.2,0.2-0.3,0.4-0.4s0.3-0.2,0.5-0.3s0.5-0.1,0.8-0.1s0.7,0,1.1,0c0.5,0,0.9,0,1.3,0s0.6,0.1,0.8,0.1s0.3,0.2,0.4,0.3
		s0.1,0.3,0.2,0.4L557.7,1272.7z M549.8,1247.9L549.8,1247.9l-8.2,15.1h10.5L549.8,1247.9z"/>
	<path fill="#FFFFFF" d="M586,1250.2c0,1.1-0.2,2.1-0.5,3.1s-0.8,1.9-1.4,2.7s-1.4,1.5-2.3,2.2s-2,1.1-3.2,1.5
		c0.8,0.3,1.5,0.9,2,1.9s0.9,2.2,1.2,3.8l1.2,6.7c0,0.3,0.1,0.6,0.1,0.8s0.1,0.5,0.1,0.7c0,0.1,0,0.3-0.1,0.4s-0.2,0.2-0.4,0.2
		s-0.4,0.1-0.7,0.1s-0.7,0-1.1,0c-0.4,0-0.7,0-1,0s-0.4-0.1-0.6-0.2s-0.2-0.2-0.3-0.3s-0.1-0.3-0.1-0.5l-1.2-7.1
		c-0.1-0.8-0.3-1.6-0.5-2.2s-0.5-1.3-0.9-1.7s-0.9-0.9-1.6-1.1s-1.4-0.4-2.3-0.4h-2.7l-2.6,12.9c0,0.1-0.1,0.2-0.2,0.3
		s-0.2,0.2-0.4,0.2s-0.4,0.1-0.7,0.1s-0.6,0.1-1,0.1c-0.4,0-0.7,0-0.9,0s-0.5-0.1-0.6-0.1s-0.2-0.1-0.3-0.2s-0.1-0.2,0-0.3l5.6-28.1
		c0.1-0.6,0.4-1,0.8-1.3s0.8-0.4,1.2-0.4h6.6c1.4,0,2.7,0.1,3.8,0.4s2,0.7,2.7,1.2s1.3,1.2,1.7,2S586,1249.2,586,1250.2z
		 M581.6,1250.8c0-0.5-0.1-1-0.3-1.5s-0.5-0.8-0.9-1.2s-0.9-0.6-1.6-0.8s-1.4-0.3-2.3-0.3h-4.2l-2.1,10.2h3.6c1.4,0,2.6-0.2,3.6-0.6
		s1.8-0.9,2.4-1.5s1.1-1.3,1.4-2.1S581.6,1251.6,581.6,1250.8z"/>
	<path fill="#FFFFFF" d="M593.6,1273.6c0,0.1-0.1,0.2-0.2,0.3s-0.2,0.2-0.4,0.2s-0.4,0.1-0.7,0.1s-0.6,0.1-1,0.1c-0.4,0-0.7,0-1-0.1
		s-0.4-0.1-0.6-0.1s-0.2-0.1-0.3-0.2s-0.1-0.2,0-0.3l5.8-29.2c0-0.1,0.1-0.2,0.2-0.3s0.2-0.2,0.4-0.2s0.4-0.1,0.6-0.1
		s0.6-0.1,0.9-0.1s0.7,0,0.9,0.1s0.4,0.1,0.6,0.1s0.2,0.1,0.3,0.2s0.1,0.2,0,0.3L593.6,1273.6z"/>
	<path fill="#FFFFFF" d="M624.5,1244.6c0,0.1,0,0.2,0,0.4s0,0.3-0.1,0.5s-0.1,0.4-0.1,0.6s-0.1,0.4-0.2,0.6s-0.2,0.3-0.3,0.4
		s-0.3,0.2-0.4,0.2h-11.8l-1.9,9.5h10.2c0.2,0,0.3,0.1,0.4,0.2s0.1,0.3,0.1,0.6c0,0.1,0,0.2,0,0.4s-0.1,0.3-0.1,0.5
		s-0.1,0.4-0.1,0.6s-0.1,0.4-0.2,0.5s-0.2,0.3-0.3,0.4s-0.3,0.2-0.4,0.2h-10.2l-2.2,10.9h12.1c0.2,0,0.3,0.1,0.4,0.2
		s0.2,0.3,0.2,0.6c0,0.1,0,0.2,0,0.4s0,0.4-0.1,0.5s-0.1,0.4-0.1,0.6s-0.1,0.4-0.2,0.5s-0.2,0.3-0.3,0.4s-0.3,0.1-0.4,0.1h-14.6
		c-0.2,0-0.3,0-0.5-0.1s-0.3-0.1-0.4-0.3s-0.2-0.3-0.2-0.5s0-0.5,0-0.8l5.4-27c0.1-0.6,0.4-1,0.7-1.3s0.7-0.4,1.1-0.4H624
		C624.3,1243.8,624.5,1244.1,624.5,1244.6z"/>
	<path fill="#FFFFFF" d="M649.2,1272.5c0,0.3-0.1,0.6-0.3,0.8s-0.3,0.4-0.5,0.5s-0.4,0.2-0.6,0.3s-0.4,0.1-0.6,0.1h-1.5
		c-0.4,0-0.8,0-1-0.1s-0.5-0.3-0.7-0.5s-0.4-0.5-0.6-0.9s-0.3-0.8-0.5-1.4l-5.7-16.2c-0.4-1.2-0.8-2.3-1.2-3.5s-0.8-2.3-1.1-3.5h0
		c-0.2,1.3-0.4,2.6-0.7,3.8s-0.5,2.5-0.7,3.8l-3.5,17.7c0,0.1-0.1,0.2-0.2,0.3s-0.2,0.2-0.4,0.2s-0.4,0.1-0.6,0.1s-0.6,0.1-0.9,0.1
		s-0.7,0-0.9-0.1s-0.4-0.1-0.6-0.1s-0.2-0.1-0.2-0.2s0-0.2,0-0.3l5.6-28c0.1-0.6,0.4-1.1,0.8-1.3s0.8-0.4,1.2-0.4h1.9
		c0.4,0,0.7,0,1,0.1s0.5,0.2,0.7,0.4s0.4,0.5,0.5,0.8s0.3,0.7,0.5,1.2l5.7,16.4c0.4,1,0.7,2,1.1,3s0.7,2,1,3.1h0
		c0.2-1.3,0.5-2.6,0.7-4s0.5-2.7,0.8-4l3.3-16.4c0-0.1,0.1-0.2,0.2-0.3s0.2-0.2,0.4-0.2s0.4-0.1,0.6-0.1s0.6,0,0.9,0
		c0.4,0,0.7,0,0.9,0s0.4,0.1,0.6,0.1s0.2,0.1,0.3,0.2s0.1,0.2,0,0.3L649.2,1272.5z"/>
	<path fill="#FFFFFF" d="M677.1,1246.1c0,0.1,0,0.3,0,0.4s0,0.3-0.1,0.5s-0.1,0.4-0.1,0.6s-0.1,0.4-0.2,0.5s-0.2,0.3-0.3,0.4
		s-0.2,0.1-0.3,0.1c-0.2,0-0.4-0.1-0.7-0.3s-0.7-0.4-1.2-0.6s-1-0.4-1.7-0.6s-1.4-0.3-2.3-0.3c-1,0-1.8,0.1-2.5,0.4
		s-1.3,0.7-1.8,1.2s-0.8,1.1-1.1,1.7s-0.4,1.3-0.4,1.9c0,0.7,0.2,1.3,0.5,1.8s0.7,1,1.2,1.4s1.1,0.8,1.7,1.2s1.3,0.8,1.9,1.1
		s1.3,0.8,1.9,1.3s1.2,1,1.7,1.5s0.9,1.3,1.2,2s0.5,1.6,0.5,2.6c0,1.3-0.3,2.6-0.8,3.7s-1.3,2.2-2.3,3s-2.2,1.6-3.6,2.1
		s-3,0.8-4.8,0.8c-1,0-1.8-0.1-2.7-0.2s-1.6-0.4-2.2-0.6s-1.2-0.5-1.7-0.8s-0.8-0.5-1-0.7s-0.3-0.5-0.3-0.9c0-0.1,0-0.2,0-0.4
		s0.1-0.4,0.1-0.6s0.1-0.4,0.2-0.6s0.1-0.4,0.2-0.5s0.2-0.3,0.3-0.4s0.2-0.2,0.4-0.2c0.2,0,0.6,0.1,0.9,0.4s0.8,0.5,1.4,0.8
		s1.2,0.6,2,0.8s1.7,0.4,2.7,0.4c1.1,0,2.1-0.2,2.9-0.5s1.6-0.7,2.2-1.2s1-1.1,1.3-1.8s0.5-1.5,0.5-2.2c0-0.7-0.1-1.3-0.4-1.8
		s-0.7-1-1.2-1.4s-1-0.8-1.7-1.2s-1.3-0.7-1.9-1.1s-1.3-0.8-1.9-1.3s-1.2-1-1.7-1.5s-0.9-1.3-1.2-2s-0.5-1.6-0.5-2.7
		c0-1.2,0.2-2.4,0.7-3.5s1.2-2,2.1-2.8s2-1.5,3.2-1.9s2.7-0.7,4.2-0.7c0.8,0,1.5,0.1,2.1,0.2s1.3,0.3,1.8,0.5s1,0.4,1.4,0.6
		s0.7,0.4,0.8,0.5s0.2,0.3,0.3,0.4S677.1,1245.9,677.1,1246.1z"/>
	<path fill="#FFFFFF" d="M683.7,1273.6c0,0.1-0.1,0.2-0.2,0.3s-0.2,0.2-0.4,0.2s-0.4,0.1-0.7,0.1s-0.6,0.1-1,0.1c-0.4,0-0.7,0-1-0.1
		s-0.4-0.1-0.6-0.1s-0.2-0.1-0.3-0.2s-0.1-0.2,0-0.3l5.8-29.2c0-0.1,0.1-0.2,0.2-0.3s0.2-0.2,0.4-0.2s0.4-0.1,0.6-0.1
		s0.6-0.1,0.9-0.1s0.7,0,0.9,0.1s0.4,0.1,0.6,0.1s0.2,0.1,0.3,0.2s0.1,0.2,0,0.3L683.7,1273.6z"/>
	<path fill="#FFFFFF" d="M711.9,1246.1c0,0.1,0,0.3,0,0.4s0,0.3-0.1,0.5s-0.1,0.4-0.1,0.6s-0.1,0.4-0.2,0.5s-0.2,0.3-0.3,0.4
		s-0.2,0.1-0.3,0.1c-0.2,0-0.4-0.1-0.7-0.3s-0.7-0.4-1.2-0.6s-1-0.4-1.7-0.6s-1.4-0.3-2.3-0.3c-1,0-1.8,0.1-2.5,0.4
		s-1.3,0.7-1.8,1.2s-0.8,1.1-1.1,1.7s-0.4,1.3-0.4,1.9c0,0.7,0.2,1.3,0.5,1.8s0.7,1,1.2,1.4s1.1,0.8,1.7,1.2s1.3,0.8,1.9,1.1
		s1.3,0.8,1.9,1.3s1.2,1,1.7,1.5s0.9,1.3,1.2,2s0.5,1.6,0.5,2.6c0,1.3-0.3,2.6-0.8,3.7s-1.3,2.2-2.3,3s-2.2,1.6-3.6,2.1
		s-3,0.8-4.8,0.8c-1,0-1.8-0.1-2.7-0.2s-1.6-0.4-2.2-0.6s-1.2-0.5-1.7-0.8s-0.8-0.5-1-0.7s-0.3-0.5-0.3-0.9c0-0.1,0-0.2,0-0.4
		s0.1-0.4,0.1-0.6s0.1-0.4,0.2-0.6s0.1-0.4,0.2-0.5s0.2-0.3,0.3-0.4s0.2-0.2,0.4-0.2c0.2,0,0.6,0.1,0.9,0.4s0.8,0.5,1.4,0.8
		s1.2,0.6,2,0.8s1.7,0.4,2.7,0.4c1.1,0,2.1-0.2,2.9-0.5s1.6-0.7,2.2-1.2s1-1.1,1.3-1.8s0.5-1.5,0.5-2.2c0-0.7-0.1-1.3-0.4-1.8
		s-0.7-1-1.2-1.4s-1-0.8-1.7-1.2s-1.3-0.7-1.9-1.1s-1.3-0.8-1.9-1.3s-1.2-1-1.7-1.5s-0.9-1.3-1.2-2s-0.5-1.6-0.5-2.7
		c0-1.2,0.2-2.4,0.7-3.5s1.2-2,2.1-2.8s2-1.5,3.2-1.9s2.7-0.7,4.2-0.7c0.8,0,1.5,0.1,2.1,0.2s1.3,0.3,1.8,0.5s1,0.4,1.4,0.6
		s0.7,0.4,0.8,0.5s0.2,0.3,0.3,0.4S711.9,1245.9,711.9,1246.1z"/>
</g>
<g>
	<g>
		<g>
			<g>
				<path fill="#737F3C" d="M206.2,722.9c-22.2,43.9-20.2,101.5,4.9,143.5c4.3,7.2,9.3,14.1,15.9,18.8c13.7,9.9,33.1,9.7,43.5,23.7
					c5-40.3-4.3-82.6-25.5-115.8c-7.7-12-16.8-22.9-24.2-35.1c-7-11.5-12.4-24.1-16-37.3"/>
			</g>
			<g opacity="0.6">
				<g>
					<path fill="#657038" d="M263.9,888.9c-9.4-28.6-27.7-51.8-41.5-77.8c-6.7-12.7-13-26.7-16.5-41c-1.8-7.3-2.3-14.4-1.4-21.9
						c0.8-7,2-13.9,2.2-21c-0.3-0.8-0.5-1.7-0.8-2.5c-21.6,43.8-19.5,100.8,5.4,142.3c4.3,7.2,9.3,14.1,15.9,18.8
						c12.7,9.1,30.2,9.7,41,20.8C267.2,900.6,265.8,894.7,263.9,888.9z"/>
				</g>
			</g>
		</g>
		<g opacity="0.15">
			<g>
				<path fill="#9D887F" d="M205,739.9c-4.2,7.6-4.6,17.1-2.7,25.8c1.8,8.7,5.6,16.6,9.4,24.4c5.9,12.3,11.8,24.6,17.6,36.8
					c5,10.4,9.9,20.8,16.3,30.1c3.5,5.1,7.3,9.9,10.4,15.3c5.8,10.1,8.8,21.8,11.8,33.4c-0.2-12.9-5.3-25.1-11.5-36
					c-6.2-10.9-13.7-20.9-19.5-32c-3.3-6.4-6.1-13-8.9-19.7c-3.9-9.3-7.8-18.7-11.7-28c-4.3-10.4-8.7-20.8-11.9-31.7
					c-1.8-6.1-3.2-12.9-1.1-18.9c1-2.9,2.8-5.7,2.7-8.8"/>
			</g>
			<g>
				<g>
					<path fill="#9D887F" d="M204.5,739.6c-6.2,12.1-4,25.8,0.8,38c5.8,14.6,13.3,28.6,20.1,42.7c6.9,14.4,13.6,28.7,22.8,41.7
						c4.9,6.9,9.3,13.7,12.4,21.7c2.8,7.2,4.7,14.8,6.6,22.2c0.2,0.7,1.3,0.5,1.2-0.2c-0.5-14.9-6.7-28.4-14.3-41
						c-8.1-13.4-16.7-26-22.9-40.5c-6.7-15.5-13.3-31.1-19.5-46.7c-3-7.5-5.9-15.1-7.8-22.9c-1.2-5-1.8-10.2-0.2-15.2
						c1-3.1,2.5-5.6,2.7-9c0-0.8-1.2-0.8-1.2,0c-0.2,4.3-2.8,7.8-3.5,12c-0.4,2.7-0.3,5.4,0.1,8.1c1.2,8.1,4.3,16.1,7.3,23.8
						c5.9,15.3,12.5,30.3,18.8,45.4c5.9,14,13.1,26.7,21.3,39.6c9.1,14.2,17.4,29.2,17.9,46.4c0.4-0.1,0.8-0.1,1.2-0.2
						c-3.5-13.7-7.2-27.2-15.3-39c-8.5-12.4-15.9-24.7-22.4-38.3c-6.7-13.9-13.4-27.7-19.9-41.6c-6.8-14.4-13-31.2-5.1-46.5
						C205.9,739.5,204.8,738.8,204.5,739.6L204.5,739.6z"/>
				</g>
			</g>
		</g>
		<g opacity="0.6">
			<g>
				<path fill="#6F7E3F" d="M194.4,827.1c6.8,5.9,14.6,10.6,22.3,13.3c10.7,3.8,21,1.9,26.7-9.5c4.1-8.2,6.1-17.7,7.3-27.1
					c-2.1-4.1-4.4-8.1-6.9-12c-7.7-12-16.8-22.9-24.2-35.1c-6.4-10.5-11.4-21.9-15-33.9C189,754.3,185.7,792.6,194.4,827.1z"/>
			</g>
		</g>
	</g>
	<g>
		<g>
			<path fill="#737F3C" d="M318.2,659.9c-10.6-22.4-30.7-38.1-52.5-45.4c-21.8-7.3-45.2-7-67.7-3.3c-41.4,6.8-83.5,27-106.2,66
				c-6.6,11.3-11.6,24.3-21.2,32.5c18.7-1,37.3-2,56-3c12.7-0.7,25.4-1.4,38.1-1c23.4,0.7,46.6,5.1,70,5.2s47.8-4.7,66.6-20.2
				c10-8.2,18.5-21.3,16.2-34.8"/>
		</g>
		<g opacity="0.32">
			<g>
				<path fill="#6C7A3F" d="M265.4,614.5c-21.8-7.3-45.2-7-67.7-3.3c-10.1,1.7-20.2,4.1-30.1,7.4c0,2.3,0.3,4.6,0.9,6.9
					c2,8,7.5,13.8,13.4,18.5c8.4,6.8,22.1,11.5,26.7,22.7c3.7,9.1-1.3,18.8-6.3,26c-3.7,5.4-7.9,10.3-12.4,15
					c14.8,1.5,29.6,3.3,44.4,3.3c23.4,0.1,47.8-4.7,66.6-20.2c9.3-7.7,17.3-19.5,16.5-32C306.7,636.9,286.9,621.7,265.4,614.5z"/>
			</g>
		</g>
		<g opacity="0.6">
			<g>
				<path fill="#636E37" d="M123.7,680.9c34.9-15.4,71.9-24.3,109.3-27.7c20.3-1.8,41.1-3.2,61.5-2.5c7.5,0.3,13.7,2.3,20.2,6.6
					c0.9,0.6,1.9,1.3,2.8,1.9c0-0.2,0-0.3,0-0.5c-10.7-21.8-30.5-37-51.9-44.2c-21.8-7.3-45.2-7-67.7-3.3
					c-41.4,6.8-83.5,27-106.2,66c-5.9,10.2-10.7,21.8-18.6,30C89.9,698.6,106.3,688.6,123.7,680.9z"/>
			</g>
		</g>
		<g opacity="0.15">
			<g>
				<path fill="#9D887F" d="M322.1,661.6c-14.3-8.2-30.8-10.5-47-10.1s-32.1,3.4-48.1,5.3c-11.1,1.3-22.2,2.1-33.2,4.3
					c-9.8,2-19.3,5.1-28.8,8.4c-32.1,11.1-63.6,24.1-94.5,38.8c18.3-15.2,40.9-22.1,62.9-28.8c15.8-4.8,31.6-9.6,47.4-14.3
					c26.9-8.1,54.1-16.3,81.9-17.1c11.3-0.3,22.5,0.6,33.7,1.7c8.3,0.8,17.7,2.4,22.2,10.2"/>
			</g>
			<g>
				<g>
					<path fill="#9D887F" d="M322.4,661.1c-30.3-16.8-64.8-8.3-97.2-4.6c-16.9,1.9-33.3,3.8-49.6,8.9c-17,5.4-33.8,11.8-50.4,18.4
						c-18.6,7.4-36.9,15.5-55,24c0.3,0.3,0.5,0.7,0.8,1c25.6-20.9,60.1-27.9,91.1-37.3c33.4-10.1,67.4-22.3,102.7-22.9
						c10.3-0.2,20.5,0.6,30.8,1.6c8.5,0.8,17.7,2.2,22.7,10c0.4,0.7,1.5,0.1,1.1-0.6c-7.4-11.6-24.5-10.9-36.6-11.7
						c-18.5-1.2-36.7,0.1-54.8,3.9c-18.8,3.9-37.2,9.8-55.6,15.3c-17.8,5.4-35.7,10.5-53.4,16.3c-17.4,5.7-34.3,12.8-48.7,24.5
						c-0.6,0.5,0.2,1.3,0.8,1c31.3-14.8,63.4-28,96.1-39.3c16.4-5.6,32.6-9.2,49.9-11c16.9-1.8,33.6-4.8,50.5-6
						c18.7-1.3,37.7,0.4,54.4,9.6C322.5,662.6,323.1,661.5,322.4,661.1L322.4,661.1z"/>
				</g>
			</g>
		</g>
	</g>
	<g>
		<g>
			<g>
				<path fill="#6F7F35" d="M218.9,644.3c-9.5-12.6-11-29.4-7.7-44.3s11.1-28.4,19-41.4c28-46.4,59.5-92.6,69.2-146
					c2.2-12,3.2-24.3,2.3-36.6c-1.1-14.8-5-29.2-8.4-43.7c-6.3-26.5-10.7-55.5,1.4-79.4c-34.9,10.2-63.3,38-73.3,72
					c-3.6,12.3-4.9,25.3-6.2,38.1c-3.3,32.6-6.6,65.1-9.9,97.7c-2.2,21.6-4.4,43.1-4.5,64.9c-0.2,26.4,2.7,52.8,5.5,79.1
					c1.5,14.3,3.3,29.2,11.2,41.7"/>
			</g>
			<g opacity="0.6">
				<g>
					<path fill="#5E6736" d="M214.3,639.1c-0.8-2.4-1.4-4.8-1.9-7.2c-3.1-9.1-3.5-19.1-1.9-28.5c1.2-32.9,10.1-64.7,16.4-96.6
						c6.7-33.9,8.4-68.6,12.9-102.8c4.1-30.7,9.8-61.1,19-90.4c6.7-21.4,15.8-43.1,30.5-59.1c-32.6,11.3-58.6,38.1-68.1,70.4
						c-3.6,12.3-4.9,25.3-6.2,38.1c-3.3,32.6-6.6,65.1-9.9,97.7c-2.2,21.6-4.4,43.1-4.5,64.9c-0.2,26.4,2.7,52.8,5.5,79.1
						c1.5,13.5,3.1,27.5,9.9,39.5C215.4,642.3,214.8,640.6,214.3,639.1z"/>
				</g>
			</g>
		</g>
		<g opacity="0.15">
			<g>
				<path fill="#9D887F" d="M203.7,586.9c5.1-15.7,10.1-31.5,15.2-47.2c3.4-10.5,6.7-21,9-31.8c5.5-26.3,4.5-53.7,7.9-80.4
					c2.3-18.2,6.7-36,11-53.8c3.5-14.4,7-28.8,10.5-43.2c4.3-17.6,8.9-35.9,19.8-49.5c3.2-4,8.3-7.7,12.3-4.9
					c-9.5,5.1-16.5,14.7-21.2,25.2c-4.6,10.5-7.1,22-9.5,33.4c-2.1,9.6-4.1,19.2-6.2,28.8c-4.9,22.8-9.7,45.5-14.6,68.3
					c-3.3,15.2-6.5,30.5-8.1,46.1c-1,9.8-1.4,19.6-2.3,29.4c-3.1,30.8-12.8,60.8-28,86.9"/>
			</g>
			<g>
				<g>
					<path fill="#9D887F" d="M204.3,587c6.9-21.5,14.4-43,20.6-64.7c5.9-20.7,7.6-41.7,8.9-63.1c1.4-22.7,4.1-44.8,9.2-66.9
						c4.9-21.4,10.3-42.7,15.6-64.1c2.4-9.6,4.9-19.3,8.6-28.5c1.9-4.5,4-9,6.7-13.1c1.6-2.4,3.2-4.9,5.3-6.9c1.2-1.2,2.5-2.4,4.1-3
						c1.4-0.9,2.9-1.1,4.7-0.4c-0.4,0.3-0.8,0.5-1.2,0.8c-2.8,2.6-5.9,4.5-8.5,7.4c-2.8,3.1-5.2,6.6-7.2,10.2
						c-4.8,8.5-7.7,17.9-9.9,27.3c-5.3,21.8-9.5,43.9-14.2,65.8c-4.8,22.2-9.9,44.4-14.1,66.8c-4.5,24.4-4.1,49.4-9,73.8
						c-4.6,23-13,45.2-24.8,65.6c-0.4,0.7,0.7,1.3,1.1,0.6c10-17.3,17.6-36,22.5-55.4c5.3-20.9,5.8-41.9,8.1-63.1
						c2.6-23.4,8.4-46.4,13.3-69.4c4.8-22.6,9.7-45.3,14.5-67.9c4.8-22.3,9.5-49.8,31.3-62c0.4-0.2,0.4-0.9,0-1.1
						c-6.3-3.3-11.8,3-15.2,7.7c-5.7,8-9.4,17.2-12.3,26.5c-6.7,21.2-11.1,43.2-16.3,64.7c-5.4,22-10.3,43.9-12.2,66.5
						c-2,23.5-1.9,47.3-7.3,70.4c-6,25.5-15.4,50.5-23.4,75.4C202.9,587.5,204.1,587.8,204.3,587L204.3,587z"/>
				</g>
			</g>
		</g>
	</g>
	<g>
		<g>
			<path fill="#737F3C" d="M444.6,634.2c27.4-11.5,55.1-22.5,83.9-28.4c28.8-5.9,58.9-6.7,87.1,2.2c32.2,10.1,60.5,32.4,84.4,58.5
				c3.5,3.8,7.2,8.5,6.6,13.9c-5.4-1.9-10.9-3.9-16.5-3.8c-13.4,0.2-24.2,11.6-35.1,20.2c-22.5,17.6-51.3,25.2-78.5,20.7
				c-11.3-1.9-22.2-5.7-33-9.9c-7.9-3.1-15.8-6.4-23.2-10.7c-7.3-4.3-14.1-9.7-20.9-15c-19.1-15.1-38.3-30.2-57.4-45.3"/>
		</g>
		<g opacity="0.6">
			<g>
				<path fill="#6F7E3F" d="M576.2,698c-6.6-13.4-10.6-30.8-3.7-45.1c7.7-16.2,26.3-19.1,41-21.4c13.2-2,26.8-2.8,40.1-5.5
					c-12-7.8-24.6-14.1-38-18.3c-28.2-8.9-58.3-8.1-87.1-2.2c-28.8,5.9-56.5,16.9-83.9,28.4l-2.6,2.4c19.1,15.1,38.3,30.2,57.4,45.3
					c6.8,5.3,13.5,10.7,20.9,15c7.4,4.4,15.3,7.7,23.2,10.7c10.8,4.2,21.7,8,33,9.9c4.6,0.8,9.3,1.2,13.9,1.2
					C584.6,712.5,579.8,705.2,576.2,698z"/>
			</g>
		</g>
		<g opacity="0.6">
			<g>
				<path fill="#657039" d="M501.4,638.3c37.9,3.6,75.6,9.6,113.3,14.9c18.5,2.6,37.4,4.1,55.5,9.3c8.4,2.4,16.7,5.5,24.6,9.5
					c4.1,2.1,7.9,4.9,11.8,7.6c0.4-5.3-3.2-9.9-6.7-13.7c-23.9-26.1-52.1-48.4-84.4-58.5c-28.2-8.9-58.3-8.1-87.1-2.2
					c-28.8,5.9-56.5,16.9-83.9,28.4l-1.7,1.5C462.5,635.3,482,636.4,501.4,638.3z"/>
			</g>
		</g>
		<g opacity="0.15">
			<g>
				<path fill="#9D887F" d="M451.7,632.9c22.1,0.4,44.2,0.9,66.3,1.3c22.3,0.4,44.7,0.9,66.7,5.3c10.3,2,20.4,4.9,30.5,7.8
					c18.5,5.3,37.1,10.6,55.6,15.9c12.8,3.6,25.8,7.4,37.2,14.8c-5.9,1.5-11.5-2.7-16.8-5.9c-11-6.8-23.5-10-35.8-13.2
					c-13.8-3.5-27.7-7-41.5-10.6c-11-2.8-22.1-5.6-33.4-6.5c-9.7-0.8-19.4-0.2-29.1-1.4c-7.4-0.9-14.7-2.9-22.1-4.3
					c-13.4-2.5-27.2-3-40.8-1.5c-14.9,1.6-30.4,5.6-44.3-0.4c4-1,8-1.9,12-2.9"/>
			</g>
			<g>
				<g>
					<path fill="#9D887F" d="M451.7,633.5c33.8,0.7,67.9,0.3,101.7,2.6c35,2.4,68.3,13.6,101.9,23.2c17.8,5.1,36.6,9.1,52.4,19.1
						c0-0.4,0.1-0.8,0.1-1.1c-8.8,1.5-17.9-7.3-25.7-10.7c-7-3-14.3-5.2-21.6-7.1c-17.3-4.5-34.7-8.9-52-13.3
						c-8-2-16.1-3.8-24.3-4.8c-9-1-18-0.6-27-1.2c-9.4-0.6-18.5-3.1-27.7-4.8c-8.4-1.6-16.9-2.4-25.4-2.4
						c-19.6-0.1-40.8,8.1-59.7,0.5c0,0.4,0,0.8,0,1.2c4-1,8-1.9,12-2.9c0.8-0.2,0.5-1.4-0.3-1.2c-4,1-8,1.9-12,2.9
						c-0.7,0.2-0.5,1,0,1.2c16.3,6.5,33.6,1,50.3-0.1c9.7-0.7,19.4-0.3,29,1.1c9.1,1.3,17.9,3.9,27,5.1c8.7,1.2,17.5,0.8,26.3,1.3
						c9.8,0.5,19.3,2.4,28.8,4.7c17.8,4.3,35.4,8.9,53.1,13.5c9.8,2.5,19.6,5.3,28.5,10c6.7,3.6,13,9.6,21.1,8.2
						c0.6-0.1,0.6-0.9,0.1-1.1c-13.2-8.3-28.2-12.3-43.1-16.5c-17.2-4.9-34.5-9.8-51.7-14.8c-16.3-4.6-32.6-8.6-49.6-10.4
						c-17.2-1.8-34.5-2-51.7-2.3c-20.2-0.4-40.3-0.8-60.5-1.2C450.9,632.2,450.9,633.5,451.7,633.5L451.7,633.5z"/>
				</g>
			</g>
		</g>
	</g>
	<g>
		<g>
			<path fill="#707F3D" d="M401.3,679.2c-19.9,29.1-54.7,42.8-72.5,73.5c-5,8.7-8.5,18.3-11.9,27.9c-4.5,12.6-9,25.2-13.5,37.8
				c-2.7,7.6-5.4,15.2-7.2,23.2c-1.7,7.4-2.6,15-3.5,22.6c-3.7,31.9-7.4,63.7-11.1,95.6c14.5,0.4,27.2-10.3,37.8-21.4
				c46.2-48.5,78.6-117.7,72.7-188c-1-11.8-3.1-23.5-2.8-35.4c0.2-11.9,3.1-24.2,10.5-32.7"/>
		</g>
		<g opacity="0.6">
			<g>
				<path fill="#646C35" d="M321.4,907.2c11.8-16.9,22.6-35,29.7-54.9c3.7-10.3,6-21,8.5-31.7c2.9-12.5,5.8-25.1,8.7-37.6
					c5.8-24.4,12-48.8,19.5-72.6c2.4-7.6,4.6-15.5,8.2-22.6c-20.3,24.7-51.1,38.6-67.5,66.9c-5,8.7-8.5,18.3-11.9,27.9
					c-4.5,12.6-9,25.2-13.5,37.8c-2.7,7.6-5.4,15.2-7.2,23.2c-1.7,7.4-2.6,15-3.5,22.6c-3.6,31.2-7.3,62.4-10.9,93.6
					C294.9,942.2,308.8,925.3,321.4,907.2z"/>
			</g>
		</g>
	</g>
	<g opacity="0.15">
		<g>
			<path fill="#9D887F" d="M364.7,720.4c-3.2,11.9-6.2,23.9-9,36c-1.9,8-3.7,16-3.8,24.3c0,8.6,1.9,17.1,1.9,25.7
				c-0.1,17.8-8.7,34.2-11.6,51.7c-1.6,9.6-1.5,19.6-4.7,28.7c-2.1,6.2-5.7,11.6-9.4,16.8c-8.4,11.7-17.9,22.4-28.2,31.9
				c-7.1,6.5-14.8,12.7-19.1,21.6c17.2-16.9,29.4-39.1,44-58.8c3-4.1,6.2-8.1,8.7-12.6c3.7-6.7,5.8-14.4,7.8-21.9
				c3.2-11.8,6.4-23.7,9.5-35.5c2.2-8.1,4.4-16.2,4.8-24.6c0.7-14.5-3.7-29.1-1.7-43.4c2.1-14.7,11-27.4,13.1-42.2
				c-0.9-0.4-1.8-0.8-2.8-1.2"/>
		</g>
		<g>
			<g>
				<path fill="#9D887F" d="M364.1,720.2c-4.4,16.7-9.7,33.8-12.1,51c-1.2,8.8-0.3,17.2,0.6,26c0.9,9,0.3,17.6-1.9,26.5
					c-2,8.1-4.7,15.9-6.9,23.9c-2.1,7.7-3,15.4-3.9,23.3c-1.1,9.7-3.3,18.3-8.5,26.7c-4.7,7.5-10.2,14.4-16,21.1
					c-6.1,7-12.7,13.5-19.6,19.7c-6.1,5.5-11.9,11.1-15.7,18.5c-0.3,0.6,0.5,1.3,1,0.8c11.4-11.3,20.5-24.5,29.4-37.7
					c4.7-6.9,9.3-13.8,14.2-20.5c4.7-6.3,9.3-12.5,12.2-19.9c3.3-8.3,5.2-17.2,7.6-25.8c2.4-9,4.9-18,7.2-27
					c2.1-7.9,4.1-15.8,4.4-24c0.3-9.2-1.3-18.3-2-27.4c-0.7-10.3,0.7-19.9,4.3-29.6c3.4-9.1,7.4-17.8,9-27.4c0-0.2,0-0.6-0.3-0.7
					c-0.9-0.4-1.8-0.8-2.8-1.2c-0.7-0.3-1.4,0.8-0.6,1.1c3.8,1.6,1.1,7.3,0.1,10.4c-1.2,3.8-2.7,7.5-4.2,11.2
					c-2.9,7.2-5.7,14.4-6.7,22.2c-1.1,8.8,0.2,17.6,1.1,26.4c1,9.6,1,18.9-1,28.4c-3.6,17.2-8.8,34.2-13.5,51.2
					c-2.5,8.9-5.5,17.2-10.9,24.8c-4.6,6.5-9.4,12.9-13.9,19.5c-10.7,15.7-21,31.8-34.5,45.3c0.3,0.3,0.7,0.5,1,0.8
					c3.7-7.3,9.5-12.8,15.5-18.3c6.2-5.6,12.2-11.4,17.8-17.7c10.2-11.4,21.5-24.5,25-39.7c1.9-8.3,2-16.9,3.5-25.3
					c1.5-8.2,4.2-16,6.6-24c2.3-7.7,4.3-15.5,4.7-23.5c0.4-8.6-1.4-17.1-1.7-25.6c-0.4-10.8,2.3-21.2,4.8-31.6
					c2.5-10.4,5.2-20.8,7.9-31.2C365.5,719.8,364.3,719.4,364.1,720.2L364.1,720.2z"/>
			</g>
		</g>
	</g>
	<g>
		<g>
			<path fill="#737F3C" d="M453.3,679.4c19.5,5.1,38.6,11.9,57.1,20.3c16.6,7.6,33.2,16.9,44.6,32.2c5.4,7.3,9.5,15.7,13.5,24
				c5.8,12,11.6,24.1,17.4,36.1c3,6.3,6.1,12.6,8.5,19.2c7.4,20.2,8.6,42.5,14.8,63.1c5,16.6,13.3,31.9,24.1,44.7
				c-9.7-3.9-19.3-7.9-29-11.8c-7.1-2.9-14.4-5.9-20.3-11.2c-6-5.4-10.3-12.8-15.4-19.2c-7-8.8-15.7-15.7-24.1-22.9
				c-37.7-33-68.7-75.4-89.9-123.3c-5.1-11.4-9.6-23.3-11.2-36c-1.1-8.8-0.9-18.4-5.7-25.4"/>
		</g>
		<g opacity="0.6">
			<g>
				<path fill="#616C36" d="M619.8,903.7c-8.2-8.8-14.8-18.4-20.9-29c-5.9-10.2-12.8-18.7-21.2-26.5c-7.5-7-14.8-13.9-20.9-22.5
					c-13.4-18.5-23.6-39.5-37.6-57.4c-14.4-18.4-28.8-36.7-42.6-55.8c-6.8-9.4-13.1-19.3-20-28.6c-1.4-1.8-2.7-3.6-4.2-5.2
					l-14.6-9.6c4.8,7,4.7,16.6,5.7,25.4c1.6,12.6,6.1,24.5,11.2,36c21.2,47.8,52.2,90.3,89.9,123.3c8.3,7.3,17,14.2,24.1,22.9
					c5.1,6.4,9.4,13.9,15.4,19.2c5.9,5.3,13.2,8.3,20.3,11.2c9.7,3.9,19.3,7.9,29,11.8c-2-2.4-4-4.9-5.9-7.5
					C624.8,908.9,622.3,906.4,619.8,903.7z"/>
			</g>
		</g>
	</g>
	<g opacity="0.6">
		<g>
			<path fill="#6F7E3F" d="M327.9,798.2c0.3,1.1,0.6,2.2,1,3.3c0.2-0.4,0.4-0.7,0.5-1.1L327.9,798.2z"/>
		</g>
	</g>
	<g>
		<g>
			<path fill="#737F3C" d="M318.7,704.7c-28.4,1.3-58.3,3.5-82.2,20.6c-27.9,20-42.3,56.8-49,92.9c15.7,9.1,35.2,1.9,49.6-9.6
				c14.3-11.5,26-27,41.3-36.9c6.6-4.3,13.8-7.5,20.1-12.2c16.7-12.7,25.7-36.8,21.8-58.8"/>
		</g>
		<g opacity="0.6">
			<g>
				<path fill="#6F7E3F" d="M221.4,793.4c8.5-11.5,16.3-23.4,25.7-34.1c10.8-12.3,22.7-23.4,35.8-32.6c6.2-4.4,12.8-8.3,19.5-11.6
					c5.5-2.7,10.9-5.1,15.6-9.2c-28.3,1.3-58,3.5-81.8,20.6c-27.3,19.6-41.7,55.2-48.5,90.6C201.8,815.6,212.4,805.5,221.4,793.4z"
					/>
			</g>
		</g>
	</g>
	<g>
		<g>
			<g>
				<path fill="#CCC49C" d="M405.1,672c-13.9,9.9-31.2,12.3-47.7,11c-16.5-1.3-32.6-5.8-48.9-8.5c-24.5-4.1-50.3-4.4-72.3-17.1
					c-5-2.9-9.8-6.4-14.7-9.4c-1.2,2.3,1.1,4.8,3.2,6.1c42.7,27.3,93.9,31.4,143.1,34.9c-6.9-0.3-14.3-0.4-20.3,3.4
					c-2.1,1.3-3.9,3.1-6,4.4c-6,4-13.2,4.8-19.9,7.1c-6.7,2.3-13.5,7.3-14.6,15c5.5-6.7,12.8-11.5,20.7-13.8
					c6.1-1.8,12.7-2.1,18.2-5.3c2.7-1.6,5.1-3.8,7.8-5.3c5.9-3.4,12.9-3.4,19.6-4c10.8-0.9,21.4-3.3,31.6-7.2c1.1-0.4,2.2-0.9,3-1.8
					c2.6-3,0.1-7.9-2.4-11.1"/>
			</g>
			<g>
				<g>
					<path fill="#CCC49C" d="M404.5,670.9c-29,20-64.1,7.6-95.6,2.4c-14.6-2.4-29.3-3.5-43.8-6.6c-7.6-1.6-15.1-3.9-22.2-7.2
						c-7.4-3.4-13.9-8.3-20.8-12.6c-0.7-0.4-1.6,0-1.8,0.7c-1.3,4.7,3.3,7.2,6.7,9.3c5.9,3.6,12,6.8,18.3,9.6
						c12.5,5.7,25.6,9.9,39,13c27.4,6.4,55.5,8.6,83.5,10.5c0-0.8,0-1.7,0-2.5c-6.1-0.2-12.4-0.4-18.1,2.1c-2.9,1.3-5.2,3.3-7.8,5.1
						c-3.4,2.5-7.2,3.9-11.2,5.1c-10.4,3-22.6,6.2-24.9,18.6c-0.2,1.1,1.2,2.3,2.1,1.2c3.7-4.4,8.1-8.1,13.3-10.8
						c5.4-2.8,11.2-3.6,17.1-5c5.2-1.3,9.2-3.7,13.5-6.8c5.5-3.9,11.6-4.8,18.2-5.3c11.2-0.8,22.1-2.7,32.8-6.5
						c3-1.1,6.3-1.9,7.3-5.3c1.1-3.7-1.3-7.6-3.4-10.4c-1-1.3-3.1,0-2.2,1.3c0.6,0.8,1.1,1.5,1.6,2.3c1.6,2.7,1.8,3.3,0,6.2
						c-1.9,3.2-4.1,3.5-7.5,4.6c-5.2,1.7-10.5,2.9-15.8,3.8c-9.2,1.5-19.7,0.4-28.2,4.5c-4.4,2.1-7.7,5.7-12.3,7.5
						c-4.8,1.9-10,2.4-14.9,3.8c-8.4,2.4-15.6,7.5-21.3,14.2c0.7,0.4,1.4,0.8,2.1,1.2c2.5-13.6,17.3-14.4,27.8-18.3
						c4.7-1.8,7.9-5,12.1-7.5c6-3.6,12.9-3.5,19.7-3.2c1.6,0.1,1.6-2.4,0-2.5c-25.2-1.8-50.5-3.7-75.3-8.8
						c-11.9-2.5-23.7-5.7-35.2-10c-6.3-2.4-12.5-5.1-18.4-8.2c-3.4-1.7-17.5-7.6-16.1-12.4c-0.6,0.2-1.2,0.5-1.8,0.7
						c7.1,4.5,13.9,9.5,21.6,13c7,3.2,14.5,5.4,22,7.1c15.7,3.4,31.8,4.4,47.5,7.3c31,5.6,65.4,16.3,93.8-3.3
						C407,672.2,405.8,670,404.5,670.9L404.5,670.9z"/>
				</g>
			</g>
		</g>
		<g>
			<g>
				<path fill="#CCC49C" d="M207.2,727c0.6-3.7-1.2-7.4-1.5-11.2c-0.8-9.4,7.5-16.5,14.9-21c16.1-9.8,33.4-17.3,51.2-22.3
					c5.8-1.6,13.5-2.1,16.2,3.9c-11.8-2.2-23.7,2.3-34.9,6.9c-6.2,2.6-12.3,5.2-18.5,8c-4.4,2-8.8,4-12.5,7.1
					c-8.2,6.9-12.3,18.3-15.9,29"/>
			</g>
			<g>
				<g>
					<path fill="#CCC49C" d="M208.5,727c0.4-4.4-1.6-8.3-1.5-12.7c0.1-5,3-9.3,6.5-12.6c6.2-5.9,14.6-9.9,22.1-13.8
						c8.5-4.3,17.3-8,26.3-11c6.7-2.3,20.4-8.5,25.1,0.1c0.5-0.6,0.9-1.2,1.4-1.8c-18.8-2.9-37.7,7.5-54.4,15
						c-7.2,3.3-13.7,7-18.4,13.5c-5,7-7.8,15.3-10.6,23.3c-0.5,1.5,1.9,2.2,2.4,0.7c2.4-7.2,4.9-14.5,9.1-20.9
						c4.6-7.1,11.2-11.1,18.8-14.5c15.9-7.1,34.5-17.6,52.4-14.8c1.1,0.2,2-0.8,1.4-1.8c-3.7-6.9-12-6-18.5-4.2
						c-11.4,3.2-22.4,7.5-33,12.6c-9.2,4.5-19.7,9.3-26.9,16.8c-2.9,3-5.3,6.7-6,10.9c-0.9,5.2,1.7,10,1.3,15.1
						C205.9,728.6,208.4,728.6,208.5,727L208.5,727z"/>
				</g>
			</g>
		</g>
	</g>
	<g>
		<g>
			<path fill="#737F3C" d="M395.8,688.9c-2.8,11.8-10.7,21.1-17.1,31c-12.5,19.3-20,42.6-21.4,66.3c-0.5,8.4-0.3,17.1-2.9,25.1
				c-2.6,8-7.9,14.6-10.7,22.6c-3.5,10.2-2.5,21.6-1,32.3c5,37,14.2,73.3,27.5,107.7c26.4-29.6,36.1-72.5,42.8-113.5
				c2.5-15.2,4.8-30.6,4.6-46.1c-0.2-20.5-4.6-40.6-9-60.4c-5.5-24.9-10.9-49.7-16.4-74.6"/>
		</g>
		<g opacity="0.6">
			<g>
				<path fill="#6F7E3F" d="M373.1,970.4c2.3-8,3.9-16.3,4-25c0.2-10.7-0.9-21.4-1-32.2c-0.1-11.9,1-23.8,2-35.7
					c1-11.8,1.8-23.7,1.3-35.6c-0.5-11.9-1.2-23.9-1.5-35.8c-0.4-11.7-0.3-23.5,0.7-35.2c0.9-10.6,2.8-21.1,4.6-31.6
					c2.1-12.9,4.4-25.9,7.9-38.5c-3.6,6.6-8.2,12.7-12.3,19c-12.5,19.3-20,42.6-21.4,66.3c-0.5,8.4-0.3,17.1-2.9,25.1
					c-2.6,8-7.9,14.6-10.7,22.6c-3.5,10.2-2.5,21.6-1,32.3c5,37,14.2,73.3,27.5,107.7C371.2,972.7,372.2,971.6,373.1,970.4z"/>
			</g>
		</g>
	</g>
	<g>
		<g>
			<path fill="#161618" d="M400.7,758.9c-8.2,0.7-14.6,9.2-16.4,18.1s-0.1,18.3,1.7,27.2c0.9,4.6,2,9.3,4.4,13.2
				c4.5,7.4,13.6,10.4,21.4,8.4s14.3-8.5,18.2-16.3c7.1-14.2,5.7-33.2-3.5-45.9c-0.5-0.7-2-1.1-1.9-0.2"/>
		</g>
		<g opacity="0.35">
			<g>
				<path fill="#3D3227" d="M423.2,770.8c0.1,0.7,0.1,1.5,0,2.4c-0.6,5-1.2,10.2-2.3,15.2c-0.9,3.9-3.8,3.8-7,3.1
					c-6-1.2-11.9-5.1-18.1-4.8c-0.2,0-0.4-0.1-0.5-0.2c-3,1.2-5.8,4.8-5.3,8.7c0.5,4,4,6.3,5.1,10.1c0.5,1.6,0.5,3.3,0.9,4.9
					c1.3,5.8,6.5,8.9,11.2,8.7c5.9-0.2,11.4-4.6,15.1-10.5c3.7-5.9,5.9-13.1,7.5-20.5c0.4-2,0.8-4.1,0.8-6.3
					C430.5,776.4,427.1,771.9,423.2,770.8z"/>
			</g>
		</g>
		<g opacity="0.35">
			<g>
				<path fill="#CDC8C3" d="M415.7,768.9c-3.9-0.3-7.8-1.7-11.7-0.9c-3.9,0.8-7.5,5.3-5.8,9.3c0.8,2,2.7,3.1,4.5,4.1
					c2.8,1.6,5.6,3.2,8.4,4.7c1.2,0.7,2.4,1.4,3.8,1.4s2.8-0.9,3-2.3c0.3-1.7-1-3.2-1.1-5c-0.1-2.6,2.9-4.5,2.9-7.1
					c0-3.1-3.6-4.2-6.4-4.3"/>
			</g>
			<g>
				<g>
					<path fill="#CDC8C3" d="M415.7,766.4c-7.2-0.7-16.8-3.1-19.9,5.9c-3.1,8.8,8.6,13.3,14.6,16.3c2.8,1.4,6.1,2.2,8.5-0.3
						c1-1.1,1.5-2.3,1.5-3.7c0-2.8-1.3-3.6,0-6.6c1.2-2.7,2.7-5.2,0.7-8.1c-1.8-2.6-4.9-3.3-7.8-3.6c-3.2-0.3-3.2,4.7,0,5
						c2,0.2,4.2,0.6,3.5,3c-0.5,1.5-1.8,2.7-2.2,4.2c-0.4,1.6,0.3,2.7,0.3,4.3c0,1.5-0.1,2-1.6,1.7c-1.1-0.2-2.8-1.5-3.7-2
						c-3.4-1.9-11.7-4.9-8.1-9.9c3.1-4.3,10-1.6,14.3-1.2C418.9,771.8,418.9,766.8,415.7,766.4L415.7,766.4z"/>
				</g>
			</g>
		</g>
		<g>
			<path fill="#CDCAB5" d="M405,733.1c-0.4,8.7-3.3,17.3-8.3,24c-0.8,1.1-1.7,2.5-1,3.7c0.4,0.7,1.2,1,2,1.1c3.9,0.6,7.8-1,11.7-0.6
				c2.9,0.2,5.7,1.5,7.9,3.7c1.1,1,2.1,2.3,3.5,2.8c2.3,0.8,5-1.8,4.6-4.4c-0.3-2.5-2.6-4.1-4.7-5s-4.5-1.8-5.7-4
				c-1-1.9-0.9-4.2-0.8-6.3c0.4-9.7-0.4-19.5-2.4-29c-0.6,0.1-1.2,0.6-1.3,1.3"/>
		</g>
		<g opacity="0.54">
			<g>
				<path fill="#B6AC80" d="M409.4,756.7c2.9-3.6,1.1-7.3,0.8-11.4c-0.2-2.5,0.5-4.3,1.8-6.1c-2.5-2.1-3.5-4.9-2.9-8.5
					c0.4-2.2,1.3-4.3,2-6.3c0.4-1,1-2.4,0.9-3.5c0-0.1,0-0.2-0.1-0.3c-0.1-0.3-0.2-0.5-0.5-0.7c-0.5,0.2-0.9,0.7-1,1.2L405,734
					c-0.4,8.7-3.3,17.3-8.3,24c-0.6,0.8-1.2,1.8-1.2,2.7C400.3,762,406.2,760.6,409.4,756.7z"/>
			</g>
		</g>
	</g>
	<g>
		<g>
			<path fill="#161618" d="M354.3,723.4c-5.1,0.8-10.3,1.6-14.8,4.3c-5.7,3.4-9.9,9.7-11.9,16.5c-2,6.9-2,14.4-0.7,21.5
				c1.5,8.4,5.3,17,12.4,20.4c5.6,2.7,12.3,1.4,17.6-1.9c5.3-3.3,9.5-8.5,13.3-13.8c4.3-6.1,8.3-12.9,8.9-20.6
				c0.6-7.7-3.2-16.3-10-18.1"/>
		</g>
		<g opacity="0.35">
			<g>
				<path fill="#3D3227" d="M376,751.3c-3.4,1.6-8.1,0.6-11.1-1.6c-2.5-1.8-5.8-7.9-9.3-3.2c-1.3,1.7-1,4.5-2.2,6.4
					c-3.7,6.1-10.9,3.8-15.3,0.3c-3.6-2.8-7.2-7-10.8-7.3c-1.7,6.6-1.6,13.7-0.4,20.4c1.5,8.4,5.3,17,12.4,20.4
					c5.6,2.7,12.3,1.4,17.6-1.9c5.3-3.3,9.5-8.5,13.3-13.8c4.3-6.1,8.3-12.9,8.9-20.6c0-0.5,0.1-0.9,0.1-1.4
					C378.3,749.9,377.3,750.7,376,751.3z"/>
			</g>
		</g>
		<g opacity="0.1">
			<g>
				<path fill="#CDC8C3" d="M356.6,738.1c-2.6-1.1-5.4-2.2-8.1-1.5c-2.7,0.7-5.1,4-3.9,6.9c0.8,1.9,3,3.5,2.5,5.5
					c-0.1,0.5-0.4,0.9-0.5,1.4c-0.2,1.1,0.5,2.2,1.4,2.6s2,0.4,2.9,0.4c0.8-2.1,0.9-4.5,1.5-6.7c0.7-2.2,2.3-4.4,4.4-4.3
					c2,0.1,3.4,2.1,4.7,3.8s3.4,3.3,5.1,2.3c0.7-1.6,0.2-3.6-0.7-5.1c-1-1.4-2.4-2.4-3.8-3.3c-3.4-2.3-6.8-4.5-10.2-6.6
					c-1.5-1-3.1-1.9-4.9-1.9c-1.7,0.1-3.5,1.7-3.3,3.6c0.3,2.5,3.7,3.9,3.3,6.4c1.4-0.5,2.6-1.7,3.2-3.2c-0.3,1.1-0.8,2.1-1.6,2.9"
					/>
			</g>
			<g>
				<g>
					<path fill="#CDC8C3" d="M357.3,735.7c-5.8-2.4-15.5-2.6-15.5,6.1c0,1.6,0.6,2.6,1.2,4c1,2,0.7,3.8,1.2,5.9
						c0.7,3.3,3.8,4.1,6.8,4.1c1.1,0,2.1-0.8,2.4-1.8c0.5-1.7,0.5-3.8,1.2-5.4c0.4-1.1,2.1-3.3,3.6-2.7c0.7,0.3,1.5,1.9,2.1,2.5
						c2,2.1,4.2,3.3,7.1,2.5c0.8-0.2,1.5-0.9,1.7-1.7c1-4-0.5-7.2-3.6-9.8c-4.2-3.4-9.8-7.5-14.9-9.6c-3.2-1.3-6.9-0.8-8.6,2.5
						c-0.7,1.5-0.8,3-0.3,4.5c0.6,1.6,2.8,3.1,3,4.7c0.1,2,2,3,3.8,2.2c1.9-0.9,3.1-2.2,4.1-4.1c-1.5-0.6-3-1.3-4.6-1.9
						c-0.3,0.9-0.7,1.7-1.3,2.3c-1.9,2.6,2.4,5.1,4.3,2.5c0.8-1.1,1.3-2.2,1.8-3.5c0.9-2.7-3.3-4.5-4.6-1.9c-0.4,1.2-1.1,2-2.3,2.3
						c1.3,0.7,2.5,1.4,3.8,2.2c-0.1-1.4-0.4-2.4-1.1-3.6c-0.2-0.3-1.4-1.5-1.4-1.8c0.3-2.1,3.6-0.7,4.4-0.2c3.2,2,14.1,7,12.9,11.8
						c0.6-0.6,1.2-1.2,1.7-1.7c-1.8,0.5-4.4-4-5.8-5c-1.6-1.2-3.6-1.6-5.6-0.8c-5,1.9-4.9,8.2-6.2,12.4c0.8-0.6,1.6-1.2,2.4-1.8
						c-1.5,0-1.8-4.8-2.5-6c-1.3-2.2-2.1-3.6,0.3-5.2c2.3-1.6,5-0.1,7.3,0.8C358.9,741.7,360.2,736.9,357.3,735.7L357.3,735.7z"/>
				</g>
			</g>
		</g>
		<g>
			<path fill="#CDCAB5" d="M374.6,693c-0.8,1.4-2,2.4-3,3.6c-2.5,2.9-3.5,6.9-4.7,10.6c-2,6.2-5.2,12.8-10.9,14.6
				c-1.4,0.4-3.1,0.7-3.8,2.1c-1.2,2,0.7,4.8,2.8,5.4c2.1,0.6,4.4,0,6.5,0.4c3.4,0.6,6.3,3.9,6.8,7.7c0.1,0.9,0.1,1.8,0.5,2.6
				c0.9,1.9,3.7,1.8,5,0.2c1.4-1.5,1.7-3.9,1.7-6c0.2-7.5-1.7-14.9-1.6-22.5s3.2-15.9,9.6-18.3"/>
		</g>
		<g opacity="0.54">
			<g>
				<path fill="#B6AC80" d="M364.1,724.8c3.8-3.9,5.6-9.8,7.5-15c2-5.5,4.1-11.6,7.7-15.9l-5-0.3c-0.8,1.4-2,2.4-3,3.6
					c-2.5,2.9-3.5,6.9-4.7,10.6c-2,6.2-5.2,12.8-10.9,14.6c-1.4,0.4-3.1,0.7-3.8,2.1c-0.4,0.8-0.4,1.6-0.2,2.4
					C355.9,728.4,360.4,728.5,364.1,724.8z"/>
			</g>
		</g>
	</g>
	<g>
		<g>
			<path fill="#3D3227" d="M411.6,648.6c3.2,0,3.2-5,0-5C408.4,643.6,408.4,648.6,411.6,648.6L411.6,648.6z"/>
		</g>
	</g>
	<g>
		<g>
			<path fill="#6F7F35" d="M414.8,578.6c-2.1-66.1-4.1-132.3-6.2-198.4c-0.7-21.2-1.3-42.6,2.2-63.5c3.5-20.9,11.6-41.4,25.9-55.5
				c9.3-9.2,20.8-15.2,32.1-21.1c-6.7,13.8-7.5,30.1-7.3,45.7c0.3,30.8,3.7,61.5,2.5,92.3c-2.9,70-30,135.5-47.4,202.8"/>
		</g>
		<g opacity="0.6">
			<g>
				<path fill="#5F6936" d="M427.6,511.3c3.3-12.5,6.5-25,8.9-37.8c2.6-14.2,3.4-28.7,3.3-43.2c-0.1-13.8-0.9-27.6-1.7-41.4
					c-0.8-13.8-2-27.6-1.1-41.4c0.9-12.8,3.1-25.4,6.3-37.7c3.3-12.7,8.4-24.4,12.2-36.8c3.5-11.3,6.1-22.9,12.3-32.9
					c-10.7,5.6-21.4,11.4-30.2,20.1c-14.3,14.1-22.4,34.6-25.9,55.5c-3.5,20.9-2.9,42.3-2.2,63.5c1.9,62.2,3.9,124.4,5.8,186.7
					C418,547.4,422.9,529.3,427.6,511.3z"/>
			</g>
		</g>
	</g>
	<g>
		<g>
			<path fill="#CCC49C" d="M417.2,627.3c0.6-3.7-1.4-7.4-4.2-9.6c-2.7-2.2-6.1-3.2-9.4-4.2c-0.5-0.1-0.9-0.3-1.3-0.7
				c-0.4-0.4-0.5-1.1-0.5-1.7c-0.2-2.4-0.5-4.8-0.7-7.2c6.5,3,12.8,6.5,18.8,10.5c-3.2-5.4-6.4-11.1-7.8-17.4
				c-1.4-6.7-0.7-13.8,0.1-20.6c0.1-0.9,0.2-1.9,0.8-2.6s1.8-0.7,2.1,0.1c-1.1,5.4-2.2,11.1-0.7,16.3c0.9,3.1,2.7,5.7,4,8.7
				c3,6.9,2.6,15.4-0.8,22c-1.1,2.2-2.6,4.7-1.7,6.9c0.4,1.1,1.4,1.9,1.9,2.9c0.9,1.9,0.3,4.2-0.4,6.2c-1.7,5.1-3.6,10.2-5.7,15.1"
				/>
		</g>
		<g>
			<g>
				<path fill="#CCC49C" d="M418.5,627.3c0.2-4.3-1.5-8-4.8-10.7c-1.6-1.3-3.5-2.2-5.5-2.9c-2.6-1-3.9-0.7-5.2-4.3
					c-0.6-1.6-0.4-3.8-0.5-5.4c-0.6,0.4-1.3,0.7-1.9,1.1c6.5,3,12.8,6.5,18.8,10.5c1.1,0.7,2.3-0.7,1.7-1.7c-2.8-4.6-5.5-9.4-7-14.6
					c-1.7-5.6-1.6-11.4-1.1-17.2c0.1-1.3,0.2-2.5,0.4-3.8c0.2-1.7,0.6-4.2,0-1.1c-0.4,2.2-0.7,4.5-0.7,6.7c-0.1,4.1,1,7.7,2.8,11.3
					c2.4,4.8,4.1,9.3,3.9,14.8c-0.2,5.4-2.9,9-4.4,14c-1.3,4.3,2.2,6.8,1.9,11.1c-0.4,5.2-4,11.6-6,16.3c-0.6,1.5,1.5,2.7,2.2,1.3
					c2.4-5.7,6-12.3,6.6-18.5c0.2-1.9-0.3-2.8-0.8-4.5c-0.3-0.5-0.6-1-1-1.4c-0.5-2.2-0.3-4.2,0.8-6c0.3-0.8,0.8-1.6,1.2-2.4
					c2.2-5.2,2.8-11.1,1.6-16.6c-1.5-6.8-6.2-12-6.2-19.2c0-2,0.3-4.1,0.7-6.1c0.2-0.9,1-3,0.8-3.9c-0.2-0.8-0.7-1.5-1.5-1.8
					c-3.2-1.1-3.8,3.2-4.1,5.2c-0.8,6.6-1.3,13.5,0.1,20c1.4,6.4,4.6,12.1,7.9,17.7c0.6-0.6,1.1-1.1,1.7-1.7
					c-6-4-12.3-7.5-18.8-10.5c-0.8-0.4-2,0-1.9,1.1c0.3,3.1-0.4,8.4,2.5,10.4c1.8,1.2,4.4,1.5,6.3,2.3c4.4,2,7.5,5.5,7.2,10.7
					C415.9,628.9,418.4,628.9,418.5,627.3L418.5,627.3z"/>
			</g>
		</g>
	</g>
	<g>
		<path fill="#161618" d="M399.2,605c1.3-3.5,0.7-7.5-0.9-10.8s-4-6-6.6-8.4c-3.1-2.9-6.4-5.6-10.2-6.9c-7.3-2.4-15.2,0.6-21.9,4.6
			c-3.4,2-6.8,4.5-8.8,8.2c-3.4,6.4-1.4,15,3.2,20.4s11.2,8,17.7,9.4c6.2,1.4,12.9,1.8,18.7-1s10.5-9.5,9.7-16.5"/>
	</g>
	<g opacity="0.35">
		<g>
			<path fill="#3D3227" d="M400.1,603.9l-0.9,1.1c1.3-3.5,0.7-7.5-0.9-10.8c-1.6-3.3-4-6-6.6-8.4c-3.1-2.9-6.4-5.6-10.2-6.9
				c-3.1-1-6.3-1.1-9.4-0.5c-0.5,4.9,3.9,15,4.4,17.6c1.2,5.5,1,11.5-4.5,13.8c-8.2,3.4-17.1-1.6-22-8.9c-0.3-0.5-0.6-1-0.9-1.5
				c0.1,4.6,2,9.3,4.9,12.6c4.6,5.4,11.2,8,17.7,9.4c6.2,1.4,12.9,1.8,18.7-1C396.2,617.6,400.9,610.9,400.1,603.9z"/>
		</g>
	</g>
	<g>
		<g>
			<path fill="#CCC49C" d="M208.6,706.5c-2.4,3.3-3.9,7.4-4.3,11.6c-0.2,2-0.1,3.9-0.2,5.9c-0.3,4.3-1.7,8.5-3,12.5
				c-1.5,4.7-3.1,9.4-4.6,14.2c-0.1,0.4-0.3,0.8-0.2,1.2c0,1.9,2.8,2.1,3.8,0.7c1.1-1.4,1-3.5,1.2-5.3c0.2-1.8,1.1-4,2.7-4.2
				c1.5-0.2,2.7,1.2,3.9,2.3c1.2,1,3.3,1.5,4,0c0.6-1.3-0.4-2.7-1.2-3.9c-3.4-4.9-3.1-11.6-2.7-17.8c0.1-2.1,0.3-4.2,1.3-6
				c0.4-0.6,0.8-1.2,0.9-2c0.2-1.4-1.1-2.7-2.4-2.8c-1.3-0.1-2.5,0.6-3.7,1.3"/>
		</g>
		<g>
			<g>
				<path fill="#CCC49C" d="M208.1,706.2c-3.9,5.8-4,11.2-4.6,17.9c-0.7,7.9-4,15.5-6.4,23c-0.7,2.1-3.1,7.1,1.2,7.1
					c4.3,0,2.7-5.6,3.9-7.8c3-5.5,7.4,3.7,10.3-0.5c0.7-1,0.1-2.4-0.3-3.4c-1.6-4-3.3-6.4-3.6-11c-0.2-3-0.2-6.4,0.3-9.4
					c0.2-1.5,2.1-4.7,2.1-6.6c0.1-4.2-4.7-3.2-7-1.9c-0.7,0.4-0.1,1.5,0.6,1.1c1.4,0.9,2.8,1.7,4.3,2.6c-0.2,0.5-0.4,0.9-0.6,1.4
					c0,0.5-0.3,1.2-0.4,1.6c-0.3,1.6-0.3,3.2-0.4,4.8c-0.2,3.9-0.3,7.9,0.8,11.7c0.3,1.1,1.7,3.1,1.8,4.2c0.1,1.3-1.5,2.7-2.8,2.5
					c-0.2,0-0.8-0.7-1.1-0.8c-1.7-0.3-2.6-0.7-4,0.8c-0.5,0.6-0.9,1.5-1.1,2.3c-0.1,0.4-0.1,0.9-0.2,1.3c-0.4,0.9-2,4.3-3.6,3.6
					c-0.2-0.1,4.2-13,4.6-14.2c1.4-4.5,2.8-9,3-13.7c0.4-6,0.9-11.1,4.4-16.3C209.6,706.1,208.5,705.5,208.1,706.2L208.1,706.2z"/>
			</g>
		</g>
	</g>
	<g>
		<g>
			<path fill="#CCC49C" d="M226.1,652.8c-5.3-6.9-9.2-15.2-11.4-24c-1.5-5.9-2.1-12.1-2.8-18.2c-0.7-6.3-1.3-12.9,0.6-18.9
				c0.6-1.9,1.4-3.7,1.6-5.6c0.2-2-0.5-4.2-2.1-5c-1.7-0.8-3.7,0.2-4.8,1.9c-1,1.7-1.3,3.8-1.5,5.8c-1.1,13.7,1.2,27.4,3.4,40.9
				c0.6,3.7,1.3,7.4,2.7,10.8c2.5,5.6,7.1,9.7,11.5,13.5c0.4,0.3,0.8,0.7,1.3,0.6c1.1-0.2,1-2,0.5-3.1c-0.9-1.9-2-3.6-3.5-5.1"/>
		</g>
		<g>
			<g>
				<path fill="#CCC49C" d="M226.7,652.5c-5.7-7.7-9.7-16.3-11.7-25.6c-2.1-9.7-4.3-21.7-2.6-31.6c0.6-3.7,5.2-12.1,0-14.7
					c-5-2.5-6.9,5-7.2,8.3c-1,9.8,0.2,19.8,1.6,29.5c1.2,8.3,1.7,18.1,6.2,25.5c2,3.3,4.8,6,7.6,8.6c0.9,0.8,2.8,3.3,4.4,2.9
					c4.1-0.9-1.7-8.1-2.7-9.2c-0.5-0.6-1.4,0.3-0.9,0.9c0.5,0.5,5,4.8,1.3,5.6c-0.5,0.1-2.6-2.4-3-2.7c-2.3-2.2-4.5-4.6-6.1-7.4
					c-3.2-5.6-3.8-12.4-4.8-18.6c-1.2-7.4-2.2-14.8-2.6-22.2c-0.2-3.3-0.2-6.5,0-9.8c0.1-1.6-0.2-4.3,0.6-5.8
					c4.9-3.8,7.1-3.9,6.5-0.3c0.1,1.1,0,2.1-0.4,3.2c-1.2,5.2-2.4,9.5-2.1,14.9c0.3,5.7,1,11.5,1.8,17.2c1.8,11.8,5.9,22.7,13,32.3
					C226.1,653.7,227.2,653.1,226.7,652.5L226.7,652.5z"/>
			</g>
		</g>
	</g>
	<g>
		<g>
			<path fill="#CCC49C" d="M411.9,579.8c0.6,0.3,1.1-0.6,1.2-1.4c0.8-7.1,0.8-14.3,0-21.4c2.5,1.8,2.8,5.5,3.2,8.8
				c0,0.4,0.1,0.9,0.3,1.2c0.5,0.6,1.4,0.5,1.9-0.1c0.5-0.6,0.7-1.4,0.8-2.1c0.8-4.9,0.7-10.6,4.1-13.7c0.5-0.4,1.1-0.8,1.7-0.6
				c0.8,0.3,1,1.5,0.9,2.4c-0.2,4.1-2,7.9-3.7,11.5c-2.9,6.2-5.9,12.6-10.8,17c1.2-3,1.8-6.3,1.7-9.6"/>
		</g>
		<g>
			<g>
				<path fill="#CCC49C" d="M411.9,580.4c1.9-0.1,1.8-2.4,2-3.9c0.6-6.5,0.5-13-0.2-19.4c-0.4,0.1-0.7,0.3-1.1,0.4
					c2.1,2,2.3,4.2,2.8,6.9c0.1,0.4,0.1,2.3,0.5,2.8c0.4,0.5,0.6,0.8,1.5,0.8c2.7,0.1,2.6-4.3,2.9-6c0.4-2.7,0.3-8.5,3.6-9
					c3.3-0.5,1.1,2.8,0.5,4.7c-0.6,2.2-1.7,4.2-2.6,6.3c-2.8,6.1-5.8,12.2-10.7,16.9c0.3,0.2,0.7,0.4,1,0.6c1.2-3.3,1.7-6.4,1.7-9.8
					c0-0.8-1.2-0.8-1.2,0c0,3.3-0.6,6.4-1.7,9.5c-0.2,0.6,0.6,1,1,0.6c5.4-5.2,8.6-12,11.7-18.7c0.9-2,5.7-11.7,1.8-13.2
					c-3.5-1.4-5.4,5.9-5.8,7.8c-0.2,1-0.3,1.9-0.4,2.9c-0.2,1.3-0.3,2.6-0.5,3.9c-1.7,0.5-2.4-0.1-2.2-1.6c-1.3-2.3-0.9-4.4-3-6.4
					c-0.4-0.3-1.1-0.1-1.1,0.4c0.2,2,1.8,21.9-0.5,22.1C411.1,579.2,411.1,580.4,411.9,580.4L411.9,580.4z"/>
			</g>
		</g>
	</g>
	<g>
		<g>
			<path fill="#CCC49C" d="M412.7,659.9c5.2,5.6,12.7,7.3,19.8,8.6c-0.1,3.1-0.5,6.3-1.4,9.3c-4.4-2.4-8.7-4.9-13.1-7.3
				c-2.9-1.6-6.3-3.3-9.4-2.1c-1.4,0.5-2.6,1.6-4.1,2c-1.4,0.4-3.3-0.5-3.4-2.1c3-2.4,6-4.7,9-7.1c1.3-1,2.7-2.1,3.4-3.7"/>
		</g>
		<g>
			<g>
				<path fill="#CCC49C" d="M412.2,660.3c3.6,3.6,8,5.8,13,7.2c3.7,1.1,8.2,1,6.2,6.4c-1.1,2.8-0.8,2.2-3.2,1.4
					c-1.9-0.6-3.9-2.2-5.7-3.2c-4.9-2.7-8.5-5.1-14.1-4.5c-0.5,0.2-1,0.4-1.4,0.7c-3.9,0-4.9-0.5-3.1-1.6c0.7-1.3,3.3-2.6,4.5-3.6
					c2.2-1.7,4.3-3.2,5.7-5.6c0.4-0.7-0.7-1.3-1.1-0.6c-2.6,4.4-8.3,7.5-12.3,10.7c-0.2,0.1-0.2,0.4-0.2,0.6c0.9,3.1,3.1,2.6,5.7,2
					c3.7-0.9,6.2-1.9,10-0.1c1.6,0.8,3.2,1.8,4.8,2.6c3.3,1.8,6.6,3.7,9.8,5.5c0.3,0.2,0.8,0,0.9-0.4c0.8-3.1,1.3-6.2,1.4-9.4
					c0-0.3-0.2-0.6-0.5-0.6c-7.2-1.4-14.2-3.1-19.6-8.5C412.5,658.9,411.6,659.7,412.2,660.3L412.2,660.3z"/>
			</g>
		</g>
	</g>
	<g opacity="0.15">
		<g>
			<path fill="#616160" d="M420.2,663.3c-0.9,2.1-1.7,4.4-2.3,6.8c0.1,0.1,0.3,0.2,0.4,0.3c4.4,3.2,8.7,6.3,13.1,9.5
				c0.8-3.9,1.3-7.9,1.4-12C428.5,666.8,424.2,665.6,420.2,663.3z"/>
		</g>
	</g>
	<g>
		<g>
			<g>
				<path fill="#CCC49C" d="M450.1,667.9c-1.1-5.1-6-9.3-10.6-7.9c-1.4,0.4-2.7,1.3-3.8,2.4c-4.1,4-6,10.9-3.7,16.4
					c2.3,5.5,9.1,8.3,13.6,5c4.2-3,5.1-9.4,5.2-14.9c0-1.3-0.5-3.1-1.7-2.9"/>
			</g>
			<g>
				<g>
					<path fill="#CCC49C" d="M450.7,667.8c-1.8-6.2-8.1-11.3-14.2-6.8c-5.9,4.4-8.3,14.2-3.8,20.4c3.7,5,11.1,6.3,15.2,1.2
						c2.1-2.6,6.8-15.9,1.4-17.1c-0.8-0.2-1.1,1-0.3,1.2c3.6,0.8-0.3,12.4-1.3,14.1c-3.7,5.8-11.4,4.5-14.6-1.1
						c-2.8-4.9-1.4-11.7,2.2-15.8c5.4-6.3,12.3-2.6,14.3,4.2C449.7,668.9,450.9,668.6,450.7,667.8L450.7,667.8z"/>
				</g>
			</g>
		</g>
		<g>
			<g>
				<path fill="#968B7B" d="M444.2,667.4c-6.5-2.4-11.2,12.4-2.9,12.2c6.7-0.1,8.3-15,1.6-13.7c-3.6,0.7-4.9,5.9-5,9
					c-0.1,1.5,0.2,3,1.5,3.9c1,0.7,2.2,0.7,3.1-0.2c1.3-1.4,1.4-4.4,1.7-6.2c0.1-1.2,0.3-2.8-0.9-3.6c-2.8-2-5.7,2.8-5.2,5.2
					c0.8,3.2,5.3,4,6.1,0.4c0.7-3-3.4-4.7-4.7-1.8c-0.3,0.7,0.7,1.4,1.1,0.6c3.3,2.1,2.9,2.1-1.3-0.1c0.1-0.6,0.3-1.1,0.4-1.7
					c0.6-1.4,1.7-1.6,3.3-0.5c0,0.4,0,0.9-0.1,1.3c-0.1,1-0.3,1.9-0.5,2.9c-0.4,1.7,0.1,2.2-1.8,1.2c-1.2-0.1-1.6-0.5-1.4-1.4
					c0.1-0.7,0.2-1.4,0.4-2c0.2-0.7,0.3-1.4,0.5-2.1c0.3-1,0.7-2,1.5-2.7c1.4-1.4,3.6-0.9,4.2,1.1c0.9,3-0.6,9.1-4.4,9.2
					c-6.2,0.2-2.2-11.6,2.5-9.8C444.6,668.9,444.9,667.7,444.2,667.4L444.2,667.4z"/>
			</g>
		</g>
	</g>
	<g>
		<g>
			<path fill="#CDCAB5" d="M400.8,665.1c-2.3-4-7.3-4.6-11.5-4.8c-6-0.3-12-0.5-18-0.8c-1.2-1.7,0-4.4,1.8-5.2
				c1.8-0.8,3.8-0.3,5.7,0.2c5.2,1.4,10.4,2.7,15.6,3.9c1.2,0.3,2.4,0.5,3.5-0.1c1.3-0.7,1.8-2.3,2.7-3.5c2.4-3.3,6.9-3.3,10.7-3.1
				c1,0.1,2,0.1,2.9,0.7c0.9,0.5,1.5,1.6,1.3,2.7c-0.2,0.7-0.6,1.2-1.2,1.7c-1.5,1.2-3.4,1.8-5,2.8c-1.7,1-3.2,2.6-3.3,4.7"/>
		</g>
		<g>
			<path fill="#161618" d="M371.8,653.8c-3-9.8-10.4-17.9-19.3-21.1c-8.9-3.2-19.1-1.5-26.8,4.5c-2.3,1.8-4.4,4-5.9,6.7
				c-2.8,5.1-3.1,11.4-3,17.4c0,2.8,0.1,5.7,1.1,8.4c1.1,3,3.2,5.4,5.6,7.3c10.8,8.9,26.7,8.8,38,0.5c1.8-1.3,3.5-2.9,4.9-4.8
				c4.5-6.2,4.6-14.8,4.5-22.7"/>
		</g>
		<g opacity="0.35">
			<g>
				<path fill="#3D3227" d="M361,648.8c-2.7-0.6-7-1.2-7.8,2.5c-0.3,1.2,0,2.4-0.4,3.7c-0.8,2.4-3.5,6-6,6.3
					c-2.3,0.3-3.9-1.8-5.2-3.6c-3.5-4.7-6.5-9.7-12.4-10.8c-3.6-0.7-7.3,0.2-10.8,1.4c-1.1,4-1.2,8.5-1.2,12.8
					c0,2.8,0.1,5.7,1.1,8.4c1.1,3,3.2,5.4,5.6,7.3c10.8,8.9,26.7,8.8,38,0.5c1.8-1.3,3.5-2.9,4.9-4.8c4.3-5.9,4.5-14.1,4.5-21.7
					c-0.1-0.2-0.2-0.4-0.2-0.6C367.5,650.6,364.4,649.6,361,648.8z"/>
			</g>
		</g>
		<g opacity="0.35">
			<g>
				<path fill="#CDC8C3" d="M353.6,641.5c-2.8-1-6.2-0.1-7.8,2.6s-0.6,7.1,2.2,8.1c-1.4-1.3-1.9-3.6-1.2-5.4s2.6-3,4.3-2.8
					c1.4,0.2,2.6,1.1,4,1.3c1.4,0.2,3.1-0.7,2.9-2.3c-0.2-1.4-1.8-1.9-3-2.1c-1.5-0.2-3-0.4-4.4-0.6"/>
			</g>
			<g>
				<g>
					<path fill="#CDC8C3" d="M354.3,639.1c-4.3-1.3-9.2,0.4-11,4.6c-1.6,3.7-0.4,8.9,3.5,10.7c2.5,1.2,5-1.8,3-3.9
						c-0.9-1-1.1-2.8,0.1-3.7c1.1-0.7,2.3,0.2,3.3,0.5c2.2,0.8,4.8,0.7,6.4-1.3c1.5-1.8,1.3-4.3-0.4-5.9c-2-1.9-5.4-1.8-7.9-2.2
						c-3.1-0.4-4.5,4.4-1.3,4.8c1.5,0.2,3,0.3,4.4,0.6c0.3,0.1,1.9,0.7,1.2-0.5c-0.1-0.2-0.9-0.3-1.1-0.4c-2.3-0.9-4.4-1.5-6.8-0.2
						c-4.3,2.4-4.6,8.2-1.4,11.7c1-1.3,2-2.6,3-3.9c-1.6-0.8-2.1-2.9-1.4-4.5c0.9-2,3.2-2.3,5.1-1.7
						C356,644.9,357.3,640.1,354.3,639.1L354.3,639.1z"/>
				</g>
			</g>
		</g>
	</g>
	<g opacity="0.15">
		<g>
			<path fill="#9D887F" d="M438.8,671.3c3.6,2.4,6.9,5.5,10.1,8.6c32.5,31.8,61.9,67.7,87.3,106.7c3.1,4.8,6.2,9.6,8.4,15
				c2.9,6.8,4.4,14.3,8,20.7c3.6,6.5,9,11.4,14.4,16.1c6.8,6.1,13.5,12.1,20.3,18.2c5.9,5.3,11.9,10.7,16,17.8
				c2.9,4.9,4.7,10.4,7,15.7c5,11.5,12.1,21.9,20.7,30.4c-7.1-6.5-12.3-15.1-17.1-23.9c-6.4-11.6-12.3-23.8-21-33.5
				c-8.1-9-18.3-15.3-26-24.7c-5.9-7.1-10.1-15.7-14.2-24.2c-15.1-31-30.6-63-55.2-85.1c-15.3-13.7-34-23.6-44.9-41.6
				c-4.1-6.8-7.7-15.2-14.7-17.6"/>
		</g>
		<g>
			<g>
				<path fill="#9D887F" d="M438.5,671.9c8.8,6.1,16.3,14.7,23.7,22.4c7,7.3,13.8,14.8,20.4,22.4c14.1,16.2,27.4,33.2,39.8,50.8
					c6.1,8.7,12.4,17.5,17.7,26.8c4.9,8.6,6.7,18.2,11.1,26.9c4.5,8.8,12.4,15.2,19.6,21.7c7.8,7,16,13.8,23.4,21.3
					c8.9,9,12.1,19.9,17.6,31c4.7,9.6,11.1,18.3,18.6,25.8c0.3-0.3,0.6-0.6,0.9-0.9c-16.3-15.5-22.1-38.4-36.4-55.4
					c-7.2-8.5-16.5-14.8-24.2-22.7c-8.2-8.4-13.2-19-18.3-29.4c-9.4-19.2-18.8-38.6-31-56.3c-11.4-16.5-25.3-29.3-41.2-41.5
					c-9.4-7.2-18.8-14.9-25.6-24.8c-4.9-7.2-8-17-16.8-20.5c-0.7-0.3-1.1,0.9-0.3,1.2c9.4,3.8,12.9,16.2,18.8,23.7
					c5.7,7.3,12.8,13.3,20.1,19c7.5,5.9,15.3,11.4,22.3,18c7.8,7.2,14.6,15.5,20.7,24.1c12.3,17.6,21.8,36.9,31.2,56.1
					c4.6,9.5,9.1,19.2,15.8,27.3c6.7,8.2,15.5,14.2,23,21.6c17.6,17.4,23.1,43.4,41,60.4c0.6,0.6,1.5-0.3,0.9-0.9
					c-7.5-7.5-13.7-16.1-18.4-25.6c-4.2-8.5-6.7-17.8-12.7-25.4c-6.4-8.2-15-14.9-22.8-21.8c-8.1-7.3-17.7-14.3-23.6-23.6
					c-5.4-8.8-6.9-19.4-11.9-28.4c-5-9-11.1-17.6-17-26.1c-11.9-17-24.6-33.5-38-49.2c-7.7-9-15.7-17.9-24-26.5
					c-7.5-7.8-15-16.4-23.9-22.6C438.5,670.3,437.8,671.4,438.5,671.9L438.5,671.9z"/>
			</g>
		</g>
	</g>
	<g opacity="0.15">
		<g>
			<path fill="#9D887F" d="M393.9,693c-8,21.5-9.9,45.1-11.6,68.3c-1.1,14.6-2.2,29.1-3.2,43.7c-1,13.6-2,27.3-2.3,40.9
				c-0.3,15,0.4,30,0.2,45c-0.3,27.3-3.2,54.6-8.7,81.3c5.9-8.3,10-18.3,11.7-28.7c1.4-8.6,1.2-17.4,1-26.1
				c-0.5-21.4-1-42.9-3.1-64.3c-0.6-6.2-1.3-12.5-1.4-18.8c-0.1-5.8,0.4-11.6,1-17.3c1.6-15.7,4.1-31.4,5.1-47.2
				c1.6-26.4-0.5-55.1,12.8-77c0.7-1.1,1.4-2.2,1.3-3.5c0-1.3-1.3-2.6-2.3-2"/>
		</g>
		<g>
			<g>
				<path fill="#9D887F" d="M393.3,692.8c-5.8,15.8-8.4,32.5-10,49.2c-1.8,18.3-2.9,36.7-4.2,55c-1.4,18.2-2.8,36.5-2.9,54.8
					c-0.1,18.6,0.7,37.2-0.2,55.7c-1.1,21.7-3.8,43.3-8.1,64.5c-0.1,0.7,0.7,1.1,1.1,0.5c11-15.8,13.2-33.5,12.8-52.3
					c-0.5-21.7-1-43.5-3-65.1c-1-10.8-2-21.4-1.1-32.3c0.8-10.4,2.3-20.8,3.5-31.2c2.3-19.5,2.1-39.1,3.8-58.6
					c0.9-11.2,2.8-22.5,7.3-32.8c0.9-2,9.2-13.7,2.2-13.5c-0.8,0-0.8,1.3,0,1.2c3.7-0.1-0.8,6.8-1.1,7.3c-0.9,1.6-1.7,3.3-2.4,5
					c-1.5,3.5-2.7,7.1-3.7,10.7c-2,7.7-3.1,15.7-3.7,23.6c-1.4,18.4-1.3,36.7-3.4,55.1c-2.3,19.7-5.2,38.9-3.3,58.7
					c1.9,20,2.8,40.1,3.3,60.2c0.3,11.5,1.1,23.3-0.7,34.7c-1.7,10.3-5.7,20-11.6,28.5c0.4,0.2,0.8,0.3,1.1,0.5
					c7.3-36.1,8.9-72.1,8.5-108.9c-0.4-36.9,3.3-73.8,6.2-110.5c1.6-20.3,3.9-40.6,10.9-59.9C394.8,692.4,393.5,692,393.3,692.8
					L393.3,692.8z"/>
			</g>
		</g>
	</g>
	<g opacity="0.17">
		<g>
			<path fill="#9D887F" d="M323,706.1c-24.5,7.8-46.7,24.1-62.7,46c-11.9,16.3-20.9,36-36.6,47.8c-10.8,8.1-23.8,11.6-36.5,14.9
				c12.7-14.1,33.1-16.4,46.1-30.2c6.9-7.3,11.1-17.1,16.5-25.8c5.8-9.3,13.1-17.5,21.4-24c8.5-6.7,17.9-11.7,27.3-16.6
				c11.7-6.2,23.4-12.4,35.1-18.6"/>
		</g>
		<g>
			<g>
				<path fill="#9D887F" d="M322.8,705.5c-26.7,8.7-49.4,26.6-65.4,49.6c-8.6,12.4-15.6,26.1-26.1,37.1c-12,12.6-27.8,17.6-44.2,22
					c0.2,0.3,0.4,0.7,0.6,1c9.8-10.6,23.7-14.5,35.7-21.9c12.6-7.8,18.4-19.7,25.7-32.1c8.9-15.1,21.5-26.5,36.5-35.3
					c15.7-9.2,32.2-17.3,48.3-25.8c0.7-0.4,0.1-1.5-0.6-1.1c-16.4,8.7-33.1,16.8-49.1,26.3c-13.4,7.9-24.9,18-33.5,31
					c-4.4,6.6-7.7,13.8-12,20.5c-4.5,6.8-10.1,12.1-17.2,16.2c-11.8,7-25.1,11.1-34.7,21.4c-0.4,0.5,0,1.2,0.6,1
					c14.4-3.8,28.9-8,40.3-18c10.6-9.3,17.8-21.9,25.4-33.6c16.9-26.3,39.9-47.3,70-57.1C323.9,706.4,323.6,705.2,322.8,705.5
					L322.8,705.5z"/>
			</g>
		</g>
	</g>
	<g>
		<g>
			<g>
				<path fill="#737F3C" d="M527.4,426.9c-1.3-5.2-2.6-10.5-2-15.9c0.6-5.7,3.2-11,6.5-15.5c0.4-0.6,0.8-1.1,1.3-1.6
					c-0.6-0.6-1.2-1.1-1.9-1.5c-7.1,4.2-14.1,8.8-21,13.4c-11.2,7.5-22.4,15.3-31,26.2c-6,7.6-10.4,16.4-14.6,25.4
					c-20.9,45.1-34.4,94.5-39.7,144.9c-1.2,11.8-2.2,24.3-6.5,35c16.1-9.7,37.1-11.4,52.5-23.4c8-6.2,14.2-15,20-23.7
					c24-35.5,46.9-76.5,44.3-120.9C534.4,454.9,530.9,440.9,527.4,426.9z"/>
			</g>
			<g opacity="0.6">
				<g>
					<path fill="#6F7E3F" d="M431,615.9c7.1-12.4,14.4-24.4,22.7-35.9c16-22.4,32.5-45,41.2-72.3c7.3-22.6,10.6-46.5,16.4-69.5
						c2.8-11.1,6.1-22.1,10.7-32.4c2-4.6,4.4-9.3,7.1-13.6c-6.3,3.8-12.4,7.9-18.5,12c-11.2,7.5-22.4,15.3-31,26.2
						c-6,7.6-10.4,16.4-14.6,25.4c-20.9,45.1-34.4,94.5-39.7,144.9c-1.2,11.6-2.2,23.9-6.3,34.5C423.4,628.9,427.3,622.4,431,615.9z
						"/>
				</g>
			</g>
		</g>
		<g opacity="0.6">
			<g>
				<path fill="#6F7E3F" d="M524.6,518.9c-8.9,5.1-19.6,9-29.7,5.7c-10.9-3.6-16.8-14.8-21-25.7c-2.3-5.9-4-12.8-8.1-17.5
					c-2.4-2.8-5.5-4.4-8.8-5.2c-16.3,39.9-27,82.6-31.6,126.2c-1.2,11.8-2.2,24.3-6.5,35c16.1-9.7,37.1-11.4,52.5-23.4
					c8-6.2,14.2-15,20-23.7c15.4-22.8,30.4-47.9,38.4-74.7C528.2,516.7,526.4,517.8,524.6,518.9z"/>
			</g>
		</g>
		<g opacity="0.15">
			<g>
				<path fill="#9D887F" d="M416.9,632.4c16.4-25,32.8-50,49.2-75.1c15.9-24.2,32.2-49.6,36.9-79.1c1.3-8.3,1.7-16.8,2.8-25.1
					c3.1-22.6,11.9-44.1,25.2-61.6c-10.1,14.9-15.2,33.3-19.7,51.3c-4,15.9-7.7,31.8-11.3,47.8c-1.6,7.3-3.2,14.7-5.9,21.5
					c-2.7,6.7-6.5,12.8-10,19c-13.3,23.5-23.4,49.8-41,69.6c-5.4,6.1-11.5,11.6-16.7,18s-9.4,14.2-10.3,22.7"/>
			</g>
			<g>
				<g>
					<path fill="#9D887F" d="M417.4,632.7c20.5-31.2,41.7-62,61.2-93.9c8.4-13.8,16.1-28.1,20.9-43.6c5.4-17,4.9-34.8,8.6-52.1
						c4-18.6,11.9-36.1,23.3-51.3c-0.4-0.2-0.7-0.4-1.1-0.6c-9.8,14.8-14.8,31.9-19.1,49c-5,19.8-9.1,39.7-14,59.5
						c-4.6,18.3-15.7,34.1-24.1,50.8c-8.2,16.2-16.3,32.7-27.9,46.8c-11.5,13.9-27.5,25.1-29.8,44.3c-0.1,0.8,1.2,0.8,1.2,0
						c2.4-19.3,19.2-30.6,30.5-44.7c10.4-13,18-27.9,25.5-42.7c4-7.9,8-15.7,12.3-23.4c4.4-7.7,8.8-15.2,11.5-23.6
						c2.9-9.1,4.5-18.5,6.7-27.8c2.2-9.6,4.4-19.2,6.8-28.7c5-20.3,9.8-41.2,21.5-58.8c0.5-0.7-0.6-1.3-1.1-0.6
						c-9.4,12.6-16.5,26.7-21,41.8c-5,17-4.6,34.7-8.4,51.9c-7.6,34.2-29.8,63.4-48.7,92.1c-12,18.3-24,36.7-36.1,55
						C415.9,632.7,417,633.4,417.4,632.7L417.4,632.7z"/>
				</g>
			</g>
		</g>
	</g>
	<g opacity="0.15">
		<g>
			<path fill="#9D887F" d="M415.6,564.5c6.9-23.3,13.3-46.7,19.1-70.4c5.4-21.9,10.3-44.6,7.8-67.2c-1.5-13.7-5.8-26.9-7.8-40.5
				c-6.1-40.8,7.7-81.8,21.2-120.3c3.1-8.7,6.2-17.6,11.7-24.7c-21.6,30.6-25.8,71.6-29.3,110.2c-0.6,6.7-1.2,13.5-0.5,20.2
				c0.6,5.5,2.1,10.9,3.3,16.3c2,9.4,2.8,19.1,3.2,28.8c0.4,10.8,0.3,21.7-1.7,32.3c-1.5,7.7-3.9,15.1-6.1,22.6
				c-10,33.8-15.4,69-20.8,104.1"/>
		</g>
		<g>
			<g>
				<path fill="#9D887F" d="M416.2,564.6c6.4-21.4,12.3-42.9,17.7-64.6c5.2-20.7,10.4-41.9,9.9-63.4c-0.5-21.5-8.7-41.9-9.8-63.4
					c-1.1-21.8,2.9-43.4,8.7-64.3c3.2-11.7,7.1-23.2,11-34.6c3.9-11.2,7.3-22.9,14.4-32.6c-0.4-0.2-0.7-0.4-1.1-0.6
					c-23.1,33.2-26.7,76-29.8,115.1c-0.9,11.3,0.9,21.1,3.2,32.1c2.6,12.5,3.4,25.5,3.4,38.2c0,24.2-9,46.1-14.4,69.3
					c-6.2,26.4-10.3,53.2-14.4,79.9c-0.1,0.8,1.1,1.1,1.2,0.3c3.6-23.6,7.2-47.2,12.3-70.5c2.5-11.6,5.4-23.1,8.8-34.4
					c3.1-10.3,6.2-20.5,7.2-31.3c1.1-11.4,0.7-23.1-0.3-34.5c-1.1-11.7-4.8-22.9-5.9-34.5c-1-10.8,0.7-21.9,1.8-32.6
					c1-10.6,2.3-21.1,4-31.6c3.9-23,10.5-45.7,23.9-65c0.5-0.7-0.6-1.3-1.1-0.6c-5.5,7.5-8.7,16.1-11.8,24.8
					c-3.7,10.5-7.3,21-10.6,31.6c-6.3,20.3-11.2,41.2-12,62.5c-0.4,10.1,0.3,20.3,2,30.2c1.8,10.5,4.8,20.7,6.5,31.2
					c3.7,23.1-0.7,46.2-6.1,68.7c-6,24.9-12.7,49.6-20,74.1C414.8,565.1,416,565.4,416.2,564.6L416.2,564.6z"/>
			</g>
		</g>
	</g>
	<g>
		<g>
			<path fill="#161618" d="M431.4,631.2c6.3-6.2,15.2-8.9,23.4-7.2c8.2,1.7,15.7,7.8,19.5,16.1c4.7,10.2,3.2,24.4-5.1,31.3
				c-4.5,3.8-10.4,5-16.1,5c-0.8,0-1.6,0-2.3-0.5c-2.5-1.5-1.1-5.7-1.4-8.8c-0.4-4.3-5.5-7.1-8.8-4.9c-1.5,1-2.8,2.9-4.6,2.8
				c-0.9,0-1.7-0.6-2.4-1.1c-3.9-3.2-6.1-8.3-7.8-13.3c-1.2-3.5-2.2-7.3-1.7-11c0.5-3.7,3.1-7.3,6.5-7.6"/>
		</g>
		<g opacity="0.35">
			<g>
				<path fill="#CDC8C3" d="M466.3,643.1c-0.9-1.5-1.8-2.9-3-4s-3-1.5-4.4-0.7c-2.5,1.4-2.4,5.4-1.2,8.2c1.1,2.8,3,5.6,2.6,8.6
					c-0.4,4-4.3,7.1-3.5,11c0.7,3.4,4.7,4.7,7.5,3.4c2.9-1.3,4.7-4.3,6.3-7.3c1.9-3.4,3.6-7.1,3.5-11.1c-0.2-4.7-3.1-8.9-6.8-11.2
					s-8-3-12.3-2.9"/>
			</g>
			<g>
				<g>
					<path fill="#CDC8C3" d="M468.5,641.9c-2.2-3.5-5.6-7.8-10.3-5.8c-3.5,1.5-4.2,5.7-3.6,9c0.5,2.8,2.4,5.2,3,7.9
						c0.7,3.6-1.7,5.8-2.8,9c-1.4,4-0.3,8.4,3.9,10.1c9.8,4.1,17-11.2,17.8-18.7c1.3-12.5-10.8-18.5-21.4-18.7c-3.2-0.1-3.2,4.9,0,5
						c7,0.1,15,2.5,16.3,10.5c0.6,3.7-0.9,7.1-2.6,10.3c-0.9,1.7-4.1,8.3-6.9,7.3c-2.6-1-2.7-3.7-1.7-5.6c0.5-1,1.1-2,1.5-3
						c0.7-1.7,1.2-3.4,1-5.3c-0.2-2.2-1.2-4.2-2-6.3c-0.5-1.3-1.5-2.9-1.4-4.3c0.2-3.6,3.6-0.8,4.8,1.2
						C465.8,647.1,470.2,644.6,468.5,641.9L468.5,641.9z"/>
				</g>
			</g>
		</g>
	</g>
	<g>
		<g>
			<path fill="#CCC49C" d="M418.8,641.3c4.3-4.7,6.5-10,7.3-16.3c0.2-1.4-1.3-2.5-2.5-2.5c-0.9,0-1.7-0.1-2.6-0.1
				c-1.4,0-2.4,1.2-2.5,2.5c-1.1,11.7-11.6,19.7-9.3,32.2c0.6,3.2,5.4,1.8,4.8-1.3c-2-10.9,8.5-20.1,9.5-30.8
				c-0.8,0.8-1.7,1.7-2.5,2.5c0.9,0,1.7,0.1,2.6,0.1c-0.8-0.8-1.7-1.7-2.5-2.5c-0.6,4.9-2.5,9.1-5.8,12.7
				C413.1,640.1,416.6,643.7,418.8,641.3L418.8,641.3z"/>
		</g>
	</g>
	<g>
		<g opacity="0.6">
			<g>
				<path fill="#AEC17F" d="M406.5,671.9c-0.4-0.5-0.7-1-1.1-1.5l-0.3,1.6c-2.2,1.5-4.4,2.9-6.7,4.1
					C401.1,674.8,403.9,673.5,406.5,671.9z"/>
			</g>
			<g>
				<g>
					<path fill="#AEC17F" d="M407.6,671.3c-0.4-0.6-0.8-1.2-1.3-1.8c-0.6-0.7-1.9-0.3-2.1,0.6c-0.1,0.5-0.2,1-0.3,1.6
						c0.2-0.2,0.4-0.5,0.6-0.7c-2.1,1.5-4.4,2.9-6.7,4.1c-1.5,0.8-0.2,2.8,1.3,2.2c2.8-1.2,5.5-2.6,8.2-4.1c1.4-0.8,0.1-3-1.3-2.2
						c-2.6,1.5-5.4,2.9-8.2,4.1c0.4,0.7,0.8,1.4,1.3,2.2c2.1-1.1,4.2-2.3,6.2-3.7c1.1-0.8,1.1-1.4,1.4-2.7c-0.7,0.2-1.4,0.4-2.1,0.6
						c0.3,0.4,0.6,0.8,0.9,1.3C406.4,673.9,408.5,672.6,407.6,671.3z"/>
				</g>
			</g>
		</g>
		<g opacity="0.6">
			<g>
				<path fill="#AEC17F" d="M321.9,684c-16.8-2.3-33.9-5.4-50.2-10.4c-5.3-1.6-10.4-2.9-15.6-3.8c35.3,13.5,74,16.5,111.7,19.2
					c-6.9-0.3-14.3-0.4-20.3,3.4c-2.1,1.3-3.9,3.1-6,4.4c-6,4-13.2,4.8-19.9,7.1c-6.7,2.3-13.5,7.3-14.6,15
					c5.5-6.7,12.8-11.5,20.7-13.8c6.1-1.8,12.7-2.1,18.2-5.3c2.7-1.6,5.1-3.8,7.8-5.3c5.9-3.4,12.9-3.4,19.6-4
					c10.8-0.9,21.4-3.3,31.6-7.2c1.1-0.4,2.2-0.9,3-1.8c1.8-2,1.2-4.9-0.1-7.6C381.9,688.9,350.1,687.9,321.9,684z"/>
			</g>
			<g>
				<g>
					<path fill="#AEC17F" d="M322.2,682.8c-11.3-1.6-22.6-3.5-33.7-6c-10.8-2.5-21.3-6.3-32.2-8.2c-1.6-0.3-2.2,1.8-0.7,2.4
						c35.8,13.5,74.2,16.6,112,19.2c0-0.8,0-1.7,0-2.5c-6.1-0.2-12.4-0.4-18.1,2.1c-2.9,1.3-5.2,3.3-7.8,5.1
						c-3.4,2.5-7.2,3.9-11.2,5.1c-10.4,3-22.6,6.2-24.9,18.6c-0.2,1.1,1.2,2.3,2.1,1.2c7.9-9.2,17.1-12.9,28.6-15.4
						c5.3-1.2,9.6-3,13.9-6.2c5.3-3.8,10.5-5.5,17-6c10.9-0.9,21.4-2.2,31.9-5.5c7.3-2.3,13.5-4.7,9.6-13.3
						c-0.3-0.6-1.2-0.8-1.7-0.4C381.3,687.4,350.7,686.6,322.2,682.8c-1.6-0.2-2.3,2.2-0.7,2.4c29.2,4,60.4,4.8,86.8-10.2
						c-0.6-0.1-1.1-0.3-1.7-0.4c3.4,7.6-8.3,9.8-13.4,11.2c-4.9,1.3-9.9,2.3-14.9,2.9c-8.7,1.1-18.3,0.3-26.1,5.1
						c-4.2,2.6-7.5,5.6-12.4,7.2c-4.6,1.5-9.5,1.9-14.1,3.4c-7.8,2.6-14.5,7.5-19.8,13.7c0.7,0.4,1.4,0.8,2.1,1.2
						c2.5-13.6,17.3-14.4,27.8-18.3c4.7-1.8,7.9-5,12.1-7.5c6-3.6,12.9-3.5,19.7-3.2c1.6,0.1,1.6-2.4,0-2.5
						c-37.6-2.7-75.8-5.7-111.3-19.1c-0.2,0.8-0.4,1.6-0.7,2.4c10.9,1.9,21.4,5.7,32.2,8.2c11.1,2.6,22.4,4.4,33.7,6
						C323.1,685.4,323.8,683,322.2,682.8z"/>
				</g>
			</g>
		</g>
		<g opacity="0.6">
			<g>
				<path fill="#AEC17F" d="M271.6,673.5c-0.6-0.2-1.1-0.3-1.7-0.5c-17.1,5-33.7,12.3-49.2,21.7c-7.5,4.5-15.7,11.6-14.9,21
					c0.2,2.9,1.3,5.7,1.6,8.5c3.4-9.8,7.4-19.6,14.8-25.9c3.7-3.2,8.1-5.2,12.5-7.1c6.1-2.7,12.3-5.4,18.5-8
					c8.6-3.6,17.5-7,26.5-7.4C277,675.1,274.3,674.4,271.6,673.5z"/>
			</g>
			<g>
				<g>
					<path fill="#AEC17F" d="M272,672.3c-3.7-1.1-7.4,1-10.9,2.2c-4.5,1.5-9,3.2-13.4,5.1c-8.1,3.4-16.1,7.3-23.7,11.8
						c-6,3.5-12.2,7.3-16.2,13.1c-4.6,6.8-2.7,12.6-1.7,20c0.2,1.3,2,1,2.4,0c2.3-6.5,4.7-13,8.6-18.7c4.4-6.4,10.5-10.1,17.4-13.2
						c14.2-6.4,29.4-14.4,45.1-15.5c1.4-0.1,1.8-2.1,0.3-2.5C277.3,673.9,274.6,673.1,272,672.3c-1.5-0.5-2.2,1.9-0.7,2.4
						c2.7,0.8,5.4,1.6,8,2.3c0.1-0.8,0.2-1.6,0.3-2.5c-16.6,1.2-32.9,9.6-47.8,16.5c-6.3,2.9-11.8,6.5-16,12.2
						c-4.5,6.1-7.2,13.4-9.8,20.6c0.8,0,1.6,0,2.4,0c-0.6-4-2.1-8-1.3-12.1c0.7-3.5,2.8-6.5,5.2-9.1c4.6-4.9,10.9-8.2,16.7-11.4
						c6.7-3.7,13.7-7,20.8-10c3-1.2,6.1-2.4,9.2-3.5c3.1-1.1,8.8-4,12.1-3.1C272.8,675.2,273.5,672.8,272,672.3z"/>
				</g>
			</g>
		</g>
	</g>
	<g>
		<g>
			<path fill="#9D887F" d="M407.4,656c1.3-5.1-3.3-9.4-7-12.6c-3.7-3.3-7.3-9.2-4.3-13.3c-2.5-2.7-7,0.5-7.3,4.3
				c-0.3,3.8,2,7.2,4.4,10.1c4.8,5.9,10.2,11.1,16.1,15.6c-2.3,5-7.5,8.2-12.5,7.6c-2.9-0.3-5.7-1.7-8.6-1.7s-6.2,2.6-5.7,5.8
				c4.7,0.6,9.1-2.3,13.8-2.8c4.7-0.5,10.5,3.6,8.9,8.5c-1,2.9-4,4.2-6.8,5c-5.6,1.8-11.1,3.5-16.7,5.3c-1.5,0.5-3.1,1-4.1,2.3
				c-1,1.3-1.2,3.6,0.2,4.6c7.9-3.7,16.1-6.5,24.4-8.2c1.9,1.2,0.4,4.4,0.2,6.8c-0.5,5.7,7.3,9.1,6.8,14.7
				c-0.4,5.7-8.9,8.8-7.2,14.2c0.8,2.7,3.8,3.6,6.3,4.1c0.7,0.1,1.4,0.3,2-0.2c0.8-0.6,0.8-1.9,0.5-2.9c-0.6-2.7-1.9-5.2-2.4-7.9
				c-0.5-2.7,0.2-6.1,2.5-7.2c1.8-0.8,3.8,0,5.8,0.5c6.5,1.8,13.7-0.7,18.2-6.1c-5.1-1.9-10.9-1.4-15.7,1.4c-2,1.2-4.2,2.8-6.5,2.2
				c-1.4-0.4-2.5-1.5-3.3-2.8c-3.4-5.4-1.9-13.8,3-17.4c0.9-0.7,2-1.2,2.4-2.3c1.1-2.7-2.2-4.9-3.8-7.3c-2.4-3.6-0.9-8.5-0.1-12.8
				c0.8-4.3-0.3-10.3-4.3-10.8"/>
		</g>
		<g>
			<g>
				<path fill="#9D887F" d="M408,656.2c1.6-10.3-16.9-16.1-11.3-25.8c0.2-0.3,0-0.6-0.2-0.9c-3.6-2.7-7.7,0.8-8.3,4.7
					c-0.9,6.6,6.3,13,10.3,17.2c1.6,1.6,3.3,3.2,5,4.8c1.2,1.1,4.7,2.9,4.5,4.9c-0.3,2.5-5.2,5.1-7.3,5.7c-3.2,0.9-5.9-0.2-8.9-0.8
					c-4.6-0.9-9.9,0.2-10,5.9c0,0.3,0.3,0.6,0.6,0.6c5.7,0.2,11.6-4.3,17.2-2.4c3,1,4.4,2.7,4.4,5.8c0,3.4-1.7,4.6-4.7,5.7
					c-3.1,1.2-6.4,2-9.5,3.1c-3.2,1-18.4,3.9-12.6,10.6c0.2,0.2,0.5,0.2,0.8,0.1c3.9-1.8,7.8-3.4,11.9-4.8c1.9-0.6,8.8-3.8,10.6-3
					c3,1.3,1,4.9,1.3,7.1c0.2,1.9,1.3,3.5,2.4,5c1.5,2,3.6,3.9,4.2,6.4c0.9,3.8-1.8,6.3-4,8.8c-1.9,2.1-4,4.7-3,7.7
					c0.9,2.6,5.2,5.3,8,4.7c3.2-0.7,2-4.1,1.3-6.4c-1.5-4.7-4.8-12.8,5.1-11.6c2.6,0.3,4.6,1,7.2,0.7c4.9-0.6,9-3.1,12.3-6.7
					c0.3-0.4,0.2-0.9-0.3-1c-3.2-1.1-6.5-1.5-9.9-0.9c-4.3,0.8-11.3,6.9-15.1,2c-2.9-3.8-2-10.4,0.5-14.1c1.5-2.2,5-3.4,5.2-6.3
					c0.1-1.9-1.4-3.4-2.5-4.7c-3.8-4.7-2.3-9-1.6-14.4c0.6-4.2,0.1-10.1-4.8-11.4c-0.8-0.2-1.1,1-0.3,1.2c7.3,1.9,2.8,12.7,2.7,17.6
					c0,1.5,0.1,3.1,0.7,4.5c0.4,1,0.9,1.5,1.5,2.4c0.8,0.9,1.6,1.9,2.4,2.9c-0.6,1.6-1.1,3.2-1.7,4.7c-1,1.5-2.5,2.3-3.4,4
					c-0.8,1.6-1.4,3.3-1.6,5.1c-0.5,3.5,0.2,7.7,2.7,10.4c2.2,2.4,4.4,2.3,7.2,1c3.4-1.6,6-3.5,9.9-3.8c0.9-0.1,6-0.3,6.2,0.6
					c0.4,1.3-2,2.6-3,3.3c-3.2,2-6.9,3-10.6,2.6c-2.3-0.2-4.8-1.7-7.2-1.4c-2.9,0.4-4.4,2.8-4.7,5.5c-0.2,2.1,0.4,4,1,5.9
					c0.3,1,0.8,2.1,1.1,3.1c0.2,0.8,0.4,1.7,0.6,2.5c-1.8,1.4-3.7,1.4-5.5,0.2c-6.7-4.6,2.8-10.2,4.4-14.2c1.1-2.8,0.4-5.3-1.2-7.7
					c-1-1.6-2.4-3-3.5-4.6c-2-3-1-5.4-0.9-8.6c0.1-3-0.7-3.8-3.5-3.2c-6.6,1.5-13.1,3.6-19.3,6.3c0,0-0.1,0-0.1,0.1
					c-2.5,1.7-2.9,0.5-1-3.4c1.1-0.9,3.5-1.2,4.9-1.7c3.4-1.1,6.8-2.2,10.2-3.2c3.4-1.1,8.3-1.9,10.3-5.3c1.7-2.9,0.7-6.2-1.8-8.3
					c-3.6-3.1-7.7-2.4-11.9-1.2c-1.3,0.4-2.5,0.8-3.8,1.2c-1.2,0.4-2.4,0.6-3.6,0.6c1.5-4.1,4-5.5,7.4-4.1c2.8,0.6,5.2,1.6,8.1,1.2
					c4.7-0.6,8.2-3.8,10.3-7.9c0.1-0.2,0.1-0.6-0.1-0.8c-4.6-3.5-8.8-7.4-12.7-11.6c-2.2-2.4-4.6-4.9-6.1-7.8
					c-0.4-0.9-0.8-1.9-1.2-2.8c-1.3-3.8-0.4-5.7,2.8-5.8c4.9-1.4,1.5-1.1,2,0.7c0.4,1.3,0,2.8,0.4,4.2c0.5,1.4,1.3,2.8,2.1,4
					c3.5,4.9,10.8,8.1,9.7,15.3C406.6,656.6,407.9,657,408,656.2L408,656.2z"/>
			</g>
		</g>
	</g>
	<g>
		<g>
			<path fill="#CCC49C" d="M212.1,601.6c-0.3-10.5-2.6-20.5-6.9-30c-1.3-2.8-5-0.7-4.6,1.9c1.5,8.7,3,17.5,4.5,26.2
				c0.4,2.2,3.5,2.3,4.6,0.6c2.9-4.7,0.4-9.2,1.3-14.1c0.7-3.8,4.2-3.6,6.9-5.4c2.4-1.5,4.1-4,5.7-6.3c1.7-2.4-1.9-4.8-3.9-3
				c-8.5,7.6-10.8,20.5-14.1,30.9c-1,3.1,3.9,4.4,4.8,1.3c3-9.5,5-21.8,12.8-28.7c-1.3-1-2.6-2-3.9-3c-1.4,2-2.7,3.8-4.9,4.9
				c-1.2,0.6-2.6,0.8-3.8,1.4c-1.8,0.9-3.1,2.2-3.9,4c-2,4.9,1.4,10.9-1.4,15.4c1.5,0.2,3,0.4,4.6,0.6c-1.5-8.7-3-17.5-4.5-26.2
				c-1.5,0.6-3,1.3-4.6,1.9c4,8.7,6,17.9,6.3,27.5C207.2,604.8,212.2,604.9,212.1,601.6L212.1,601.6z"/>
		</g>
	</g>
</g>
</svg>
