<?xml version="1.0" encoding="utf-8"?>
<!-- Generator: Adobe Illustrator 18.0.0, SVG Export Plug-In . SVG Version: 6.00 Build 0)  -->
<!DOCTYPE svg PUBLIC "-//W3C//DTD SVG 1.1//EN" "http://www.w3.org/Graphics/SVG/1.1/DTD/svg11.dtd" [
	<!ENTITY ns_flows "http://ns.adobe.com/Flows/1.0/">
	<!ENTITY ns_extend "http://ns.adobe.com/Extensibility/1.0/">
	<!ENTITY ns_ai "http://ns.adobe.com/AdobeIllustrator/10.0/">
	<!ENTITY ns_graphs "http://ns.adobe.com/Graphs/1.0/">
]>
<svg version="1.1" id="Capa_1" xmlns:x="&ns_extend;" xmlns:i="&ns_ai;" xmlns:graph="&ns_graphs;"
	 xmlns="http://www.w3.org/2000/svg" xmlns:xlink="http://www.w3.org/1999/xlink" xmlns:a="http://ns.adobe.com/AdobeSVGViewerExtensions/3.0/"
	 x="0px" y="0px" viewBox="0 0 749 1334" enable-background="new 0 0 749 1334" xml:space="preserve">
<g>
	<path fill="#FFFFFF" d="M276.7,1176.4l20-81.8h17.2V1214h-16.5v-67l-14.7,67H271l-15.2-67v67h-16.7v-119.4h17.2L276.7,1176.4z"/>
	<path fill="#FFFFFF" d="M377.8,1171.7l5.6,42.4H366l-3.3-25.3H345l-3.4,25.3h-17.3l5.6-42.2l12.2-77.2h23.6L377.8,1171.7z
		 M360.4,1171.7l-6.6-49.7l-6.6,49.7H360.4z"/>
	<path fill="#FFFFFF" d="M393.7,1094.6h26.5c15.3,0,22.9,8.4,22.9,25.1v69.2c0,16.7-8,25-24,25.1h-25.4V1094.6z M411,1111.6v85.5
		h7.5c5,0,7.5-2.7,7.5-8.1v-69.2c0-5.4-2.5-8.2-7.5-8.2H411z"/>
	<path fill="#FFFFFF" d="M457.8,1094.6h25.1c15.3,0,22.9,8.4,22.9,25.1v18c0,10.5-4.5,17.4-13.6,20.8l19.4,55.6h-18.9l-15.5-52.5
		l-2.2,0.3v52.2h-17.2V1094.6z M475,1111.6v34.2h4c2.4,0,4-0.2,4.9-0.5c3.1-1.3,4.7-3.8,4.7-7.6v-18c0-5.4-2.5-8.2-7.5-8.2H475z"/>
	<path fill="#FFFFFF" d="M569.6,1190.9c0,16.7-8.3,25.1-24.8,25.1c-16.5,0-24.7-8.4-24.7-25.1v-73c0-16.7,8.2-25.1,24.7-25.1
		c16.5,0,24.8,8.4,24.8,25.1V1190.9z M552.4,1117.8c0-5.4-2.5-8.1-7.5-8.1h-0.1c-5,0-7.4,2.7-7.4,8.1v73c0,5.4,2.5,8.1,7.5,8.1
		c5,0,7.5-2.7,7.5-8.1V1117.8z"/>
	<path fill="#FFFFFF" d="M584.2,1094.6h17.2l16.3,69.3v-69.3h15.9V1214h-17.2l-15.7-67.1v67.1h-16.6V1094.6z M596.4,1091.9l-8.3-4.4
		l2.1-4.3c2.7-5.5,6.2-8.3,10.6-8.6h0.4c2.7,0,6.2,1.3,10.5,4c2.1,1.3,3.8,1.9,5.1,1.9c1.1,0,2-0.5,2.6-1.4l2.5-4.1l7.9,5.2
		l-2.5,4.1c-2.6,4.1-5.8,6.3-9.6,6.5h-0.4c-2.7,0-6.2-1.3-10.4-4c-2.7-1.7-4.3-2.5-4.8-2.6h-0.2c-1.1,0-2.3,1.1-3.3,3.3
		L596.4,1091.9z"/>
	<path fill="#FFFFFF" d="M697.8,1190.9c0,16.7-8.3,25.1-24.8,25.1c-16.5,0-24.7-8.4-24.7-25.1v-73c0-16.7,8.2-25.1,24.7-25.1
		c16.5,0,24.8,8.4,24.8,25.1V1190.9z M680.6,1117.8c0-5.4-2.5-8.1-7.5-8.1H673c-5,0-7.4,2.7-7.4,8.1v73c0,5.4,2.5,8.1,7.5,8.1
		c5,0,7.5-2.7,7.5-8.1V1117.8z"/>
</g>
<g>
	<path fill="#FFFFFF" d="M219.6,1272.7c0,0.3,0.1,0.6,0,0.8s-0.1,0.4-0.3,0.5s-0.4,0.2-0.7,0.2s-0.7,0-1.3,0c-0.3,0-0.6,0-0.9,0
		s-0.4-0.1-0.6-0.1s-0.2-0.1-0.3-0.2s-0.1-0.2-0.1-0.4l-1.1-7.4h-12.6l-4,7.3c-0.1,0.2-0.2,0.3-0.3,0.4s-0.2,0.2-0.4,0.2
		s-0.4,0.1-0.7,0.1s-0.6,0-1.1,0c-0.5,0-0.8,0-1.1-0.1s-0.5-0.1-0.6-0.2s-0.1-0.3-0.1-0.5s0.2-0.5,0.3-0.8l15.8-28.2
		c0.1-0.2,0.2-0.3,0.4-0.4s0.3-0.2,0.5-0.3s0.5-0.1,0.8-0.1s0.7,0,1.1,0c0.5,0,0.9,0,1.3,0s0.6,0.1,0.8,0.1s0.3,0.2,0.4,0.3
		s0.1,0.3,0.2,0.4L219.6,1272.7z M211.7,1247.9L211.7,1247.9l-8.2,15.1H214L211.7,1247.9z"/>
	<path fill="#FFFFFF" d="M249.9,1250.2c0,1.1-0.2,2.1-0.5,3.1s-0.8,1.9-1.4,2.7s-1.4,1.5-2.3,2.2s-2,1.1-3.2,1.5
		c0.8,0.3,1.5,0.9,2,1.9s0.9,2.2,1.2,3.8l1.2,6.7c0,0.3,0.1,0.6,0.1,0.8s0.1,0.5,0.1,0.7c0,0.1,0,0.3-0.1,0.4s-0.2,0.2-0.4,0.2
		s-0.4,0.1-0.7,0.1s-0.7,0-1.1,0c-0.4,0-0.7,0-1,0s-0.4-0.1-0.6-0.2s-0.2-0.2-0.3-0.3s-0.1-0.3-0.1-0.5l-1.2-7.1
		c-0.1-0.8-0.3-1.6-0.5-2.2s-0.5-1.3-0.9-1.7s-0.9-0.9-1.6-1.1s-1.4-0.4-2.3-0.4h-2.7l-2.6,12.9c0,0.1-0.1,0.2-0.2,0.3
		s-0.2,0.2-0.4,0.2s-0.4,0.1-0.7,0.1s-0.6,0.1-1,0.1c-0.4,0-0.7,0-0.9,0s-0.5-0.1-0.6-0.1s-0.2-0.1-0.3-0.2s-0.1-0.2,0-0.3l5.6-28.1
		c0.1-0.6,0.4-1,0.8-1.3s0.8-0.4,1.2-0.4h6.6c1.4,0,2.7,0.1,3.8,0.4s2,0.7,2.7,1.2s1.3,1.2,1.7,2S249.9,1249.2,249.9,1250.2z
		 M245.5,1250.8c0-0.5-0.1-1-0.3-1.5s-0.5-0.8-0.9-1.2s-0.9-0.6-1.6-0.8s-1.4-0.3-2.3-0.3h-4.2l-2.1,10.2h3.6c1.4,0,2.6-0.2,3.6-0.6
		s1.8-0.9,2.4-1.5s1.1-1.3,1.4-2.1S245.5,1251.6,245.5,1250.8z"/>
	<path fill="#FFFFFF" d="M278.1,1249.7c0,1-0.1,1.9-0.4,2.7s-0.6,1.6-1.1,2.4s-1.1,1.4-1.7,1.9s-1.4,1-2.3,1.4
		c0.7,0.1,1.3,0.4,1.8,0.7s1.1,0.7,1.5,1.2s0.7,1.1,0.9,1.7s0.3,1.4,0.3,2.2c0,0.8-0.1,1.7-0.3,2.5s-0.6,1.6-1,2.4s-1,1.5-1.7,2.1
		s-1.4,1.2-2.3,1.7s-1.9,0.9-3,1.1s-2.4,0.4-3.8,0.4h-8c-0.5,0-0.9-0.1-1.2-0.4s-0.3-0.7-0.2-1.3l5.4-27c0.1-0.6,0.4-1,0.8-1.3
		s0.8-0.4,1.2-0.4h6.5c1.5,0,2.8,0.1,3.9,0.4s1.9,0.6,2.6,1.1s1.2,1.1,1.6,1.9S278.1,1248.8,278.1,1249.7z M272.9,1264.2
		c0-1.3-0.5-2.3-1.4-3s-2.3-1.1-4.3-1.1H262l-2.1,10.7h5.6c1.3,0,2.4-0.2,3.2-0.6s1.6-0.9,2.2-1.5s1-1.3,1.4-2.1
		S272.9,1265.1,272.9,1264.2z M273.8,1250.5c0-0.5-0.1-1-0.3-1.4s-0.4-0.8-0.8-1s-0.9-0.5-1.5-0.7s-1.4-0.2-2.3-0.2h-4.3l-1.9,9.8
		h4.6c1.2,0,2.2-0.2,3-0.6s1.4-0.9,2-1.6s0.9-1.3,1.1-2.1S273.8,1251.2,273.8,1250.5z"/>
	<path fill="#FFFFFF" d="M308.8,1263.1c-0.4,1.9-1,3.6-1.8,5s-1.8,2.6-3,3.6s-2.5,1.7-4,2.2s-3.1,0.7-4.8,0.7
		c-1.8,0-3.4-0.2-4.7-0.7s-2.4-1.2-3.2-2.2s-1.3-2.2-1.6-3.6s-0.2-3.1,0.2-5.1l3.7-18.5c0-0.1,0.1-0.2,0.2-0.3s0.2-0.2,0.4-0.2
		s0.4-0.1,0.6-0.1s0.6-0.1,1-0.1s0.7,0,1,0.1s0.4,0.1,0.6,0.1s0.2,0.1,0.3,0.2s0,0.2,0,0.3l-3.7,18.5c-0.3,1.4-0.3,2.6-0.2,3.6
		s0.4,1.9,0.9,2.6s1.2,1.2,2,1.5s1.9,0.5,3.1,0.5c1.2,0,2.3-0.2,3.2-0.5s1.9-0.9,2.6-1.6s1.4-1.6,2-2.6s0.9-2.2,1.2-3.5l3.7-18.5
		c0-0.1,0.1-0.2,0.2-0.3s0.2-0.2,0.4-0.2s0.4-0.1,0.6-0.1s0.6-0.1,1-0.1c0.4,0,0.7,0,0.9,0.1s0.4,0.1,0.6,0.1s0.2,0.1,0.3,0.2
		s0.1,0.2,0,0.3L308.8,1263.1z"/>
	<path fill="#FFFFFF" d="M341.8,1244.6c0,0.1,0,0.2,0,0.4s0,0.3-0.1,0.5s-0.1,0.4-0.2,0.6s-0.1,0.4-0.2,0.6s-0.2,0.3-0.3,0.4
		s-0.3,0.2-0.4,0.2h-8.5l-5.3,26.3c0,0.1-0.1,0.2-0.2,0.3s-0.2,0.2-0.4,0.2s-0.4,0.1-0.6,0.1s-0.6,0.1-1,0.1s-0.7,0-1-0.1
		s-0.4-0.1-0.6-0.1s-0.2-0.1-0.3-0.2s-0.1-0.2,0-0.3l5.2-26.3h-8.5c-0.2,0-0.4-0.1-0.4-0.2s-0.1-0.3-0.1-0.6c0-0.1,0-0.2,0-0.4
		s0.1-0.3,0.1-0.6s0.1-0.4,0.2-0.6s0.1-0.4,0.2-0.5s0.2-0.3,0.3-0.4s0.3-0.2,0.4-0.2h21.1c0.2,0,0.3,0.1,0.4,0.2
		S341.8,1244.4,341.8,1244.6z"/>
	<path fill="#FFFFFF" d="M367.8,1263.1c-0.4,1.9-1,3.6-1.8,5s-1.8,2.6-3,3.6s-2.5,1.7-4,2.2s-3.1,0.7-4.8,0.7
		c-1.8,0-3.4-0.2-4.7-0.7s-2.4-1.2-3.2-2.2s-1.3-2.2-1.6-3.6s-0.2-3.1,0.2-5.1l3.7-18.5c0-0.1,0.1-0.2,0.2-0.3s0.2-0.2,0.4-0.2
		s0.4-0.1,0.6-0.1s0.6-0.1,1-0.1s0.7,0,1,0.1s0.4,0.1,0.6,0.1s0.2,0.1,0.3,0.2s0,0.2,0,0.3l-3.7,18.5c-0.3,1.4-0.3,2.6-0.2,3.6
		s0.4,1.9,0.9,2.6s1.2,1.2,2,1.5s1.9,0.5,3.1,0.5c1.2,0,2.3-0.2,3.2-0.5s1.9-0.9,2.6-1.6s1.4-1.6,2-2.6s0.9-2.2,1.2-3.5l3.7-18.5
		c0-0.1,0.1-0.2,0.2-0.3s0.2-0.2,0.4-0.2s0.4-0.1,0.6-0.1s0.6-0.1,1-0.1c0.4,0,0.7,0,0.9,0.1s0.4,0.1,0.6,0.1s0.2,0.1,0.3,0.2
		s0.1,0.2,0,0.3L367.8,1263.1z"/>
	<path fill="#FFFFFF" d="M395.7,1246.1c0,0.1,0,0.3,0,0.4s0,0.3-0.1,0.5s-0.1,0.4-0.1,0.6s-0.1,0.4-0.2,0.5s-0.2,0.3-0.3,0.4
		s-0.2,0.1-0.3,0.1c-0.2,0-0.4-0.1-0.7-0.3s-0.7-0.4-1.2-0.6s-1-0.4-1.7-0.6s-1.4-0.3-2.3-0.3c-1,0-1.8,0.1-2.5,0.4
		s-1.3,0.7-1.8,1.2s-0.8,1.1-1.1,1.7s-0.4,1.3-0.4,1.9c0,0.7,0.2,1.3,0.5,1.8s0.7,1,1.2,1.4s1.1,0.8,1.7,1.2s1.3,0.8,1.9,1.1
		s1.3,0.8,1.9,1.3s1.2,1,1.7,1.5s0.9,1.3,1.2,2s0.5,1.6,0.5,2.6c0,1.3-0.3,2.6-0.8,3.7s-1.3,2.2-2.3,3s-2.2,1.6-3.6,2.1
		s-3,0.8-4.8,0.8c-1,0-1.8-0.1-2.7-0.2s-1.6-0.4-2.2-0.6s-1.2-0.5-1.7-0.8s-0.8-0.5-1-0.7s-0.3-0.5-0.3-0.9c0-0.1,0-0.2,0-0.4
		s0.1-0.4,0.1-0.6s0.1-0.4,0.2-0.6s0.1-0.4,0.2-0.5s0.2-0.3,0.3-0.4s0.2-0.2,0.4-0.2c0.2,0,0.6,0.1,0.9,0.4s0.8,0.5,1.4,0.8
		s1.2,0.6,2,0.8s1.7,0.4,2.7,0.4c1.1,0,2.1-0.2,2.9-0.5s1.6-0.7,2.2-1.2s1-1.1,1.3-1.8s0.5-1.5,0.5-2.2c0-0.7-0.1-1.3-0.4-1.8
		s-0.7-1-1.2-1.4s-1-0.8-1.7-1.2s-1.3-0.7-1.9-1.1s-1.3-0.8-1.9-1.3s-1.2-1-1.7-1.5s-0.9-1.3-1.2-2s-0.5-1.6-0.5-2.7
		c0-1.2,0.2-2.4,0.7-3.5s1.2-2,2.1-2.8s2-1.5,3.2-1.9s2.7-0.7,4.2-0.7c0.8,0,1.5,0.1,2.1,0.2s1.3,0.3,1.8,0.5s1,0.4,1.4,0.6
		s0.7,0.4,0.8,0.5s0.2,0.3,0.3,0.4S395.7,1245.9,395.7,1246.1z"/>
	<path fill="#FFFFFF" d="M438.3,1246.9c0,0.3-0.1,0.7-0.2,1.2s-0.3,0.9-0.4,1.1s-0.4,0.4-0.6,0.4c-0.2,0-0.5-0.1-0.8-0.4
		s-0.7-0.6-1.2-0.9s-1.1-0.6-1.9-0.9s-1.8-0.4-3-0.4c-1.3,0-2.5,0.2-3.6,0.7s-2.1,1.2-2.9,2s-1.6,1.8-2.3,2.9s-1.2,2.2-1.6,3.4
		s-0.8,2.4-1,3.6s-0.3,2.4-0.3,3.5c0,1.2,0.2,2.4,0.5,3.3s0.8,1.8,1.4,2.5s1.3,1.2,2.2,1.5s1.8,0.5,2.9,0.5c1.2,0,2.3-0.1,3.2-0.4
		s1.6-0.6,2.3-0.9s1.2-0.6,1.6-0.9s0.8-0.4,1-0.4c0.2,0,0.3,0.1,0.4,0.2s0.1,0.3,0.1,0.6c0,0.1,0,0.2,0,0.3s-0.1,0.3-0.1,0.5
		s-0.1,0.4-0.1,0.6s-0.1,0.4-0.2,0.6s-0.1,0.3-0.2,0.5s-0.2,0.3-0.4,0.5s-0.5,0.4-1,0.7s-1.2,0.6-1.9,0.9s-1.6,0.5-2.6,0.7
		s-1.9,0.3-3,0.3c-1.6,0-3-0.2-4.3-0.7s-2.4-1.2-3.3-2.1s-1.6-2.1-2.1-3.5s-0.7-3-0.7-4.8c0-1.5,0.2-3,0.5-4.6s0.8-3.1,1.4-4.6
		s1.4-2.9,2.3-4.2s2-2.5,3.2-3.5s2.6-1.8,4.1-2.3s3.2-0.9,5-0.9c1.1,0,2.2,0.1,3.2,0.4s1.8,0.6,2.5,1s1.2,0.7,1.5,1
		S438.3,1246.5,438.3,1246.9z"/>
	<path fill="#FFFFFF" d="M463.8,1272.7c0,0.3,0.1,0.6,0,0.8s-0.1,0.4-0.3,0.5s-0.4,0.2-0.7,0.2s-0.7,0-1.3,0c-0.3,0-0.6,0-0.9,0
		s-0.4-0.1-0.6-0.1s-0.2-0.1-0.3-0.2s-0.1-0.2-0.1-0.4l-1.1-7.4H446l-4,7.3c-0.1,0.2-0.2,0.3-0.3,0.4s-0.2,0.2-0.4,0.2
		s-0.4,0.1-0.7,0.1s-0.6,0-1.1,0c-0.5,0-0.8,0-1.1-0.1s-0.5-0.1-0.6-0.2s-0.1-0.3-0.1-0.5s0.2-0.5,0.3-0.8l15.8-28.2
		c0.1-0.2,0.2-0.3,0.4-0.4s0.3-0.2,0.5-0.3s0.5-0.1,0.8-0.1s0.7,0,1.1,0c0.5,0,0.9,0,1.3,0s0.6,0.1,0.8,0.1s0.3,0.2,0.4,0.3
		s0.1,0.3,0.2,0.4L463.8,1272.7z M455.9,1247.9L455.9,1247.9l-8.2,15.1h10.5L455.9,1247.9z"/>
	<path fill="#FFFFFF" d="M494.2,1272.5c0,0.3-0.1,0.6-0.3,0.8s-0.3,0.4-0.5,0.5s-0.4,0.2-0.6,0.3s-0.4,0.1-0.6,0.1h-1.5
		c-0.4,0-0.8,0-1-0.1s-0.5-0.3-0.7-0.5s-0.4-0.5-0.6-0.9s-0.3-0.8-0.5-1.4l-5.7-16.2c-0.4-1.2-0.8-2.3-1.2-3.5s-0.8-2.3-1.1-3.5h0
		c-0.2,1.3-0.4,2.6-0.7,3.8s-0.5,2.5-0.7,3.8l-3.5,17.7c0,0.1-0.1,0.2-0.2,0.3s-0.2,0.2-0.4,0.2s-0.4,0.1-0.6,0.1s-0.6,0.1-0.9,0.1
		s-0.7,0-0.9-0.1s-0.4-0.1-0.6-0.1s-0.2-0.1-0.2-0.2s0-0.2,0-0.3l5.6-28c0.1-0.6,0.4-1.1,0.8-1.3s0.8-0.4,1.2-0.4h1.9
		c0.4,0,0.7,0,1,0.1s0.5,0.2,0.7,0.4s0.4,0.5,0.5,0.8s0.3,0.7,0.5,1.2l5.7,16.4c0.4,1,0.7,2,1.1,3s0.7,2,1,3.1h0
		c0.2-1.3,0.5-2.6,0.7-4s0.5-2.7,0.8-4l3.3-16.4c0-0.1,0.1-0.2,0.2-0.3s0.2-0.2,0.4-0.2s0.4-0.1,0.6-0.1s0.6,0,0.9,0
		c0.4,0,0.7,0,0.9,0s0.4,0.1,0.6,0.1s0.2,0.1,0.3,0.2s0.1,0.2,0,0.3L494.2,1272.5z"/>
	<path fill="#FFFFFF" d="M527.3,1272.7c0,0.3,0.1,0.6,0,0.8s-0.1,0.4-0.3,0.5s-0.4,0.2-0.7,0.2s-0.7,0-1.3,0c-0.3,0-0.6,0-0.9,0
		s-0.4-0.1-0.6-0.1s-0.2-0.1-0.3-0.2s-0.1-0.2-0.1-0.4l-1.1-7.4h-12.6l-4,7.3c-0.1,0.2-0.2,0.3-0.3,0.4s-0.2,0.2-0.4,0.2
		s-0.4,0.1-0.7,0.1s-0.6,0-1.1,0c-0.5,0-0.8,0-1.1-0.1s-0.5-0.1-0.6-0.2s-0.1-0.3-0.1-0.5s0.2-0.5,0.3-0.8l15.8-28.2
		c0.1-0.2,0.2-0.3,0.4-0.4s0.3-0.2,0.5-0.3s0.5-0.1,0.8-0.1s0.7,0,1.1,0c0.5,0,0.9,0,1.3,0s0.6,0.1,0.8,0.1s0.3,0.2,0.4,0.3
		s0.1,0.3,0.2,0.4L527.3,1272.7z M519.4,1247.9L519.4,1247.9l-8.2,15.1h10.5L519.4,1247.9z"/>
	<path fill="#FFFFFF" d="M557.5,1250.2c0,1.1-0.2,2.1-0.5,3.1s-0.8,1.9-1.4,2.7s-1.4,1.5-2.3,2.2s-2,1.1-3.2,1.5
		c0.8,0.3,1.5,0.9,2,1.9s0.9,2.2,1.2,3.8l1.2,6.7c0,0.3,0.1,0.6,0.1,0.8s0.1,0.5,0.1,0.7c0,0.1,0,0.3-0.1,0.4s-0.2,0.2-0.4,0.2
		s-0.4,0.1-0.7,0.1s-0.7,0-1.1,0c-0.4,0-0.7,0-1,0s-0.4-0.1-0.6-0.2s-0.2-0.2-0.3-0.3s-0.1-0.3-0.1-0.5l-1.2-7.1
		c-0.1-0.8-0.3-1.6-0.5-2.2s-0.5-1.3-0.9-1.7s-0.9-0.9-1.6-1.1s-1.4-0.4-2.3-0.4h-2.7l-2.6,12.9c0,0.1-0.1,0.2-0.2,0.3
		s-0.2,0.2-0.4,0.2s-0.4,0.1-0.7,0.1s-0.6,0.1-1,0.1c-0.4,0-0.7,0-0.9,0s-0.5-0.1-0.6-0.1s-0.2-0.1-0.3-0.2s-0.1-0.2,0-0.3l5.6-28.1
		c0.1-0.6,0.4-1,0.8-1.3s0.8-0.4,1.2-0.4h6.6c1.4,0,2.7,0.1,3.8,0.4s2,0.7,2.7,1.2s1.3,1.2,1.7,2S557.5,1249.2,557.5,1250.2z
		 M553.2,1250.8c0-0.5-0.1-1-0.3-1.5s-0.5-0.8-0.9-1.2s-0.9-0.6-1.6-0.8s-1.4-0.3-2.3-0.3h-4.2l-2.1,10.2h3.6c1.4,0,2.6-0.2,3.6-0.6
		s1.8-0.9,2.4-1.5s1.1-1.3,1.4-2.1S553.2,1251.6,553.2,1250.8z"/>
	<path fill="#FFFFFF" d="M567.1,1273.6c0,0.1-0.1,0.2-0.2,0.3s-0.2,0.2-0.4,0.2s-0.4,0.1-0.7,0.1s-0.6,0.1-1,0.1c-0.4,0-0.7,0-1-0.1
		s-0.4-0.1-0.6-0.1s-0.2-0.1-0.3-0.2s-0.1-0.2,0-0.3l5.8-29.2c0-0.1,0.1-0.2,0.2-0.3s0.2-0.2,0.4-0.2s0.4-0.1,0.6-0.1
		s0.6-0.1,0.9-0.1s0.7,0,0.9,0.1s0.4,0.1,0.6,0.1s0.2,0.1,0.3,0.2s0.1,0.2,0,0.3L567.1,1273.6z"/>
	<path fill="#FFFFFF" d="M599.9,1244.6c0,0.1,0,0.2,0,0.4s0,0.3-0.1,0.5s-0.1,0.4-0.1,0.6s-0.1,0.4-0.2,0.6s-0.2,0.3-0.3,0.4
		s-0.3,0.2-0.4,0.2h-11.8l-1.9,9.5h10.2c0.2,0,0.3,0.1,0.4,0.2s0.1,0.3,0.1,0.6c0,0.1,0,0.2,0,0.4s-0.1,0.3-0.1,0.5
		s-0.1,0.4-0.1,0.6s-0.1,0.4-0.2,0.5s-0.2,0.3-0.3,0.4s-0.3,0.2-0.4,0.2h-10.2l-2.2,10.9h12.1c0.2,0,0.3,0.1,0.4,0.2
		s0.2,0.3,0.2,0.6c0,0.1,0,0.2,0,0.4s0,0.4-0.1,0.5s-0.1,0.4-0.1,0.6s-0.1,0.4-0.2,0.5s-0.2,0.3-0.3,0.4s-0.3,0.1-0.4,0.1h-14.6
		c-0.2,0-0.3,0-0.5-0.1s-0.3-0.1-0.4-0.3s-0.2-0.3-0.2-0.5s0-0.5,0-0.8l5.4-27c0.1-0.6,0.4-1,0.7-1.3s0.7-0.4,1.1-0.4h14.4
		C599.8,1243.8,599.9,1244.1,599.9,1244.6z"/>
	<path fill="#FFFFFF" d="M626.5,1272.5c0,0.3-0.1,0.6-0.3,0.8s-0.3,0.4-0.5,0.5s-0.4,0.2-0.6,0.3s-0.4,0.1-0.6,0.1H623
		c-0.4,0-0.8,0-1-0.1s-0.5-0.3-0.7-0.5s-0.4-0.5-0.6-0.9s-0.3-0.8-0.5-1.4l-5.7-16.2c-0.4-1.2-0.8-2.3-1.2-3.5s-0.8-2.3-1.1-3.5h0
		c-0.2,1.3-0.4,2.6-0.7,3.8s-0.5,2.5-0.7,3.8l-3.5,17.7c0,0.1-0.1,0.2-0.2,0.3s-0.2,0.2-0.4,0.2s-0.4,0.1-0.6,0.1s-0.6,0.1-0.9,0.1
		s-0.7,0-0.9-0.1s-0.4-0.1-0.6-0.1s-0.2-0.1-0.2-0.2s0-0.2,0-0.3l5.6-28c0.1-0.6,0.4-1.1,0.8-1.3s0.8-0.4,1.2-0.4h1.9
		c0.4,0,0.7,0,1,0.1s0.5,0.2,0.7,0.4s0.4,0.5,0.5,0.8s0.3,0.7,0.5,1.2l5.7,16.4c0.4,1,0.7,2,1.1,3s0.7,2,1,3.1h0
		c0.2-1.3,0.5-2.6,0.7-4s0.5-2.7,0.8-4l3.3-16.4c0-0.1,0.1-0.2,0.2-0.3s0.2-0.2,0.4-0.2s0.4-0.1,0.6-0.1s0.6,0,0.9,0
		c0.4,0,0.7,0,0.9,0s0.4,0.1,0.6,0.1s0.2,0.1,0.3,0.2s0.1,0.2,0,0.3L626.5,1272.5z"/>
	<path fill="#FFFFFF" d="M656.4,1246.1c0,0.1,0,0.3,0,0.4s0,0.3-0.1,0.5s-0.1,0.4-0.1,0.6s-0.1,0.4-0.2,0.5s-0.2,0.3-0.3,0.4
		s-0.2,0.1-0.3,0.1c-0.2,0-0.4-0.1-0.7-0.3s-0.7-0.4-1.2-0.6s-1-0.4-1.7-0.6s-1.4-0.3-2.3-0.3c-1,0-1.8,0.1-2.5,0.4
		s-1.3,0.7-1.8,1.2s-0.8,1.1-1.1,1.7s-0.4,1.3-0.4,1.9c0,0.7,0.2,1.3,0.5,1.8s0.7,1,1.2,1.4s1.1,0.8,1.7,1.2s1.3,0.8,1.9,1.1
		s1.3,0.8,1.9,1.3s1.2,1,1.7,1.5s0.9,1.3,1.2,2s0.5,1.6,0.5,2.6c0,1.3-0.3,2.6-0.8,3.7s-1.3,2.2-2.3,3s-2.2,1.6-3.6,2.1
		s-3,0.8-4.8,0.8c-1,0-1.8-0.1-2.7-0.2s-1.6-0.4-2.2-0.6s-1.2-0.5-1.7-0.8s-0.8-0.5-1-0.7s-0.3-0.5-0.3-0.9c0-0.1,0-0.2,0-0.4
		s0.1-0.4,0.1-0.6s0.1-0.4,0.2-0.6s0.1-0.4,0.2-0.5s0.2-0.3,0.3-0.4s0.2-0.2,0.4-0.2c0.2,0,0.6,0.1,0.9,0.4s0.8,0.5,1.4,0.8
		s1.2,0.6,2,0.8s1.7,0.4,2.7,0.4c1.1,0,2.1-0.2,2.9-0.5s1.6-0.7,2.2-1.2s1-1.1,1.3-1.8s0.5-1.5,0.5-2.2c0-0.7-0.1-1.3-0.4-1.8
		s-0.7-1-1.2-1.4s-1-0.8-1.7-1.2s-1.3-0.7-1.9-1.1s-1.3-0.8-1.9-1.3s-1.2-1-1.7-1.5s-0.9-1.3-1.2-2s-0.5-1.6-0.5-2.7
		c0-1.2,0.2-2.4,0.7-3.5s1.2-2,2.1-2.8s2-1.5,3.2-1.9s2.7-0.7,4.2-0.7c0.8,0,1.5,0.1,2.1,0.2s1.3,0.3,1.8,0.5s1,0.4,1.4,0.6
		s0.7,0.4,0.8,0.5s0.2,0.3,0.3,0.4S656.4,1245.9,656.4,1246.1z"/>
	<path fill="#FFFFFF" d="M664.9,1273.6c0,0.1-0.1,0.2-0.2,0.3s-0.2,0.2-0.4,0.2s-0.4,0.1-0.7,0.1s-0.6,0.1-1,0.1c-0.4,0-0.7,0-1-0.1
		s-0.4-0.1-0.6-0.1s-0.2-0.1-0.3-0.2s-0.1-0.2,0-0.3l5.8-29.2c0-0.1,0.1-0.2,0.2-0.3s0.2-0.2,0.4-0.2s0.4-0.1,0.6-0.1
		s0.6-0.1,0.9-0.1s0.7,0,0.9,0.1s0.4,0.1,0.6,0.1s0.2,0.1,0.3,0.2s0.1,0.2,0,0.3L664.9,1273.6z"/>
	<path fill="#FFFFFF" d="M695,1246.1c0,0.1,0,0.3,0,0.4s0,0.3-0.1,0.5s-0.1,0.4-0.1,0.6s-0.1,0.4-0.2,0.5s-0.2,0.3-0.3,0.4
		s-0.2,0.1-0.3,0.1c-0.2,0-0.4-0.1-0.7-0.3s-0.7-0.4-1.2-0.6s-1-0.4-1.7-0.6s-1.4-0.3-2.3-0.3c-1,0-1.8,0.1-2.5,0.4
		s-1.3,0.7-1.8,1.2s-0.8,1.1-1.1,1.7s-0.4,1.3-0.4,1.9c0,0.7,0.2,1.3,0.5,1.8s0.7,1,1.2,1.4s1.1,0.8,1.7,1.2s1.3,0.8,1.9,1.1
		s1.3,0.8,1.9,1.3s1.2,1,1.7,1.5s0.9,1.3,1.2,2s0.5,1.6,0.5,2.6c0,1.3-0.3,2.6-0.8,3.7s-1.3,2.2-2.3,3s-2.2,1.6-3.6,2.1
		s-3,0.8-4.8,0.8c-1,0-1.8-0.1-2.7-0.2s-1.6-0.4-2.2-0.6s-1.2-0.5-1.7-0.8s-0.8-0.5-1-0.7s-0.3-0.5-0.3-0.9c0-0.1,0-0.2,0-0.4
		s0.1-0.4,0.1-0.6s0.1-0.4,0.2-0.6s0.1-0.4,0.2-0.5s0.2-0.3,0.3-0.4s0.2-0.2,0.4-0.2c0.2,0,0.6,0.1,0.9,0.4s0.8,0.5,1.4,0.8
		s1.2,0.6,2,0.8s1.7,0.4,2.7,0.4c1.1,0,2.1-0.2,2.9-0.5s1.6-0.7,2.2-1.2s1-1.1,1.3-1.8s0.5-1.5,0.5-2.2c0-0.7-0.1-1.3-0.4-1.8
		s-0.7-1-1.2-1.4s-1-0.8-1.7-1.2s-1.3-0.7-1.9-1.1s-1.3-0.8-1.9-1.3s-1.2-1-1.7-1.5s-0.9-1.3-1.2-2s-0.5-1.6-0.5-2.7
		c0-1.2,0.2-2.4,0.7-3.5s1.2-2,2.1-2.8s2-1.5,3.2-1.9s2.7-0.7,4.2-0.7c0.8,0,1.5,0.1,2.1,0.2s1.3,0.3,1.8,0.5s1,0.4,1.4,0.6
		s0.7,0.4,0.8,0.5s0.2,0.3,0.3,0.4S695,1245.9,695,1246.1z"/>
</g>
<g>
	<g>
		<g>
			<path fill="#B7AD55" d="M443.3,821.9c-3.5,1.6-7.9,0.7-11.1-1.6s-5.5-5.5-7.7-8.8c-2.4-3.7-4.7-7.7-5.2-12.1
				c-0.1-1.3-0.2-2.8-1.3-3.5c-1.7,2-0.8,5,0.2,7.4c1.4,3.5,2.8,7,4.2,10.5c0.7,1.7,1.4,3.5,2.6,4.9c1.6,1.9,3.8,3.1,6.1,4.1
				c4.3,2,8.8,3.5,13.3,4.7c0.6,0.1,1.3,0.3,1.8-0.1c0.3-0.2,0.5-0.6,0.6-0.9c0.5-1.7-0.1-3.8-1.6-4.9c-1.4-1.1-3.5-1.2-5.1-0.3"/>
		</g>
		<g>
			<g>
				<path fill="#B7AD55" d="M444.2,821.3c-7.7,2.8-13.7-3.1-17.7-8.9c-1.9-2.7-3.7-5.6-4.9-8.7c-1-2.6-0.7-6.2-2.6-8.2
					c-0.2-0.2-2,0.9-2.2,1.2c-1.5,2.5-0.8,4.9,0.2,7.5c1.4,3.9,3,8,4.7,11.8c3.2,7.1,11.1,9.4,18.1,11.5c2.2,0.7,5.3,1.9,7.2-0.2
					c3.9-4.3-2.6-7.7-6.3-6.2c-0.3,0.1-2.3,1.4-1.4,1.1c2.2-0.9,5.7-0.1,6.2,2.6c0.6,3.1-3.4,1.6-5.2,1c-4.3-1.4-9.2-2.9-12.7-5.8
					c-3.3-2.7-4.4-7-5.9-10.8c-1.5-3.9-5-9.4-2.6-13.5c-0.7,0.4-1.4,0.8-2.2,1.2c2.1,2.4,1.8,6.7,3.2,9.7c1.6,3.5,3.9,6.9,6.2,9.9
					c4,5,9.6,8.5,16.1,6.2C442.9,822.4,444.4,821.3,444.2,821.3L444.2,821.3z"/>
			</g>
		</g>
	</g>
	<g>
		<g>
			<path fill="#CA9B46" d="M211.5,714c-1.8-12.9-14.2-23.5-27.3-23.2c-3.1,0.1-6.3,0.7-9,2.3c-3.4,2-5.8,5.4-7.9,8.7
				c-3.2,5-6.3,10.7-5.7,16.6c0.2,2.2,0.9,4.3,1.9,6.3c4,8.2,12.7,13.9,21.8,14.3c9.1,0.4,18.3-4.5,22.9-12.4c1.1-1.9,2-3.9,2.2-6.1
				c0.1-1.3-0.1-2.6-0.2-3.9c-0.3-2.6-0.6-5.1-1-7.7"/>
		</g>
		<g opacity="0.54">
			<g>
				<path fill="#C0893A" d="M208.2,726.6c1.1-1.9,2-3.9,2.2-6.1c0.1-1.3-0.1-2.6-0.2-3.9c-0.3-2.6-0.6-5.1-1-7.7l2.3,5.1
					c-0.8-5.8-3.8-11.2-8-15.2c-1,0.3-1.9,0.9-2.8,1.9c-2.5,2.8-3.8,6.7-5.1,10.1c-2,5.2-4.1,12.6-9.6,15.2
					c-7.8,3.6-15.4-2.1-20.4-7.8c-1.6-1.8-2.8-3.7-3.5-5.5c-0.5,1.9-0.7,3.8-0.5,5.7c0.2,2.2,0.9,4.3,1.9,6.3
					c4,8.2,12.7,13.9,21.8,14.3C194.4,739.3,203.5,734.4,208.2,726.6z"/>
			</g>
		</g>
	</g>
	<g>
		<path fill="#D7A659" d="M166.5,756c-8.7-2.1-18.5,3.4-21.4,11.9c-0.8,2.3-1,4.7-1.2,7.1c-0.2,3.1-0.2,6.4,1.2,9.2
			c0.7,1.4,1.8,2.7,2.9,3.8c5.4,5.3,13.5,8,20.8,6.1c7.3-1.9,13.3-8.8,13.2-16.3c0-2-0.4-3.9-0.8-5.8c-0.9-4-1.9-8.2-4.6-11.2
			c-4-4.4-10.5-5.2-16.4-5.7"/>
	</g>
	<g>
		<path fill="#C57F3B" d="M231.1,792.4c-4.3-4.3-11.6-2.6-17.1,0c-2.9,1.4-5.7,3-8.1,5.2c-5,4.6-7.6,11.7-7,18.5
			c0.6,6.8,4.1,13.2,9.3,17.7c4.3,3.7,9.9,6.1,15.5,5.8c7.6-0.4,14.3-5.4,18.6-11.7c3.3-4.8,5.5-10.6,4.7-16.4
			c-0.8-5.5-4.1-10.3-8.3-13.9c-4.2-3.6-9.1-6.2-14-8.7"/>
	</g>
	<g opacity="0.44">
		<g>
			<path fill="#AB7B39" d="M238.8,797.9c-1-0.9-2.1-1.7-3.1-2.4c-3.2,2.8-5,6.6-6.1,10.9c-0.8,3.1-0.9,6.6-2.4,9.6
				c-1.5,2.9-4.3,4.4-7.4,5.1c-3.4,0.9-6.9,1.2-10.4,1.1c-2.5-0.1-5-0.5-7.5-0.4c-0.6,0-1.2,0.2-1.7,0.4c1.6,4.6,4.4,8.7,8.1,11.9
				c4.3,3.7,9.9,6.1,15.5,5.8c7.6-0.4,14.3-5.4,18.6-11.7c3.3-4.8,5.5-10.6,4.7-16.4C246.4,806.3,243,801.5,238.8,797.9z"/>
		</g>
	</g>
	<g>
		<g>
			<path fill="#FFFFFF" d="M301,483.1c3.2,0,3.2-5,0-5C297.8,478.1,297.8,483.1,301,483.1L301,483.1z"/>
		</g>
	</g>
	<g>
		<path fill="#7C844C" d="M301,480.9c-14.3,1.8-27.2,9.4-39.5,17.1C224,521.6,188.1,548.4,158,581c-30.1,32.6-54.4,71.2-66.5,113.9
			c8-8.7,16-17.3,23.9-26c7.8-8.5,15.6-16.9,23.4-25.4c11.1-12,22.2-24.1,34.3-35c13.6-12.3,28.6-23.2,40.2-37.4
			c4.9-6.1,9.2-12.7,14.1-18.7c14.9-18.3,35.8-31.1,50.6-49.5c7.1-8.9,14.1-19.8,25.4-21.5"/>
	</g>
	<g>
		<path fill="#7C844C" d="M291.5,501.2c-7.5-0.5-13.7,5.5-18.7,11.1c-7.3,8.2-14.5,16.5-21.6,24.9c-10.6,12.7-20.9,25.7-28.5,40.4
			c-5.5,10.4-9.5,21.6-13.3,32.7c-10.6,31.2-19.6,63-27,95.1c10.2-13.1,20.4-26.1,30.6-39.2c6.6-8.5,13.2-17,19.3-25.9
			c19.1-28.1,32.3-60.2,54.3-86c5.7-6.6,12.1-13.2,14.3-21.6c1.7-6.8,0.5-13.9-0.8-20.8c-0.6-3.3-1.3-6.7-3.4-9.3
			c-2.1-2.6-6.2-3.8-8.9-1.7"/>
	</g>
	<g>
		<path fill="#7C844C" d="M380.7,436.7c4.2-16.9,9-33.8,16.4-49.6c7.4-15.8,17.5-30.6,30.9-41.7c1.3-1.1,2.7-2.1,4.3-2.5
			c1.8-0.5,3.8,0,5.7,0.2c7.5,0.9,15.4-1.5,21.1-6.5c2.8-2.5,5.1-6.7,3-9.8c-1.5-2.1-4.5-2.8-5.6-5.1c-0.5-1.2-0.5-2.5-0.1-3.8
			c1.1-3.5,4.5-6.1,8.1-6.2c3.6-0.1,7.2,2.3,8.5,5.7c2.1,5.6-1.8,11.6-6,15.9c-8.6,8.8-18.9,15.7-28,24
			c-21.6,19.7-35.1,46.6-54.2,68.8c-3.9,4.5-8.1,9.2-8.9,15"/>
	</g>
	<g>
		<path fill="#7C844C" d="M385.5,445.8c36.8-30.7,84.8-47.7,132.7-46.9c3.2,0.1,6.6,0.2,9.6,1.4c3,1.2,5.7,3.8,6.2,7
			c0.3,1.8-0.1,3.7,0.5,5.5c1.5,4.5,8.3,4.7,11.9,1.7c1.5-1.2,2.7-2.8,4.4-3.6c2.1-1,4.6-0.8,6.9-0.4c7.1,1,14.1,2.7,21,4.8
			c5.8,1.8,12.5,5.6,12,11.7c-0.2,2.8-1.8,6.1,0.4,7.9c1.1,0.9,2.7,0.7,4.2,0.7c9-0.4,18,5.3,21.5,13.6c-5.3,1.1-10.6-1.7-15.5-4
			c-5.9-2.7-12.1-4.8-18.4-6.5c-36.8-9.9-75.7-7.2-113.4-12.7c-10.2-1.5-20.4-3.6-30.7-3.9s-21,1.1-29.9,6.3"/>
	</g>
	<g>
		<path fill="#7C844C" d="M382.7,473.7c4.9-4.7,11.3-7.3,17.7-9.5c38-13.3,80-15.1,119-5.1c12.1,3.1,23.8,7.2,35.5,11.4
			c15,5.3,30,10.7,45.1,16c18.6,6.6,37.4,13.3,53.9,24.2c5.3,3.5,10.5,7.6,13.9,12.9c3.9,6,5.3,13.2,6.7,20.1
			c2.2,11.3,4.5,23,1.8,34.1c-3.6-6.4-7.4-12.9-12.9-17.7c-11.5-10-28.4-10.5-41.9-17.7c-15.7-8.4-25.7-25.3-41.8-33
			c-6.7-3.2-14-4.7-21.1-6.7c-29.6-8.5-55.5-27.2-85.1-35.7c-14.1-4-28.9-5.7-43.5-7.3c-6.8-0.7-13.7-1.5-20.4,0.1
			c-5.8,1.4-11,4.5-16.2,7.5c-3.5,2.1-6.9,4.1-10.4,6.2"/>
	</g>
	<g>
		<path fill="#7C844C" d="M375.4,428.2c1.8-5.2,2-10.9,2.1-16.5c0.2-7.6,0.3-15.4-2-22.7s-7.3-14.1-14.5-16.7
			c-0.8-0.3-1.7-0.5-2.6-0.5c-3.4,0.1-5.6,4.1-5.2,7.5c0.5,3.4,2.7,6.2,4.8,8.9c9.3,11.9,17.8,25.9,17,41c0,0.4-0.1,0.9-0.5,1.1
			s-0.9-0.4-0.5-0.6"/>
	</g>
	<g>
		<path fill="#847F56" d="M389.7,595.1c-5.5-5.9-15.8-4.7-22,0.5c-6.1,5.3-9,13.4-11.1,21.2c-6.5,24.9-7,52.4,4.3,75.5
			c2.7,5.5,6,10.7,8.8,16.1c3.2,6.3,5.6,13,8,19.6c2.3,6.5,4.7,13.1,5.4,19.9c0.7,7.4-0.7,14.9-0.6,22.3c0.1,7.4,2,15.4,7.8,20.2
			c2.6-0.1,4.4-2.9,4.5-5.5s-1-5-1.8-7.5c-3.8-11.6-1.7-24.3-2.9-36.5c-2.6-27.1-21.2-50.2-25.8-77c-2-11.7-1.2-23.8,0.6-35.6
			c0.9-6.1,2.2-12.4,6.1-17.2c3.9-4.8,11.1-7.4,16.4-4.2c2.4,1.4,4,3.7,6,5.6c2,1.9,4.9,3.3,7.5,2.4c-0.2-3.5-0.4-7.1-1.3-10.5
			c-2.2-7.6-9.9-14.3-17.6-12.2"/>
	</g>
	<g>
		<g>
			<path fill="#B7AD55" d="M392,599.4c4.2,19.9,6.1,40.1,8,60.4c1.9,20,3.5,41.2-5.4,59.3c-2.9,6-6.9,11.3-10.2,17.1
				c-9.8,17.5-13.3,39.3-28.6,52.3c-9.1,7.7-22.3,12.4-25.9,23.8c5.1,1,9.7-2.8,13.3-6.5c26.7-26.9,46.9-60,58.6-96
				c-0.7,16.8-1.3,33.5-2,50.3c1.7,0.8,3.8,0.8,5.5,0c-0.7-14.8,0.1-29.7,2.1-44.4c4.6,11.5,9.1,22.9,13.7,34.4
				c1.4,3.6,2.9,7.3,5.4,10.3c9.7,11.5,29.4,8,40.6,17.9c2.9,2.6,5.1,6,7.2,9.3c5.4,8.6,10.8,17.1,16.3,25.7
				c5.2,8.2,10.5,16.7,11.8,26.3c0.9,6.8-0.3,13.7-0.3,20.6c2.1-7.2,4.3-14.5,6.4-21.7c0.7-2.5,1.5-5.1,1.1-7.7
				c-0.4-2.6-1.9-5-3.4-7.2c-4.9-7.4-9.8-14.8-14.7-22.1c-8.5-12.8-18.1-26.5-32.8-31.1c-4.2-1.3-8.7-1.8-12.9-3.2
				c-9.7-3-17.9-10.5-21.8-19.8c-2.7-6.6-3.4-13.8-6-20.5c-1.5-3.8-3.6-7.3-5.3-11.1c-13.9-30.3-1.8-66.7-11.1-98.7
				c-0.5-1.7-1.1-3.4-2.4-4.5c-1.3-1.1-3.5-1.4-4.7-0.1"/>
		</g>
		<g>
			<g>
				<path fill="#B7AD55" d="M390.8,599.7c3.7,17.9,5.7,36.1,7.4,54.3c1.5,16.3,3.6,33.1,0.3,49.3c-3.3,16.3-14.3,28.8-20.7,43.8
					c-5.6,13.1-9.9,27.6-20.1,37.9c-9.3,9.4-24.2,13.5-29,26.8c-0.3,0.8,0.5,1.5,1.2,1.6c9.9,1.1,17.6-10.1,23.4-16.6
					c7.3-8.2,14-16.9,20.1-26c12.7-18.8,22.6-39.3,29.6-60.9c-0.8-0.1-1.6-0.2-2.5-0.3c-0.7,16.8-1.3,33.5-2,50.3
					c0,0.6,0.4,1,0.9,1.2c2.2,0.7,4,0.7,6.2,0c0.5-0.2,0.9-0.6,0.9-1.2c-0.6-14.7,0.1-29.4,2.1-44.1c-0.8,0-1.6,0-2.4,0
					c3.4,8.4,6.7,16.9,10.1,25.3c2.6,6.6,4.7,14.4,9.4,19.9c7.5,8.9,20.2,9.1,30.5,12.6c8,2.7,12.6,7.4,17.1,14.4
					c4.8,7.5,9.5,15,14.2,22.5c4.6,7.2,9.6,14.4,12.2,22.6c2.8,8.9,1.2,17.8,1.2,26.9c0,1.4,2.1,1.7,2.5,0.3
					c1.6-5.4,3.2-10.9,4.8-16.3c1.3-4.3,3.4-9.2,2.7-13.8c-0.7-4.3-3.8-7.9-6.1-11.4c-3.3-5-6.6-10-10-15
					c-9.5-14.4-19.8-30.6-37.4-35.4c-5.5-1.5-11-2.1-16.2-4.7c-5-2.5-9.3-6.3-12.5-10.9c-6-8.5-6.1-19.1-10.1-28.4
					c-2.3-5.2-5.1-10-7-15.4c-1.8-5.2-2.9-10.6-3.6-16c-1.4-10.6-1.2-21.4-1.1-32.1c0.1-11.5,0.2-23-1.7-34.4
					c-0.7-4.4-2.9-20.8-11.1-15.3c-1.3,0.9-0.1,3.1,1.3,2.2c5-3.3,7.1,11.9,7.4,13.8c0.9,5.5,1.3,11,1.5,16.6c0.3,9.7,0,19.5,0,29.2
					c0,8.8,0.4,17.7,2.1,26.3c1.8,9.6,6.1,17.4,9.9,26.3c3.6,8.5,4,18,8.7,26.1c3.7,6.4,9.5,11.7,16.2,14.8c8.6,4,18.1,3.9,26.2,9.1
					c7.8,5,13.7,12.6,18.9,20.1c6.3,9,12.3,18.4,18.4,27.6c2.2,3.3,4,6.2,3.7,10.3c-0.2,2.7-1.3,5.4-2.1,8.1
					c-1.8,6-3.5,12.1-5.3,18.1c0.8,0.1,1.6,0.2,2.5,0.3c0.1-8.1,1.5-16.3-0.3-24.3c-1.7-7.4-5.5-14-9.5-20.4
					c-4.6-7.4-9.4-14.8-14-22.2c-3.8-6-7.3-13.1-13.2-17.4c-10-7.4-23.5-5.9-33.9-12.3c-7.8-4.8-10.2-14.1-13.3-22.2
					c-3.5-8.7-7-17.5-10.4-26.2c-0.4-1-2.2-1.4-2.4,0c-1,7.5-1.8,15-2.1,22.5c-0.2,4.2-0.3,8.4-0.3,12.6c0,1.8,0.4,4,0.1,5.8
					c-0.2,1.3-0.8,5.5-2.8,1.9c-0.4-0.8,0.2-4.9,0.2-5.8c0.1-1.9,0.2-3.9,0.2-5.8c0.2-3.9,0.3-7.7,0.5-11.6c0.3-8.4,0.7-16.8,1-25.2
					c0.1-1.5-2-1.6-2.5-0.3c-6.5,19.7-15.4,38.6-26.6,56.1c-5.7,8.8-11.9,17.2-18.6,25.2c-3.2,3.8-6.6,7.5-10,11.2
					c-4.1,4.3-8.8,9.8-15.4,9.1c0.4,0.5,0.8,1.1,1.2,1.6c4.7-13,20.5-17.2,29.3-26.8c9.2-10,13.6-23.2,18.7-35.5
					c6.2-15,17.4-27.7,21.2-43.7c3.7-15.6,2.2-31.9,0.8-47.7c-1.9-20-3.8-40-7.9-59.7C392.9,597.5,390.5,598.2,390.8,599.7
					L390.8,599.7z"/>
			</g>
		</g>
	</g>
	<g>
		<path fill="#807157" d="M329,816.3c-0.2,3.9-0.4,7.8-0.6,11.7c0,0.5,0,0.9,0.2,1.3c0.2,0.3,0.6,0.5,1,0.6c1.2,0.4,2.4,0.7,3.7,0.8
			c0.5,0,1,0.1,1.3-0.2c0.5-0.4,0.5-1.2,0.5-1.8c-0.6-6.5-1.4-12.9-2.3-19.3c-2.9,1.6-4.6,5.3-3.8,8.6"/>
	</g>
	<g>
		<path fill="#CA9B46" d="M476.5,802.7c-1.4-3.2-5.9-3.4-9.4-3.1c-4.5,0.5-9.1,1-13.3,2.6c-4.2,1.6-8.2,4.4-10.2,8.5
			c-1.5,2.9-1.9,6.3-2.1,9.6c-0.4,6.3,0.1,12.7,2.6,18.5c2.5,5.7,7.4,10.7,13.5,12.1c3.8,0.9,7.8,0.3,11.5-0.7c4-1.2,7.9-3,10.8-6
			c2.8-3,4.5-6.9,5.5-11c1.6-6.2,1.8-13-0.5-19s-7.2-11.2-13.4-12.8"/>
	</g>
	<g>
		<path fill="#BC9532" d="M532.5,854.5c-0.8-3.3-3.3-5.9-6.2-7.3c-2.9-1.4-6.2-1.8-9.5-1.8c-7.6,0.1-15.3,2.2-21.2,7.1
			c-5.9,4.9-9.8,12.7-9.2,20.5s6.2,15.3,13.6,16.9c7.9,1.7,15.7-3.1,21.8-8.6c5-4.6,9.5-9.9,11.8-16.3c1.7-4.5,1.8-10.5-1.9-13.3"/>
	</g>
	<g>
		<path fill="#B6873D" d="M392.5,823.6c-0.1-8.3-5.2-16.3-12.7-20c-7.4-3.7-16.9-2.8-23.6,2.1c-5.7,4.2-9.1,10.8-11.2,17.5
			c-1.4,4.6-2.3,9.6-0.8,14.1c1.9,5.5,6.9,9.3,12.1,12.1c4.6,2.4,9.5,4.3,14.6,4.8c5.1,0.4,10.6-0.8,14.6-4.1
			c4.3-3.5,6.6-9.1,7.3-14.6s0-11.1-0.8-16.7"/>
	</g>
	<g>
		<path fill="#847F56" d="M278,617c-16,7.8-30,19.8-40.3,34.4c-7,9.9-12.2,21-17.4,31.9c-5.5,11.7-11,23.3-16.6,35
			c-1.7,3.6-3.4,7.3-4.2,11.2c-0.7,4-0.4,8.1-0.9,12.2c-0.7,6.4-3.3,12.5-5.9,18.4c-3,6.9-6.1,13.8-11,19.5c-3.4,4-7.8,7.5-9,12.6
			c3.1-0.7,5.4-3.3,7.4-5.7c13.8-17.1,23.1-37.9,26.7-59.6c-0.1,8.3,1,16.7,3,24.7c0.1,0.6,0.3,1.2,0.7,1.6c1.1,1.1,3.2,0.3,3.8-1.2
			c0.6-1.4,0.2-3.1-0.2-4.6c-3.2-13.2-3.4-27.2-0.6-40.5c1-4.6,2.3-9.2,4.3-13.4c3.5-7.5,8.8-14,14.2-20.4
			c10.9-13.1,21.8-26.2,32.8-39.3c7-8.4,15.5-17.6,26.4-17.8c-5.3,1.7-10.6,3.5-15.9,5.2"/>
	</g>
	<g>
		<path fill="#CA9B46" d="M225.6,752c-5.1-2.5-11.3-0.4-15.8,3c-6.3,4.8-10.5,12.3-11.6,20.1c-1,7.9,1,16.1,5.6,22.6
			c1.7,2.4,3.7,4.6,6.1,6.1c3.2,2,6.9,2.9,10.6,3.1c10.9,0.6,22.1-4.6,28.2-13.6c6.1-9.1,6.4-21.8,0.4-30.9
			c-6.1-9.1-18.5-13.6-28.8-9.9"/>
	</g>
	<g>
		<g>
			<path fill="#828C55" d="M385.7,490.2c31.4,0.1,60.2,20.5,77.1,46.8c17,26.4,23.7,58.1,27,89.3c4.9,46.1,2.7,93.4-12.1,137.3
				c-14.3-16.8-28.8-33.8-38.6-53.5c-5.3-10.7-9.2-21.9-13-33.2c-6.7-19.5-13.3-38.9-20-58.4c-5.9-17.2-11.8-34.4-14.9-52.3
				c-3.5-20.5-3.2-41.4-2.7-62.1c0.2-6.3,0.3-12.8-2.5-18.4"/>
		</g>
		<g>
			<path fill="#727F3F" d="M399.5,498.8c8.7,7.7,13.1,18.3,17,29.2c8,22.1,12.8,45.2,21.2,67.1c8.8,22.9,19.6,45.1,25.8,69
				c6.4,25,9.9,51,13.7,76.5c1.1,7.7,1.9,15.4,2.6,23.1c13.1-43.4,14.8-89.9,10.1-135.2c-3.3-32.1-10-64.7-27-91.9
				c-16.6-26.6-44.5-47.2-75.1-48.2c0.1,0.6,0.3,1.2,0.4,1.8C392,492.9,395.9,495.6,399.5,498.8z"/>
		</g>
	</g>
	<g>
		<g>
			<path fill="#828C55" d="M363.6,564.9c-7.8,0.5-15.5,2.8-22.3,6.6c-6.5,3.6-12.1,8.4-17.7,13.3c-15.7,13.6-31.6,27.7-41.8,45.7
				c-2.9,5.1-5.3,10.5-7.7,15.9c-7.3,16.3-14.7,32.8-17.8,50.5c-1,5.6-1.5,11.3-0.7,16.9c0.7,4.7,2.4,9.1,4,13.6
				c2.8,7.5,5.5,15,8.3,22.5c0.4,1,0.8,2.1,1.7,2.7c2,1.4,4.7-0.3,6.2-2.2c7.4-8.9,7.6-21.5,9.3-32.9c5.1-33.9,26.9-63,37.1-95.7
				c4-12.6,6.2-26,12.7-37.5c6.5-11.6,18.6-21.3,31.7-19.9"/>
		</g>
		<g>
			<path fill="#727F3F" d="M267.9,750c2.7-4.6,4.2-10,5.1-15.3c1.4-7.9,1.8-16,2.3-24c0.9-15.8,4.6-31.5,8.9-46.7
				c4.7-16.9,11.5-32.8,19.3-48.6c4.7-9.4,9.6-18.7,15.8-27.1c-14.3,12.5-28.3,25.6-37.6,42c-2.9,5.1-5.3,10.5-7.7,15.9
				c-7.3,16.3-14.7,32.8-17.8,50.5c-1,5.6-1.5,11.3-0.7,16.9c0.7,4.7,2.4,9.1,4,13.6l8.3,22.5C267.8,749.7,267.9,749.8,267.9,750z"
				/>
		</g>
	</g>
	<g>
		<path fill="#727F3F" d="M133.2,632.3c6.1-9.4,11.9-18.8,19.6-27c7-7.4,14.9-13.8,22.9-20c8.3-6.5,16.9-12.8,24.8-19.8
			c8.3-7.4,15.6-15.8,22.9-24.2c7.3-8.5,14.7-16.9,23.2-24.3c8.1-7,16.9-13.2,26-18.9c6.1-3.8,12.3-7.3,18.7-10.6
			c3.6-3.2,7.5-5.5,12.3-6.3l-2.4-0.4c-14.3,1.8-27.2,9.4-39.5,17.1C224,521.6,188.1,548.4,158,581S103.6,652.3,91.5,695
			c1.5-1.6,3-3.3,4.5-4.9C108,670.6,120.8,651.5,133.2,632.3z"/>
	</g>
	<g>
		<path fill="#7C844C" d="M369.6,432.2c-11.6-12.9-26.5-22.8-42.8-28.7c-10.4-3.7-21.4-5.8-32.3-7.9c-15.8-3-31.6-6-47.6-6.6
			c-6.3-0.3-12.7-0.2-19-0.1c-13.2,0.2-26.4,0.4-39.6,0.6c26.5,13.7,57.2,16.1,86.9,18.1c9.5,0.7,19.1,1.3,28.6,1.4
			c12.4,0.1,24.9-0.7,37,1.9c12.1,2.6,24,9.5,29.1,20.8"/>
	</g>
	<g>
		<g>
			<g>
				<path fill="#B7AD55" d="M363.8,437.4c5.9,9.5,8.7,20.8,8.1,31.9c-0.9-9.1-8.5-17.1-17.5-18.4c6.6,3.3,13.6,7.1,16.5,13.8
					c3.6,8.2-0.3,17.7,0.2,26.7c-3.3-5.8-6.7-11.8-11.9-15.9s-12.9-5.9-18.7-2.5c6.5,0.4,13.2,0.9,18.8,4.1
					c10.9,6.3,14,21.3,10.5,33.5c-5.9-4-12.2-8-19.3-8.5c-8.4-0.6-16.9,4.7-20.1,12.5c8.3-5.5,18.5-7.3,28.5-7.4
					c3.6-0.1,7.8,0.3,10,3.2c1.8,2.3,1.7,5.5,1.6,8.4c-1.5,28.2-4.6,56.2-9,84.1c1.5-4.3,5.3-7.7,9.8-8.6c1.3-0.3,2.7-0.4,3.6-1.3
					c0.8-0.9,0.9-2.2,0.9-3.3c1-31.5,1.9-62.9,2.9-94.4c0.2-6,0.4-12.2,3.1-17.5c3.5-6.9,11-11.4,18.7-11.2
					c-7.9,0.6-15.6,4.4-20.8,10.4c-1.5-5.2-2.8-10.5-2.5-15.9c0.3-5.4,2.2-10.9,6.3-14.4c3.3-2.9,7.8-4.3,12-5.6
					c-7.2,1.5-13.8,5.8-18.2,11.7c-2.5-3.9,0.2-8.8,2.9-12.6c4.7-6.5,9.3-13,14-19.6c-8.1,3-15.4,8.3-20.7,15.1
					c-0.7,0.9-1.4,1.8-2.4,2.2c-1.6,0.7-3.3,0-5-0.4s-3.8-0.2-4.5,1.4"/>
			</g>
			<g>
				<g>
					<path fill="#B7AD55" d="M362.8,438c5.7,9.5,8.4,20.1,7.9,31.2c0.8,0,1.7,0,2.5,0c-1.3-9.9-8.6-17.8-18.4-19.7
						c-1.3-0.2-2.3,1.6-1,2.3c6.8,3.5,14.5,7.5,16.8,15.4c2.2,7.7-0.8,16.1-0.7,24c0.8-0.2,1.6-0.4,2.3-0.6
						c-6.3-11.2-17.5-26.4-32.3-18.8c-1.2,0.6-0.5,2.3,0.6,2.3c9.9,0.6,19.9,2.1,25.5,11.3c4.4,7.4,4.7,16.5,2.6,24.7
						c0.6-0.2,1.2-0.5,1.8-0.7c-7.2-4.8-15.2-9.9-24.3-8.5c-7.4,1.1-13.7,6.1-16.8,12.9c-0.5,1.1,0.6,2.4,1.7,1.7
						c8.5-5.3,18.6-7.3,28.5-7.2c3.3,0,6,0.4,8,3.1c1.9,2.6,1.7,5.2,1.5,8.3c-0.3,5.6-0.7,11.1-1.1,16.7
						c-1.7,22.1-4.3,44.2-7.8,66.1c-0.3,1.6,1.8,2.2,2.4,0.7c1.5-3.8,4.4-6.4,8.3-7.6c1.6-0.5,3.5-0.5,4.8-1.8
						c2.7-2.8,1.4-9.7,1.6-13.1c0.4-14.1,0.9-28.2,1.3-42.3c0.4-13.8,0.8-27.5,1.3-41.3c0.2-6.8,0.1-14.1,3.7-20.1
						c3.5-6,10.2-9.3,16.9-9.4c0-0.8,0-1.7,0-2.5c-8.5,0.9-15.9,4.5-21.7,10.8c0.7,0.2,1.4,0.4,2.1,0.6c-1.9-6.8-3.6-14.1-1.5-21
						c2.4-8,9-11,16.4-13.3c1.5-0.5,0.9-2.8-0.7-2.4c-7.7,1.8-14.1,6-18.9,12.3c0.7,0,1.4,0,2.2,0c-2.9-5.9,4.1-12.9,7.2-17.3
						c3.2-4.5,6.4-9,9.7-13.5c0.6-0.9-0.4-2.2-1.4-1.8c-7.1,2.7-13.4,6.8-18.6,12.3c-1.1,1.2-2.1,3-3.3,3.9c-3,2.2-4.1,0.5-6.8,0.4
						c-2,0-3.4,0.5-4.5,2.2c-0.9,1.3,1.3,2.6,2.2,1.3c1.5-2.2,6.3,0.5,8.7-0.4c2-0.7,3.2-2.9,4.5-4.4c5.1-5.8,11.4-10.1,18.6-12.9
						c-0.5-0.6-0.9-1.2-1.4-1.8c-4.7,6.5-9.4,13-14,19.6c-2.9,4.3-5.3,8.8-2.9,13.8c0.5,0.9,1.6,0.7,2.2,0
						c4.4-5.8,10.4-9.5,17.4-11.2c-0.2-0.8-0.4-1.6-0.7-2.4c-7.2,2.2-13.9,5-17.2,12.3c-3.6,8.1-1.8,17,0.5,25.1
						c0.2,0.9,1.4,1.3,2.1,0.6c5.3-5.8,12.1-9.3,19.9-10.1c1.6-0.2,1.6-2.5,0-2.5c-10.3,0.2-18.9,6.8-21.6,16.7
						c-1.7,6.2-1.4,12.9-1.6,19.2c-0.2,8.2-0.5,16.4-0.7,24.6c-0.5,15.7-1,31.5-1.4,47.2c-0.1,3.9-0.2,7.9-0.4,11.8
						c-0.1,2.5,0.3,4.5-1.3,6.5c-1.5,2-2.2,1.6-4.4,2.4c-4.2,1.6-7.1,4.8-8.7,8.9c0.8,0.2,1.6,0.4,2.4,0.7
						c4.3-26.7,7.2-53.5,8.9-80.5c0.2-4.1,1.2-9.4-1.5-13c-2.1-2.8-5.7-3.6-9-3.8c-10.7-0.6-22.1,1.8-31.2,7.5
						c0.6,0.6,1.1,1.1,1.7,1.7c3.1-6.7,9.4-11.5,16.9-11.9c7.7-0.4,14.6,4.2,20.7,8.3c0.7,0.4,1.6,0,1.8-0.7
						c2.4-9.2,1.8-19.6-3.6-27.7c-6.2-9.2-16.6-10.8-26.9-11.4c0.2,0.8,0.4,1.6,0.6,2.3c13.4-6.9,23.4,8.1,28.9,17.9
						c0.6,1.1,2.4,0.6,2.3-0.6c-0.2-8.9,3.5-18.6-0.3-27.1c-3.1-7.2-10.4-11.1-17-14.4c-0.3,0.8-0.6,1.5-1,2.3
						c8.7,1.6,15.4,8.4,16.6,17.2c0.2,1.6,2.4,1.7,2.5,0c0.5-11.5-2.3-22.6-8.2-32.5C364.1,435.4,361.9,436.7,362.8,438L362.8,438z"
						/>
				</g>
			</g>
		</g>
		<g>
			<g>
				<path fill="#BB9D80" d="M351.5,472.2c-4.2-1.4-8.8-1.4-12.6,0.8c4,0.2,8,0.5,11.8,1.4C351,473.7,351.3,472.9,351.5,472.2z"/>
			</g>
			<g>
				<g>
					<path fill="#BB9D80" d="M351.9,471c-4.6-1.4-9.3-1.4-13.5,0.9c-1.1,0.6-0.5,2.3,0.6,2.3c3.9,0.2,7.7,0.5,11.5,1.4
						c0.7,0.2,1.3-0.2,1.5-0.9c0.2-0.7,0.5-1.5,0.7-2.2c0.5-1.5-1.9-2.2-2.4-0.7c-0.2,0.7-0.5,1.5-0.7,2.2c0.5-0.3,1-0.6,1.5-0.9
						c-4-0.9-8.1-1.2-12.2-1.5c0.2,0.8,0.4,1.6,0.6,2.3c3.7-2,7.7-1.9,11.6-0.7C352.7,473.9,353.4,471.5,351.9,471z"/>
				</g>
			</g>
		</g>
		<g>
			<g>
				<path fill="#BB9D80" d="M380,477.3c-1.5-5.2-2.8-10.5-2.5-15.9c0.3-5.4,2.2-10.9,6.3-14.4c0.4-0.3,0.7-0.6,1.1-0.9
					c-2.8,1.9-5.2,4.3-7.2,7c-2-3.1-0.6-7,1.5-10.4c0,0,0,0-0.1,0c-0.4,0-0.8-0.4-0.7-0.8c0.5-1.1,0.8-2.2,1.1-3.3
					c-1.4,0-2.6-0.4-3.6-1c-3.3,13-0.7,25.6,1.2,38.7c1.7,11.2,1.8,22.3,1.1,33.6c-0.7,11.5-2.2,23-1.9,34.6
					c0.1,3.8,0.4,7.5,0.8,11.2l1.8-60.1c0.2-6,0.4-12.2,3.1-17.5c1.8-3.6,4.8-6.6,8.3-8.6C386.5,471.4,382.9,474,380,477.3z"/>
			</g>
			<g>
				<g>
					<path fill="#BB9D80" d="M381.2,477c-2.9-10.1-4.8-22.5,4.5-29.9c1.1-0.9-0.4-2.8-1.5-2c-3,2.2-5.4,4.6-7.7,7.5
						c0.7,0,1.4,0,2.2,0c-1.6-3.4-0.1-6.3,1.5-9.1c0.4-0.8-0.1-1.9-1.1-1.9c1.1-0.5,1.6-1.3,1.6-2.5c0.3-0.9-0.4-1.5-1.2-1.6
						c-1-0.3-2-0.6-3-0.9c-0.7-0.3-1.6-0.1-1.8,0.7c-4.5,19.1,2.4,38.4,2.7,57.6c0.3,20.3-3.6,40.4-1.5,60.8c0.2,1.6,2.4,1.6,2.5,0
						c0.4-12.5,0.8-24.9,1.1-37.4c0.2-6.6,0.4-13.2,0.6-19.8c0.3-10.8,0.7-21.6,10.9-27.8c1.4-0.8,0.2-2.9-1.3-2.2
						c-4.1,2-7.6,4.6-10.7,7.9c-1.1,1.2,0.7,3,1.8,1.8c2.9-3.2,6.2-5.6,10.2-7.5c-0.4-0.7-0.8-1.4-1.3-2.2
						c-15.1,9.2-12.2,30.6-12.6,46c-0.4,13.7-0.8,27.5-1.3,41.2c0.8,0,1.7,0,2.5,0c-2.1-19.7,1.6-39.2,1.5-58.9
						c-0.1-19.6-7.3-39.4-2.8-58.8c-0.6,0.2-1.2,0.5-1.8,0.7c1.4,0.7,2.7,1,4.2,1.2c-0.4-0.5-0.8-1.1-1.2-1.6
						c-0.4,1.2-2.5,5.9,0.8,5.7c-0.4-0.6-0.7-1.3-1.1-1.9c-2.2,3.9-3.5,7.5-1.5,11.7c0.5,0.9,1.6,0.7,2.2,0c2-2.6,4.1-4.7,6.8-6.6
						c-0.5-0.7-1-1.3-1.5-2c-10.1,8-8.3,21.5-5.2,32.4C379.2,479.2,381.7,478.5,381.2,477z"/>
				</g>
			</g>
		</g>
		<g>
			<g>
				<path fill="#BB9D80" d="M362.2,454.2c-0.1,0.4-0.2,0.7-0.4,1.1c3.8,2.4,7.2,5.4,9,9.4C369.3,460.4,366.1,456.6,362.2,454.2z"/>
			</g>
			<g>
				<g>
					<path fill="#BB9D80" d="M361,453.8c-0.1,0.4-0.2,0.8-0.4,1.1c-0.2,0.5,0.1,1.1,0.6,1.4c3.6,2.3,6.7,5.1,8.6,8.9
						c0.6,1.2,2.8,0.4,2.3-1c-1.9-4.7-5-8.5-9.3-11.3c-1.4-0.9-2.6,1.3-1.3,2.2c3.6,2.4,6.5,5.7,8.1,9.8c0.8-0.3,1.5-0.6,2.3-1
						c-2.1-4.2-5.6-7.3-9.5-9.8c0.2,0.5,0.4,0.9,0.6,1.4c0.1-0.4,0.3-0.7,0.4-1.1C363.9,453,361.5,452.3,361,453.8z"/>
				</g>
			</g>
		</g>
	</g>
	<g>
		<g>
			<path fill="#B7AD55" d="M188.4,390c22.3,11.4,47.8,14.8,72.8,16s50.2,0.4,75,3.9c4.6,0.6,9.2,1.5,13.4,3.5
				c12.1,5.9,17,20.3,20.8,33.2c0.7-10.2-2.8-20.6-9.4-28.3c-3.2-3.7-7.1-6.9-11.6-8.8c-6.9-3-14.7-3-22.3-3
				c-27.7-0.1-55.4-1.1-83-2.9c-18.3-1.2-37.4-3.1-52.9-12.9c-1.4-0.9-3-2.4-2.4-3.9"/>
		</g>
		<g>
			<g>
				<path fill="#B7AD55" d="M187.7,390.1c29.3,14.6,62.3,16.3,94.5,17c19.1,0.4,38.8,0.2,57.6,3.7c18.4,3.4,24.6,19.4,29.3,35.5
					c0.1,0.5,2.4,1,2.4,0.6c0.6-14.2-6-28.9-18.6-36.1c-5.9-3.4-12.7-4.5-19.4-4.7c-9-0.4-18-0.2-27.1-0.3
					c-20.4-0.4-40.7-1.2-61-2.6c-8.9-0.6-17.9-1.2-26.7-2.8c-4.7-0.9-9.3-2-13.8-3.6c-3.4-1.2-15.3-4.8-15-9.7
					c0-0.6-2.4-1.1-2.4-0.7c-0.4,4.8,8.3,7.6,11.9,9.1c6.8,2.9,14.1,4.8,21.4,6c17.5,3,35.6,3.4,53.3,4.2c19.1,0.8,38.1,1,57.2,1.3
					c6.4,0.1,13,0.4,18.8,3.4c5.1,2.6,9.4,6.8,12.5,11.6c4.8,7.2,6.9,15.7,6.5,24.3c0.8,0.2,1.6,0.4,2.4,0.6
					c-3.6-12.2-8.1-26.2-19.8-32.8c-5.5-3.1-11.8-4.1-18-4.9c-9.3-1.2-18.7-1.9-28.1-2.3c-39.2-1.7-80.4,1-116.6-17
					C188.5,389.5,186.3,389.4,187.7,390.1L187.7,390.1z"/>
			</g>
		</g>
	</g>
	<g>
		<g>
			<path fill="#B7AD55" d="M371.5,438.2c1,0,2.5-1.8,1.1-1.8C371.6,436.4,370,438.2,371.5,438.2L371.5,438.2z"/>
		</g>
	</g>
	<g>
		<g>
			<path fill="#B7AD55" d="M372,437.3c7.2-16.1,6.7-35.4-1.3-51.1c-2.1-4.2-5-8.3-9.2-10.4c-0.2,2.6,1.6,4.8,3.2,6.9
				c3,4.1,5.5,8.6,7.3,13.4c1.6,4.3,2.7,8.7,3.7,13.1c0.7,2.8,1.3,5.6,1.6,8.5c1,9.1-2,18.6-7.9,25.5"/>
		</g>
		<g>
			<g>
				<path fill="#B7AD55" d="M373.1,437.1c4.4-10.3,6.1-21.5,4.6-32.6c-1.4-10.4-5.4-23.9-15.2-29.3c-0.5-0.3-2.3,0.3-2.2,1
					c0.4,5.1,4.9,9.1,7.3,13.5c2.9,5.3,4.7,10.9,6.1,16.7c3.3,13.3,3.8,25.6-5.3,36.8c-0.8,1,1.5,0.5,1.9,0c7.3-9,9.6-19.8,7.2-31.1
					c-1.3-6.1-2.7-12.3-5.1-18.1c-1.3-3.1-2.9-6.2-4.7-9c-2-3.1-4.8-5.7-5.1-9.6c-0.7,0.3-1.5,0.7-2.2,1
					c9.2,5.1,13.2,17.7,14.7,27.5c1.8,11.4,0.3,23-4.2,33.6C370.5,438.4,372.8,437.7,373.1,437.1L373.1,437.1z"/>
			</g>
		</g>
	</g>
	<g>
		<g>
			<path fill="#B7AD55" d="M373.2,435.2c1.6,0-0.2-1.2-1-1.2C370.6,434,372.4,435.2,373.2,435.2L373.2,435.2z"/>
		</g>
	</g>
	<g>
		<g>
			<path fill="#B7AD55" d="M375.7,435.8c18.8-28.5,37.9-57.4,63.6-79.8c8.1-7,16.7-13.4,24.5-20.8c3-2.8,5.9-6,7.2-9.9
				c1.3-3.9,0.7-8.7-2.5-11.3c-3.2-2.6-9-1.4-10.1,2.5c-3.1-2.3-0.8-7.9,3-8.7c3.8-0.8,7.5,1.7,10,4.7c2.3,2.8,4.1,6.2,4.2,9.8
				c0.1,6.7-5.3,12.1-10.4,16.5c-14,12.3-28,24.6-42,36.9c-6.5,5.7-13,11.4-17.7,18.6c-4.9,7.3-7.7,15.9-12.9,23
				c-6.2,8.3-15.8,14.7-18.3,24.7"/>
		</g>
		<g>
			<g>
				<path fill="#B7AD55" d="M376.9,436.1c18.9-28.6,38.1-57.7,64.2-80.3c6.5-5.6,13.4-10.9,19.9-16.6c5-4.4,11.5-9.8,11.8-17
					c0.2-4.3-2-8.4-6.2-9.6c-3.7-1.1-7.9-0.1-9.5,3.7c0.8,0.1,1.5,0.2,2.3,0.3c-1.5-1.5-1.7-3.3-0.8-5.2c1.7-3.7,5.3-3.8,9.5-1
					c3.4,2.3,6,7.6,6.1,11.6c0.2,6.9-5.6,12.2-10.3,16.4c-13.4,11.9-27,23.7-40.5,35.6c-5.6,5-11.4,9.9-16.2,15.8
					c-4.6,5.7-7.5,12.3-10.9,18.8c-3.5,6.6-7.9,11.9-13,17.3c-4.5,4.7-8.6,9.5-10.4,15.9c-0.2,0.5,2.3,1.1,2.4,0.5
					c3.7-12.6,16.5-20.3,22.7-31.7c3.7-6.8,6.6-14,11.5-20.1c4.7-5.9,10.5-10.8,16.2-15.8c13-11.4,26-22.8,39-34.3
					c4.5-4,9.9-8.4,11.5-14.5c1.5-5.6-1.3-11.3-5.4-15.1c-2.7-2.5-6.8-4.5-10.6-3.6c-4,1-6.2,6.1-3,9.1c0.3,0.3,2.1,0.9,2.3,0.3
					c2.1-5.2,9.1-3.6,10.5,1.6c0.9,3.2,0,6.6-1.6,9.5c-3.4,6.1-9.9,10.9-15.2,15.3c-10.6,8.9-21.2,17.5-30.6,27.6
					c-18.4,19.7-33.3,42.4-48.2,64.8C374.3,435.9,376.5,436.7,376.9,436.1L376.9,436.1z"/>
			</g>
		</g>
	</g>
	<g>
		<g>
			<path fill="#B7AD55" d="M391.7,440.6c10.4-2.7,19.2-9.6,29.2-13.7c16.2-6.6,34.4-5,51.7-3.4c24.1,2.3,48.2,4.6,72.2,6.8
				c11.4,1.1,22.7,2.2,34,4.2c13.4,2.4,26.6,6.2,38.3,13.1c-2.7,2.6-7,2.7-10.5,1.4c-3.5-1.2-6.5-3.6-9.7-5.5
				c-10.2-6.2-22.3-8.3-34.2-10.1c-42.2-6.3-84.7-9.6-127.3-10.1c-6.5-0.1-13-0.1-19.3,1.6c-7.5,2-14.1,6.3-20.7,10.6
				c-6,3.9-11.9,7.8-17.9,11.6"/>
		</g>
		<g>
			<g>
				<path fill="#B7AD55" d="M391.9,441.3c14.4-4,25.9-14.3,40.9-17.1c15.6-2.9,31.6-0.7,47.2,0.8c16.3,1.5,32.5,3.1,48.8,4.6
					c16.4,1.6,33,2.7,49.3,5.6c7.5,1.4,15,3.2,22.2,5.7c3.6,1.3,7.1,2.7,10.5,4.4c0.7,0.3,1.8,0.7,2.4,1.2c1.4,1.2,2.6,0.1-0.2,1.7
					c-2.7,1.6-5.7,0.2-8.3-1.1c-6.1-3.1-11.2-7-17.8-9.3c-6.8-2.3-13.8-3.6-20.9-4.7c-31.7-4.9-63.7-8-95.7-9.5
					c-9.2-0.4-18.3-0.7-27.5-0.9c-7.9-0.1-16.1-0.6-23.9,0.9c-15.5,3.1-29.1,14.7-42,23.1c-1.4,0.9,0.7,1.3,1.5,0.8
					c14.7-9.6,29.7-22.4,47.9-23.4c17.2-0.9,34.8,0.4,51.9,1.4c17.3,1,34.7,2.5,51.9,4.4c16.7,1.9,34.2,3.3,50.4,7.8
					c4.6,1.3,9,2.9,13.2,5.1c3.3,1.8,6.3,4.2,9.7,5.8c4.7,2.3,10.1,2.6,14.4-0.7c0.3-0.3,0.7-0.7,0.2-1c-26.3-15.1-58-16-87.4-18.8
					c-16.6-1.6-33.2-3.1-49.8-4.7c-14.7-1.4-29.6-3.3-44.3-1.4c-7.6,1-14.8,3.2-21.6,6.7c-7.8,3.9-15,8.7-23.5,11.1
					C390.1,440.4,390.5,441.7,391.9,441.3L391.9,441.3z"/>
			</g>
		</g>
	</g>
	<g>
		<g>
			<path fill="#B7AD55" d="M392,467.1c8.2-3.1,16.6-5.9,25.2-7.4c32.4-5.5,64.6,7.8,94.8,20.9c23.9,10.4,47.8,20.8,71.7,31.1
				c5.9,2.5,11.7,5.1,17.1,8.5c13.3,8.4,23.1,21.7,37,29c7.8,4.1,16.6,6.1,24.6,9.8s15.7,10,17.6,18.6c-1.9,0.6-3.8,1.2-5.7,1.7
				c0-8.4-4.9-16.5-12.3-20.5c-5.9-3.2-12.9-3.6-19.3-5.5c-21.9-6.4-35.5-28.4-55.5-39.4c-10.8-6-23.1-8.6-34.7-12.8
				c-22.6-8.3-42.5-22.8-64.9-31.6c-31-12.3-66.4-13.1-98-2.2"/>
		</g>
		<g>
			<g>
				<path fill="#B7AD55" d="M392.2,467.8c10.9-4.1,22-7.6,33.8-8.3c10.9-0.7,21.9,0.5,32.5,3c21.4,4.9,41.5,14.1,61.6,22.8
					c20.3,8.8,40.6,17.6,61,26.5c9.2,4,18.1,8.1,26,14.4c7.2,5.8,13.6,12.5,21,18.1c8.5,6.4,18.1,9.5,27.9,13.2
					c10,3.8,20.1,9.7,23,20.7c0.3-0.4,0.6-0.7,1-1.1c-1.9,0.6-3.8,1.2-5.7,1.7c0.5,0.2,1,0.3,1.4,0.5c-0.3-8.7-4.8-16.8-12.6-20.9
					c-9.1-4.9-20-4.6-29.3-9.7c-17-9.3-28.6-25.9-45.6-35.3c-10.1-5.6-21.4-8.2-32.2-11.9c-10.9-3.7-21.1-8.9-31.2-14.4
					c-20.1-10.8-39.9-21.5-62.6-25.7c-24.3-4.5-49.4-2.6-72.8,5.3c-1.4,0.5-1,1.8,0.5,1.3c22-7.4,45.5-9.4,68.4-5.6
					c22.1,3.6,41.4,13.3,60.9,23.9c9.5,5.2,19.1,10.3,29.3,14.3c9.9,3.9,20.3,6.3,30.1,10.3c17.9,7.3,29.8,22.2,45,33.5
					c7.7,5.7,15.9,9.3,25.3,11.4c6.2,1.3,12.4,2.7,17.1,7.2c4.7,4.4,7.2,10.4,7.4,16.7c0,0.7,1,0.6,1.4,0.5c1.9-0.6,3.8-1.2,5.7-1.7
					c0.4-0.1,1.1-0.5,1-1.1c-5.2-20-29.6-21.2-44.6-29.9c-8.9-5.2-16.1-12.6-23.7-19.3c-7.4-6.4-15.3-11.3-24.3-15.3
					c-21.6-9.6-43.3-18.8-64.9-28.2c-20.2-8.8-40.5-18.2-62-23.3c-11.4-2.7-23.1-4.2-34.8-3.4c-12.1,0.8-23.7,4.3-35,8.6
					C390.4,467,390.8,468.3,392.2,467.8L392.2,467.8z"/>
			</g>
		</g>
	</g>
	<g opacity="0.27">
		<g>
			<path fill="#B7AD55" d="M384.5,480.7c12.5,14.7,28.1,28.9,32.5,48.3c4.2,18.4,8.6,36.4,15.2,54.1c6.5,17.3,15.5,33.5,21.5,51
				c6.4,18.7,9.2,38.6,13,58c2.2,11.1,4.3,22.2,6.5,33.3c2.1,10.7,4.3,21,2.6,31.9c-0.1,0.6,1,1.2,1.1,0.5
				c1.4-8.9,0.3-17.4-1.4-26.3c-2-10.1-3.9-20.2-5.9-30.3c-3.8-19.4-6.8-39.1-12-58.2c-5.2-18.7-14.6-35.8-21.8-53.7
				c-7.6-19-12.9-38.4-17.2-58.3c-2-9.2-5.2-16.8-11-24.2c-7.1-9.1-14.9-17.7-22.3-26.5C384.7,479.4,384,480.1,384.5,480.7
				L384.5,480.7z"/>
		</g>
	</g>
	<g opacity="0.27">
		<g>
			<path fill="#B7AD55" d="M396.9,495.3c-4,3-4.2,7.6-4.3,12.2c-0.1,4.1-0.1,7.6-2.6,11c-1.5,2-3,3.2-3.6,5.7
				c-0.1,0.4,1.1,0.8,1.2,0.3c0.7-2.8,2.9-4.3,4.4-6.7c1.3-2.2,1.7-4.6,1.9-7.1c0.3-5.4-0.6-11.3,4.3-15
				C398.4,495.6,397.3,495.1,396.9,495.3L396.9,495.3z"/>
		</g>
	</g>
	<g opacity="0.27">
		<g>
			<path fill="#B7AD55" d="M408.6,510.6c-6,5.5-7.8,12-8.4,19.9c-0.4,4.9-1.9,7-4.2,11.2c-1.8,3.2,0,8.7-3.2,10.7
				c-0.2,0.1,0.4,1.2,0.7,1.1c3.3-2,1.5-5.2,2.2-8.3c0.8-3.6,4.1-5.9,4.9-9.6c0.8-4,0.3-8.1,1.4-12.1c1.2-4.6,3.9-8.5,7.4-11.8
				C409.5,511.4,408.8,510.4,408.6,510.6L408.6,510.6z"/>
		</g>
	</g>
	<g opacity="0.27">
		<g>
			<path fill="#B7AD55" d="M418.2,528.8c-2.1,3.6-3.9,7.4-5.2,11.4c-1.5,4.6-1.7,9.5-3.1,14.1c-1.5,5.1-5.9,6.7-8,11.3
				c-2,4.4-2.3,9.4-2.1,14.2c0,0.3,0.7,0.9,0.7,1c-0.3-4.9,0-11.2,2.7-15.5c2.1-3.3,5.5-4.7,6.9-8.5c1.4-3.9,1.6-8.3,2.6-12.3
				c1.3-5.2,3.4-10,6.2-14.6C419,529.6,418.2,528.8,418.2,528.8L418.2,528.8z"/>
		</g>
	</g>
	<g opacity="0.27">
		<g>
			<path fill="#B7AD55" d="M424.6,562.1c-5.3,4.6-11.6,11.5-12.3,18.9c-0.3,3.2-0.8,5-3.3,7.3c-1.1,1-2.1,1.9-2.9,3.1
				c-1.7,2.6-2.1,5.5-1.8,8.5c0.1,0.7,1.3,0.6,1.2-0.1c-0.5-5.5,1.8-8,5.4-11.5c1.5-1.5,2.3-2.5,2.7-4.6c0.7-4.3,1.2-7.6,3.7-11.4
				c2.3-3.5,5.1-6.6,8.3-9.4C426,562.5,425.1,561.6,424.6,562.1L424.6,562.1z"/>
		</g>
	</g>
	<g opacity="0.27">
		<g>
			<path fill="#B7AD55" d="M431.2,583.9c-6.2,6-9.8,13.3-11.6,21.7c-0.6,2.8-1.1,3.9-3.1,5.8c-1.4,1.3-2.6,2.4-3.5,4
				c-1.7,3.1-2,6.5-1.2,9.9c0.1,0.4,1.1,0.8,1.1,0.6c-0.9-4-0.3-8.1,2.3-11.4c2-2.5,4.5-3.4,5.3-6.7c2.1-9.1,5-16.5,11.9-23.1
				C432.5,584.4,431.5,583.6,431.2,583.9L431.2,583.9z"/>
		</g>
	</g>
	<g opacity="0.27">
		<g>
			<path fill="#B7AD55" d="M438.8,603.9c-4.3,7.7-8.1,16.5-13.5,23.5c-4.3,5.7-10.5,4.5-8.7,12.7c0.1,0.3,1.3,0.1,1.2-0.2
				c-0.8-3.7-0.7-5,2.8-7.5c0.9-0.6,1.8-0.9,2.7-1.6c1.9-1.4,3.3-3.4,4.6-5.3c4.5-6.9,8.2-14.4,12.2-21.6
				C440.1,603.5,439,603.5,438.8,603.9L438.8,603.9z"/>
		</g>
	</g>
	<g opacity="0.27">
		<g>
			<path fill="#B7AD55" d="M450.1,624.5c-5.4,5.2-10.9,10.5-14.3,17.3c-1.9,3.9-2.3,8.1-5,11.5c-2.2,2.8-3.7,5-4.2,8.6
				c-0.1,0.7,1.1,0.6,1.2,0c0.7-4.9,3.5-6.4,5.7-10.1c1.5-2.5,1.6-5.7,2.8-8.4c3.2-7.2,9-12.8,14.6-18.2
				C451.5,624.6,450.6,624,450.1,624.5L450.1,624.5z"/>
		</g>
	</g>
	<g opacity="0.27">
		<g>
			<path fill="#B7AD55" d="M457.3,646.1c-6.1,3.7-7.5,10.8-10.7,16.7c-1.8,3.4-4.1,5.5-7,7.9c-1.3,1-2.7,2.1-3.5,3.6
				c-0.9,1.6-0.6,5.2-2.1,6.3c-0.2,0.2,0.7,0.9,1,0.7c2.4-1.6,1.3-5.4,3.3-7.8c2.5-3,5.9-4.6,8.1-7.9c4.1-6.3,5-14.6,11.8-18.8
				C458.5,646.7,457.6,646,457.3,646.1L457.3,646.1z"/>
		</g>
	</g>
	<g opacity="0.27">
		<g>
			<path fill="#B7AD55" d="M461.6,670.5c-2.6,2.4-4.9,5.1-6.7,8.3c-1.7,3.1-2.2,6.7-4,9.7c-2.9,4.8-9.9,5.6-11.3,11.3
				c-0.2,0.7,0.9,1.2,1.1,0.5c1.4-5.5,8.4-6.5,11.2-11.1c1.5-2.6,2-5.6,3.3-8.3c1.7-3.6,4.2-6.7,7.2-9.4
				C463,670.9,462.2,670,461.6,670.5L461.6,670.5z"/>
		</g>
	</g>
	<g opacity="0.27">
		<g>
			<path fill="#B7AD55" d="M467,688.5c-5.4,3.4-7.6,7.9-9.8,13.7c-2,5.4-7,9-8.6,14.5c-0.1,0.3,1,0.8,1.1,0.6c1.5-5,5.9-8.2,8-12.9
				c2.8-6.3,4-11.3,10.3-15.2C468.3,689,467.3,688.3,467,688.5L467,688.5z"/>
		</g>
	</g>
	<g opacity="0.27">
		<g>
			<path fill="#B7AD55" d="M469.8,710.6c-2.5,0.9-4.7,2.4-6.2,4.7c-2.1,3.3-2.1,9.1-6.9,9.8c-0.7,0.1,0.3,0.7,0.7,0.7
				c3-0.4,4.5-2.9,5.5-5.5c1.6-4.2,3.3-7.4,7.8-9C471.2,711.1,470.1,710.5,469.8,710.6L469.8,710.6z"/>
		</g>
	</g>
	<g opacity="0.27">
		<g>
			<path fill="#B7AD55" d="M400.7,494.6c7.3-6,16.6,2.3,23.4,4.9c6.1,2.3,12.6,4.2,15.1,10.8c0.1,0.3,1.3-0.1,1.2-0.2
				c-1.7-4.3-5.1-6.8-9.2-8.6c-5.3-2.3-10.5-4.4-15.7-7c-5.2-2.6-11.2-3.7-16,0.2C399.5,494.7,400.4,494.8,400.7,494.6L400.7,494.6z
				"/>
		</g>
	</g>
	<g opacity="0.27">
		<g>
			<path fill="#B7AD55" d="M411.3,513.1c6.9-2.3,13.4,0.2,19.3,3.9c4.5,2.9,9.8,6.1,12.9,10.5c3.3,4.6,4.3,12.9,11.6,12.1
				c0.8-0.1,0.4-1.1-0.3-1.1c-2-1-4-2-5.9-3.1c-0.5-0.9-0.9-1.8-1.4-2.7c-0.5-1-0.8-2-1.3-3c-0.8-1.5-1.6-2.9-2.7-4.1
				c-2.8-3.3-6.6-5.8-10.2-8.2c-6.8-4.6-14.4-8.2-22.7-5.4C409.9,512.4,410.7,513.3,411.3,513.1L411.3,513.1z"/>
		</g>
	</g>
	<g opacity="0.27">
		<g>
			<path fill="#B7AD55" d="M420,532.4c11.6,3.1,21.2,6.6,29.8,15.8c1.6,1.7,3.2,3.3,5.2,4.6c3.9,2.4,9.4,2.7,11.2,8
				c0.1,0.3,1,0.6,1,0.6c-0.9-2.9-2.9-4.6-5.5-6c-3.9-2.1-7-2.7-10.5-6.3c-1.9-2-3.6-4.1-5.7-5.9c-7.4-6.4-17-9.1-26.2-11.5
				C419,531.6,419.8,532.3,420,532.4L420,532.4z"/>
		</g>
	</g>
	<g opacity="0.27">
		<g>
			<path fill="#B7AD55" d="M427.1,563.1c5.6-0.7,13.8-3.3,18.6,0.7c3,2.6,4.1,6.3,7.9,8.3c3.6,2,7.3,1.3,11.2,2.1
				c5.9,1.2,8.5,7.2,10.4,12.3c0.2,0.5,1.4,0.2,1.2-0.3c-1.5-3.9-3.2-8.3-6.7-10.9c-4.8-3.8-11.3-1.3-16.5-4.7
				c-3.9-2.6-5.2-8.1-9.8-9.6c-4.8-1.5-11.3,0.6-16.1,1.3C426.6,562.4,426.3,563.2,427.1,563.1L427.1,563.1z"/>
		</g>
	</g>
	<g opacity="0.27">
		<g>
			<path fill="#B7AD55" d="M435.2,585.3c7.8-2.2,14.1-3,20.6,2.7c2.6,2.3,5.2,4.3,8.7,5.2c1.7,0.4,3.3,0.3,4.9,0.5
				c2.4,0.4,6.3,2.3,7.6,4.5c0.3,0.6,0.5,1.3,0.7,1.9c1.4,2.9,3.5,4.8,6.3,6.3c0.7,0.4,0.9-0.6,0.3-1c-4.3-2.2-5-5.3-6.9-9.1
				c-0.6-1.1-1.1-2.1-2.1-2.8c-1.1-0.8-2.2-1-3.4-1.1c-3.6-0.2-6.9,0.2-10.3-1.4c-4.6-2.2-7.2-6.9-12.3-8.3
				c-4.9-1.3-10,0.1-14.7,1.4C433.8,584.5,434.6,585.5,435.2,585.3L435.2,585.3z"/>
		</g>
	</g>
	<g opacity="0.27">
		<g>
			<path fill="#B7AD55" d="M442,604.2c6.2-0.8,12.1,0.9,16.7,5c3.1,2.7,5.6,6.4,9.3,8.4c1.4,0.8,2.8,0.9,4.3,1.4
				c4,1.3,4.3,2.2,6.2,5.4c2.4,4.1,6.4,7.1,10.2,9.8c0.4,0.3,1.4-0.5,0.9-0.9c-2.7-2-5.5-4-7.7-6.6c-1.8-2-2.5-4.5-4.1-6.6
				c-0.9-1.3-1.7-1.7-3.2-2.1c-3-0.7-5.2-0.9-7.7-2.8c-3.9-2.9-6.5-7.1-10.8-9.6c-4.2-2.4-8.9-3.1-13.7-2.5
				C441.9,603.3,441.3,604.3,442,604.2L442,604.2z"/>
		</g>
	</g>
	<g opacity="0.27">
		<g>
			<path fill="#B7AD55" d="M453.4,625.8c4.3,1.4,9.1,3,12.2,6.4c3,3.3,3,7.7,5.4,11.3c1.3,2,2.9,2.8,5.2,3.5
				c3.5,1.1,6.4,1.9,8.5,5.2c1.3,2,2.1,4.2,2.9,6.4c0.2,0.6,1.4,0.4,1.1-0.3c-1.3-3.5-2.7-7.3-5.7-9.7c-1.2-1-2.5-1.5-3.9-1.9
				c-3.1-1-5-0.6-7.3-4c-0.8-1.2-1.1-2.6-1.6-4c-2.8-8.2-8.5-11.2-16.4-13.9C453.1,624.7,452.6,625.6,453.4,625.8L453.4,625.8z"/>
		</g>
	</g>
	<g opacity="0.27">
		<g>
			<path fill="#B7AD55" d="M459.7,651.1c8.5,0.4,12.6,8.2,16.8,14.5c1.5,2.2,3,4.5,4.9,6.3c1,1,8.5,5.2,7.1,6.9
				c-0.5,0.6,0.4,1.2,0.9,0.7c1.3-1.5,1-3-0.6-4.3c-1.6-1.3-3.8-1.9-5.5-3.2c-2.2-1.8-3.8-4.1-5.4-6.5c-4.5-6.7-8.8-15.1-17.9-15.5
				C459.3,650,458.9,651,459.7,651.1L459.7,651.1z"/>
		</g>
	</g>
	<g opacity="0.27">
		<g>
			<path fill="#B7AD55" d="M462.8,672.3c8.3,1.8,13.3,8.4,17.2,15.5c2.3,4.1,4.5,6,8.4,8.8c0.3,0.2-0.1-0.9-0.3-1
				c-3.9-2.8-6.5-5.8-8.9-10c-1.1-2-2.4-4-3.8-5.8c-3.4-4.3-7.5-7.5-12.9-8.6C462.2,671.1,462.5,672.2,462.8,672.3L462.8,672.3z"/>
		</g>
	</g>
	<g opacity="0.27">
		<g>
			<path fill="#B7AD55" d="M468.9,690c7.6,2.7,11.2,12.2,12.8,19.3c0.5,2.3,1.6,3.2,3.8,3.6c0.2,0-0.7-0.5-0.9-0.5
				c-1.8-0.3-2.4-6.8-3.1-8.5c-1.3-2.9-2.9-5.8-4.9-8.4c-2.2-2.9-4.8-4.8-8.1-6C467.7,689.3,468.7,689.9,468.9,690L468.9,690z"/>
		</g>
	</g>
	<g opacity="0.27">
		<g>
			<path fill="#B7AD55" d="M473.2,713c1.8,0.9,3.5,1.9,5.3,2.8c0.3,0.6,0.6,1.3,0.9,1.9c0.5,1.6,0.5,3.2,0.5,4.9
				c0,2.3-0.5,4.7-0.4,7c0.1,1.7,0.5,2.9,1.9,4c0.6,0.5,0.8,0.2,0.3-0.3c-2.7-2.3-0.5-9.2-0.8-12.3c-0.2-2.1-0.8-4-2.1-5.7
				c-1.6-2.1-3.7-3.3-6.4-3.1C472.2,712.1,472.9,713,473.2,713L473.2,713z"/>
		</g>
	</g>
	<g opacity="0.27">
		<g>
			<path fill="#B7AD55" d="M199.5,585.6c-6.9-2.9-14.2-2.7-20.9,0.3c-0.7,0.3,0.3,0.6,0.7,0.4c6.2-2.8,12.9-2.8,19.2-0.2
				C198.9,586.3,200,585.8,199.5,585.6L199.5,585.6z"/>
		</g>
	</g>
	<g opacity="0.27">
		<g>
			<path fill="#B7AD55" d="M180.4,601.7c-8.9-1.1-17.5,0-25.9,3.3c-0.4,0.1,0.5,1,0.8,0.9c8.3-3.3,16.9-4.4,25.7-3.3
				C181.5,602.7,180.8,601.8,180.4,601.7L180.4,601.7z"/>
		</g>
	</g>
	<g opacity="0.27">
		<g>
			<path fill="#B7AD55" d="M166.8,613.8c-8.4,2.3-16.5,5.3-24.3,9.2c0,0,0.6,1.1,0.7,1c7.8-3.9,15.9-6.9,24.3-9.2
				C167.5,614.9,167.1,613.8,166.8,613.8L166.8,613.8z"/>
		</g>
	</g>
	<g opacity="0.27">
		<g>
			<path fill="#B7AD55" d="M151.1,630.8c-5.5,4.9-14.8-1-19.7,5.5c-0.4,0.6,0.7,0.6,1,0.2c4.5-6,14-0.4,19.5-5.3
				C152.5,630.6,151.5,630.4,151.1,630.8L151.1,630.8z"/>
		</g>
	</g>
	<g opacity="0.27">
		<g>
			<path fill="#B7AD55" d="M140.7,643.1c-2.9,0-5.9,0-8.8,0c-0.6,0-1,0.7-0.2,0.7c2.9,0,5.9,0,8.8,0
				C141.1,643.8,141.5,643.1,140.7,643.1L140.7,643.1z"/>
		</g>
	</g>
	<g opacity="0.27">
		<g>
			<path fill="#B7AD55" d="M207.4,577.3c-5.5-3.8-12.3-4.5-18.4-1.9c-0.7,0.3-0.4,1.2,0.3,0.9c5.8-2.5,12.1-1.8,17.3,1.8
				C207,578.4,208,577.7,207.4,577.3L207.4,577.3z"/>
		</g>
	</g>
	<g opacity="0.27">
		<g>
			<path fill="#B7AD55" d="M219.4,561.4c-5.9,0.4-11.5,1.6-17,3.6c-0.4,0.1,0.2,1.3,0.6,1.1c5.4-2,11-3.2,16.8-3.6
				C220.2,562.5,219.8,561.4,219.4,561.4L219.4,561.4z"/>
		</g>
	</g>
	<g opacity="0.27">
		<g>
			<path fill="#B7AD55" d="M236.2,542.1c-7,3.4-14.1,6.8-21.1,10.2c-0.4,0.2,0.7,0.6,1,0.5c7-3.4,14.1-6.8,21.1-10.2
				C237.6,542.4,236.5,542,236.2,542.1L236.2,542.1z"/>
		</g>
	</g>
	<g opacity="0.27">
		<g>
			<path fill="#B7AD55" d="M252.5,527.9c-6.7-1.3-13.2,0-18.8,3.9c-0.7,0.5,0.2,1.2,0.8,0.8c5.2-3.6,11.3-4.8,17.6-3.6
				C252.7,529.1,253.3,528,252.5,527.9L252.5,527.9z"/>
		</g>
	</g>
	<g opacity="0.27">
		<g>
			<path fill="#B7AD55" d="M269.8,512.7c-9.2-0.7-16.1,6.9-25.3,6.8c-0.3,0-1.2,0.4-1,0.4c9.1,0.1,16.2-7.5,25.3-6.8
				C269,513.2,270,512.7,269.8,512.7L269.8,512.7z"/>
		</g>
	</g>
	<g opacity="0.27">
		<g>
			<path fill="#B7AD55" d="M208.4,672.8c-6.3,1-12.7,2.1-19,3.1c-0.8,0.1-0.2,0.8,0.4,0.7c6.3-1,12.7-2.1,19-3.1
				C209.6,673.3,209.1,672.7,208.4,672.8L208.4,672.8z"/>
		</g>
	</g>
	<g opacity="0.27">
		<g>
			<path fill="#B7AD55" d="M220,657.2c-5.5,9.3-19,5-27.3,9.7c-0.7,0.4-0.3,1.3,0.4,0.9c8.7-4.9,22.1-0.3,28-10.3
				C221.5,656.9,220.3,656.7,220,657.2L220,657.2z"/>
		</g>
	</g>
	<g opacity="0.27">
		<g>
			<path fill="#B7AD55" d="M230.7,642.6c-12,2.4-23.3,7-33.7,13.5c-0.7,0.4,0.4,0.2,0.7,0.1c10-6.3,20.9-10.7,32.5-13.1
				C230.5,643,231.5,642.4,230.7,642.6L230.7,642.6z"/>
		</g>
	</g>
	<g opacity="0.27">
		<g>
			<path fill="#B7AD55" d="M238.4,628.9c-11.7,0.1-23,3-33.3,8.7c-0.4,0.2,0.7,0.7,1,0.5c10.1-5.6,21.2-8.5,32.8-8.6
				C239.7,629.5,238.8,628.9,238.4,628.9L238.4,628.9z"/>
		</g>
	</g>
	<g opacity="0.27">
		<g>
			<path fill="#B7AD55" d="M249.3,611.3c-6.2-0.4-12.3,0.1-18.3,1.5c-2.4,0.6-4.9,1.3-7.2,2.1c-4.8,1.8-9.6,5.1-14.8,5.3
				c-0.2,0-1.3,0.5-0.8,0.5c3.8-0.2,7-1.6,10.4-3.2c9.4-4.4,19.3-6.3,29.6-5.7C248.6,611.8,249.6,611.3,249.3,611.3L249.3,611.3z"/>
		</g>
	</g>
	<g opacity="0.27">
		<g>
			<path fill="#B7AD55" d="M256.6,599.4c-5.7-2.2-11.7-3.4-17.8-3.1c-8.7,0.4-16.6,5.2-25.4,5c-0.2,0-0.7,0.2-0.3,0.3
				c0.6,0.2,1.2,0.4,1.8,0.7c0.3,0.1,1.5,0,0.9-0.2c-1.5-0.5,2.8-0.6,3.3-0.7c3.1-0.5,6.2-1.6,9.2-2.5c9.2-2.8,18.4-2.8,27.4,0.7
				C256,599.7,257.2,599.6,256.6,599.4L256.6,599.4z"/>
		</g>
	</g>
	<g opacity="0.27">
		<g>
			<path fill="#B7AD55" d="M262.8,588.8c-13.5-4.1-27.6-3.9-40.9,0.8c-0.1,0,0.4,1.2,0.6,1.1c13.3-4.7,27.3-5,40.8-0.8
				C263.3,589.9,263.1,588.9,262.8,588.8L262.8,588.8z"/>
		</g>
	</g>
	<g opacity="0.27">
		<g>
			<path fill="#B7AD55" d="M271.2,578.2c-7.1-4.6-14.1-7.8-22.6-5.8c-2.1,0.5-4.1,1.2-6.1,1.9c-1.5,0.5-3,1.1-4.5,1.5
				c-3.4,1-7.2,0.1-10.5,0.8c-1.1,0.3-2.7-0.2-2.1,1.7c0.1,0.3,1.3,0.1,1.2,0c-0.5-1.6,5-1,6.1-1.1c2.2-0.2,4.3-0.7,6.3-1.3
				c3.9-1.2,7.8-3.2,11.8-3.7c7.4-0.9,13.1,2.1,19,5.9C270.3,578.4,271.2,578.2,271.2,578.2L271.2,578.2z"/>
		</g>
	</g>
	<g opacity="0.27">
		<g>
			<path fill="#B7AD55" d="M277.7,564.9c-8.1-2.4-16.3-3.2-24.7-3.5c-6.4-0.2-14.8-1.6-20.5,2.3c-0.7,0.4,0,1.5,0.6,1.1
				c5.6-3.8,15.2-2.3,21.7-2.1c7.6,0.3,15.2,1.2,22.5,3.4C278.1,566.3,278.5,565.1,277.7,564.9L277.7,564.9z"/>
		</g>
	</g>
	<g opacity="0.27">
		<g>
			<path fill="#B7AD55" d="M291.6,549.4c-7.1-2.8-14.3-5.5-22.1-4.2c-3.9,0.6-7.7,2.1-11.6,2.9c-5,1.1-10.1,1.2-15.2,0.7
				c-0.8-0.1-0.8,1.2,0,1.2c7.8,0.8,14.7-0.4,22.1-2.4c9.5-2.6,17.5-0.5,26.4,3.1C292,550.9,292.3,549.7,291.6,549.4L291.6,549.4z"
				/>
		</g>
	</g>
	<g opacity="0.27">
		<g>
			<path fill="#B7AD55" d="M297.2,544c-5.6-3.8-11.8-5.8-18.6-6.1c-8.6-0.4-17.3,1.5-25.2-2.7c-0.7-0.4-1.3,0.7-0.6,1.1
				c6.1,3.2,12.5,3.1,19.2,2.9c9-0.2,16.9,0.7,24.6,5.9C297.2,545.6,297.8,544.5,297.2,544L297.2,544z"/>
		</g>
	</g>
	<g opacity="0.27">
		<g>
			<path fill="#B7AD55" d="M302.6,533c-8.9-0.1-16.7-3.9-24.9-7c-4.7-1.8-11.1-4.5-14.4,0.9c-0.4,0.7,0.7,1.3,1.1,0.6
				c3.9-6.3,17.9,1.8,22.5,3.5c5.1,1.9,10.2,3.3,15.7,3.3C303.4,534.3,303.4,533,302.6,533L302.6,533z"/>
		</g>
	</g>
	<g opacity="0.27">
		<g>
			<path fill="#B7AD55" d="M301,524.3c-6-2.9-12-6.4-18.2-8.8c-3.9-1.6-6.7-0.3-10.1,1.9c-0.7,0.4,0,1.5,0.6,1.1c3.2-2,6.4-3,10-1.3
				c1.7,0.8,3.4,1.7,5.1,2.5c4,1.9,8,3.9,12,5.8C301.1,525.7,301.7,524.7,301,524.3L301,524.3z"/>
		</g>
	</g>
	<g>
		<g>
			<g>
				<g>
					<path fill="#7C844C" d="M364.1,435.7C350.6,447.7,330,446,313.9,454c-9.6,4.8-17.3,12.9-22.8,22.1c-5.5,9.2-9,19.5-11.7,29.8
						c-9.3,35.3-10.4,72.3-9.2,108.8c4.1-4.4,7.8-9.1,11.6-13.7c5.6-7,11.2-14,16.9-21c4.1-5.1,8.3-10.3,11.5-16.1
						c4.8-8.4,7.5-17.8,10.1-27.1c5.6-19.8,11.3-39.6,16.9-59.3c1.4-4.8,2.7-9.6,4.7-14.2c4.8-11.1,13.1-20.6,23.5-26.8"/>
				</g>
				<g>
					<path fill="#727F3F" d="M271.8,613.2c3.6-7.3,6.7-14.9,9.2-22.8c10.2-32.1,14-66.1,29.3-96.4c12.3-24.3,31.2-44.2,54.8-57.8
						l-0.8-0.5c-13.4,11.9-34.1,10.3-50.2,18.3c-9.6,4.8-17.3,12.9-22.8,22.1c-5.5,9.2-9,19.5-11.7,29.8
						c-9.3,35.3-10.4,72.3-9.2,108.8C270.9,614.2,271.3,613.7,271.8,613.2z"/>
				</g>
			</g>
			<g>
				<g>
					<path fill="#B7AD55" d="M363.4,436.7c-19.9,8.3-26.9,29.8-31.4,49.1c-5.8,24.5-12.7,48.5-22,71.9c0.8,0.2,1.6,0.5,2.4,0.7
						c7.5-22.5,16.5-45,21.5-68.2c2.3-10.6,4.1-21.3,9.2-31c4.9-9.4,11.8-17.4,20.1-23.8c0.6-0.5-1.6-1.5-2.2-1
						c-7.6,5.8-14,13-18.8,21.2c-5.7,10-8,20.8-10.3,32c-5,23.9-14.2,47-21.9,70.1c-0.2,0.7,2.1,1.5,2.4,0.7
						c8.8-22.3,15.7-45.1,21.2-68.4c4.6-20,10.8-43.5,31.7-52.2C366.3,437.4,364.1,436.4,363.4,436.7L363.4,436.7z"/>
				</g>
			</g>
		</g>
		<g opacity="0.27">
			<g>
				<path fill="#B7AD55" d="M342,462.1c-7.5,6.9-16.4,11.8-24.7,17.7c-0.4,0.3,0,0.9,0.4,0.6c8.3-6,17.3-10.9,24.8-17.8
					C342.9,462.3,342.4,461.8,342,462.1L342,462.1z"/>
			</g>
		</g>
		<g opacity="0.27">
			<g>
				<path fill="#B7AD55" d="M333.4,487.3c-8.3,5.5-17.6,8.7-26.8,12.3c-0.4,0.2-0.3,0.9,0.2,0.7c9.3-3.6,18.6-6.9,27-12.4
					C334.2,487.7,333.8,487.1,333.4,487.3L333.4,487.3z"/>
			</g>
		</g>
		<g opacity="0.27">
			<g>
				<path fill="#B7AD55" d="M328,505.9c-4.1,1.5-8.1,3.3-11.9,5.7c-4.4,2.8-10.4,10-16.2,7.4c-0.4-0.2-0.8,0.5-0.4,0.6
					c4,1.8,7.2-0.3,10.5-2.7c5.8-4.3,11.3-7.8,18.1-10.3C328.7,506.4,328.5,505.7,328,505.9L328,505.9z"/>
			</g>
		</g>
		<g opacity="0.27">
			<g>
				<path fill="#B7AD55" d="M323.6,521c-4.3,1.8-8.4,4-12.1,6.9c-4.1,3.2-9.5,10.5-15.4,9.4c-0.5-0.1-0.7,0.6-0.2,0.7
					c3.8,0.7,6.4-1.5,9.3-3.7c6.2-4.8,11.3-9.6,18.6-12.6C324.2,521.6,324,520.8,323.6,521L323.6,521z"/>
			</g>
		</g>
		<g opacity="0.27">
			<g>
				<path fill="#B7AD55" d="M318.9,543.2c-4.4,0.2-8.6,1.1-12.5,3.1c-4.2,2.2-9.7,9.3-14.8,8.1c-0.5-0.1-0.7,0.6-0.2,0.7
					c3.3,0.8,5.6-1.2,8.3-3.2c6.1-4.5,11.4-7.7,19.3-8C319.3,544,319.3,543.2,318.9,543.2L318.9,543.2z"/>
			</g>
		</g>
		<g opacity="0.27">
			<g>
				<path fill="#B7AD55" d="M313,556.4c-3.2,5.6-7.2,10.8-12.9,14.1c-4.6,2.7-9.8,4.7-14.7,6.9c-0.4,0.2-0.1,0.8,0.4,0.6
					c5.8-2.6,12.2-4.8,17.3-8.6c4.5-3.3,7.8-7.8,10.5-12.6C313.9,556.4,313.2,556,313,556.4L313,556.4z"/>
			</g>
		</g>
		<g opacity="0.27">
			<g>
				<path fill="#B7AD55" d="M312.2,557c-3.1,11.5-8.9,20.8-18.2,28.2c-9.2,7.3-17,15.7-24.8,24.5c-0.5,0.6,0.4,1.5,0.9,0.9
					c4.3-4.8,8.5-9.7,13.1-14.3c4.6-4.5,9.6-8.3,14.5-12.5c8.1-6.9,13-16.3,15.8-26.5C313.7,556.5,312.5,556.2,312.2,557L312.2,557z
					"/>
			</g>
		</g>
		<g opacity="0.27">
			<g>
				<path fill="#B7AD55" d="M351.2,443.5c-9.6,8.2-21.6,12.3-33,17.2c-11,4.7-21,10.8-29.7,19c-0.6,0.6,0.3,1.4,0.9,0.9
					c9.9-9.4,21.3-15.5,33.8-20.6c10.2-4.2,20.5-8.3,29-15.6C352.6,443.8,351.8,443,351.2,443.5L351.2,443.5z"/>
			</g>
		</g>
		<g opacity="0.27">
			<g>
				<path fill="#B7AD55" d="M317.5,477.1c-7.2,1.4-13.7,3-20.2,6.6c-5.8,3.3-10.6,7.8-15.2,12.5c-0.3,0.3,0.2,0.9,0.5,0.5
					c4.6-4.7,9.3-9.2,15.1-12.4c6.4-3.6,12.9-5.2,20-6.6C318.1,477.7,317.9,477,317.5,477.1L317.5,477.1z"/>
			</g>
		</g>
		<g opacity="0.27">
			<g>
				<path fill="#B7AD55" d="M305,501.4c-2.7,1.3-4.6-0.6-7.2,0.1c-2.9,0.8-6.2,3.3-8.5,5.4c-5.3,4.8-6.8,16.1-14,18
					c-0.5,0.1-0.3,0.8,0.2,0.7c6-1.6,7.4-8.5,10.4-13.3c2.9-4.7,8.8-10.3,14.8-9.9c2.1,0.1,2.5,0.6,4.7-0.4
					C305.8,501.9,305.4,501.2,305,501.4L305,501.4z"/>
			</g>
		</g>
		<g opacity="0.27">
			<g>
				<path fill="#B7AD55" d="M295.8,527.5c-10.2,1.4-15,11.4-22.8,16.9c-0.4,0.3,0,0.9,0.4,0.6c7.7-5.4,12.6-15.4,22.6-16.8
					C296.5,528.2,296.3,527.5,295.8,527.5L295.8,527.5z"/>
			</g>
		</g>
		<g opacity="0.27">
			<g>
				<path fill="#B7AD55" d="M288.7,549.7c-8.9,2.9-12,10.9-17.6,17.5c-0.3,0.4,0.2,0.9,0.5,0.5c5.5-6.5,8.6-14.5,17.3-17.3
					C289.4,550.2,289.2,549.5,288.7,549.7L288.7,549.7z"/>
			</g>
		</g>
		<g opacity="0.27">
			<g>
				<path fill="#B7AD55" d="M282.1,571.6c-2.8,2.3-6,4.6-8,7.7c-2.1,3.2-3.2,7.2-4.8,10.6c-0.2,0.4,0.5,0.8,0.6,0.4
					c1.5-3.4,2.6-7.1,4.5-10.2c1.9-3.2,5.3-5.6,8.1-7.9C283,571.8,282.5,571.2,282.1,571.6L282.1,571.6z"/>
			</g>
		</g>
	</g>
	<g opacity="0.27">
		<g>
			<path fill="#B7AD55" d="M429.9,425.3c8.2-0.8,15.3-5,20.1-11.6c0.5-0.7-0.6-1.3-1.1-0.6c-4.5,6.3-11.3,10.2-19,11
				C429.1,424.2,429.1,425.4,429.9,425.3L429.9,425.3z"/>
		</g>
	</g>
	<g opacity="0.27">
		<g>
			<path fill="#B7AD55" d="M453.5,423.2c7.8-4.8,14.8-10.7,21-17.5c0.5-0.6-0.3-1.5-0.9-0.9c-6.1,6.7-13,12.5-20.7,17.3
				C452.2,422.6,452.9,423.6,453.5,423.2L453.5,423.2z"/>
		</g>
	</g>
	<g opacity="0.27">
		<g>
			<path fill="#B7AD55" d="M472.4,424.3c10.3-4.7,18.1-13,22.3-23.5c0.3-0.7-0.9-1.1-1.2-0.3c-4.1,10.2-11.7,18.2-21.7,22.7
				C471,423.5,471.7,424.6,472.4,424.3L472.4,424.3z"/>
		</g>
	</g>
	<g opacity="0.27">
		<g>
			<path fill="#B7AD55" d="M492.6,427.2c9.2-5.5,15.9-13.7,19.6-23.8c0.3-0.8-0.9-1.1-1.2-0.3c-3.6,9.7-10.2,17.7-19.1,23
				C491.2,426.6,491.9,427.6,492.6,427.2L492.6,427.2z"/>
		</g>
	</g>
	<g opacity="0.27">
		<g>
			<path fill="#B7AD55" d="M512.4,430c6.7-6.4,11.7-14,15.1-22.6c0.3-0.8-0.9-1.1-1.2-0.3c-3.3,8.4-8.2,15.8-14.7,22.1
				C510.9,429.7,511.8,430.5,512.4,430L512.4,430z"/>
		</g>
	</g>
	<g opacity="0.27">
		<g>
			<path fill="#B7AD55" d="M529.8,427.7c4.3-3.7,7.7-8.1,10-13.3c0.3-0.7-0.7-1.4-1.1-0.6c-2.3,5.1-5.6,9.4-9.8,13
				C528.3,427.3,529.2,428.2,529.8,427.7L529.8,427.7z"/>
		</g>
	</g>
	<g opacity="0.27">
		<g>
			<path fill="#B7AD55" d="M547.4,430.7c3.3-5.4,6.5-10.8,9.8-16.2c0.4-0.7-0.7-1.3-1.1-0.6c-3.3,5.4-6.5,10.8-9.8,16.2
				C545.9,430.8,547,431.4,547.4,430.7L547.4,430.7z"/>
		</g>
	</g>
	<g opacity="0.27">
		<g>
			<path fill="#B7AD55" d="M569.8,431.6c4.8-4.9,8.3-10.7,10.3-17.3c0.2-0.8-1-1.1-1.2-0.3c-2,6.4-5.3,12-10,16.8
				C568.4,431.3,569.3,432.2,569.8,431.6L569.8,431.6z"/>
		</g>
	</g>
	<g opacity="0.27">
		<g>
			<path fill="#B7AD55" d="M583.6,431.3c1.1-3,2.2-5.9,3.3-8.9c0.3-0.8-0.9-1.1-1.2-0.3c-1.1,3-2.2,5.9-3.3,8.9
				C582.1,431.7,583.3,432.1,583.6,431.3L583.6,431.3z"/>
		</g>
	</g>
	<g opacity="0.27">
		<g>
			<path fill="#B7AD55" d="M453.2,461.1c7.2-1.7,13.8-4.7,19.9-9c0.6-0.5,0-1.6-0.6-1.1c-5.9,4.3-12.4,7.2-19.6,8.9
				C452.1,460.1,452.4,461.3,453.2,461.1L453.2,461.1z"/>
		</g>
	</g>
	<g opacity="0.27">
		<g>
			<path fill="#B7AD55" d="M469.5,466.6c6.5-1.8,12.2-5.3,16.7-10.5c0.5-0.6-0.4-1.5-0.9-0.9c-4.3,5-9.8,8.4-16.1,10.1
				C468.4,465.6,468.8,466.8,469.5,466.6L469.5,466.6z"/>
		</g>
	</g>
	<g opacity="0.27">
		<g>
			<path fill="#B7AD55" d="M488.9,470.8c4.7-3.4,8.8-7.4,12.2-12.1c0.5-0.6-0.6-1.3-1.1-0.6c-3.3,4.5-7.3,8.4-11.8,11.6
				C487.6,470.1,488.2,471.2,488.9,470.8L488.9,470.8z"/>
		</g>
	</g>
	<g opacity="0.27">
		<g>
			<path fill="#B7AD55" d="M500.9,476.5c5.9-4.3,10.8-9.6,14.7-15.7c0.4-0.7-0.6-1.3-1.1-0.6c-3.8,5.9-8.6,11.1-14.3,15.2
				C499.6,475.9,500.2,477,500.9,476.5L500.9,476.5z"/>
		</g>
	</g>
	<g opacity="0.27">
		<g>
			<path fill="#B7AD55" d="M516.8,482.7c5.7-5.3,10.3-11.6,13.7-18.6c0.4-0.7-0.7-1.4-1.1-0.6c-3.4,6.9-7.9,13.1-13.5,18.3
				C515.4,482.4,516.2,483.3,516.8,482.7L516.8,482.7z"/>
		</g>
	</g>
	<g opacity="0.27">
		<g>
			<path fill="#B7AD55" d="M524.9,490.8c4.9-4.5,10.3-8.8,14.7-13.7c2.7-3.1,4.5-6.4,3.5-10.6c-0.2-0.8-1.4-0.5-1.2,0.3
				c1.4,6.1-4,10.3-7.9,13.9c-3.3,3.1-6.7,6.1-10,9.2C523.4,490.5,524.3,491.4,524.9,490.8L524.9,490.8z"/>
		</g>
	</g>
	<g opacity="0.27">
		<g>
			<path fill="#B7AD55" d="M538.4,495c8.5-5.2,15.5-12.1,20.9-20.5c0.4-0.7-0.6-1.3-1.1-0.6c-5.2,8.2-12.1,15-20.4,20
				C537.1,494.3,537.7,495.4,538.4,495L538.4,495z"/>
		</g>
	</g>
	<g opacity="0.27">
		<g>
			<path fill="#B7AD55" d="M547.2,499.8c7.9-3.7,14.2-9.7,18.2-17.5c0.4-0.7-0.7-1.3-1.1-0.6c-3.9,7.6-10,13.4-17.7,17
				C545.9,499,546.5,500.1,547.2,499.8L547.2,499.8z"/>
		</g>
	</g>
	<g opacity="0.27">
		<g>
			<path fill="#B7AD55" d="M562.8,504.6c9.3-3.8,16.7-10.5,21.4-19.4c0.4-0.7-0.7-1.3-1.1-0.6c-4.5,8.6-11.6,15.2-20.6,18.9
				C561.7,503.7,562,504.9,562.8,504.6L562.8,504.6z"/>
		</g>
	</g>
	<g opacity="0.27">
		<g>
			<path fill="#B7AD55" d="M577.9,510.1c8.5-4.3,15.6-10.4,21.1-18.2c0.5-0.7-0.6-1.3-1.1-0.6c-5.4,7.6-12.4,13.6-20.7,17.7
				C576.6,509.4,577.2,510.5,577.9,510.1L577.9,510.1z"/>
		</g>
	</g>
	<g opacity="0.27">
		<g>
			<path fill="#B7AD55" d="M592.1,515.2c9.8-3.9,17.3-11.5,21-21.4c0.3-0.8-0.9-1.1-1.2-0.3c-3.5,9.4-10.8,16.8-20.1,20.5
				C591.1,514.3,591.4,515.5,592.1,515.2L592.1,515.2z"/>
		</g>
	</g>
	<g opacity="0.27">
		<g>
			<path fill="#B7AD55" d="M606.3,522.7c9.8-5.2,18-12.6,24.2-21.8c0.5-0.7-0.6-1.3-1.1-0.6c-6.1,9-14.1,16.2-23.7,21.4
				C605,522,605.6,523.1,606.3,522.7L606.3,522.7z"/>
		</g>
	</g>
	<g opacity="0.27">
		<g>
			<path fill="#B7AD55" d="M615.2,534c11.5-4.3,21.1-11.8,27.9-22c0.4-0.7-0.6-1.3-1.1-0.6c-6.6,9.9-16,17.3-27.1,21.5
				C614.1,533.1,614.5,534.3,615.2,534L615.2,534z"/>
		</g>
	</g>
	<g opacity="0.27">
		<g>
			<path fill="#B7AD55" d="M624.2,547c13-8.7,26.2-16.4,34-30.5c0.4-0.7-0.7-1.3-1.1-0.6c-7.6,13.9-20.7,21.5-33.6,30.1
				C622.9,546.3,623.5,547.4,624.2,547L624.2,547z"/>
		</g>
	</g>
	<g opacity="0.27">
		<g>
			<path fill="#B7AD55" d="M391.1,414.8c4.2-0.2,5.2-4.6,5.7-8.1c1.1-7.8-0.7-15.8,3.3-23.1c0.4-0.7-0.7-1.3-1.1-0.6
				c-2.1,3.9-2.8,7.9-3,12.3c-0.2,4.2,1.3,17.9-5,18.2C390.3,413.6,390.3,414.8,391.1,414.8L391.1,414.8z"/>
		</g>
	</g>
	<g opacity="0.27">
		<g>
			<path fill="#B7AD55" d="M406.8,391.7c0.2-5.9,0.7-11.7,1.6-17.6c0.1-0.8-1.1-1.1-1.2-0.3c-0.9,5.9-1.4,11.9-1.6,17.9
				C405.5,392.5,406.7,392.5,406.8,391.7L406.8,391.7z"/>
		</g>
	</g>
	<g opacity="0.27">
		<g>
			<path fill="#B7AD55" d="M416.4,380.6c-1.1-7.4-0.3-14.5,2.3-21.5c0.3-0.8-0.9-1.1-1.2-0.3c-2.7,7.2-3.4,14.6-2.3,22.2
				C415.3,381.7,416.5,381.4,416.4,380.6L416.4,380.6z"/>
		</g>
	</g>
	<g opacity="0.27">
		<g>
			<path fill="#B7AD55" d="M424.2,372.1c2.2-8.6,2.8-17.2,2.1-26c-0.1-0.8-1.3-0.8-1.2,0c0.8,8.7,0.1,17.2-2,25.6
				C422.8,372.5,424,372.9,424.2,372.1L424.2,372.1z"/>
		</g>
	</g>
	<g opacity="0.27">
		<g>
			<path fill="#B7AD55" d="M436.5,358.3c0.5-5.2,1.1-10.4,1.6-15.6c0.1-0.8-1.2-0.8-1.2,0c-0.5,5.2-1.1,10.4-1.6,15.6
				C435.2,359.1,436.4,359.1,436.5,358.3L436.5,358.3z"/>
		</g>
	</g>
	<g opacity="0.27">
		<g>
			<path fill="#B7AD55" d="M450.2,351.5c0.2-3-0.1-6-0.7-9c-0.2-0.8-1.4-0.5-1.2,0.3c0.7,2.9,0.9,5.7,0.7,8.7
				C448.9,352.3,450.2,352.3,450.2,351.5L450.2,351.5z"/>
		</g>
	</g>
	<g opacity="0.27">
		<g>
			<path fill="#B7AD55" d="M316.7,404.4c-10.8-4.7-22-7.9-33.7-9.6c-0.8-0.1-1.1,1.1-0.3,1.2c11.5,1.7,22.7,4.8,33.4,9.5
				C316.8,405.8,317.4,404.7,316.7,404.4L316.7,404.4z"/>
		</g>
	</g>
	<g opacity="0.27">
		<g>
			<path fill="#B7AD55" d="M294.4,406.7c-8.4-5.1-16.9-10.1-25.6-14.8c-0.7-0.4-1.3,0.7-0.6,1.1c8.7,4.7,17.2,9.6,25.6,14.8
				C294.5,408.2,295.1,407.1,294.4,406.7L294.4,406.7z"/>
		</g>
	</g>
	<g opacity="0.27">
		<g>
			<path fill="#B7AD55" d="M274,405.3c-7.2-3.1-15.7-5.6-21.3-11.4c-0.6-0.6-1.4,0.3-0.9,0.9c5.6,5.9,14.2,8.4,21.5,11.6
				C274.1,406.7,274.8,405.6,274,405.3L274,405.3z"/>
		</g>
	</g>
	<g opacity="0.27">
		<g>
			<path fill="#B7AD55" d="M251.8,402.7c-4.1-4.1-12.5-3.8-14.5-9.9c-0.2-0.8-1.4-0.4-1.2,0.3c2.1,6.7,10.4,6.1,14.8,10.4
				C251.5,404.1,252.4,403.2,251.8,402.7L251.8,402.7z"/>
		</g>
	</g>
	<g opacity="0.27">
		<g>
			<path fill="#B7AD55" d="M237,401.5c-2-1.2-2.7-3.5-5-4.4c-1.5-0.6-3.2-0.7-4.8-0.8c-7.5-0.6-14.6-2-21.6-4.8
				c-0.7-0.3-1.1,0.9-0.3,1.2c5.4,2.2,11,3.7,16.7,4.4c3.2,0.4,6.9,0,9.7,1.6c1.9,1.1,2.7,2.9,4.6,3.9
				C237,403,237.7,401.9,237,401.5L237,401.5z"/>
		</g>
	</g>
	<g opacity="0.58">
		<g>
			<path fill="#B7AD55" d="M181.1,784.6c0-0.1,0.1-0.1,0.1-0.2c5.8-7.2,10.8-14.9,14.9-23.2c4.4-10.7,7.3-21.9,11.2-32.8
				c0.2-1.2,0.5-2.4,0.7-3.6c0,0.6,0,1.2,0,1.8c0.5-1.4,1.1-2.9,1.7-4.3c1.1-2.6,2.3-5.1,3.6-7.5c0.3-3.3,0.8-6.7,1.5-9.9
				c1-4.6,2.3-9.2,4.3-13.4c2.9-6.4,7.3-12,11.7-17.4c2.3-5.6,5.1-11,8.8-15.8c4.1-5.4,8.4-10.7,12.6-16.1
				c4.9-6.4,10.1-12.9,14.6-19.9c-10.9,7.3-20.4,16.5-27.9,27.2c-7,9.9-12.2,21-17.4,31.9c-5.5,11.7-11,23.3-16.6,35
				c-1.7,3.6-3.4,7.3-4.2,11.2c-0.7,4-0.4,8.1-0.9,12.2c-0.7,6.4-3.3,12.5-5.9,18.4c-3,6.9-6.1,13.8-11,19.5c-3.4,4-7.8,7.5-9,12.6
				c0.3-0.1,0.6-0.2,0.8-0.2C176.9,788.3,179.1,786.5,181.1,784.6z"/>
		</g>
		<g>
			<g>
				<path fill="#B7AD55" d="M182,785.5c6.2-7.6,12.4-16.4,16-25.6c2.1-5.4,3.9-10.9,5.6-16.4c1.9-6,4.4-12.1,5.5-18.3
					c-0.8-0.1-1.6-0.2-2.5-0.3c0,0.6,0,1.2,0,1.8c0,1.5,2,1.6,2.5,0.3c1.5-4.1,3.9-7.9,5.3-12c0.8-2.5,0.7-5.5,1.2-8.1
					c0.4-2.3,1-4.6,1.6-6.8c1.5-5.3,3.7-10.2,6.7-14.9c2.8-4.4,6.8-8.1,8.9-12.8c8.3-18.4,24.1-32.7,35-49.6c0.7-1-0.7-2.4-1.7-1.7
					c-13.1,8.9-24.1,20.3-32.4,33.7c-9.3,15.1-16.2,31.7-23.8,47.7c-3.5,7.4-8.2,15-10.1,23c-2,8-0.9,16.1-3.8,24.1
					c-2.9,7.9-6.4,16.3-11.1,23.3c-3.9,5.8-10.1,10-12.3,17c-0.3,0.9,0.6,1.8,1.5,1.5C177.1,790.5,179.7,787.5,182,785.5
					c1.2-1.1-0.6-2.9-1.8-1.8c-1.8,1.7-4.4,4.6-6.7,5.3c0.5,0.5,1,1,1.5,1.5c2.2-7,9.1-11.7,13-17.8c3.7-6,6.5-12.6,9.1-19.1
					c3.1-7.7,3.7-14.5,4.4-22.6c0.8-9,6-17.4,9.8-25.4c7.2-15.2,13.9-30.9,22.3-45.6c8.4-14.7,19.7-27.2,33.8-36.8
					c-0.6-0.6-1.1-1.1-1.7-1.7c-6.1,9.4-13.2,18.2-20.1,26.9c-3,3.9-6.2,7.7-9,11.8c-3,4.5-4.7,9.8-7.8,14.2
					c-5.5,7.8-10.9,14.7-13.7,24.1c-1.3,4.5-1.9,9.1-2.8,13.8c-0.9,4.8-3.8,9.4-5.5,14c0.8,0.1,1.6,0.2,2.5,0.3c0-0.6,0-1.2,0-1.8
					c0-1.4-2.2-1.8-2.5-0.3c-1.8,10.5-6.2,21.3-9.9,31.3c-3.7,10.1-9.9,19.6-16.7,27.9C179.2,785,180.9,786.7,182,785.5z"/>
			</g>
		</g>
	</g>
	<g opacity="0.54">
		<g>
			<path fill="#C0893A" d="M248.4,761.6c-3.5-1.5-7-2-11.1-0.7c-5.1,1.6-9.2,5.7-12.3,10c-1.4,1.9-2.8,3.9-3.7,6
				c-0.9,1.9-0.9,3.9-1.4,6c-0.9,3.8-3.2,6.1-7.1,6.8c-4.4,0.8-8.1,2-11,5.1c0.5,1,1.1,1.9,1.8,2.9c1.7,2.4,3.7,4.6,6.1,6.1
				c3.2,2,6.9,2.9,10.6,3.1c10.9,0.6,22.1-4.6,28.2-13.6c6.1-9.1,6.4-21.8,0.4-30.9C248.7,762.1,248.5,761.8,248.4,761.6z"/>
		</g>
	</g>
	<g>
		<g>
			<path fill="#C18F3F" d="M177.1,789c-4.2-4.1-8.9-8.1-14.5-9.7c-10-2.9-21.7,3-25.2,12.8s1.6,21.8,11.1,26
				c7.6,3.3,16.6,1.8,23.7-2.4c2-1.2,4-2.6,5.5-4.4c3.5-4.1,4.4-10.1,2.9-15.3c-1.5-5.2-5.3-9.6-9.8-12.4"/>
		</g>
		<g opacity="0.77">
			<g>
				<path fill="#C0893A" d="M180.5,796.5c-0.8-2.8-2.3-5.4-4.2-7.7l0.8,0.7c-0.4-0.4-0.9-0.9-1.3-1.3c-1.2-1.3-2.7-2.6-4.2-3.6
					c-2.7-2.1-5.7-3.9-9-4.8c-1.4-0.4-2.8-0.6-4.2-0.7c0.1,0.1,0.1,0.3,0.2,0.4c0.8,1.2,1.9,2.2,2.9,3.1c2.1,1.9,4.3,3.8,6.6,5.5
					c2,1.4,3.6,2.9,3.6,5.5c0,3.5-2.1,7.4-4.6,9.8c-4.6,4.4-11.1,3.5-16.6,1.8c-3.3-1-6.6-2.5-9.9-3.5c-1.2-0.4-3-1.1-4.3-1
					c0,0,0,0-0.1,0c0.6,7.5,5.2,14.9,12.2,17.9c7.6,3.3,16.6,1.8,23.7-2.4c2-1.2,4-2.6,5.5-4.4C181.1,807.6,182.1,801.7,180.5,796.5
					z"/>
			</g>
		</g>
	</g>
	<g>
		<g>
			<path fill="#CA9B46" d="M332.2,827.2c-10.6-2.1-22.3,3-27.9,12.2c-5.6,9.3-4.6,22.1,2.6,30.2c3.1,3.5,7,6,11.1,8.2
				c3,1.6,6.2,3,9.6,3.5c7.1,1,14.5-2.3,19.3-7.6c4.9-5.3,7.5-12.4,8.6-19.5c0.4-2.6,0.6-5.2-0.2-7.7c-0.9-2.7-2.8-4.8-4.7-6.9
				c-3.1-3.4-6.3-6.9-10.3-9.3s-9-3.6-13.3-2.1"/>
		</g>
		<g opacity="0.54">
			<g>
				<path fill="#C0893A" d="M350.7,839.7c-3.1-3.4-6.3-6.9-10.3-9.3c-0.7-0.4-1.4-0.8-2.1-1.1c-1,3.1-1.5,6.4-2.3,9.3
					c-1.5,5.1-3.6,9.7-6,14.3c-2.6,5-3.9,11.7-10.9,9.5c-3.6-1.1-6.8-3-9.8-5.2c-2.9-2.1-5.5-3-8.5-3c0.3,5.7,2.4,11.3,6.1,15.6
					c3.1,3.5,7,6,11.1,8.2c3,1.6,6.2,3,9.6,3.5c7.1,1,14.5-2.3,19.3-7.6c4.9-5.3,7.5-12.4,8.6-19.5c0.4-2.6,0.6-5.2-0.2-7.7
					C354.5,843.9,352.6,841.8,350.7,839.7z"/>
			</g>
		</g>
	</g>
	<g>
		<g>
			<path fill="#CA9B46" d="M415.1,816.3c-9.5-3.3-20.7-0.2-27.6,7.1s-9.4,18.3-6.9,28c2.6,9.7,10,17.9,19.1,21.9
				c4.9,2.1,10.3,3.2,15.6,2.4c6.9-1,13.1-5.1,17.8-10.4c4.8-5.4,8.2-12.2,8.9-19.4c0.7-7.2-1.5-14.7-6.5-20c-7-7.3-18-9-28.1-9.7"
				/>
		</g>
		<g opacity="0.54">
			<g>
				<path fill="#C0893A" d="M435.8,826.5c-0.3-0.3-0.6-0.6-1-0.9c-0.2,1-0.4,2-0.5,3c-0.5,4.3-1.1,8.3-2.5,12.4
					c-2.8,8.4-8.5,15-13.3,22.2c-2.9,4.3-6.1,9.1-9.9,12.9c2.3,0.3,4.7,0.3,7,0c6.9-1,13.1-5.1,17.8-10.4c4.8-5.4,8.2-12.2,8.9-19.4
					C442.9,839.2,440.7,831.7,435.8,826.5z"/>
			</g>
		</g>
	</g>
	<g>
		<g>
			<path fill="#CA9B46" d="M443.2,764.1c-3.1-4.8-9-6.6-14.5-8.1c-6-1.7-12.2-3.3-18.3-2.3c-3.5,0.6-6.7,2.1-9.8,3.8
				c-6.7,3.7-12.9,8.9-15.8,15.9c-2.5,6.1-2.3,13.2,0,19.4c3.1,8.4,9.9,15.3,18.2,18.6c8.3,3.3,18,3,26.1-0.8c3-1.4,5.8-3.3,8.1-5.7
				c3.9-4,6.1-9.3,7.8-14.6c2.2-7,3.5-14.6,1.2-21.5c-2.3-6.9-9.2-12.7-16.5-11.7"/>
		</g>
		<g opacity="0.51">
			<g>
				<path fill="#CCAA47" d="M413.8,758.2c-2.6,0.4-4.7,2.1-6.7,3.7c-2.7,2.1-5.3,4.2-8,6.3c-2.6,2.1-5.3,4.2-6.8,7.1
					c-2.9,5.6-0.2,13.4,5.5,16.1c2.1,1,4.4,1.3,6.5,2c2.5,0.9,4.8,2.3,7.3,3c6.7,1.8,13.6-1.9,19.5-5.5c1.9-1.1,3.8-2.3,5-4.2
					c1.6-2.4,1.5-5.5,1.3-8.4c-0.3-3.3-0.9-6.8-3-9.3c-4.4-5-12.6-3.6-18.3-6.8c-1.1-0.6-2.1-1.4-3.2-1.7c-1.5-0.5-3.3-0.2-4.5,0.8"
					/>
			</g>
			<g>
				<g>
					<path fill="#CCAA47" d="M413.1,755.8c-6.6,1.8-13.4,8.3-18.4,12.8c-4.3,3.9-7,8.9-5.8,14.8c1.3,6.3,5.7,9.8,11.5,11.6
						c7.1,2.2,12.7,5.8,20.3,3.8c5.9-1.5,14.3-5.4,17.6-10.6c3-4.7,2.2-13.1-0.2-17.9c-2.7-5.4-8.2-6.8-13.6-8
						c-6-1.2-11.4-6.2-17.4-3c-2.8,1.5-0.3,5.8,2.5,4.3c2.8-1.5,8.5,2.5,11.5,3.1c3.7,0.8,8.3,1,11.1,3.9c3.2,3.4,4.4,12,1.2,15.8
						c-3,3.6-10.5,6.9-14.8,7.8c-5.5,1.1-9.4-1.7-14.4-3.3c-4.9-1.6-9.5-2.9-10.5-8.8c-0.9-5.5,3.3-9,7.1-12c4-3.2,8.5-8,13.6-9.4
						C417.5,759.8,416.2,755,413.1,755.8L413.1,755.8z"/>
				</g>
			</g>
		</g>
	</g>
	<g opacity="0.54">
		<g>
			<path fill="#C0893A" d="M457.5,850.6c1.8,0.4,3.6,0.5,5.4,0.4c0.7-3.3,1.3-6.6,1.6-9.9c0.9-8.4,0.3-17.2-2.9-25.2
				c-2.1-5.3-5.9-9.2-9.7-13.1c-3.5,1.7-6.6,4.2-8.4,7.7c-1.5,2.9-1.9,6.3-2.1,9.6c-0.4,6.3,0.1,12.7,2.6,18.5
				C446.4,844.3,451.3,849.2,457.5,850.6z"/>
		</g>
	</g>
	<g>
		<path fill="#CA9B46" d="M489.8,839.5c-7.6-6-19.5-5.6-26.6,1c-5.9,5.5-8.1,13.9-9.1,21.9c-0.3,1.9-0.4,4,0.3,5.8
			c0.5,1.3,1.5,2.5,2.5,3.5c6,6.5,13.9,12.6,22.8,11.9c4-0.3,7.8-2.1,11.1-4.4c5.2-3.6,9.5-8.6,11.3-14.7c1.8-6,0.8-13-3.2-17.8
			c-2.8-3.3-6.7-5.3-10.4-7.3c-1.1-0.6-2.2-1.1-3.3-1.7"/>
	</g>
	<g>
		<g>
			<path fill="#807157" d="M331.9,809.3c-0.6,0-4.8-0.2-5.1,0.1c-1.9,1.3,0.5,1.6,1.2,1.8c2.5,0.7,5.9,0.2,8.3-0.7
				c5.1-1.9,9.8-6.2,14.3-9.3c-1.1-1.1-2.3-2.3-3.4-3.4c-3.8,5.4-11.6,6.6-16.3,11.1c-1.2,1.1-0.9,3.2,0.5,3.9
				c0.4,0.2,0.9,0.5,1.3,0.7c1.1,0.6,2.1,0.3,3-0.4c2.3-1.8,4.6-3.7,7-5.5c-1.2-1.2-2.4-2.4-3.5-3.5c-2.2,2-4.5,4-6.7,6.1
				c-2.1,1.9,0.6,5.3,3,3.9c4.8-2.8,9.1-6.2,12.8-10.3c2.2-2.4-1.4-5.9-3.5-3.5c-3.5,3.8-7.3,6.9-11.8,9.5c1,1.3,2,2.6,3,3.9
				c2.2-2,4.5-4,6.7-6.1c2.4-2.2-1.1-5.5-3.5-3.5c-2.3,1.8-4.6,3.7-7,5.5c1-0.1,2-0.3,3-0.4c-0.4-0.2-0.9-0.5-1.3-0.7
				c0.2,1.3,0.3,2.6,0.5,3.9c5.2-5,12.7-6,17.1-12.1c1.4-2-1.4-4.8-3.4-3.4c-4.1,2.8-8.2,6.4-12.7,8.5c-4,1.9-9.9-1.1-13.4,1.7
				c-1.7,1.3-2.2,3.9-0.8,5.6c2.1,2.6,7.7,1.9,10.7,1.7C335,814,335.1,809,331.9,809.3L331.9,809.3z"/>
		</g>
	</g>
	<g>
		<g>
			<path fill="#807157" d="M371,799.5c-4-4.8-5-11-3-16.9c0.7-2.3-2.6-4.4-4.2-2.4c-2.7,3.4-2.6,7.2-1.6,11.3
				c0.6,2.2,1.8,3.9,2.5,5.9c1,2.8-0.7,2.2-2.7,3.4c-2.3,1.4-1.1,4.4,1.3,4.7c2.8,0.4,7.6,1.2,9.8-1.1c0.8-0.8,0.9-2,0.4-3
				c-0.1-0.1-0.1-0.2-0.2-0.3c-0.5-1-1.8-1.4-2.8-1.1c-0.1,0-0.2,0-0.3,0.1c-3.1,0.7-1.8,5.5,1.3,4.8c0.1,0,0.2,0,0.3-0.1
				c-0.9-0.4-1.9-0.8-2.8-1.1c0.1,0.1,0.1,0.2,0.2,0.3c0.1-1,0.3-2,0.4-3c-0.5,0.5-5.4-0.3-6.3-0.4c0.4,1.6,0.8,3.1,1.3,4.7
				c1.5-0.9,3.4-0.4,4.8-1.8c1.3-1.2,1.6-2.9,1.4-4.6c-0.6-4.5-7.3-10.3-3.5-15.1c-1.4-0.8-2.8-1.6-4.2-2.4
				c-2.5,7.7-0.8,15.6,4.3,21.8C369.5,805.5,373,801.9,371,799.5L371,799.5z"/>
		</g>
	</g>
	<g>
		<g>
			<path fill="#807157" d="M392.5,734.8c1.7-2.6,1.9-5.4,2.4-8.4c0.8-5,3.1-9.2,5.8-13.4c-0.4-0.2-0.8-0.3-1.1-0.5
				c-0.9,2.9-1.9,5.8-2.8,8.7c-1.1,3.3-1.8,7.9-4.3,10.5c0.3,0.2,0.7,0.4,1,0.6c3.2-8.2,5.6-16.6,7.3-25.3c-0.4-0.1-0.8-0.1-1.2-0.2
				c-0.1,3.3-0.1,6.5-0.2,9.8c0,0.7,1,0.8,1.2,0.2c1-3.2,1.6-6,0.2-9.1c-0.3-0.7-1.2-0.2-1.1,0.5c1,6.5-0.9,12.7-5.4,17.5
				c-0.5,0.6,0.3,1.5,0.9,0.9c4.8-5.2,6.7-11.8,5.7-18.7c-0.4,0.2-0.8,0.3-1.1,0.5c1.4,3,0.6,5.5-0.3,8.2c0.4,0.1,0.8,0.1,1.2,0.2
				c0.1-3.3,0.1-6.5,0.2-9.8c0-0.7-1.1-0.9-1.2-0.2c-1.7,8.7-4.1,17.1-7.3,25.3c-0.2,0.6,0.6,1,1,0.6c2-2.1,2.6-4.8,3.5-7.5
				c1.3-4.1,2.7-8.1,4-12.2c0.2-0.7-0.8-1.1-1.1-0.5c-2,3.1-4,6.3-5.1,9.9c-1.2,4-0.7,8.3-3,11.9C390.9,734.9,392,735.5,392.5,734.8
				L392.5,734.8z"/>
		</g>
	</g>
	<g>
		<g>
			<path fill="#807157" d="M410.7,722.7c-1-2.6-1.6-5.1-2.1-7.8c-0.1-0.7-1.3-0.5-1.2,0.2c0.3,4.2,1.4,8,3.4,11.7
				c0.3,0.5,1.2,0.3,1.2-0.3c-0.2-1.9-0.4-3.7-0.6-5.6c-0.1-0.8-1.3-0.8-1.2,0c0.2,5.1,3.2,9.1,5.4,13.5c2.8,5.9,5.9,12.1,6.9,18.7
				c0.4-0.1,0.8-0.2,1.2-0.3c-1-4.8-2.5-9.3-4.7-13.8c-0.4-0.7-1.4-0.1-1.1,0.6c2.1,4.4,3.6,8.7,4.6,13.5c0.2,0.8,1.3,0.4,1.2-0.3
				c-0.7-5-2.8-9.5-4.8-14.1c-2.4-5.5-7.2-11.7-7.4-17.7c-0.4,0-0.8,0-1.2,0c0.2,1.9,0.4,3.7,0.6,5.6c0.4-0.1,0.8-0.2,1.2-0.3
				c-1.9-3.6-2.9-7-3.2-11c-0.4,0.1-0.8,0.1-1.2,0.2c0.4,2.7,1.1,5.3,2.1,7.8C409.7,723.7,410.9,723.4,410.7,722.7L410.7,722.7z"/>
		</g>
	</g>
	<g>
		<g>
			<path fill="#807157" d="M396.9,612c-0.5,1-2.2,0.5-2.8-0.5c-0.6-1-0.7-2.2-1.4-3.1c-0.5-0.7-1.3-1.1-1.8-1.7
				c-1.7-1.7-1.8-4.4-1.8-6.8c0-0.4,0-0.9,0.4-1.2c0.6-0.5,1.5,0.2,2,1c1.6,2.5,2.9,5.1,4,7.8c0.4,1,0.9,2.1,1.9,2.4
				c0.7,0.2,1.6-0.1,2.3,0.1c1.3,0.3,1.8,1.7,2.2,3c1,3.8,2,7.7,2.8,11.6c-1.6-1.6-2.8-3.5-3.7-5.6c-0.5-1.3-0.9-2.7-1.6-4
				c-0.7-1.2-2-2.3-3.4-2.3c-0.7,0-1.4,0.2-2.1,0.1c-1.2-0.2-2.1-1.4-2.4-2.6c-0.3-1.2-0.2-2.5-0.3-3.8c-0.2-2.5-1.3-4.9-3.1-6.7"/>
		</g>
		<g>
			<g>
				<path fill="#807157" d="M396.6,611.5c-1.8,1.2-2.7-2.6-3.4-3.5c-1.6-1.8-3.9-3.9-3.4-6.6c-0.4-2.2,0.3-2.1,2.1,0.1
					c0.6,1,1.1,2.1,1.6,3.1c0.1,0.3,1.4,3.8,2.1,4.6c1.3,1.4,2.7,1.3,4.2,2.6c3,2.6,3.3,9,4.2,12.9c0.3-0.2,0.7-0.4,1-0.6
					c-2.7-3-3.1-6.3-5.2-9.4c-1.1-1.7-2.2-1.7-3.8-2.6c-2.6-1.5-1.7,6.9-4.2-3.8c-0.3-1.1,0-2.4-0.3-3.5c-0.5-2.1-1.6-3.9-3-5.5
					c-0.5-0.6-1.4,0.3-0.9,0.9c3.7,4.3,1.3,10,5.9,13.2c0.2,0.2,0.6,0,0.8,0.1c2.9,1.3,4.5,3.3,6,5.8c1.3,2.1,2.2,4,3.8,5.9
					c0.4,0.5,1.2,0,1-0.6c-1-4.6-1.1-12.5-5.6-15.1c-1.2,0.2-2.3-0.2-3.2-1.1c-0.4-0.9-0.7-1.7-1.1-2.6c-0.7-1.6-1.5-3.2-2.4-4.7
					c-0.5-0.9-1.4-3-2.8-2.9c-3.1,0.1-1.4,6.6-0.6,8c1,1.7,2.4,3.2,3.5,4.8c0.3,0.4,0.3,1,0.6,1.3c1.3,1.1,2.1,1.5,3.5,0.6
					C397.9,612.1,397.3,611,396.6,611.5L396.6,611.5z"/>
			</g>
		</g>
	</g>
	<g opacity="0.37">
		<g>
			<path fill="#917F48" d="M399.2,705.2c-1,6.1-2.8,12.1-5.6,17.7c-2.9,6-6.9,11.3-10.2,17.1c-2.4,4.3-4.5,9-6.4,13.6
				c-0.3,3.2,0,6.9,0.9,10.1c9.5-15.8,17.2-32.6,22.9-50.2c-0.1,1.9-0.2,3.8-0.2,5.7C402.3,713.2,402.7,707.1,399.2,705.2z"/>
		</g>
		<g>
			<g>
				<path fill="#917F48" d="M398,704.9c-2.1,11.9-7.6,21.2-13.8,31.4c-2.9,4.8-5.3,9.8-7.5,15c-1.7,4.1-1,8.6,0.1,12.8
					c0.3,1.1,1.7,1.2,2.3,0.3c9.5-15.9,17.2-32.8,23-50.5c-0.8-0.1-1.6-0.2-2.5-0.3c-0.1,1.9-0.2,3.8-0.2,5.7
					c-0.1,1.4,2.1,1.7,2.5,0.3c1.2-5,2.9-12.1-2-15.6c-1.3-0.9-2.6,1.2-1.3,2.2c3.7,2.6,1.7,9.4,0.9,12.8c0.8,0.1,1.6,0.2,2.5,0.3
					c0.1-1.9,0.2-3.8,0.2-5.7c0.1-1.5-2-1.6-2.5-0.3c-5.7,17.4-13.4,34.1-22.8,49.9c0.8,0.1,1.5,0.2,2.3,0.3c-0.6-2.5-1.4-5.5-1-8.1
					c0.5-3.6,2.6-7.2,4.2-10.5c2.3-4.7,5.1-9,7.9-13.4c5-8.1,8.5-16.5,10.2-25.9C400.7,704,398.3,703.3,398,704.9z"/>
			</g>
		</g>
	</g>
	<g opacity="0.37">
		<g>
			<path fill="#917F48" d="M405.9,741.6c0.1-10.5,0.8-21,2.2-31.4c-0.5-0.3-1.1-0.2-1.8,0.4c-1.1,0.9-1.9,2.3-2.6,3.5
				c-0.6,1.1-1.2,2.3-1.7,3.6c-0.3,7.6-0.6,15.3-0.9,22.9C402.7,741.4,404.4,741.8,405.9,741.6z"/>
		</g>
		<g>
			<g>
				<path fill="#917F48" d="M407.2,741.6c0.1-10.5,0.8-20.9,2.2-31.4c0.1-0.5-0.4-1.1-0.9-1.2c-3.9-0.6-6.8,5-7.6,8.2
					c-0.7,3-0.4,6.9-0.5,10c-0.2,4.4-0.4,8.9-0.5,13.3c0,0.6,0.4,1,0.9,1.2c1.8,0.7,3.2,1,5.1,1.1c1.6,0,1.6-2.5,0-2.5
					c-4.3-0.1-3.5-2.1-3.3-5.5c0.1-2.5,0.2-5.1,0.3-7.6c0.2-4.4-0.5-10.1,2.6-13.7c1.2-1.9,1.5-1.7,0.9,0.6
					c-0.2,1.3-0.3,2.6-0.4,3.9c-0.3,2.6-0.5,5.2-0.7,7.8c-0.4,5.2-0.5,10.5-0.6,15.7C404.6,743.2,407.1,743.2,407.2,741.6z"/>
			</g>
		</g>
	</g>
	<g opacity="0.37">
		<g>
			<path fill="#917F48" d="M420,748.2c1-1.4,1.8-2.9,2.3-4.5c-0.3-0.6-0.6-1.2-0.8-1.8c-2.7-6.6-3.4-13.8-6-20.5
				c-1.3-3.4-3.2-6.7-4.8-10c-1.8,0.5-2.9,2.5-3.4,5.1c3.7,9.4,7.4,18.7,11.2,28.1C419,745.8,419.5,747.1,420,748.2z"/>
		</g>
		<g>
			<g>
				<path fill="#917F48" d="M421.1,748.9c1.1-1.7,2.6-3.7,2.3-5.7c-0.2-1.5-1.4-3.4-1.9-4.8c-0.7-2-1.1-4-1.6-6
					c-1.9-7.7-4.5-14.3-8-21.4c-0.3-0.7-1.1-0.7-1.7-0.4c-6.5,2.9-2.7,9.7-0.8,14.4c3.2,8,6.3,16.1,9.6,24.1
					c0.6,1.5,2.8,0.2,2.2-1.3c-2.4-5.7-4.6-11.6-6.9-17.3c-1.6-3.9-8.4-15.2-2.8-17.7c-0.6-0.1-1.1-0.3-1.7-0.4
					c3.1,6.3,5.7,12.3,7.4,19.1c0.7,2.9,1.4,5.8,2.3,8.6c1.2,3.4,1.9,4.2-0.4,7.8C418.1,749,420.2,750.2,421.1,748.9z"/>
			</g>
		</g>
	</g>
	<g opacity="0.27">
		<g>
			<path fill="#B37C37" d="M415.7,768.5c0.5,0,1.1-0.5,0.2-0.5C415.4,768,414.8,768.5,415.7,768.5L415.7,768.5z"/>
		</g>
	</g>
	<g opacity="0.27">
		<g>
			<path fill="#B37C37" d="M415.5,768.1c-1.3-0.9-3-1-4.2,0.1c-0.1,0.1,0.9,0.7,1,0.8c1.1,0.3,2.2,0.3,3.3,0c0,0-0.5-0.4-0.5-0.4
				c-1.4-1-2.9-1.5-4.6-1.1c0.1,0,0.7,0.8,1,0.8c1.6,0,3.2,0,4.8,0c-0.1,0-0.6-0.8-0.9-0.8c-1.6,0-3.2,0-4.8,0
				c0.3,0.3,0.6,0.5,1,0.8c1.1-0.3,2.5-0.3,3.5,0.4c-0.2-0.1-0.3-0.3-0.5-0.4c-1.1,0.3-2.2,0.3-3.2,0c0.3,0.3,0.6,0.5,1,0.8
				c1-0.9,2.5-1.1,3.7-0.4C416.6,769,415.7,768.2,415.5,768.1L415.5,768.1z"/>
		</g>
	</g>
	<g opacity="0.27">
		<g>
			<path fill="#B37C37" d="M433.1,843.6c0.3,1.7-0.7,3.8,0.9,5.2c2.1,2,2.3-1.6,2.2-3.1c0-0.8,0-2.7-1-3.2c-2-1-2.9,3.5-2.3,4.8
				c0.4,0.9,1.3,1.9,2.2,2c2.9,0.3,1.5-5,0.9-6.4c-0.2-0.5-0.7-1.9-1.4-2.1c-3-0.8-2.2,6-1.7,7.2c0.1,0.1,0.7,1,0.7,0.9
				c0.3-1.7,0.4-3.3,0.3-5c0-0.2-0.5-1-0.7-1c-2.4-0.2-1.8,3.5-2.4,4.9c-0.9,2.2-2.7,3.8-4.4,5.4c-0.1,0.1,0.6,1.1,0.7,1
				c2.2-1.1,3.7-2.6,4.6-4.9c-0.2-0.3-0.5-0.7-0.7-1c-0.7,3.2-2.5,5.7-5.2,7.6c0.2,0.3,0.5,0.7,0.7,1c4.1-3.1,6.5-7.5,7-12.6
				c-0.2-0.3-0.5-0.6-0.7-0.9c0,1.2,0,2.4,0,3.6c0,0.2,0.7,1,0.7,1c0.5-0.7,0.5-1.4,0.9-2.1c0.4-0.8-0.4-1.8,0.9-0.2
				c0.5,0.7,0.2,0,0-0.4c-0.4-0.5-0.9-1.1-1.3-1.6c0,0-0.4-0.4-0.3-0.3c0.2,1.4,0,2.4-0.8,3.5c0.2,0.3,0.5,0.7,0.7,1
				c0-1.2,0-2.4,0-3.6c0-0.3-0.7-0.9-0.7-0.9c-0.5,5.1-3,9.4-7,12.5c-0.1,0.1,0.6,1.1,0.7,1c2.8-1.8,4.5-4.4,5.2-7.6
				c0.1-0.3-0.8-0.9-0.7-1c-0.9,2.3-2.4,3.9-4.6,4.9c0.2,0.3,0.5,0.7,0.7,1c1.7-1.6,3.5-3.2,4.4-5.4c0.7-1.5,0.1-5.1,2.4-4.9
				c-0.2-0.3-0.5-0.7-0.7-1c0.1,1.7,0.1,3.3-0.3,5c0.2,0.3,0.5,0.6,0.7,0.9c-0.7-1.6-0.9-3.1-0.3-4.8c0.1-0.4,0.7-2.1,1.3-2.1
				c1.2-0.1,2.9,7-0.2,6.3c-1.7-0.4-1.1-3.4,0-4.2c1.1-0.7,1-0.1,1,1.2c0,0.6,0.2,3.2-0.8,3.2c-1.5-0.1-0.7-3-0.8-3.9
				C433.7,844.2,433.1,843.7,433.1,843.6L433.1,843.6z"/>
		</g>
	</g>
	<g opacity="0.27">
		<g>
			<path fill="#B37C37" d="M345,849.5c0.6,1.7,0.5,3.2-0.2,4.9c-0.3,0.7-0.6,1.3-0.1,2c0.5,0.8,1.7,1.1,2.6,0.9
				c4.1-1,0.9-7.6-0.7-9.4c-0.2-0.2-0.8-0.5-1-0.2c-1.4,2.5-1.5,5.2-0.2,7.8c0.2,0.4,0.9,0.6,1.2,0.2c0.7-1.4,1.3-2.8,1.8-4.3
				c-0.4-0.1-0.8-0.2-1.2-0.3c-0.1,2-0.7,3.7-1.8,5.3c-0.3,0.5,0.8,1,1.1,0.6c2.1-2.5,1.5-6.3-1.1-8.2c-0.3-0.2-1.2-0.3-1,0.3
				c1.1,3,1.2,6,0.4,9.1c-0.1,0.2,0.1,0.4,0.3,0.5c1.4,0.9,2.3-0.5,2.5-1.8c0.4-2.2-0.2-4.3-1.5-6.1c-0.3-0.4-1.4-0.4-1,0.3
				c0.8,1.1,1.3,2.3,1.4,3.6c0,0.3-0.2,3.8-0.8,3.4c0.1,0.2,0.2,0.3,0.3,0.5c0.9-3.2,0.7-6.4-0.4-9.5c-0.3,0.1-0.7,0.2-1,0.3
				c2.3,1.7,2.6,5,0.8,7.2c0.4,0.2,0.7,0.4,1.1,0.6c1.2-1.7,1.8-3.6,1.9-5.7c0-0.5-1-0.7-1.2-0.3c-0.5,1.5-1.1,2.9-1.8,4.3
				c0.4,0.1,0.8,0.1,1.2,0.2c-1.2-2.3-1.2-4.9,0.1-7.1c-0.3-0.1-0.7-0.1-1-0.2c1.1,1.2,1.8,2.6,2.2,4.2c0.1,0.5,0.2,1,0.2,1.5
				c0,0.4,0,0.9-0.2,1.3c-0.1,1-0.5,1.1-1.2,0.5c-1.2-0.5-0.6-0.6-0.3-1.5c0.2-0.5,0.3-0.9,0.3-1.4c0.1-1.2-0.1-2.3-0.5-3.3
				C346,849,344.7,848.8,345,849.5L345,849.5z"/>
		</g>
	</g>
	<g opacity="0.27">
		<g>
			<path fill="#B37C37" d="M367.3,804.3c-4.4-1.1-8.6,0-11.7,3.5c-0.4,0.5,0.7,0.9,1,0.6c1.9-1.3,3.3-2.8,4.6-4.8
				c0.4-0.6-0.7-0.9-1.1-0.6c-1.9,1.8-3.9,3.6-5.8,5.4c-0.4,0.4,0.7,0.9,1,0.6c1.2-1.1,2.4-2.1,3.7-3.2c-0.3-0.2-0.7-0.4-1-0.6
				c-2,2.3-4.1,4.6-6.1,6.9c-0.4,0.5,0.7,0.8,1,0.6c6.3-3.6,13.3-4.8,20.5-3.6c-0.1-0.3-0.2-0.6-0.2-0.9c-2.9,0.6-5.6,0.8-8.5,0.7
				c0.2,0.3,0.3,0.5,0.5,0.8c2.2-1.4,4.4-2.1,7.1-2.3c0.8-0.1,0.2-0.9-0.4-0.9c-4.1,0.1-8.2,0.1-12.3,0.2c0.1,0.3,0.3,0.6,0.4,0.9
				c3.7-0.5,12.5,0.2,13.8-4.5c0.2-0.6-1-0.8-1.2-0.3c-1.2,2.4-3.5,3.8-6.2,3.5c-0.8-0.1-0.6,0.8,0.1,0.9c3.3,0.3,5.8-1.1,7.3-4.1
				c-0.4-0.1-0.8-0.2-1.2-0.3c-1.1,4-9.7,3.6-13,4c-0.8,0.1-0.2,0.9,0.4,0.9c4.1-0.1,8.2-0.1,12.3-0.2c-0.1-0.3-0.3-0.6-0.4-0.9
				c-2.8,0.2-5.2,1-7.6,2.5c-0.5,0.3,0.2,0.8,0.5,0.8c3,0.1,5.9-0.1,8.8-0.7c0.7-0.1,0.3-0.8-0.2-0.9c-7.5-1.2-14.7,0.1-21.3,3.8
				c0.3,0.2,0.7,0.4,1,0.6c2-2.3,4.1-4.6,6.1-6.9c0.4-0.4-0.7-0.9-1-0.6c-1.2,1.1-2.4,2.1-3.7,3.2c0.3,0.2,0.7,0.4,1,0.6
				c1.9-1.8,3.9-3.6,5.8-5.4c-0.4-0.2-0.7-0.4-1.1-0.6c-1.2,1.9-2.6,3.3-4.4,4.6c0.3,0.2,0.7,0.4,1,0.6c2.7-3,6.4-4.2,10.4-3.2
				C367.8,805.3,368.1,804.5,367.3,804.3L367.3,804.3z"/>
		</g>
	</g>
	<g opacity="0.27">
		<g>
			<path fill="#B37C37" d="M449,811.2c-5.3,1.9-5.7,7.5-3.7,12.1c0.6,1.3,1.3,2.5,2,3.8c0.6,0.9,1.2,1.9,1.8,2.8
				c1.6,1.9,1.7,1.9,0.6,0.1c-0.5-2.4-2.2-4.7-2.7-7.2c-0.6-3.1-0.5-6.1,0.1-9.2c0.1-0.3-0.5-1.2-0.9-0.9c-3.3,3.2-2.6,8.8-2.2,13
				c0.5,5.4,2,10.6,4.2,15.6c0.1,0.3,1,0.9,0.9,0.2c-1.6-8.4-8.1-17.5-2.7-25.8c0.2-0.4-0.4-1.2-0.8-0.9c-6.8,4.4,0.4,17.5,2.7,22.9
				c0.2,0.4,1.2,0.8,0.8,0.1c-2.2-5-9-18.1-2.7-22c-0.3-0.3-0.6-0.6-0.8-0.9c-4.4,6.7-1.2,13.8,1.1,20.6c0.4,1,2.1,6.9,1.1,2.7
				c-0.6-2.6-1.7-5-2.1-7.6c-0.9-4.7-2.4-13.1,1.5-16.9c-0.3-0.3-0.6-0.6-0.9-0.9c-1.3,7.2,0.3,14,4.5,20c0.2,0.3,1.1,0.7,0.8,0
				c-2.8-5.6-11.8-17-1.7-20.5C450.1,812,449.4,811,449,811.2L449,811.2z"/>
		</g>
	</g>
	<g>
		<g>
			<path fill="#807157" d="M179.8,780c-2.2,1.7-4.3,3.3-6.5,5c-1,0.9-0.2,2.7,1.1,3.3c1.2,0.6,2.7,0.7,3.8,1.5
				c1.5,1.1,1.9,3.2,1.9,5.1c-0.1,1.9-0.5,3.8,0,5.7c0.7,2.7,3.1,5,3,7.8c0,0.9-0.3,1.8,0,2.7c0.3,0.7,1,1.1,1.6,1.6
				c2.9,2.7,1.3,7.6,2.7,11.3c0.1,0.3,0.3,0.7,0.5,0.9c0.8,0.7,2,0.2,2.6-0.6c1.4-1.6,1.2-4.1,0.2-6.1c-0.9-1.9-2.5-3.5-3.7-5.2
				c-4.2-5.8-5-13.3-6.1-20.4c-0.3-2-0.7-4.1-1.8-5.9c-0.8-1.3-1.9-2.8-1.1-4.1c0.7-1,2.1-0.9,3.2-1.2c3.6-0.9,4.9-5.3,5.1-9
				c-3,1.4-4.8,4.6-6.3,7.6c-1,1.9-2,3.9-3,5.8"/>
		</g>
		<g>
			<g>
				<path fill="#807157" d="M178.5,777.8c-2.9,2.3-9.8,5.4-7.7,10.2c0.9,2,2.5,2.2,4.1,3.2c4,2.6,1.8,7.9,3.3,11.7
					c0.8,1.9,2,3.3,2.3,5.5c0.2,1.1-0.3,2.2,0.1,3.3c0.3,0.8,0.8,1.3,1.3,2c1.2,1.7,1.8,2.8,2.1,4.9c0.5,3.3,0.2,9.7,5.3,9
					c4.4-0.6,5.1-6.1,3.9-9.4c-1.1-3-3.5-5.1-5.1-7.8c-1.9-3.1-2.9-6.6-3.6-10.2c-0.7-3.5-1-7.1-1.8-10.5c-0.4-1.4-1.3-2.8-1.6-4.2
					c-0.4-2.1-0.3-1.1,1.7-2.1c4.3-1.9,5.4-6.7,5.8-11c0.2-1.9-2.2-3-3.8-2.2c-5.3,3.1-7.5,9.1-10.2,14.3c-1.5,2.9,2.9,5.4,4.3,2.5
					c2.2-4.3,4-10,8.4-12.5c-1.3-0.7-2.5-1.4-3.8-2.2c-0.3,3.6-1.3,5.3-4.5,6.8c-1.2,0.6-2.4,0.7-3.3,1.9c-2.3,3.4,1.4,7.4,2.2,10.6
					c1.3,5.4,1.5,10.9,3.4,16.1c0.7,2,1.6,3.9,2.8,5.7c1.6,2.5,3.1,5.1,4.7,7.5c1.1,1.7,0.2-0.7,0.1-1.8c-0.1-0.9-0.1-1.8-0.2-2.7
					c-0.2-1.7-0.7-3.3-1.7-4.7c-1.4-1.9-1.6-1.8-1.7-4.2c-0.2-2-1-3.3-1.8-5.1c-1.9-4.3,0.2-9.7-2.8-13.5c-1-1.3-4-1.7-4.6-2.7
					c-0.5-0.8,3.6-3.4,4.7-4.3C183.6,780.2,181.1,775.8,178.5,777.8L178.5,777.8z"/>
			</g>
		</g>
	</g>
	<g>
		<g>
			<path fill="#807157" d="M213.6,750.4c-1.5,1-2.7,2-3.8,3.5c1.3,1,2.6,2,3.9,3c0.3-0.3,0.5-0.7,0.8-1c2.5-1.9,0.4-5.9-2.5-4.3
				c-1.9,1-3.2,2.3-4.4,4.1c-1.3,1.8,0.8,4.3,2.8,3.7c3.7-1.2,8.6-0.4,9.4-5.4c0.3-2-1.1-3.4-3.1-3.1c0.1,0-1.6-10.1-1.7-10.8
				c-0.4-2.8-4.9-2.1-4.9,0.7c0,1.7,0,3.5-0.1,5.2c1.6-0.2,3.3-0.4,4.9-0.7c-1.1-5.8-2.2-11.7-3.2-17.5c-0.6-3.2-5.4-1.8-4.8,1.3
				c1.1,5.8,2.2,11.7,3.2,17.5c0.5,2.8,4.9,2.1,4.9-0.7c0-1.7,0-3.5,0.1-5.2c-1.6,0.2-3.3,0.4-4.9,0.7c0.8,5,0.2,15.7,7.8,14.3
				c-1-1-2.1-2.1-3.1-3.1c-0.2,1.2-4.8,1.6-5.9,1.9c0.9,1.2,1.9,2.4,2.8,3.7c0.6-1,1.5-1.8,2.6-2.3c-0.8-1.4-1.7-2.9-2.5-4.3
				c-1.3,0.9-1.8,1.4-2.6,2.8c-1.4,2.4,2.1,5.3,3.9,3c0.7-1.1,1.7-2,2.8-2.7C218.8,752.9,216.3,748.5,213.6,750.4L213.6,750.4z"/>
		</g>
	</g>
	<g>
		<g>
			<path fill="#807157" d="M439.1,824.8c0.7,1.6,1.4,3.1,2.2,4.5c1.2,2.1,4.7,1.2,4.7-1.3c0-2.9-0.3-5.8-0.7-8.6
				c-0.3-2.1-3.7-2.5-4.6-0.6c-0.3,0.8-0.7,1.7-1.3,2.3c-0.2,0.2-0.3,0.2-0.6,0.4c-0.2,0.1-0.3-0.2-0.1,0c-0.8,1.4-1.6,2.8-2.4,4.2
				c1.3,0.4,2.2,1.1,3.2,2c2.2,2.3,5.8-1.2,3.5-3.5c-1.5-1.6-3.3-2.6-5.4-3.3c-2.4-0.8-4.2,2.5-2.4,4.2c1.5,1.5,3.7,1.8,5.7,1
				c2.1-0.9,3.2-2.8,4.2-4.7c-1.5-0.2-3-0.4-4.6-0.6c0.4,2.4,0.5,4.9,0.6,7.3c1.6-0.4,3.1-0.8,4.7-1.3c-0.6-1.1-1.2-2.2-1.7-3.3
				c-0.5-1.2-1.7-2.1-3.1-1.7C439.7,822,438.6,823.5,439.1,824.8L439.1,824.8z"/>
		</g>
	</g>
	<g>
		<g>
			<path fill="#807157" d="M504.7,839c-0.5,4.7-1.4,9.2-2.7,13.7c1.6,0.2,3.3,0.4,4.9,0.7c0.3-2.2,1.1-4.1,2.2-6.1
				c1.7-2.8-2.6-5.2-4.3-2.5c-1,1.5-2.1,2.7-3.5,3.8c1.3,0.7,2.5,1.4,3.8,2.2c-0.2-0.9-0.2-1.8,0.2-2.6c1-2.8-3.1-4.2-4.6-1.9
				c-4.3,6.3,6.1,13.6,11.5,14c1.6,0.1,2.9-1.7,2.4-3.2c-0.8-2.4-1.2-4.8-1.1-7.4c0-2.1-2.8-3.4-4.3-1.8c-0.6,0.6-0.9,1.1-1.3,1.9
				c-0.1,0.2-0.2,0.4-0.3,0.6c-0.5,0.7-0.4,1.3,0.3,1.9c1.5-2.8-2.8-5.4-4.3-2.5c-1.5,2.8-0.8,6.2,2.6,7c1.4,0.3,2.9,0,4-1
				c1.4-1.2,1.3-3.1,2.4-4.3c-1.4-0.6-2.8-1.2-4.3-1.8c-0.1,3,0.4,5.8,1.3,8.7c0.8-1.1,1.6-2.1,2.4-3.2c-1.5-0.1-8.7-4.2-7.2-6.5
				c-1.5-0.6-3-1.3-4.6-1.9c-0.5,1.4-0.6,2.5-0.4,3.9c0.2,1.6,2.1,3.4,3.8,2.2c2.1-1.6,3.8-3.4,5.3-5.6c-1.4-0.8-2.9-1.7-4.3-2.5
				c-1.6,2.7-2.5,5.5-2.9,8.6c-0.4,2.9,4.2,3.3,4.9,0.7c1.4-4.9,2.3-10,2.9-15.1C510,835.8,505,835.8,504.7,839L504.7,839z"/>
		</g>
	</g>
</g>
<g>
	<polygon fill="#FFFFFF" points="3964.5,1327 937.5,1327 937.5,-1600.5 -194.5,-1600.5 -194.5,-2912.5 -335.5,-2912.5 
		-335.5,-2922.5 -184.5,-2922.5 -184.5,-1610.5 947.5,-1610.5 947.5,1317 3964.5,1317 	"/>
</g>
</svg>
