<?xml version="1.0" encoding="utf-8"?>
<!-- Generator: Adobe Illustrator 18.0.0, SVG Export Plug-In . SVG Version: 6.00 Build 0)  -->
<!DOCTYPE svg PUBLIC "-//W3C//DTD SVG 1.1//EN" "http://www.w3.org/Graphics/SVG/1.1/DTD/svg11.dtd" [
	<!ENTITY ns_flows "http://ns.adobe.com/Flows/1.0/">
	<!ENTITY ns_extend "http://ns.adobe.com/Extensibility/1.0/">
	<!ENTITY ns_ai "http://ns.adobe.com/AdobeIllustrator/10.0/">
	<!ENTITY ns_graphs "http://ns.adobe.com/Graphs/1.0/">
]>
<svg version="1.1" id="Capa_1" xmlns:x="&ns_extend;" xmlns:i="&ns_ai;" xmlns:graph="&ns_graphs;"
	 xmlns="http://www.w3.org/2000/svg" xmlns:xlink="http://www.w3.org/1999/xlink" xmlns:a="http://ns.adobe.com/AdobeSVGViewerExtensions/3.0/"
	 x="0px" y="0px" viewBox="0 0 750 1334" enable-background="new 0 0 750 1334" xml:space="preserve">
<g>
	<path fill="#FFFFFF" d="M189.6,1176.3l20.1-81.8l17.2,0l0,119.4l-16.5,0l0-67l-14.8,67l-11.7,0l-15.1-67l0,67l-16.7,0l0.1-119.4
		l17.2,0L189.6,1176.3z"/>
	<path fill="#FFFFFF" d="M290.7,1171.6l5.6,42.4l-17.4,0l-3.3-25.3l-17.6,0l-3.4,25.3l-17.3,0l5.6-42.2l12.2-77.2l23.6,0
		L290.7,1171.6z M273.3,1171.6l-6.6-49.7l-6.6,49.7L273.3,1171.6z"/>
	<path fill="#FFFFFF" d="M306.7,1094.5l25.1,0c15.3,0,22.9,8.4,22.9,25.1l0,18c0,10.5-4.5,17.4-13.6,20.8l19.3,55.6l-18.9,0
		l-15.5-52.5l-2.2,0.3l0,52.2l-17.2,0L306.7,1094.5z M323.9,1111.5l0,34.2l4,0c2.4,0,4-0.2,4.9-0.5c3.1-1.3,4.7-3.8,4.7-7.6l0-18
		c0-5.4-2.5-8.2-7.5-8.2L323.9,1111.5z"/>
	<path fill="#FFFFFF" d="M407.7,1176.4l20.1-81.8l17.2,0l0,119.4l-16.5,0l0-67l-14.8,67l-11.7,0l-15.1-67l0,67l-16.7,0l0.1-119.4
		l17.2,0L407.7,1176.4z"/>
	<path fill="#FFFFFF" d="M509.1,1190.9c0,16.7-8.3,25.1-24.8,25.1c-16.5,0-24.7-8.4-24.7-25.1l0-73c0-16.7,8.2-25.1,24.7-25.1
		c16.5,0,24.8,8.4,24.8,25.1L509.1,1190.9z M491.9,1117.8c0-5.4-2.5-8.1-7.5-8.1h-0.1c-5,0-7.4,2.7-7.4,8.1l0,73
		c0,5.4,2.5,8.1,7.5,8.1c5,0,7.5-2.7,7.6-8.1L491.9,1117.8z"/>
	<path fill="#FFFFFF" d="M523.7,1214.1l0.1-119.4l17.2,0l0,102.4l27.5,0l0,17L523.7,1214.1z"/>
	<path fill="#FFFFFF" d="M627.9,1171.7l5.6,42.4l-17.4,0l-3.3-25.3l-17.6,0l-3.4,25.3l-17.3,0l5.6-42.2l12.2-77.2l23.6,0
		L627.9,1171.7z M603.5,1090l-9.6,0l8.6-15.4l13.5,0L603.5,1090z M610.5,1171.7l-6.6-49.7l-6.6,49.7L610.5,1171.7z"/>
	<path fill="#FFFFFF" d="M642.7,1094.7l17.2,0l16.3,69.3l0-69.3l15.9,0l-0.1,119.4l-17.2,0l-15.7-67.1l0,67.1l-16.6,0L642.7,1094.7z
		"/>
</g>
<g>
	<path fill="#B42A2A" d="M317,1271.6c0,0.1-0.1,0.2-0.2,0.3s-0.2,0.2-0.4,0.2s-0.4,0.1-0.7,0.1s-0.6,0.1-1,0.1c-0.4,0-0.7,0-1-0.1
		s-0.4-0.1-0.6-0.1s-0.2-0.1-0.3-0.2s-0.1-0.2,0-0.3l5.8-29.2c0-0.1,0.1-0.2,0.2-0.3s0.2-0.2,0.4-0.2s0.4-0.1,0.6-0.1
		s0.6-0.1,0.9-0.1s0.7,0,0.9,0.1s0.4,0.1,0.6,0.1s0.2,0.1,0.3,0.2s0.1,0.2,0,0.3L317,1271.6z"/>
	<path fill="#B42A2A" d="M343.5,1269.5c0,0.1,0,0.2,0,0.4s-0.1,0.4-0.1,0.6s-0.1,0.4-0.1,0.6s-0.1,0.4-0.2,0.6s-0.2,0.3-0.3,0.4
		s-0.3,0.2-0.4,0.2h-13.4c-0.2,0-0.4,0-0.5-0.1s-0.3-0.1-0.4-0.3s-0.2-0.3-0.3-0.5s0-0.5,0-0.8l5.6-28.1c0-0.1,0.1-0.2,0.2-0.3
		s0.2-0.2,0.4-0.2s0.4-0.1,0.7-0.1s0.6-0.1,1-0.1s0.7,0,0.9,0.1s0.5,0.1,0.6,0.1s0.2,0.1,0.3,0.2s0.1,0.2,0,0.3l-5.2,26.2H343
		c0.2,0,0.3,0.1,0.4,0.2S343.5,1269.2,343.5,1269.5z"/>
	<path fill="#B42A2A" d="M372.4,1242.6c0,0.1,0,0.2,0,0.4s0,0.3-0.1,0.5s-0.1,0.4-0.1,0.6s-0.1,0.4-0.2,0.6s-0.2,0.3-0.3,0.4
		s-0.3,0.2-0.4,0.2h-11.8l-1.9,9.5h10.2c0.2,0,0.3,0.1,0.4,0.2s0.1,0.3,0.1,0.6c0,0.1,0,0.2,0,0.4s-0.1,0.3-0.1,0.5
		s-0.1,0.4-0.1,0.6s-0.1,0.4-0.2,0.5s-0.2,0.3-0.3,0.4s-0.3,0.2-0.4,0.2h-10.2l-2.2,10.9h12.1c0.2,0,0.3,0.1,0.4,0.2
		s0.2,0.3,0.2,0.6c0,0.1,0,0.2,0,0.4s0,0.4-0.1,0.5s-0.1,0.4-0.1,0.6s-0.1,0.4-0.2,0.5s-0.2,0.3-0.3,0.4s-0.3,0.1-0.4,0.1h-14.6
		c-0.2,0-0.3,0-0.5-0.1s-0.3-0.1-0.4-0.3s-0.2-0.3-0.2-0.5s0-0.5,0-0.8l5.4-27c0.1-0.6,0.4-1,0.7-1.3s0.7-0.4,1.1-0.4h14.4
		C372.2,1241.8,372.4,1242.1,372.4,1242.6z"/>
	<path fill="#B42A2A" d="M389.9,1256.7l5.7,14c0.1,0.3,0.2,0.6,0.2,0.8s-0.1,0.4-0.2,0.5s-0.4,0.2-0.7,0.2s-0.8,0.1-1.3,0.1
		c-0.5,0-0.8,0-1.1,0s-0.5-0.1-0.6-0.1s-0.3-0.1-0.3-0.2s-0.1-0.2-0.2-0.3l-4.6-12.2l-9.2,12.2c-0.1,0.1-0.2,0.3-0.3,0.4
		s-0.3,0.2-0.5,0.2s-0.4,0.1-0.7,0.1s-0.7,0-1.1,0c-0.5,0-0.9,0-1.3-0.1s-0.5-0.1-0.7-0.2s-0.1-0.3-0.1-0.5s0.2-0.5,0.5-0.8
		l11.2-14.2l-5.2-13.3c-0.1-0.3-0.2-0.6-0.2-0.8s0.1-0.4,0.2-0.5s0.4-0.2,0.7-0.2s0.8-0.1,1.3-0.1c0.4,0,0.8,0,1,0s0.5,0.1,0.6,0.2
		s0.3,0.2,0.3,0.3s0.1,0.3,0.2,0.5l4.1,11.1l8.6-11.3c0.1-0.1,0.2-0.2,0.3-0.3s0.3-0.2,0.4-0.2s0.4-0.1,0.7-0.1s0.6,0,1.1,0
		c0.5,0,0.9,0,1.3,0.1s0.5,0.1,0.7,0.2s0.1,0.3,0.1,0.5s-0.2,0.5-0.5,0.8L389.9,1256.7z"/>
	<path fill="#B42A2A" d="M441.3,1244.9c0,0.3-0.1,0.7-0.2,1.2s-0.3,0.9-0.4,1.1s-0.4,0.4-0.6,0.4c-0.2,0-0.5-0.1-0.8-0.4
		s-0.7-0.6-1.2-0.9s-1.1-0.6-1.9-0.9s-1.8-0.4-3-0.4c-1.3,0-2.5,0.2-3.6,0.7s-2.1,1.2-2.9,2s-1.6,1.8-2.3,2.9s-1.2,2.2-1.6,3.4
		s-0.8,2.4-1,3.6s-0.3,2.4-0.3,3.5c0,1.2,0.2,2.4,0.5,3.3s0.8,1.8,1.4,2.5s1.3,1.2,2.2,1.5s1.8,0.5,2.9,0.5c1.2,0,2.3-0.1,3.2-0.4
		s1.6-0.6,2.3-0.9s1.2-0.6,1.6-0.9s0.8-0.4,1-0.4c0.2,0,0.3,0.1,0.4,0.2s0.1,0.3,0.1,0.6c0,0.1,0,0.2,0,0.3s-0.1,0.3-0.1,0.5
		s-0.1,0.4-0.1,0.6s-0.1,0.4-0.2,0.6s-0.1,0.3-0.2,0.5s-0.2,0.3-0.4,0.5s-0.5,0.4-1,0.7s-1.2,0.6-1.9,0.9s-1.6,0.5-2.6,0.7
		s-1.9,0.3-3,0.3c-1.6,0-3-0.2-4.3-0.7s-2.4-1.2-3.3-2.1s-1.6-2.1-2.1-3.5s-0.7-3-0.7-4.8c0-1.5,0.2-3,0.5-4.6s0.8-3.1,1.4-4.6
		s1.4-2.9,2.3-4.2s2-2.5,3.2-3.5s2.6-1.8,4.1-2.3s3.2-0.9,5-0.9c1.1,0,2.2,0.1,3.2,0.4s1.8,0.6,2.5,1s1.2,0.7,1.5,1
		S441.3,1244.5,441.3,1244.9z"/>
	<path fill="#B42A2A" d="M466.8,1270.7c0,0.3,0.1,0.6,0,0.8s-0.1,0.4-0.3,0.5s-0.4,0.2-0.7,0.2s-0.7,0-1.3,0c-0.3,0-0.6,0-0.9,0
		s-0.4-0.1-0.6-0.1s-0.2-0.1-0.3-0.2s-0.1-0.2-0.1-0.4l-1.1-7.4H449l-4,7.3c-0.1,0.2-0.2,0.3-0.3,0.4s-0.2,0.2-0.4,0.2
		s-0.4,0.1-0.7,0.1s-0.6,0-1.1,0c-0.5,0-0.8,0-1.1-0.1s-0.5-0.1-0.6-0.2s-0.1-0.3-0.1-0.5s0.2-0.5,0.3-0.8l15.8-28.2
		c0.1-0.2,0.2-0.3,0.4-0.4s0.3-0.2,0.5-0.3s0.5-0.1,0.8-0.1s0.7,0,1.1,0c0.5,0,0.9,0,1.3,0s0.6,0.1,0.8,0.1s0.3,0.2,0.4,0.3
		s0.1,0.3,0.2,0.4L466.8,1270.7z M458.9,1245.9L458.9,1245.9l-8.2,15.1h10.5L458.9,1245.9z"/>
	<path fill="#B42A2A" d="M497.2,1270.5c0,0.3-0.1,0.6-0.3,0.8s-0.3,0.4-0.5,0.5s-0.4,0.2-0.6,0.3s-0.4,0.1-0.6,0.1h-1.5
		c-0.4,0-0.8,0-1-0.1s-0.5-0.3-0.7-0.5s-0.4-0.5-0.6-0.9s-0.3-0.8-0.5-1.4l-5.7-16.2c-0.4-1.2-0.8-2.3-1.2-3.5s-0.8-2.3-1.1-3.5h0
		c-0.2,1.3-0.4,2.6-0.7,3.8s-0.5,2.5-0.7,3.8l-3.5,17.7c0,0.1-0.1,0.2-0.2,0.3s-0.2,0.2-0.4,0.2s-0.4,0.1-0.6,0.1s-0.6,0.1-0.9,0.1
		s-0.7,0-0.9-0.1s-0.4-0.1-0.6-0.1s-0.2-0.1-0.2-0.2s0-0.2,0-0.3l5.6-28c0.1-0.6,0.4-1.1,0.8-1.3s0.8-0.4,1.2-0.4h1.9
		c0.4,0,0.7,0,1,0.1s0.5,0.2,0.7,0.4s0.4,0.5,0.5,0.8s0.3,0.7,0.5,1.2l5.7,16.4c0.4,1,0.7,2,1.1,3s0.7,2,1,3.1h0
		c0.2-1.3,0.5-2.6,0.7-4s0.5-2.7,0.8-4l3.3-16.4c0-0.1,0.1-0.2,0.2-0.3s0.2-0.2,0.4-0.2s0.4-0.1,0.6-0.1s0.6,0,0.9,0
		c0.4,0,0.7,0,0.9,0s0.4,0.1,0.6,0.1s0.2,0.1,0.3,0.2s0.1,0.2,0,0.3L497.2,1270.5z"/>
	<path fill="#B42A2A" d="M530.3,1270.7c0,0.3,0.1,0.6,0,0.8s-0.1,0.4-0.3,0.5s-0.4,0.2-0.7,0.2s-0.7,0-1.3,0c-0.3,0-0.6,0-0.9,0
		s-0.4-0.1-0.6-0.1s-0.2-0.1-0.3-0.2s-0.1-0.2-0.1-0.4l-1.1-7.4h-12.6l-4,7.3c-0.1,0.2-0.2,0.3-0.3,0.4s-0.2,0.2-0.4,0.2
		s-0.4,0.1-0.7,0.1s-0.6,0-1.1,0c-0.5,0-0.8,0-1.1-0.1s-0.5-0.1-0.6-0.2s-0.1-0.3-0.1-0.5s0.2-0.5,0.3-0.8l15.8-28.2
		c0.1-0.2,0.2-0.3,0.4-0.4s0.3-0.2,0.5-0.3s0.5-0.1,0.8-0.1s0.7,0,1.1,0c0.5,0,0.9,0,1.3,0s0.6,0.1,0.8,0.1s0.3,0.2,0.4,0.3
		s0.1,0.3,0.2,0.4L530.3,1270.7z M522.4,1245.9L522.4,1245.9l-8.2,15.1h10.5L522.4,1245.9z"/>
	<path fill="#B42A2A" d="M560.5,1248.2c0,1.1-0.2,2.1-0.5,3.1s-0.8,1.9-1.4,2.7s-1.4,1.5-2.3,2.2s-2,1.1-3.2,1.5
		c0.8,0.3,1.5,0.9,2,1.9s0.9,2.2,1.2,3.8l1.2,6.7c0,0.3,0.1,0.6,0.1,0.8s0.1,0.5,0.1,0.7c0,0.1,0,0.3-0.1,0.4s-0.2,0.2-0.4,0.2
		s-0.4,0.1-0.7,0.1s-0.7,0-1.1,0c-0.4,0-0.7,0-1,0s-0.4-0.1-0.6-0.2s-0.2-0.2-0.3-0.3s-0.1-0.3-0.1-0.5l-1.2-7.1
		c-0.1-0.8-0.3-1.6-0.5-2.2s-0.5-1.3-0.9-1.7s-0.9-0.9-1.6-1.1s-1.4-0.4-2.3-0.4h-2.7l-2.6,12.9c0,0.1-0.1,0.2-0.2,0.3
		s-0.2,0.2-0.4,0.2s-0.4,0.1-0.7,0.1s-0.6,0.1-1,0.1c-0.4,0-0.7,0-0.9,0s-0.5-0.1-0.6-0.1s-0.2-0.1-0.3-0.2s-0.1-0.2,0-0.3l5.6-28.1
		c0.1-0.6,0.4-1,0.8-1.3s0.8-0.4,1.2-0.4h6.6c1.4,0,2.7,0.1,3.8,0.4s2,0.7,2.7,1.2s1.3,1.2,1.7,2S560.5,1247.2,560.5,1248.2z
		 M556.2,1248.8c0-0.5-0.1-1-0.3-1.5s-0.5-0.8-0.9-1.2s-0.9-0.6-1.6-0.8s-1.4-0.3-2.3-0.3h-4.2l-2.1,10.2h3.6c1.4,0,2.6-0.2,3.6-0.6
		s1.8-0.9,2.4-1.5s1.1-1.3,1.4-2.1S556.2,1249.6,556.2,1248.8z"/>
	<path fill="#B42A2A" d="M570.1,1271.6c0,0.1-0.1,0.2-0.2,0.3s-0.2,0.2-0.4,0.2s-0.4,0.1-0.7,0.1s-0.6,0.1-1,0.1c-0.4,0-0.7,0-1-0.1
		s-0.4-0.1-0.6-0.1s-0.2-0.1-0.3-0.2s-0.1-0.2,0-0.3l5.8-29.2c0-0.1,0.1-0.2,0.2-0.3s0.2-0.2,0.4-0.2s0.4-0.1,0.6-0.1
		s0.6-0.1,0.9-0.1s0.7,0,0.9,0.1s0.4,0.1,0.6,0.1s0.2,0.1,0.3,0.2s0.1,0.2,0,0.3L570.1,1271.6z"/>
	<path fill="#B42A2A" d="M602.9,1242.6c0,0.1,0,0.2,0,0.4s0,0.3-0.1,0.5s-0.1,0.4-0.1,0.6s-0.1,0.4-0.2,0.6s-0.2,0.3-0.3,0.4
		s-0.3,0.2-0.4,0.2h-11.8l-1.9,9.5h10.2c0.2,0,0.3,0.1,0.4,0.2s0.1,0.3,0.1,0.6c0,0.1,0,0.2,0,0.4s-0.1,0.3-0.1,0.5
		s-0.1,0.4-0.1,0.6s-0.1,0.4-0.2,0.5s-0.2,0.3-0.3,0.4s-0.3,0.2-0.4,0.2h-10.2l-2.2,10.9h12.1c0.2,0,0.3,0.1,0.4,0.2
		s0.2,0.3,0.2,0.6c0,0.1,0,0.2,0,0.4s0,0.4-0.1,0.5s-0.1,0.4-0.1,0.6s-0.1,0.4-0.2,0.5s-0.2,0.3-0.3,0.4s-0.3,0.1-0.4,0.1h-14.6
		c-0.2,0-0.3,0-0.5-0.1s-0.3-0.1-0.4-0.3s-0.2-0.3-0.2-0.5s0-0.5,0-0.8l5.4-27c0.1-0.6,0.4-1,0.7-1.3s0.7-0.4,1.1-0.4h14.4
		C602.8,1241.8,602.9,1242.1,602.9,1242.6z"/>
	<path fill="#B42A2A" d="M629.5,1270.5c0,0.3-0.1,0.6-0.3,0.8s-0.3,0.4-0.5,0.5s-0.4,0.2-0.6,0.3s-0.4,0.1-0.6,0.1H626
		c-0.4,0-0.8,0-1-0.1s-0.5-0.3-0.7-0.5s-0.4-0.5-0.6-0.9s-0.3-0.8-0.5-1.4l-5.7-16.2c-0.4-1.2-0.8-2.3-1.2-3.5s-0.8-2.3-1.1-3.5h0
		c-0.2,1.3-0.4,2.6-0.7,3.8s-0.5,2.5-0.7,3.8l-3.5,17.7c0,0.1-0.1,0.2-0.2,0.3s-0.2,0.2-0.4,0.2s-0.4,0.1-0.6,0.1s-0.6,0.1-0.9,0.1
		s-0.7,0-0.9-0.1s-0.4-0.1-0.6-0.1s-0.2-0.1-0.2-0.2s0-0.2,0-0.3l5.6-28c0.1-0.6,0.4-1.1,0.8-1.3s0.8-0.4,1.2-0.4h1.9
		c0.4,0,0.7,0,1,0.1s0.5,0.2,0.7,0.4s0.4,0.5,0.5,0.8s0.3,0.7,0.5,1.2l5.7,16.4c0.4,1,0.7,2,1.1,3s0.7,2,1,3.1h0
		c0.2-1.3,0.5-2.6,0.7-4s0.5-2.7,0.8-4l3.3-16.4c0-0.1,0.1-0.2,0.2-0.3s0.2-0.2,0.4-0.2s0.4-0.1,0.6-0.1s0.6,0,0.9,0
		c0.4,0,0.7,0,0.9,0s0.4,0.1,0.6,0.1s0.2,0.1,0.3,0.2s0.1,0.2,0,0.3L629.5,1270.5z"/>
	<path fill="#B42A2A" d="M659.4,1244.1c0,0.1,0,0.3,0,0.4s0,0.3-0.1,0.5s-0.1,0.4-0.1,0.6s-0.1,0.4-0.2,0.5s-0.2,0.3-0.3,0.4
		s-0.2,0.1-0.3,0.1c-0.2,0-0.4-0.1-0.7-0.3s-0.7-0.4-1.2-0.6s-1-0.4-1.7-0.6s-1.4-0.3-2.3-0.3c-1,0-1.8,0.1-2.5,0.4
		s-1.3,0.7-1.8,1.2s-0.8,1.1-1.1,1.7s-0.4,1.3-0.4,1.9c0,0.7,0.2,1.3,0.5,1.8s0.7,1,1.2,1.4s1.1,0.8,1.7,1.2s1.3,0.8,1.9,1.1
		s1.3,0.8,1.9,1.3s1.2,1,1.7,1.5s0.9,1.3,1.2,2s0.5,1.6,0.5,2.6c0,1.3-0.3,2.6-0.8,3.7s-1.3,2.2-2.3,3s-2.2,1.6-3.6,2.1
		s-3,0.8-4.8,0.8c-1,0-1.8-0.1-2.7-0.2s-1.6-0.4-2.2-0.6s-1.2-0.5-1.7-0.8s-0.8-0.5-1-0.7s-0.3-0.5-0.3-0.9c0-0.1,0-0.2,0-0.4
		s0.1-0.4,0.1-0.6s0.1-0.4,0.2-0.6s0.1-0.4,0.2-0.5s0.2-0.3,0.3-0.4s0.2-0.2,0.4-0.2c0.2,0,0.6,0.1,0.9,0.4s0.8,0.5,1.4,0.8
		s1.2,0.6,2,0.8s1.7,0.4,2.7,0.4c1.1,0,2.1-0.2,2.9-0.5s1.6-0.7,2.2-1.2s1-1.1,1.3-1.8s0.5-1.5,0.5-2.2c0-0.7-0.1-1.3-0.4-1.8
		s-0.7-1-1.2-1.4s-1-0.8-1.7-1.2s-1.3-0.7-1.9-1.1s-1.3-0.8-1.9-1.3s-1.2-1-1.7-1.5s-0.9-1.3-1.2-2s-0.5-1.6-0.5-2.7
		c0-1.2,0.2-2.4,0.7-3.5s1.2-2,2.1-2.8s2-1.5,3.2-1.9s2.7-0.7,4.2-0.7c0.8,0,1.5,0.1,2.1,0.2s1.3,0.3,1.8,0.5s1,0.4,1.4,0.6
		s0.7,0.4,0.8,0.5s0.2,0.3,0.3,0.4S659.4,1243.9,659.4,1244.1z"/>
	<path fill="#B42A2A" d="M667.9,1271.6c0,0.1-0.1,0.2-0.2,0.3s-0.2,0.2-0.4,0.2s-0.4,0.1-0.7,0.1s-0.6,0.1-1,0.1c-0.4,0-0.7,0-1-0.1
		s-0.4-0.1-0.6-0.1s-0.2-0.1-0.3-0.2s-0.1-0.2,0-0.3l5.8-29.2c0-0.1,0.1-0.2,0.2-0.3s0.2-0.2,0.4-0.2s0.4-0.1,0.6-0.1
		s0.6-0.1,0.9-0.1s0.7,0,0.9,0.1s0.4,0.1,0.6,0.1s0.2,0.1,0.3,0.2s0.1,0.2,0,0.3L667.9,1271.6z"/>
	<path fill="#B42A2A" d="M698,1244.1c0,0.1,0,0.3,0,0.4s0,0.3-0.1,0.5s-0.1,0.4-0.1,0.6s-0.1,0.4-0.2,0.5s-0.2,0.3-0.3,0.4
		s-0.2,0.1-0.3,0.1c-0.2,0-0.4-0.1-0.7-0.3s-0.7-0.4-1.2-0.6s-1-0.4-1.7-0.6s-1.4-0.3-2.3-0.3c-1,0-1.8,0.1-2.5,0.4
		s-1.3,0.7-1.8,1.2s-0.8,1.1-1.1,1.7s-0.4,1.3-0.4,1.9c0,0.7,0.2,1.3,0.5,1.8s0.7,1,1.2,1.4s1.1,0.8,1.7,1.2s1.3,0.8,1.9,1.1
		s1.3,0.8,1.9,1.3s1.2,1,1.7,1.5s0.9,1.3,1.2,2s0.5,1.6,0.5,2.6c0,1.3-0.3,2.6-0.8,3.7s-1.3,2.2-2.3,3s-2.2,1.6-3.6,2.1
		s-3,0.8-4.8,0.8c-1,0-1.8-0.1-2.7-0.2s-1.6-0.4-2.2-0.6s-1.2-0.5-1.7-0.8s-0.8-0.5-1-0.7s-0.3-0.5-0.3-0.9c0-0.1,0-0.2,0-0.4
		s0.1-0.4,0.1-0.6s0.1-0.4,0.2-0.6s0.1-0.4,0.2-0.5s0.2-0.3,0.3-0.4s0.2-0.2,0.4-0.2c0.2,0,0.6,0.1,0.9,0.4s0.8,0.5,1.4,0.8
		s1.2,0.6,2,0.8s1.7,0.4,2.7,0.4c1.1,0,2.1-0.2,2.9-0.5s1.6-0.7,2.2-1.2s1-1.1,1.3-1.8s0.5-1.5,0.5-2.2c0-0.7-0.1-1.3-0.4-1.8
		s-0.7-1-1.2-1.4s-1-0.8-1.7-1.2s-1.3-0.7-1.9-1.1s-1.3-0.8-1.9-1.3s-1.2-1-1.7-1.5s-0.9-1.3-1.2-2s-0.5-1.6-0.5-2.7
		c0-1.2,0.2-2.4,0.7-3.5s1.2-2,2.1-2.8s2-1.5,3.2-1.9s2.7-0.7,4.2-0.7c0.8,0,1.5,0.1,2.1,0.2s1.3,0.3,1.8,0.5s1,0.4,1.4,0.6
		s0.7,0.4,0.8,0.5s0.2,0.3,0.3,0.4S698,1243.9,698,1244.1z"/>
</g>
<g>
	<g>
		<path fill="#879B3C" d="M368.4,515.3c-1.3,0-1.3,1.3-1.3,1.3c0-6.4,0-10.2-2.6-15.3c-5.1-10.2-12.8-16.6-20.4-23
			c-6.4-6.4-14-12.8-20.4-19.1c-5.1-6.4-14-16.6-15.3-24.2c0-7.7,8.9-16.6,14-19.1c8.9-7.7,17.9-10.2,25.5-17.9
			c6.4-6.4,14-10.2,21.7-12.8c7.7-2.6,12.8-7.7,17.9-14c5.1-3.8,10.2-14,16.6-15.3c10.2-1.3,7.7,10.2,7.7,15.3
			c1.3,16.6-2.6,29.3-6.4,44.7c-1.3,6.4-2.6,12.8-5.1,17.9c-2.6,7.7-7.7,14-10.2,21.7c-3.8,6.4-7.7,12.8-8.9,19.1
			c-2.6,8.9-7.7,15.3-11.5,24.2c-1.3,5.1-1.3,8.9-2.6,14c-1.3,8.9-3.8,16.6-5.1,25.5"/>
	</g>
	<g>
		<path fill="#7D8736" d="M369.2,443.1c-1.3-10.2,2.6-21.7,5.1-30.6c2.6-12.8,10.2-25.5,16.6-37c7.7-12.8,16.6-25.5,20.4-39.6
			c6.4-17.9,6.4-34.5,20.4-49.8c6.4-7.7,14-14,17.9-24.2c2.6-11.5,6.4-17.9,15.3-25.5c6.4-6.4,14-10.2,17.9-20.4
			c1.3-5.1,3.8-21.7,11.5-12.8c10.2,11.5,0,37-5.1,48.5c-5.1,12.8-10.2,25.5-17.9,37c-3.8,5.1-7.7,11.5-11.5,17.9
			c-3.8,7.7-5.1,15.3-8.9,24.2c-6.4,16.6-17.9,33.2-30.6,47.2c-11.5,15.3-30.6,26.8-39.6,44.7c-3.8,6.4-5.1,14-7.7,20.4
			c-2.6,3.8-5.1,7.7-6.4,11.5c-1.3,3.8-1.3,7.7-2.6,11.5"/>
	</g>
	<g opacity="0.36">
		<g>
			<path fill="#6D7A33" d="M494.1,203.5c-0.6-0.7-1.1-1.2-1.6-1.6c-1.1,8.9-1.3,18-4.5,26.3c-2.7,6.9-6.4,13.2-10,19.6
				c-2,3.6-3.5,8.1-5.8,11.5c-1.9,2.8-4.7,4.9-6.9,7.5c-18.2,21.7-19.9,51.6-34.5,75c-14.6,23.3-42.2,34-50.4,61.6
				c-3.3,10.9-4.7,21.9-5.1,33c1.4-4.6,2.8-9.4,5.4-13.6c8.9-17.9,28.1-29.3,39.6-44.7c12.8-14,24.2-30.6,30.6-47.2
				c3.8-8.9,5.1-16.6,8.9-24.2c3.8-6.4,7.7-12.8,11.5-17.9c7.7-11.5,12.8-24.2,17.9-37C494.1,240.5,504.3,215,494.1,203.5z"/>
		</g>
	</g>
	<g>
		<path fill="#777F36" d="M392.5,603.7c12.8,7.7,24.2-7.7,31.9-16.6c10.2-11.5,14-25.5,23-38.3c10.2-14,24.2-24.2,37-34.5
			c11.5-7.7,28.1-17.9,30.6-33.2c-12.8-2.6-30.6,12.8-40.8,19.1c-15.3,8.9-26.8,21.7-35.7,35.7c-7.7,12.8-12.8,25.5-20.4,38.3
			c-3.8,5.1-6.4,12.8-11.5,17.9c-5.1,5.1-14,5.1-17.9,10.2"/>
	</g>
	<g>
		<path fill="#7D8736" d="M407.8,602.4c11.5-3.8,17.9-14,23-23c5.1-12.8,11.5-24.2,16.6-37c2.6-8.9,5.1-20.4,11.5-28.1
			c6.4-8.9,16.6-16.6,24.2-25.5c10.2-10.2,17.9-23,26.8-33.2c8.9-8.9,19.1-21.7,29.3-26.8c8.9-5.1,17.9-5.1,26.8-1.3
			c8.9,3.8,20.4,12.8,25.5,21.7c3.8,10.2-7.7,10.2-14,12.8c-8.9,2.6-17.9,5.1-26.8,10.2c-21.7,8.9-40.8,26.8-58.7,42.1
			c-14,14-31.9,23-45.9,38.3c-11.5,14-23,26.8-31.9,42.1c-5.1,10.2-10.2,14-21.7,15.3"/>
	</g>
	<g>
		<g>
			<path fill="#7D8736" d="M377.3,574c-6.9-2.9-12.7-5.9-18.6-10.8c-2.9-2-7.8-4.9-10.8-8.8c-1-2-2.9-7.8-6.9-3.9
				c-8.8,8.8,19.6,9.8,8.8,0c-9.8-10.8-15.7,14.7-2,8.8c4.9,6.9,20.6,24.5,29.4,12.7c-5.9-2-9.8,0-15.7-3.9
				c-3.9-2.9-8.8-5.9-13.7-8.8"/>
		</g>
		<g>
			<g>
				<path fill="#7D8736" d="M377.9,573c-5-2.2-10-4.5-14.5-7.7c-4.1-2.9-9.2-5.9-12.6-9.5c-3.1-3.2-5.8-11.8-11.1-5.6
					c-5.9,6.9,6.3,10.1,11.2,7.8c7.3-3.4-2.8-13.9-8.5-10.6c-5.7,3.3-5,16.1,3.3,14c2-0.5,1.2-0.8,2.5,0.5c1.3,1.2,2.3,2.8,3.5,4.1
					c2.6,2.9,5.5,5.6,8.8,7.8c5.9,3.9,12.8,5.2,17.7-0.8c0.6-0.7,0.4-1.8-0.6-2.1c-4.9-1.4-10.1-0.7-14.6-3.3
					c-4.9-2.9-9.6-6.3-14.5-9.3c-1.4-0.8-2.6,1.3-1.3,2.2c5.3,3.2,10.4,7.5,16,10.1c4.3,2,9.2,1.5,13.7,2.8
					c-0.2-0.7-0.4-1.4-0.6-2.1c-8.6,10.5-22.3-5.4-27.4-12.5c-0.3-0.4-0.9-0.8-1.4-0.6c-3,1.2-6.2,1.2-6.5-2.7
					c-0.1-2.1,0.8-5.2,2.9-6.1c2.1-0.9,7.1,2.4,7,4.8c0,2.2-3.9,2.2-5.5,2.1c-1.8-0.1-5.3-0.7-4.9-3.1c0.1-0.5,0.7-1.4,1.2-1.7
					c3.6-2.1,3.1,1.1,4.3,2.3c1,1.1,1.6,2.7,2.8,3.9c3.5,3.4,7.8,6,11.8,8.9c4.9,3.6,10.3,6.2,15.9,8.6
					C378.1,575.8,379.4,573.6,377.9,573L377.9,573z"/>
			</g>
		</g>
	</g>
	<g>
		<g>
			<path fill="#7D8736" d="M399.8,588.6c1.1-3.3,5.5-7.7,6.6-11c2.2-5.5,3.3-7.7,1.1-13.2c0-3.3-4.4-9.9-2.2-13.2
				c3.3-2.2,9.9-1.1,12.1,1.1c1.1,2.2,2.2,8.8,1.1,11c-1.1,2.2-3.3,2.2-5.5,3.3c-3.3,1.1-2.2,0-4.4,3.3c-2.2,3.3-1.1,8.8-3.3,13.2
				c-1.1,5.5-4.4,6.6-8.8,9.9"/>
		</g>
		<g>
			<g>
				<path fill="#7D8736" d="M401,588.9c3-7.2,10-12.6,8.7-21.3c-0.5-3.5-1.9-6.8-3-10.2c-1-3.2-0.2-6.3,3.7-6.2c3,0.1,5.5,1.1,6.6,4
					c0.6,1.5,0.9,3.8,0.7,5.5c-0.4,3.1-2.5,3.7-5.1,4.7c-2.4,0.8-3.3,1.1-4.7,3.3c-2.3,3.6-1.8,7.8-3,11.8c-1.6,5.8-4.3,8-9.1,11.4
					c-1.3,0.9,0,3.1,1.3,2.2c3.8-2.7,7.3-4.7,9-9.2c1.9-5,0.9-13.9,6-16.7c3.4-1.8,7.3-1.7,8-6.3c0.4-2.8,0-8.2-1.8-10.5
					c-2.1-2.5-7.1-3-10-2.5c-4.1,0.6-5.3,2.9-4.6,6.8c1,5.6,4.7,11,3.3,16.9c-1.5,6-6.1,10.1-8.3,15.6
					C398,589.7,400.4,590.4,401,588.9L401,588.9z"/>
			</g>
		</g>
	</g>
	<g>
		<path fill="#C5C0AE" d="M339.8,436.7c2.6,3.8,1.3,7.7,1.3,10.2c0,7.7,2.6,12.8,3.8,19.1c3.8,20.4,5.1,40.8,8.9,61.2
			c3.8,20.4,6.4,39.6,17.9,57.4c8.9,15.3,17.9,30.6,26.8,45.9c6.4,11.5,14,24.2,19.1,38.3c3.8,11.5,3.8,25.5,5.1,38.3
			c1.3,12.8,5.1,24.2,7.7,37c2.6,10.2,2.6,20.4,5.1,30.6c5.1,25.5,14,51,28.1,72.7c11.5,19.1,25.5,35.7,39.6,52.3
			c10.2,11.5,23,23,29.3,37c6.4,11.5,7.7,24.2,11.5,35.7c6.4,16.6,15.3,29.3,33.2,35.7c6.4,2.6,14,3.8,20.4,5.1
			c7.7,1.3,14,5.1,21.7,8.9c1.3,1.3,8.9,5.1,7.7,0c0-2.6-7.7-6.4-8.9-7.7c-7.7-5.1-15.3-7.7-23-14c-6.4-5.1-11.5-7.7-17.9-11.5
			c-7.7-3.8-11.5-8.9-15.3-15.3c-5.1-6.4-8.9-10.2-11.5-17.9c-2.6-6.4-5.1-12.8-7.7-19.1c-2.6-6.4-5.1-14-8.9-19.1
			c-3.8-6.4-8.9-12.8-12.8-19.1c-7.7-15.3-19.1-25.5-26.8-40.8c-6.4-14-12.8-28.1-20.4-42.1c-7.7-16.6-17.9-29.3-21.7-47.2
			c-2.6-14-3.8-28.1-8.9-42.1c-1.3-6.4-5.1-12.8-6.4-19.1c-2.6-7.7-2.6-14-3.8-21.7c-1.3-14-7.7-29.3-11.5-43.4
			c-5.1-14-6.4-29.3-15.3-43.4c-3.8-7.7-10.2-14-14-23c-2.6-6.4-5.1-14-7.7-20.4c-6.4-14-14-25.5-14-42.1c0-6.4,0-12.8-1.3-19.1
			c-2.6-8.9-5.1-16.6-6.4-24.2c0-3.8,0-7.7,0-10.2c-2.6-5.1-5.1-8.9-6.4-12.8C355.1,441.8,346.2,430.4,339.8,436.7"/>
	</g>
	<g>
		<path fill="#B6B0A3" d="M625.9,1022.4c0-2.6-7.7-6.4-8.9-7.7c-7.7-5.1-15.3-7.7-23-14c-6.4-5.1-11.5-7.7-17.9-11.5
			c-7.7-3.8-11.5-8.9-15.3-15.3c-5.1-6.4-8.9-10.2-11.5-17.9c-2.6-6.4-5.1-12.8-7.7-19.1c-2.6-6.4-5.1-14-8.9-19.1
			c-3.8-6.4-8.9-12.8-12.8-19.1c-7.7-15.3-19.1-25.5-26.8-40.8c-6.4-14-12.8-28.1-20.4-42.1c-7.7-16.6-17.9-29.3-21.7-47.2
			c-2.6-14-3.8-28.1-8.9-42.1c-1.3-6.4-5.1-12.8-6.4-19.1c-2.6-7.7-2.6-14-3.8-21.7c-1.3-14-7.7-29.3-11.5-43.4
			c-5.1-14-6.4-29.3-15.3-43.4c-3.8-7.7-10.2-14-14-23c-2.6-6.4-5.1-14-7.7-20.4c-6.4-14-14-25.5-14-42.1c0-6.4,0-12.8-1.3-19.1
			c-2.6-8.9-5.1-16.6-6.4-24.2v-10.2c-2.6-5.1-5.1-8.9-6.4-12.8c-1-3.9-6.4-11.5-11.7-12c1.1,2.6,2.2,5.3,3.3,8
			c4.2,11.1,5.7,22.3,8.1,33.8c5,25.2,13.2,50.3,22.1,74.4c8.3,22.7,16.7,45.5,26,67.8c8.5,20.6,17.1,41.3,22,63.1
			c5.5,24.6,9,49.6,15.9,73.9c7,24.6,16.6,47.8,28.9,70.3c24.1,43.8,52.7,84.8,78.1,127.8c1.9,3.2-2.9,6.4-4.8,3.2c-3-5-6-10-9.1-15
			c4.2,10,5.7,20.6,8.9,30.4c6.4,16.6,15.3,29.3,33.2,35.7c6.4,2.6,14,3.8,20.4,5.1c7.7,1.3,14,5.1,21.7,8.9
			C619.5,1023.7,627.2,1027.5,625.9,1022.4z"/>
	</g>
	<g>
		<path fill="#7B8237" d="M512.2,402.2c-5.7,1.5-12.5,2.1-18,3.9c-1.9,0.6-3.9,1.2-6,1.8c-1.1,1.7-2.3,3.4-3.4,5L512.2,402.2z"/>
	</g>
	<g>
		<path fill="#7B8237" d="M512.2,402.2c2.3-0.6,4.5-1.4,6.3-2.5L512.2,402.2z"/>
	</g>
	<g>
		<path fill="#7B8237" d="M424.9,468.5c21.8-15.1,38.6-35.6,53.9-57.2c-4.3,1.6-8.6,3.3-12.6,5.1c-14,6.4-26.8,12.8-35.7,24.2
			c-10.2,12.8-19.1,26.8-30.6,37c-6.5,5.9-15.4,29-22.5,36.2C391.4,502.1,411.7,477.7,424.9,468.5z"/>
	</g>
	<g>
		<path fill="#879B3C" d="M250.5,328.3c-5.1-1.3-8.9-14-12.8-17.9c-5.1-6.4-11.5-11.5-16.6-17.9c-14-11.5-25.5-24.2-40.8-34.5
			c-15.3-12.8-34.5-20.4-44.7-38.3c-5.1-10.2-12.8-25.5-1.3-34.5c14-10.2,33.2,0,44.7,8.9c24.2,16.6,44.7,37,53.6,65.1
			c3.8,12.8,5.1,25.5,5.1,38.3c0,6.4,1.3,11.5,3.8,17.9c2.6,5.1,14,12.8,11.5,19.1"/>
	</g>
	<g opacity="0.3">
		<g>
			<path fill="#708038" d="M169.8,213.9c14.5,15.5,26.6,32.6,42.3,47.1c11.3,10.3,19.4,22.2,26.2,34.9c-0.1-12.2-1.4-24.4-5.1-36.5
				c-8.9-28.1-29.3-48.5-53.6-65.1c-11.5-8.9-30.6-19.1-44.7-8.9c-1.2,0.9-2.1,1.9-2.9,2.9C145,196.4,159,202.5,169.8,213.9z"/>
		</g>
	</g>
	<g>
		<path fill="#5F6B32" d="M327.1,596c-6.4-5.1-12.8-11.5-20.4-15.3c-10.2-6.4-23-8.9-34.5-12.8c-15.3-5.1-30.6-10.2-45.9-15.3
			c-30.6-8.9-66.4-12.8-97-6.4c-16.6,3.8-33.2,7.7-49.8,11.5c-6.4,1.3-26.8,6.4-29.3,14c-2.6,8.9,16.6,10.2,23,10.2
			c5.1,0,5.1,1.3,8.9,5.1c3.8,2.6,7.7,3.8,11.5,5.1c11.5,2.6,23,2.6,34.5,6.4c7.7,1.3,14,5.1,21.7,7.7c10.2,2.6,19.1-1.3,29.3-3.8
			c28.1-5.1,56.1,6.4,84.2,1.3c12.8-2.6,25.5-2.6,37-6.4c12.8-2.6,31.9-3.8,43.4,2.6"/>
	</g>
	<g>
		<path fill="#777F36" d="M366.6,595c-15.3,5.1-26.8,1.3-42.1-2.6c-14-2.6-33.2-3.8-47.2,1.3c-7.7,2.6-15.3,7.7-23,10.2
			c-8.9,2.6-17.9,3.8-26.8,7.7c-17.9,8.9-29.3,24.2-44.7,37c-6.4,5.1-12.8,10.2-19.1,15.3c-5.1,5.1-17.9,14-19.1,20.4
			c-3.8,21.7,31.9,6.4,39.6,3.8c16.6-6.4,31.9-14,47.2-20.4c8.9-5.1,19.1-8.9,28.1-15.3c8.9-6.4,16.6-14,26.8-20.4
			c8.9-5.1,20.4-7.7,30.6-10.2c10.2-3.8,17.9-7.7,26.8-12.8c6.4-3.8,12.8-8.9,20.4-10.2c7.7-1.3,14,1.3,21.7,1.3"/>
	</g>
	<g>
		<g>
			<path fill="#708038" d="M359,542.6c-2.6-10.2-11.5-17.9-19.1-24.2c-14-11.5-30.6-19.1-45.9-28.1c-24.2-14-54.9-15.3-82.9-19.1
				c-23-3.8-48.5-7.7-72.7-7.7c-10.2,0-21.7,0-33.2,0c-6.4,0-11.5,1.3-16.6,2.6c-6.4,1.3-12.8,3.8-17.9,3.8
				c2.6-6.4,12.8-12.8,17.9-16.6c6.4-5.1,11.5-11.5,17.9-16.6c14-11.5,31.9-12.8,49.8-11.5c15.3,1.3,30.6,3.8,44.7,6.4
				c14,1.3,28.1,2.6,42.1,5.1c14,3.8,26.8,8.9,40.8,16.6c12.8,6.4,28.1,12.8,39.6,23c5.1,5.1,11.5,11.5,15.3,17.9
				c5.1,6.4,5.1,14,8.9,21.7c3.8,11.5,10.2,23,12.8,34.5"/>
		</g>
		<g>
			<g>
				<path fill="#708038" d="M361.4,542c-4.9-17.3-23.7-29.4-38.3-38.1c-17-10.1-34.6-20.9-53.8-26.1c-20.1-5.4-40.8-6.2-61.3-9.6
					c-21.9-3.6-43.9-6.8-66.1-7.1c-12.3-0.2-24.6-0.3-36.9,0c-5.7,0.1-11,1.2-16.5,2.5c-5.9,1.4-11.9,3.7-18,3.9
					c0.7,1.3,1.4,2.5,2.2,3.8c3.9-8.4,13.5-12.5,20.1-18.3c8.9-7.9,16.1-17,27.5-21.4c22-8.5,48.4-2.8,70.8,1
					c11.8,2,23.6,2.8,35.4,4.3c12.6,1.6,24.2,4.5,36,9.2c11.2,4.5,21.9,10.4,32.7,15.8c9.8,4.9,20,10.1,27.8,18
					c4.7,4.7,9.1,9.5,12.8,15c3.8,5.6,5.1,11.4,7.4,17.7c4.7,12.9,11.3,25.2,14.5,38.5c0.7,3.1,5.6,1.8,4.8-1.3
					c-3.1-13-9.3-25.3-14.2-37.7c-1.9-4.8-2.8-10.1-5.1-14.7c-2.5-5.1-6.4-9.9-10.2-14.2c-7.9-8.9-16.8-15.7-27.2-21.4
					c-10.8-5.8-21.9-11.4-33-16.5c-11.2-5.2-23-9.8-35.2-11.7c-13.8-2.2-27.9-2.7-41.7-5.1c-23.1-4.1-49.3-9.8-72.5-3.2
					c-13,3.7-21.7,12.1-31.1,21.2c-7.5,7.3-19.5,12.4-24.1,22.3c-0.7,1.6,0.1,3.8,2.2,3.8c8.9-0.4,17.5-4.2,26.3-5.7
					c10.8-1.9,22.5-0.7,33.4-0.7c22.1,0,43.7,1.9,65.5,5.2c19.3,3,38.9,4.7,58.2,8.2c9.3,1.7,18.6,4,27.4,7.5
					c9.2,3.7,17.7,9.1,26.3,13.9c10,5.5,20,11.1,29,18.2c8.1,6.4,16.9,13.9,19.9,24.2C357.4,546.4,362.3,545.1,361.4,542L361.4,542z
					"/>
			</g>
		</g>
	</g>
	<g>
		<path fill="#ABAD66" d="M338.4,493c-11.5-17.9-24.2-30.6-45.9-38.3c-24.2-7.7-47.2-15.3-70.2-28.1c-15.3-8.9-30.6-19.1-45.9-26.8
			c-10.2-5.1-20.4-6.4-30.6-8.9c-8.9-1.3-15.3-3.8-24.2-7.7c-11.5-6.4-34.5-16.6-35.7-31.9c-1.3-16.6,33.2-21.7,45.9-16.6
			c12.8,6.4,20.4,17.9,35.7,20.4c16.6,2.6,29.3,8.9,44.7,17.9c15.3,7.7,28.1,15.3,40.8,25.5c6.4,6.4,11.5,12.8,19.1,17.9
			c6.4,3.8,12.8,7.7,17.9,10.2c17.9,10.2,25.5,24.2,33.2,43.4c2.6,6.4,3.8,12.8,8.9,19.1c2.6,2.6,15.3,12.8,12.8,17.9"/>
	</g>
	<g>
		<path fill="#ABAD66" d="M364.1,429.1c-3.8-3.8-2.6-11.5-2.6-16.6c0-8.9,0-17.9-3.8-26.8c-3.8-11.5-7.7-23-12.8-33.2
			c-6.4-17.9-17.9-29.3-30.6-42.1c-24.2-24.2-60-47.2-95.7-34.5c-24.2,7.7-20.4,34.5-14,53.6c6.4,19.1,26.8,30.6,43.4,39.6
			c7.7,3.8,16.6,7.7,24.2,11.5c12.8,5.1,24.2,12.8,35.7,19.1c8.9,3.8,16.6,10.2,24.2,15.3c3.8,3.8,7.7,7.7,12.8,11.5
			c3.8,2.6,8.9,5.1,12.8,8.9c2.6,1.3,7.7,8.9,3.8,11.5"/>
	</g>
	<g>
		<path fill="#879B3C" d="M373.1,520.9c8.9-2.6,19.1-15.3,24.2-21.7c12.8-14,29.3-25.5,40.8-42.1c6.4-7.7,12.8-15.3,19.1-24.2
			c5.1-6.4,7.7-16.6,12.8-24.2c5.1-10.2,8.9-19.1,17.9-28.1c6.4-7.7,11.5-15.3,20.4-20.4c12.8-7.7,33.2-15.3,48.5-11.5
			c12.8,2.6,38.3,11.5,31.9,26.8c-6.4,15.3-23,20.4-37,26.8c-21.7,8.9-40.8,20.4-61.2,33.2c-15.3,10.2-31.9,14-47.2,20.4
			c-31.9,15.3-51,43.4-74,66.4"/>
	</g>
	<g>
		<path fill="#99A558" d="M375.6,390.8c-1.3,1.3-1.3,1.3-1.3,1.3c0-7.7,1.3-16.6,2.6-24.2c0-7.7,0-15.3,0-21.7
			c1.3-8.9,1.3-17.9,2.6-26.8c2.6-19.1,17.9-35.7,29.3-49.8c10.2-15.3,21.7-26.8,26.8-43.4c2.6-6.4,3.8-14,3.8-20.4
			c0-6.4,1.3-25.5,8.9-16.6c5.1,3.8,3.8,12.8,5.1,17.9c0,7.7,1.3,15.3,1.3,21.7c0,10.2,1.3,21.7-1.3,30.6
			c-5.1,17.9-17.9,34.5-28.1,49.8c-11.5,16.6-21.7,34.5-34.5,49.8c-5.1,6.4-8.9,12.8-14,19.1c-6.4,8.9-3.8,20.4-8.9,29.3
			c-1.3,0-1.3,1.3-1.3,1.3"/>
	</g>
	<g>
		<path fill="#879B3C" d="M389.6,324.5c0-6.4,6.4-14,8.9-20.4c3.8-8.9,7.7-19.1,10.2-28.1c3.8-12.8,3.8-26.8,3.8-39.6
			c0-5.1,0-10.2,0-15.3c1.3-8.9,6.4-15.3,8.9-24.2c2.6-8.9,2.6-15.3-6.4-19.1c-7.7-3.8-19.1-3.8-26.8,0
			c-16.6,8.9-15.3,28.1-19.1,43.4c-2.6,15.3-6.4,28.1-2.6,43.4c3.8,14,17.9,23,19.1,37c1.3,11.5-1.3,21.7-1.3,33.2"/>
	</g>
	<g>
		<path fill="#ABAD66" d="M367.7,406.1c1.3-3.8,3.8-6.4,6.4-10.2c2.6-6.4,2.6-12.8,3.8-19.1c2.6-8.9,6.4-17.9,7.7-26.8
			c1.3-15.3-1.3-26.8-7.7-40.8c-7.7-15.3-19.1-25.5-30.6-38.3c-5.1-6.4-14-38.3-26.8-23c-7.7,11.5-6.4,31.9-3.8,44.7
			c3.8,16.6,11.5,31.9,20.4,45.9c7.7,11.5,16.6,25.5,16.6,39.6c0,6.4,0,12.8,2.6,16.6c3.8,5.1,7.7,8.9,10.2,14"/>
	</g>
	<g>
		<path fill="#879B3C" d="M353.9,346.1c-2.6-3.8-2.6-7.7-5.1-10.2c-2.6-3.8-6.4-6.4-10.2-7.7c-7.7-5.1-15.3-8.9-23-12.8
			c-15.3-10.2-28.1-25.5-39.6-40.8c-10.2-14-23-25.5-26.8-44.7c-1.3-6.4-1.3-14-2.6-20.4c-1.3-5.1-5.1-17.9-2.6-23
			c2.6-3.8,15.3-3.8,19.1-2.6c10.2,3.8,19.1,19.1,24.2,26.8c8.9,14,16.6,28.1,25.5,40.8c3.8,6.4,7.7,12.8,11.5,19.1
			c5.1,6.4,8.9,14,12.8,23c6.4,14,10.2,26.8,11.5,42.1c1.3,16.6,11.5,33.2,5.1,48.5"/>
	</g>
	<g>
		<g>
			<path fill="#7D8736" d="M367.9,521c-1.3,0-1.3,0-2.6,0c7.7-3.8,10.2-15.3,11.5-23c1.3-5.1,0-10.2,0-15.3
				c1.3-8.9,11.5-3.8,10.2,2.6c-2.6,8.9-12.8,6.4-11.5-2.6c1.3-12.8,14-2.6,11.5,3.8c-2.6,3.8-5.1,1.3-6.4,2.6
				c-3.8,2.6-1.3,3.8-1.3,7.7c0,6.4-6.4,31.9-15.3,30.6"/>
		</g>
		<g>
			<g>
				<path fill="#7D8736" d="M367.9,519.7c-0.9,0-1.7,0-2.6,0c0.2,0.8,0.4,1.6,0.6,2.3c10.6-6,13.2-22.6,12.4-33.6
					c-0.2-3.3-0.7-11.9,4.9-8.6c4.1,2.4,2.7,9.7-2.3,9.7c-7.6,0-4.4-17.3,2.9-9.5c0.8,0.9,1.6,2,1.9,3.2c0.8,3-1.3,3.3-3.9,4.2
					c-1.6,0.5-2.9,0.7-4,2.3c-1.8,2.8,0.2,7.3-0.3,10.5c-0.8,5-2.2,10.1-4.1,14.8c-1.6,3.9-4.5,11.4-9.6,11c-1.6-0.1-1.6,2.4,0,2.5
					c10.4,0.7,14.6-19.2,15.9-26.4c0.4-2,0.8-4.1,0.6-6.1c-0.1-1.1-0.9-2.7-0.7-3.7c0.6-3.5,2.7-2.1,4.8-2.7
					c5.1-1.4,4.4-7.1,1.9-10.5c-2.1-2.8-6.4-5.5-9.7-2.9c-3.7,2.9-3.7,10.6-0.4,13.8c7.8,7.5,17.6-8.7,7.1-13
					c-2-0.8-4.1-0.7-5.8,0.7c-3,2.6-2.1,7-1.9,10.5c0.7,10-1.5,26-11.2,31.5c-1.1,0.6-0.6,2.3,0.6,2.3c0.9,0,1.7,0,2.6,0
					C369.5,522.2,369.5,519.7,367.9,519.7L367.9,519.7z"/>
			</g>
		</g>
	</g>
	<g>
		<g>
			<path fill="#7D8736" d="M353.9,524.8c-12.8,5.1-20.4-30.6-20.4-38.3c0-2.6,0-12.8,6.4-11.5c7.7,1.3-2.6,16.6-7.7,7.7
				c-2.6-3.8-2.6-14,5.1-10.2c7.7,5.1-2.6,11.5-7.7,6.4c-5.1-5.1,2.6-12.8,6.4-2.6c1.3,2.6,3.8,6.4,2.6,8.9
				c-2.6,1.3-5.1,1.3-6.4-1.3"/>
		</g>
		<g>
			<g>
				<path fill="#7D8736" d="M353.5,523.6c-8.2,2.9-12.9-11.4-14.7-16.9c-2.2-6.6-4.2-13.9-4.2-20.9c0-1.9,0.1-3.8,0.6-5.7
					c0.3-1.1,0.6-2.4,1.6-3.2c1.5-1.2,4-1,4.4,1.1c0.4,1.8-1.6,4.4-2.9,5.3c-2.9,1.9-5-0.2-6-3c-0.6-1.7-1.1-4.8,0.1-6.3
					c2.3-2.9,7.5,1,5.5,3.9c-1.2,1.6-3.5,2-5.3,1.5c-5.6-1.7-2.8-9.8,1-4.9c0.8,1.1,1.3,2.5,1.9,3.7c0.7,1.2,1.3,2.4,1.7,3.7
					c0.5,3.4-0.8,3.9-4,1.5c-0.9-1.3-3.1-0.1-2.2,1.3c1.6,2.3,5.5,4.2,8.1,1.7c2.8-2.8-0.8-8-2.1-10.6c-1.3-2.6-2.9-6.1-6.4-5.6
					c-2.3,0.3-3.9,2.5-4,4.8c-0.3,6.4,8.4,9.2,12.8,5.2c4.9-4.4-2-11.9-7.2-9.3c-5.1,2.5-2.9,12.1,0.8,14.8c4.3,3.2,9.7-1.6,10.6-6
					c1.2-5.5-5.6-8.1-9-3.9c-3.1,3.8-2.7,10.4-2,15c1.2,8.9,7,40.3,21.6,35.2C355.7,525.5,355.1,523,353.5,523.6L353.5,523.6z"/>
			</g>
		</g>
	</g>
	<g>
		<g>
			<path fill="#5F6B32" d="M385.3,580.2c2.6,3.8,1.3,8.9,1.3,12.8c0,7.7,1.3,15.3,1.3,23c0,12.8-12.8,16.6-19.1,25.5
				c-14,19.1-25.5,38.3-29.3,62.5c-3.8,28.1-5.1,58.7,0,85.5c3.8,17.9,7.7,34.5,10.2,52.3c2.6,11.5,2.6,21.7,7.7,33.2
				c3.8,11.5,5.1,21.7,6.4,33.2c0,6.4-1.3,16.6,1.3,21.7c8.9,19.1,29.3-14,31.9-21.7c15.3-34.5,14-68.9,17.9-105.9
				c2.6-34.5-1.3-67.6-6.4-102.1c-3.8-21.7-5.1-42.1-11.5-63.8c-2.6-7.7-5.1-14-7.7-20.4c-2.6-3.8-3.8-7.7-3.8-11.5
				c0-5.1,3.8-8.9,1.3-14"/>
		</g>
		<g opacity="0.1">
			<g>
				<path fill="#B1C254" d="M382.5,628.2c-4.5,2.2-5.7,10.3-6.7,14.5c-2.3,9.2-3.2,18.9-4.6,28.3c-3,19.4-5.1,41.3,1.3,60.2
					c3.4,10.1,7.4,19.9,9.8,30.4c2.5,11.2,4.1,22.5,5.2,33.9c2.2,22.8-0.6,45.8-3,68.5c-0.7,6.8-1.6,13.4-3.2,20
					c-1.4,6-3.1,11.9-4,18c-1.6,12-2.1,22.8-10.2,32.5c-0.5,0.6,0.4,1.5,0.9,0.9c5.4-6.4,8.1-13.5,9.2-21.7c0.7-5,0.9-10,1.9-15
					c1-5.5,2.5-10.8,3.8-16.2c2.4-10.1,3-20.5,4.1-30.8c1.2-11.4,2.2-22.9,2.4-34.4c0.4-21.2-1.9-43.5-7.9-63.9
					c-2.9-9.9-7.8-19.4-9.8-29.4c-2.1-10.8-2.1-22.3-1.5-33.2c0.7-12.6,3.3-24.9,5-37.4c0.6-4.1,1.3-8,2.3-12c0.9-3.6,2-10.2,5.7-12
					C383.8,628.9,383.2,627.8,382.5,628.2L382.5,628.2z"/>
			</g>
		</g>
	</g>
	<g opacity="0.1">
		<g>
			<path fill="#B1C254" d="M148.4,691.3c-1.3,0-2.6,0-3.8,0c0,0.4,0,0.8,0,1.2c7.4-0.2,14.7-2.2,21.9-3.9c8.2-1.9,16.4-3.9,24.5-6.4
				c15.6-4.8,27.7-15.2,42.1-22.4c15.5-7.7,31.8-14,46.3-23.5c6.6-4.3,13.1-8.9,19.8-13c7.2-4.4,14.9-7.8,22.6-11.2
				c4.7-2.1,9.3-4.2,14.1-5.9c4.1-1.5,8.2-3.4,12.5-4.3c2.9-0.6,5.4-1.5,8.2-2.3c2.1-0.6,4.4-0.7,6.5-1.5c0.5-0.2,0.7-1.1,0-1.2
				c0,0-0.1,0-0.1,0c-0.8-0.1-1.1,1.1-0.3,1.2c0,0,0.1,0,0.1,0c0-0.4,0-0.8,0-1.2c-3.4,1.3-7.5,2.1-11.1,3.1
				c-7.4,2-14.4,4.2-21.6,7.2c-15,6.2-29.1,13.2-42.6,22.2c-6.5,4.3-12.9,8.8-19.7,12.5c-7.4,4.1-15.4,7.2-23.1,10.8
				c-7.7,3.7-15.7,7.1-22.8,11.7c-6.9,4.4-13.5,9.5-21,12.9c-8.9,4-18.7,6.2-28.2,8.5c-9.1,2.2-18.7,5.2-28.1,5.4
				c-0.8,0-0.8,1.2,0,1.2c1.3,0,2.6,0,3.8,0C149.2,692.6,149.2,691.3,148.4,691.3L148.4,691.3z"/>
		</g>
	</g>
	<g opacity="0.3">
		<g>
			<path fill="#879B3C" d="M310.6,363.8c15.6,16.5,34.6,30.9,47,50.2c1.5,2.3,2.6,4.7,3.6,7.1c-0.1-3,0.2-6.1,0.2-8.6
				c0-8.9,0-17.9-3.8-26.8c-3.8-11.5-7.7-23-12.8-33.2c-6.4-17.9-17.9-29.3-30.6-42.1c-24.2-24.2-60-47.2-95.7-34.5
				c-4.4,1.4-7.9,3.4-10.6,5.9C237.1,315.1,280.1,331.6,310.6,363.8z"/>
		</g>
	</g>
	<g>
		<g>
			<path fill="#C5C0AE" d="M366.9,547c1.3-6.3,2.6-12.6,5-18.6s6-11.6,11.2-15.4c2.1-1.5,4.5-2.9,5.5-5.3c0.5-1.1,0.4-2.8-0.7-3.2
				c-1.5-0.6-2.6,1.5-3.3,3c-2,4.5-6.7,7.1-11,9.5c-1.6,0.9-3.1,1.8-4.5,3c-5.2,4.5-7.1,12.4-4.5,18.7c2,4.9,6.4,9.4,5.1,14.5"/>
		</g>
		<g>
			<g>
				<path fill="#C5C0AE" d="M367.5,547.2c1.4-6.7,2.8-13.6,5.6-19.9c2.9-6.4,7-10.9,12.5-15.2c1.8-1.4,4.6-3.6,3.9-6.3
					c-0.5-1.9-1.9-2.3-3.5-1.3c-1.9,1.3-2.6,4.6-4.2,6.3c-2,2.2-4.6,3.6-7.2,5.1c-4.2,2.5-7.9,4.8-10.1,9.4
					c-1.6,3.4-2.1,7.5-1.3,11.2c1.3,5.9,7,10.5,5.9,16.8c-0.1,0.8,1.1,1.1,1.2,0.3c1.3-7.9-6.4-13.5-6.2-21.4
					c0.2-6.2,3.9-10.9,9.1-14c3.5-2.1,7.3-3.9,10-7c0.8-0.9,1.5-3.2,2.3-3.8c1-0.7,1.2,1.6,0.8,2.5c-0.5,1.2-2.5,1.8-3.5,2.7
					c-2.9,2.2-5.3,4.8-7.3,7.8c-5.3,7.9-7.3,17.4-9.2,26.5C366.1,547.7,367.3,548,367.5,547.2L367.5,547.2z"/>
			</g>
		</g>
	</g>
	<g>
		<g>
			<path fill="#C5C0AE" d="M365.2,516.4c-1.5-31.5,3.1-63.2,13.5-93c-3.9-1.4-6.9-5.3-7.1-9.5c-6.4,38.4-12.8,77.3-9,116"/>
		</g>
		<g>
			<g>
				<path fill="#C5C0AE" d="M365.9,516.4c-1.4-31.5,3.1-63,13.4-92.8c0.1-0.2,0-0.6-0.3-0.7c-3.9-1.7-6.3-4.9-6.9-9.1
					c-0.1-0.6-1.1-0.6-1.2,0c-6.4,38.4-12.7,77.2-9,116.1c0.1,0.8,1.3,0.8,1.2,0c-3.7-38.9,2.6-77.6,8.9-115.8c-0.4,0-0.8,0-1.2,0
					c0.4,2.9,1.5,5.6,3.8,7.6c1.4,1.2,2.4,1.2,2.8,3.3c0.3,1.7-1.8,5.4-2.3,7.1c-2.8,9.2-5.1,18.5-6.8,27.9
					c-3.4,18.6-4.6,37.6-3.8,56.5C364.7,517.2,365.9,517.2,365.9,516.4L365.9,516.4z"/>
			</g>
		</g>
	</g>
	<g>
		<g>
			<path fill="#C5C0AE" d="M356.6,512.2c1.7-10,3.5-19.9,5.2-29.9c1.3-7.5,2.6-15,3.2-22.6c1-13.9-0.7-27.9-4.9-41.2
				c-0.5-1.6-1.2-3.3-2.7-4c-1.1-0.5-2.5-0.3-3.7,0c-5.2,1-10.4,2-15.6,3.1c6.8-0.6,11.5,6.5,14.3,12.7c2.7,6.1,5.1,12.5,6.1,19.1
				c1.7,10.6,0,21.4-0.4,32.2c-0.6,16.6,2.2,33.1,4.9,49.5"/>
		</g>
		<g>
			<g>
				<path fill="#C5C0AE" d="M357.2,512.3c3.8-22,9.8-44.7,8.5-67.2c-0.5-9-1.5-20-5.4-28.2c-1.2-2.5-2.6-3.5-5.3-3.4
					c-5.5,0.3-11.5,2.2-16.9,3.3c-0.7,0.1-0.5,1.2,0.2,1.2c10.5-0.1,15.1,14.4,17.6,22.4c3.3,10.3,3,20.7,2.3,31.4
					c-1.4,20.1,1.1,39.4,4.4,59.2c0.1,0.8,1.3,0.5,1.2-0.3c-2-12.2-4.1-24.5-4.8-36.9c-0.6-11.8,1.1-23.4,1-35.2
					c-0.1-10.1-2.8-19.6-6.9-28.8c-2.8-6.2-7.2-13.1-14.8-13c0.1,0.4,0.1,0.8,0.2,1.2c4.8-0.9,10.7-3.2,15.6-3.1
					c5,0.1,5,1.8,6.1,5.3c0.7,2.3,1.3,4.7,1.8,7c2.1,9.1,3,18.4,2.7,27.8c-0.6,19-5.3,38.1-8.6,56.8
					C355.9,512.8,357.1,513.1,357.2,512.3L357.2,512.3z"/>
			</g>
		</g>
	</g>
	<g>
		<g>
			<path fill="#C5C0AE" d="M378.5,566.8c-1.4-12.8-7-25-15.7-34.4c-5.9-6.4-13.3-11.5-18.9-18.2c-1.6-1.9-3.2-4-5.2-5.5
				c-5.2-3.8-12.7-3.3-17.6-7.5c6.4,8.4,13.9,16,22.2,22.6c5.9,4.7,12.3,8.9,16.6,15.1c3.8,5.5,5.8,12.1,9.5,17.7
				c3.5,5.1,8.5,9.5,10.1,15.5"/>
		</g>
		<g>
			<g>
				<path fill="#C5C0AE" d="M379.1,566.8c-1.9-15.3-9-28.7-20.3-39.2c-3.2-3-6.6-5.8-9.7-8.8c-3-2.9-5.4-6.2-8.3-9.1
					c-5.4-5.3-13.5-4.6-19.4-9.1c-0.6-0.5-1.1,0.5-0.8,1c5.1,6.5,10.6,12.6,16.8,18.1c5.4,4.8,11.4,8.7,16.7,13.6
					c5.9,5.5,8.6,12.2,12.2,19.2c3.6,6.9,10.2,12.2,12.5,19.7c0.2,0.8,1.4,0.4,1.2-0.3c-2.3-7.2-8.3-12-11.9-18.5
					c-3.6-6.4-5.9-13.2-10.9-18.7c-5.2-5.6-11.8-9.7-17.6-14.7c-6.7-5.8-12.7-12.3-18.1-19.2c-0.3,0.3-0.5,0.7-0.8,1
					c5.6,4.3,13.3,3.7,18.6,8.4c2.8,2.5,5,5.8,7.6,8.4c2.7,2.7,5.6,5.2,8.4,7.7c12.2,10.9,20.4,24.2,22.5,40.7
					C378,567.6,379.2,567.6,379.1,566.8L379.1,566.8z"/>
			</g>
		</g>
	</g>
	<g>
		<g>
			<path fill="#C5C0AE" d="M394.2,606.2c-4.9-5.1-12.1-7.4-19.1-8.3c-7-1-14.1-0.7-21.2-1.6c-12.7-1.6-25.2-6.7-38-5.5
				c7,7.4,21.7,2.9,27.8,11.1c0.8,1.1,1.4,2.4,2.6,3.2c2.8,1.9,6.4-0.2,9.4-1.9c6.6-3.7,14.6-4.9,22.1-3.4c7,1.5,13.5,5.4,20.7,5.5"
				/>
		</g>
		<g>
			<g>
				<path fill="#C5C0AE" d="M394.7,605.7c-9.2-8.8-22-8.9-33.9-9.5c-15.1-0.9-29.5-7.1-44.7-6.1c-0.5,0-0.9,0.7-0.4,1.1
					c4.5,4.3,10.5,4.7,16.4,5.7c3.6,0.6,7.6,1.4,10.3,4.1c1.8,1.8,2.7,4.5,5.4,5.2c3,0.8,6-1.2,8.5-2.5c4.8-2.5,9.9-4,15.3-4
					c9.5,0,17.7,5.6,27.1,6.2c0.8,0,0.8-1.2,0-1.2c-8.3-0.5-15.6-5.1-23.9-6c-7.9-0.8-14.2,1.7-21.2,5c-4.6,2.2-5.8,1.3-9.1-2.2
					c-0.9-0.9-1.5-1.8-2.5-2.5c-1.8-1.3-3.9-2.1-6-2.6c-6.6-1.7-14.1-1.1-19.4-6.1c-0.1,0.4-0.3,0.7-0.4,1.1
					c13.3-0.9,25.8,4.2,38.9,5.6c13.3,1.5,28.3-0.4,38.8,9.6C394.4,607.2,395.2,606.3,394.7,605.7L394.7,605.7z"/>
			</g>
		</g>
	</g>
	<g>
		<g>
			<path fill="#C5C0AE" d="M387.2,588c-0.9,10.4-1.8,20.7-2.7,31.1c-0.2,2.1-0.4,4.2-1.2,6.1c-2.7,6-11.3,8.2-12.6,14.7
				c4.5-0.5,8.6-3,13-4c4.4-1,10.1,0.2,11.7,4.5c2.5-4,1.5-9.3-0.7-13.5c-2.2-4.2-5.4-7.8-7.4-12.1c-5.2-11-1.4-24-2.6-36.1
				c-0.3-2.7-0.9-5.7-3-7.4"/>
		</g>
		<g>
			<g>
				<path fill="#C5C0AE" d="M386.5,588c-0.5,5.8-1,11.7-1.5,17.5c-0.5,5.8-0.2,12.5-1.9,18.1c-2.2,7.1-11.1,8.9-13.1,16.1
					c-0.1,0.5,0.3,0.8,0.8,0.8c6.9-1.2,19.3-9.3,24,0.2c0.2,0.4,0.9,0.4,1.1,0c6-11.8-8-21.7-10.2-32.6c-1.5-7.4-0.4-15-0.3-22.5
					c0.1-5,0.4-11-3.4-14.8c-0.6-0.6-1.5,0.3-0.9,0.9c5.4,5.5,2.8,17.5,2.6,24.5c-0.2,5.8,0,11.8,2.2,17.3c2.7,6.8,9,12,10,19.5
					c0.2,1.6,0.5,5.9-0.9,5.5c-0.2,0-1.4-1.5-1.4-1.5c-1.4-1.1-3.1-1.6-4.8-1.9c-2.3-0.4-4.6,0-6.9,0.6c-1,0.3-9.2,3.9-9.7,3.3
					c-1.7-2.1,9.1-9.6,10.4-11.4c3-4,2.7-9.6,3.1-14.3c0.7-8.4,1.5-16.8,2.2-25.2C387.8,587.2,386.6,587.2,386.5,588L386.5,588z"/>
			</g>
		</g>
	</g>
	<g opacity="0.41">
		<g>
			<path fill="#889936" d="M454.7,229.8c0-6.4-1.3-14-1.3-21.7c-1.3-5.1,0-14-5.1-17.9c-3-3.5-5-2.7-6.3-0.1
				c10.5,32.1,7.4,67.7-12.7,96.6c-9.4,13.4-21.3,24.1-30.8,37.1c-2.8,6.1-5.6,12.1-8.7,18c-3.6,6.6-7.1,13.4-9.9,20.4
				c-1.9,6-3.2,12.1-3.8,18.2c0.3-0.5,0.6-1,0.9-1.4c5.1-6.4,8.9-12.8,14-19.1c12.8-15.3,23-33.2,34.5-49.8
				c10.2-15.3,23-31.9,28.1-49.8C456,251.5,454.7,240,454.7,229.8z"/>
		</g>
	</g>
	<g opacity="0.21">
		<g>
			<path fill="#708038" d="M410.4,232.3c-0.7,1.7-1.7,3.1-2.9,4.1c0.3,5.2,2.4,12.4,2.2,15.6c-0.5,6.8-3.8,13.8-10.2,16.8
				c-13.2,6.1-21.4-9.6-24.2-20c-3.7-14-0.1-30.4,4.4-43.8c1.7-5,7-17.5,7-26.3c-15,9.3-14,27.7-17.7,42.5
				c-2.6,15.3-6.4,28.1-2.6,43.4c3.8,14,17.9,23,19.1,37c1.3,11.5-1.3,21.7-1.3,33.2l5.1-10.2c0-6.4,6.4-14,8.9-20.4
				c3.8-8.9,7.7-19.1,10.2-28.1c3.8-12.8,3.8-26.8,3.8-39.6v-7.9C411.7,229.7,411,231,410.4,232.3z"/>
		</g>
	</g>
	<g opacity="0.3">
		<g>
			<path fill="#708038" d="M281.4,233.8c13.6,17.9,28.1,35.1,41.3,53.3c6.8,9.5,13.2,19.2,18.8,29.5c2.2,4.1,4,8.6,6.3,12.6
				c-1.8-12.1-5.3-23-10.6-34.7c-3.8-8.9-7.7-16.6-12.8-23c-3.8-6.4-7.7-12.8-11.5-19.1c-8.9-12.8-16.6-26.8-25.5-40.8
				c-5.1-7.7-14-23-24.2-26.8c-3.8-1.3-16.6-1.3-19.1,2.6c-0.3,0.6-0.5,1.4-0.7,2.2C257.7,202.7,269.6,218.3,281.4,233.8z"/>
		</g>
	</g>
	<g opacity="0.25">
		<g>
			<path fill="#879B3C" d="M356.1,396.6c1.8,2.4,3.6,4.5,5.2,6.6c0.3-2.5,0.6-4.9,0.9-7.4c2.1-18.6,7-38.7,4-57.5
				c-3.1-20-17.7-39-29-55.1c-7.6-10.9-14.9-21.6-16.3-33.9c-0.2,0.2-0.4,0.4-0.5,0.6c-7.7,11.5-6.4,31.9-3.8,44.7
				c3.8,16.6,11.5,31.9,20.4,45.9c7.7,11.5,16.6,25.5,16.6,39.6C353.6,386.4,353.6,392.8,356.1,396.6z"/>
		</g>
	</g>
	<g opacity="0.3">
		<g>
			<path fill="#879B3C" d="M266.3,430.3c-6.3-3.3-12.5-6.4-18.3-10.6c-6.3-4.6-11.8-9.9-18.5-14.1c-26.9-17-58.3-20.2-87.1-32.6
				c-13.3-5.7-26.3-12.1-39.4-18.1c-5.2-2.4-10.4-5-15-8.2c-0.9,1.7-1.3,3.6-1.1,5.7c1.3,15.3,24.2,25.5,35.7,31.9
				c8.9,3.8,15.3,6.4,24.2,7.7c10.2,2.6,20.4,3.8,30.6,8.9c15.3,7.7,30.6,17.9,45.9,26.8c23,12.8,45.9,20.4,70.2,28.1
				c1.7,0.6,3.4,1.3,5,2C289.3,446.5,279.5,437.3,266.3,430.3z"/>
		</g>
	</g>
	<g>
		<path fill="#677B35" d="M351.4,535.2c-2-4.7-4-9.4-5.5-14c-0.8-1.6-1.4-3.2-2-4.7c-3.7-4.2-7.8-8-12.2-11.6
			c-6.7-5.3-12.9-11.1-19.3-16.7c-8.4-2.4-17.1-4-24.7-5.6c-9.7-1.9-19.4-3.5-29.1-5.4c-14.4-2.9-28.8-3.5-43.3-5.2
			c-28.3-3.4-54.5-19.2-83.3-18.3c-19.4,0.6-36.9,8.8-52.7,19.6c2.4-0.7,5-1.4,7.5-1.9c5.1-1.3,10.2-2.6,16.6-2.6h33.2
			c24.2,0,49.8,3.8,72.7,7.7c28.1,3.8,58.7,5.1,82.9,19.1c15.3,8.9,31.9,16.6,45.9,28.1c4.5,3.7,9.4,7.9,13.2,12.8
			C351.4,536,351.4,535.6,351.4,535.2z"/>
	</g>
</g>
</svg>
