<?xml version="1.0" encoding="utf-8"?>
<!-- Generator: Adobe Illustrator 18.0.0, SVG Export Plug-In . SVG Version: 6.00 Build 0)  -->
<!DOCTYPE svg PUBLIC "-//W3C//DTD SVG 1.1//EN" "http://www.w3.org/Graphics/SVG/1.1/DTD/svg11.dtd" [
	<!ENTITY ns_flows "http://ns.adobe.com/Flows/1.0/">
	<!ENTITY ns_extend "http://ns.adobe.com/Extensibility/1.0/">
	<!ENTITY ns_ai "http://ns.adobe.com/AdobeIllustrator/10.0/">
	<!ENTITY ns_graphs "http://ns.adobe.com/Graphs/1.0/">
]>
<svg version="1.1" id="Capa_1" xmlns:x="&ns_extend;" xmlns:i="&ns_ai;" xmlns:graph="&ns_graphs;"
	 xmlns="http://www.w3.org/2000/svg" xmlns:xlink="http://www.w3.org/1999/xlink" xmlns:a="http://ns.adobe.com/AdobeSVGViewerExtensions/3.0/"
	 x="0px" y="0px" viewBox="0 0 749 1334" enable-background="new 0 0 749 1334" xml:space="preserve">
<g>
	<path fill="#FFFFFF" d="M398.7,1176.4l20-81.8h17.2V1214h-16.5v-67l-14.7,67H393l-15.2-67v67h-16.7v-119.4h17.2L398.7,1176.4z"/>
	<path fill="#FFFFFF" d="M500,1190.9c0,16.7-8.3,25.1-24.8,25.1c-16.5,0-24.7-8.4-24.7-25.1v-73c0-16.7,8.2-25.1,24.7-25.1
		c16.5,0,24.8,8.4,24.8,25.1V1190.9z M482.8,1117.8c0-5.4-2.5-8.1-7.5-8.1h-0.1c-5,0-7.4,2.7-7.4,8.1v73c0,5.4,2.5,8.1,7.5,8.1
		c5,0,7.5-2.7,7.5-8.1V1117.8z"/>
	<path fill="#FFFFFF" d="M562.9,1190.9c0,16.7-8.3,25.1-24.8,25.1c-16.5,0-24.7-8.4-24.7-25.1v-73c0-16.7,8.2-25.1,24.7-25.1
		c16.5,0,24.8,8.4,24.8,25.1v16.1h-17.2v-16.1c0-5.4-2.5-8.1-7.5-8.1h-0.1c-5,0-7.4,2.7-7.4,8.1v73c0,5.4,2.5,8.1,7.5,8.1
		c5,0,7.5-2.7,7.5-8.1v-16.1h17.2V1190.9z"/>
	<path fill="#FFFFFF" d="M626.1,1171.7l5.6,42.4h-17.4l-3.3-25.3h-17.6L590,1214h-17.3l5.6-42.2l12.2-77.2H614L626.1,1171.7z
		 M601.7,1090h-9.6l8.6-15.4h13.5L601.7,1090z M608.7,1171.7l-6.6-49.7l-6.6,49.7H608.7z"/>
	<path fill="#FFFFFF" d="M640.9,1094.6h17.2l16.3,69.3v-69.3h15.9V1214h-17.2l-15.7-67.1v67.1h-16.6V1094.6z"/>
</g>
<g>
	<path fill="#FFFFFF" d="M288.7,1273.4c-0.1,0.2-0.2,0.3-0.4,0.4s-0.3,0.2-0.5,0.3s-0.5,0.1-0.8,0.1s-0.7,0-1.2,0
		c-0.5,0-0.9,0-1.2,0s-0.6-0.1-0.8-0.1s-0.3-0.2-0.4-0.3s-0.1-0.3-0.2-0.4l-4.3-28.4c0-0.3-0.1-0.5-0.1-0.7s0.1-0.3,0.2-0.4
		s0.3-0.2,0.6-0.2s0.7,0,1.1,0c0.5,0,0.8,0,1.1,0s0.5,0.1,0.6,0.1s0.3,0.1,0.3,0.3s0.1,0.2,0.1,0.4l3.5,25.5h0l13.5-25.5
		c0.1-0.2,0.2-0.3,0.3-0.4s0.2-0.2,0.4-0.2s0.4-0.1,0.7-0.1s0.7,0,1.1,0c0.5,0,0.9,0,1.1,0.1s0.5,0.1,0.6,0.2s0.1,0.3,0.1,0.5
		s-0.2,0.5-0.4,0.8L288.7,1273.4z"/>
	<path fill="#FFFFFF" d="M310.1,1273.6c0,0.1-0.1,0.2-0.2,0.3s-0.2,0.2-0.4,0.2s-0.4,0.1-0.7,0.1s-0.6,0.1-1,0.1c-0.4,0-0.7,0-1-0.1
		s-0.4-0.1-0.6-0.1s-0.2-0.1-0.3-0.2s-0.1-0.2,0-0.3l5.8-29.2c0-0.1,0.1-0.2,0.2-0.3s0.2-0.2,0.4-0.2s0.4-0.1,0.6-0.1
		s0.6-0.1,0.9-0.1s0.7,0,0.9,0.1s0.4,0.1,0.6,0.1s0.2,0.1,0.3,0.2s0.1,0.2,0,0.3L310.1,1273.6z"/>
	<path fill="#FFFFFF" d="M340.2,1246.1c0,0.1,0,0.3,0,0.4s0,0.3-0.1,0.5s-0.1,0.4-0.1,0.6s-0.1,0.4-0.2,0.5s-0.2,0.3-0.3,0.4
		s-0.2,0.1-0.3,0.1c-0.2,0-0.4-0.1-0.7-0.3s-0.7-0.4-1.2-0.6s-1-0.4-1.7-0.6s-1.4-0.3-2.3-0.3c-1,0-1.8,0.1-2.5,0.4
		s-1.3,0.7-1.8,1.2s-0.8,1.1-1.1,1.7s-0.4,1.3-0.4,1.9c0,0.7,0.2,1.3,0.5,1.8s0.7,1,1.2,1.4s1.1,0.8,1.7,1.2s1.3,0.8,1.9,1.1
		s1.3,0.8,1.9,1.3s1.2,1,1.7,1.5s0.9,1.3,1.2,2s0.5,1.6,0.5,2.6c0,1.3-0.3,2.6-0.8,3.7s-1.3,2.2-2.3,3s-2.2,1.6-3.6,2.1
		s-3,0.8-4.8,0.8c-1,0-1.8-0.1-2.7-0.2s-1.6-0.4-2.2-0.6s-1.2-0.5-1.7-0.8s-0.8-0.5-1-0.7s-0.3-0.5-0.3-0.9c0-0.1,0-0.2,0-0.4
		s0.1-0.4,0.1-0.6s0.1-0.4,0.2-0.6s0.1-0.4,0.2-0.5s0.2-0.3,0.3-0.4s0.2-0.2,0.4-0.2c0.2,0,0.6,0.1,0.9,0.4s0.8,0.5,1.4,0.8
		s1.2,0.6,2,0.8s1.7,0.4,2.7,0.4c1.1,0,2.1-0.2,2.9-0.5s1.6-0.7,2.2-1.2s1-1.1,1.3-1.8s0.5-1.5,0.5-2.2c0-0.7-0.1-1.3-0.4-1.8
		s-0.7-1-1.2-1.4s-1-0.8-1.7-1.2s-1.3-0.7-1.9-1.1s-1.3-0.8-1.9-1.3s-1.2-1-1.7-1.5s-0.9-1.3-1.2-2s-0.5-1.6-0.5-2.7
		c0-1.2,0.2-2.4,0.7-3.5s1.2-2,2.1-2.8s2-1.5,3.2-1.9s2.7-0.7,4.2-0.7c0.8,0,1.5,0.1,2.1,0.2s1.3,0.3,1.8,0.5s1,0.4,1.4,0.6
		s0.7,0.4,0.8,0.5s0.2,0.3,0.3,0.4S340.2,1245.9,340.2,1246.1z"/>
	<path fill="#FFFFFF" d="M367.7,1272.5c0,0.3-0.1,0.6-0.3,0.8s-0.3,0.4-0.5,0.5s-0.4,0.2-0.6,0.3s-0.4,0.1-0.6,0.1h-1.5
		c-0.4,0-0.8,0-1-0.1s-0.5-0.3-0.7-0.5s-0.4-0.5-0.6-0.9s-0.3-0.8-0.5-1.4l-5.7-16.2c-0.4-1.2-0.8-2.3-1.2-3.5s-0.8-2.3-1.1-3.5h0
		c-0.2,1.3-0.4,2.6-0.7,3.8s-0.5,2.5-0.7,3.8l-3.5,17.7c0,0.1-0.1,0.2-0.2,0.3s-0.2,0.2-0.4,0.2s-0.4,0.1-0.6,0.1s-0.6,0.1-0.9,0.1
		s-0.7,0-0.9-0.1s-0.4-0.1-0.6-0.1s-0.2-0.1-0.2-0.2s0-0.2,0-0.3l5.6-28c0.1-0.6,0.4-1.1,0.8-1.3s0.8-0.4,1.2-0.4h1.9
		c0.4,0,0.7,0,1,0.1s0.5,0.2,0.7,0.4s0.4,0.5,0.5,0.8s0.3,0.7,0.5,1.2l5.7,16.4c0.4,1,0.7,2,1.1,3s0.7,2,1,3.1h0
		c0.2-1.3,0.5-2.6,0.7-4s0.5-2.7,0.8-4l3.3-16.4c0-0.1,0.1-0.2,0.2-0.3s0.2-0.2,0.4-0.2s0.4-0.1,0.6-0.1s0.6,0,0.9,0
		c0.4,0,0.7,0,0.9,0s0.4,0.1,0.6,0.1s0.2,0.1,0.3,0.2s0.1,0.2,0,0.3L367.7,1272.5z"/>
	<path fill="#FFFFFF" d="M400.3,1244.6c0,0.1,0,0.2,0,0.4s0,0.3-0.1,0.5s-0.1,0.4-0.1,0.6s-0.1,0.4-0.2,0.6s-0.2,0.3-0.3,0.4
		s-0.3,0.2-0.4,0.2h-11.8l-1.9,9.5h10.2c0.2,0,0.3,0.1,0.4,0.2s0.1,0.3,0.1,0.6c0,0.1,0,0.2,0,0.4s-0.1,0.3-0.1,0.5
		s-0.1,0.4-0.1,0.6s-0.1,0.4-0.2,0.5s-0.2,0.3-0.3,0.4s-0.3,0.2-0.4,0.2h-10.2l-2.2,10.9h12.1c0.2,0,0.3,0.1,0.4,0.2
		s0.2,0.3,0.2,0.6c0,0.1,0,0.2,0,0.4s0,0.4-0.1,0.5s-0.1,0.4-0.1,0.6s-0.1,0.4-0.2,0.5s-0.2,0.3-0.3,0.4s-0.3,0.1-0.4,0.1h-14.6
		c-0.2,0-0.3,0-0.5-0.1s-0.3-0.1-0.4-0.3s-0.2-0.3-0.2-0.5s0-0.5,0-0.8l5.4-27c0.1-0.6,0.4-1,0.7-1.3s0.7-0.4,1.1-0.4h14.4
		C400.2,1243.8,400.3,1244.1,400.3,1244.6z"/>
	<path fill="#FFFFFF" d="M426.2,1272.7c0,0.3,0.1,0.6,0,0.8s-0.1,0.4-0.3,0.5s-0.4,0.2-0.7,0.2s-0.7,0-1.3,0c-0.3,0-0.6,0-0.9,0
		s-0.4-0.1-0.6-0.1s-0.2-0.1-0.3-0.2s-0.1-0.2-0.1-0.4l-1.1-7.4h-12.6l-4,7.3c-0.1,0.2-0.2,0.3-0.3,0.4s-0.2,0.2-0.4,0.2
		s-0.4,0.1-0.7,0.1s-0.6,0-1.1,0c-0.5,0-0.8,0-1.1-0.1s-0.5-0.1-0.6-0.2s-0.1-0.3-0.1-0.5s0.2-0.5,0.3-0.8l15.8-28.2
		c0.1-0.2,0.2-0.3,0.4-0.4s0.3-0.2,0.5-0.3s0.5-0.1,0.8-0.1s0.7,0,1.1,0c0.5,0,0.9,0,1.3,0s0.6,0.1,0.8,0.1s0.3,0.2,0.4,0.3
		s0.1,0.3,0.2,0.4L426.2,1272.7z M418.3,1247.9L418.3,1247.9l-8.2,15.1h10.5L418.3,1247.9z"/>
	<path fill="#FFFFFF" d="M479.7,1273.6c0,0.1-0.1,0.2-0.2,0.3s-0.2,0.2-0.4,0.2s-0.4,0.1-0.6,0.1s-0.6,0.1-1,0.1
		c-0.4,0-0.7,0-0.9-0.1s-0.4-0.1-0.6-0.1s-0.2-0.1-0.3-0.2s0-0.2,0-0.3l5.3-26.4h0l-16.1,26.5c-0.1,0.2-0.4,0.4-0.7,0.5
		s-0.8,0.2-1.4,0.2c-0.6,0-1.1-0.1-1.4-0.2s-0.4-0.3-0.4-0.5l-5-26.5h0l-5.3,26.4c0,0.1-0.1,0.2-0.2,0.3s-0.2,0.2-0.4,0.2
		s-0.4,0.1-0.6,0.1s-0.6,0.1-1,0.1c-0.4,0-0.7,0-0.9-0.1s-0.4-0.1-0.6-0.1s-0.2-0.1-0.3-0.2s0-0.2,0-0.3l5.6-27.9
		c0.1-0.3,0.2-0.6,0.3-0.8s0.3-0.4,0.5-0.6s0.4-0.3,0.6-0.3s0.4-0.1,0.6-0.1h2.3c0.5,0,0.9,0.1,1.3,0.2s0.6,0.3,0.8,0.5
		s0.4,0.5,0.5,0.8s0.2,0.7,0.3,1.1l4.4,21.9h0.1l13.5-21.9c0.2-0.4,0.5-0.8,0.7-1.1s0.5-0.6,0.8-0.8s0.6-0.4,1-0.5s0.7-0.2,1.2-0.2
		h2.7c0.2,0,0.4,0,0.6,0.1s0.3,0.2,0.5,0.3s0.2,0.3,0.3,0.6s0,0.5,0,0.8L479.7,1273.6z"/>
	<path fill="#FFFFFF" d="M518.6,1254c0,1.2-0.1,2.5-0.3,4s-0.6,3-1.1,4.5s-1.2,3-2.1,4.5s-1.9,2.7-3.2,3.8s-2.7,2-4.5,2.7
		s-3.7,1-5.9,1c-1.8,0-3.3-0.2-4.7-0.7s-2.5-1.1-3.4-2s-1.6-2-2-3.3s-0.7-2.8-0.7-4.5c0-1.3,0.1-2.8,0.4-4.3s0.6-3.1,1.2-4.6
		s1.2-3,2.1-4.4s1.9-2.7,3.2-3.8s2.7-2,4.4-2.6s3.6-1,5.8-1c1.8,0,3.3,0.2,4.7,0.7s2.5,1.1,3.4,2s1.6,2,2,3.3
		S518.6,1252.3,518.6,1254z M514.3,1254.3c0-1.1-0.1-2.1-0.4-3s-0.6-1.7-1.2-2.4s-1.3-1.2-2.2-1.5s-2-0.6-3.3-0.6
		c-1.6,0-3.1,0.3-4.3,0.9s-2.3,1.4-3.2,2.4s-1.6,2.1-2.2,3.3s-1.1,2.5-1.4,3.7s-0.6,2.5-0.8,3.6s-0.2,2.2-0.2,3c0,1.1,0.1,2.1,0.4,3
		s0.6,1.7,1.2,2.3s1.3,1.1,2.2,1.5s2,0.5,3.3,0.5c1.6,0,3-0.3,4.2-0.9s2.3-1.4,3.2-2.3s1.6-2,2.2-3.2s1.1-2.4,1.4-3.7
		s0.6-2.4,0.8-3.6S514.3,1255.2,514.3,1254.3z"/>
	<path fill="#FFFFFF" d="M548.8,1246.9c0,0.3-0.1,0.7-0.2,1.2s-0.3,0.9-0.4,1.1s-0.4,0.4-0.6,0.4c-0.2,0-0.5-0.1-0.8-0.4
		s-0.7-0.6-1.2-0.9s-1.1-0.6-1.9-0.9s-1.8-0.4-3-0.4c-1.3,0-2.5,0.2-3.6,0.7s-2.1,1.2-2.9,2s-1.6,1.8-2.3,2.9s-1.2,2.2-1.6,3.4
		s-0.8,2.4-1,3.6s-0.3,2.4-0.3,3.5c0,1.2,0.2,2.4,0.5,3.3s0.8,1.8,1.4,2.5s1.3,1.2,2.2,1.5s1.8,0.5,2.9,0.5c1.2,0,2.3-0.1,3.2-0.4
		s1.6-0.6,2.3-0.9s1.2-0.6,1.6-0.9s0.8-0.4,1-0.4c0.2,0,0.3,0.1,0.4,0.2s0.1,0.3,0.1,0.6c0,0.1,0,0.2,0,0.3s-0.1,0.3-0.1,0.5
		s-0.1,0.4-0.1,0.6s-0.1,0.4-0.2,0.6s-0.1,0.3-0.2,0.5s-0.2,0.3-0.4,0.5s-0.5,0.4-1,0.7s-1.2,0.6-1.9,0.9s-1.6,0.5-2.6,0.7
		s-1.9,0.3-3,0.3c-1.6,0-3-0.2-4.3-0.7s-2.4-1.2-3.3-2.1s-1.6-2.1-2.1-3.5s-0.7-3-0.7-4.8c0-1.5,0.2-3,0.5-4.6s0.8-3.1,1.4-4.6
		s1.4-2.9,2.3-4.2s2-2.5,3.2-3.5s2.6-1.8,4.1-2.3s3.2-0.9,5-0.9c1.1,0,2.2,0.1,3.2,0.4s1.8,0.6,2.5,1s1.2,0.7,1.5,1
		S548.8,1246.5,548.8,1246.9z"/>
	<path fill="#FFFFFF" d="M574.3,1272.7c0,0.3,0.1,0.6,0,0.8s-0.1,0.4-0.3,0.5s-0.4,0.2-0.7,0.2s-0.7,0-1.3,0c-0.3,0-0.6,0-0.9,0
		s-0.4-0.1-0.6-0.1s-0.2-0.1-0.3-0.2s-0.1-0.2-0.1-0.4l-1.1-7.4h-12.6l-4,7.3c-0.1,0.2-0.2,0.3-0.3,0.4s-0.2,0.2-0.4,0.2
		s-0.4,0.1-0.7,0.1s-0.6,0-1.1,0c-0.5,0-0.8,0-1.1-0.1s-0.5-0.1-0.6-0.2s-0.1-0.3-0.1-0.5s0.2-0.5,0.3-0.8l15.8-28.2
		c0.1-0.2,0.2-0.3,0.4-0.4s0.3-0.2,0.5-0.3s0.5-0.1,0.8-0.1s0.7,0,1.1,0c0.5,0,0.9,0,1.3,0s0.6,0.1,0.8,0.1s0.3,0.2,0.4,0.3
		s0.1,0.3,0.2,0.4L574.3,1272.7z M566.4,1247.9L566.4,1247.9l-8.2,15.1h10.5L566.4,1247.9z"/>
	<path fill="#FFFFFF" d="M604.7,1272.5c0,0.3-0.1,0.6-0.3,0.8s-0.3,0.4-0.5,0.5s-0.4,0.2-0.6,0.3s-0.4,0.1-0.6,0.1h-1.5
		c-0.4,0-0.8,0-1-0.1s-0.5-0.3-0.7-0.5s-0.4-0.5-0.6-0.9s-0.3-0.8-0.5-1.4l-5.7-16.2c-0.4-1.2-0.8-2.3-1.2-3.5s-0.8-2.3-1.1-3.5h0
		c-0.2,1.3-0.4,2.6-0.7,3.8s-0.5,2.5-0.7,3.8l-3.5,17.7c0,0.1-0.1,0.2-0.2,0.3s-0.2,0.2-0.4,0.2s-0.4,0.1-0.6,0.1s-0.6,0.1-0.9,0.1
		s-0.7,0-0.9-0.1s-0.4-0.1-0.6-0.1s-0.2-0.1-0.2-0.2s0-0.2,0-0.3l5.6-28c0.1-0.6,0.4-1.1,0.8-1.3s0.8-0.4,1.2-0.4h1.9
		c0.4,0,0.7,0,1,0.1s0.5,0.2,0.7,0.4s0.4,0.5,0.5,0.8s0.3,0.7,0.5,1.2l5.7,16.4c0.4,1,0.7,2,1.1,3s0.7,2,1,3.1h0
		c0.2-1.3,0.5-2.6,0.7-4s0.5-2.7,0.8-4l3.3-16.4c0-0.1,0.1-0.2,0.2-0.3s0.2-0.2,0.4-0.2s0.4-0.1,0.6-0.1s0.6,0,0.9,0
		c0.4,0,0.7,0,0.9,0s0.4,0.1,0.6,0.1s0.2,0.1,0.3,0.2s0.1,0.2,0,0.3L604.7,1272.5z"/>
	<path fill="#FFFFFF" d="M637.3,1244.6c0,0.1,0,0.2,0,0.4s0,0.3-0.1,0.5s-0.1,0.4-0.1,0.6s-0.1,0.4-0.2,0.6s-0.2,0.3-0.3,0.4
		s-0.3,0.2-0.4,0.2h-11.8l-1.9,9.5h10.2c0.2,0,0.3,0.1,0.4,0.2s0.1,0.3,0.1,0.6c0,0.1,0,0.2,0,0.4s-0.1,0.3-0.1,0.5
		s-0.1,0.4-0.1,0.6s-0.1,0.4-0.2,0.5s-0.2,0.3-0.3,0.4s-0.3,0.2-0.4,0.2h-10.2l-2.2,10.9h12.1c0.2,0,0.3,0.1,0.4,0.2
		s0.2,0.3,0.2,0.6c0,0.1,0,0.2,0,0.4s0,0.4-0.1,0.5s-0.1,0.4-0.1,0.6s-0.1,0.4-0.2,0.5s-0.2,0.3-0.3,0.4s-0.3,0.1-0.4,0.1h-14.6
		c-0.2,0-0.3,0-0.5-0.1s-0.3-0.1-0.4-0.3s-0.2-0.3-0.2-0.5s0-0.5,0-0.8l5.4-27c0.1-0.6,0.4-1,0.7-1.3s0.7-0.4,1.1-0.4h14.4
		C637.2,1243.8,637.3,1244.1,637.3,1244.6z"/>
	<path fill="#FFFFFF" d="M663.7,1250.2c0,1.1-0.2,2.1-0.5,3.1s-0.8,1.9-1.4,2.7s-1.4,1.5-2.3,2.2s-2,1.1-3.2,1.5
		c0.8,0.3,1.5,0.9,2,1.9s0.9,2.2,1.2,3.8l1.2,6.7c0,0.3,0.1,0.6,0.1,0.8s0.1,0.5,0.1,0.7c0,0.1,0,0.3-0.1,0.4s-0.2,0.2-0.4,0.2
		s-0.4,0.1-0.7,0.1s-0.7,0-1.1,0c-0.4,0-0.7,0-1,0s-0.4-0.1-0.6-0.2s-0.2-0.2-0.3-0.3s-0.1-0.3-0.1-0.5l-1.2-7.1
		c-0.1-0.8-0.3-1.6-0.5-2.2s-0.5-1.3-0.9-1.7s-0.9-0.9-1.6-1.1s-1.4-0.4-2.3-0.4h-2.7l-2.6,12.9c0,0.1-0.1,0.2-0.2,0.3
		s-0.2,0.2-0.4,0.2s-0.4,0.1-0.7,0.1s-0.6,0.1-1,0.1c-0.4,0-0.7,0-0.9,0s-0.5-0.1-0.6-0.1s-0.2-0.1-0.3-0.2s-0.1-0.2,0-0.3l5.6-28.1
		c0.1-0.6,0.4-1,0.8-1.3s0.8-0.4,1.2-0.4h6.6c1.4,0,2.7,0.1,3.8,0.4s2,0.7,2.7,1.2s1.3,1.2,1.7,2S663.7,1249.2,663.7,1250.2z
		 M659.4,1250.8c0-0.5-0.1-1-0.3-1.5s-0.5-0.8-0.9-1.2s-0.9-0.6-1.6-0.8s-1.4-0.3-2.3-0.3h-4.2l-2.1,10.2h3.6c1.4,0,2.6-0.2,3.6-0.6
		s1.8-0.9,2.4-1.5s1.1-1.3,1.4-2.1S659.4,1251.6,659.4,1250.8z"/>
	<path fill="#FFFFFF" d="M692.1,1272.7c0,0.3,0.1,0.6,0,0.8s-0.1,0.4-0.3,0.5s-0.4,0.2-0.7,0.2s-0.7,0-1.3,0c-0.3,0-0.6,0-0.9,0
		s-0.4-0.1-0.6-0.1s-0.2-0.1-0.3-0.2s-0.1-0.2-0.1-0.4l-1.1-7.4h-12.6l-4,7.3c-0.1,0.2-0.2,0.3-0.3,0.4s-0.2,0.2-0.4,0.2
		s-0.4,0.1-0.7,0.1s-0.6,0-1.1,0c-0.5,0-0.8,0-1.1-0.1s-0.5-0.1-0.6-0.2s-0.1-0.3-0.1-0.5s0.2-0.5,0.3-0.8l15.8-28.2
		c0.1-0.2,0.2-0.3,0.4-0.4s0.3-0.2,0.5-0.3s0.5-0.1,0.8-0.1s0.7,0,1.1,0c0.5,0,0.9,0,1.3,0s0.6,0.1,0.8,0.1s0.3,0.2,0.4,0.3
		s0.1,0.3,0.2,0.4L692.1,1272.7z M684.2,1247.9L684.2,1247.9L676,1263h10.5L684.2,1247.9z"/>
</g>
<g>
	<g>
		<g>
			<path fill="#74803F" d="M478.1,343.4c-2.1,1.5-4.3,2.9-6.6,4.1c-11.9,6-26.2,5.7-38.2,11.5c-7.9,3.8-14.4,10-20.8,16.2
				c-7,6.8-14,13.6-21,20.4c-9.4,9.2-18.9,18.7-24.9,30.4c-10,19.5-9.1,42.7-7.3,64.6c0.9,10.3,1.9,20.7,3.7,30.9
				c1.9,10.1,4.5,20.9,0,30.1c25-28.9,31.9-68.6,40.2-105.9c2.4-10.6,4.9-21.3,9.5-31.1c4.5-9.5,10.7-18.1,16.9-26.6
				c8.8-12,17.8-24.2,29.9-32.8c5.9-4.2,12.6-7.5,18.7-11.5C478.2,343.6,478.1,343.5,478.1,343.4z"/>
		</g>
		<g opacity="0.44">
			<g>
				<path fill="#6E7D3F" d="M428.3,385.7c-7.1,2.7-13.3,6.2-19.5,10.5c-16.2,11-30.1,24.5-39.7,41.8c-4.1,7.5-7.5,15.8-7.5,24.5
					c0,8.8,3,17.1,6.8,24.9c5.3,10.8,11.7,21,14.1,32.6c10.1-23.2,15.1-49.2,20.6-74.2c2.4-10.6,4.9-21.3,9.5-31.1
					c4.5-9.5,10.7-18.1,16.9-26.6c0.9-1.3,1.9-2.6,2.8-3.8C431,384.7,429.7,385.2,428.3,385.7z"/>
			</g>
		</g>
	</g>
	<g>
		<path fill="#BAAE80" d="M414.2,440.1c2.8,1.8,8.5,1.6,11.3,1c4.6-1,6.4-3.8,9.2-6.8c8.4-10.5,9.5-25.6,13.2-37.5
			c3-10.8,8.4-21.5,14.6-31.1c5.4-8.4,9.2-17.9,13.7-26.1c3.6-8,3.7-16.7,7.3-24.7c4.5-10.6,10.9-19.2,15.3-29.8
			c3-8.4,5.9-17.6,9.3-26.6c2-4.3,4.3-9.1,5.7-13.8c1.4-4.6,0.6-8.3,1.1-12.8c4.2-0.4,5.5,7.5,4.8,11c-1.1,4.1-2.8,9.3-4.6,14.5
			c-3.9,11-9.3,21.7-13.8,32.3c-5.7,16.2-12.6,31.6-19.4,47c-3.2,7.4-5.9,15.2-10.3,21.9c-7.6,11.7-13.7,26.1-17.1,39.8
			c-2.6,10.2-5.9,20-8.1,29.7c-0.7,3.5-2.3,7.2-4.5,10.6c-2.2,3.4-7.7,6.9-3.6,10.4c6.9,5.3,18.5-1.5,25.5,2.3
			c6.3,2.5-5.7,5.1-8.1,5.1c-4.2,0.4-9.1,0.5-13.9,0.5c-3.3,0.2-6.5-1-9.8-0.8c-7.2,0.1-4.4,4.3-1.6,8.5
			c2.8,4.2,17.6,14.6,14.3,19.6c-5-0.9-8.4-5.4-11.9-8.5c-3.4-4.6-8.2-9.3-11.6-13.9c-1.9-2-2.8-4.2-4.1-5.9c-1.9-2-4.3-2-5.4-5.1
			c-1.3-1.6-1.9-4.4-1-7c0.7-3.5,2-1.9,5.1-3"/>
	</g>
	<g>
		<path fill="#B0A580" d="M517.1,250.6c-3.1,8.3-7.2,16.1-11.1,24.1c-4.1,8.5-7.1,17.4-11,26.1c-5.4,12-10.9,23.8-15.6,36.2
			c-8.7,23.2-23.9,43.4-30.9,67.3c-3.5,11.8-5.9,24-10.6,35.3c-3.7,8.9-9.5,15.4-17.3,21.2c-0.8,0.6-1.8,1.1-2.8,1.7
			c0.8,1.2,1.6,2.5,2.7,3.8c3.4,4.6,8.2,9.3,11.6,13.9c3.6,3.1,6.9,7.7,11.9,8.5c3.3-5-11.5-15.4-14.3-19.6
			c-2.8-4.2-5.6-8.4,1.6-8.5c3.3-0.2,6.5,1,9.8,0.8c4.8-0.1,9.6-0.1,13.9-0.5c2.4,0,14.4-2.6,8.1-5.1c-7.1-3.8-18.6,3-25.5-2.3
			c-4.1-3.5,1.4-7,3.6-10.4c2.2-3.4,3.8-7.1,4.5-10.6c2.3-9.6,5.5-19.5,8.1-29.7c3.3-13.7,9.5-28,17.1-39.8
			c4.4-6.7,7-14.5,10.3-21.9c6.8-15.4,13.7-30.9,19.4-47c4.5-10.6,9.9-21.4,13.8-32.3c1.8-5.2,3.6-10.4,4.6-14.5
			c0.2-0.8,0.2-1.9,0.2-3C518.6,246.5,517.8,248.7,517.1,250.6z"/>
	</g>
	<g>
		<path fill="#B39280" d="M316.3,310.7c-1.8,5.2-0.8,12.2,1,18.1c3.2,8.5,9.4,14.9,16.3,20.1c3.6,3.1,8,6,11.6,9.1
			c3,2.7,5.3,6.6,8.4,10.3c5.8,7,10.3,14.7,14.9,22.4c6.2,11.2,12.1,23,18.7,33.6c6,7.9,12,15.8,17.1,23.8
			c9.1,15.4,10.4,35.4,18.8,51.9c3.6,7.9,6.7,17.9,7.7,27.3c0.8,8.5,1.5,18.5,0.5,27.4c-0.4,9.2-0.9,18.5-2.8,27.6
			c-1,6.5-1.5,13.3-3.5,20c-0.5,2-2.2,3.4-2.7,5.4c-0.9,2.6,0.6,2.8,1,4.6c1,4.6-1.2,10.4-1.7,14.8c-1.2,8-3,15.6-3.8,23
			c-0.1,6.3-1.5,13.3-0.7,19.4c0.4,4.2,1,9.4,0.3,12.9c-0.8,7.4-2.6,15-3.4,22.4c-1.9,9.1-2.4,18.3-3.7,27.8
			c-1.6,8.5-3.3,16.1-6.7,25c-2.3,7.2-4.6,14.5-4.9,22.2c0.7,10,1.7,19.4,2.4,29.4c0.3,10.5,3,21,2.8,31.2c0.1,4.8-0.4,9.2-1.5,13.3
			c-0.9,5-1.4,9.4-2.8,14.1c-1.1,4.1-3.2,7.4-3.9,11c-0.9,5-2.3,9.6-2.8,14.1c-0.9,5-2.3,9.6-3.3,13.7c-0.9,5-0.4,9.2-1.3,14.3
			c0.1,4.8-0.4,9.2-0.4,14.1c-0.2,1.7,0.8,5.3,1.3,8.5c0.3,1.1,0.5,2.3,0.9,3.3c0.7,1.5,1.8,2,3.3,2.4c0.1-17.3,0.1-34.7,4.9-51.5
			c2.2-7.8,4.6-14.8,4.9-23c0.1-2.9,0.5-8.2,3.6-9.9c7.6-4.2,5,14.9,4.8,17.1c-0.4,5.7-1.6,12.4,0.5,17.8c2.4,6.2,8.6,9.8,10.7,16
			c2.6,7.4,1.3,24.1,10.8,26.3c2.1-5.5-4.8-18.3-5.9-21.8c-3.4-9.4-3.2-19.6-4.4-29.9c-0.3-5.7-2-11.6-3.2-17.2
			c-1.8-8.3-2-16.4-3.3-24.4c-2.4-11.1-4.7-22.1-6.1-33.4c-1.2-7.9-0.9-15.7,0.6-24.2c4.3-22.6,11.7-44.9,14-68
			c1.9-13.9,1.9-27.4,0.2-42c-1-9.4,1.8-18.7,3.7-27.8c1.6-8.5,2.8-16.5,4.9-24.7c3.2-9.8,4-19.6,5.2-30c3-24.3,7.5-50.7,0.9-74.9
			c-3.1-9.9-4.9-20.6-7.6-31.2c-2.9-9-6.9-18.8-10.7-27.6c-4-9.7-9.3-18.7-13.8-28.9c-1.5-5-4.4-9.2-7.4-14.3l-6.8-11.6
			c-4.5-5.3-5.8-9.4,1-11.3c5.5-1.2,7.2-4.9,3-8.4c-9.5-8.6-21.1-15.3-31.7-22.2c-8.9-5.8-17.4-13.7-24.9-21.7
			c-9.2-9.1-13.7-19.2-17.8-31.4C322.4,312.2,318.9,302.9,316.3,310.7z"/>
	</g>
	<g opacity="0.39">
		<g>
			<path fill="#9A7F6C" d="M342.7,353.8c5.2,5.2,11.3,9.3,16.5,14.3c4.3,4.1,7.3,9,9.5,14.6c2.2,5.6,3.7,11.4,5.8,17
				c2.5,6.5,6,12.4,10.1,18.1c6.4,9,13.7,17.3,19.5,26.7c6.3,10.3,9.6,21.9,13.8,33.1c8.3,22.1,17.6,44.6,18.1,68.5
				c0.4,22.9-7.6,44.2-10.1,66.7c-1.3,11.4-0.1,23-0.7,34.5c-0.7,12.8-4.8,25-6,37.7c-1.2,12.2,1.2,24,0.9,36.1
				c-0.2,11.4-4.5,21.9-9,32.2c-4.9,11.4-8.7,22.4-9.2,34.9c-0.5,13.1,1,26.1,3,39c2,12.7,4.5,25.3,6.1,38c1.4,2.4,1.4,7.4,1.1,11.3
				c0.5,7.3,0.9,14.6,0.3,21.9c0,0.5-0.1,1-0.1,1.5c2.5,5.9,8.4,9.5,10.5,15.6c2.6,7.4,1.3,24.1,10.8,26.3
				c2.1-5.5-4.8-18.3-5.9-21.8c-3.4-9.4-3.2-19.6-4.4-29.9c-0.3-5.7-2-11.6-3.2-17.2c-1.8-8.3-2.1-16.4-3.3-24.4
				c-2.4-11.1-4.7-22.1-6.1-33.4c-1.2-7.9-0.9-15.7,0.6-24.2c4.3-22.6,11.7-44.9,14-68c1.9-13.9,1.9-27.4,0.2-42
				c-1-9.4,1.8-18.7,3.7-27.8c1.6-8.5,2.8-16.5,4.9-24.7c3.2-9.8,4-19.6,5.2-30c3-24.3,7.5-50.7,0.9-74.9
				c-3.1-9.9-4.9-20.6-7.6-31.2c-2.9-9-6.9-18.8-10.7-27.6c-4-9.7-9.3-18.7-13.8-28.9c-1.5-5-4.4-9.2-7.4-14.3l-6.8-11.6
				c-4.5-5.3-5.8-9.4,1-11.3c5.5-1.2,7.2-4.9,3-8.4c-9.5-8.6-21.1-15.3-31.7-22.2c-8.9-5.8-17.4-13.7-24.9-21.7
				c-9.2-9.1-13.7-19.2-17.8-31.4c-0.8-2.1-2.5-6.9-4.4-7.6C318.1,324.9,330.7,341.9,342.7,353.8z"/>
		</g>
	</g>
	<g>
		<g>
			<path fill="#636F37" d="M432.1,483.5c-1.3,3.2,3.1,12.4,4.1,14.6c3.4,9.4,10,17.6,14.4,26.8c6.6,13,7.4,27.8,7.5,42.2
				c0.4,20.1,1.4,40.7,11.1,58.8c9.1,17.8,24.1,31.5,44.1,35c5.6,1.2,11.7,0.4,17.9,0.5c5.4,0.3,10.7-1.8,15.7-3.3
				c9.9-3.1,18.7-11.7,28.8-16.3c4.8-2.5,9.6-2.5,14.9-2.2c-4.4-0.5-8-1.2-11.7-0.4c-5.2,0.6-9.6,2.5-14.8,3.1
				c-4.6,1-9,2.9-13.6,3.9c-6.1,0.8-11.7-0.4-17.2-1.6c-8.2-2.1-15.2-3.5-22.8-7.7c-6.7-4.4-14.3-8.5-19-14.7
				c-5.8-7-9.3-16.3-11-24.6c-1.7-5.9-3.8-11.2-5.4-16.2c-5.6-19.5-3.6-39.7-8.1-58.5c-2.9-11.4-14.8-17.6-22.3-25.6
				c-2.4-2.4-4.1-5.9-6.8-9.2c-1.9-2-5.2-4.2-5.8-7"/>
		</g>
		<g opacity="0.42">
			<g>
				<path fill="#52592E" d="M461.1,537.1c1.2,10.8,0.9,21.6,1.7,32.5c0.9,11.7,3.5,22.6,8.6,33.2c9.6,19.9,25.4,39.4,47.3,46.2
					c10.4,3.2,21,2.8,31.5,0.2c7.7-1.9,15.2-4.4,23-6c0.8-0.4,1.7-0.9,2.5-1.2c4.8-2.5,9.6-2.5,14.9-2.2c-4.4-0.5-8-1.2-11.7-0.4
					c-5.2,0.6-9.6,2.5-14.8,3.1c-4.6,1-9,2.9-13.6,3.9c-6.1,0.8-11.7-0.4-17.2-1.6c-8.2-2.1-15.2-3.5-22.8-7.7
					c-6.7-4.4-14.3-8.5-19-14.7c-5.8-7-9.3-16.3-11-24.6c-1.7-5.9-3.8-11.2-5.4-16.2c-5.6-19.5-3.6-39.7-8.1-58.5
					c-2.7-10.5-12.9-16.5-20.4-23.7C454.2,510.5,459.5,523.2,461.1,537.1z"/>
			</g>
		</g>
	</g>
	<g>
		<g>
			<path fill="#BAAE80" d="M451.9,782.8c0.4,1.8-1.7,3.3-3.5,3.1c-1.8-0.2-3.3-1.4-4.6-2.6c-7.9-7.1-15.5-14.5-22.1-22.8
				c-2.1-2.6-4.1-5.3-4.7-8.5c1.5-0.1,3-0.2,4.5-0.4c-2,0.9-1,3.9,0.3,5.6c2.1,2.8,4.2,5.7,6.3,8.5c6.6,8.9,14.2,18.6,25.2,20.5
				c-2.5-3.6-6.6-5.7-10.4-8.1c-10.5-6.6-19-16.2-24.3-27.3"/>
		</g>
		<g>
			<g>
				<path fill="#BAAE80" d="M450.7,782.8c-0.2,4.7-6.5-0.9-7.3-1.6c-1.3-1.2-2.6-2.4-3.9-3.6c-2.6-2.4-5.1-4.9-7.5-7.4
					c-5-5.2-11.8-11.4-13.7-18.5c-0.4,0.5-0.8,1.1-1.2,1.6c1.5-0.1,3-0.2,4.5-0.4c-0.3-0.7-0.6-1.4-0.9-2.1
					c-2.3,1.8-1.5,4.5-0.2,6.7c2.7,4.5,6.3,8.8,9.6,12.9c6,7.8,13,15,23,17.2c1.3,0.3,2-1.1,1.2-2.1c-4.8-6.2-12.9-9.2-18.7-14.3
					c-6.6-5.8-11.9-12.9-15.8-20.8c-0.7-1.4-2.9-0.2-2.2,1.3c3.8,7.6,8.7,14.5,15,20.2c6.1,5.6,14.8,8.9,19.9,15.4
					c0.4-0.7,0.8-1.4,1.2-2.1c-7.7-1.6-13.4-6.5-18.4-12.3c-1.8-2.1-15.7-18-12.8-20.3c0.8-0.7,0.1-2.2-0.9-2.1
					c-1.5,0.1-3,0.2-4.5,0.4c-0.8,0.1-1.4,0.7-1.2,1.6c1.4,5.2,5,9.2,8.4,13.1c4.2,4.9,8.8,9.5,13.5,14c2.6,2.5,6.7,7.7,10.7,7.8
					c2.7,0.1,4.6-1.7,4.7-4.4C453.2,781.2,450.7,781.2,450.7,782.8L450.7,782.8z"/>
			</g>
		</g>
	</g>
	<g>
		<g>
			<path fill="#ABA177" d="M431.8,771.2c-1.6-2-3.1-4-4.6-6c-2.1-2.8-4.2-5.7-6.3-8.5c-0.5-0.7-1-1.7-1.3-2.6
				c3.3,5.8,7.4,11.1,12.2,15.7c0.1-1.8,0.2-3.7,0.4-5.5l-12.7-12.1c0.2-0.5,0.5-0.9,1-1.1l-2,0.2l-0.9-0.9c0.1,0.3,0.3,0.6,0.5,0.9
				c-0.7,0.1-1.3,0.1-2,0.2c0.6,3.2,2.7,6,4.7,8.5c3.4,4.2,7.1,8.3,10.9,12.2C431.8,771.8,431.8,771.5,431.8,771.2z"/>
		</g>
		<g>
			<g>
				<path fill="#ABA177" d="M432.7,770.3c-2.1-2.7-4.2-5.4-6.2-8.1c-1.9-2.6-4.5-5.3-5.6-8.4c-0.8,0.3-1.5,0.6-2.3,1
					c3.4,5.9,7.5,11.2,12.4,15.9c0.8,0.8,2.1,0.2,2.1-0.9c0.1-2.1,0.9-4.8-0.2-6.6c-0.9-1.4-2.8-2.7-4-3.8c-2.8-2.7-5.6-5.4-8.4-8.1
					c0.1,0.5,0.1,1,0.2,1.5c0.2-0.2,0.4-0.4,0.6-0.7c0.9-0.6,0.7-2.4-0.6-2.3c-1.6,0.1-1.2,0.5-2-0.3c-1.1-1-2.6,0.3-2,1.5
					c0.2,0.3,0.3,0.6,0.5,0.9c0.4-0.6,0.7-1.3,1.1-1.9c-0.7,0.1-1.3,0.1-2,0.2c-0.8,0.1-1.4,0.7-1.2,1.6
					c2.2,8.3,10.1,15.3,15.9,21.2c0.8,0.8,2.1,0.2,2.1-0.9c0-0.3,0-0.6,0.1-0.9c0.1-1.6-2.4-1.6-2.5,0c0,0.3,0,0.6-0.1,0.9
					c0.7-0.3,1.4-0.6,2.1-0.9c-5.4-5.6-13.2-12.4-15.3-20.1c-0.4,0.5-0.8,1.1-1.2,1.6c0.7-0.1,1.3-0.1,2-0.2c1-0.1,1.5-1,1.1-1.9
					c-0.2-0.3-0.3-0.6-0.5-0.9c-0.7,0.5-1.3,1-2,1.5c1.4,1.3,1.9,1.2,3.8,1.1c-0.2-0.8-0.4-1.6-0.6-2.3c-0.8,0.5-1,0.7-1.5,1.6
					c-0.3,0.5-0.2,1.1,0.2,1.5c2.4,2.3,4.8,4.6,7.3,6.9c1.4,1.3,2.9,2.6,4.2,4c0.3,0.3,1,0.7,1.1,1.1c0.1,0.4-0.6,3.9-0.7,4.7
					c0.7-0.3,1.4-0.6,2.1-0.9c-4.7-4.6-8.7-9.7-12-15.4c-0.7-1.2-2.8-0.4-2.3,1c1.3,3.4,3.8,6.1,5.9,9c2.1,2.9,4.3,5.8,6.6,8.6
					C431.9,773.4,433.7,771.6,432.7,770.3z"/>
			</g>
		</g>
	</g>
	<g>
		<g>
			<path fill="#74803F" d="M411.8,763.1c5.4-8.4,13.3-16.8,23-20.8c8.3-4.2,17-4.1,25.8-3.1c8,1.2,17.2,1.6,25.1,0.4
				c7.9-1.2,17.5-8.5,21.8-15.2c11.8-17,16.7-36.8,28.6-53.8c10.7-15.3,23.5-27.7,37-41.1c6.8-6.7,12.6-13.3,21.4-17.1
				c8.1-2.7,15.8-4.8,24.3-8.1c7.2-2.5,13.4-7.2,21.7-9c10.1-2.2,19.8-2.3,29.9-4.4c7.4-1.6,14.4-2.6,21.6-5.1
				c7.5-3,14.3-7.4,22.4-10.1c0.4,1.8-1.1,4.1-1.2,5.6c-0.7,3.5-1.4,7-1.2,10.4c0.1,7.2,0,13.5-0.9,20.9
				c-1.8,16.3-9.1,29.9-16.1,44.4c-7.2,13.6-15.9,29.4-27.6,40.1c-5.3,4.5-10.6,9-16.5,13.1c-6.2,4.7-12.6,10.9-19.4,15.2
				c-7,3.4-14.7,5.5-21.5,9.9c-8.8,3.8-17.5,8.5-26.1,13.3c-8.6,4.7-18.4,8.7-27.8,12.2c-9.6,2.5-18.6,3-27.9,2.6
				c-9.6,0.1-17-3.1-25.8-5.6c-8.4-3-15.5-9.2-23.6-11.4c-4.1-1.1-8.9-1-13-2.1c-5.4-0.3-10.9,0.9-16.1-0.9
				c-4.1-1.1-7.8-2.7-12.8-1.1c-4.1,1.3-7.3,4-10.6,6.6c-3.7,3.2-7,5.8-9.5,9.7c-1.5,2.2-8.4,8.1-6.3,11"/>
		</g>
		<g opacity="0.51">
			<g>
				<path fill="#727F3E" d="M710.4,589c-3.4,7-8.2,13.5-13.1,19.5c-9.1,11.1-19.7,20.9-30.4,30.4c-12,10.6-23.8,21.3-35.7,31.9
					c-12.1,10.7-24.2,21.3-36.8,31.4c-11.4,9.2-23.1,18.6-35.7,26.2c-19.9,12-42.4,15.6-65.3,16.5c-8.6,0.3-17.6-0.1-26.3,0.3
					c3.8,0.8,8.1,0.8,11.8,1.8c8.2,2.1,15.3,8.3,23.6,11.4c8.7,2.5,16.2,5.7,25.8,5.6c9.2,0.4,18.3,0,27.9-2.6
					c9.4-3.4,19.1-7.4,27.8-12.2s17.3-9.5,26.1-13.3c6.8-4.3,14.5-6.5,21.5-9.9c6.8-4.3,13.2-10.5,19.4-15.2
					c5.9-4.1,11.2-8.6,16.5-13.1c11.7-10.7,20.4-26.5,27.6-40.1c7-14.5,14.3-28.1,16.1-44.4c0.8-7.4,0.9-13.7,0.9-20.9
					c-0.2-2.9,0.3-5.9,0.9-9C712,585.3,711.3,587.2,710.4,589z"/>
			</g>
		</g>
		<g opacity="0.11">
			<g>
				<path fill="#BCC55D" d="M449,740c24.2,12.4,53.5,7.1,79.6-0.8c17.1-5.2,34.1-11.5,48.8-21.7c6.8-4.7,13.1-10.2,19.3-15.8
					c31.2-27.8,61.7-56.5,91.5-85.9c-18.4,17.8-36.7,35.5-55.1,53.3c-3.9,3.8-7.9,7.6-12.7,10.2c-2.9,1.6-6,2.7-8.7,4.6
					c-5.4,3.8-8.1,10.3-12.3,15.4c-3.8,4.6-8.9,8-13.9,11.3c-16,10.6-32.4,21-50.4,27.8c-18,6.8-37.8,10-56.6,5.9
					c-11.4-2.5-23.7-7.4-34-2"/>
			</g>
			<g>
				<g>
					<path fill="#BCC55D" d="M448.7,740.5c31.3,15.5,69.8,4.3,100.4-7.7c16.7-6.6,31.2-15.9,44.7-27.7c15.1-13.3,30-26.9,44.7-40.7
						c16.9-15.8,33.6-31.9,50.1-48.2c0.6-0.6-0.3-1.4-0.9-0.9c-15.1,14.6-30.1,29.1-45.2,43.7c-7,6.8-13.9,15-22.5,19.7
						c-2.9,1.6-6.1,2.7-8.8,4.7c-3.1,2.3-5.4,5.4-7.5,8.6c-10.5,15.5-28.5,25.1-44.6,34.1c-17.7,9.9-37,17.8-57.4,19.1
						c-11.4,0.7-22-1.4-33-4c-8.3-2-16.6-3.3-24.6,0.5c-0.7,0.3-0.1,1.4,0.6,1.1c9.8-4.7,20.3-1.1,30.3,1.3c8.8,2.1,17.6,3,26.7,2.4
						c18.5-1.2,36.2-7.7,52.5-16.2c8.5-4.5,16.7-9.5,24.8-14.8c7-4.5,14.7-8.9,20.2-15.2c6-6.9,9-14.4,17.7-18.6
						c7.9-3.8,13.8-9.5,20-15.6c17.2-16.6,34.4-33.2,51.5-49.9c-0.3-0.3-0.6-0.6-0.9-0.9c-27,26.7-54.6,52.8-82.9,78.2
						c-14,12.6-27.7,25-44.8,33.2c-16,7.7-33.5,13.2-50.8,16.9c-20,4.3-41.2,5.1-59.9-4.2C448.6,739.1,448,740.1,448.7,740.5
						L448.7,740.5z"/>
				</g>
			</g>
		</g>
		<g opacity="4.000000e-02">
			<g>
				<path fill="#BCC55D" d="M593.7,743.6c3.7-11,6.7-22.4,10.2-33.5c2.1-6.7,4.8-13.1,7.1-19.7c1.9-5.5,8.2-2.1,6.9-8
					c-2-8.8,7.9-2.2,0,0c-7.1,2-29.1-16.2-42.3-20.4c-13.3-4.2-28.5,10-42,12.7c-10,16-15.1,34.2-26,49.8
					c-4.4,6.7-13.9,14-21.8,15.2c-7.9,1.2-17.2,0.8-25.1-0.4c-8.9-1-17.6-1.1-25.8,3.1c-9.8,4-17.6,12.4-23,20.8l-0.4,2.4
					c1.6-2.7,4.8-5.5,5.7-6.9c2.5-3.9,5.8-6.5,9.5-9.7c3.3-2.6,6.6-5.3,10.6-6.6c5-1.5,8.7,0.1,12.8,1.1c5.2,1.8,10.7,0.6,16.1,0.9
					c4.1,1.1,8.9,1,13,2.1c8.2,2.1,15.3,8.3,23.6,11.4c8.7,2.5,16.2,5.7,25.8,5.6c9.2,0.4,18.3,0,27.9-2.6
					c9.4-3.4,19.1-7.4,27.8-12.2C587.2,747,590.4,745.3,593.7,743.6z"/>
			</g>
			<g>
				<g>
					<path fill="#BCC55D" d="M594.3,743.7c4.7-14.1,8.1-28.5,13.3-42.4c1.1-3,2.2-5.9,3.3-8.9c1.1-3,1.8-3.6,4.5-5.1
						c0.4-0.2,1.2-0.3,1.6-0.6c0.5-0.4,1-0.6,1.3-1.3c0.9-1.7-0.8-3.6-0.1-5.2c1.3-3,2.7,0.5-0.5,1.6c-0.9,0.3-1.9,0.1-2.7-0.1
						c-1.6-0.3-3.3-1-4.8-1.7c-4.4-2-8.5-4.6-12.6-7c-7.2-4.3-14.9-10-23.2-11.9c-9.4-2.2-18.8,3.5-26.9,7.4
						c-2.6,1.3-5.1,2.5-7.8,3.6c-1.7,0.7-5.1,1-6.5,2c-1.3,1-2.2,3.4-3,4.8c-1.7,3.1-3.3,6.2-4.8,9.4c-5.8,12.1-10.6,24.9-18.5,35.9
						c-3.5,4.9-7.9,9-13.2,11.9c-6.4,3.6-13.5,3.9-20.7,3.7c-7.7-0.2-15.4-1.9-23.1-1.7c-6,0.2-11.6,1.8-17.1,4.4
						c-5.8,2.8-10.8,6.9-15.1,11.6c-3,3.3-6.4,6.9-7.1,11.3c-0.1,0.7,0.7,1.1,1.1,0.5c4.2-6.1,9.4-11.9,15.1-16.5
						c3.9-3.2,8.5-6.8,13.7-7c4.4-0.2,8.4,1.9,12.6,2.5c4.7,0.7,9.4-0.2,14.1,0.5c3.8,0.5,7.7,0.7,11.4,1.7c8,2.1,14.4,7.7,22,10.7
						c14.7,5.9,30.4,7.7,46.1,5.6c16.8-2.3,32.3-11.5,47.1-19.3c0.7-0.4,0.1-1.5-0.6-1.1c-17,9.1-34.2,18.8-53.9,19.9
						c-9.2,0.5-18.3-0.1-27.2-2.7c-4.7-1.4-9.5-2.7-13.9-4.8c-3.7-1.8-7.2-4.1-10.9-6c-6.6-3.5-14-4.9-21.3-5.5
						c-4.8-0.4-9.5,0.6-14.3-0.4c-3.5-0.7-6.7-2.2-10.3-2.3c-6.7-0.1-12.4,4.8-17.2,8.9c-5,4.4-9.7,9.7-13.5,15.2
						c0.4,0.2,0.8,0.3,1.1,0.5c0.9-5.5,6.2-10.5,10.1-14.2c5.8-5.5,13.3-9.9,21.3-11.5c14.5-2.9,29.3,3.3,43.9,0
						c11.2-2.6,19.2-11.8,24.8-21.3c7.5-12.6,12.3-26.5,19.4-39.3c2-3.6,3.7-4.4,7.4-5.8c2.3-0.8,4.5-1.9,6.7-2.9
						c6.1-2.9,12-6.4,18.6-8.1c11.7-3.1,22.2,4.8,31.7,10.6c4.2,2.5,8.4,5.1,12.8,7.3c2.6,1.3,5.7,2.9,8.7,2.5
						c1.5-0.2,3.9-1.1,4.2-2.9c0.2-1.3-0.8-2.8-2.3-2.9c-2.3-0.1-2.2,2.4-2.2,4c0.1,0.4,0.1,0.8,0.2,1.2c0.3,2.1-0.5,3.2-2.2,3.5
						c-0.7,0.5-1.8,0.6-2.5,1.2c-1.6,1.2-2.2,2.9-2.8,4.8c-6.2,17-10.9,34.2-16.7,51.3C592.8,744.2,594,744.5,594.3,743.7z"/>
				</g>
			</g>
		</g>
	</g>
	<g>
		<path fill="#91A859" d="M418.5,663.7c0.2-5.8-32.9,8.4-37,9.3c-16.6,7.1-32.6,13.4-44.9,26.9c-13.2,12.9-23.8,27.5-36.9,40.4
			c-12.6,12.1-26.4,22.2-40.6,33.2c-12.9,10.7-28.1,17.5-42.7,23.5c-6.1,2-12.7,4.9-16.8,9.4c-5.7,7-5.6,14.2-5.8,23.6
			c-0.2,5.8-1,12.5-2,17.8c-1.9,4.7-5.1,9.8-4.8,14.8c-2.8,17.2,31.6,2.7,39.1,0.4c25.9-10.6,59.7-14.9,80.8-34.5
			c9-8.4,13.6-21,17.6-32.7c3.2-12.2,7.2-23.9,9-35.9c4.7-22,1.9-48.8,20-65.7c10.1-10.1,24.6-10.3,37-16.5
			c5.2-2.6,10.5-5.1,16.6-7.1c3.9-2.3,13.3-2.1,16-6.3c-1.7-1.1-7-2.1-8.9-1"/>
	</g>
	<g opacity="0.25">
		<g>
			<path fill="#889A4F" d="M209.9,847.1c9.3-2.9,17.8-7.9,25.8-13.3c18.9-12.7,38.1-26.7,53.3-43.8c17-19.1,25.2-43.4,34-67
				c2.4-6.5,5-13.5,9.1-19.3c-11.1,11.7-20.7,24.3-32.2,35.6c-12.6,12.1-26.4,22.2-40.6,33.2c-12.9,10.7-28.1,17.5-42.7,23.5
				c-6.1,2-12.7,4.9-16.8,9.4c-5.7,7-5.6,14.2-5.8,23.6c-0.2,5.8-1,12.5-2,17.8c-0.4,1-0.9,2.1-1.4,3.2
				C197.1,850,203.6,849.1,209.9,847.1z"/>
		</g>
	</g>
	<g>
		<g>
			<path fill="#74803F" d="M478.4,309.8c-0.8-2.9-11.2-8.8-14.4-10.4c-4.5-3.1-10-5.4-14.6-8.5c-6.3-4.2-14.2-6.1-21.2-8
				c-8.3-2.4-16.5-0.6-24.2,1.8c-7.8,3.3-14.1,6.2-20.1,11.5c-5.5,4.8-9.3,12.6-13.5,19c-6.3,10-14.5,19.9-24.8,26.3
				c3.5,4,11.6,3.1,16.3,3.4c7.5,0.5,15.4,2.4,23,2c6.1-0.1,11.5-2.1,16.8-4.1c6.8-2.4,13.6-5.7,19.5-9.1
				c5.9-4.3,12.3-7.2,18.7-11.1c5.4-3,10.8-5.9,16.1-7.9c3.9-1.6,7.8-3.3,12.1-4.4c2.4-0.3,4.8-0.6,7.6-0.5c1.4-0.4,4.6,2.2,5.6,0.4
				"/>
		</g>
		<g>
			<path fill="#727F3E" d="M382.1,320.5c13.9-9,28.2-15.8,44.8-18c14-1.8,27.9-1.7,41.4,2.9c2.6,0.9,5.5,2,8.3,2.7
				c-3.4-3-10-6.7-12.5-7.9c-4.5-3.1-10-5.4-14.6-8.5c-6.3-4.2-14.2-6.1-21.2-8c-8.3-2.4-16.5-0.6-24.2,1.8
				c-7.8,3.3-14.1,6.2-20.1,11.5c-5.5,4.8-9.3,12.6-13.5,19c-5.5,8.8-12.5,17.4-21.1,23.7C361.1,334.8,371.5,327.4,382.1,320.5z"/>
		</g>
	</g>
	<g>
		<g>
			<path fill="#797F4C" d="M426.4,521.1c-2.6,1.5-8.2-2.1-10.8-3c-3.7-1.6-6.9-2.9-9.7-4.7c-9.3-5.2-16.6-12.4-25.4-17.3
				c-13.2-7.8-28.8-10.7-43.8-10.9c-13.5,0-27.4,0.5-39.9,5.1c-16.6,5.9-33.1,14.3-46.1,25.7c-12.3,10.3-17.3,25.4-26.2,37.9
				c-6,8-12.4,16.6-18,24.1c-1.3,0.8-3.7,3.2-3.3,5c0.4,1.8,7.3,4.7,8.4,5.4c7.4,3.2,15.8,3.9,23.9,6c5.2,1.8,10.6,2.1,15.6,3
				c4.6,1.4,8.7,2.5,13.5,2.4c10.7,0.6,20.7,2.3,31.2-0.4c16-3.9,31.7-9.6,46-17c9.2-4.4,18-8.2,27-13.5c5.9-4.1,11.7-8.3,17-12.8
				c4.7-4.9,8-9.9,11.6-15.5c4-6.2,7.8-10.8,14.8-14.2c3.1-1.1,5.1-3,8.5-3.2c3.3-0.2,6.5,1,7.7-2.1"/>
		</g>
		<g opacity="0.44">
			<g>
				<path fill="#6E7D3F" d="M223.9,575.8c7.8-4.8,14.9-10.4,22.4-15.6c18.2-12.8,39-22.2,60.3-28.3c25.5-7.3,52.1-9.9,78.3-14
					c4.8-0.7,9.9-2.2,14.7-1.9c3.7,0.3,7.3,1,11,1.8c2.5,0.5,5.6,1.4,8.8,2c-1.5-0.7-2.8-1.4-3.8-1.7c-3.7-1.6-6.9-2.9-9.7-4.7
					c-9.3-5.2-16.6-12.4-25.4-17.3c-13.2-7.8-28.8-10.7-43.8-10.9c-13.5,0-27.4,0.5-39.9,5.1c-16.6,5.9-33.1,14.3-46.1,25.7
					c-12.3,10.3-17.3,25.4-26.2,37.9c-6,8-12.4,16.6-18,24.1c-1.3,0.8-3.7,3.2-3.3,5c0.1,0.3,0.3,0.6,0.5,0.8
					C211.1,583.1,218,579.4,223.9,575.8z"/>
			</g>
		</g>
	</g>
	<g>
		<path fill="#97AD63" d="M434.8,570.6c-4.7,1.7-9.9,4.3-14.9,4.6c-5.8-0.2-13.6-2.9-18.4-4.8c-12.2-3.2-22-8.3-32.6-14
			c-5-3.3-10.1-6.5-15.6-9c-5.6-2.4-11.7-4-17.3-6.4c-11.2-4.9-21.8-10.5-32.6-14c-6.1-1.6-11.7-4-17.5-4.2
			c-5.8-0.2-11.9-1.8-16.9-1.5c-5.8-0.2-10.8,3.7-15.2,6.8c-9.1,4.8-19.6,6.3-29.6,7c-14.4,0.2-29,6.2-42.3,11.9
			c-13.2,5.7-22.5,16.4-34.9,22.6c-12.9,7.1-25.9,14.2-37.7,23.2c-4.4,3.1-9.3,7-12.4,9.9c-2.5,2-3.6,3.6-5.5,4.8
			c-3.6,3.6-5.2,2.6-9.1,4.8c-4.7,1.7-9.3,7-11.2,11.8c-3.8,9.5,1.9,15.5,6.9,22.4c4.8,5.5,11.2,4.9,17.6,7.8
			c7,2.1,12.8,5.9,18.4,8.4c12,5.4,21.7,3.3,28.5,14.9c3.1,4.4,6.2,8.8,10.4,11.5c6.7,4.4,13.1,3.7,21.1,4.2c13,0.1,26.3-2,39.9,0.9
			c7.8,2.7,12.2,3.2,20.5,1.4c7.8-0.9,16.6-3.5,24.1-5.8c11.6-3.2,22.9-7.8,34.5-11c10.8-3.7,18.8-6.9,28.1-13.9
			c7.4-5.9,13.4-11.5,19.2-18.5c4.6-5.3,10.1-10.1,13.4-15.1c2.7-4.2,5.4-8.4,9-12c3.9-2.3,8-3.1,11.9-5.4c3.9-2.3,8.3-5.4,11.3-8.2
			c6.6-6.5,8.4-14.8,15.3-19.9c6-5.6,15.7-7.7,22.9-7.8c4.4,0.5,7.2-0.1,11.1-2.4c4.9-3.9-0.1-7.2-1.4-3.3"/>
	</g>
	<g>
		<path fill="#91A859" d="M398.6,427.5c-1.9-4.4-10.7-0.6-14.1-0.4c-5,1.5-9.8,1.6-14.2,1.1c-10.7-0.6-17.3-8.8-25.5-13.4
			c-6.5-3.4-12.1-7.1-18.2-8.7c-9.1-1.9-19.3-2.2-28.2-5.6c-4.8-2.3-9.8-3.2-14.6-3.1c-9.3-0.4-18.7,0.6-27.5,2
			c-5.2,0.6-10.1,2.2-15.3,2.8c-1.8,0.4-4.8,0.1-5.9,1.7c-1.5,2.2,0.8,6.1,1.2,7.9c3.4,7,11.6,11.5,16.7,17.2
			c6,5.5,10.8,10.2,17.6,14.6c5,3.3,8.4,5.4,14.1,5.2c8.1-0.3,13.3,1.5,19.7,6.4c11.4,8.2,25.9,1.7,36.9-3
			c5.3-2.1,12.7-3.7,16.7-7.4c1.6-1.3,3.1-3.6,4.7-4.9c2.9-2.1,6.1-3.2,8.3-4.2c5.7-2.7,11.8-5.9,18.2-4.8c2,0.5,6.1,1.6,8.3,0.6
			c2.6-1.5,1.4-4.6-1.2-5.5"/>
	</g>
	<g>
		<path fill="#432A2B" d="M523.3,449.6c9.5-7.3-2.8-17.7-8.8-23.2c-4.5-2.9-7.1-6.2-13-6.9c-4.8,0.1-9.6,0.1-14.2,1.1
			c-10,0.7-17.9,6.7-25.9,11.8c-7.2,4.9-11.2,8.6-11.3,17.3c-0.1,8.7,8.7,16,14.5,20.5c6.9,5.3,17.9,9.2,26.2,7.4
			c8.3-1.8,17.9-6.7,23.5-14.2c1.8-2.8,3.3-5,5.6-7.5c1.1-1.7,4.2-5.2,4.2-7.6"/>
	</g>
	<g opacity="0.65">
		<g>
			<path fill="#899D58" d="M434.6,571l0.2-0.4c-4.7,1.7-9.9,4.3-14.9,4.6c-5.8-0.2-13.6-2.9-18.4-4.8c-12.2-3.2-22-8.3-32.6-14
				c-5-3.3-10.1-6.5-15.6-9c-5.6-2.4-11.7-4-17.3-6.4c-11.2-4.9-21.8-10.5-32.6-14c-6.1-1.6-11.7-4-17.5-4.2
				c-5.8-0.2-11.9-1.8-16.9-1.5c-5.8-0.2-10.8,3.7-15.2,6.8c-9.1,4.8-19.6,6.3-29.6,7c-14.4,0.2-29,6.2-42.3,11.9
				c-13.2,5.7-22.5,16.4-34.9,22.6c-12.9,7.1-25.9,14.2-37.7,23.2c-4.4,3.1-9.3,7-12.4,9.9c-2.5,2-3.6,3.6-5.5,4.8
				c-3.6,3.6-5.2,2.6-9.1,4.8c-4.7,1.7-9.3,7-11.2,11.8c-2.1,5.2-1.3,9.3,0.6,13.2c16.8-5.7,35.3-6.6,52.8-8.6
				c14.2-1.7,27.8-5.4,41.8-7.9c14.9-2.6,29.9-4.5,44.9-6.5c15.1-2,30.3-4,45.2-7.3c14-3.1,27.7-7.4,41.3-11.8
				c22.8-7.3,45.4-13.7,69.3-16.3c17.8-2,35.8-3.9,53.8-3.6c3.3,0.1,8.6,0,13.9,0.5c0.2-0.1,0.3-0.2,0.5-0.3
				C439.3,572.3,436.4,569.4,434.6,571z"/>
		</g>
	</g>
	<g>
		<g>
			<path fill="#BCC55D" d="M74.5,635.3c9.6-2.5,19.2-5,28.9-6.6c10.7-1.8,21.9-5.6,33.6-5.2c21.5,1.2,43.6-5.9,64.4-9.8
				c9.8-1.6,19-3.6,27.7-5.9c11.8-3.5,23.1-4.9,34.3-6.3c10.7-1.8,21-3,31-6.1c5.3-2.1,10.5-5.1,16-6.3c5.5-1.2,10.1-2.2,15.1-3.7
				c9.6-2.5,18.8-4.5,28.8-5.2c9.4-1,18.8-4.5,28.8-5.2c17-1.7,37,4.2,52.4-4.9c3.2,3.7-4.9,6.3-6.4,6.2c-5.5,1.2-8.9,1.4-13.7,1.5
				c-4.2,0.4-7,1-9.9,3.1c-3.9,2.3-8.3,1.8-12.9,2.7c-7.7,2.1-17.4-0.2-25.5,0.1c-8.3-0.6-16.7-1.3-24.6-0.1
				c-3.7,0.8-7.9,1.2-11.6,2c-4.8,0.1-9.2,2-13.3,3.3c-4.6,1-7.9,1.2-12.3,3.1c-4.1,1.3-8.5,3.2-12.5,4.6c-4.1,1.3-8.3,1.8-12,2.6
				c-4.6,1-8.5,0.8-12.7,1.3c-4.2,0.4-7.7,2.1-11.4,2.9c-5,1.5-9.8,1.6-14.4,2.6c-6.8,1.9-14.6,1.7-21.4,3.6
				c-4.1,1.3-7.7,2.1-11.8,3.5c-3.3,0.2-7.2,0.1-10.3,1.2c-3.7,0.8-7.2,2.5-10.5,2.7c-3.1,1.1-7,1-10.3,1.2
				c-6.8,1.9-13.6,3.9-20.8,4c-6.7,0.5-13.5,2.4-19.8,2.3c-6.8-0.5-14.2,1.1-21.6,2.7c-7.4,1.6-15.8,4.8-23.4,5.5
				c-3.9-0.1-7,1-10.7,1.8c-1.3,0.8-9,2.9-7.8-0.3"/>
		</g>
		<g>
			<g>
				<path fill="#BCC55D" d="M74.7,635.9c12.7-3.3,25.5-5.7,38.4-8.6c6.4-1.4,12.8-2.9,19.4-3.2c6.8-0.3,13.5,0.2,20.3-0.5
					c12.9-1.3,25.4-4.4,38-7.2c12.3-2.7,24.7-4.5,36.9-7.7c12.6-3.3,25-5,37.8-7.1c12.2-2,24.2-3.6,35.6-8.6
					c5.9-2.6,11.8-3.8,18.1-5.4c6.3-1.6,12.6-3.4,19-4.7c6-1.2,12-1.6,18.1-2.5c6.6-0.9,13.1-2.8,19.6-4c12.2-2.2,24.2-0.5,36.5-0.6
					c4.9,0,9.8-0.4,14.5-1.6c1.7-0.4,5.2-2.6,6.8-2.5c3.8,0.2-1.6,3.2-3.1,3.6c-4.6,1.3-9.7,1.4-14.4,1.7c-4.9,0.3-8.1,1.9-12.5,3.8
					c-3.1,1.3-6.3,1.3-9.5,1.8c-3.3,0.5-6.5,1.2-9.9,1.2c-6,0-12.2-0.6-18.2-0.9c-6.7-0.3-13.3-1-19.9-0.4
					c-5.8,0.5-11.5,1.7-17.3,2.5c-5.6,0.8-10.8,3-16.3,4.1c-5.9,1.2-11.4,3.6-17,5.7c-5.4,2-11.1,3.1-16.8,4
					c-6,0.9-11.8,0.7-17.8,2.5c-11.6,3.5-23.7,4.5-35.7,6.5c-7.1,1.2-13.7,4.2-21,4.7c-5.7,0.4-11,2.7-16.5,3.8
					c-3.2,0.6-6.2,0.8-9.4,1.2c-2.6,0.3-5.2,1.3-7.7,1.9c-7,1.8-14.2,1.9-21.3,3c-7.7,1.2-15.3,0.8-22.9,1.9
					c-6.6,0.9-13,2.5-19.4,4.2c-6.7,1.9-13.1,2.5-19.9,3.7c-0.6,0.1-13.4,3.7-13,1.9c0.2-0.8-1-1.1-1.2-0.3
					c-1.2,5.5,12.9-0.1,14.6-0.3c6.8-1.2,13.2-1.9,19.9-3.7c7.9-2.2,16.2-4.3,24.4-4.8c13.6-0.8,27.6-1.3,40.9-4.8
					c6.1-1.6,12.3-1.6,18.3-3.2c3-0.8,5.9-2,9-2.6c3.6-0.8,7.2-0.5,10.7-1.4c7.3-1.7,14-3.9,21.5-4.8c6.9-0.8,13.9-2,20.7-3.4
					c6.7-1.4,12.7-3.7,19.6-4.1c6.7-0.4,13.8-1.5,20.2-3.5c6.3-2,12.2-5.1,18.6-6.5c7.1-1.6,13.9-3.7,21.1-4.8
					c7.7-1.2,15.1-2.5,22.9-2.3c7.2,0.2,14.5,0.6,21.8,1.1c7.7,0.5,14.6-0.3,22.2-1.5c3.4-0.5,5.5-1.8,8.5-3.2
					c3.7-1.8,7.9-1.6,11.9-1.8c3-0.2,20.9-1.4,16.1-8.4c-0.2-0.3-0.5-0.4-0.9-0.2c-10.6,5.9-22.7,5.3-34.4,4.8
					c-11.1-0.5-21.6,0-32.5,2.5c-11.9,2.6-24,3.4-35.8,6.1c-10.7,2.5-22.1,4.6-32.1,9c-12.2,5.5-25.6,7.2-38.8,9
					c-11.6,1.6-23,3.6-34.3,6.6c-11.6,3-23.4,4.8-35,7.3c-12.8,2.8-25.5,6.1-38.6,7.5c-6.8,0.7-13.5,0.3-20.3,0.5
					c-6.1,0.2-12.1,1.4-18,2.7c-13.7,3-27.4,5.6-41,9.1C73.6,634.9,73.9,636.1,74.7,635.9L74.7,635.9z"/>
			</g>
		</g>
	</g>
	<g>
		<path fill="#BCC55D" d="M384.5,427.1c-5,1.5-9.8,1.6-14.2,1.1c-1.9-0.1-3.7-0.5-5.4-1c-4.6,2.5-11.1,2.4-15.7,2.1
			c-10.2-0.6-20.2-2.6-30.2-4.4c-10.5-1.9-20.7-3.7-31-6.8c-11.7-3.5-24-7.7-36.4-6.9c6.5,6.5,17.3,8.8,25.8,10.5
			c9.9,1.9,19.8,2.9,29.8,3.9c18.8,2,40.2,3.3,56.2,13.7c2.7-1.8,5.5-2.8,7.5-3.7c5.7-2.7,11.8-5.9,18.2-4.8c2,0.5,6.1,1.6,8.3,0.6
			c1.9-1.1,1.8-3.1,0.5-4.4l0.5,0.3C396.7,423.1,387.8,426.9,384.5,427.1z"/>
	</g>
	<g opacity="0.5">
		<g>
			<path fill="#B2B55A" d="M434,574.5c-3.7,11.7-4.8,23.6-4.9,35.8c-0.2,12.1,0,24.7-3.2,36.5c-8,29.5-5.3,60.3-8.6,90.4
				c-1.5,13.6-4.2,26.8-7.3,40.1c-3.1,13.3-6.2,27.3-4.7,41c2.9,26.1,10.5,51.4,13.1,77.5c2,3.2,4.1,6.3,6.2,9.3
				c-0.6-5.3-0.8-10.8-1.5-16.2c-0.3-5.7-2-11.6-3.2-17.2c-1.8-8.3-2.1-16.4-3.3-24.4c-2.4-11.1-4.7-22.1-6.1-33.4
				c-1.2-7.9-0.9-15.7,0.6-24.2c4.3-22.6,11.7-44.9,14-68c1.9-13.9,1.9-27.4,0.2-42c-1-9.4,1.8-18.7,3.7-27.8
				c1.6-8.5,2.8-16.5,4.9-24.7c3.2-9.8,4-19.6,5.2-30c2-16,4.6-33,4.3-49.6C440.6,556.6,436.9,565.4,434,574.5z"/>
		</g>
	</g>
	<g>
		<path fill="#74803F" d="M418.1,662.8c-3.6-3.1-32.8,9.4-36.7,10.2c-16.6,7.1-32.6,13.4-44.9,26.9c-13.2,12.9-23.8,27.5-36.9,40.4
			c-12.6,12.1-26.4,22.2-40.6,33.2c-12.9,10.7-28.1,17.5-42.7,23.5c-6.1,2-12.7,4.9-16.8,9.4c-5,6.1-5.6,12.4-5.7,20.1
			c3.9-5.4,8.5-10.3,14.3-14.1c10.8-7.1,22.8-12,34.8-16.6c12.8-4.8,26.4-9.4,37.4-17.8c14.4-11.1,23.5-27.9,33.3-43
			c9.5-14.7,19.7-30.6,34.3-40.7c5.3-3.7,10.6-6,16.1-7.2c8.4-3.8,17.9-5.2,26.5-9.5c5.2-2.6,10.5-5.1,16.6-7.1
			c3.9-2.3,13.3-2.1,16-6.3C422,663.6,420,663.1,418.1,662.8z"/>
	</g>
	<g>
		<g>
			<path fill="#6F2D39" d="M517.8,314.8c-9.3-2.8-17.2,0.8-25.3,5.9c-5.9,4.1-12.6,10.9-17,17.6c-2.8,3.7-5.8,7.5-6.7,11.7
				c2.7,2.1,5.1,4.8,6.7,6.6c3,3.6,5.6,7.8,9,11c7,6.8,15.4,10.3,24.7,12.7c0.4,0.1,0.6,0.3,0.8,0.5c2.6,0.1,5.1-0.1,7.6-0.9
				c8.5-3.2,13.2-10.5,17.5-17.2l7.6-11.7c1.4-3.3,4.1-7.6,4.8-11.2c-0.1-2.4-2.8-4.2-4.1-5.8c-1.5-2.6-3.4-4.6-5.3-6.6
				C532.9,322.2,525.1,317.1,517.8,314.8z"/>
		</g>
		<g opacity="0.9">
			<g>
				<path fill="#522929" d="M517.8,314.8c-9.3-2.8-17.2,0.8-25.3,5.9c-0.1,0.1-0.2,0.1-0.3,0.2c0.9,6.7,3.9,14.4,11.3,13.4
					c5.1-0.7,9.7-3.6,14.8-4c7-0.5,18.1-1,23.4,4.5c6.7,6.9-7.6,14.1-11.9,16.4c-4.6,2.5-9.2,5.2-14,7.3c-6,2.6-12.4,4.1-18.6,6.2
					c-0.3,0.4-0.8,0.7-1.5,0.6c-0.1,0-0.2,0-0.3,0c-0.2,0-0.3,0-0.4,0c-2.5,0.1-4.6,2.9-6.2,5.9c6.1,4.5,12.9,7.1,20.5,9
					c0.4,0.1,0.6,0.3,0.8,0.5c2.6,0.1,5.1-0.1,7.6-0.9c8.5-3.2,13.2-10.5,17.5-17.2l7.6-11.7c1.4-3.3,4.1-7.6,4.8-11.2
					c-0.1-2.4-2.8-4.2-4.1-5.8c-1.5-2.6-3.4-4.6-5.3-6.6C532.9,322.2,525.1,317.1,517.8,314.8z"/>
			</g>
		</g>
		<g opacity="0.4">
			<g>
				<path fill="#522929" d="M492.5,331.7c-1.3,5.1,7.5,9.4,11.7,9.9c2.2,0.5,6.1-0.1,8.1,1.6c1.2,1.2,0.4,1.7-0.4,2.9
					c-0.8,1.3-1.7,2.6-2.9,3.6c-2.2,1.8-5.4,2.9-7.7,4.1c-2.3,1.2-4.3,2.7-5.9,4.4c-1.2,1.1-2.8,2.8-2.9,4.5
					c-0.8,3.6,3.7,2.9,5.4,1.7c4.4-2.2,8,1.2,12.4-1c5.4-2.9,12.1-5.4,18-7.5c5.3-2,9.4-8.7,13.8-12.3c1.6-1.7,3-3.1,3.6-5.5
					c0.8-2.7-1.4-4.1-4.4-5.6c-3.4-1.7-8-2.4-11.3-2.8c-5.2-0.6-9.7-1.3-14.1,0c-2.5,0.7-5.1,0.8-7.2,1.7c-1.9,0.6-4,1.5-6.3,1.9
					c-3.7,0.3-4.3-5-7.2-6.8"/>
			</g>
		</g>
	</g>
	<g>
		<g>
			<path fill="#957F71" d="M416.6,442.5c-2-0.5-7.1-3.8-8.3-0.6c-0.5,2,5.8,7,6.6,8.2c1.3,1.6,2.1,2.9,2.5,4.8
				c0.4,1.8,0.1,4.8,1.4,6.5c0.8,1.3,2.2,1.5,3,2.7c1.9,2,1.3,4.1,2.7,5.7c2.8-0.6,2.5-3.9,2.5-6.3c0.7-3.5-0.1-4.8,3.6-5.6
				c2.4,0,4.2-0.4,5.1-3c-0.2-0.9-0.6-2.8-0.2-3.3c0.7-1.1,1.6-1.3,2.4-2.4c-0.8-1.3-1.9-2-2.6-3.3c-0.4-1.8,0.7-3.5-0.6-5.2
				c-1.3-1.6-2.4,0-4.4-0.5c-1.5-0.2-2.6-0.9-4.1-1.1c-3-0.3-5.7,2.7-8.7,2.3c-2.6-0.9-4.8-2.3-7.4-0.8"/>
		</g>
		<g>
			<g>
				<path fill="#957F71" d="M416.8,441.9c-2.1-0.7-6.2-3.4-8.4-1.3c-1.7,1.7,0,3.6,1.2,5c1.3,1.5,2.8,2.7,4.1,4.2
					c2.7,3,2.5,5.5,3.4,9.2c0.4,1.5,0.7,2.2,1.6,3.4c1.2,1.7,2.9,3.1,3.9,4.9c0.5,0.9,0.6,1.9,1.2,2.9c0.1,0.2,0.5,0.4,0.7,0.3
					c1.7-0.7,2.4-1.6,2.8-3.4c0.9-4.3-1.2-6.5,4.3-8.5c1.7-0.6,2.8-0.5,3.9-2c0.4-0.5,0.5-1,0.7-1.6c1.4-4-0.2-2.9,2-5.3
					c0.2-0.2,0.3-0.5,0.1-0.8c-1.3-1.8-1.9-3.7-2.5-5.6c-0.4-1.4,0.4-1.6-0.7-2.8c-1.6-1.8-4.1-0.7-6.2-1.1c-3-0.5-3.9-1-6.9,0.2
					c-4.4,1.7-8-1.1-12.2,0.5c-0.7,0.3-0.4,1.5,0.3,1.2c3.7-1.4,5.3,1.1,8.5,0.8c2.5-0.2,4.3-1.9,6.9-2c1.5,0,4.5,0.3,6.1,0.8
					c4.5,1.5,2.3,2.5,3.1,5.3c0.1,0.5,0.7,0.8,0.9,1.3c1.7,3.8,0.6,1.2-0.6,3.7c-0.5,0.9,0,1.7-0.2,2.6c-1.3,5.4-5.4,2-7.6,5.3
					c-0.6,0.9-0.7,2.2-0.8,3.2c-0.2,1.6-0.6,6.2-2.6,4.6c-0.6-0.5-2-3.4-2.6-4.3c-3.2-4.4-2.5-4.4-3.3-7.9c-0.6-2.9-2.5-5.1-4.5-7.1
					c-0.7-0.7-1.5-1.4-2.2-2.2c-1.2-1.3-2.2-1.5-0.7-3.1c1.7-1.8,3.9,0.1,6,0.8C417.2,443.4,417.5,442.2,416.8,441.9L416.8,441.9z"
					/>
			</g>
		</g>
	</g>
	<g opacity="0.7">
		<g>
			<path fill="#A78C80" d="M403.2,874.5c0.1-1.9,0.3-4.7,1.2-7c-1.4,1.2-2.6,2.5-3,3.2c-2,3.4-3,7.6-3.8,11.4
				c-1.5,7.4-1.6,15.1-2.5,22.6c-0.9,7.8-2,15.4-2.4,23.3c-0.3,6.5-2.6,12.8-2.3,19.3c0.7,1,1.6,1.4,2.9,1.7
				c0.1-17.3,0.1-34.7,4.9-51.5C400.4,889.7,402.8,882.7,403.2,874.5z"/>
		</g>
	</g>
	<g>
		<g>
			<path fill="#432A2B" d="M449,780.9c-2-0.5-2,1.9-3.3,2.6c-2.2,1-4.1-1.1-6.7,0.5c-3.5,1.7-4.7,7.3-6.3,11
				c-1.9,9.1-4.3,22.6,0.4,31.2c2.1,2.9,5.1,5.7,8.1,8.4c3,2.7,9.6,2.3,14.1,2.8c4.2-0.4,7.4-1.6,11.8-3.5c5-1.5,9.8-1.6,14.8-3.1
				c9.6-2.5,11.5-11.6,14.5-20c2.3-9.6,2.6-17.4-6-23.8c-5.4-5.1-12.7-9.8-19.9-12.1c-3.7-1.6-7.8-2.7-12.2-0.8
				c-2.9,2.1-8.1,5.1-10.4,7.5c-0.7,1.1-1.1,1.7-0.9,2.6"/>
		</g>
		<g opacity="0.85">
			<g>
				<path fill="#522929" d="M465.1,808.5c-15.8,3.1-19.2-16.7-14.9-29.2c-0.5,0.4-0.9,0.7-1.3,1.1c-1.6-0.1-1.7,2-2.9,2.7
					c-2.2,1-4.1-1.1-6.7,0.5c-3.5,1.7-4.7,7.3-6.3,11c-1.9,9.1-4.3,22.6,0.4,31.2c2.1,2.9,5.1,5.7,8.1,8.4c3,2.7,9.6,2.3,14.1,2.8
					c4.2-0.4,7.4-1.6,11.8-3.5c5-1.5,9.8-1.6,14.8-3.1c9.6-2.5,11.5-11.6,14.5-20c2.3-9.6,2.6-17.4-6-23.8c0,0,0,0,0,0
					C485.4,796.8,475.5,806.5,465.1,808.5z"/>
			</g>
		</g>
		<g>
			<g>
				<path fill="#432A2B" d="M481.2,802.2c3.2,0,3.2-5,0-5C478,797.2,478,802.2,481.2,802.2L481.2,802.2z"/>
			</g>
		</g>
		<g opacity="4.000000e-02">
			<g>
				<path fill="#FFFFFF" d="M481.1,802.8c-1.7,1.9-4.1,3-6.1,4.4c-2,1.5-3.9,3.8-3.6,6.3c0.2,2,1.9,3.7,3.9,4.3c2,0.6,4.1,0.2,6-0.7
					c4.5-2.1,7.4-7.1,6.9-12c-0.2-1.8-1-3.8-2.8-4.1c-2.8-0.5-5.6,3.8-7.9,2.1"/>
			</g>
		</g>
		<g opacity="0.27">
			<g>
				<path fill="#3A2527" d="M449.2,783c-2.7,7-1,14.6,3,20.7c1,1.5,2.7,3,3.5,4.6c1.7,3.6-1.3,5.7-2.8,8.2c-1.5,2.6-2.2,5.3-1.1,8.2
					c0.8,2,3.3,2.5,4.6,0.6c2.7-4.2,5.1-9.6,8.5-13.1c1.6-1.6,3.9-2.2,5.6-3.5c1.9-1.4,3.2-3.3,4.9-5c4.9-4.7,11.6-7.3,13.4-14.5
					c-1.6-0.4-3.2-0.9-4.8-1.3c-1,7.3-8.7,9.2-14.2,12.4c-5,2.9-9.3,6.7-13.6,10.6c-2.4,2.2,1.1,5.7,3.5,3.5
					c5.9-5.3,11.8-9.3,18.8-13c5-2.6,9.5-6.3,10.3-12.2c0.4-3.1-4-4.5-4.8-1.3c-1.1,4.2-4.7,6.4-7.9,8.9c-2.7,2-4.8,4.5-7.3,6.8
					c-2.9,2.7-6.4,3.5-8.8,6.9c-2.9,4-5.3,8.3-8,12.4c1.5,0.2,3,0.4,4.6,0.6c-1.5-3.8,3.1-6.9,4.3-10.2c0.9-2.6,0.6-5-0.9-7.4
					c-2-3.3-4.7-5.8-6-9.6c-1.5-4-1.5-7.9,0-11.9C455.2,781.3,450.4,780,449.2,783L449.2,783z"/>
			</g>
		</g>
	</g>
	<g>
		<g>
			<path fill="#ABA177" d="M418.7,757.8c2.3-4.3,4.7-8.7,8.6-11.6c4.5-3.3,10.3-4.2,15.8-5c4-0.6,8-1.1,11.9-0.5
				c3.9,0.6,7.9,2.6,9.9,6.1c-4-4.2-5.2-10.8-2.9-16.2c-2.5,1.5-3,5.3-5.4,7c-1.1,0.7-2.4,1-3.7,1.2c-4.4,0.7-8.7,1.5-13.1,2.2
				c-5.5,0.9-11.1,1.9-15.8,4.7c-4.8,2.8-8.5,8-8.1,13.5"/>
		</g>
		<g>
			<g>
				<path fill="#ABA177" d="M419.8,758.4c4.4-8.1,9.1-13.3,18.4-15.2c8.3-1.6,20.1-4,25.7,4.2c0.7-0.5,1.3-1,2-1.5
					c-3.7-4.3-4.5-9.7-2.5-14.9c0.5-1.3-1.2-1.9-2.1-1.2c-1.6,1.3-2.1,2.7-3.3,4.3c-2.4,3.2-5.4,3.6-9.1,4.2
					c-6.1,1-12.4,1.7-18.3,3.4c-8.3,2.4-16,8.3-15.9,17.6c0,1.6,2.5,1.6,2.5,0c-0.2-13.5,15.6-15.8,25.8-17.5
					c4.1-0.7,9.4-0.7,13.1-2.4c3.5-1.6,4-5.5,6.8-7.7c-0.7-0.4-1.4-0.8-2.1-1.2c-2.3,6.1-1.1,12.4,3.2,17.4c0.9,1.1,2.8-0.3,2-1.5
					c-5.9-8.6-16.5-7.2-25.5-5.8c-4.8,0.7-9.8,1.8-13.8,4.8c-4.1,3-6.7,7.6-9.1,12C416.9,758.6,419.1,759.9,419.8,758.4L419.8,758.4
					z"/>
			</g>
		</g>
	</g>
	<g>
		<g>
			<path fill="#5B7D39" d="M485.4,723.8l0.6-3.7C485.1,721.5,484.7,722.8,485.4,723.8z"/>
		</g>
		<g>
			<path fill="#6A2631" d="M531.5,734.8c-1.5,1.2-0.3,4.9-0.8,6.7c0,2.2-0.5,4-0.9,5.9c-0.6,3.2-2.1,6.6-4.8,8.4
				c-3,2.4-6.3,3.1-9.2,4.1c-4.2,0.9-8.2,2.6-12.4,3.5c-7.3,2.4-13.7,1.2-20.8-1.3c-8.9-2.9-17.4-7.7-20.2-16.7
				c-2.3-6.5-2.9-17.7,1.9-24c1.6-2.5,5.1-4.6,7.8-6.5c2.5-2.7,5-5.4,7.6-7.3c5.8-5.6,17.3-11.1,24.9-8.4
				c8.1,3.1,13.2,8.6,18.5,14.9c5.3,6.3,8.7,14.3,8.3,22.7"/>
		</g>
		<g>
			<g>
				<path fill="#572B2F" d="M504.8,699.4c-7.3-2.6-18.2,2.3-24.1,7.7c1.7,5,12,3.8,16.4,4.9c2.2,0.5,4.5,1.8,5.7,3.7
					c1.2,1.8,0.7,3.2,0.6,5.2c-0.1,4,2.5,7.4,6.4,8c1.9,0.3,3.6,0.4,5.4,1.4c3.3,1.8,7.5,5.8,6.5,10c-2,8-16.8,9.6-23.3,9.4
					c-6.4-0.2-13.4-3.3-18-7.6c-4-3.7-3.5-6.2-3.1-11.2c0.4-6.2-1.6-12.3-6.8-14.5c-2.3,1.5-4.7,3.2-6,5.2c-4.8,6.3-4.1,17.5-1.9,24
					c2.8,9,11.2,13.8,20.2,16.7c7.1,2.4,13.5,3.7,20.8,1.3c4.2-0.9,8.2-2.6,12.4-3.5c2.8-1,6.2-1.8,9.2-4.1c2.7-1.9,4.1-5.2,4.8-8.4
					c0.5-1.8,1-3.7,0.9-5.9c0.5-1.8-0.7-5.5,0.8-6.7l0,2.2c0.4-8.4-3-16.4-8.3-22.7C517.9,708,512.8,702.5,504.8,699.4z"/>
			</g>
			<g>
				<g>
					<path fill="#572B2F" d="M505.1,698.2c-8.9-2.7-18.7,2.3-25.4,8c-0.4,0.4-0.4,1-0.2,1.5c4.4,9.4,22.2-0.4,22.6,12.4
						c0.1,4.2,1.4,7.8,5.7,9.4c3.1,1.2,6,0.9,8.8,3.1c4.4,3.5,5,8.3,0.4,11.5c-9,6.2-23.8,5.2-32.5-0.5c-3.7-2.4-6.1-4.9-6.2-9.5
						c-0.1-2.7,0.4-5.2,0.1-7.9c-0.6-4.8-2.9-8.8-7.3-11c-0.4-0.2-0.9-0.3-1.3,0c-9,6.2-11.5,15.3-9.6,26c1.9,10.7,9.1,17.2,18.9,21
						c6,2.4,12.6,4.3,19.1,3.7c6.6-0.7,13.6-3.3,19.9-5.4c4.8-1.6,9.2-3.7,11.5-8.4c1.1-2.2,1.7-4.8,2.1-7.2
						c0.4-2.6-0.5-7.4,0.9-9.5c-0.8-0.2-1.6-0.4-2.3-0.6c0,0.7,0,1.5,0,2.2c0,1.6,2.5,1.6,2.5,0C533.1,720.4,520,704.3,505.1,698.2
						c-1.5-0.6-2.1,1.8-0.7,2.4c13.9,5.7,26.1,21.1,25.9,36.3c0.8,0,1.7,0,2.5,0c0-0.7,0-1.5,0-2.2c0-1.3-1.6-1.6-2.3-0.6
						c-2,2.9-0.7,8.1-1.5,11.5c-1.6,7.4-5.8,10.7-12.8,12.9c-5.4,1.7-11,3.6-16.6,4.6c-6.9,1.2-14-1-20.3-3.6
						c-10.7-4.4-16.9-12.4-17.1-24.1c-0.1-5,0.7-10.4,4.1-14.3c2.9-3.4,5.3-4.2,7.7-0.3c1.8,2.9,2.1,6.5,2,9.8
						c-0.2,3.2-0.6,6.3,1.1,9.2c2.1,3.7,6.5,6.4,10.3,8.1c6.8,3.1,14.1,3.2,21.3,1.8c5.3-1,12.8-3.4,14.2-9.4
						c0.8-3.4-1.1-6.5-3.4-8.7c-1.4-1.4-3.1-2.5-5-3.2c-2.1-0.8-4.5-0.6-6.5-1.6c-5.5-2.9-1.3-10.3-6.3-14.2
						c-2.7-2.1-6.1-2.4-9.4-2.6c-2.3-0.2-4.6-0.2-6.8-0.9c-0.6-0.2-3.5-1-3.4-2c0-0.2,2.8-1.8,3.5-2.3c5.4-3.5,12.4-6.2,18.8-4.3
						C506,701.1,506.6,698.7,505.1,698.2z"/>
				</g>
			</g>
		</g>
		<g opacity="0.41">
			<g>
				<path fill="#462729" d="M496.1,711.2c3.7,0.8,6.1,4.5,7.6,8c1.5,3.5,2.7,7.4,5.6,9.9c2,1.7,4.5,2.5,6.8,3.8
					c2.3,1.2,4.5,3.2,4.8,5.7c0.5,3.5-2.9,6.6-6.4,7.4c-3.5,0.8-7.1,0.1-10.7,0c-3.5-0.1-6.9,0.4-10.4,0.2c-3.5-0.2-7.1-1.2-9.4-3.7
					c-1.4-1.5-2.3-3.4-3.4-5.2s-2.8-3.3-4.9-3.5s-4.3,1.7-3.8,3.7c0.2,0.8,0.8,1.4,1.3,2c5.1,5.7,11.4,12,19,11.2
					c2.7-0.3,5.3-1.4,7.9-2.1c3.6-0.9,7.4-0.9,11.1-1.5s7.5-1.9,9.9-4.7c1-1.2,1.8-2.7,1.5-4.3c-0.4-3.3-4.4-4.5-7.2-6.2
					c-8.8-5.6-7.8-19.9-16.3-25.9c-2-1.4-4.6-2.2-6.9-1.4c-2.3,0.8-4,3.6-3,5.8c0.9,1.9,3.1,2.7,5.2,3s4.3,0.2,6.1,1.3
					c2.3,1.3,3.4,4.1,3.6,6.8"/>
			</g>
			<g>
				<g>
					<path fill="#462729" d="M495.8,712.4c5.7,1.9,6.7,8,9.1,12.7c1.9,3.8,4.6,5.8,8.5,7.7c3.2,1.6,9,4.3,5,9.5
						c-2,2.7-6,2.7-9.1,2.7c-5.6-0.1-11.6,0.4-17.1-0.3c-3.9-0.5-6.7-2.1-8.8-5.4c-0.9-1.3-1.5-2.7-2.6-3.9c-1.7-2-4.2-3.5-6.9-2.6
						c-8,2.7,1.2,10.7,4,13.2c2.8,2.5,6,4.7,9.7,5.6c4.1,1,7.5-0.2,11.4-1.3c7.5-2.1,18.9-0.4,23.8-7.9c4.8-7.3-4.7-9.4-8.5-13.2
						c-5.6-5.5-5.9-14.3-10.5-20.5c-3.2-4.3-11.6-9-15.1-2.4c-1.3,2.5-0.6,5.1,1.6,6.7c1.3,1,2.8,1.2,4.3,1.5
						c1.4,0.3,2.2,0.1,3.7,0.7c3.2,1.2,4.5,3.2,5,6.5c0.2,1.6,2.7,0.9,2.4-0.7c-0.4-2.4-1.1-4.9-2.9-6.6c-2.4-2.1-4.9-1.7-7.7-2.5
						c-0.4-0.1-0.8-0.1-1.2-0.2c0.1-5.7,1.5-7.4,4.2-5.2c1,0.5,1.6,0.9,2.4,1.7c1.2,1.1,2.1,2.6,2.9,4c1.7,3,2.7,6.2,3.9,9.3
						c2,4.9,4.4,9.1,9,11.9c2.9,1.7,3.4,1.1,3.3,5.4c0,3.4,0.5,3.5-2,4.9c-1.1,0.6-2.4,1.1-3.6,1.4c-4.2,1.2-8.7,1-13,1.9
						c-4.5,1-8.6,3.2-13.3,1.7c-4.5-1.4-8.1-4.7-11.3-8.1c-0.3-0.3-2.1-2.1-2.1-2.3c0.7-0.4,1.3-0.8,2-1.2c1.1-1.6,2-1.7,2.7-0.3
						c1.4,0.9,2.2,3.4,3.2,4.8c1.6,2.1,3.5,3.6,6,4.5c3.1,1.1,6.5,1.1,9.8,1c4.4-0.2,8.8,0.3,13.2,0.2c4.7-0.1,10.6-2.3,11.1-7.7
						c0.8-7.5-9.2-8.5-13-12.7c-5.1-5.6-4.6-14.5-12.8-17.2C494.9,709.5,494.3,711.9,495.8,712.4L495.8,712.4z"/>
				</g>
			</g>
		</g>
		<g opacity="0.41">
			<g>
				<path fill="#462729" d="M497.2,713.8c3.1,0.8,4.9,4.2,5.3,7.4c1.2,8.5-5.3,17.5-13.8,18.9c2.7,0.4,4.9-2,6.5-4.2
					c1.6-2.2,3.6-4.7,6.3-4.7c1.5,0,2.9,0.9,4.2,1.7c3.9,2.5,7.8,5,11.7,7.5c0.9-2.5-0.5-5.4-2.6-7c-2.2-1.5-5-1.9-7.7-2
					c-1.6,0-3.7-0.4-3.9-2c-0.1-0.6,0.1-1.1,0.3-1.7c2-6.4-3-14.1-9.7-14.8"/>
			</g>
			<g>
				<g>
					<path fill="#462729" d="M496.8,715c6.3,2.6,5.1,11.3,2.5,16c-2.4,4.2-6.2,6.9-10.9,8c-1.4,0.3-1.1,2.5,0.3,2.5
						c4.1,0,5.9-2.9,8.4-5.8c2-2.3,3-3.6,6.7-2.4c1.3,0.4,2.6,1.7,3.8,2.4c3.1,2,6.1,3.9,9.2,5.9c0.7,0.4,1.7,0,1.8-0.7
						c0.7-3.2-0.3-6.1-3-8.2c-1.4-1.1-3.2-1.7-5-2c-1-0.2-2.6,0-3.6-0.3c-0.8-0.7-1.6-1.4-2.4-2c0.2-0.5,0.3-0.9,0.3-1.4
						c-0.4-3.8,0-6.3-2.4-9.6c-2.1-2.9-5-4.7-8.5-5.3c-1.6-0.3-2.3,2.1-0.7,2.4c3.9,0.6,7,3,8.5,6.7c0.9,2.3,0.9,4.1,0.4,6.5
						c-0.1,0.7-0.5,1.6-0.3,2.3c0.3,1.2,1.2,2,2.3,2.4c4.2,1.7,13.8-0.5,11.9,7.8c0.6-0.2,1.2-0.5,1.8-0.7c-3.3-2.1-6.7-4.3-10-6.4
						c-1.9-1.2-4.1-2.9-6.5-3c-6.1,0-7,8.8-12.8,8.9c0.1,0.8,0.2,1.6,0.3,2.5c6.7-1.5,12.2-6.5,14.1-13.1c1.7-5.9,0.5-13.1-5.7-15.6
						C496,712,495.4,714.4,496.8,715L496.8,715z"/>
				</g>
			</g>
		</g>
		<g opacity="4.000000e-02">
			<g>
				<path fill="#E9E8E9" d="M487.3,721.9c-1.4,0.8-1.9,2.8-1.5,4.3c0.5,1.6,1.7,2.8,3,3.8c0.4,0.3,0.9,0.6,1.4,0.5
					c0.5-0.2,0.7-0.9,1-1.4c0.7-1.1,2.7-0.9,3.2,0.3c0.7-1.3,1.4-2.6,2-3.8c0.2-0.4,0.4-0.8,0.3-1.3c-0.1-0.4-0.4-0.6-0.6-0.9
					c-1.9-1.7-3.9-3.3-6.2-4.5c-0.8-0.4-1.7-0.9-2.5-0.7c-2,0.4-2,3.2-1.6,5.2"/>
			</g>
			<g>
				<g>
					<path fill="#E9E8E9" d="M486.7,720.8c-2.7,1.9-2.8,5.3-0.9,7.9c0.8,1.1,2.1,2.6,3.5,3c0.7,0.2,1.3,0.1,1.9-0.3
						c0.5-0.3,1.7-2.2,2.3-1.3c0.5,0.7,1.7,0.9,2.2,0c1-1.9,3.4-4.7,2.1-6.9c-1.3-2.2-4.8-4.2-7-5.4c-4.8-2.6-6.8,1.7-6,6
						c0.3,1.6,2.7,0.9,2.4-0.7c-0.1-0.6-0.2-1.1-0.2-1.7c0-0.8,0.5-1.9,1.5-1.9c1.1,0,2.9,1.7,3.8,2.3c0.8,0.6,2.9,1.8,3.1,2.8
						c0.2,1-1.5,3.3-2,4.2c0.7,0,1.4,0,2.2,0c-1-1.5-2.9-2.2-4.5-1.1c-1.2,0.8-0.8,1.9-2.4,0.5c-1.4-1.2-2.7-3.9-0.7-5.3
						C489.2,722.1,488,719.9,486.7,720.8L486.7,720.8z"/>
				</g>
			</g>
		</g>
		<g opacity="3.000000e-02">
			<g>
				<path fill="#E9E8E9" d="M506.1,734.8c-4.6,0.1-8.6,2.7-10.5,6.9c-0.3,0.8-0.1,1.5,0.7,1.8c2.1,0.7,4.1,0.3,6.1-0.6
					c2.4-1.1,6.2-3.8,8.3-1c0.6-0.6,1.2-1.2,1.8-1.8c-2.1-2-5.2-5.1-8.2-5.8c-2.6-0.7-4.3,2.6-5.8,4.3c-0.9,1,0.3,2.9,1.5,2
					c2.3-1.7,4.8-2,7.4-1c1.3,0.5,1.9-1.2,1.2-2.1c-4.1-4.8-11.5-2.9-13,3.2c-0.2,1,0.9,2,1.8,1.4c2.9-1.8,9.4-5.2,11.1,0.1
					c0.5,1.5,2.9,0.9,2.4-0.7c-2.2-7.1-10.3-4.3-14.8-1.6c0.6,0.5,1.2,0.9,1.8,1.4c1-4.3,5.9-5.4,8.8-2.1c0.4-0.7,0.8-1.4,1.2-2.1
					c-3.2-1.3-6.6-0.8-9.4,1.2c0.5,0.7,1,1.3,1.5,2c0.7-0.9,1.5-1.8,2.3-2.6c1.2-1.2,1-1.1,2.5-0.3c2.1,1.2,3.9,2.7,5.7,4.4
					c1.2,1.1,2.7-0.5,1.8-1.8c-4.4-5.7-10.7,2.7-15.5,1c0.2,0.6,0.5,1.2,0.7,1.8c1.5-3.4,4.6-5.6,8.4-5.7
					C507.7,737.3,507.7,734.8,506.1,734.8L506.1,734.8z"/>
			</g>
		</g>
	</g>
	<g>
		<g>
			<path fill="#6A2631" d="M447,572.3c0.2,0.9-0.2,1.5-0.5,2l-0.6-0.4c2-1.9,4-3.7,6.2-4.7c4.8-2.5,10.7-1.8,15.3-2.8
				c3.7-0.8,7.8,0.3,11.3-1.4c5.3-2.1,9.7-4,15.8-4.8c9.1-0.5,18.3,2.4,21.8,11.8c3.6,7.9,7.4,19.1,6.1,28.6
				c-2.1,10.6-13.7,12.6-22.9,14.5c-4.1,1.3-8.9,1.4-12.9,2.7c-4.2,0.4-8.3,1.8-12.9,0.3c-6.9-2.9-10.7-9.3-15.2-14.6
				c-4.7-6.2-14.5-7-17.2-15.1c-1.7-5.9,2.1-13,6.6-16.4"/>
		</g>
		<g opacity="0.53">
			<g>
				<path fill="#362425" d="M469.8,616.4c0.1-0.1,0.1-0.2,0.2-0.3c-4.4-6.6-7.8-13.9-9.7-21.3c-1.9-7.6-0.1-13.2,5.2-18.9
					c3.2-3.5,6.8-6.5,10.2-9.6c-2.7,0.4-5.6,0-8.3,0.6c-4.6,1-10.5,0.3-15.3,2.8c-1.8,0.8-3.5,2.2-5.1,3.6c0,0,0-0.1,0-0.1
					c-4.2,3.6-7.4,10.1-5.8,15.7c2.7,8.1,12.5,8.9,17.2,15.1C462,608.1,465.1,613.1,469.8,616.4z"/>
			</g>
		</g>
		<g opacity="0.44">
			<g>
				<path fill="#432A2B" d="M506.9,562.5C506.9,562.4,506.9,562.4,506.9,562.5c-1.7-0.8-3.5-1.3-5.4-1.6c-0.3,1,0.3,1.8,1.7,2.3
					c0.7,0.5,1.4,1,2.1,1.5c2.3,1.8,4.1,4.2,5.7,6.7c3.2,4.9,6,11,4.1,16.9c-0.2,0.7-1.1,1-1.6,0.4c-5.9-6.2-8.2-17.9-16.5-21.7
					c-1.2-0.6-3.5-1.2-4.7,0c-0.8-0.2-0.9-0.1-0.3,0.4c0.2,0.3,0.5,0.5,0.8,0.8c1.4,1.7,3.3,3.1,5,4.7c3.6,3.3,7.2,6.7,9.9,10.8
					c3.9,5.9,3,12.2-4.6,13.9c-7.5,1.7-21.2-3.3-27.3,2.7c6.8,1.7,15.1,1,22,0.6c5.3-0.3,11.5-2.4,16.7-0.6c0.6,0.2,0.8,0.9,0.5,1.4
					c-4,6.3-11.7,8.2-18.7,9.1c-6.7,0.9-19-0.5-24,5.2c0.6,0.9,1.3,1.8,2,2.7c4.3,1.1,8.2-0.1,12.2-0.5c4.1-1.3,8.9-1.4,12.9-2.7
					c9.2-2,20.8-4,22.9-14.5c1.4-9.4-2.5-20.7-6.1-28.6c-1.6-4.5-4.6-7.4-8.2-9.3C507.5,563,507.1,563,506.9,562.5z"/>
			</g>
		</g>
	</g>
	<g>
		<g>
			<path fill="#432A2B" d="M456.7,470.5l0.4-0.6c-5.9,1.7-13.9,9.2-16.8,13.7c-4.7,7.3-3.5,17.6-1,24.8c3.1,7.5,8.3,14.1,14.8,17.6
				c3.7,1.6,7.2,2.3,10.9,1.5c5.2-0.6,9.4-1,14.6-1.7c3.9,0.1,9.1-0.5,11.8-3.5c3.3-2.6,5.1-7.8,5.8-11.3c2.8-9.3,1.1-17.6-3.1-25.8
				c-3.8-6.4-8.1-13.2-14.6-16.6c-4.3-2-7.4-3.2-12-2.3c-3.3,0.2-8.7,2.3-12.2,4c-0.4,0.6-1.1,1.7-2,1.9"/>
		</g>
		<g opacity="0.53">
			<g>
				<path fill="#362425" d="M479.2,468.5c-4.3-2-7.4-3.2-12-2.3c-3.3,0.2-8.7,2.3-12.2,4c-0.1,0.1-0.2,0.3-0.3,0.4
					c-4.2,2-9,6-12.2,9.6c3.3-1.7,6.5,0.8,8.7,4.1c3.5,0.3,6,2.8,9.2,6c6.7,6.9,15.2,5.2,23.5,7.5c-3.4-7.1-7.4-13.9-11.3-20.6
					c-0.6-0.9,0.9-1.9,1.6-1.1c6.4,6.3,8.6,22.3,8.8,31.7c0.2,7.3-0.4,4.9-7.3,6.3c-15.7,3.1-30.7-6-37.5-19.6c0,0.7-0.7,1-1.2,0.8
					c-0.1,4.6,0.9,9.3,2.2,13c3.1,7.5,8.3,14.1,14.8,17.6c3.7,1.6,7.2,2.3,10.9,1.5c5.2-0.6,9.4-1,14.6-1.7
					c3.9,0.1,9.1-0.5,11.8-3.5c3.3-2.6,5.1-7.8,5.8-11.3c2.8-9.3,1.1-17.6-3.1-25.8C490.1,478.7,485.7,471.9,479.2,468.5z"/>
			</g>
		</g>
	</g>
	<g>
		<g>
			<path fill="#6A272E" d="M460.9,460.4c-3.2,7.4-0.5,17.9,3.8,24.7c4.5,5.3,13.3,10.2,20.7,11c17,3.1,30.6-8,39.3-21.4
				c2.5-3.9,4-6.2,2.1-10.6c-1-4.6-3.8-8.8-6.1-12.7c-3.8-6.4-9-13-16.1-16.8c-13.9-6.7-36.7,6.4-41.7,19c-2,4.3-2.1,8.2-2.6,12.6"
				/>
		</g>
		<g>
			<g>
				<path fill="#572B2F" d="M459.3,464.6c0.5,3.9-0.6,7.4,1,11.4c1.4,3.3,3.5,6.5,5.5,8.9c3.8,4.3,8.7,8.6,14,11.5
					c2.8,1.2,6,2.7,9.2,2.4c3.9-0.5,8.3-1.8,12.4-2.6c7.6-1.6,12.8-6,18.3-10.8c2.2-1.6,4.4-3.1,5.6-5.9c1.3-3.9,0.7-10.3,0.2-14.1
					c-0.9-7.8-5.2-14.1-10.1-20.3c-3.5-4.7-7.6-8.5-13-12c-6.3-4.1-12.9-3-19.4,0.5c-6.1,3.8-11.8,9-9.8,16.9
					c1.6,5.8,11.9,10.1,16.6,12c6.3,2.3,12.3,5,19.2,5.3c2.5-0.2,7.3-1.2,9.2,0.6c2.2,2.1-0.6,5.6-2,7.7
					c-3.7,4.8-10.2,8.3-15.4,10.9c-3.3,1.4-6.3,2.4-10.2,2.9c-3.2,0.3-6.5,1.7-10,0.7c-5.3-1-11.8-4.7-16.2-8.1
					C460.2,478.9,458,470.3,459.3,464.6"/>
			</g>
			<g>
				<g>
					<path fill="#572B2F" d="M458.1,464.6c0.4,5.7-0.1,10.1,2.8,15.2c3.1,5.5,7.5,10,12.5,13.8c3.8,2.9,8.2,5.6,12.9,6.2
						c5.4,0.8,11.9-1.5,17.1-2.9c4.7-1.3,8.8-3.8,12.6-6.8c3.5-2.8,8.8-5.9,10.6-10.2c1.6-4.1,1-9.2,0.5-13.4
						c-0.6-5.6-2.5-10.6-5.5-15.4c-5.3-8.3-13.5-18.9-23.5-21.5c-9-2.4-20.8,3.6-25,11.9c-4.1,8,1.1,14.3,7.9,18.1
						c3.7,2.1,7.8,3.7,11.8,5.2c5.2,1.9,10.8,4.3,16.4,4.2c3.5-0.1,9.4-2,7.5,4.3c-0.9,3-5.1,5.8-7.4,7.5c-5.2,3.6-11,6.4-17.2,7.6
						c-4.6,0.8-9.1,1.7-13.7,0.2c-3.4-1.1-6.6-2.8-9.5-4.7c-6.5-4.2-9.7-11-8.3-18.8c0.3-1.6-2.1-2.2-2.4-0.7
						c-1.2,6.7,0.5,14.6,5.8,19.1c3.5,3,8,5.4,12.3,7c4.7,1.8,8.3,1.6,13.2,0.8c9.3-1.6,18.3-5.1,25.4-11.7
						c3.3-3.1,9.4-11.4,1.8-13.2c-1.7-0.4-3.5-0.1-5.2,0c-3,0.3-5.7-0.1-8.6-0.7c-5.3-1.3-10.6-3.4-15.5-5.5
						c-3.8-1.7-8.1-3.6-10.9-6.8c-5.6-6.2,0.1-13.6,5.5-17.4c6.1-4.3,13.3-5.5,19.9-1.7c5.5,3.2,9.9,8.1,13.7,13.1
						c3.5,4.6,6.8,9.5,8.2,15.3c1.4,5.6,2.7,15.1-1.8,19.6c-3.9,3.9-9,7.9-13.9,10.4c-3.1,1.6-6.4,2.4-9.8,3.2
						c-3.8,0.9-8.3,2.5-12.3,1.8c-6.6-1.1-12.8-6.4-17.3-11c-2.7-2.7-5.1-5.9-6.7-9.4c-1.9-4.1-1.3-8-1.6-12.4
						C460.4,463,457.9,463,458.1,464.6L458.1,464.6z"/>
				</g>
			</g>
		</g>
		<g opacity="0.4">
			<g>
				<path fill="#4E2C2F" d="M520,467.6l-0.1-0.7c-5,6.9-10.8,13.9-19.1,17.4c-8.7,3.3-20.2,3.6-29-0.3c-0.4-0.3-1-1.2-1.9-0.7
					c-1.2,1,1,3,1.8,3.6c2.1,1.4,5.7,1.3,8.2,1.1c5.6,0.6,10.4,1.4,15.8-0.5c5.7-2.3,9.5-6.4,14.9-10c4.4-3.1,8.4-4.7,10.6-9.8
					c-1.7-1.1-4.3,0.2-6.1,0.2c-2.1,0.4-3.9,0.5-6.1,0.2c-3.5-1.1-7.1-1-10.3-2.5c-3.2-1.5-5.9-3.8-8.4-5.4
					c-2.5-1.6-6.6-5.5-9.8-5.1c-6.8,0.4,0.8,5.3,3.1,6.2c4,2,8.4,3.6,12,5.4c4,2,6.8,1.4,11.3,1.9c4.2,0.9,8.8,2.1,12.2-0.4"/>
			</g>
			<g>
				<g>
					<path fill="#4E2C2F" d="M521.2,467.2c0-0.2-0.1-0.5-0.1-0.7c-0.2-1.2-1.7-1.1-2.3-0.3c-4.1,5.5-8.6,11-14.5,14.8
						c-5.7,3.6-12.9,4.8-19.6,4.5c-3.5-0.1-7.2-0.7-10.5-1.9c-0.9-0.3-2.6-1.7-3.6-1.7c-2.8,0-2.8,2.6-1.4,4.4c2.4,3.2,6.5,2.9,10,3
						c5.8,0.1,11.4,1.5,17.1-0.7c6-2.3,10.8-7.3,16-10.8c4.1-2.7,7.6-4.9,9.8-9.5c0.4-0.8,0.1-1.5-0.7-1.8c-1.6-0.6-2.7-0.4-4.3-0.2
						c-3.8,0.5-6.6,0.7-10.5,0c-6.6-1.2-11.2-4-16.6-7.8c-1.7-1.2-13.3-8.9-13.5-2.1c-0.2,5.3,13.9,9.2,17.1,10.6
						c4.1,1.8,7.3,2.2,11.7,2.6c5.2,0.5,9.6,2.4,14.4-0.5c1.4-0.8,0.1-3-1.3-2.2c-4.3,2.5-8.7,0.5-13.2,0.1
						c-4.4-0.4-7.8-1.1-11.9-2.9c-3.2-1.4-6.6-2.7-9.7-4.4c-0.9-0.5-2.2-1-2.9-1.8c-0.5-0.3-0.9-0.7-1.3-1.1c1-1.2,2.3-1.2,3.7-0.1
						c6.1,2.5,10.3,8.4,16.7,10.5c3.3,1.1,7.2,1.9,10.6,2.1c3.2,0.2,7.2-1.7,10.3-0.6c-0.2-0.6-0.5-1.2-0.7-1.8
						c-2.3,4.8-6.7,6.9-10.8,9.9c-4,2.8-7.6,6.3-11.9,8.5c-6,3-12.3,1.7-18.7,1.4c-1.8-0.1-3.4,0-5.1-0.6c-0.5-0.2-2.4-1.3-2.4-1.3
						c1.8,0.5,3.6,1.5,5.5,2c7.9,2,17.2,1.7,24.8-1.5c8.3-3.5,14.3-10.8,19.5-17.9c-0.8-0.1-1.5-0.2-2.3-0.3c0,0.2,0.1,0.5,0.1,0.7
						C519.1,469.5,521.5,468.8,521.2,467.2L521.2,467.2z"/>
				</g>
			</g>
		</g>
	</g>
	<g>
		<g>
			<path fill="#BAAE80" d="M410.7,578c0.8,0,0.8-1.2,0-1.2C409.9,576.8,409.9,578,410.7,578L410.7,578z"/>
		</g>
	</g>
	<g>
		<g>
			<path fill="#BAAE80" d="M403.9,575c-1.7,2.1-0.1,5.6,2.5,6.7c2.5,1.1,5.5,0.5,8.2-0.1c4.6-1,9.3-2,13.9-3.1c3.8-0.8,8-2,10.1-5.3
				c1.4-2.3,1.4-5.1,1.3-7.7c-0.1-2.7-1-6.1-3.7-6.3c-1.9-0.1-3.5,1.7-4.1,3.5s-0.6,3.8-1.4,5.6c-1.7,4.3-6.9,6-11.5,6.3
				c-8.6,0.6-17.7-1.7-25.5,1.8c1.9,1.9,3.8,3.8,6.2,5s5.4,1.6,7.7,0.3"/>
		</g>
		<g>
			<g>
				<path fill="#BAAE80" d="M403.3,574.7c-1.4,2.5-0.7,5.3,1.7,7c4.1,3,10.6,0.4,14.9-0.6c9.7-2.1,21.4-2.9,20.5-15.5
					c-0.2-2.6-0.9-6.5-4.2-6.9c-3.9-0.4-4.7,4.1-5.5,6.7c-2.2,8.5-10.2,8.9-17.7,8.7c-6.7-0.2-13.2-0.8-19.6,1.7
					c-0.4,0.2-0.6,0.7-0.3,1c4,4,8.6,7.8,14.5,5.5c0.7-0.3,0.4-1.5-0.3-1.2c-3.7,1.4-8.5,0.2-11-3c-1.8-2.3-0.4-2.2,2.3-2.7
					c4.5-0.8,9.1-0.4,13.6-0.3c5.6,0.2,12.9,0.5,17.2-4c2.1-2.2,1.4-4.7,2.8-7c4.9-3,7.2-2.5,6.9,1.3c0.1,1.1,0.1,2.1,0,3.2
					c-0.5,4-2.4,6.3-5.9,7.7c-3.8,1.6-8,2.1-12,3c-2.3,0.5-4.6,1.1-7,1.5c-1.6,0.4-3.2,0.6-4.8,0.7c-4.9-0.7-6.6-2.9-5.1-6.4
					C404.8,574.6,403.7,574,403.3,574.7L403.3,574.7z"/>
			</g>
		</g>
	</g>
	<g>
		<g>
			<path fill="#BAAE80" d="M414,664.7c8.2-5.7,0.5-11.9-1.1-19.3c-1.3-5.9-0.8-12.1,1.7-17.7c1.7-3.8,9.3-16.5,15.1-12.5
				c0.3-0.8,0.6-1.5,1-2.3c-10.3-3.5-20.2,8.8-21.6,18.1c-2,13.4,9.8,23.8,14,35.5c0.4-0.5,0.8-1.1,1.2-1.6
				c-4.2-0.2-10.6-6.4-13.2,0.1c-0.3,0.8,0.5,1.5,1.2,1.6c2.1,0.2,4.1,0.6,6,1.2c-0.7-0.2,2.7,1.5,3.5,1.3c1.1-0.3,1.8-1.1,2.2-2.2
				c1.6-4.6-4.9-6.6-6.7-9.5c-3.7-5.7-6-15.1-5.5-21.7c0.3-4.2,1.5-8.9,3.4-12.7c2.3-4.9,8.2-10.3,13.6-5.4c1.2,1.1,3-0.7,1.8-1.8
				c-3.7-3.3-8.8-3.2-12.8-0.2c-5.5,4.1-7.6,12.8-8.3,19.3c-0.8,7.5,1.6,15.1,4.7,21.9c1.4,3.1,3.4,3.8,5.4,6.1
				c4.5,5.3-0.5,2.5-2.1,2.1c-1.7-0.5-3.4-0.7-5.2-0.8c0.4,0.5,0.8,1.1,1.2,1.6c1.2-3,8.2,1.5,10.8,1.7c0.8,0,1.5-0.8,1.2-1.6
				c-3.1-8.7-9.6-15.7-12.7-24.4c-1.9-5.5-1.9-11.1,1-16.2c3.2-5.6,9.2-12.2,16.2-9.8c1.4,0.5,2.1-1.5,1-2.3
				c-7.6-5.2-16.3,8.2-18.7,13.8c-2.2,5.2-2.9,10.8-2.2,16.3c0.4,2.9,1.2,5.7,2.3,8.4c1.6,3.7,5.1,7.7,0.4,10.9
				C411.4,663.4,412.6,665.6,414,664.7L414,664.7z"/>
		</g>
	</g>
	<g>
		<g>
			<path fill="#60272B" d="M465.9,598.8c-0.8-7.2-7.8-12.6-15-13.2c-7.2-0.6-14.2,2.7-19.8,7.4c-3.9,3.3-7.4,7.7-7.7,12.9
				s4.3,10.6,9.3,9.7c-4.9-0.9-10.7,0.1-13.3,4.4c-2,3.3-1.4,7.6-0.2,11.3c2.7,8.3,8.3,15.8,16.2,19.5c7.9,3.7,18.1,2.7,24.3-3.3
				c2,2.8,5.9,3.7,9.3,2.8c3.3-0.8,6.1-3.1,8.3-5.7c10.7-12.5,9.3-33.6-3.1-44.4c-1.5-1.3-3.3-2.6-5.3-2.9s-4.3,0.7-5,2.6"/>
		</g>
		<g opacity="0.45">
			<g>
				<path fill="#432A2B" d="M456.4,605.8c-4.3,5.3-11.1,6.5-17.3,3.8c-4-1.7-7.2-4.6-10.7-6.9c-1.1-0.7-2.4-1.7-3.8-1.9
					c-1.2,2.2-1.8,4.6-1.3,6.7c0.5,1.9,1.8,3.3,3.1,4.5c6.8,6.3,14.7,11,22.6,15.7c0.8,0.5,1.6,0.9,2.5,0.9c0.9,0,1.8-0.5,2.6-0.9
					c5.3-3,9.6-7.8,12.8-13.4c0.4-5.4,2.8-8.8,1.3-13.7c-0.9-3-4.1-7.2-6.5-10.4C461.4,596.2,459.3,602.3,456.4,605.8z"/>
			</g>
		</g>
		<g opacity="0.45">
			<g>
				<path fill="#432A2B" d="M483.2,614c-0.1,0-0.2,0.1-0.2,0.1c-5.5,2.7-6.6,10.8-8.9,15.8c-2.2,4.7-5.3,9.4-10.4,11.3
					c-2.9,1.1-5.5,0.8-8.1-0.6c-4.8-2.5-8.4-5.1-14.2-4.8c-6.6,0.3-13.2,2.7-19.4,1.4c3.1,5.7,7.7,10.6,13.5,13.3
					c7.9,3.7,18.1,2.7,24.3-3.3c2,2.8,5.9,3.7,9.3,2.8c3.3-0.8,6.1-3.1,8.3-5.7C484.5,636,486.3,624.2,483.2,614z"/>
			</g>
		</g>
	</g>
	<g>
		<g>
			<path fill="#BAAE80" d="M459.6,458.7c-2.1,3.1-2.4,7.3-0.7,10.6c0.3,0.6,0.7,1.1,1.3,1.2c0.9,0,1.2-1.2,1.3-2.1
				c0.2-3.2,0.4-6.4,0.6-9.6c1.6,0.3,3.4,0.3,4.7-0.6c1.4-0.9,2.1-2.8,1.3-4.2c-1.2-2-4.4-1.3-6.1,0.2s-2.8,3.8-4.9,4.9
				c-0.9,0.5-1.9,0.7-3,0.9c-9.4,1.5-19.3-0.2-27.6-4.7c7.7,8.6,21.7,10.6,31.5,4.6"/>
		</g>
		<g>
			<g>
				<path fill="#BAAE80" d="M459.1,458.4c-1.1,1.9-3.7,13.7,1.4,12.7c2.4-0.5,1.8-4.9,1.9-6.5c0.1-1.3-0.2-3.4,0.8-4.4
					c0.8-0.8,1.2-0.3,2.3-0.7c1.1-0.5,2-0.7,2.8-1.7c3.5-4.7-3.2-6.6-6.5-4c-2.2,1.8-3.4,4.2-6.2,5.3c-2.8,1.1-6.7,0.9-9.7,0.8
					c-6.7-0.2-13-2.1-18.9-5.1c-0.6-0.3-1.3,0.5-0.8,1c8.4,8.7,21.7,10.7,32.2,4.7c0.7-0.4,0.1-1.5-0.6-1.1
					c-10,5.7-22.7,3.9-30.7-4.5c-0.3,0.3-0.5,0.7-0.8,1c6.9,3.5,14.3,5.5,22.1,5.3c2.8-0.1,6.6-0.1,9.1-1.5c1.3-0.7,2.1-1.8,3.2-2.9
					c0.8-1,1.7-1.9,2.7-2.7c1.7,3.5,1.3,4.9-1.2,4.1c-0.3,0-0.6,0.3-0.6,0.6c-0.1,2.1,0.4,7.4-1.5,8.4c-1.8,0.9-1.5-0.8-1.5-2.6
					c0-2,0.7-3.9,1.7-5.6C460.6,458.3,459.5,457.7,459.1,458.4L459.1,458.4z"/>
			</g>
		</g>
	</g>
	<g>
		<g>
			<path fill="#ABA177" d="M461.7,310.6c2.8-0.8,5.5-1.5,8.4-1.8c2.9-0.3,6,0,8.6,1.4c2.6,1.4,4.6,4.1,4.5,7.1c0,1.5-0.3,3.4,1,4.1
				c0.9,0.5,2.2-0.1,2.8-1s0.7-2,0.8-3.1c0.8-6,3.7-11.8,8.1-16c-2.2-0.4-4.1,1.3-5.4,3c-1.3,1.7-2.4,3.8-4.3,4.8
				c-2.5,1.4-5.5,0.7-8.2-0.2c-3-1-6.1-2.1-9.3-2.3c-3.2-0.2-6.6,0.8-8.5,3.4"/>
		</g>
		<g>
			<g>
				<path fill="#ABA177" d="M461.8,311.2c7.4-2,18.6-4.4,20.7,6c0.4,1.8-0.5,4.8,2.5,4.9c2.2,0,2.8-2.2,3.2-3.9
					c1.5-6.4,3.3-11.6,8-16.5c0.4-0.4,0.1-1.1-0.4-1.1c-2.7,0-4.2,1.2-5.9,3.2c-1.7,2-2.5,4.3-5.3,5.2c-2.6,0.8-5.6-0.4-8.1-1.2
					c-5.8-1.8-12.3-3.3-16.9,1.8c-0.5,0.6,0.3,1.5,0.9,0.9c6.3-7,14.2-0.4,21.5,0c7,0.4,7.6-8.6,13.8-8.6c-0.1-0.4-0.3-0.7-0.4-1.1
					c-2.9,3-5.3,6.4-6.7,10.4c-0.6,1.5-0.7,6.5-1.7,7.5c-3.3,3.2-3.2-3.3-3.8-4.5c-3.7-8.5-14.8-6.1-21.6-4.2
					C460.7,310.2,461,311.4,461.8,311.2L461.8,311.2z"/>
			</g>
		</g>
	</g>
	<g opacity="0.65">
		<g>
			<path fill="#899D58" d="M84.5,618.4c0.2-0.5,0.7-0.8,1.2-0.7c7.1,1.5,8.6-2.9,13-6.9c3.4-3,6.9-3.5,11.3-3.6
				c12.9-0.1,21.6-12.7,25.8-23.8c0.2-0.5,0.7-0.8,1.2-0.7c7.3,1.3,14.6-5.8,20-9.7c5-3.6,9.7-6.3,16-6.8c5.2-0.4,9.7,0,14.6-2.3
				c3.8-1.8,7.5-3.9,11.2-5.8c2.7-1.4,5.4-2.4,7.5-4.6c0.9-0.9,1.6-2.1,2.7-2.8c1.5-0.9,3.2-0.9,4.9-0.8c6.3,0.3,12.5,1.7,18.9,1.8
				c6.6,0.1,10.8-5,17.2-5.2c6.5-0.2,12.7,3.5,19,2.2c5.9-1.2,6.5,2.8,10.1,6.5c6.3,6.5,15.6-0.9,22.1-3.5
				c6.8-2.6,14.3-1.2,19.5-7.2c0.3-0.3,0.8-0.3,1.1-0.1c3.8,2.6,7.2,6.2,11.4,8.2c5.7,2.7,9.5-3.5,11.4-8.4
				c-2.8-0.9-5.5-1.9-8.2-3.1c-11.2-4.9-21.8-10.5-32.6-14c-6.1-1.6-11.7-4-17.5-4.2c-5.8-0.2-11.9-1.8-16.9-1.5
				c-5.8-0.2-10.8,3.7-15.2,6.8c-9.1,4.8-19.6,6.3-29.6,7c-14.4,0.2-29,6.2-42.3,11.9c-13.2,5.7-22.5,16.4-34.9,22.6
				c-12.9,7.1-25.9,14.2-37.7,23.2c-4.4,3.1-9.3,7-12.4,9.9c-2.5,2-3.6,3.6-5.5,4.8c-3.6,3.6-5.2,2.6-9.1,4.8
				c-4.7,1.7-9.3,7-11.2,11.8c-1.1,2.8-1.4,5.2-1.1,7.5C78.3,633.9,82.2,625.6,84.5,618.4z"/>
		</g>
	</g>
	<g opacity="0.4">
		<g>
			<path fill="#899D58" d="M349.5,631.5c-3.2,0.6-6.1,2.5-9,3.7c-2.8,1.1-5,0.9-7.8,1.3c-0.8,0.1-0.9-0.3-1.5,0
				c-0.7,0.4-1.4,3.7-1.7,4.5c-0.9,2.6-1.7,5.3-3.1,7.7c-2.3,4.1-5.6,5.6-9.9,7.2c-3.1,1.1-6,2.4-8.3,4.8c-1.2,1.2-2.1,2.9-3.6,4
				c-1.6,1.1-3.1,1.2-4.9,1c-3.9-0.4-6-0.7-9.2,2.4c-3.1,3.1-5.5,4.9-9.9,5.5c-5.8,0.7-11.7-0.4-17.5-0.1
				c-5.2,0.3-10.3,1.1-15.5,1.3c-6,0.3-11.6-0.3-17.4-2.2c-4.4-1.5-8.8-3-13.4-3.5c-5-0.6-10-0.1-15-0.9c-4.7-0.8-9.9-2.2-14.6-0.7
				c-7.3,2.4-11.5,12.2-20,11.6c-5-0.4-10.3-2.7-15.2-3.9c-2.2-0.5-9.5-2.4-12.8-1.3c0.9,1,1.7,2.2,2.6,3.6
				c3.1,4.4,6.2,8.8,10.4,11.5c6.7,4.4,13.1,3.7,21.1,4.2c13,0.1,26.3-2,39.9,0.9c7.8,2.7,12.2,3.2,20.5,1.4
				c7.8-0.9,16.6-3.5,24.1-5.8c11.6-3.2,22.9-7.8,34.5-11c10.8-3.7,18.8-6.9,28.1-13.9c7.4-5.9,13.4-11.5,19.2-18.5
				c4.5-5.1,9.8-9.8,13-14.6C351.9,631.3,350.8,631.3,349.5,631.5z"/>
		</g>
	</g>
	<g>
		<g>
			<path fill="#957F71" d="M432.8,527.6c0.5-1.6-1.2-3.1-2.9-3.4c-1.7-0.2-3.4,0.3-5,0.1c-3.9-0.4-7.8-4.3-11.1-2.2
				c2.5-0.4,4.9-0.8,7.4-1.1c3-0.5,6.7-1.6,7.2-4.6c0.2-1.3-0.3-2.5-0.4-3.8c-0.1-1.3,0.3-2.8,1.5-3.2c1.8,1.7,2.8,4.3,2.6,6.7
				c-0.2,2-1.1,4-1.2,6c-0.1,4.3,3.8,8,3.3,12.3"/>
		</g>
		<g>
			<g>
				<path fill="#957F71" d="M433.4,527.6c0.1-4.1-3.7-3.8-6.8-3.9c-4.6,0-8.6-4.1-13.1-2.1c-0.7,0.3-0.2,1.2,0.5,1.1
					c4.4-0.7,14.8-0.5,15.1-6.9c0,0.2,0-1.7-0.1-1.4c-0.3-0.8,0-1.1,1.1-0.8c1.5-0.6,1.9,0,1.2,1.9c0,2.3-0.9,4.4-0.9,6.7
					c0,4.4,3.4,7.8,3.3,12.3c0,0.8,1.2,0.8,1.2,0c0-2.1-0.5-3.7-1.2-5.6c-1.6-4-2.3-6-1.4-10.3c0.7-3.8,0.3-6.7-2.3-9.6
					c-0.2-0.2-0.5-0.3-0.8-0.1c-1.9,1.4-1.5,2.4-1.7,4.6c-0.2,2.1-1.2,5.1-3.1,6.1c-0.8,0.5-1.9,0.6-2.8,0.8c-2.6,0.6-5.3,0.8-8,1.2
					c0.2,0.4,0.3,0.8,0.5,1.1c3.2-1.4,5.8,1,8.7,1.8c2.3,0.7,9.4-0.4,9.4,3.1C432.1,528.4,433.4,528.4,433.4,527.6L433.4,527.6z"/>
			</g>
		</g>
	</g>
	<g>
		<g>
			<path fill="#BAAE80" d="M472.7,343.1c-1.9,2.8-2,6.8-0.3,9.7c-0.6-1.6-3.1-1.6-4.6-0.7s-2.7,2.4-4.4,2.8
				c-0.8,0.2-1.6,0.1-2.4,0.1c-3,0.1-5.7,2.2-6.8,4.9c0-3.2,2.7-5.7,5.4-7.4c2.7-1.7,5.8-3,7.7-5.6c0.9-1.3,1.5-2.8,2.6-3.9
				c0.7-0.7,1.6-1.3,2.4-1.8c0.4-0.2,0.8-0.5,1.2-0.4c1.1,0,1.5,1.6,0.9,2.4c-0.7,0.8-1.9,1-2.9,0.8"/>
		</g>
		<g>
			<g>
				<path fill="#BAAE80" d="M472.2,342.8c-1.9,3.4-2,6.9-0.3,10.4c0.4-0.2,0.7-0.4,1.1-0.6c-2-3-4.9-1-7.2,0.4
					c-4.6,2.8-9.3,0.9-12.1,6.7c0.4,0.1,0.8,0.2,1.2,0.3c0.6-5.7,6.5-7.2,10.4-10.1c1-0.8,2-1.6,2.7-2.6c0.5-0.6,0.8-1.4,1.2-2
					c0.5-1,1.1-1.8,2-2.4c0.9-0.9,1-0.7,0.4,0.5c-0.8,0-0.8,1.2,0,1.2c5.6,0.3,4.1-7.2-1.1-2.8c-1.6,1.3-2.3,3.1-3.5,4.7
					c-1.8,2.4-4.4,3.6-7,5.2c-3.2,2-5.9,4.4-6.3,8.3c-0.1,0.6,0.9,0.9,1.2,0.3c2-4.2,5.1-3.8,8.8-4.7c2.1-0.5,6.3-5.4,8.3-2.4
					c0.4,0.7,1.4,0.1,1.1-0.6c-1.5-3.1-1.4-6.2,0.3-9.1C473.7,342.7,472.6,342.1,472.2,342.8L472.2,342.8z"/>
			</g>
		</g>
	</g>
</g>
</svg>
