<?xml version="1.0" encoding="utf-8"?>
<!-- Generator: Adobe Illustrator 18.0.0, SVG Export Plug-In . SVG Version: 6.00 Build 0)  -->
<!DOCTYPE svg PUBLIC "-//W3C//DTD SVG 1.1//EN" "http://www.w3.org/Graphics/SVG/1.1/DTD/svg11.dtd" [
	<!ENTITY ns_flows "http://ns.adobe.com/Flows/1.0/">
	<!ENTITY ns_extend "http://ns.adobe.com/Extensibility/1.0/">
	<!ENTITY ns_ai "http://ns.adobe.com/AdobeIllustrator/10.0/">
	<!ENTITY ns_graphs "http://ns.adobe.com/Graphs/1.0/">
]>
<svg version="1.1" id="Capa_1" xmlns:x="&ns_extend;" xmlns:i="&ns_ai;" xmlns:graph="&ns_graphs;"
	 xmlns="http://www.w3.org/2000/svg" xmlns:xlink="http://www.w3.org/1999/xlink" xmlns:a="http://ns.adobe.com/AdobeSVGViewerExtensions/3.0/"
	 x="0px" y="0px" viewBox="0 0 750.5 1333.7" enable-background="new 0 0 750.5 1333.7" xml:space="preserve">
<g>
	<path fill="#FFFFFF" d="M609.3,1094.6v17h-16.1V1214H576v-102.4h-16.1v-17H609.3z"/>
	<path fill="#FFFFFF" d="M620.6,1094.6h17.2V1214h-17.2V1094.6z"/>
	<path fill="#FFFFFF" d="M654,1214v-119.4h17.2v102.4h27.5v17H654z"/>
</g>
<g>
	<path fill="#FFFFFF" d="M361.1,1254c0,1.2-0.1,2.5-0.3,4s-0.6,3-1.1,4.5s-1.2,3-2.1,4.5s-1.9,2.7-3.2,3.8s-2.7,2-4.5,2.7
		s-3.7,1-5.9,1c-1.8,0-3.3-0.2-4.7-0.7s-2.5-1.1-3.4-2s-1.6-2-2-3.3s-0.7-2.8-0.7-4.5c0-1.3,0.1-2.8,0.4-4.3s0.6-3.1,1.2-4.6
		s1.2-3,2.1-4.4s1.9-2.7,3.2-3.8s2.7-2,4.4-2.6s3.6-1,5.8-1c1.8,0,3.3,0.2,4.7,0.7s2.5,1.1,3.4,2s1.6,2,2,3.3
		S361.1,1252.3,361.1,1254z M356.7,1254.3c0-1.1-0.1-2.1-0.4-3s-0.6-1.7-1.2-2.4s-1.3-1.2-2.2-1.5s-2-0.6-3.3-0.6
		c-1.6,0-3.1,0.3-4.3,0.9s-2.3,1.4-3.2,2.4s-1.6,2.1-2.2,3.3s-1.1,2.5-1.4,3.7s-0.6,2.5-0.8,3.6s-0.2,2.2-0.2,3c0,1.1,0.1,2.1,0.4,3
		s0.6,1.7,1.2,2.3s1.3,1.1,2.2,1.5s2,0.5,3.3,0.5c1.6,0,3-0.3,4.2-0.9s2.3-1.4,3.2-2.3s1.6-2,2.2-3.2s1.1-2.4,1.4-3.7
		s0.6-2.4,0.8-3.6S356.7,1255.2,356.7,1254.3z"/>
	<path fill="#FFFFFF" d="M391.3,1246.9c0,0.3-0.1,0.7-0.2,1.2s-0.3,0.9-0.4,1.1s-0.4,0.4-0.6,0.4c-0.2,0-0.5-0.1-0.8-0.4
		s-0.7-0.6-1.2-0.9s-1.1-0.6-1.9-0.9s-1.8-0.4-3-0.4c-1.3,0-2.5,0.2-3.6,0.7s-2.1,1.2-2.9,2s-1.6,1.8-2.3,2.9s-1.2,2.2-1.6,3.4
		s-0.8,2.4-1,3.6s-0.3,2.4-0.3,3.5c0,1.2,0.2,2.4,0.5,3.3s0.8,1.8,1.4,2.5s1.3,1.2,2.2,1.5s1.8,0.5,2.9,0.5c1.2,0,2.3-0.1,3.2-0.4
		s1.6-0.6,2.3-0.9s1.2-0.6,1.6-0.9s0.8-0.4,1-0.4c0.2,0,0.3,0.1,0.4,0.2s0.1,0.3,0.1,0.6c0,0.1,0,0.2,0,0.3s-0.1,0.3-0.1,0.5
		s-0.1,0.4-0.1,0.6s-0.1,0.4-0.2,0.6s-0.1,0.3-0.2,0.5s-0.2,0.3-0.4,0.5s-0.5,0.4-1,0.7s-1.2,0.6-1.9,0.9s-1.6,0.5-2.6,0.7
		s-1.9,0.3-3,0.3c-1.6,0-3-0.2-4.3-0.7s-2.4-1.2-3.3-2.1s-1.6-2.1-2.1-3.5s-0.7-3-0.7-4.8c0-1.5,0.2-3,0.5-4.6s0.8-3.1,1.4-4.6
		s1.4-2.9,2.3-4.2s2-2.5,3.2-3.5s2.6-1.8,4.1-2.3s3.2-0.9,5-0.9c1.1,0,2.2,0.1,3.2,0.4s1.8,0.6,2.5,1s1.2,0.7,1.5,1
		S391.3,1246.5,391.3,1246.9z"/>
	<path fill="#FFFFFF" d="M421.9,1254c0,1.2-0.1,2.5-0.3,4s-0.6,3-1.1,4.5s-1.2,3-2.1,4.5s-1.9,2.7-3.2,3.8s-2.7,2-4.5,2.7
		s-3.7,1-5.9,1c-1.8,0-3.3-0.2-4.7-0.7s-2.5-1.1-3.4-2s-1.6-2-2-3.3s-0.7-2.8-0.7-4.5c0-1.3,0.1-2.8,0.4-4.3s0.6-3.1,1.2-4.6
		s1.2-3,2.1-4.4s1.9-2.7,3.2-3.8s2.7-2,4.4-2.6s3.6-1,5.8-1c1.8,0,3.3,0.2,4.7,0.7s2.5,1.1,3.4,2s1.6,2,2,3.3
		S421.9,1252.3,421.9,1254z M417.6,1254.3c0-1.1-0.1-2.1-0.4-3s-0.6-1.7-1.2-2.4s-1.3-1.2-2.2-1.5s-2-0.6-3.3-0.6
		c-1.6,0-3.1,0.3-4.3,0.9s-2.3,1.4-3.2,2.4s-1.6,2.1-2.2,3.3s-1.1,2.5-1.4,3.7s-0.6,2.5-0.8,3.6s-0.2,2.2-0.2,3c0,1.1,0.1,2.1,0.4,3
		s0.6,1.7,1.2,2.3s1.3,1.1,2.2,1.5s2,0.5,3.3,0.5c1.6,0,3-0.3,4.2-0.9s2.3-1.4,3.2-2.3s1.6-2,2.2-3.2s1.1-2.4,1.4-3.7
		s0.6-2.4,0.8-3.6S417.6,1255.2,417.6,1254.3z"/>
	<path fill="#FFFFFF" d="M450.7,1244.6c0,0.1,0,0.2,0,0.4s0,0.3-0.1,0.5s-0.1,0.4-0.2,0.6s-0.1,0.4-0.2,0.6s-0.2,0.3-0.3,0.4
		s-0.3,0.2-0.4,0.2h-8.5l-5.3,26.3c0,0.1-0.1,0.2-0.2,0.3s-0.2,0.2-0.4,0.2s-0.4,0.1-0.6,0.1s-0.6,0.1-1,0.1s-0.7,0-1-0.1
		s-0.4-0.1-0.6-0.1s-0.2-0.1-0.3-0.2s-0.1-0.2,0-0.3l5.2-26.3h-8.5c-0.2,0-0.4-0.1-0.4-0.2s-0.1-0.3-0.1-0.6c0-0.1,0-0.2,0-0.4
		s0.1-0.3,0.1-0.6s0.1-0.4,0.2-0.6s0.1-0.4,0.2-0.5s0.2-0.3,0.3-0.4s0.3-0.2,0.4-0.2h21.1c0.2,0,0.3,0.1,0.4,0.2
		S450.7,1244.4,450.7,1244.6z"/>
	<path fill="#FFFFFF" d="M474.1,1244.6c0,0.1,0,0.2,0,0.4s0,0.3-0.1,0.5s-0.1,0.4-0.1,0.6s-0.1,0.4-0.2,0.6s-0.2,0.3-0.3,0.4
		s-0.3,0.2-0.4,0.2h-11.8l-1.9,9.5h10.2c0.2,0,0.3,0.1,0.4,0.2s0.1,0.3,0.1,0.6c0,0.1,0,0.2,0,0.4s-0.1,0.3-0.1,0.5
		s-0.1,0.4-0.1,0.6s-0.1,0.4-0.2,0.5s-0.2,0.3-0.3,0.4s-0.3,0.2-0.4,0.2h-10.2l-2.2,10.9h12.1c0.2,0,0.3,0.1,0.4,0.2
		s0.2,0.3,0.2,0.6c0,0.1,0,0.2,0,0.4s0,0.4-0.1,0.5s-0.1,0.4-0.1,0.6s-0.1,0.4-0.2,0.5s-0.2,0.3-0.3,0.4s-0.3,0.1-0.4,0.1h-14.6
		c-0.2,0-0.3,0-0.5-0.1s-0.3-0.1-0.4-0.3s-0.2-0.3-0.2-0.5s0-0.5,0-0.8l5.4-27c0.1-0.6,0.4-1,0.7-1.3s0.7-0.4,1.1-0.4h14.4
		C473.9,1243.8,474.1,1244.1,474.1,1244.6z"/>
	<path fill="#FFFFFF" d="M499.9,1272.7c0,0.3,0.1,0.6,0,0.8s-0.1,0.4-0.3,0.5s-0.4,0.2-0.7,0.2s-0.7,0-1.3,0c-0.3,0-0.6,0-0.9,0
		s-0.4-0.1-0.6-0.1s-0.2-0.1-0.3-0.2s-0.1-0.2-0.1-0.4l-1.1-7.4h-12.6l-4,7.3c-0.1,0.2-0.2,0.3-0.3,0.4s-0.2,0.2-0.4,0.2
		s-0.4,0.1-0.7,0.1s-0.6,0-1.1,0c-0.5,0-0.8,0-1.1-0.1s-0.5-0.1-0.6-0.2s-0.1-0.3-0.1-0.5s0.2-0.5,0.3-0.8l15.8-28.2
		c0.1-0.2,0.2-0.3,0.4-0.4s0.3-0.2,0.5-0.3s0.5-0.1,0.8-0.1s0.7,0,1.1,0c0.5,0,0.9,0,1.3,0s0.6,0.1,0.8,0.1s0.3,0.2,0.4,0.3
		s0.1,0.3,0.2,0.4L499.9,1272.7z M492,1247.9L492,1247.9l-8.2,15.1h10.5L492,1247.9z"/>
	<path fill="#FFFFFF" d="M542.1,1244.6c0,0.1,0,0.2,0,0.4s0,0.3-0.1,0.5s-0.1,0.4-0.2,0.6s-0.1,0.4-0.2,0.6s-0.2,0.3-0.3,0.4
		s-0.3,0.2-0.4,0.2h-11.1l-2.1,10.3h10.5c0.2,0,0.3,0.1,0.4,0.2s0.1,0.3,0.1,0.6c0,0.1,0,0.3,0,0.4s0,0.3-0.1,0.5s-0.1,0.4-0.2,0.6
		s-0.1,0.4-0.2,0.5s-0.2,0.3-0.3,0.4s-0.3,0.2-0.4,0.2h-10.5l-2.5,12.6c0,0.1-0.1,0.2-0.2,0.3s-0.2,0.2-0.4,0.2s-0.4,0.1-0.6,0.1
		s-0.6,0.1-1,0.1s-0.7,0-1-0.1s-0.5-0.1-0.6-0.1s-0.2-0.1-0.3-0.2s-0.1-0.2,0-0.3l5.6-28.1c0.1-0.6,0.4-1,0.7-1.3s0.7-0.4,1.1-0.4
		h13.6c0.2,0,0.4,0.1,0.4,0.2S542.1,1244.4,542.1,1244.6z"/>
	<path fill="#FFFFFF" d="M573,1254c0,1.2-0.1,2.5-0.3,4s-0.6,3-1.1,4.5s-1.2,3-2.1,4.5s-1.9,2.7-3.2,3.8s-2.7,2-4.5,2.7
		s-3.7,1-5.9,1c-1.8,0-3.3-0.2-4.7-0.7s-2.5-1.1-3.4-2s-1.6-2-2-3.3s-0.7-2.8-0.7-4.5c0-1.3,0.1-2.8,0.4-4.3s0.6-3.1,1.2-4.6
		s1.2-3,2.1-4.4s1.9-2.7,3.2-3.8s2.7-2,4.4-2.6s3.6-1,5.8-1c1.8,0,3.3,0.2,4.7,0.7s2.5,1.1,3.4,2s1.6,2,2,3.3S573,1252.3,573,1254z
		 M568.7,1254.3c0-1.1-0.1-2.1-0.4-3s-0.6-1.7-1.2-2.4s-1.3-1.2-2.2-1.5s-2-0.6-3.3-0.6c-1.6,0-3.1,0.3-4.3,0.9s-2.3,1.4-3.2,2.4
		s-1.6,2.1-2.2,3.3s-1.1,2.5-1.4,3.7s-0.6,2.5-0.8,3.6s-0.2,2.2-0.2,3c0,1.1,0.1,2.1,0.4,3s0.6,1.7,1.2,2.3s1.3,1.1,2.2,1.5
		s2,0.5,3.3,0.5c1.6,0,3-0.3,4.2-0.9s2.3-1.4,3.2-2.3s1.6-2,2.2-3.2s1.1-2.4,1.4-3.7s0.6-2.4,0.8-3.6S568.7,1255.2,568.7,1254.3z"/>
	<path fill="#FFFFFF" d="M600.7,1244.6c0,0.1,0,0.2,0,0.4s0,0.3-0.1,0.5s-0.1,0.4-0.1,0.6s-0.1,0.4-0.2,0.6s-0.2,0.3-0.3,0.4
		s-0.3,0.2-0.4,0.2h-11.8l-1.9,9.5h10.2c0.2,0,0.3,0.1,0.4,0.2s0.1,0.3,0.1,0.6c0,0.1,0,0.2,0,0.4s-0.1,0.3-0.1,0.5
		s-0.1,0.4-0.1,0.6s-0.1,0.4-0.2,0.5s-0.2,0.3-0.3,0.4s-0.3,0.2-0.4,0.2h-10.2l-2.2,10.9H595c0.2,0,0.3,0.1,0.4,0.2s0.2,0.3,0.2,0.6
		c0,0.1,0,0.2,0,0.4s0,0.4-0.1,0.5s-0.1,0.4-0.1,0.6s-0.1,0.4-0.2,0.5s-0.2,0.3-0.3,0.4s-0.3,0.1-0.4,0.1h-14.6
		c-0.2,0-0.3,0-0.5-0.1s-0.3-0.1-0.4-0.3s-0.2-0.3-0.2-0.5s0-0.5,0-0.8l5.4-27c0.1-0.6,0.4-1,0.7-1.3s0.7-0.4,1.1-0.4h14.4
		C600.5,1243.8,600.7,1244.1,600.7,1244.6z"/>
	<path fill="#FFFFFF" d="M628.9,1244.6c0,0.1,0,0.2,0,0.4s0,0.3-0.1,0.5s-0.1,0.4-0.2,0.6s-0.1,0.4-0.2,0.6s-0.2,0.3-0.3,0.4
		s-0.3,0.2-0.4,0.2h-8.5l-5.3,26.3c0,0.1-0.1,0.2-0.2,0.3s-0.2,0.2-0.4,0.2s-0.4,0.1-0.6,0.1s-0.6,0.1-1,0.1s-0.7,0-1-0.1
		s-0.4-0.1-0.6-0.1s-0.2-0.1-0.3-0.2s-0.1-0.2,0-0.3l5.2-26.3h-8.5c-0.2,0-0.4-0.1-0.4-0.2s-0.1-0.3-0.1-0.6c0-0.1,0-0.2,0-0.4
		s0.1-0.3,0.1-0.6s0.1-0.4,0.2-0.6s0.1-0.4,0.2-0.5s0.2-0.3,0.3-0.4s0.3-0.2,0.4-0.2h21.1c0.2,0,0.3,0.1,0.4,0.2
		S628.9,1244.4,628.9,1244.6z"/>
	<path fill="#FFFFFF" d="M652.3,1244.6c0,0.1,0,0.2,0,0.4s0,0.3-0.1,0.5s-0.1,0.4-0.1,0.6s-0.1,0.4-0.2,0.6s-0.2,0.3-0.3,0.4
		s-0.3,0.2-0.4,0.2h-11.8l-1.9,9.5h10.2c0.2,0,0.3,0.1,0.4,0.2s0.1,0.3,0.1,0.6c0,0.1,0,0.2,0,0.4s-0.1,0.3-0.1,0.5
		s-0.1,0.4-0.1,0.6s-0.1,0.4-0.2,0.5s-0.2,0.3-0.3,0.4s-0.3,0.2-0.4,0.2h-10.2l-2.2,10.9h12.1c0.2,0,0.3,0.1,0.4,0.2
		s0.2,0.3,0.2,0.6c0,0.1,0,0.2,0,0.4s0,0.4-0.1,0.5s-0.1,0.4-0.1,0.6s-0.1,0.4-0.2,0.5s-0.2,0.3-0.3,0.4s-0.3,0.1-0.4,0.1h-14.6
		c-0.2,0-0.3,0-0.5-0.1s-0.3-0.1-0.4-0.3s-0.2-0.3-0.2-0.5s0-0.5,0-0.8l5.4-27c0.1-0.6,0.4-1,0.7-1.3s0.7-0.4,1.1-0.4h14.4
		C652.1,1243.8,652.3,1244.1,652.3,1244.6z"/>
	<path fill="#FFFFFF" d="M678.9,1272.5c0,0.3-0.1,0.6-0.3,0.8s-0.3,0.4-0.5,0.5s-0.4,0.2-0.6,0.3s-0.4,0.1-0.6,0.1h-1.5
		c-0.4,0-0.8,0-1-0.1s-0.5-0.3-0.7-0.5s-0.4-0.5-0.6-0.9s-0.3-0.8-0.5-1.4l-5.7-16.2c-0.4-1.2-0.8-2.3-1.2-3.5s-0.8-2.3-1.1-3.5h0
		c-0.2,1.3-0.4,2.6-0.7,3.8s-0.5,2.5-0.7,3.8l-3.5,17.7c0,0.1-0.1,0.2-0.2,0.3s-0.2,0.2-0.4,0.2s-0.4,0.1-0.6,0.1s-0.6,0.1-0.9,0.1
		s-0.7,0-0.9-0.1s-0.4-0.1-0.6-0.1s-0.2-0.1-0.2-0.2s0-0.2,0-0.3l5.6-28c0.1-0.6,0.4-1.1,0.8-1.3s0.8-0.4,1.2-0.4h1.9
		c0.4,0,0.7,0,1,0.1s0.5,0.2,0.7,0.4s0.4,0.5,0.5,0.8s0.3,0.7,0.5,1.2l5.7,16.4c0.4,1,0.7,2,1.1,3s0.7,2,1,3.1h0
		c0.2-1.3,0.5-2.6,0.7-4s0.5-2.7,0.8-4l3.3-16.4c0-0.1,0.1-0.2,0.2-0.3s0.2-0.2,0.4-0.2s0.4-0.1,0.6-0.1s0.6,0,0.9,0
		c0.4,0,0.7,0,0.9,0s0.4,0.1,0.6,0.1s0.2,0.1,0.3,0.2s0.1,0.2,0,0.3L678.9,1272.5z"/>
	<path fill="#FFFFFF" d="M708.8,1246.1c0,0.1,0,0.3,0,0.4s0,0.3-0.1,0.5s-0.1,0.4-0.1,0.6s-0.1,0.4-0.2,0.5s-0.2,0.3-0.3,0.4
		s-0.2,0.1-0.3,0.1c-0.2,0-0.4-0.1-0.7-0.3s-0.7-0.4-1.2-0.6s-1-0.4-1.7-0.6s-1.4-0.3-2.3-0.3c-1,0-1.8,0.1-2.5,0.4
		s-1.3,0.7-1.8,1.2s-0.8,1.1-1.1,1.7s-0.4,1.3-0.4,1.9c0,0.7,0.2,1.3,0.5,1.8s0.7,1,1.2,1.4s1.1,0.8,1.7,1.2s1.3,0.8,1.9,1.1
		s1.3,0.8,1.9,1.3s1.2,1,1.7,1.5s0.9,1.3,1.2,2s0.5,1.6,0.5,2.6c0,1.3-0.3,2.6-0.8,3.7s-1.3,2.2-2.3,3s-2.2,1.6-3.6,2.1
		s-3,0.8-4.8,0.8c-1,0-1.8-0.1-2.7-0.2s-1.6-0.4-2.2-0.6s-1.2-0.5-1.7-0.8s-0.8-0.5-1-0.7s-0.3-0.5-0.3-0.9c0-0.1,0-0.2,0-0.4
		s0.1-0.4,0.1-0.6s0.1-0.4,0.2-0.6s0.1-0.4,0.2-0.5s0.2-0.3,0.3-0.4s0.2-0.2,0.4-0.2c0.2,0,0.6,0.1,0.9,0.4s0.8,0.5,1.4,0.8
		s1.2,0.6,2,0.8s1.7,0.4,2.7,0.4c1.1,0,2.1-0.2,2.9-0.5s1.6-0.7,2.2-1.2s1-1.1,1.3-1.8s0.5-1.5,0.5-2.2c0-0.7-0.1-1.3-0.4-1.8
		s-0.7-1-1.2-1.4s-1-0.8-1.7-1.2s-1.3-0.7-1.9-1.1s-1.3-0.8-1.9-1.3s-1.2-1-1.7-1.5s-0.9-1.3-1.2-2s-0.5-1.6-0.5-2.7
		c0-1.2,0.2-2.4,0.7-3.5s1.2-2,2.1-2.8s2-1.5,3.2-1.9s2.7-0.7,4.2-0.7c0.8,0,1.5,0.1,2.1,0.2s1.3,0.3,1.8,0.5s1,0.4,1.4,0.6
		s0.7,0.4,0.8,0.5s0.2,0.3,0.3,0.4S708.8,1245.9,708.8,1246.1z"/>
</g>
<g>
	<g opacity="0.13">
		<g>
			<path fill="#A4A280" d="M430.6,614.7c9.4-3,20.5-3.7,30-0.7c7.1,2.2,13.6,5.8,21.2,4.7c0.6-0.1,0.4-1.1-0.3-1
				c-9.4,1.3-17.5-4.7-26.6-6c-8.2-1.2-16.8-0.5-24.7,2C429.8,613.9,430,614.9,430.6,614.7L430.6,614.7z"/>
		</g>
	</g>
	<g opacity="0.13">
		<g>
			<path fill="#A4A280" d="M444.4,626.8c0.6,0,0.6-1,0-1C443.7,625.8,443.7,626.8,444.4,626.8L444.4,626.8z"/>
		</g>
	</g>
	<g opacity="0.13">
		<g>
			<path fill="#A4A280" d="M444.4,627c9.8-1.3,19.6-1.4,29.4-1.2c9.6,0.3,20.4-0.4,29.1,4.4c0.6,0.3,1.1-0.6,0.5-0.9
				c-7.8-4.3-16.9-4.1-25.6-4.4c-11.1-0.4-22.3-0.4-33.4,1C443.8,626,443.7,627,444.4,627L444.4,627z"/>
		</g>
	</g>
	<g opacity="0.13">
		<g>
			<path fill="#A4A280" d="M467,640.4c10.2-2.1,20.6-4.2,31.1-3.7c5.4,0.2,10.6,1.3,15.7,3.1c3.7,1.3,6.9,2.4,10.9,1.9
				c0.6-0.1,0.6-1.1,0-1c-5.3,0.7-9.9-1.8-14.8-3.2c-4.4-1.2-9-1.8-13.6-1.8c-9.9-0.2-19.8,1.8-29.5,3.8
				C466.1,639.6,466.4,640.5,467,640.4L467,640.4z"/>
		</g>
	</g>
	<g opacity="0.13">
		<g>
			<path fill="#A4A280" d="M484.7,652.1c9.7-2,19.6-2.5,29.4-2.8c9.8-0.3,18.8,0.8,27.3,5.9c0.6,0.3,1.1-0.5,0.5-0.9
				c-8.1-4.7-16.7-6.3-25.9-6.1c-10.5,0.2-21.2,0.8-31.6,2.9C483.8,651.2,484,652.2,484.7,652.1L484.7,652.1z"/>
		</g>
	</g>
	<g opacity="0.13">
		<g>
			<path fill="#A4A280" d="M497.9,664.3c0.6,0,0.6-1,0-1C497.2,663.3,497.2,664.3,497.9,664.3L497.9,664.3z"/>
		</g>
	</g>
	<g opacity="0.13">
		<g>
			<path fill="#A4A280" d="M497.9,664.4c9.9-0.6,19.7-0.2,29.6,0.6c4.6,0.4,9.2,0.9,13.8,1.5c5.5,0.7,11.2,0.9,15.6,4.6
				c0.5,0.4,1.2-0.3,0.7-0.7c-6.3-5.3-16.4-5-24.2-5.8c-11.8-1.3-23.6-1.9-35.5-1.2C497.2,663.5,497.2,664.5,497.9,664.4
				L497.9,664.4z"/>
		</g>
	</g>
	<g opacity="0.13">
		<g>
			<path fill="#A4A280" d="M519.5,681.1c8.1-2.8,16.5-4.5,25.1-4.7c4.6-0.1,9.4,0.2,13.6,2.3c3,1.5,5.3,3.6,8.6,4.5
				c0.6,0.2,0.9-0.8,0.3-1c-4.3-1.1-7.3-4.4-11.5-5.7c-3.5-1.1-7.3-1.2-10.9-1.2c-8.7,0.2-17.2,1.9-25.3,4.7
				C518.6,680.3,518.9,681.3,519.5,681.1L519.5,681.1z"/>
		</g>
	</g>
	<g opacity="0.13">
		<g>
			<path fill="#A4A280" d="M529.7,694.2c7.5-1.7,15.2-2.3,22.9-1.7c6.7,0.6,17.6,1.7,22.7,6.9c0.5,0.5,1.2-0.2,0.7-0.7
				c-4.7-4.8-13.5-5.9-19.8-6.8c-9-1.2-18-0.7-26.8,1.3C528.8,693.3,529.1,694.3,529.7,694.2L529.7,694.2z"/>
		</g>
	</g>
	<g opacity="0.13">
		<g>
			<path fill="#A4A280" d="M540.1,709.3c7.9,0.4,15.7,0.6,23.6,0.5c9.1-0.1,16.8,0.2,23.6,7c0.5,0.5,1.2-0.3,0.7-0.7
				c-5.2-5.1-11.3-7.3-18.6-7.3c-9.8,0-19.6,0.1-29.4-0.4C539.5,708.3,539.5,709.3,540.1,709.3L540.1,709.3z"/>
		</g>
	</g>
	<g opacity="0.13">
		<g>
			<path fill="#A4A280" d="M552.4,724.8c4.8,0.6,9.3,0.5,14.1,0.3c5.5-0.2,9.6,1.7,14.1,4.6c6.4,4.1,12.6,8.7,20.5,8.5
				c0.6,0,0.6-1,0-1c-10.2,0.3-16.7-7.5-25.3-11.5c-7.2-3.3-15.8-0.9-23.4-1.9C551.8,723.8,551.8,724.8,552.4,724.8L552.4,724.8z"/>
		</g>
	</g>
	<g opacity="0.13">
		<g>
			<path fill="#A4A280" d="M567.2,743.2c8.1-2.2,14.7,3.2,22.1,5.2c8,2.2,15.2,2.9,19.5,11.1c0.3,0.6,1.2,0.1,0.9-0.5
				c-4-7.6-10.5-9.3-18.4-11.1c-8.2-1.9-15.6-8-24.4-5.6C566.3,742.4,566.5,743.4,567.2,743.2L567.2,743.2z"/>
		</g>
	</g>
	<g opacity="0.13">
		<g>
			<path fill="#A4A280" d="M583.3,763.3c10.4,3.6,25.1,2.5,29.4,15.1c0.2,0.6,1.2,0.3,1-0.3c-4.4-13-19.2-12-30.1-15.8
				C583,762.1,582.7,763.1,583.3,763.3L583.3,763.3z"/>
		</g>
	</g>
	<g opacity="0.13">
		<g>
			<path fill="#A4A280" d="M595.3,781.7c6,0.6,13.1,1.9,17.5,6.2c2.1,2.1,3.3,4.4,4.5,7c0.7,1.5,1.4,3,1.9,4.6
				c0,0.1,0.9,3.4,0.1,2.5c-0.4-0.5-1.1,0.2-0.7,0.7c0.9,1,0.6,0.8,1.9,1.2c0.4,0.1,0.7-0.3,0.6-0.6c-0.8-5.6-3.7-13.1-8.1-16.9
				c-4.6-4-11.8-5.1-17.7-5.7C594.6,780.6,594.6,781.6,595.3,781.7L595.3,781.7z"/>
		</g>
	</g>
	<g opacity="0.13">
		<g>
			<path fill="#A4A280" d="M608.1,801.1c4.1,2.7,6.8,6.8,7.6,11.6c0.1,0.6,1.1,0.4,1-0.3c-0.9-5.1-3.8-9.4-8.1-12.2
				C608.1,799.9,607.6,800.7,608.1,801.1L608.1,801.1z"/>
		</g>
	</g>
	<g opacity="0.13">
		<g>
			<path fill="#A4A280" d="M465.4,643.6c4.3,9.6,8.4,19.8,4.4,30.2c-0.2,0.6,0.7,0.9,1,0.3c4-10.7-0.1-21.1-4.5-31
				C466,642.5,465.1,643,465.4,643.6L465.4,643.6z"/>
		</g>
	</g>
	<g opacity="0.13">
		<g>
			<path fill="#A4A280" d="M481.5,655.9c1.9,9.7,5,19.9,4.6,29.9c0,0.6,1,0.6,1,0c0.4-10.1-2.6-20.3-4.6-30.1
				C482.4,655,481.4,655.2,481.5,655.9L481.5,655.9z"/>
		</g>
	</g>
	<g opacity="0.13">
		<g>
			<path fill="#A4A280" d="M496.1,667.7c1.3,5.6,2.5,11.1,3.8,16.7c1.2,5.1,5.4,15.2,1.4,19.6c-0.4,0.5,0.3,1.2,0.7,0.7
				c3.3-3.8,1.5-8.8,0.5-13.2c-1.8-8-3.7-16.1-5.5-24.1C496.9,666.8,495.9,667,496.1,667.7L496.1,667.7z"/>
		</g>
	</g>
	<g opacity="0.13">
		<g>
			<path fill="#A4A280" d="M515.7,684.1c-1.9,6.4-2.4,12.3-0.6,18.7c2.5,9,3.3,17,0.7,26.1c-0.2,0.6,0.8,0.9,1,0.3
				c1.9-6.6,2.4-13.4,1-20.2c-0.7-3.2-1.9-6.3-2.5-9.5c-1-5.2-0.1-10.1,1.4-15.1C516.9,683.7,515.9,683.4,515.7,684.1L515.7,684.1z"
				/>
		</g>
	</g>
	<g opacity="0.13">
		<g>
			<path fill="#A4A280" d="M525.8,698.5c-1.6,5.6,1,10.5,2.3,15.8c1.2,4.9,4.5,19.3-0.5,23c-0.5,0.4,0,1.2,0.5,0.9
				c4.3-3.2,2.8-9.8,2.4-14.4c-0.3-3.5-0.8-7.1-1.7-10.5c-1.3-4.8-3.6-9.4-2.1-14.5C526.9,698.1,526,697.8,525.8,698.5L525.8,698.5z
				"/>
		</g>
	</g>
	<g opacity="0.13">
		<g>
			<path fill="#A4A280" d="M541.1,710.2c-1.1,6.1-1,12.2-0.7,18.3c0.2,3.1,0.4,6.1,0.4,9.2c0,2.5,0.6,12.5-1.8,13.3
				c-0.6,0.2-0.3,1.2,0.3,1c3.6-1.3,2.6-11.4,2.6-14.3c-0.1-9.1-1.4-18.2,0.2-27.3C542.2,709.8,541.2,709.6,541.1,710.2L541.1,710.2
				z"/>
		</g>
	</g>
	<g opacity="0.13">
		<g>
			<path fill="#A4A280" d="M552.5,725.8c0.6,0,0.6-1,0-1C551.8,724.8,551.8,725.8,552.5,725.8L552.5,725.8z"/>
		</g>
	</g>
	<g opacity="0.13">
		<g>
			<path fill="#A4A280" d="M552,725.2c-1.6,7.6-2.8,14.9-1.5,22.6c0.4,2.5,1.1,5.1,0.9,7.7c-0.1,2.3-1.2,3.9-1.4,6.1
				c-0.3,2.8,2.6,5.3,1.8,8c-0.2,0.6,0.8,0.9,1,0.3c0.6-2.1-0.4-2.8-1-4.7c-1.3-3.9,0.9-8.9,0.4-13.1c-0.5-4.1-1.5-8.1-1.4-12.3
				c0.1-4.8,1.1-9.5,2.1-14.2C553.1,724.9,552.2,724.6,552,725.2L552,725.2z"/>
		</g>
	</g>
	<g opacity="0.13">
		<g>
			<path fill="#A4A280" d="M571.7,742.9c-6-1.9-4.4,9-3.2,11.8c3,6.8,4.9,11.6,2.2,18.9c-1.6,4.4-3.4,8.2-2.5,12.9
				c0.1,0.6,1.1,0.4,1-0.3c-1.4-7.5,4.7-13.7,4.2-21.2c-0.2-2.4-0.9-4.6-1.8-6.8c-0.8-1.7-2-3.4-2.5-5.2c-0.4-1.2-1.7-10.5,2.5-9.2
				C572,744,572.3,743,571.7,742.9L571.7,742.9z"/>
		</g>
	</g>
	<g opacity="0.13">
		<g>
			<path fill="#A4A280" d="M580.8,764c2.6,5.4,3.4,10.8,3.1,16.7c-0.3,5.3,0.3,12.6-1.8,17.4c-1.5,3.3-4.5,5.2-5,8.9
				c-0.5,3.9,0.9,8.4,1.7,12.2c0.1,0.6,1.1,0.4,1-0.3c-0.6-2.6-1.1-5.2-1.5-7.9c-0.5-3.9,1-6.6,3.2-9.9c2.1-3.2,2.5-5.9,2.7-9.7
				c0.7-9.7,1.9-19-2.5-28.1C581.4,762.9,580.5,763.4,580.8,764L580.8,764z"/>
		</g>
	</g>
	<g opacity="0.13">
		<g>
			<path fill="#A4A280" d="M594.4,782c-2.5,10.3,1.6,20.2,3.5,30.2c1.4,7.2,1.1,13.4-2.1,20.1c-2.6,5.5-4.1,10.5-3.7,16.6
				c0,0.6,1,0.6,1,0c-0.3-4.2,0.2-8.2,1.7-12.1c1.1-2.8,2.7-5.3,3.6-8.2c1.5-4.2,1.5-8.6,1-13c-1.4-11.2-6.9-22-4.2-33.4
				C595.5,781.7,594.6,781.4,594.4,782L594.4,782z"/>
		</g>
	</g>
	<g opacity="0.13">
		<g>
			<path fill="#A4A280" d="M606.5,802.9c0.6,0,0.6-1,0-1C605.9,801.9,605.9,802.9,606.5,802.9L606.5,802.9z"/>
		</g>
	</g>
	<g opacity="0.13">
		<g>
			<path fill="#A4A280" d="M605.2,804.5c-0.5,5.6,0.7,11,1.5,16.5c1,6.3,1.4,12.7,1.1,19.1c-0.3,6.4-1.2,12.7-2.7,18.9
				c-1.5,5.9-3.1,14.9-9.5,17.4c-0.6,0.2-0.3,1.2,0.3,1c3.7-1.5,5.6-4.5,7.1-8.1c2.7-6.6,4.2-13.9,5.1-21c0.9-7,1-14.1,0.4-21.2
				c-0.7-7.6-3-15.1-2.3-22.8C606.3,803.9,605.3,803.9,605.2,804.5L605.2,804.5z"/>
		</g>
	</g>
	<g>
		<g>
			<g>
				<path fill="#767B4A" d="M370.2,239.2c4.3,37.8,5.7,75.8,4.5,113.8c-1.2,34.1-4.6,68-7.9,101.9c-9.6,96.3-19.3,192.6-28.9,289
					c-5.4,54.3-10.9,108.7-16.9,163c3.9-21.7,7.7-43.5,11.6-65.2c3.4-19,6.8-38.1,7.4-57.3c0.7-20.6-1.6-41.3-0.5-61.9
					c1.3-22.5,6.7-44.5,10.2-66.7c6.9-43.6,6.3-88.1,13.9-131.6c3.2-18.2,7.8-36.2,10.7-54.5c3.8-24.1,4.6-48.5,5.3-72.8
					c0.5-15.1,0.9-30.2,1.4-45.3c1-33.1,2-66.2,0.5-99.2c-0.2-3.6-0.4-7.5-2.5-10.5c-2-3-6.4-4.8-9.4-2.8"/>
			</g>
			<g>
				<g>
					<path fill="#767B4A" d="M367.7,239.2c4.8,43,6.1,86.3,3.8,129.5c-2.3,43.4-7.3,86.6-11.6,129.8
						c-8.7,87.4-17.5,174.7-26.2,262.1c-4.9,48.8-9.8,97.6-15.3,146.3c-0.3,2.8,4.4,3.4,4.9,0.7c4.1-23,8.2-46,12.3-69
						c3.9-21.8,7.2-43.6,7-65.8c-0.2-23.4-1.9-46.4,1.4-69.7c3.2-22.3,8.2-44.2,10.8-66.5c2.6-22.9,3.8-45.9,5.9-68.9
						c2.1-23.3,5.8-46.2,10.6-69.1c4.6-21.9,8-43.8,9.4-66.1c1.4-23,1.8-46,2.5-69c0.8-26.4,1.8-52.9,1.6-79.3
						c-0.1-12,0.7-24.9-1.3-36.8c-1.2-7.2-7.4-14.4-15.2-10.4c-2.9,1.5-0.3,5.8,2.5,4.3c10.1-5.2,8.7,24.6,8.7,29
						c0.3,11.2,0.3,22.5,0.1,33.7c-0.3,22.1-1.1,44.2-1.8,66.3c-0.7,22-1,44-2.5,66c-1.5,21.9-5.2,43.3-9.8,64.7
						c-4.5,21.1-7.8,42.2-9.8,63.7c-2,21.7-3.2,43.4-5.4,65c-2.3,22-6.8,43.5-10.3,65.3c-3.5,21.5-3.7,42.5-2.9,64.2
						c0.8,25.2-1.5,49.4-5.8,74.2c-4.3,24.3-8.6,48.5-12.9,72.8c1.6,0.2,3.3,0.4,4.9,0.7c9.7-86.6,18-173.3,26.6-260
						c4.4-43.9,8.8-87.7,13.2-131.6c4.3-43.3,9.3-86.5,12.3-129.9c3.4-48.8,2.7-97.6-2.8-146.2C372.4,236,367.4,236,367.7,239.2
						L367.7,239.2z"/>
				</g>
			</g>
		</g>
		<g>
			<g>
				<path fill="#919A5C" d="M375.3,252c-24.5-1.6-49.2,0.9-72.9,7.3c-8.6,2.3-17.3,5.3-24.2,11c-5,4.1-8.9,9.4-12.6,14.7
					c-5.7,7.9-11.4,15.8-17.1,23.7c-1-0.5-2-0.9-3.1-1.4c7-5.5,12.3-13.1,15-21.6c-10.3,7.2-23,10.8-35.5,10.2
					c-5.8-0.3-12.1-1.4-17.1,1.6c2.3-2.1,4.2-4.8,5.4-7.8c18.3,4.1,38.3-0.3,53.1-11.7c4.8-3.7,9-8,13.9-11.5
					c16.8-12.2,38.8-13.4,59.5-14.1c12.4-0.5,24.8-0.9,37.3-1.4"/>
			</g>
			<g>
				<g>
					<path fill="#919A5C" d="M375.3,251.4c-15.8-1-31.6-0.4-47.2,1.9c-14.4,2.1-30.3,4.9-43.2,11.9c-12.9,6.9-20.6,20.6-28.9,32.1
						c-1.1,1.6-2.3,3.2-3.4,4.7c-0.7,0.9-2.4,4.2-3.4,4.7c-3.5,2-1.5-0.2-0.8-1.1c1.2-1.6,3-3,4.3-4.5c3.8-4.5,6.5-9.7,8.4-15.3
						c0.2-0.5-0.5-1-0.9-0.7c-8.7,5.9-18.7,9.5-29.2,10.1c-7.8,0.4-16.1-2-23.4,1.7c0.3,0.3,0.5,0.7,0.8,1c1.8-1.8,4.1-6.6,6.3-7.3
						c1-0.3,3,0.5,4.1,0.7c1.9,0.2,3.7,0.4,5.6,0.5c6.5,0.3,13-0.4,19.2-2.1c6.8-1.8,13.3-4.6,19.2-8.4c6.6-4.3,12-10.3,18.5-14.8
						c13-9.1,29.1-11.8,44.5-12.9c17.1-1.2,34.2-1.5,51.3-2.1c0.8,0,0.8-1.3,0-1.2c-15.7,0.6-31.5,0.9-47.2,1.8
						c-13.1,0.7-26.5,2.2-38.7,7.4c-13,5.6-21.6,17-33.9,23.5c-13.4,7.1-29,9.2-43.9,6c-0.2-0.1-0.6,0-0.7,0.3
						c-1.3,2.9-3,5.4-5.3,7.6c-0.5,0.5,0.1,1.3,0.8,1c8.2-4.2,19.1-0.8,28-2.1c8.9-1.3,17.1-4.7,24.6-9.7c-0.3-0.2-0.6-0.5-0.9-0.7
						c-2.9,8.5-7.8,15.7-14.8,21.3c-0.3,0.2-0.2,0.8,0.1,1c1,0.5,2,0.9,3.1,1.4c0.3,0.1,0.6,0.1,0.9-0.2
						c7.4-10.2,14.4-20.9,22.3-30.7c8-9.9,18.4-14.8,30.4-18.2c23.9-6.6,48.8-9,73.5-7.5C376.1,252.7,376.1,251.4,375.3,251.4
						L375.3,251.4z"/>
				</g>
			</g>
		</g>
		<g>
			<path fill="#7F8058" d="M247.4,308.4c-12.2-5.4-26.6-3.5-38.6,2.3c-12,5.8-21.9,15-31,24.7c-6.2,6.6-12.3,13.6-15.6,22
				c-2.2,5.4-3.1,11.2-5.1,16.7c-1.5,4.2-3.7,8.1-5.4,12.2c-5.5,13.2-6.3,28.3-2.2,42c3,10.2,8.7,19.8,9.4,30.4
				c0.2,2.4,0.1,5,1.2,7.2c1,2.1,3,3.5,4.2,5.5c1.5,2.6,1.5,5.7,1.4,8.7c-0.3,10.3-0.5,20.5-0.8,30.8c3.7-0.6,6.5-3.8,8.2-7.2
				c1.7-3.4,2.5-7.2,4.1-10.6c3-6.5,8.6-11.3,13.8-16.2c11.2-10.7,21.1-22.8,29.3-35.9c6.9-10.9,12.6-22.5,17.6-34.4
				c1.1-2.5,2-5.8,0.2-7.8c-3.3-3.8-10.8,1.3-14.3-2.3c-0.8-0.8-1.1-1.9-1.9-2.7c-2.1-2.2-5.8-1-8.9-0.9c-3,0.2-6.2-1-7.8-3.5
				c-1.6-2.5-0.8-6.5,1.9-7.7c4.8-2.1,10.3,4.7,14.9,2.2c2-1.1,2.9-3.8,5.1-4.3c1.8-0.5,3.6,0.7,5.1,1.9c1.7,1.3,3.5,2.6,5.2,4
				c1,0.8,2.1,1.6,3.4,1.6c2,0,3.5-2.1,3.7-4c0.2-2-0.5-3.9-1-5.9c-4.1-16.2,6.6-32.3,8-48.9c0.4-4.7,0-9.4,1.2-14
				c0.9-3.7,2.8-7,4.7-10.3c4.7-8.2,9.3-16.5,14-24.7c2.5-4.4,5-8.8,8.9-11.9c3.6-2.8,8.4-4.7,10-8.9"/>
		</g>
		<g>
			<path fill="#7F8058" d="M375.3,399.4c-3.4,5.3-8.3,9.7-13.9,12.6c-2.7,1.4-5.7,2.6-7.4,5.1c-1,1.5-1.5,3.2-2.5,4.7
				c-3.2,4.3-9.9,3.5-14.9,1.2s-10-5.4-15.3-4.2c-2.1,0.5-4.1,1.7-6.2,1.9c-2.7,0.3-5.4-1-7.9-2.1c-16.6-7.2-37.6-6.3-50.9,5.9
				c-4.8,4.4-8.5,10.1-13.8,13.8c-4.5,3.2-9.9,4.8-14.6,7.7c-11.8,7.2-18.2,21.8-30.8,27.6c-5.4,2.5-11.4,3.2-17,5.2
				c-5.6,2-11.1,6.1-12.1,11.9c-0.6,3.9,0.8,7.7,2.2,11.4c3.9,10.1,8.2,20.8,16.8,27.5c9.7,7.7,22.9,8.9,35.3,9.7
				c11.1,0.8,22.4,1.5,33.5,0.1c10-1.3,19.6-4.3,29.2-7.5c16.9-5.7,33.8-12.1,48.3-22.6c6.4-4.6,12.4-10.2,15.9-17.2
				c2.1-4.1,3.3-8.6,4.3-13.1c2.3-9.7,4.1-19.8,2.5-29.7c-1.4-9.1-5.5-19.2-0.5-26.9c2.5-3.9,6.9-6.2,10.6-9
				c6.9-5.2,12.1-12.6,14.6-20.9"/>
		</g>
		<g>
			<g>
				<path fill="#FFFFFF" d="M364.2,529.1c0.8,0,0.8-1.2,0-1.2C363.4,527.9,363.4,529.1,364.2,529.1L364.2,529.1z"/>
			</g>
		</g>
		<g>
			<path fill="#7F8058" d="M363.8,528.1c-9,9.5-19.5,19.8-32.6,19.7c-4.2,0-8.2-1.2-12.2-2.4c-20.1-6.3-41-16.1-61.2-10.4
				c-7.6,2.1-14.7,6.5-22.6,7.2c-5.7,0.5-11.5-0.9-17.1,0c-14.9,2.2-23.6,18.1-36.9,25.1c-7.9,4.1-17.1,4.9-25.1,8.7
				c-10,4.8-17.3,14-22.8,23.6c-5.6,9.6-9.8,20-16,29.3c-6.1,9.2-14,17.1-23.2,23.3c10,7.1,25.2-1.8,35.7,4.5
				c4.3,2.6,6.9,7.3,10.9,10.3c10.2,7.9,24.9,3,37.8,3.4c10.6,0.3,20.8,4.5,31.4,3.8c12.6-0.8,23.6-8.3,35.6-12.3
				c13.6-4.6,28.6-4.6,41.8-10.4c22-9.5,34.5-32.4,44.8-54c4.1-8.6,8.1-17.6,8.4-27.1c0.1-3.8-0.3-7.6,0.5-11.3
				c1.7-7.7,8.5-13,14.4-18.2c5.9-5.2,11.8-12.1,10.7-19.9"/>
		</g>
		<g>
			<path fill="#7F8058" d="M353.3,629.5c-0.2,4.7,3,9,7,11.5c4,2.5,8.7,3.5,13.3,4.4c2.6,0.5,5.3,1.1,7.9,0.6
				c4.7-0.8,8.3-4.5,11.8-7.7c10.2-9.4,22.5-16.5,35.8-20.5c15.4-4.7,31.8-5.4,47.9-6c18.1-0.7,36.4-1.3,53.9,3.4
				c12.2,3.3,23.5,9.1,34.7,14.9c10.4,5.4,20.9,10.8,31.3,16.2c9.1,4.7,18.7,9.8,24,18.5c2.6,4.2,4.1,9.1,6.9,13.2
				c3.2,4.6,7.8,7.8,11.5,11.9c5.5,5.9,8.9,13.3,12.3,20.6c-7.8,7.7-17.5,13.3-27.2,18.5c-15.9,8.7-32.1,16.9-48.5,24.7
				c-7,3.3-14.2,6.6-21.8,8.3c-16.6,3.7-33.9-0.3-49.9-6.1c-16-5.8-31.3-13.4-47.9-17.2c-11.1-2.6-23.1-3.6-32.6-9.9
				c-7.2-4.8-12.3-12.1-17.2-19.2c-6.2-9.1-12.5-18.2-16.9-28.3c-4.9-11.2-7.8-24.1-17.4-31.7c-4.2-3.3-9.3-5.2-13.5-8.5
				s-7.5-8.8-5.8-13.8"/>
		</g>
		<g>
			<path fill="#7F8058" d="M376.8,467c4.6,8.5,16.2,10.6,25.5,8.2c9.3-2.5,17.4-8.3,26.1-12.3c18.6-8.4,39.8-8.1,60-5.7
				c34.6,4.2,68.4,14.6,99.3,30.6c6.2,3.2,12.5,6.7,17.2,11.9c4.7,5.2,7.7,12.4,6.2,19.3c-1.4,6.9-8.2,12.7-15.1,11.6
				c0.1,4,0.3,8.1,2.1,11.7s5.8,6.3,9.7,5.4c2.6-0.6,5.1-2.8,7.7-1.9c1.4,0.5,2.4,1.9,3.8,2.6c5.1,2.6,9.8-5.2,15.5-5.6
				c3.9-0.3,7,2.9,9.7,5.8c10.2,11,22.1,20.5,35,28.1c6.5,3.9,14.4,9.1,13.4,16.6c-0.3,2.8-2,5.4-3.9,7.5
				c-6.3,7.2-15.4,11.2-24.2,14.9c-11.8,5.1-23.6,10.1-35.4,15.2c-7,3-14.3,6-21.8,5.6c-7.6-0.4-15.5-5.6-16.4-13.1
				c-0.2-1.9-0.1-4-1.4-5.3c-2.3-2.5-6.7,0.2-7.9,3.4c-1.2,3.2-1,6.9-2.8,9.8c-2.6,4-8.1,4.5-12.9,4.7c-10.8,0.4-22.3,0.6-31.5-5
				c-4.6-2.8-8.3-6.8-13-9.5c-4.2-2.4-8.9-3.5-13.5-4.8c-15.5-4.4-30.2-11.2-44.8-18c-6.6-3.1-13.3-6.2-18.8-10.9
				c-4.9-4.2-8.7-9.5-12.5-14.7c-6-8.3-12.1-16.7-16.6-25.9c-5.5-11.1-8.7-23.2-10.3-35.4c-0.9-7.1-1.4-14.4-4.5-20.8
				c-5.1-10.5-16.3-16.5-26.7-21.8"/>
		</g>
		<g>
			<path fill="#7F8058" d="M379.7,321.5c4.9,7.3,13.4,12,22.1,12.3c10.7,0.4,20.6-5.3,30.1-10.3c13.3-7,27.8-13.2,42.8-12.4
				c18.1,1.1,33.9,12.2,50.7,19.2c11.9,5,24.5,7.9,36.5,12.7c12,4.7,23.7,11.6,30.8,22.4c2.4,3.6,4.3,7.8,3.9,12.1
				c-0.3,3.8-2.4,7.4-2.1,11.2c0.2,2.3,1.2,4.4,1.7,6.7c1.4,5.8-0.7,12.3-5.1,16.2c1.7,1.7,4.5,1,6.5-0.2c2-1.3,3.7-3.1,6-3.7
				c4.2-1.1,8.2,2.5,10.6,6.1s4.6,7.9,8.7,9.5c6.5,2.6,15.8-2.3,19.8,3.3c0.9,1.3,1.3,3,1.4,4.6c0.5,6.3-2.6,12.5-7,17.1
				c-4.4,4.6-10,7.8-15.6,10.8c-10,5.3-20.3,10.1-30.9,14.3c-6.2,2.5-12.5,4.7-19.2,5.3c-8.6,0.8-17.1-1.3-25.4-3.5
				c-25.2-6.7-50.3-14.6-73.5-26.7c-12.2-6.4-23.8-14-35-22.2c-10.8-7.9-21.4-16.7-27.7-28.4c-8.7-16.1-8.2-35.6-14.5-52.9
				c-3.6-9.8-9.3-18.8-16.8-26.1"/>
		</g>
		<g opacity="0.34">
			<g>
				<path fill="#6E724A" d="M251.4,316.6c-3.1-1.7-6-3.7-9-5.5c-3.5,3.8-7.4,7.2-11.2,10.6c-5,4.4-10.2,8.5-14.9,13.2
					c-6.7,6.7-10.8,16.1-13.7,24.9c-3.2,10-4.8,20.4-7.2,30.6c-2.9,12.3-6.1,24.5-9.7,36.6c-7.2,24.3-16.2,48.3-17.7,73.8
					c-0.2,2.7-0.3,5.4-0.3,8.1c1.9-1.4,3.5-3.5,4.5-5.7c1.7-3.4,2.5-7.2,4.1-10.6c3-6.5,8.6-11.3,13.8-16.2
					c11.2-10.7,21.1-22.8,29.3-35.9c6.9-10.9,12.6-22.5,17.6-34.4c1.1-2.5,2-5.8,0.2-7.8c-3.3-3.8-10.8,1.3-14.3-2.3
					c-0.8-0.8-1.1-1.9-1.9-2.7c-2.1-2.2-5.8-1-8.9-0.9c-3,0.2-6.2-1-7.8-3.5c-1.6-2.5-0.8-6.5,1.9-7.7c4.8-2.1,10.3,4.7,14.9,2.2
					c2-1.1,2.9-3.8,5.1-4.3c1.8-0.5,3.6,0.7,5.1,1.9c1.7,1.3,3.5,2.6,5.2,4c1,0.8,2.1,1.6,3.4,1.6c2,0,3.5-2.1,3.7-4
					c0.2-2-0.5-3.9-1-5.9c-4.1-16.2,6.6-32.3,8-48.9C251.1,324,250.9,320.3,251.4,316.6z"/>
			</g>
		</g>
		<g opacity="0.34">
			<g>
				<path fill="#6E724A" d="M353.7,439.5C353.7,439.5,353.7,439.4,353.7,439.5c-0.7-1.5-1.6-2.8-2.4-4.2c-0.3,0-0.6-0.1-0.8-0.4
					c-0.6-1.2-1.3-2.4-2-3.5c-0.9-1.2-1.9-2.5-2.8-3.7c-0.4-0.4-0.8-0.9-1.2-1.3c-0.7,0.8-1.4,1.5-2.1,2.2
					c-7.6,6.5-14.4,13.8-21.2,21.1c-22.8,24.6-51.6,46.5-86.3,49c-7.9,0.6-15.9,0.1-23.7-1.1c-8.5-1.3-16.7-4.4-25.2-5.6
					c-5.9-0.8-12.2-1.2-17.9-2.5c-0.1,0.4-0.2,0.8-0.3,1.2c-0.6,3.9,0.8,7.7,2.2,11.4c3.9,10.1,8.2,20.8,16.8,27.5
					c9.7,7.7,22.9,8.9,35.3,9.7c11.1,0.8,22.4,1.5,33.5,0.1c10-1.3,19.6-4.3,29.2-7.5c16.9-5.7,33.8-12.1,48.3-22.6
					c6.4-4.6,12.4-10.2,15.9-17.2c2.1-4.1,3.3-8.6,4.3-13.1c2.3-9.7,4.1-19.8,2.5-29.7C355.2,446.1,354.4,442.8,353.7,439.5z"/>
			</g>
		</g>
		<g opacity="0.34">
			<g>
				<path fill="#6E724A" d="M362.7,528.1c-4.2,4.5-8.8,9.1-13.8,12.8c-1.9,2.5-3.9,4.9-6.1,7.3c-12.6,13.7-28.3,24.3-44.2,33.8
					c-20,12-41.5,21.5-63.7,28.8c-11.9,3.9-24,7.2-36.3,9.7c-12.1,2.5-24.2,4.6-36.1,8c-23.1,6.6-45.4,15.7-67.7,24.7
					c9.9,4.8,23.8-2.5,33.6,3.3c4.3,2.6,6.9,7.3,10.9,10.3c10.2,7.9,24.9,3,37.8,3.4c10.6,0.3,20.8,4.5,31.4,3.8
					c12.6-0.8,23.6-8.3,35.6-12.3c13.6-4.6,28.6-4.6,41.8-10.4c22-9.5,34.5-32.4,44.8-54c4.1-8.6,8.1-17.6,8.4-27.1
					c0.1-3.8-0.3-7.6,0.5-11.3c1.7-7.7,8.5-13,14.4-18.2c5.9-5.2,11.8-12.1,10.7-19.9L362.7,528.1z"/>
			</g>
		</g>
		<g opacity="0.34">
			<g>
				<path fill="#6E724A" d="M414.9,656.8c24.2,7.3,48.1,15.8,72.4,22.9c24.4,7.1,49.4,11.6,74.3,16.5c21.8,4.4,44,10.1,66.2,11.2
					c7.1,0.3,14.4,0.7,21.3,2.5c0.9,0.3,1.9,0.5,2.9,0.9c0.1-0.1,0.1-0.1,0.2-0.2c-3.4-7.3-6.8-14.7-12.3-20.6
					c-3.8-4.1-8.4-7.3-11.6-11.9c-2.8-4.1-4.3-9-6.9-13.2c-5.4-8.7-14.9-13.8-24-18.5c-10.4-5.4-20.9-10.8-31.3-16.2
					c-11.2-5.8-22.5-11.6-34.7-14.9c-17.4-4.7-35.8-4.1-53.9-3.4c-16.1,0.6-32.5,1.2-47.9,6c-13.3,4.1-25.6,11.1-35.8,20.5
					c-3.5,3.2-7.1,6.9-11.8,7.7c-2.6,0.4-5.3-0.1-7.9-0.6c0,0-0.1,0-0.1,0C387.5,649.6,401.4,652.7,414.9,656.8z"/>
			</g>
		</g>
		<g opacity="0.34">
			<g>
				<path fill="#6E724A" d="M397.1,485.4c5.7,3.1,11.7,5.8,17.5,8.3c11.7,5,23.9,9,35.5,14.3c25.9,11.7,49.4,27.8,74,41.8
					c25.3,14.3,51.7,25.2,80.3,30.7c23.8,4.6,48.3,6,71.9,12c5.2,1.3,10.4,2.7,15.7,4c0.5-1,0.8-2.1,0.9-3.2
					c0.9-7.5-6.9-12.8-13.4-16.6c-12.9-7.6-24.7-17.1-35-28.1c-2.7-2.8-5.8-6-9.7-5.8c-5.7,0.4-10.4,8.2-15.5,5.6
					c-1.4-0.7-2.3-2.1-3.8-2.6c-2.5-0.9-5.1,1.3-7.7,1.9c-3.9,0.9-7.9-1.9-9.7-5.4c-1.8-3.6-2-7.7-2.1-11.7
					c6.9,1.1,13.7-4.7,15.1-11.6c1.4-6.9-1.5-14.1-6.2-19.3c-4.7-5.2-10.9-8.7-17.2-11.9c-31-15.9-64.8-26.3-99.3-30.6
					c-20.2-2.5-41.5-2.7-60,5.7c-8.8,4-16.8,9.8-26.1,12.3c-9.3,2.5-21,0.3-25.5-8.2l-2.8,2.2C382.4,473.5,391.3,478.2,397.1,485.4z
					"/>
			</g>
		</g>
		<g opacity="0.34">
			<g>
				<path fill="#6E724A" d="M438,361.5c22.5,12.5,45.5,24.2,67.6,37.5c22.9,13.7,46,28.5,72.5,34.4c9.1,2,18.3,2.8,27.5,1.9
					c7.3-0.7,14.6-1.4,22-1.9c5.4-0.3,11-0.6,16.5-0.2c0-0.7,0-1.4,0-2c-0.1-1.6-0.5-3.3-1.4-4.6c-4.1-5.6-13.4-0.7-19.8-3.3
					c-4-1.6-6.2-5.9-8.7-9.5s-6.4-7.2-10.6-6.1c-2.3,0.6-4,2.4-6,3.7c-2,1.3-4.9,1.9-6.5,0.2c4.4-4,6.5-10.4,5.1-16.2
					c-0.5-2.2-1.5-4.4-1.7-6.7c-0.3-3.8,1.8-7.4,2.1-11.2c0.4-4.3-1.5-8.5-3.9-12.1c-7.1-10.7-18.8-17.6-30.8-22.4
					c-12-4.7-24.6-7.7-36.5-12.7c-16.8-7-32.5-18.1-50.7-19.2c-15-0.9-29.5,5.3-42.8,12.4c-9.5,5-19.3,10.7-30.1,10.3
					c-5.3-0.2-10.5-2-14.8-5c0.5,0.8,1,1.5,1.5,2.3C404.3,342.3,421.1,352.1,438,361.5z"/>
			</g>
		</g>
		<g>
			<g>
				<path fill="#919A5C" d="M242.5,312.5c0.8,0,0.8-1.2,0-1.2C241.7,311.2,241.7,312.5,242.5,312.5L242.5,312.5z"/>
			</g>
		</g>
		<g opacity="0.4">
			<g>
				<path fill="#919A5C" d="M242.4,311.8c-12.8,7.1-23.7,17.3-31.3,29.9c-9.3,15.2-12.7,33.2-17,50.3
					c-9.8,38.4-19.6,76.8-29.4,115.2c-0.2,0.8,1,1.1,1.2,0.3c9.3-36.5,18.6-72.9,27.9-109.4c4.4-17.3,7.6-35.8,16-51.7
					c7.5-14.1,19.2-25.7,33.1-33.5C243.7,312.4,243.1,311.4,242.4,311.8L242.4,311.8z"/>
			</g>
		</g>
		<g opacity="0.4">
			<g>
				<path fill="#919A5C" d="M209.5,345.5c-4.8,4.5-11.2,5.4-17.4,6.8c-4.9,1.2-9.4,2.9-13.5,5.8c-3.8,2.7-6.9,6.2-9.4,10.2
					c-4.2,6.6-8.1,14.8-17.1,15c-0.8,0-0.8,1.3,0,1.2c13.2-0.3,16.4-16.3,24.8-23.5c5.6-4.9,12.1-6.8,19.2-8.4
					c5.3-1.2,10.2-2.6,14.2-6.3C211,345.8,210.1,345,209.5,345.5L209.5,345.5z"/>
			</g>
		</g>
		<g opacity="0.4">
			<g>
				<path fill="#919A5C" d="M195.3,389.9c-11.8,13.1-26,23.5-42.1,30.8c-0.7,0.3-0.1,1.4,0.6,1.1c16.2-7.3,30.5-17.7,42.4-30.9
					C196.7,390.2,195.8,389.3,195.3,389.9L195.3,389.9z"/>
			</g>
		</g>
		<g opacity="0.4">
			<g>
				<path fill="#919A5C" d="M182.4,438.9c-6.7,4.7-13,9.9-18.8,15.7c-0.6,0.6,0.3,1.4,0.9,0.9c5.8-5.7,11.9-10.8,18.5-15.5
					C183.7,439.5,183.1,438.4,182.4,438.9L182.4,438.9z"/>
			</g>
		</g>
		<g opacity="0.4">
			<g>
				<path fill="#919A5C" d="M191.3,415.5c6.8,5.5,7.4,14.2,7.5,22.4c0.1,7.1,0.5,13.6,3.3,20.2c0.3,0.7,1.5,0.4,1.2-0.3
					c-3.7-8.9-2.6-17.7-3.6-27c-0.6-6.2-2.7-12.1-7.6-16.1C191.6,414.1,190.7,415,191.3,415.5L191.3,415.5z"/>
			</g>
		</g>
		<g opacity="0.4">
			<g>
				<path fill="#919A5C" d="M225.8,327.5c-4.7,9.6-2.4,18.3-1,28.4c1.5,11.5-1.4,22.8-8.1,32.2c-0.5,0.7,0.6,1.3,1.1,0.6
					c5.3-7.5,8.4-16.2,8.7-25.4c0.4-12.2-5.4-23.4,0.4-35.2C227.2,327.4,226.2,326.8,225.8,327.5L225.8,327.5z"/>
			</g>
		</g>
		<g opacity="0.4">
			<g>
				<path fill="#919A5C" d="M347,431.1c7.3-9.3,16.1-17.1,26.3-23.2c0.7-0.4,0.1-1.4-0.6-1.1c-25.5,10.8-42.2,33.7-61.2,52.8
					c-10.6,10.6-22.2,20-36,26.3c-15.4,7-32.5,10.2-49.3,9.2c-18-1.1-36.5-6.7-53.9,0.2c-0.7,0.3-0.4,1.5,0.3,1.2
					c16.5-6.6,34-1.8,51-0.4c15.4,1.3,31-0.8,45.5-6.2c27.8-10.3,45.8-32.4,65.8-53.1c11.2-11.7,23.4-22.4,38.5-28.8
					c-0.2-0.4-0.4-0.7-0.6-1.1c-10.2,6.2-19.1,14-26.5,23.4C345.6,430.8,346.5,431.7,347,431.1L347,431.1z"/>
			</g>
		</g>
		<g opacity="0.4">
			<g>
				<path fill="#919A5C" d="M333.6,440.4c0.8,0,0.8-1.2,0-1.2C332.8,439.1,332.8,440.4,333.6,440.4L333.6,440.4z"/>
			</g>
		</g>
		<g opacity="0.4">
			<g>
				<path fill="#919A5C" d="M332.6,439.8c0.7,8.4,1.5,17.3-1.3,25.5c-2.8,8.5-9.8,13.1-16,18.8c-4.7,4.4-7.6,9.5-10.1,15.3
					c-2.9,6.7-5.4,13.7-11.7,18.1c-0.7,0.5,0,1.5,0.6,1.1c5.3-3.7,8.1-9.1,10.6-14.9c3.5-8.2,6.9-14.9,13.8-20.9
					c5.9-5,11.4-9.7,13.9-17.3c2.8-8.3,2.1-17.3,1.3-25.8C333.8,439,332.5,439,332.6,439.8L332.6,439.8z"/>
			</g>
		</g>
		<g opacity="0.4">
			<g>
				<path fill="#919A5C" d="M331.6,437c-9.2-7.1-21.4-3.2-31.7-1c-15.7,3.4-31.7,5.3-47.8,6c-0.8,0-0.8,1.3,0,1.2
					c13.6-0.6,27.1-2,40.5-4.5c11.8-2.2,27.6-8.9,38.3-0.6C331.6,438.6,332.2,437.5,331.6,437L331.6,437z"/>
			</g>
		</g>
		<g opacity="0.4">
			<g>
				<path fill="#919A5C" d="M289.6,479.5c-11-5.3-22.7-9.1-34.8-10.9c-5.6-0.9-11.3-1.4-17-1.5c-6.8-0.1-14.6,1.9-21.2,0
					c-0.8-0.2-1.1,1-0.3,1.2c5.3,1.5,10.8,0.2,16.2,0.1c6.5-0.2,13,0.2,19.4,1c12.9,1.7,25.3,5.6,37.1,11.2
					C289.7,480.9,290.4,479.9,289.6,479.5L289.6,479.5z"/>
			</g>
		</g>
		<g opacity="0.4">
			<g>
				<path fill="#919A5C" d="M291.9,482.3c-19.3,26.5-50.9,37.1-79.5,50.6c-0.7,0.3-0.1,1.4,0.6,1.1c16.1-7.5,32.7-14.4,48.3-23
					c12.6-6.9,23.3-16.5,31.7-28.1C293.4,482.3,292.4,481.6,291.9,482.3L291.9,482.3z"/>
			</g>
		</g>
		<g opacity="0.4">
			<g>
				<path fill="#919A5C" d="M238.1,495.1c-9.9,0.7-19.8,1.6-28.9,5.7c-10,4.5-21.9,13.1-32.7,5.4c-0.7-0.5-1.3,0.6-0.6,1.1
					c7.6,5.4,16.8,3,24.6-0.8c5.8-2.8,11.3-5.9,17.5-7.6c6.6-1.7,13.4-2.2,20.1-2.7C238.9,496.3,238.9,495.1,238.1,495.1
					L238.1,495.1z"/>
			</g>
		</g>
		<g opacity="0.4">
			<g>
				<path fill="#919A5C" d="M361.2,531.4c-15.8,13.1-31.5,26.5-47.5,39.4c-15.7,12.7-32.6,21.7-51.8,28.1
					c-18.3,6.1-37.2,10.8-55.8,16c-20.2,5.6-40.3,11.2-60.5,16.8c-15.9,4.4-35.8,7.3-46.3,21.4c-0.4,0.5,0.4,1.1,0.9,0.9
					c39.4-20.4,82.8-30.4,125.6-40.8c19-4.6,38.2-9.4,56.3-17c17.8-7.5,32.9-18.2,46.8-31.6c15-14.6,29.2-30.8,48.9-39.4
					c0.7-0.3,0.1-1.4-0.6-1.1c-16.5,7.2-29.4,19.9-42,32.5c-14.1,14.1-28.6,26.8-46.7,35.4c-18.6,8.8-38.6,14.1-58.5,18.9
					c-21.2,5.2-42.4,10.1-63.4,16.2c-23,6.7-45.5,14.8-66.8,25.8c0.3,0.3,0.6,0.6,0.9,0.9c10.8-14.4,32.3-17.2,48.5-21.6
					c19.8-5.5,39.7-11,59.5-16.5c34.9-9.7,71.9-17.1,101.2-39.8c17.9-13.9,35.1-28.9,52.5-43.5C362.7,531.8,361.8,530.9,361.2,531.4
					L361.2,531.4z"/>
			</g>
		</g>
		<g opacity="0.4">
			<g>
				<path fill="#919A5C" d="M322.2,570c0.8,0,0.8-1.2,0-1.2C321.4,568.7,321.4,570,322.2,570L322.2,570z"/>
			</g>
		</g>
		<g opacity="0.4">
			<g>
				<path fill="#919A5C" d="M320.8,568.7c-12.3,30.5-33,59-64,72.3c-0.7,0.3-0.1,1.4,0.6,1.1c31.3-13.4,52.2-42.2,64.6-73
					C322.3,568.3,321.1,568,320.8,568.7L320.8,568.7z"/>
			</g>
		</g>
		<g opacity="0.4">
			<g>
				<path fill="#919A5C" d="M319.1,571.6c-4.8-4.8-11-6.8-17.5-8.1c-9.2-1.9-18.6-3.3-27.9-4.9c-17.9-3.1-36.1-7.2-54.3-4.1
					c-0.8,0.1-0.5,1.3,0.3,1.2c18-3,36,1.1,53.7,4.1c8.1,1.4,16.1,2.7,24.2,4.2c7.5,1.3,15,3,20.6,8.5
					C318.8,573.1,319.7,572.2,319.1,571.6L319.1,571.6z"/>
			</g>
		</g>
		<g opacity="0.4">
			<g>
				<path fill="#919A5C" d="M246.8,608.5c-9.1,2-13.7,9.9-18.8,16.9c-6.8,9.2-16.3,15.3-27.6,17.4c-0.8,0.1-0.5,1.3,0.3,1.2
					c8.6-1.6,16.6-5.5,22.9-11.6c7.8-7.6,11.8-20.2,23.5-22.7C247.9,609.5,247.6,608.3,246.8,608.5L246.8,608.5z"/>
			</g>
		</g>
		<g opacity="0.4">
			<g>
				<path fill="#919A5C" d="M242,608.1c-10.6-7.2-22.4-12.2-35-14.5c-13.2-2.4-27.4,0.2-40-4.9c-0.7-0.3-1.1,0.9-0.3,1.2
					c12.2,5,25.6,2.6,38.3,4.7c13.1,2.1,25.4,7.2,36.4,14.6C242,609.7,242.7,608.6,242,608.1L242,608.1z"/>
			</g>
		</g>
		<g opacity="0.4">
			<g>
				<path fill="#919A5C" d="M191.1,622.7c-19.1,2.4-29.5,21.9-47.8,26.2c-0.8,0.2-0.5,1.4,0.3,1.2c18.2-4.3,28.6-23.9,47.5-26.2
					C191.9,623.8,191.9,622.6,191.1,622.7L191.1,622.7z"/>
			</g>
		</g>
		<g opacity="0.4">
			<g>
				<path fill="#919A5C" d="M158.5,627.1c-10.7-4.6-21.8-7.5-33.4-8.5c-0.8-0.1-0.8,1.2,0,1.2c11.3,1,22.3,3.7,32.7,8.3
					C158.6,628.5,159.2,627.5,158.5,627.1L158.5,627.1z"/>
			</g>
		</g>
		<g opacity="0.4">
			<g>
				<path fill="#919A5C" d="M292.4,588.6c-19.6-6.1-39.9-9.4-60.4-9.4c-10.2,0-21.4,2.8-29.6-4.7c-5.7-5.2-11.6-8.4-19.4-8.8
					c-0.8,0-0.8,1.2,0,1.2c5,0.3,9.9,1.7,14.1,4.6c3.3,2.3,5.7,5.7,9.4,7.5c7,3.5,16.2,1.5,23.7,1.4c21-0.2,41.9,3.1,62,9.3
					C292.8,590,293.2,588.8,292.4,588.6L292.4,588.6z"/>
			</g>
		</g>
		<g opacity="0.4">
			<g>
				<path fill="#919A5C" d="M291.4,594.1c-10,2.5-18.3,8.5-26.5,14.5c-3.8,2.8-7.6,5.7-10.8,9.2c-3.1,3.5-5.1,7.7-7.4,11.7
					c-5.7,10.1-16.2,16.1-25.8,22c-9.9,6.1-20.1,11.6-30.6,16.6c-0.7,0.3-0.1,1.4,0.6,1.1c9.9-4.7,19.6-9.9,29-15.6
					c8.4-5.1,17.6-10.3,24.1-18c2.9-3.4,4.7-7.3,6.8-11.1c2.9-5,6.9-8.9,11.5-12.4c8.9-6.9,18.4-14,29.5-16.8
					C292.5,595.2,292.1,594,291.4,594.1L291.4,594.1z"/>
			</g>
		</g>
		<g>
			<g>
				<path fill="#7F7F59" d="M343.1,754.8c-1.5,3.6-2.9,7.5-1.7,11.2c1.3,4.1,5.6,6.4,9.8,7.4c13.6,3.2,27.2-4.2,40.8-7.4
					c21.1-5.1,43.1-0.3,64.3,4.4c-2.3,3.3-3.5,7.6-2.1,11.4c1.4,3.8,5.8,6.4,9.6,5c4-1.5,5.5-6.3,8.6-9.3c2.8-2.7,6.9-3.7,10.8-3.6
					c8.5,0.3,16.1,5.3,23.1,10.2c4.8,3.3,9.6,6.7,14.4,10c6.1,4.2,12.3,8.5,17.3,14c6.5,7.1,10.7,15.9,16.4,23.6
					c4.3,5.9,9.7,11.4,11.5,18.5c2.5,9.5-1.9,19.7-0.3,29.4c1,6.2,4.1,13.6-0.5,17.9c-1.2,1.1-2.7,1.8-4.2,2.4
					c-26.7,11.3-55.5,22.9-83.8,16.9c-5.6-1.2-11-3-15.9-6c-4.5-2.7-8.4-6.2-12.9-9c-6.9-4.3-14.9-6.7-22.4-9.8
					c-19.5-8.1-36.3-21.4-52.9-34.6c-4.7-3.7-9.4-7.5-13.2-12.2c-13.5-16.7-12.1-41.3-4.3-61.2c0.9-2.3,1.7-5.4-0.3-6.9
					c-1.2-0.9-3-0.7-4.5-0.8c-4.8-0.3-8.6-4.6-9.8-9.2c-1.2-4.7-0.1-9.6,1.5-14.1"/>
			</g>
			<g opacity="0.34">
				<g>
					<path fill="#6E724A" d="M350.7,776.2c1.5,0.1,3.3-0.1,4.5,0.8c1.1,0.9,1.4,2.3,1.2,3.7c11.9,6,24.3,10.7,37,15.1
						c36.1,12.5,71.2,26.8,104.9,44.8c7.5,4,15.2,7.9,22.1,12.9c6.5,4.7,12.3,10.3,17.8,16.2c5.5,5.8,10.7,11.9,16.3,17.7
						c2.8,2.9,5.7,5.8,8.8,8.5c0.6,0.5,1.2,1,1.8,1.5c0,0,0,0,0,0c4.6-4.3,1.5-11.7,0.5-17.9c-1.6-9.7,2.8-19.9,0.3-29.4
						c-1.8-7.1-7.2-12.6-11.5-18.5c-5.7-7.7-10-16.5-16.4-23.6c-5-5.5-11.2-9.8-17.3-14c-4.8-3.3-9.6-6.7-14.4-10
						c-7-4.9-14.6-9.9-23.1-10.2c-3.9-0.1-8,0.9-10.8,3.6c-3.1,3-4.6,7.8-8.6,9.3c-3.8,1.4-8.2-1.3-9.6-5c-1.4-3.8-0.2-8.1,2.1-11.4
						c-21.1-4.7-43.2-9.5-64.3-4.4c-13.6,3.3-27.2,10.7-40.8,7.4c-4.2-1-8.4-3.3-9.8-7.4c-1.2-3.7,0.3-7.6,1.7-11.2l-0.7-2
						c-1.6,4.5-2.7,9.4-1.5,14.1C342,771.6,345.9,775.9,350.7,776.2z"/>
				</g>
			</g>
			<g opacity="0.4">
				<g>
					<path fill="#919A5C" d="M344.9,767.4c2.7,1.2,8.3,2.5,9.7,5.2c1.4,2.6,1.7,5.2,3.6,7.7c4.3,5.5,10.8,8.3,17.4,9.9
						c8.7,2.2,17.6,3.3,26.3,5.7c8.8,2.5,17.3,5.6,25.8,9c16.8,6.9,33.2,14.8,49.5,22.8c15,7.4,29.8,15.3,43.8,24.5
						c16.2,10.6,31.1,22.9,43.8,37.5c0.5,0.6,1.4-0.3,0.9-0.9c-21.4-24.8-49.3-42.4-78.1-57.3c-15.4-7.9-31-15.4-46.8-22.4
						c-15.8-7.1-32.1-13.5-49.1-17.1c-10-2.1-21.5-2.6-29.6-9.7c-1.7-1.5-3.3-3.2-4.4-5.2c-0.7-1.2-1.2-2.4-1.5-3.6
						c-0.1-0.5-0.2-2.3-0.5-2.7c-1.7-2.2-7.5-3.5-10.1-4.6C344.8,766,344.1,767.1,344.9,767.4L344.9,767.4z"/>
				</g>
			</g>
			<g opacity="0.4">
				<g>
					<path fill="#919A5C" d="M363.7,782.4c2.4,6.5,8,10.4,12.2,15.6c6.1,7.6,7.1,17.3,8.3,26.6c1.6,12,4.5,26.3,16.9,31.5
						c0.7,0.3,1.4-0.8,0.6-1.1c-14.5-6.2-15.2-23.8-17.2-37.1c-1.1-6.9-2.7-13.8-6.8-19.6c-4.1-5.7-10.3-9.5-12.8-16.3
						C364.6,781.3,363.4,781.7,363.7,782.4L363.7,782.4z"/>
				</g>
			</g>
			<g opacity="0.4">
				<g>
					<path fill="#919A5C" d="M408.7,799.6c15.9,8.8,15.5,28.9,20.4,44.2c2.2,6.9,6,12.7,10.5,18.3c5.9,7.3,12,14.6,18,21.8
						c0.5,0.6,1.4-0.3,0.9-0.9c-6-7.3-12.1-14.5-18-21.8c-6.4-8-10.2-16.1-12.4-26.1c-3-13.5-5.5-29.2-18.8-36.6
						C408.6,798.1,408,799.2,408.7,799.6L408.7,799.6z"/>
				</g>
			</g>
			<g opacity="0.4">
				<g>
					<path fill="#919A5C" d="M391.3,792.9c25.4-5.8,51.7-4.7,76.6,3.1c0.8,0.2,1.1-1,0.3-1.2c-25.1-7.9-51.7-8.9-77.3-3.1
						C390.2,791.9,390.5,793.1,391.3,792.9L391.3,792.9z"/>
				</g>
			</g>
			<g opacity="0.4">
				<g>
					<path fill="#919A5C" d="M453.3,818.5c18-3.4,37.5-9.2,55.9-5.5c8.7,1.7,15.2,5.8,21.9,11.4c3.8,3.1,8.4,5.4,13,2.4
						c0.7-0.4,0-1.5-0.6-1.1c-7.3,4.8-15.5-6.5-21.7-9.7c-5.8-3-12.3-4.6-18.8-5.1c-16.7-1.4-33.7,3.3-50,6.4
						C452.2,817.5,452.5,818.7,453.3,818.5L453.3,818.5z"/>
				</g>
			</g>
			<g opacity="0.4">
				<g>
					<path fill="#919A5C" d="M481.7,831.3c-5.5,13.5-0.1,27.4,7.6,38.8c8.8,13.1,19.6,24.9,31.3,35.5c0.6,0.5,1.5-0.3,0.9-0.9
						c-10.8-9.8-20.7-20.6-29.2-32.5c-8.4-11.8-15.3-26.2-9.4-40.6C483.2,830.9,482,830.6,481.7,831.3L481.7,831.3z"/>
				</g>
			</g>
			<g opacity="0.4">
				<g>
					<path fill="#919A5C" d="M514.8,849.3c8.6,0.1,16.9-1.1,25.5,0.1c8.6,1.3,16.7,4.2,24.1,8.6c0.7,0.4,1.3-0.7,0.6-1.1
						c-7.3-4.3-15.3-7.3-23.7-8.6c-8.9-1.4-17.6-0.2-26.6-0.3C514,848.1,514,849.3,514.8,849.3L514.8,849.3z"/>
				</g>
			</g>
		</g>
		<g opacity="0.4">
			<g>
				<path fill="#919A5C" d="M352.5,631.6c-0.4,5.3,2.3,9.7,7.1,11.9c0.6,0.3,1.1-0.3,0.9-0.9c-3.4-7.3-5.9-14.8-7.7-22.6
					c-0.2-0.7-1.2-0.5-1.2,0.2c-1.5,18.1,17.4,26.3,32.2,28.9c21.4,3.8,42.9,6.6,63.9,12.4c21.3,5.8,40.6,15.5,60.9,23.8
					c20,8.2,41.3,11.3,62.6,14.1c26.2,3.4,52.4,6.4,78.6,9.1c0.8,0.1,0.8-1.2,0-1.2c-21.7-2.2-43.3-4.6-64.9-7.3
					c-21.1-2.6-42.6-4.7-63-11.1c-19.7-6.1-37.7-16.7-57.2-23.4c-19.2-6.6-39.2-10.9-59.3-14.2c-10.7-1.8-21.9-2.5-32.2-5.9
					c-11-3.6-21.5-12.5-20.4-25.1c-0.4,0.1-0.8,0.1-1.2,0.2c1.8,7.9,4.4,15.5,7.8,22.9c0.3-0.3,0.6-0.6,0.9-0.9
					c-4.4-2.1-6.8-6-6.4-10.9C353.8,630.8,352.5,630.8,352.5,631.6L352.5,631.6z"/>
			</g>
		</g>
		<g opacity="0.4">
			<g>
				<path fill="#919A5C" d="M417.9,656.6c29.5-28.6,75-21.9,110.2-38.6c0.7-0.3,0.1-1.4-0.6-1.1c-35.3,16.8-80.8,10.1-110.4,38.8
					C416.4,656.3,417.3,657.2,417.9,656.6L417.9,656.6z"/>
			</g>
		</g>
		<g opacity="0.4">
			<g>
				<path fill="#919A5C" d="M419.6,655.7c5.2,15,15.3,25.9,28.8,33.9c4.3,2.5,8.3,5.2,10.7,9.7c2.3,4.3,3.1,9.4,4.8,13.9
					c2.8,7.7,7,14.7,12.1,21.1c0.5,0.6,1.4-0.3,0.9-0.9c-6.2-7.6-10.6-16-13.4-25.3c-2-6.6-3.8-12.2-9.5-16.4
					c-6.6-4.9-13.8-8.1-19.7-14.1c-6.2-6.3-10.7-13.9-13.6-22.2C420.5,654.6,419.3,654.9,419.6,655.7L419.6,655.7z"/>
			</g>
		</g>
		<g opacity="0.4">
			<g>
				<path fill="#919A5C" d="M470.8,668.4c13.5-9.8,29-15.8,45-20.1c7.7-2,15.5-3.7,23.2-5.3c7.2-1.5,14.5-2.6,21-6.4
					c0.7-0.4,0.1-1.5-0.6-1.1c-7.1,4.1-15.3,5.1-23.2,6.7c-8.1,1.7-16.1,3.5-24,5.7c-15,4.2-29.4,10.1-42,19.3
					C469.5,667.8,470.2,668.9,470.8,668.4L470.8,668.4z"/>
			</g>
		</g>
		<g opacity="0.4">
			<g>
				<path fill="#919A5C" d="M515.6,684.3c2.6,12.4,12.1,24.2,20.2,33.6c4.4,5.2,9.1,10,14.2,14.5c3.1,2.7,6.1,5.2,7.6,9.2
					c1.2,3.2,1.6,6.5,3,9.6c0.3,0.7,1.4,0.1,1.1-0.6c-2.5-5.7-2.5-11.4-7.2-15.9c-4.8-4.6-9.8-8.9-14.3-13.8
					c-4.9-5.4-9.4-11.1-13.4-17.2c-4-6.1-8.3-12.5-9.8-19.7C516.7,683.2,515.5,683.6,515.6,684.3L515.6,684.3z"/>
			</g>
		</g>
		<g opacity="0.4">
			<g>
				<path fill="#919A5C" d="M556.8,697.7c12.6-17.7,32.7-28.8,54.4-30.1c0.8,0,0.8-1.3,0-1.2c-22.1,1.4-42.6,12.7-55.5,30.7
					C555.3,697.7,556.3,698.4,556.8,697.7L556.8,697.7z"/>
			</g>
		</g>
		<g opacity="0.4">
			<g>
				<path fill="#919A5C" d="M591.1,701.1c4.9,11.3,11.7,24.5,25.7,24.7c0.8,0,0.8-1.2,0-1.2c-13.6-0.2-20-13.2-24.7-24
					C591.8,699.8,590.7,700.4,591.1,701.1L591.1,701.1z"/>
			</g>
		</g>
		<g opacity="0.4">
			<g>
				<path fill="#919A5C" d="M376.9,470.5c20.2,12.8,40.5,28.2,63.4,35.9c12.1,4.1,24.9,5.3,36.7,10.6c10.5,4.7,19.9,11.5,29.2,18.2
					c37.5,26.8,79.5,46.7,124.7,56.5c23.2,5,48.5,6.8,70-5c0.7-0.4,0.1-1.5-0.6-1.1c-20.7,11.3-45,9.9-67.4,5.2
					c-22.6-4.7-44.8-12.1-65.9-21.6c-20.5-9.2-39.8-20.6-58-33.6c-9.1-6.5-18.2-13.3-28.3-18.3c-9.7-4.8-20.1-6.9-30.6-9.5
					c-26.8-6.5-49.7-24-72.6-38.5C376.9,468.9,376.3,470,376.9,470.5L376.9,470.5z"/>
			</g>
		</g>
		<g opacity="0.4">
			<g>
				<path fill="#919A5C" d="M423,506.6c1.3,1.9,2.8,2.1,4.6,3.3c3.4,2.3,4,5.5,5.8,8.8c2.9,5.2,7.8,9,10.5,14.3
					c3,5.8,1.8,12.7,5.3,18.4c3.3,5.3,8.4,9.3,10.2,15.5c0.2,0.8,1.4,0.4,1.2-0.3c-1.4-5-4.9-8.6-8-12.6c-2.9-3.6-4.4-7.1-5.1-11.7
					c-0.5-2.9-0.7-5.8-1.9-8.5c-2.5-5.7-7.6-9.7-10.7-15c-1.4-2.4-2-5.4-3.8-7.7c-1.9-2.4-5.3-2.5-7-5.1
					C423.6,505.3,422.5,506,423,506.6L423,506.6z"/>
			</g>
		</g>
		<g opacity="0.4">
			<g>
				<path fill="#919A5C" d="M421.3,499.3c4.9,4.3,9.9,8.6,13.6,14c3.3,4.8,5.4,10.3,7.2,15.9c3.1,10.2,4.8,20.9,9.1,30.8
					c4.7,10.8,13.3,19.3,21,28c3.8,4.2,7.5,10.1,12.2,13.2c2.1,1.4,4.5,2.1,6.2,0c0.5-0.6-0.4-1.5-0.9-0.9
					c-3.4,4.3-12.8-8.8-14.7-11c-3.8-4.2-7.6-8.4-11.3-12.7c-7.7-8.9-12.5-18.3-15.6-29.6c-2.4-8.8-4.1-17.8-7.7-26.2
					c-4-9.3-10.6-15.8-18.2-22.3C421.6,497.9,420.7,498.8,421.3,499.3L421.3,499.3z"/>
			</g>
		</g>
		<g opacity="0.4">
			<g>
				<path fill="#919A5C" d="M482.4,523c1.5,16.1,13.9,27.5,19.2,42.2c3.1,8.6,3.7,17.9,7.1,26.5c3.4,8.5,8.1,16.4,12.8,24.3
					c0.4,0.7,1.5,0.1,1.1-0.6c-4.8-8-9.6-16.1-13-24.8c-3.3-8.3-3.8-17.3-6.8-25.6c-5.2-14.5-17.7-25.9-19.2-41.8
					C483.6,522.2,482.3,522.2,482.4,523L482.4,523z"/>
			</g>
		</g>
		<g opacity="0.4">
			<g>
				<path fill="#919A5C" d="M531.4,553.7c6.6,0.2,9.3,10.1,12.8,14.5c3.8,4.7,8.5,8.6,12.8,12.7c5.3,5.1,9.9,10.6,12.2,17.8
					c2.3,7.2,0.6,14.9,3.2,21.9c0.3,0.7,1.5,0.4,1.2-0.3c-1.8-4.9-1.1-10-1.7-15.1c-0.4-3.4-1.3-6.8-2.7-10
					c-2.8-6.5-7.4-11.4-12.5-16.2c-5.8-5.4-11.6-10.5-15.5-17.5c-2.3-4.1-4.6-8.9-9.9-9C530.6,552.4,530.6,553.7,531.4,553.7
					L531.4,553.7z"/>
			</g>
		</g>
		<g opacity="0.4">
			<g>
				<path fill="#919A5C" d="M597.6,583.5c3.4,8.3,8.7,15.3,15.8,20.8c0.6,0.5,1.3-0.6,0.6-1.1c-6.8-5.2-12-12-15.3-20
					C598.5,582.5,597.3,582.8,597.6,583.5L597.6,583.5z"/>
			</g>
		</g>
		<g opacity="0.4">
			<g>
				<path fill="#919A5C" d="M426.7,502.7c5.7-15.4,20.7-19.1,34.9-23.2c14.4-4.2,28.8-8.8,42.8-14.2c0.7-0.3,0.4-1.5-0.3-1.2
					c-16.3,6.2-33,11.3-49.8,16.2c-12.6,3.7-24,9-28.8,22.1C425.2,503.1,426.4,503.5,426.7,502.7L426.7,502.7z"/>
			</g>
		</g>
		<g opacity="0.4">
			<g>
				<path fill="#919A5C" d="M484.2,517c18.4-22.9,48.1-29,75.5-34.2c0.8-0.1,0.5-1.4-0.3-1.2c-27.6,5.2-57.5,11.5-76,34.5
					C482.8,516.7,483.7,517.6,484.2,517L484.2,517z"/>
			</g>
		</g>
		<g opacity="0.4">
			<g>
				<path fill="#919A5C" d="M534.1,556.8c10.7-17.9,35.9-14.4,50.5-27.3c0.6-0.5-0.3-1.4-0.9-0.9c-14.7,13-39.8,9.4-50.7,27.6
					C532.6,556.8,533.6,557.5,534.1,556.8L534.1,556.8z"/>
			</g>
		</g>
		<g opacity="0.4">
			<g>
				<path fill="#919A5C" d="M393.1,336.1c0.8,0,0.8-1.2,0-1.2C392.3,334.9,392.3,336.1,393.1,336.1L393.1,336.1z"/>
			</g>
		</g>
		<g opacity="0.4">
			<g>
				<path fill="#919A5C" d="M392.8,336.7c18.1,5.6,35.4,13.7,51.1,24.4c14.8,10,27.6,23.4,44,30.8c8.5,3.8,16.8,6.9,24.5,12.2
					c7,4.9,13.6,10.5,20.9,15c14.1,8.6,30.4,10.8,46.6,11.7c20.3,1.1,41.2,0.2,60.3,8.5c0.7,0.3,1.4-0.8,0.6-1.1
					c-32.3-14-70.1-1.5-101.8-17.4c-7.9-4-14.8-9.6-21.9-14.9c-7-5.2-14.1-9.3-22.2-12.5c-18-7.2-31.3-20-46.9-31
					c-16.8-11.9-35.4-20.9-55-26.9C392.4,335.2,392.1,336.4,392.8,336.7L392.8,336.7z"/>
			</g>
		</g>
		<g opacity="0.4">
			<g>
				<path fill="#919A5C" d="M421.1,354.3c2.6,9,6.6,17.5,11.9,25.2c5.7,8.3,12.9,14.6,20.5,21.1c8.6,7.4,11.5,16.9,16.3,26.8
					c3.3,6.7,8.3,13.2,16.3,13.7c0.8,0.1,0.8-1.2,0-1.2c-11.1-0.7-15.3-13.2-19-21.8c-3.4-7.9-7.4-13.9-14-19.4
					c-14.5-12.1-25.4-26.3-30.8-44.7C422.1,353.2,420.9,353.5,421.1,354.3L421.1,354.3z"/>
			</g>
		</g>
		<g opacity="0.4">
			<g>
				<path fill="#919A5C" d="M479,382.5c0.8,0,0.8-1.2,0-1.2C478.2,381.3,478.2,382.5,479,382.5L479,382.5z"/>
			</g>
		</g>
		<g opacity="0.4">
			<g>
				<path fill="#919A5C" d="M478.4,381.7c-4.8,17,10.4,31.7,21.7,42.1c7.6,7,15.4,13.7,23.2,20.4c3.9,3.5,9.7,9.4,14.8,4.6
					c0.6-0.6-0.3-1.4-0.9-0.9c-4.9,4.6-11.3-3.1-14.5-5.9c-2.9-2.5-5.7-5-8.6-7.5c-5.3-4.7-10.7-9.3-15.8-14.2
					c-10.1-9.7-23-23-18.7-38.3C479.8,381.3,478.6,381,478.4,381.7L478.4,381.7z"/>
			</g>
		</g>
		<g opacity="0.4">
			<g>
				<path fill="#919A5C" d="M556.7,423c-2.2,9.5,4.5,17.6,12.6,21.7c11.3,5.7,25.1,5.5,34.6,14.7c0.6,0.6,1.5-0.3,0.9-0.9
					c-6.6-6.5-15.4-8.6-24.1-11c-10.9-3.1-26-10.1-22.8-24.2C558.1,422.5,556.9,422.2,556.7,423L556.7,423z"/>
			</g>
		</g>
		<g opacity="0.4">
			<g>
				<path fill="#919A5C" d="M427.3,351.9c0.8,0,0.8-1.2,0-1.2C426.5,350.6,426.5,351.9,427.3,351.9L427.3,351.9z"/>
			</g>
		</g>
		<g opacity="0.4">
			<g>
				<path fill="#919A5C" d="M427.3,351.4c13.5-9.6,30-11.8,46.2-12.7c8.3-0.5,16.6-0.7,24.9-1.7c8-1,22.3-6.3,26.3,4
					c0.3,0.7,1.5,0.4,1.2-0.3c-2.3-5.9-8.3-7.5-14.2-7c-5.4,0.5-10.7,1.8-16.2,2.4c-5.4,0.6-10.8,0.8-16.3,1.1
					c-18.2,1-37.2,2.4-52.6,13.2C426,350.8,426.7,351.9,427.3,351.4L427.3,351.4z"/>
			</g>
		</g>
		<g opacity="0.4">
			<g>
				<path fill="#919A5C" d="M479.7,378.8c3.9-6.8,11.6-9,18.7-10.6c8.3-1.9,16.8-3.1,25.4-3.5c13.9-0.7,28,0.3,41-5.6
					c0.7-0.3,0.1-1.4-0.6-1.1c-16,7.2-34.4,4.3-51.4,6.4c-11.2,1.4-27.8,2.8-34.2,13.8C478.2,378.9,479.3,379.5,479.7,378.8
					L479.7,378.8z"/>
			</g>
		</g>
		<g opacity="0.4">
			<g>
				<path fill="#919A5C" d="M556.9,424.4c3.8-8.4,10.8-13.5,19.7-15.2c7-1.3,14.1-1.5,20.1-5.7c0.7-0.5,0-1.5-0.6-1.1
					c-7.7,5.4-17.3,3.9-25.8,7.2c-6.6,2.6-11.6,7.7-14.5,14.1C555.5,424.5,556.6,425.1,556.9,424.4L556.9,424.4z"/>
			</g>
		</g>
		<g opacity="0.4">
			<g>
				<path fill="#919A5C" d="M521.7,404.6c8.9-10.2,20.1-16.2,33.1-19.5c10.5-2.7,21.1-4.6,29.8-11.4c0.6-0.5-0.3-1.4-0.9-0.9
					c-10.3,7.9-23.4,9-35.4,12.8c-10.8,3.4-20.1,9.6-27.5,18.1C520.3,404.3,521.2,405.2,521.7,404.6L521.7,404.6z"/>
			</g>
		</g>
		<g>
			<g>
				<path fill="#82895C" d="M272.7,746.7c-2.5,0.3-4.4-2.1-5.3-4.5c-0.8-2.4-1.1-5-2.6-7c-2.4-3.2-7.1-3.6-11-2.5
					c-3.9,1-7.4,3.1-11.3,3.9c-6.2,1.3-12.6-0.9-19-1c-6.5-0.2-12.8,1.7-19,3.6c-7.5,2.2-14.9,4.5-22.4,6.7
					c-3.8,1.2-7.7,2.3-11.2,4.3c-4.4,2.5-8.1,6.1-11.8,9.6c-4.9,4.6-10,9-13.5,14.6s-5.2,12.9-2.6,19.1c2.6,6.1,10.5,10.1,16.4,6.9
					c0.1,9.2,8.7,15.7,16.5,20.7c4.8,3.1,10.6,6.4,16.1,4.6c0.9-0.3,1.8-0.8,2.2-1.6c0.7-1.5-0.5-3.2-0.7-4.9
					c-0.4-3.5,3.4-5.9,6.7-7.1c1.2-0.5,2.6-1,3.9-0.7c3,0.6,4,4.3,5.2,7.1c2.8,6.3,10.1,10.2,16.9,9c7.5-1.3,13.2-7.9,20.5-10
					c2.8-0.8,5.8-0.9,8.7-1.4c4.1-0.8,7.9-2.5,11.8-3.9c9.8-3.7,20.2-5.9,29.5-10.7c9.3-4.8,17.7-12.9,19.4-23.2
					c1.2-7.1-0.9-14.4-0.2-21.5c1.5-15,14.4-25.9,26.3-35.1c-4.3-1.9-9.3,0.4-13,3.3c-3.7,2.9-6.9,6.6-11.3,8.2
					c-8,3-18.5-1.3-24.9,4.4"/>
			</g>
			<g opacity="0.34">
				<g>
					<path fill="#6E724A" d="M330.1,732.9c-5.1,2.6-10,5.4-14.6,8.8c-14.3,10.7-27.8,22.5-43.6,31.1c-16.1,8.7-34,13-52.2,14.9
						c-16.5,1.7-33.1,0.9-49.7,2.3c-7.8,0.7-18.5,2.2-26.9-0.5c0.2,1.3,0.5,2.7,1.1,3.9c2.6,6.1,10.5,10.1,16.4,6.9
						c0.1,9.2,8.7,15.7,16.5,20.7c4.8,3.1,10.6,6.4,16.1,4.6c0.9-0.3,1.8-0.8,2.2-1.6c0.7-1.5-0.5-3.2-0.7-4.9
						c-0.4-3.5,3.4-5.9,6.7-7.1c1.2-0.5,2.6-1,3.9-0.7c3,0.6,4,4.3,5.2,7.1c2.8,6.3,10.1,10.2,16.9,9c7.5-1.3,13.2-7.9,20.5-10
						c2.8-0.8,5.8-0.9,8.7-1.4c4.1-0.8,7.9-2.5,11.8-3.9c9.8-3.7,20.2-5.9,29.5-10.7c9.3-4.8,17.7-12.9,19.4-23.2
						c1.2-7.1-0.9-14.4-0.2-21.5C317.8,747.5,323.2,739.7,330.1,732.9z"/>
				</g>
			</g>
			<g opacity="0.4">
				<g>
					<path fill="#919A5C" d="M337.9,724.8c-7,3.4-13.8,7.4-20.3,11.7c0.3,0.3,0.5,0.7,0.8,1c5.6-5.1,11.7-9.3,18.5-12.6
						c0.6-0.3,0.2-1.3-0.5-1.1c-14.1,4-23.5,15.5-33.4,25.6c-12.3,12.6-26.9,22.1-43.2,28.5c-35.4,13.9-74.2,13.1-111.5,11
						c-0.8,0-0.8,1.2,0,1.2c36.9,2,75.2,2.9,110.3-10.5c14.6-5.5,28.3-13.4,39.8-23.9c12-11.1,21.9-26,38.4-30.7
						c-0.2-0.4-0.3-0.8-0.5-1.1c-6.9,3.4-13.1,7.6-18.7,12.8c-0.5,0.5,0.2,1.4,0.8,1c6.5-4.4,13.2-8.3,20.3-11.7
						C339.3,725.5,338.7,724.4,337.9,724.8L337.9,724.8z"/>
				</g>
			</g>
			<g opacity="0.4">
				<g>
					<path fill="#919A5C" d="M312.7,743.9c-7.2,5.6-14.7,11.6-18.9,19.8c-4.1,8-3.8,18.4-11,24.6c-0.6,0.5,0.3,1.4,0.9,0.9
						c6.3-5.3,6.9-13.5,9.6-20.9c3.7-10.2,12.1-17.1,20.4-23.5C314.2,744.3,313.3,743.4,312.7,743.9L312.7,743.9z"/>
				</g>
			</g>
			<g opacity="0.4">
				<g>
					<path fill="#919A5C" d="M267.2,775.8c-6.8,8.8-14,17.1-21.9,24.9c-3.5,3.5-7.1,6.9-10.9,10.2c-4.3,3.8-10,10.5-16,10.6
						c-0.8,0-0.8,1.3,0,1.2c4.5,0,7.6-3.1,10.9-5.8c4.9-4.1,9.7-8.4,14.4-12.9c8.9-8.6,17-17.9,24.6-27.6
						C268.8,775.8,267.7,775.2,267.2,775.8L267.2,775.8z"/>
				</g>
			</g>
			<g opacity="0.4">
				<g>
					<path fill="#919A5C" d="M232.2,786.2c-18.6,7.6-37.1,15.2-55.7,22.8c-0.7,0.3-0.4,1.5,0.3,1.2c18.6-7.6,37.1-15.2,55.7-22.8
						C233.3,787.1,232.9,785.9,232.2,786.2L232.2,786.2z"/>
				</g>
			</g>
			<g opacity="0.4">
				<g>
					<path fill="#919A5C" d="M294.7,756.7c-12.6-1.2-25,3.4-37.6,2c-6.6-0.8-11.8-3.3-16.6-7.9c-2.9-2.8-5.5-5.4-9.7-5.3
						c-0.8,0-0.8,1.3,0,1.2c5.9-0.2,9.4,6.4,14,9.2c3.7,2.3,8,3.5,12.3,3.9c12.6,1.4,25-3.1,37.6-2
						C295.5,758.1,295.5,756.8,294.7,756.7L294.7,756.7z"/>
				</g>
			</g>
			<g opacity="0.4">
				<g>
					<path fill="#919A5C" d="M265.8,775.8c-14.5-2.9-29.6-4.7-43.4-10.2c-12-4.7-23.2-11.4-36.3-12c-0.8,0-0.8,1.2,0,1.2
						c13.6,0.6,25.1,7.9,37.6,12.6c13.3,5,27.9,6.8,41.8,9.5C266.2,777.2,266.6,776,265.8,775.8L265.8,775.8z"/>
				</g>
			</g>
			<g opacity="0.4">
				<g>
					<path fill="#919A5C" d="M227.2,786c-12.5-1.5-25.5-2.1-37.6-5.7c-5.8-1.7-10.6-4.6-15.4-8c-3.7-2.6-7.2-4.7-11.7-5.2
						c-0.8-0.1-0.8,1.2,0,1.2c6.2,0.7,10.5,4.9,15.5,8.1c4.5,2.8,9.4,4.7,14.5,5.9c11.3,2.8,23.2,3.5,34.7,4.9
						C228,787.4,228,786.1,227.2,786L227.2,786z"/>
				</g>
			</g>
			<g>
				<g opacity="0.4">
					<g>
						<path fill="#919A5C" d="M272.6,787.5c-2.3-0.1-4.7-0.1-6.7,1c-2,1.1-3.3,3.9-2,5.8c0.5,0.8,1.4,1.4,2.4,1.7
							c2.5,0.9,5.5,0.6,7.6-1.2c2-1.8,2.7-5,1.3-7.3c-1.4-0.4-2.7-0.7-4.1-1.1"/>
					</g>
				</g>
				<g opacity="0.4">
					<g>
						<path fill="#7F7F4D" d="M275.2,787.6c-1.1-0.3-2.2-0.6-3.3-0.9c0,0.1,0,0.2,0,0.3l0.8,0.5c-0.3,0-0.6,0-0.8,0
							c-0.2,3.1-0.6,6.1-1.3,8.9c1.2-0.2,2.4-0.7,3.4-1.5C275.8,793.1,276.5,789.9,275.2,787.6z"/>
					</g>
				</g>
			</g>
		</g>
		<g>
			<g>
				<path fill="#7F7F4D" d="M320.2,466.2c-2.4-0.5-5.1,1.1-5.5,3.5c-0.4,2.4,2.2,4.9,4.5,4.1c1.1-0.4,1.9-1.3,2.6-2.3
					c0.6-0.8,1.2-1.7,1.2-2.8c0.1-1.5-1.1-2.9-2.5-3.2c-1.5-0.2-3,0.8-3.4,2.2"/>
			</g>
			<g>
				<path fill="#757744" d="M321.8,470.8c-2.3-0.9-4.6-2.2-6.9-2.3c-0.3,0.4-0.5,0.9-0.6,1.5c-0.4,2.4,2.2,4.9,4.5,4.1
					c1.1-0.4,1.9-1.3,2.6-2.3c0.2-0.3,0.4-0.6,0.6-0.9C322,470.8,321.9,470.8,321.8,470.8z"/>
			</g>
		</g>
		<g>
			<g>
				<path fill="#7F7F4D" d="M214.2,324.1c-2.4-0.5-5.1,1.1-5.5,3.5c-0.4,2.4,2.2,4.9,4.5,4.1c1.1-0.4,1.9-1.3,2.6-2.3
					c0.6-0.8,1.2-1.7,1.2-2.8c0.1-1.5-1.1-2.9-2.5-3.2s-3,0.8-3.4,2.2"/>
			</g>
			<g>
				<path fill="#757744" d="M215.9,328.7c-2.3-0.9-4.6-2.2-6.9-2.3c-0.3,0.4-0.5,0.9-0.6,1.5c-0.4,2.4,2.2,4.9,4.5,4.1
					c1.1-0.4,1.9-1.3,2.6-2.3c0.2-0.3,0.4-0.6,0.6-0.9C216,328.7,215.9,328.7,215.9,328.7z"/>
			</g>
		</g>
		<g>
			<g>
				<path fill="#7F7F4D" d="M232.6,332.4c-2.4-0.5-5.1,1.1-5.5,3.5s2.2,4.9,4.5,4.1c1.1-0.4,1.9-1.3,2.6-2.3
					c0.6-0.8,1.2-1.7,1.2-2.8c0.1-1.5-1.1-2.9-2.5-3.2c-1.5-0.2-3,0.8-3.4,2.2"/>
			</g>
			<g>
				<path fill="#757744" d="M234.2,337c-2.3-0.9-4.6-2.2-6.9-2.3c-0.3,0.4-0.5,0.9-0.6,1.5c-0.4,2.4,2.2,4.9,4.5,4.1
					c1.1-0.4,1.9-1.3,2.6-2.3c0.2-0.3,0.4-0.6,0.6-0.9C234.4,337,234.3,337,234.2,337z"/>
			</g>
		</g>
		<g>
			<g>
				<path fill="#7F7F4D" d="M449.9,349c-2.4-0.5-5.1,1.1-5.5,3.5c-0.4,2.4,2.2,4.9,4.5,4.1c1.1-0.4,1.9-1.3,2.6-2.3
					c0.6-0.8,1.2-1.7,1.2-2.8c0.1-1.5-1.1-2.9-2.5-3.2s-3,0.8-3.4,2.2"/>
			</g>
			<g>
				<path fill="#757744" d="M451.5,353.6c-2.3-0.9-4.6-2.2-6.9-2.3c-0.3,0.4-0.5,0.9-0.6,1.5c-0.4,2.4,2.2,4.9,4.5,4.1
					c1.1-0.4,1.9-1.3,2.6-2.3c0.2-0.3,0.4-0.6,0.6-0.9C451.7,353.6,451.6,353.6,451.5,353.6z"/>
			</g>
		</g>
		<g>
			<g>
				<path fill="#7F7F4D" d="M445.9,369.7c-2.4-0.5-5.1,1.1-5.5,3.5c-0.4,2.4,2.2,4.9,4.5,4.1c1.1-0.4,1.9-1.3,2.6-2.3
					c0.6-0.8,1.2-1.7,1.2-2.8c0.1-1.5-1.1-2.9-2.5-3.2c-1.5-0.2-3,0.8-3.4,2.2"/>
			</g>
			<g>
				<path fill="#757744" d="M447.5,374.2c-2.3-0.9-4.6-2.2-6.9-2.3c-0.3,0.4-0.5,0.9-0.6,1.5c-0.4,2.4,2.2,4.9,4.5,4.1
					c1.1-0.4,1.9-1.3,2.6-2.3c0.2-0.3,0.4-0.6,0.6-0.9C447.7,374.3,447.6,374.3,447.5,374.2z"/>
			</g>
		</g>
		<g>
			<g>
				<path fill="#7F7F4D" d="M443.3,647.4c-2.4-0.5-5.1,1.1-5.5,3.5c-0.4,2.4,2.2,4.9,4.5,4.1c1.1-0.4,1.9-1.3,2.6-2.3
					c0.6-0.8,1.2-1.7,1.2-2.8c0.1-1.5-1.1-2.9-2.5-3.2c-1.5-0.2-3,0.8-3.4,2.2"/>
			</g>
			<g>
				<path fill="#757744" d="M444.9,651.9c-2.3-0.9-4.6-2.2-6.9-2.3c-0.3,0.4-0.5,0.9-0.6,1.5c-0.4,2.4,2.2,4.9,4.5,4.1
					c1.1-0.4,1.9-1.3,2.6-2.3c0.2-0.3,0.4-0.6,0.6-0.9C445.1,652,445,652,444.9,651.9z"/>
			</g>
		</g>
		<g>
			<g>
				<path fill="#7F7F4D" d="M447.7,512.9c-2.4-0.5-5.1,1.1-5.5,3.5c-0.4,2.4,2.2,4.9,4.5,4.1c1.1-0.4,1.9-1.3,2.6-2.3
					c0.6-0.8,1.2-1.7,1.2-2.8c0.1-1.5-1.1-2.9-2.5-3.2c-1.5-0.2-3,0.8-3.4,2.2"/>
			</g>
			<g>
				<path fill="#757744" d="M449.3,517.5c-2.3-0.9-4.6-2.2-6.9-2.3c-0.3,0.4-0.5,0.9-0.6,1.5c-0.4,2.4,2.2,4.9,4.5,4.1
					c1.1-0.4,1.9-1.3,2.6-2.3c0.2-0.3,0.4-0.6,0.6-0.9C449.5,517.5,449.4,517.5,449.3,517.5z"/>
			</g>
		</g>
		<g>
			<g>
				<path fill="#7F7F4D" d="M427.3,487.2c-1.4-2-4.5-2.6-6.4-1.1s-1.7,5.1,0.6,6c1.1,0.5,2.3,0.3,3.5,0.1c1-0.2,2-0.5,2.8-1.2
					c1.1-1,1.2-2.9,0.2-4c-0.9-1.2-2.8-1.5-4-0.6"/>
			</g>
			<g>
				<path fill="#757744" d="M425.4,491.6c-1.1-2.2-2-4.7-3.6-6.3c-0.5,0.1-1,0.4-1.4,0.7c-1.9,1.5-1.7,5.1,0.6,6
					c1.1,0.5,2.3,0.3,3.5,0.1c0.4-0.1,0.7-0.2,1.1-0.3C425.5,491.8,425.5,491.7,425.4,491.6z"/>
			</g>
		</g>
		<g>
			<g>
				<path fill="#DFDFD0" d="M288.7,703.9c-3.8-0.1-7.2,2.1-8.6,5.5c1.8,0,3.5-0.4,5-1.1c0.3-0.2,0.7-0.3,1-0.3
					c1,0.1,1.3,1.4,1.3,2.4c0.1,1.5,0.1,3.1,0.9,4.5s2.2,2.6,3.7,2.4c0.9-0.1,1.6-0.7,2.1-1.4c2-2.6,2.1-6.2,2.1-9.6
					c0-0.9-0.1-1.9-0.6-2.8c-0.9-1.4-2.8-1.8-4.4-1.9c-2.4,0-4.8,0.5-6.9,1.5"/>
			</g>
			<g>
				<g>
					<path fill="#AEA54E" d="M286.1,687.5c-1.8-1.1-3.8-2-5.9-1.7c-2.1,0.2-4.1,1.7-4.5,3.8c-0.1,0.3-0.1,0.6,0.1,0.8
						c0.1,0.2,0.4,0.4,0.6,0.5c2,0.7,4.4-1.3,6.2-0.1c0.1,0.1,0.3,0.2,0.3,0.4c0,0.1,0,0.3-0.1,0.4c-0.4,0.9-1.3,1.4-2.2,1.6
						c-0.9,0.2-1.9,0.1-2.8,0.1c-0.9,0-1.9,0-2.5,0.7c-0.9,0.9-0.5,2.6,0.5,3.3s2.5,0.5,3.6-0.1c1.1-0.6,1.9-1.6,2.6-2.7
						c0.4-0.5,0.8-1.1,1.3-1.5c0.7-0.5,1.6-0.7,2.5-1.1c0.9-0.4,1.6-1,2.2-1.7c0.1-0.1,0.2-0.3,0.2-0.5c0-0.2-0.1-0.4-0.2-0.6
						c-0.3-0.6-0.7-1.2-1.3-1.5c-0.6-0.3-1.5-0.2-1.8,0.4"/>
				</g>
				<g>
					<path fill="#B6B981" d="M293.4,688.4c-2.8-1.1-5.6-2.2-8.4-3.3c-2.4-0.9-5.1-1.9-7.4-0.8c-0.9,0.4-1.7,1.1-2.4,1.8
						c-1.1,1.1-2.1,2.5-2,4.1c2.2-0.1,3.7-2.3,5.8-3c2.7-0.8,5.4,1,8.1,2c-1.8-0.8-4-0.6-5.9,0.2c-1.9,0.8-3.5,2.1-5,3.4
						c0.4,1.1,1.5,1.9,2.7,2.1s2.4,0.2,3.6,0.1c-1,0.9-2.1,1.8-3.4,2.2c-1.3,0.4-2.8,0.4-3.9-0.5c-0.7-0.6-1.5-1.5-2.4-1.1
						c-0.7,0.4-0.5,1.5,0,2.2c1.4,1.8,4,2.3,6.3,1.7s4.1-2.1,5.7-3.8c0.9-0.9,1.7-1.9,2.8-2.5c1.5-0.9,3.3-1.2,5-1
						c0.8,0.1,1.6,0.1,2.1-0.4c0.7-0.8-0.1-2.1-0.9-2.9"/>
				</g>
				<g opacity="0.28">
					<g>
						<path fill="#65783F" d="M292,692.1c0.4-1.3,0.8-2.8,1-4.1l-7.5-2.9c-0.1,0-0.2-0.1-0.3-0.1c0.5,1,1.2,2.1,1.2,2.9
							c0,0.3,0,0.5-0.1,0.8c0.4,0.2,0.8,0.3,1.2,0.5c-0.4-0.2-0.8-0.3-1.2-0.4c-0.3,0.7-0.9,1.4-1.4,2c-0.8,1.1-1.8,1.8-1.8,3.3
							c0,1.1,0.5,1.9,1,2.8c0.4-0.3,0.7-0.7,1.1-1c0.9-0.9,1.7-1.9,2.8-2.5C289.2,692.4,290.6,692.1,292,692.1z"/>
					</g>
				</g>
			</g>
			<g>
				<path fill="#CBCE96" d="M276.2,672.2c-4.1,1.6-8.8-2.5-12.9-0.9c-1.4,0.5-2.5,1.7-2.8,3.2s0,3,1,4.1c0.5-0.8,1-1.7,1.6-2.5
					c0.1-0.2,0.3-0.5,0.5-0.6c0.7-0.5,1.8,0.3,1.9,1.2c0.1,0.9-0.4,1.7-0.9,2.4c0.8,0.8,2.5-0.2,3,0.8c0.3,0.7-0.5,1.4-1.2,1.5
					s-1.5,0-2.2,0.3c-1,0.6-1,2.1-0.2,2.9c0.7,0.8,1.9,1.1,3,1.3c1.2,0.1,2.4,0.1,3.4-0.3c2.1-0.9,3-3.4,3.4-5.6
					c0.3-1.4,0.5-2.9,1.5-3.7c0.9-0.8,2.3-1,2.9-2c-0.6-0.8-1.3-1.6-2-2.3"/>
			</g>
			<g opacity="0.21">
				<g>
					<path fill="#98964A" d="M276.4,672.1c-3.7,1.5-8-1.9-11.8-1.2c1,0.7,2.1,1.2,3.2,1.9c1.5,0.9,2.6,2.1,3.3,3.7
						c0.9,2.1,1.8,3.9,2.1,5.9c0.4-0.9,0.6-1.8,0.8-2.7c0.3-1.4,0.5-2.9,1.5-3.7c0.9-0.8,2.3-1,2.9-2c-0.6-0.8-1.3-1.6-2-2.3
						L276.4,672.1z"/>
				</g>
			</g>
			<g>
				<path fill="#7F8058" d="M344.9,648.4c-1.3,1.2-2.3,2.7-3.8,3.5c-1.4,0.8-3.1,1.1-4.7,1.4c-6.9,1.1-13.8,2.2-20.7,2
					c-3.5-0.1-7.3-0.5-10.4,1.2c-2,1.1-3.6,2.9-5.7,3.6c-1.8,0.6-3.8,0.3-5.6,1c-2.6,0.9-4.2,3.4-6.1,5.3c-3.4,3.5-8.1,5.4-12.9,6.2
					c-0.6,0.1-1.3,0.2-1.9,0.3c0.7,1.3,1.2,2.6,1.7,4c0.7-0.6,1.5-1.1,2.3-1.7c2.1-1.5,4.3-3.1,6.9-3.6c1.3-0.3,2.7-0.2,4-0.6
					c4.4-1.4,6.2-7.1,10.6-8.6c1.9-0.7,4.1-0.4,6-0.8c2.3-0.6,4.3-2.2,6.5-3.2c6.9-2.9,15,1.2,22.4-0.1c6.7-1.2,11.7-6.6,16.2-11.6
					C347.8,646.2,346.1,647.2,344.9,648.4z"/>
			</g>
			<g>
				<g>
					<path fill="#7F8058" d="M301.3,660.9c-2.3,6.8-4.6,13.6-6.8,20.3c-2.1,6.2-3.8,12.7-9,16.9c-2,1.6,0.2,4.8,2.4,4.2
						c1.1-0.3,1.7-0.5,2.6-1.3c1.4-1.3,0.9-1.2,1.4-3.3c1.2-0.5,2.4-1,3.7-1.5c-2.4-1.6-5.1-0.9-6.5,1.6c-1.2,2,0.8,4,2.8,3.7
						c0.4,0.2,0.8,0.5,1.1,0.7c0.7,2.2,4.3,2.6,4.8,0c0.7-3.4-0.8-6.4-0.1-9.9c0.7-3.9,2.5-7.7,3.8-11.4c2.2-6.4,3.9-17.7,10.2-21.4
						c2.8-1.6,0.3-6-2.5-4.3c-6.9,4.1-8.6,13-11,20c-1.6,4.7-3.5,9.4-4.8,14.1c-0.5,1.9-1,3.9-1,5.8c0,1.9,1,4,0.7,5.8
						c1.6,0,3.2,0,4.8,0c-1.2-3.4-3.8-4.9-7.3-4.2c0.9,1.2,1.9,2.4,2.8,3.7c-0.1,0.1-0.2,0.1-0.3,0.2c1.3,0.9,3.3,0,3.7-1.5
						c0.5-2.3-0.2-4.4-2.7-5.1c-3.7-1.1-4.5,2.7-7.4,3.5c0.8,1.4,1.6,2.8,2.4,4.2c4.9-4,7.1-9.7,9.1-15.5c2.7-8,5.4-16,8.1-24
						C307.2,659.2,302.4,657.8,301.3,660.9L301.3,660.9z"/>
				</g>
			</g>
			<g>
				<path fill="#CBCE96" d="M292.6,696.8c-2.5,1.1-5,2.3-7.5,3.4c-0.8,0.4-1.5,0.7-2.2,1.2c-2.2,1.6-3.3,4.5-2.7,7.2
					c0.1,0.3,0.2,0.7,0.5,0.9c0.6,0.3,1.2-0.3,1.6-0.8c0.9-1.2,1.8-2.4,2.8-3.7c0.8,1.3,0.7,2.9,0.6,4.4c-0.1,1.2,0.2,2.7,1.4,2.8
					c0.5,0.1,1-0.2,1.5-0.5c1.9-1.1,3.8-2.2,5.7-3.5c1.3,2,1.3,4.8,0,6.9c-0.1,0.2-0.3,0.5-0.2,0.7c0.1,0.3,0.5,0.4,0.9,0.4
					c1.9-0.1,3.6-1.1,4.6-2.7c1-1.6,1.1-3.7,0.3-5.3c-0.9-1.9-2.9-3.4-2.7-5.5c0.1-0.9,0.6-1.9,0.2-2.8c-0.2-0.5-0.6-0.8-1.1-1.2
					c-1.1-0.9-2.2-1.7-3.3-2.6c-0.4,0.3-0.6,0.8-0.5,1.3"/>
			</g>
		</g>
		<g>
			<g>
				<path fill="#CBCE96" d="M456.2,344.9c4.2,1.3,5.3,7.4,9.5,8.7c1.4,0.4,3,0.2,4.2-0.7c1.2-0.9,1.9-2.4,1.8-3.8
					c-0.9,0.3-1.9,0.7-2.8,1c-0.3,0.1-0.5,0.2-0.8,0.2c-0.9-0.1-1.2-1.3-0.7-2.1c0.5-0.7,1.4-1.1,2.2-1.3c-0.1-1.1-2.1-1.4-1.9-2.5
					c0.2-0.7,1.2-0.8,1.8-0.4c0.6,0.4,1.2,1,1.9,1.1c1.1,0.2,2-1,2-2.2c-0.1-1.1-0.8-2.1-1.6-2.9c-0.8-0.8-1.8-1.6-2.9-1.9
					c-2.2-0.6-4.5,0.8-6.2,2.3c-1,0.9-2.2,1.9-3.5,2c-1.2,0-2.4-0.7-3.5-0.3c0,1,0.1,2,0.2,3"/>
			</g>
			<g opacity="0.21">
				<g>
					<path fill="#98964A" d="M455.9,344.8c3.8,1.2,5.1,6.4,8.6,8.3c-0.3-1.1-0.9-2.3-1.3-3.5c-0.6-1.7-0.8-3.2-0.3-5
						c0.6-2.2,1-4.2,2-6c-0.8,0.4-1.6,1-2.3,1.6c-1,0.9-2.2,1.9-3.5,2c-1.2,0-2.4-0.7-3.5-0.3c0,1,0.1,2,0.2,3L455.9,344.8z"/>
				</g>
			</g>
			<g>
				<path fill="#7F8058" d="M387.6,320.8c1.7-0.2,3.5-0.6,5.2-0.4c1.6,0.2,3.1,1,4.5,1.9c6,3.4,12.1,6.9,17.4,11.3
					c2.7,2.3,5.4,4.9,8.8,5.5c2.2,0.4,4.6,0,6.7,0.7c1.8,0.7,3.2,2.1,5,2.7c2.6,0.9,5.4,0,8.1-0.4c4.8-0.6,9.7,0.9,14,3.2
					c0.6,0.3,1.1,0.6,1.7,1c0.3-1.4,0.7-2.8,1.1-4.2c-0.9,0-1.9,0-2.8-0.1c-2.6-0.1-5.3-0.3-7.7-1.5c-1.2-0.6-2.3-1.5-3.5-2
					c-4.3-1.7-9.3,1.7-13.6,0.2c-1.9-0.7-3.4-2.2-5.3-3.1c-2.2-1-4.7-0.9-7.1-1.6c-7.2-2-11-10.2-17.6-13.8c-6-3.2-13.2-2.1-19.9-1
					C383.9,320.8,385.9,321,387.6,320.8z"/>
			</g>
		</g>
	</g>
</g>
</svg>
