<?xml version="1.0" encoding="utf-8"?>
<!-- Generator: Adobe Illustrator 18.0.0, SVG Export Plug-In . SVG Version: 6.00 Build 0)  -->
<!DOCTYPE svg PUBLIC "-//W3C//DTD SVG 1.1//EN" "http://www.w3.org/Graphics/SVG/1.1/DTD/svg11.dtd" [
	<!ENTITY ns_flows "http://ns.adobe.com/Flows/1.0/">
	<!ENTITY ns_extend "http://ns.adobe.com/Extensibility/1.0/">
	<!ENTITY ns_ai "http://ns.adobe.com/AdobeIllustrator/10.0/">
	<!ENTITY ns_graphs "http://ns.adobe.com/Graphs/1.0/">
]>
<svg version="1.1" id="Capa_1" xmlns:x="&ns_extend;" xmlns:i="&ns_ai;" xmlns:graph="&ns_graphs;"
	 xmlns="http://www.w3.org/2000/svg" xmlns:xlink="http://www.w3.org/1999/xlink" xmlns:a="http://ns.adobe.com/AdobeSVGViewerExtensions/3.0/"
	 x="0px" y="0px" viewBox="0 0 595.3 841.9" enable-background="new 0 0 595.3 841.9" xml:space="preserve">
<g>
	<g>
		<path fill="#FFFFFF" stroke="#FFFFFF" stroke-miterlimit="10" d="M108.9,235.4l13.4-70.8H140l13.3,70.8h-14.4l-2.4-15h-10.3
			l-2.4,15H108.9z M127.5,211.1h7.6l-3.8-27.4L127.5,211.1z"/>
		<path fill="#FFFFFF" stroke="#FFFFFF" stroke-miterlimit="10" d="M187.6,236.5c-3.6,0-6.7-0.6-9.2-1.7c-2.5-1.2-4.6-2.8-6-5.1
			c-1.5-2.2-2.6-4.8-3.2-7.7c-0.7-2.9-1-6.3-1-10.1v-23.5c0-3.1,0.2-5.9,0.7-8.4c0.4-2.5,1.2-4.8,2.2-6.8c1-2.1,2.3-3.8,4-5.2
			c1.6-1.4,3.6-2.4,6.1-3.2c2.4-0.8,5.2-1.1,8.4-1.1c3.1,0,5.8,0.3,8.2,1c2.4,0.7,4.3,1.6,5.9,2.7c1.6,1.2,2.9,2.6,3.9,4.4
			c1,1.8,1.7,3.7,2.1,5.7c0.4,2.1,0.6,4.4,0.6,6.9v4.5h-15.3v-5.7c0-1.1,0-2-0.1-2.6c0-0.7-0.2-1.4-0.3-2.3
			c-0.2-0.8-0.5-1.5-0.8-1.9c-0.4-0.5-0.9-0.8-1.5-1.2c-0.7-0.3-1.5-0.5-2.5-0.5c-1,0-1.8,0.2-2.5,0.6c-0.7,0.4-1.2,0.8-1.6,1.3
			c-0.4,0.5-0.7,1.2-0.9,2.1c-0.2,0.9-0.3,1.7-0.4,2.4s-0.1,1.6-0.1,2.7v32.4c0,2.8,0.4,5,1.3,6.7c0.8,1.6,2.4,2.5,4.6,2.5
			c4.1,0,6.1-3.1,6.1-9.4V208h-6.4v-9.4h20.5v36.8h-10.4l-0.9-5.9C196.9,234.1,193.1,236.5,187.6,236.5z"/>
		<path fill="#FFFFFF" stroke="#FFFFFF" stroke-miterlimit="10" d="M225.3,235.4l13.4-70.8h17.7l13.3,70.8h-14.4l-2.4-15h-10.3
			l-2.4,15H225.3z M243.8,211.1h7.6l-3.8-27.4L243.8,211.1z"/>
		<path fill="#FFFFFF" stroke="#FFFFFF" stroke-miterlimit="10" d="M285.5,235.4v-70.8h15.6v60.2h16.2v10.6H285.5z"/>
		<path fill="#FFFFFF" stroke="#FFFFFF" stroke-miterlimit="10" d="M333,235.4v-70.8h15.6v60.2h16.2v10.6H333z"/>
		<path fill="#FFFFFF" stroke="#FFFFFF" stroke-miterlimit="10" d="M377,235.4l13.4-70.8h17.7l13.3,70.8H407l-2.4-15h-10.3l-2.4,15
			H377z M395.6,211.1h7.6l-3.8-27.4L395.6,211.1z"/>
		<path fill="#FFFFFF" stroke="#FFFFFF" stroke-miterlimit="10" d="M456.1,236.4c-6.7,0-11.7-1.8-15-5.4c-3.3-3.6-5.1-9.3-5.3-17.1
			l13.4-2.1c0.1,4.4,0.6,7.7,1.6,9.7c1,2,2.5,3,4.5,3c2.6,0,4-1.7,4-5.1c0-1.9-0.3-3.7-1-5.3s-1.5-3-2.5-4.1c-1-1.1-2.4-2.5-4.2-4
			l-6.3-5.4c-1.5-1.3-2.8-2.5-3.8-3.6c-1-1.1-2-2.4-2.9-3.9c-1-1.5-1.7-3.2-2.1-5c-0.5-1.8-0.7-3.8-0.7-6c0-5.9,1.8-10.4,5.3-13.7
			s8.4-4.8,14.5-4.9c2.1,0,4,0.2,5.7,0.7c1.7,0.5,3.2,1.1,4.4,1.8c1.2,0.7,2.2,1.7,3.1,2.8c0.9,1.1,1.6,2.2,2.1,3.4
			c0.5,1.1,1,2.4,1.3,3.8c0.4,1.4,0.6,2.7,0.7,3.9s0.2,2.4,0.3,3.8l-13.5,1.8c0-1.2-0.1-2.2-0.1-3c0-0.8-0.1-1.6-0.2-2.5
			c-0.1-0.9-0.3-1.6-0.5-2.1c-0.2-0.5-0.5-1-0.8-1.5c-0.3-0.5-0.7-0.8-1.2-1c-0.5-0.2-1.1-0.3-1.8-0.3c-1.4,0-2.4,0.6-3.1,1.7
			c-0.7,1.1-1.1,2.4-1.1,3.8c0,1.3,0.2,2.6,0.5,3.7c0.3,1.1,0.9,2.2,1.7,3.2c0.8,1,1.5,1.8,2,2.3c0.5,0.5,1.4,1.3,2.6,2.4l6,5.3
			c1.7,1.5,3.1,2.9,4.3,4.2c1.2,1.4,2.3,2.9,3.4,4.6c1.1,1.7,1.9,3.6,2.5,5.7c0.6,2.1,0.8,4.3,0.8,6.6c0,5.1-1.7,9.4-5.1,12.7
			C466.1,234.7,461.6,236.4,456.1,236.4z"/>
	</g>
	<g>
		<path fill="#FFFFFF" stroke="#FFFFFF" stroke-miterlimit="10" d="M66.6,282.8H66l-1.1-1.7c-0.5,0.6-1,1.1-1.7,1.4
			c-0.7,0.4-1.4,0.5-2.2,0.5H60c-0.7,0-1.4-0.1-2-0.4c-0.6-0.3-1.2-0.6-1.6-1.1c-0.5-0.5-0.8-1-1.1-1.6s-0.4-1.3-0.4-2v-11.2
			c0-0.7,0.1-1.4,0.4-2s0.6-1.2,1.1-1.6c0.5-0.5,1-0.8,1.6-1.1c0.6-0.3,1.3-0.4,2-0.4h1.5c0.7,0,1.4,0.1,2,0.4
			c0.6,0.3,1.2,0.6,1.6,1.1s0.8,1,1.1,1.6s0.4,1.3,0.4,2v0.8l-1.9,0.3v-1.1c0-0.5-0.1-0.9-0.3-1.3c-0.2-0.4-0.4-0.8-0.7-1.1
			c-0.3-0.3-0.7-0.5-1.1-0.7c-0.4-0.2-0.8-0.3-1.3-0.3h-1.3c-0.5,0-0.9,0.1-1.3,0.3c-0.4,0.2-0.8,0.4-1.1,0.7
			c-0.3,0.3-0.5,0.7-0.7,1.1c-0.2,0.4-0.3,0.8-0.3,1.3V278c0,0.5,0.1,0.9,0.3,1.3c0.2,0.4,0.4,0.8,0.7,1.1c0.3,0.3,0.7,0.5,1.1,0.7
			c0.4,0.2,0.8,0.3,1.3,0.3h1.3c0.5,0,0.9-0.1,1.3-0.3c0.4-0.2,0.8-0.4,1.1-0.7c0.3-0.3,0.5-0.7,0.7-1.1c0.2-0.4,0.3-0.8,0.3-1.3
			v-4.4h-3.3v-1.8h5.2V282.8z"/>
		<path fill="#FFFFFF" stroke="#FFFFFF" stroke-miterlimit="10" d="M86.9,282.8l-5.7-8.9h-2.6v8.9h-1.9v-20.9h6.6
			c0.7,0,1.4,0.1,2,0.4c0.6,0.3,1.2,0.6,1.6,1.1c0.5,0.5,0.8,1,1.1,1.6s0.4,1.3,0.4,2v1.7c0,0.7-0.1,1.4-0.4,2s-0.6,1.2-1.1,1.6
			s-1,0.8-1.6,1.1c-0.6,0.3-1.3,0.4-2,0.4l5.7,8.9H86.9z M86.7,267.1c0-0.5-0.1-0.9-0.3-1.3c-0.2-0.4-0.4-0.8-0.7-1.1
			c-0.3-0.3-0.7-0.5-1.1-0.7c-0.4-0.2-0.8-0.3-1.3-0.3h-4.7v8.4h4.7c0.5,0,0.9-0.1,1.3-0.3c0.4-0.2,0.8-0.4,1.1-0.7
			c0.3-0.3,0.5-0.7,0.7-1.1s0.3-0.8,0.3-1.3V267.1z"/>
		<path fill="#FFFFFF" stroke="#FFFFFF" stroke-miterlimit="10" d="M106.5,278h-6.6l-1.4,4.9h-2l6.1-20.9h1l6.2,20.9h-1.9L106.5,278
			z M100.4,276.2h5.6l-2.8-9.6l-0.1-0.8l-0.1,0.8L100.4,276.2z"/>
		<path fill="#FFFFFF" stroke="#FFFFFF" stroke-miterlimit="10" d="M129.3,282.8l-8.7-15.2l-0.2-0.9v16.1h-1.9v-20.9h1l8.7,15.2
			l0.2,0.9v-16.1h1.9v20.9H129.3z"/>
		<path fill="#FFFFFF" stroke="#FFFFFF" stroke-miterlimit="10" d="M152.4,279.7c-0.3,0.6-0.6,1.2-1.1,1.6s-1,0.8-1.6,1.1
			c-0.6,0.3-1.3,0.4-2,0.4H141v-20.9h6.6c0.7,0,1.4,0.1,2,0.4c0.6,0.3,1.2,0.6,1.6,1.1c0.5,0.5,0.8,1,1.1,1.6s0.4,1.3,0.4,2v10.6
			C152.8,278.4,152.7,279.1,152.4,279.7z M150.9,267.1c0-0.5-0.1-0.9-0.3-1.3c-0.2-0.4-0.4-0.8-0.7-1.1c-0.3-0.3-0.7-0.5-1.1-0.7
			s-0.8-0.3-1.3-0.3h-4.7V281h4.7c0.5,0,0.9-0.1,1.3-0.3c0.4-0.2,0.8-0.4,1.1-0.7c0.3-0.3,0.5-0.7,0.7-1.1c0.2-0.4,0.3-0.8,0.3-1.3
			V267.1z"/>
		<path fill="#FFFFFF" stroke="#FFFFFF" stroke-miterlimit="10" d="M163.3,282.8v-20.9h11.8v1.8h-9.9v7.8h8v1.8h-8v7.8h9.9v1.8
			H163.3z"/>
		<path fill="#FFFFFF" stroke="#FFFFFF" stroke-miterlimit="10" d="M196.1,278c0,0.7-0.1,1.4-0.4,2s-0.7,1.2-1.2,1.6s-1,0.8-1.7,1.1
			c-0.6,0.3-1.3,0.4-2,0.4h-1.5c-0.7,0-1.4-0.1-2-0.4s-1.2-0.6-1.7-1.1s-0.9-1-1.2-1.6c-0.3-0.6-0.4-1.3-0.4-2v-0.8l1.9-0.3v1.1
			c0,0.5,0.1,0.9,0.3,1.3c0.2,0.4,0.4,0.8,0.8,1.1c0.3,0.3,0.7,0.5,1.1,0.7c0.4,0.2,0.9,0.3,1.3,0.3h1.3c0.5,0,0.9-0.1,1.3-0.3
			c0.4-0.2,0.8-0.4,1.1-0.7c0.3-0.3,0.6-0.7,0.8-1.1c0.2-0.4,0.3-0.8,0.3-1.3v-0.6c0-0.7-0.1-1.3-0.4-1.8s-0.7-0.9-1.1-1.2
			c-0.5-0.3-1-0.6-1.6-0.9c-0.6-0.2-1.2-0.5-1.8-0.7c-0.6-0.2-1.2-0.5-1.8-0.8c-0.6-0.3-1.1-0.6-1.6-1.1c-0.5-0.4-0.8-0.9-1.1-1.6
			s-0.4-1.4-0.4-2.3v-0.4c0-0.7,0.1-1.4,0.4-2s0.6-1.2,1.1-1.6c0.5-0.5,1-0.8,1.6-1.1c0.6-0.3,1.3-0.4,2-0.4h1.3
			c0.7,0,1.4,0.1,2,0.4c0.6,0.3,1.2,0.6,1.6,1.1s0.8,1,1.1,1.6s0.4,1.3,0.4,2v0.5l-1.9,0.3v-0.8c0-0.5-0.1-0.9-0.3-1.3
			c-0.2-0.4-0.4-0.8-0.7-1.1c-0.3-0.3-0.7-0.5-1.1-0.7c-0.4-0.2-0.8-0.3-1.3-0.3h-1.2c-0.5,0-0.9,0.1-1.3,0.3
			c-0.4,0.2-0.8,0.4-1.1,0.7c-0.3,0.3-0.5,0.7-0.7,1.1c-0.2,0.4-0.3,0.8-0.3,1.3v0.4c0,0.7,0.1,1.2,0.4,1.7s0.7,0.8,1.1,1.2
			c0.5,0.3,1,0.6,1.6,0.8c0.6,0.2,1.2,0.5,1.8,0.7s1.2,0.5,1.8,0.8c0.6,0.3,1.1,0.7,1.6,1.1c0.5,0.4,0.8,1,1.1,1.6
			c0.3,0.6,0.4,1.4,0.4,2.3V278z"/>
		<path fill="#FFFFFF" stroke="#FFFFFF" stroke-miterlimit="10" d="M230,280c-0.3,0.6-0.6,1.2-1.1,1.6s-1,0.8-1.6,1.1
			c-0.6,0.3-1.3,0.4-2,0.4h-1.5c-0.7,0-1.4-0.1-2-0.4c-0.6-0.3-1.2-0.6-1.6-1.1c-0.5-0.5-0.8-1-1.1-1.6s-0.4-1.3-0.4-2v-11.2
			c0-0.7,0.1-1.4,0.4-2s0.6-1.2,1.1-1.6c0.5-0.5,1-0.8,1.6-1.1c0.6-0.3,1.3-0.4,2-0.4h1.5c0.7,0,1.4,0.1,2,0.4
			c0.6,0.3,1.2,0.6,1.6,1.1s0.8,1,1.1,1.6s0.4,1.3,0.4,2v0.8l-1.9,0.3v-1.1c0-0.5-0.1-0.9-0.3-1.3c-0.2-0.4-0.4-0.8-0.7-1.1
			c-0.3-0.3-0.7-0.5-1.1-0.7c-0.4-0.2-0.8-0.3-1.3-0.3h-1.3c-0.5,0-0.9,0.1-1.3,0.3c-0.4,0.2-0.8,0.4-1.1,0.7
			c-0.3,0.3-0.5,0.7-0.7,1.1c-0.2,0.4-0.3,0.8-0.3,1.3V278c0,0.5,0.1,0.9,0.3,1.3c0.2,0.4,0.4,0.8,0.7,1.1c0.3,0.3,0.7,0.5,1.1,0.7
			c0.4,0.2,0.8,0.3,1.3,0.3h1.3c0.5,0,0.9-0.1,1.3-0.3c0.4-0.2,0.8-0.4,1.1-0.7c0.3-0.3,0.5-0.7,0.7-1.1c0.2-0.4,0.3-0.8,0.3-1.3
			v-1.1l1.9,0.3v0.8C230.4,278.7,230.3,279.4,230,280z"/>
		<path fill="#FFFFFF" stroke="#FFFFFF" stroke-miterlimit="10" d="M251.7,280c-0.3,0.6-0.6,1.2-1.1,1.6s-1,0.8-1.6,1.1
			c-0.6,0.3-1.3,0.4-2,0.4h-1.5c-0.7,0-1.4-0.1-2-0.4c-0.6-0.3-1.2-0.6-1.6-1.1c-0.5-0.5-0.8-1-1.1-1.6s-0.4-1.3-0.4-2v-11.2
			c0-0.7,0.1-1.4,0.4-2s0.6-1.2,1.1-1.6c0.5-0.5,1-0.8,1.6-1.1c0.6-0.3,1.3-0.4,2-0.4h1.5c0.7,0,1.4,0.1,2,0.4
			c0.6,0.3,1.2,0.6,1.6,1.1s0.8,1,1.1,1.6s0.4,1.3,0.4,2V278C252.1,278.7,251.9,279.4,251.7,280z M250.2,266.8
			c0-0.5-0.1-0.9-0.3-1.3c-0.2-0.4-0.4-0.8-0.7-1.1c-0.3-0.3-0.7-0.5-1.1-0.7c-0.4-0.2-0.8-0.3-1.3-0.3h-1.3c-0.5,0-0.9,0.1-1.3,0.3
			c-0.4,0.2-0.8,0.4-1.1,0.7c-0.3,0.3-0.5,0.7-0.7,1.1c-0.2,0.4-0.3,0.8-0.3,1.3V278c0,0.5,0.1,0.9,0.3,1.3c0.2,0.4,0.4,0.8,0.7,1.1
			c0.3,0.3,0.7,0.5,1.1,0.7c0.4,0.2,0.8,0.3,1.3,0.3h1.3c0.5,0,0.9-0.1,1.3-0.3c0.4-0.2,0.8-0.4,1.1-0.7c0.3-0.3,0.5-0.7,0.7-1.1
			c0.2-0.4,0.3-0.8,0.3-1.3V266.8z"/>
		<path fill="#FFFFFF" stroke="#FFFFFF" stroke-miterlimit="10" d="M273.3,282.8l-8.7-15.2l-0.2-0.9v16.1h-1.9v-20.9h1l8.7,15.2
			l0.2,0.9v-16.1h1.9v20.9H273.3z"/>
		<path fill="#FFFFFF" stroke="#FFFFFF" stroke-miterlimit="10" d="M309.3,279.7c-0.3,0.6-0.6,1.2-1.1,1.6s-1,0.8-1.6,1.1
			c-0.6,0.3-1.3,0.4-2,0.4h-6.6v-20.9h6.6c0.7,0,1.4,0.1,2,0.4c0.6,0.3,1.2,0.6,1.6,1.1c0.5,0.5,0.8,1,1.1,1.6s0.4,1.3,0.4,2v10.6
			C309.7,278.4,309.6,279.1,309.3,279.7z M307.8,267.1c0-0.5-0.1-0.9-0.3-1.3c-0.2-0.4-0.4-0.8-0.7-1.1c-0.3-0.3-0.7-0.5-1.1-0.7
			s-0.8-0.3-1.3-0.3h-4.7V281h4.7c0.5,0,0.9-0.1,1.3-0.3c0.4-0.2,0.8-0.4,1.1-0.7c0.3-0.3,0.5-0.7,0.7-1.1c0.2-0.4,0.3-0.8,0.3-1.3
			V267.1z"/>
		<path fill="#FFFFFF" stroke="#FFFFFF" stroke-miterlimit="10" d="M320.1,282.8v-20.9h1.9v20.9H320.1z"/>
		<path fill="#FFFFFF" stroke="#FFFFFF" stroke-miterlimit="10" d="M344.3,278c0,0.7-0.1,1.4-0.4,2s-0.7,1.2-1.2,1.6s-1,0.8-1.7,1.1
			c-0.6,0.3-1.3,0.4-2,0.4h-1.5c-0.7,0-1.4-0.1-2-0.4s-1.2-0.6-1.7-1.1s-0.9-1-1.2-1.6c-0.3-0.6-0.4-1.3-0.4-2v-0.8l1.9-0.3v1.1
			c0,0.5,0.1,0.9,0.3,1.3c0.2,0.4,0.4,0.8,0.8,1.1c0.3,0.3,0.7,0.5,1.1,0.7c0.4,0.2,0.9,0.3,1.3,0.3h1.3c0.5,0,0.9-0.1,1.3-0.3
			c0.4-0.2,0.8-0.4,1.1-0.7c0.3-0.3,0.6-0.7,0.8-1.1c0.2-0.4,0.3-0.8,0.3-1.3v-0.6c0-0.7-0.1-1.3-0.4-1.8s-0.7-0.9-1.1-1.2
			c-0.5-0.3-1-0.6-1.6-0.9c-0.6-0.2-1.2-0.5-1.8-0.7c-0.6-0.2-1.2-0.5-1.8-0.8c-0.6-0.3-1.1-0.6-1.6-1.1c-0.5-0.4-0.8-0.9-1.1-1.6
			s-0.4-1.4-0.4-2.3v-0.4c0-0.7,0.1-1.4,0.4-2s0.6-1.2,1.1-1.6c0.5-0.5,1-0.8,1.6-1.1c0.6-0.3,1.3-0.4,2-0.4h1.3
			c0.7,0,1.4,0.1,2,0.4c0.6,0.3,1.2,0.6,1.6,1.1s0.8,1,1.1,1.6s0.4,1.3,0.4,2v0.5l-1.9,0.3v-0.8c0-0.5-0.1-0.9-0.3-1.3
			c-0.2-0.4-0.4-0.8-0.7-1.1c-0.3-0.3-0.7-0.5-1.1-0.7c-0.4-0.2-0.8-0.3-1.3-0.3h-1.2c-0.5,0-0.9,0.1-1.3,0.3
			c-0.4,0.2-0.8,0.4-1.1,0.7c-0.3,0.3-0.5,0.7-0.7,1.1c-0.2,0.4-0.3,0.8-0.3,1.3v0.4c0,0.7,0.1,1.2,0.4,1.7s0.7,0.8,1.1,1.2
			c0.5,0.3,1,0.6,1.6,0.8c0.6,0.2,1.2,0.5,1.8,0.7s1.2,0.5,1.8,0.8c0.6,0.3,1.1,0.7,1.6,1.1c0.5,0.4,0.8,1,1.1,1.6
			c0.3,0.6,0.4,1.4,0.4,2.3V278z"/>
		<path fill="#FFFFFF" stroke="#FFFFFF" stroke-miterlimit="10" d="M359.3,263.7v19.1h-1.9v-19.1h-5v-1.8h11.9v1.8H359.3z"/>
		<path fill="#FFFFFF" stroke="#FFFFFF" stroke-miterlimit="10" d="M383.1,282.8l-5.7-8.9h-2.6v8.9H373v-20.9h6.6
			c0.7,0,1.4,0.1,2,0.4c0.6,0.3,1.2,0.6,1.6,1.1c0.5,0.5,0.8,1,1.1,1.6s0.4,1.3,0.4,2v1.7c0,0.7-0.1,1.4-0.4,2s-0.6,1.2-1.1,1.6
			s-1,0.8-1.6,1.1c-0.6,0.3-1.3,0.4-2,0.4l5.7,8.9H383.1z M382.9,267.1c0-0.5-0.1-0.9-0.3-1.3c-0.2-0.4-0.4-0.8-0.7-1.1
			c-0.3-0.3-0.7-0.5-1.1-0.7c-0.4-0.2-0.8-0.3-1.3-0.3h-4.7v8.4h4.7c0.5,0,0.9-0.1,1.3-0.3c0.4-0.2,0.8-0.4,1.1-0.7
			c0.3-0.3,0.5-0.7,0.7-1.1s0.3-0.8,0.3-1.3V267.1z"/>
		<path fill="#FFFFFF" stroke="#FFFFFF" stroke-miterlimit="10" d="M394.9,282.8v-20.9h1.9v20.9H394.9z"/>
		<path fill="#FFFFFF" stroke="#FFFFFF" stroke-miterlimit="10" d="M418.9,279.7c-0.3,0.6-0.6,1.2-1.1,1.6s-1,0.8-1.6,1.1
			c-0.6,0.3-1.3,0.4-2,0.4h-6.6v-20.9h6.6c0.7,0,1.4,0.1,2,0.4c0.6,0.3,1.2,0.6,1.6,1.1c0.5,0.5,0.8,1,1.1,1.6s0.4,1.3,0.4,2v0.2
			c0,0.5-0.1,1-0.2,1.4c-0.1,0.5-0.3,0.9-0.6,1.3s-0.5,0.7-0.9,1.1c-0.3,0.3-0.7,0.6-1.1,0.8c0.4,0.2,0.8,0.5,1.1,0.8
			c0.3,0.3,0.6,0.7,0.9,1.1s0.4,0.8,0.6,1.3c0.1,0.5,0.2,0.9,0.2,1.4v1.3C419.3,278.4,419.2,279.1,418.9,279.7z M417.4,267.1
			c0-0.5-0.1-0.9-0.3-1.3c-0.2-0.4-0.4-0.8-0.7-1.1c-0.3-0.3-0.7-0.5-1.1-0.7s-0.8-0.3-1.3-0.3h-4.7v7.2h4.7c0.5,0,0.9-0.1,1.3-0.3
			c0.4-0.2,0.8-0.4,1.1-0.7s0.5-0.7,0.7-1.1c0.2-0.4,0.3-0.8,0.3-1.3V267.1z M417.4,276.1c0-0.5-0.1-0.9-0.3-1.3
			c-0.2-0.4-0.4-0.8-0.7-1.1c-0.3-0.3-0.7-0.5-1.1-0.7c-0.4-0.2-0.8-0.3-1.3-0.3h-4.7v8.3h4.7c0.5,0,0.9-0.1,1.3-0.3
			c0.4-0.2,0.8-0.4,1.1-0.7c0.3-0.3,0.5-0.7,0.7-1.1c0.2-0.4,0.3-0.8,0.3-1.3V276.1z"/>
		<path fill="#FFFFFF" stroke="#FFFFFF" stroke-miterlimit="10" d="M439.9,280c-0.3,0.6-0.6,1.2-1.1,1.6s-1,0.8-1.6,1.1
			c-0.6,0.3-1.3,0.4-2,0.4h-1.5c-0.7,0-1.4-0.1-2-0.4c-0.6-0.3-1.2-0.6-1.6-1.1c-0.5-0.5-0.8-1-1.1-1.6s-0.4-1.3-0.4-2v-16.1h1.9
			V278c0,0.5,0.1,0.9,0.3,1.3c0.2,0.4,0.4,0.8,0.7,1.1c0.3,0.3,0.7,0.5,1.1,0.7c0.4,0.2,0.8,0.3,1.3,0.3h1.3c0.5,0,0.9-0.1,1.3-0.3
			c0.4-0.2,0.8-0.4,1.1-0.7c0.3-0.3,0.5-0.7,0.7-1.1c0.2-0.4,0.3-0.8,0.3-1.3v-16.1h1.9V278C440.3,278.7,440.2,279.4,439.9,280z"/>
		<path fill="#FFFFFF" stroke="#FFFFFF" stroke-miterlimit="10" d="M461.9,280c-0.3,0.6-0.6,1.2-1.1,1.6s-1,0.8-1.6,1.1
			c-0.6,0.3-1.3,0.4-2,0.4h-1.5c-0.7,0-1.4-0.1-2-0.4c-0.6-0.3-1.2-0.6-1.6-1.1c-0.5-0.5-0.8-1-1.1-1.6s-0.4-1.3-0.4-2v-11.2
			c0-0.7,0.1-1.4,0.4-2s0.6-1.2,1.1-1.6c0.5-0.5,1-0.8,1.6-1.1c0.6-0.3,1.3-0.4,2-0.4h1.5c0.7,0,1.4,0.1,2,0.4
			c0.6,0.3,1.2,0.6,1.6,1.1s0.8,1,1.1,1.6s0.4,1.3,0.4,2v0.8l-1.9,0.3v-1.1c0-0.5-0.1-0.9-0.3-1.3c-0.2-0.4-0.4-0.8-0.7-1.1
			c-0.3-0.3-0.7-0.5-1.1-0.7c-0.4-0.2-0.8-0.3-1.3-0.3h-1.3c-0.5,0-0.9,0.1-1.3,0.3c-0.4,0.2-0.8,0.4-1.1,0.7
			c-0.3,0.3-0.5,0.7-0.7,1.1c-0.2,0.4-0.3,0.8-0.3,1.3V278c0,0.5,0.1,0.9,0.3,1.3c0.2,0.4,0.4,0.8,0.7,1.1c0.3,0.3,0.7,0.5,1.1,0.7
			c0.4,0.2,0.8,0.3,1.3,0.3h1.3c0.5,0,0.9-0.1,1.3-0.3c0.4-0.2,0.8-0.4,1.1-0.7c0.3-0.3,0.5-0.7,0.7-1.1c0.2-0.4,0.3-0.8,0.3-1.3
			v-1.1l1.9,0.3v0.8C462.3,278.7,462.1,279.4,461.9,280z"/>
		<path fill="#FFFFFF" stroke="#FFFFFF" stroke-miterlimit="10" d="M483.5,280c-0.3,0.6-0.6,1.2-1.1,1.6s-1,0.8-1.6,1.1
			c-0.6,0.3-1.3,0.4-2,0.4h-1.5c-0.7,0-1.4-0.1-2-0.4c-0.6-0.3-1.2-0.6-1.6-1.1c-0.5-0.5-0.8-1-1.1-1.6s-0.4-1.3-0.4-2v-11.2
			c0-0.7,0.1-1.4,0.4-2s0.6-1.2,1.1-1.6c0.5-0.5,1-0.8,1.6-1.1c0.6-0.3,1.3-0.4,2-0.4h1.5c0.7,0,1.4,0.1,2,0.4
			c0.6,0.3,1.2,0.6,1.6,1.1s0.8,1,1.1,1.6s0.4,1.3,0.4,2v0.8l-1.9,0.3v-1.1c0-0.5-0.1-0.9-0.3-1.3c-0.2-0.4-0.4-0.8-0.7-1.1
			c-0.3-0.3-0.7-0.5-1.1-0.7c-0.4-0.2-0.8-0.3-1.3-0.3h-1.3c-0.5,0-0.9,0.1-1.3,0.3c-0.4,0.2-0.8,0.4-1.1,0.7
			c-0.3,0.3-0.5,0.7-0.7,1.1c-0.2,0.4-0.3,0.8-0.3,1.3V278c0,0.5,0.1,0.9,0.3,1.3c0.2,0.4,0.4,0.8,0.7,1.1c0.3,0.3,0.7,0.5,1.1,0.7
			c0.4,0.2,0.8,0.3,1.3,0.3h1.3c0.5,0,0.9-0.1,1.3-0.3c0.4-0.2,0.8-0.4,1.1-0.7c0.3-0.3,0.5-0.7,0.7-1.1c0.2-0.4,0.3-0.8,0.3-1.3
			v-1.1l1.9,0.3v0.8C483.9,278.7,483.8,279.4,483.5,280z"/>
		<path fill="#FFFFFF" stroke="#FFFFFF" stroke-miterlimit="10" d="M494.1,282.8v-20.9h1.9v20.9H494.1z"/>
		<path fill="#FFFFFF" stroke="#FFFFFF" stroke-miterlimit="10" d="M517.8,280c-0.3,0.6-0.6,1.2-1.1,1.6s-1,0.8-1.6,1.1
			c-0.6,0.3-1.3,0.4-2,0.4h-1.5c-0.7,0-1.4-0.1-2-0.4c-0.6-0.3-1.2-0.6-1.6-1.1c-0.5-0.5-0.8-1-1.1-1.6s-0.4-1.3-0.4-2v-11.2
			c0-0.7,0.1-1.4,0.4-2s0.6-1.2,1.1-1.6c0.5-0.5,1-0.8,1.6-1.1c0.6-0.3,1.3-0.4,2-0.4h1.5c0.7,0,1.4,0.1,2,0.4
			c0.6,0.3,1.2,0.6,1.6,1.1s0.8,1,1.1,1.6s0.4,1.3,0.4,2V278C518.2,278.7,518.1,279.4,517.8,280z M516.3,266.8
			c0-0.5-0.1-0.9-0.3-1.3c-0.2-0.4-0.4-0.8-0.7-1.1c-0.3-0.3-0.7-0.5-1.1-0.7c-0.4-0.2-0.8-0.3-1.3-0.3h-1.3c-0.5,0-0.9,0.1-1.3,0.3
			c-0.4,0.2-0.8,0.4-1.1,0.7c-0.3,0.3-0.5,0.7-0.7,1.1c-0.2,0.4-0.3,0.8-0.3,1.3V278c0,0.5,0.1,0.9,0.3,1.3c0.2,0.4,0.4,0.8,0.7,1.1
			c0.3,0.3,0.7,0.5,1.1,0.7c0.4,0.2,0.8,0.3,1.3,0.3h1.3c0.5,0,0.9-0.1,1.3-0.3c0.4-0.2,0.8-0.4,1.1-0.7c0.3-0.3,0.5-0.7,0.7-1.1
			c0.2-0.4,0.3-0.8,0.3-1.3V266.8z M511.9,259.5h-1.3l2.4-3.6h3L511.9,259.5z"/>
		<path fill="#FFFFFF" stroke="#FFFFFF" stroke-miterlimit="10" d="M539.4,282.8l-8.7-15.2l-0.2-0.9v16.1h-1.9v-20.9h1l8.7,15.2
			l0.2,0.9v-16.1h1.9v20.9H539.4z"/>
		<path fill="#FFFFFF" stroke="#FFFFFF" stroke-miterlimit="10" d="M212.7,318.7v-20.9h1.9v20.9H212.7z"/>
		<path fill="#FFFFFF" stroke="#FFFFFF" stroke-miterlimit="10" d="M235.2,318.7l-5.7-8.9h-2.6v8.9H225v-20.9h6.6
			c0.7,0,1.4,0.1,2,0.4c0.6,0.3,1.2,0.6,1.6,1.1c0.5,0.5,0.8,1,1.1,1.6s0.4,1.3,0.4,2v1.7c0,0.7-0.1,1.4-0.4,2s-0.6,1.2-1.1,1.6
			s-1,0.8-1.6,1.1c-0.6,0.3-1.3,0.4-2,0.4l5.7,8.9H235.2z M234.9,302.9c0-0.5-0.1-0.9-0.3-1.3c-0.2-0.4-0.4-0.8-0.7-1.1
			c-0.3-0.3-0.7-0.5-1.1-0.7c-0.4-0.2-0.8-0.3-1.3-0.3h-4.7v8.4h4.7c0.5,0,0.9-0.1,1.3-0.3c0.4-0.2,0.8-0.4,1.1-0.7
			c0.3-0.3,0.5-0.7,0.7-1.1s0.3-0.8,0.3-1.3V302.9z"/>
		<path fill="#FFFFFF" stroke="#FFFFFF" stroke-miterlimit="10" d="M256.7,318.7l-5.7-8.9h-2.6v8.9h-1.9v-20.9h6.6
			c0.7,0,1.4,0.1,2,0.4c0.6,0.3,1.2,0.6,1.6,1.1c0.5,0.5,0.8,1,1.1,1.6s0.4,1.3,0.4,2v1.7c0,0.7-0.1,1.4-0.4,2s-0.6,1.2-1.1,1.6
			s-1,0.8-1.6,1.1c-0.6,0.3-1.3,0.4-2,0.4l5.7,8.9H256.7z M256.5,302.9c0-0.5-0.1-0.9-0.3-1.3c-0.2-0.4-0.4-0.8-0.7-1.1
			c-0.3-0.3-0.7-0.5-1.1-0.7c-0.4-0.2-0.8-0.3-1.3-0.3h-4.7v8.4h4.7c0.5,0,0.9-0.1,1.3-0.3c0.4-0.2,0.8-0.4,1.1-0.7
			c0.3-0.3,0.5-0.7,0.7-1.1s0.3-0.8,0.3-1.3V302.9z"/>
		<path fill="#FFFFFF" stroke="#FFFFFF" stroke-miterlimit="10" d="M268.5,318.7v-20.9h11.8v1.8h-9.9v7.8h8v1.8h-8v7.8h9.9v1.8
			H268.5z"/>
		<path fill="#FFFFFF" stroke="#FFFFFF" stroke-miterlimit="10" d="M301.3,318.7h-0.6l-1.1-1.7c-0.5,0.6-1,1.1-1.7,1.4
			c-0.7,0.4-1.4,0.5-2.2,0.5h-1.1c-0.7,0-1.4-0.1-2-0.4c-0.6-0.3-1.2-0.6-1.6-1.1c-0.5-0.5-0.8-1-1.1-1.6s-0.4-1.3-0.4-2v-11.2
			c0-0.7,0.1-1.4,0.4-2s0.6-1.2,1.1-1.6c0.5-0.5,1-0.8,1.6-1.1c0.6-0.3,1.3-0.4,2-0.4h1.5c0.7,0,1.4,0.1,2,0.4
			c0.6,0.3,1.2,0.6,1.6,1.1s0.8,1,1.1,1.6s0.4,1.3,0.4,2v0.8l-1.9,0.3v-1.1c0-0.5-0.1-0.9-0.3-1.3c-0.2-0.4-0.4-0.8-0.7-1.1
			c-0.3-0.3-0.7-0.5-1.1-0.7c-0.4-0.2-0.8-0.3-1.3-0.3h-1.3c-0.5,0-0.9,0.1-1.3,0.3c-0.4,0.2-0.8,0.4-1.1,0.7
			c-0.3,0.3-0.5,0.7-0.7,1.1c-0.2,0.4-0.3,0.8-0.3,1.3v11.2c0,0.5,0.1,0.9,0.3,1.3c0.2,0.4,0.4,0.8,0.7,1.1c0.3,0.3,0.7,0.5,1.1,0.7
			c0.4,0.2,0.8,0.3,1.3,0.3h1.3c0.5,0,0.9-0.1,1.3-0.3c0.4-0.2,0.8-0.4,1.1-0.7c0.3-0.3,0.5-0.7,0.7-1.1c0.2-0.4,0.3-0.8,0.3-1.3
			v-4.4h-3.3v-1.8h5.2V318.7z"/>
		<path fill="#FFFFFF" stroke="#FFFFFF" stroke-miterlimit="10" d="M322.8,315.9c-0.3,0.6-0.6,1.2-1.1,1.6s-1,0.8-1.6,1.1
			c-0.6,0.3-1.3,0.4-2,0.4h-1.5c-0.7,0-1.4-0.1-2-0.4c-0.6-0.3-1.2-0.6-1.6-1.1c-0.5-0.5-0.8-1-1.1-1.6s-0.4-1.3-0.4-2v-16.1h1.9
			v16.1c0,0.5,0.1,0.9,0.3,1.3c0.2,0.4,0.4,0.8,0.7,1.1c0.3,0.3,0.7,0.5,1.1,0.7c0.4,0.2,0.8,0.3,1.3,0.3h1.3c0.5,0,0.9-0.1,1.3-0.3
			c0.4-0.2,0.8-0.4,1.1-0.7c0.3-0.3,0.5-0.7,0.7-1.1c0.2-0.4,0.3-0.8,0.3-1.3v-16.1h1.9v16.1C323.2,314.6,323.1,315.2,322.8,315.9z"
			/>
		<path fill="#FFFFFF" stroke="#FFFFFF" stroke-miterlimit="10" d="M333.4,318.7v-20.9h1.9v19.1h8v1.8H333.4z"/>
		<path fill="#FFFFFF" stroke="#FFFFFF" stroke-miterlimit="10" d="M360.1,313.8h-6.6l-1.4,4.9h-2l6.1-20.9h1l6.2,20.9h-1.9
			L360.1,313.8z M354,312h5.6l-2.8-9.6l-0.1-0.8l-0.1,0.8L354,312z"/>
		<path fill="#FFFFFF" stroke="#FFFFFF" stroke-miterlimit="10" d="M381.9,318.7l-5.7-8.9h-2.6v8.9h-1.9v-20.9h6.6
			c0.7,0,1.4,0.1,2,0.4c0.6,0.3,1.2,0.6,1.6,1.1c0.5,0.5,0.8,1,1.1,1.6s0.4,1.3,0.4,2v1.7c0,0.7-0.1,1.4-0.4,2s-0.6,1.2-1.1,1.6
			s-1,0.8-1.6,1.1c-0.6,0.3-1.3,0.4-2,0.4l5.7,8.9H381.9z M381.7,302.9c0-0.5-0.1-0.9-0.3-1.3c-0.2-0.4-0.4-0.8-0.7-1.1
			c-0.3-0.3-0.7-0.5-1.1-0.7c-0.4-0.2-0.8-0.3-1.3-0.3h-4.7v8.4h4.7c0.5,0,0.9-0.1,1.3-0.3c0.4-0.2,0.8-0.4,1.1-0.7
			c0.3-0.3,0.5-0.7,0.7-1.1s0.3-0.8,0.3-1.3V302.9z"/>
	</g>
	<g>
		<g>
			<g>
				<path fill="#59704B" d="M142.1,605.6c17.3,10.8,17.3,7.1,30.3,13.6c13,6.5,27.9,7.8,42.3,9c34.6,2.8,70.6,5,102.7-8.1
					c45.6-18.6,74-63.9,94.7-108.5s37.7-92.7,72.2-127.8c-32.7-14.5-70.3-15.1-105.3-7.6c-35,7.5-67.8,22.8-99.5,39.3
					c-50.3,26.2-100.1,57.1-133.8,102.8c-9.7,13.2-18.2,28.2-18.8,44.5S117,583.5,142.1,605.6"/>
			</g>
		</g>
		<g>
			<g>
				<path fill="#59704B" d="M107.1,639.9c7.3-11.5,14.6-23.1,22-34.6c6.1-9.4,15.2-21.8,28.1-18.5c0-3.2,0-6.4,0-9.6
					c-39.5,13.2-66.7,54.9-61.8,96.5c0.7,6.3,10.8,6.4,10,0c-4.4-37,18.9-74.9,54.5-86.8c4.5-1.5,5-8.4,0-9.6
					c-14.5-3.6-26.6,5.4-34.8,16.5c-9.7,13.1-17.8,27.6-26.6,41.3C95,640.3,103.6,645.3,107.1,639.9L107.1,639.9z"/>
			</g>
		</g>
		<g opacity="0.4">
			<g>
				<path fill="#8B9D80" d="M135,580c19.6-29.9,52.5-48.4,85.6-61.9c33.1-13.5,68-23.3,98.8-41.4c45-26.4,81.6-70.3,132.7-80.8
					c-55.4,8-89.7,64.3-139.2,90.5c-15,8-31.3,13.1-47.4,18.6c-26.4,9-52.5,19.2-78.1,30.5c-22.5,9.9-47.5,24.6-50.3,49
					c-2.2,1.7-5.2-2.8-2.8-4.2"/>
			</g>
			<g>
				<g>
					<path fill="#8B9D80" d="M136.3,580.8c28.5-42.8,79.7-59.6,125.5-76.7c23.8-8.9,47.4-18.6,68.7-32.6
						c18.8-12.4,36.1-27,54.2-40.3c20.5-15,42.5-28.5,67.7-33.8c1.9-0.4,1.1-3.2-0.8-2.9c-45.7,6.9-77,44.9-111.5,72
						c-9.3,7.3-19.1,14.1-29.7,19.5c-13.4,6.9-27.8,11.6-42,16.4c-28.2,9.5-56,20.2-83.2,32.4c-11.4,5.1-22.6,11-32.1,19.2
						c-4.5,3.9-8.6,8.4-11.8,13.5c-1.4,2.4-2.7,4.9-3.6,7.5c-0.5,1.2-0.9,2.5-1.2,3.8c-0.2,0.9-0.4,1.8-0.6,2.6
						c-0.1,1.8-0.3,1.8-0.7,0c1.4-1.3-0.7-3.4-2.1-2.1c-2,1.9-1.5,5.1,0.9,6.5c3.7,2.2,4.4-1.5,5-4.3c2.6-12.7,11.8-22.6,22.1-29.9
						c10.5-7.5,22.2-12.7,33.9-17.8c15.3-6.6,30.8-12.8,46.5-18.7c27.9-10.4,57.7-17.6,83-33.8c20.3-13,37.8-29.9,56.2-45.4
						c21-17.8,43.9-34.3,71.7-38.5c-0.3-1-0.5-1.9-0.8-2.9c-45.6,9.7-79.2,44.4-116.2,70.1c-22,15.3-46,26-71,35.4
						c-23.9,9-48.3,17.2-71,29c-23.4,12.2-45,28.2-59.7,50.3C132.6,580.9,135.2,582.4,136.3,580.8L136.3,580.8z"/>
				</g>
			</g>
		</g>
		<g opacity="0.4">
			<g>
				<path fill="#8B9D80" d="M357.6,492.1c-6.4-0.2-13-0.3-19,2.1s-11,8.2-10.6,14.6c0.2,2.7,1.3,5.3,1.3,8c0,2.9-1.2,5.7-1.3,8.5
					c-0.2,5.4,3.7,10.3,8.2,13.3c8.5,5.6,20,6.3,29,1.7c9.1-4.6,15.4-14.2,16-24.3c0.1-1.8,0-3.7-0.9-5.2c-1-1.8-2.9-2.8-4.4-4.1
					c-3.4-3-5-7.6-7.7-11.3c-2.6-3.7-7.5-6.8-11.6-4.9"/>
			</g>
			<g>
				<g>
					<path fill="#8B9D80" d="M357.6,490.6c-11.2-0.3-26.8,0.6-30.6,13.8c-0.7,2.4-0.5,4.8-0.1,7.2c0.5,2.8,1,5.3,0.5,8.2
						c-0.3,1.6-0.7,3.1-0.9,4.7c-0.5,5.8,2.9,10.9,7.3,14.3c9.4,7.2,23.1,7.9,33.4,2.1c9-5.1,17.3-17.3,15.3-28
						c-0.7-3.6-3.1-5-5.7-7.3c-3.1-2.9-4.7-6.9-7-10.3c-3.1-4.5-8.1-8.2-13.7-6.2c-1.8,0.6-1,3.5,0.8,2.9c7.8-2.7,11.2,7.1,14.7,12
						c1.6,2.3,3.6,3.8,5.6,5.6c3.1,2.8,2.8,6.6,2,10.3c-2.8,13-14.6,22.4-27.9,21.9c-6.6-0.2-13.5-2.7-18-7.6
						c-3.3-3.6-4.1-7.2-3.3-11.8c0.5-2.5,1-4.7,0.7-7.3c-0.4-3.4-1.7-6.4-0.8-9.8c1-3.4,3.5-6.2,6.4-8.1c6.2-4,14.2-3.7,21.3-3.5
						C359.6,493.7,359.6,490.7,357.6,490.6L357.6,490.6z"/>
				</g>
			</g>
		</g>
		<g opacity="0.4">
			<g>
				<path fill="#8B9D80" d="M280.9,458.8c-4.8-3.5-9.9-7.2-15.7-8.2s-12.7,1.6-14.8,7.3c-0.8,2.2-0.9,4.7-1.7,6.9
					c-1.9,5-7.4,7.3-11.3,10.8s-6.3,10.9-1.8,13.7c2,1.2,4.5,0.9,6.8,0.5c9.4-1.5,18.9-3.1,28.3-4.6c7.3-1.2,15.3-2.8,19.8-8.9
					c2.7-3.6,3.4-9.6-0.2-12.3c-1.2-0.9-2.6-1.3-3.9-1.8c-3.3-1.5-6.1-4.4-7.4-7.9"/>
			</g>
			<g>
				<g>
					<path fill="#8B9D80" d="M281.6,457.5c-8.2-6-20.9-13.4-29.9-4.3c-1.5,1.5-2.4,3.2-3,5.2c-1.4,4.5-2,8.1-5.9,11.2
						c-3.9,3.1-8.3,5.4-10.3,10.3c-1.4,3.4-1.6,7.7,1.5,10.2c4.2,3.5,11.6,0.8,16.2,0c7.8-1.3,15.7-2.4,23.5-3.9
						c5.2-1,10.7-2.4,14.9-5.8c4-3.2,6.9-8.8,5.1-13.9c-0.7-2.1-2.1-3.4-4-4.5c-4.4-2.5-7.4-3.6-9.6-8.4c-0.8-1.8-3.4-0.2-2.6,1.5
						c2,4.4,4.9,6.6,9,8.8c2.6,1.4,4.4,2.4,4.6,5.3c0.1,1.8-0.5,3.8-1.4,5.3c-1.9,3.2-5.3,5.3-8.7,6.6c-5.3,2-11.1,2.6-16.6,3.5
						c-7.2,1.2-14.5,2.5-21.7,3.5c-1.9,0.3-5.5,0.9-7.1-0.7c-1.5-1.5-1.2-3.8-0.7-5.6c0.9-3.2,3.2-5.2,5.7-7.1
						c3.5-2.6,7.5-5,9.3-9.3c1.2-2.9,1-6.2,2.8-8.9c1.9-2.8,5.2-4.4,8.5-4.7c7.1-0.7,13.4,4.2,18.8,8.1
						C281.7,461.2,283.2,458.6,281.6,457.5L281.6,457.5z"/>
				</g>
			</g>
		</g>
		<g opacity="0.4">
			<g>
				<path fill="#8B9D80" d="M224.1,553.5c-8.7-1.4-19.1-2.1-24.7,4.7c-1.8,2.1-2.8,4.8-4.6,6.9c-1.9,2.2-4.7,3.5-6.8,5.5
					c-2.1,2-3.6,5.3-2.2,7.8c2.1,3.6,7.6,2.5,11.3,0.6s8.8-3.8,11.6-0.7c1.2,1.2,1.5,3,2.3,4.5c3.3,6.9,12.7,8,20.2,6.6
					c7.5-1.4,15.2-4.4,22.5-2.3c1.1,0.3,2.4,0.7,3.3,0.1c0.7-0.4,0.9-1.2,1.1-2c2.7-10.9-6.5-20.9-14.8-28.4
					c-1.2-1.1-2.5-2.2-4.1-2.6c-4.2-1-9.1,3.5-12.4,0.7c-1.2-1.1-1.6-2.9-2.5-4.3s-3.2-2.2-4.1-0.8"/>
			</g>
			<g>
				<g>
					<path fill="#8B9D80" d="M224.5,552.1c-6.6-1-14-1.9-20.4,0.8c-2.7,1.1-4.8,2.9-6.5,5.2c-1.4,1.9-2.3,4.2-3.9,5.9
						c-1.6,1.8-3.8,3-5.7,4.6c-3.6,3.1-6.7,9.6-1.3,12.8c6.8,4,17.4-7.8,22-0.3c1.5,2.5,2.1,4.8,4.5,6.7c2.4,2,5.5,3,8.5,3.4
						c8.1,1.2,15.5-2.2,23.4-3c6-0.6,13.5,4.1,14.8-4.2c1.1-7.1-2.4-13.7-6.7-19.1c-4.2-5.3-10.3-13.6-17.9-12
						c-3.3,0.7-5.7,2.8-8.5-0.8c-0.9-1.1-1-2.5-2.2-3.4c-1.8-1.4-3.7-1.4-5.4,0c-1.5,1.2,0.7,3.4,2.1,2.1c0.5-0.5,4.7,5.5,6,6.1
						c2.1,0.8,4.3,0.1,6.3-0.4c3.7-1,4.9-1.5,8.6,1.4c1.2,0.9,2.3,2.1,3.4,3.2c2.9,2.9,5.7,5.9,7.9,9.4c1.8,2.8,5.8,11,3.1,14.3
						c-1.5,1.8-9.4,0-11.6,0.3c-7.7,0.8-15,4.2-22.8,3.1c-4.1-0.6-7.9-2.3-10-6.2c-1.1-2.2-1.6-4.5-3.8-5.9
						c-5.5-3.4-11.3,2.4-16.6,2.9c-5,0.5-6.2-4.1-2.9-7.5c1.4-1.4,3.1-2.3,4.6-3.6c2.8-2.3,4-4.9,6-7.8c5.5-7.7,15.8-6.6,24-5.3
						C225.6,555.2,226.4,552.3,224.5,552.1L224.5,552.1z"/>
				</g>
			</g>
		</g>
	</g>
</g>
</svg>
