<?xml version="1.0" encoding="utf-8"?>
<!-- Generator: Adobe Illustrator 18.0.0, SVG Export Plug-In . SVG Version: 6.00 Build 0)  -->
<!DOCTYPE svg PUBLIC "-//W3C//DTD SVG 1.1//EN" "http://www.w3.org/Graphics/SVG/1.1/DTD/svg11.dtd" [
	<!ENTITY ns_flows "http://ns.adobe.com/Flows/1.0/">
	<!ENTITY ns_extend "http://ns.adobe.com/Extensibility/1.0/">
	<!ENTITY ns_ai "http://ns.adobe.com/AdobeIllustrator/10.0/">
	<!ENTITY ns_graphs "http://ns.adobe.com/Graphs/1.0/">
]>
<svg version="1.1" id="Capa_1" xmlns:x="&ns_extend;" xmlns:i="&ns_ai;" xmlns:graph="&ns_graphs;"
	 xmlns="http://www.w3.org/2000/svg" xmlns:xlink="http://www.w3.org/1999/xlink" xmlns:a="http://ns.adobe.com/AdobeSVGViewerExtensions/3.0/"
	 x="0px" y="0px" viewBox="0 0 595.3 841.9" enable-background="new 0 0 595.3 841.9" xml:space="preserve">
<g>
	<g>
		<path fill="#FFFFFF" stroke="#FFFFFF" stroke-miterlimit="10" d="M134.7,229.7l11.4-60.2h15l11.3,60.2h-12.3l-2.1-12.8h-8.8
			l-2,12.8H134.7z M150.5,208.9h6.4l-3.2-23.3L150.5,208.9z"/>
		<path fill="#FFFFFF" stroke="#FFFFFF" stroke-miterlimit="10" d="M186,229.7v-60.2h13.3v51.2h13.8v9H186z"/>
		<path fill="#FFFFFF" stroke="#FFFFFF" stroke-miterlimit="10" d="M241.3,230.5c-3.1,0-5.7-0.5-7.8-1.5c-2.2-1-3.9-2.4-5.1-4.3
			c-1.3-1.9-2.2-4.1-2.7-6.5c-0.6-2.5-0.9-5.3-0.9-8.6v-20c0-2.7,0.2-5,0.6-7.2c0.4-2.1,1-4,1.9-5.8c0.9-1.8,2-3.2,3.4-4.4
			c1.4-1.2,3.1-2.1,5.2-2.7c2.1-0.6,4.4-1,7.2-1c2.6,0,4.9,0.3,6.9,0.8c2,0.6,3.7,1.3,5,2.3c1.3,1,2.4,2.2,3.3,3.7
			c0.8,1.5,1.5,3.1,1.8,4.9c0.4,1.8,0.5,3.7,0.5,5.9v3.8h-13v-4.8c0-0.9,0-1.7-0.1-2.3c0-0.6-0.1-1.2-0.3-1.9
			c-0.2-0.7-0.4-1.2-0.7-1.6c-0.3-0.4-0.7-0.7-1.3-1c-0.6-0.3-1.3-0.4-2.1-0.4c-0.8,0-1.6,0.2-2.2,0.5c-0.6,0.3-1,0.7-1.4,1.1
			c-0.3,0.4-0.6,1-0.7,1.8s-0.3,1.4-0.3,2.1c0,0.6-0.1,1.4-0.1,2.3v27.6c0,2.4,0.4,4.3,1.1,5.7c0.7,1.4,2,2.1,3.9,2.1
			c3.5,0,5.2-2.7,5.2-8v-6.8h-5.5v-8h17.5v31.3h-8.8l-0.8-5C249.3,228.6,246,230.5,241.3,230.5z"/>
		<path fill="#FFFFFF" stroke="#FFFFFF" stroke-miterlimit="10" d="M293.7,230.5c-2.7,0-5.1-0.3-7.2-0.9c-2-0.6-3.7-1.4-5.1-2.4
			c-1.3-1-2.4-2.4-3.3-4.1c-0.8-1.7-1.4-3.5-1.8-5.5c-0.3-2-0.5-4.3-0.5-7v-41.3H289v43.2c0,0.9,0,1.8,0.1,2.4
			c0,0.7,0.2,1.4,0.3,2.2s0.4,1.4,0.7,1.9c0.3,0.5,0.8,0.9,1.4,1.2s1.3,0.5,2.1,0.5s1.5-0.2,2.1-0.5c0.6-0.3,1-0.7,1.3-1.2
			s0.6-1.1,0.7-1.9s0.3-1.5,0.3-2.2c0-0.7,0.1-1.5,0.1-2.4v-43.2h13.2v41.3c0,3.3-0.3,6.2-0.9,8.5c-0.6,2.3-1.5,4.4-2.9,6.1
			c-1.3,1.7-3.2,3-5.5,3.9C300,230.1,297.1,230.5,293.7,230.5z"/>
		<path fill="#FFFFFF" stroke="#FFFFFF" stroke-miterlimit="10" d="M327.4,229.7v-60.2h9.4l12.4,28.9v-28.9h11v60.2h-9l-12.4-31.2
			v31.2H327.4z"/>
		<path fill="#FFFFFF" stroke="#FFFFFF" stroke-miterlimit="10" d="M373.6,229.7l11.4-60.2h15l11.3,60.2h-12.3l-2.1-12.8h-8.8
			l-2,12.8H373.6z M389.4,208.9h6.4l-3.2-23.3L389.4,208.9z"/>
		<path fill="#FFFFFF" stroke="#FFFFFF" stroke-miterlimit="10" d="M440.8,230.5c-5.7,0-10-1.5-12.8-4.6s-4.3-7.9-4.5-14.6l11.4-1.7
			c0,3.8,0.5,6.5,1.4,8.2c0.9,1.7,2.1,2.6,3.9,2.6c2.3,0,3.4-1.5,3.4-4.4c0-1.6-0.3-3.1-0.9-4.5s-1.3-2.5-2.1-3.5s-2-2.1-3.6-3.4
			l-5.3-4.6c-1.3-1.1-2.3-2.1-3.2-3.1c-0.8-0.9-1.7-2-2.5-3.3c-0.8-1.3-1.4-2.7-1.8-4.2c-0.4-1.5-0.6-3.3-0.6-5.1
			c0-5,1.5-8.9,4.5-11.6c3-2.7,7.1-4.1,12.4-4.1c1.8,0,3.4,0.2,4.9,0.6s2.7,0.9,3.7,1.5s1.9,1.4,2.7,2.4s1.4,1.9,1.8,2.9
			s0.8,2,1.1,3.2s0.5,2.3,0.6,3.3c0.1,1,0.2,2.1,0.2,3.2l-11.5,1.5c0-1-0.1-1.9-0.1-2.5c0-0.7-0.1-1.4-0.2-2.1
			c-0.1-0.8-0.2-1.4-0.4-1.8s-0.4-0.9-0.7-1.3s-0.6-0.7-1.1-0.9c-0.4-0.2-0.9-0.2-1.5-0.2c-1.2,0-2.1,0.5-2.7,1.5
			c-0.6,1-0.9,2-0.9,3.2c0,1.1,0.1,2.2,0.4,3.1s0.8,1.8,1.5,2.7c0.7,0.9,1.3,1.5,1.7,2c0.4,0.4,1.2,1.1,2.2,2l5.1,4.5
			c1.4,1.3,2.6,2.5,3.6,3.6c1,1.2,2,2.5,2.9,3.9c0.9,1.5,1.6,3.1,2.1,4.8c0.5,1.8,0.7,3.6,0.7,5.6c0,4.4-1.5,8-4.4,10.8
			C449.4,229.1,445.5,230.5,440.8,230.5z"/>
		<path fill="#FFFFFF" stroke="#FFFFFF" stroke-miterlimit="10" d="M154.2,319v-60.2h16.4c2.5,0,4.8,0.1,6.8,0.4
			c2,0.3,3.8,0.8,5.5,1.5s3.1,1.7,4.3,2.9s2,2.7,2.6,4.6c0.6,1.9,0.9,4,0.9,6.5c0,3.9-0.5,7.1-1.6,9.5c-1.1,2.4-3,4.3-5.8,5.6
			l8.3,29.2h-13.8l-6.6-27h-3.7v27H154.2z M167.5,284.3h3.4c2.7,0,4.6-0.7,5.7-2.1c1.1-1.4,1.7-3.5,1.7-6.4c0-2.8-0.5-4.9-1.5-6.2
			c-1-1.3-2.7-2-5.2-2h-4.1V284.3z"/>
		<path fill="#FFFFFF" stroke="#FFFFFF" stroke-miterlimit="10" d="M223.4,319.8c-3.3,0-6.2-0.4-8.6-1.3s-4.2-2.2-5.6-4
			s-2.4-3.8-3-6.2s-0.9-5.2-0.9-8.4v-22.2c0-3.2,0.3-6,0.9-8.4c0.6-2.4,1.6-4.4,3-6.2c1.4-1.7,3.3-3.1,5.6-3.9s5.2-1.3,8.6-1.3
			c6.5,0,11.2,1.7,14,5c2.8,3.3,4.2,8.3,4.2,14.8v22.2c0,6.5-1.4,11.5-4.2,14.8C234.6,318.1,229.9,319.8,223.4,319.8z M221.3,309.9
			c0.6,0.3,1.3,0.4,2.1,0.4c0.8,0,1.5-0.1,2.1-0.4c0.6-0.3,1-0.6,1.3-1.1c0.3-0.4,0.6-1,0.7-1.7s0.3-1.3,0.3-1.9
			c0-0.6,0.1-1.3,0.1-2.1v-28.9c0-0.8,0-1.5-0.1-2.1c0-0.6-0.2-1.2-0.3-1.9c-0.2-0.7-0.4-1.2-0.7-1.6c-0.3-0.4-0.8-0.8-1.3-1
			c-0.6-0.3-1.3-0.4-2.1-0.4c-0.8,0-1.5,0.1-2.1,0.4c-0.6,0.3-1,0.6-1.3,1c-0.3,0.4-0.6,0.9-0.7,1.6c-0.2,0.7-0.3,1.3-0.3,1.9
			c0,0.6-0.1,1.3-0.1,2.1v28.9c0,0.8,0,1.6,0.1,2.1c0,0.6,0.1,1.2,0.3,1.9c0.2,0.7,0.4,1.2,0.7,1.7
			C220.3,309.3,220.8,309.7,221.3,309.9z"/>
		<path fill="#FFFFFF" stroke="#FFFFFF" stroke-miterlimit="10" d="M253.6,320.4v-9.3c0.2,0,0.3,0,0.5,0c2.6,0,4.3-0.4,5.3-1.1
			c1-0.8,1.5-2.5,1.5-5v-46.3h13.3v46.8c0,2.6-0.3,4.8-0.7,6.5c-0.4,1.8-1.2,3.3-2.3,4.6s-2.5,2.2-4.3,2.9c-1.8,0.6-4.1,0.9-6.8,0.9
			H253.6z"/>
		<path fill="#FFFFFF" stroke="#FFFFFF" stroke-miterlimit="10" d="M290.6,319v-60.2h13.3V319H290.6z"/>
		<path fill="#FFFFFF" stroke="#FFFFFF" stroke-miterlimit="10" d="M318.1,319v-8.1l14.6-43.1h-14v-9h27.2v7.4l-15,43.9H346v9H318.1
			z"/>
		<path fill="#FFFFFF" stroke="#FFFFFF" stroke-miterlimit="10" d="M357,319l11.4-60.2h15l11.3,60.2h-12.3l-2.1-12.8h-8.8l-2,12.8
			H357z M372.8,298.2h6.4l-3.2-23.3L372.8,298.2z"/>
		<path fill="#FFFFFF" stroke="#FFFFFF" stroke-miterlimit="10" d="M424.2,319.8c-5.7,0-10-1.5-12.8-4.6s-4.3-7.9-4.5-14.6l11.4-1.7
			c0,3.8,0.5,6.5,1.4,8.2c0.9,1.7,2.1,2.6,3.9,2.6c2.3,0,3.4-1.5,3.4-4.4c0-1.6-0.3-3.1-0.9-4.5s-1.3-2.5-2.1-3.5s-2-2.1-3.6-3.4
			l-5.3-4.6c-1.3-1.1-2.3-2.1-3.2-3.1c-0.8-0.9-1.7-2-2.5-3.3c-0.8-1.3-1.4-2.7-1.8-4.2c-0.4-1.5-0.6-3.3-0.6-5.1
			c0-5,1.5-8.9,4.5-11.6c3-2.7,7.1-4.1,12.4-4.1c1.8,0,3.4,0.2,4.9,0.6s2.7,0.9,3.7,1.5s1.9,1.4,2.7,2.4s1.4,1.9,1.8,2.9
			s0.8,2,1.1,3.2s0.5,2.3,0.6,3.3c0.1,1,0.2,2.1,0.2,3.2l-11.5,1.5c0-1-0.1-1.9-0.1-2.5c0-0.7-0.1-1.4-0.2-2.1
			c-0.1-0.8-0.2-1.4-0.4-1.8s-0.4-0.9-0.7-1.3s-0.6-0.7-1.1-0.9c-0.4-0.2-0.9-0.2-1.5-0.2c-1.2,0-2.1,0.5-2.7,1.5
			c-0.6,1-0.9,2-0.9,3.2c0,1.1,0.1,2.2,0.4,3.1s0.8,1.8,1.5,2.7c0.7,0.9,1.3,1.5,1.7,2c0.4,0.4,1.2,1.1,2.2,2l5.1,4.5
			c1.4,1.3,2.6,2.5,3.6,3.6c1,1.2,2,2.5,2.9,3.9c0.9,1.5,1.6,3.1,2.1,4.8c0.5,1.8,0.7,3.6,0.7,5.6c0,4.4-1.5,8-4.4,10.8
			C432.8,318.4,428.9,319.8,424.2,319.8z"/>
	</g>
	<g>
		<g>
			<g>
				<path fill="#59704B" d="M213.8,592.8c-34.7,5.6-67.6,22.4-92.4,47.4c-1.7,1.8-3.5,3.6-4.4,5.9c-3.1,8.3,6.2,15.9,7.6,24.7
					c6.7-15.2,13.6-30.7,24.8-43c7.4-8.2,16.5-14.7,25.9-20.5c11.8-7.4,24.3-13.8,37.1-19.2"/>
			</g>
			<g>
				<g>
					<path fill="#59704B" d="M213.1,590.4c-25.3,4.2-49.6,14.1-70.7,28.9c-5,3.5-9.9,7.4-14.6,11.4c-4.3,3.7-9.6,7.8-12.4,12.9
						c-5.5,9.8,4.9,18.8,6.8,27.9c0.4,2,3.7,2.6,4.6,0.6c8.2-18.6,16.8-37,32.6-50.4c15.9-13.5,35.3-23.4,54.3-31.5
						c2.9-1.3,0.4-5.6-2.5-4.3c-19.5,8.3-39.2,18.5-55.4,32.3c-16.1,13.7-25,32.4-33.3,51.4c1.5,0.2,3,0.4,4.6,0.6
						c-0.9-4.5-3.3-8.4-5.4-12.5c-3.2-6.1-3.5-10.5,1.5-15.7c8.1-8.4,17.4-15.7,27.2-22c19.4-12.6,41.3-20.9,64.1-24.7
						C217.6,594.7,216.2,589.9,213.1,590.4L213.1,590.4z"/>
				</g>
			</g>
		</g>
		<g>
			<g>
				<path fill="#59704B" d="M162.2,641.6c1.7,1.3,3.4,2.5,5.3,3.6c25.5-1.1,50.7-5.7,75.1-13.2c30.6-9.5,59.8-23.3,87.1-40
					c26.3-16.1,50.4-34,70.3-57.7c28.3-33.8,49.7-74.8,80.2-106.9c0.2-2.4,0.4-4.9,0.5-7.3c0.1-3.2,0.1-6.6-1.6-9.4
					c-3.7-6.3-13-6.4-20.5-5.6c-54.8,5.5-109.7,15-159.7,36.6c-50,21.6-95,56.3-119.7,102.8c-13.2,24.9-18.1,33.9-25.1,61.1l-0.2,0
					C145.6,616.3,151.2,632.8,162.2,641.6z"/>
			</g>
			<g>
				<g>
					<path fill="#59704B" d="M161.9,642.1c1.6,1.2,3.6,3.2,5.6,3.7c3.2,0.8,8.2-0.5,11.4-0.7c7.7-0.6,15.3-1.6,22.9-2.8
						c15.6-2.6,31.1-6.4,46.1-11.3c28.2-9.2,55.1-22.1,80.5-37.5c23.7-14.3,46.3-30.7,65.2-51.1c19.3-20.8,34.5-45.1,50.7-68.4
						c8.6-12.3,17.4-24.5,27.1-36c2.2-2.6,4.5-5.2,6.9-7.8c2-2.1,2.4-2.1,2.7-4.8c0.5-5.2,1.4-11.9-2.1-16.4
						c-6.8-8.5-22.4-4.6-31.3-3.6c-14.8,1.7-29.6,3.6-44.3,6.1c-56.4,9.5-112.8,26.6-159.7,60.4c-22.7,16.3-42.9,36.4-57.9,60.1
						c-7.4,11.8-14,24.4-19.8,37c-2.3,5-4.4,10.2-6.2,15.4c-0.6,1.9-6.1,20.2-5.7,20.2c-0.2,0-0.4,0.1-0.5,0.3
						c-8.7,12.3-2.2,28.3,8.4,37c0.6,0.5,1.5-0.4,0.9-0.9c-5.2-4.3-9.2-9.9-11.1-16.4c-0.9-3.2-1.3-6.4-0.9-9.7
						c0.1-1.1,1.9-9.3,3.4-9.2c0.3,0,0.5-0.2,0.6-0.5c11.8-45.5,36.6-88.2,72.3-119c40.8-35.1,91.8-55.5,143.8-67.3
						c28.8-6.6,58.3-11,87.8-13.7c5.4-0.5,11.9-1,16.7,2.1c4.4,2.8,4.9,7.6,4.7,12.4c-0.1,4.4-0.7,7.3-3.8,10.7
						c-8.6,9.5-16.4,19.6-23.9,29.9c-16.3,22.5-31,46.2-48.4,67.9c-16.7,20.8-36.7,38-58.7,52.9c-26.2,17.6-54.3,32.5-83.8,43.6
						c-15.5,5.8-31.4,10.5-47.6,13.9c-8.7,1.8-17.4,3.2-26.2,4.2c-4.1,0.5-8.2,0.9-12.4,1.1c-5.2,0.4-8.4,0.1-12.6-3.1
						C161.9,640.5,161.3,641.6,161.9,642.1z"/>
				</g>
			</g>
		</g>
		<g opacity="0.65">
			<g>
				<path fill="#734B42" d="M161.3,642.3c1.7,1.3,3.4,2.5,5.3,3.6c25.5-1.1,50.7-5.7,75.1-13.2c30.6-9.5,59.8-23.3,87.1-40
					c26.3-16.1,50.4-34,70.3-57.7c28.3-33.8,49.7-74.8,80.2-106.9c0.2-2.4,0.4-4.9,0.5-7.3c0.1-3.2,0.1-6.6-1.6-9.4
					c-3.7-6.3-13-6.4-20.5-5.6c-54.8,5.5-109.7,15-159.7,36.6c-50,21.6-95,56.3-119.7,102.8c-13.2,24.9-18.1,33.9-25.1,61.1l-0.2,0
					C144.7,617,150.3,633.5,161.3,642.3z"/>
			</g>
		</g>
		<g opacity="0.14">
			<g>
				<path fill="#ABAC84" d="M167.5,607.6c32.4-33.2,69-61.8,107.4-87.7c39.9-27,81.2-52.1,123.2-75.7c23-12.9,47.4-24.5,74.3-25.6
					c1.6-0.1,1.6-2.6,0-2.5c-22.3,0.9-43.3,8.9-62.9,19.1c-21.9,11.4-43.2,24.2-64.3,37c-41.2,24.9-82,51.1-120,80.8
					c-20.9,16.4-40.8,33.9-59.3,52.9C164.6,607,166.4,608.7,167.5,607.6L167.5,607.6z"/>
			</g>
		</g>
		<g opacity="0.65">
			<g>
				<path fill="#734B42" d="M153.8,629.6c-0.7-4.6-1.3-9.2-2-13.8c-10.7-0.1-13.5,17.9-24.2,19.4c3.9-0.8,7.7-2.6,10.8-5
					c-2.8,1.2-5.5,2.4-8.3,3.5c3.3-4.4,7.2-8.2,11.6-11.4c-3.9,1.7-7.9,3.4-11.1,6.3c-3.1,2.9-5.3,7.2-4.5,11.4
					c0.5,2.4,1.9,4.7,2.2,7.1c0.9,5.4-3.2,11.7,0.1,16.2c4.3-8,8.6-16,13-24c2.5-4.7,5.7-9.9,11-10.9"/>
			</g>
			<g>
				<g>
					<path fill="#734B42" d="M156.2,628.9c-0.7-4.6-1.3-9.2-2-13.8c-0.1-1-1.4-1.9-2.4-1.8c-12.6,0.6-13.6,17.3-24.8,19.5
						c0.4,1.6,0.9,3.2,1.3,4.8c4.2-1,7.9-2.7,11.4-5.3c2.7-1.9,0.4-5.6-2.5-4.3c-2.8,1.2-5.5,2.4-8.3,3.5c1,1.3,2,2.6,3,3.9
						c3.2-4.2,6.9-7.8,11.1-11c2.6-1.9,0.4-5.6-2.5-4.3c-8,3.4-17.7,8.9-16.9,19c0.2,2,1,3.8,1.6,5.7c1,3.1,0.8,5.4,0.3,8.6
						c-0.7,4-1.2,7.4,0.9,11c0.9,1.6,3.4,1.7,4.3,0c3.5-6.6,7.1-13.1,10.6-19.7c2.8-5.2,5.6-12.4,11.8-14.1c3.1-0.8,1.8-5.7-1.3-4.8
						c-5.9,1.6-9.3,6.4-12.2,11.5c-4.5,8.1-8.9,16.4-13.3,24.6c1.4,0,2.9,0,4.3,0c-1.9-3.3-0.3-7.2,0.2-10.7c0.4-3-0.1-5.5-1.1-8.4
						c-3.7-10.2,5.3-14.9,13.3-18.4c-0.8-1.4-1.7-2.9-2.5-4.3c-4.6,3.4-8.6,7.2-12.1,11.8c-1.8,2.3,0.4,5.1,3,3.9
						c2.8-1.2,5.5-2.4,8.3-3.5c-0.8-1.4-1.7-2.9-2.5-4.3c-3.2,2.3-6.4,3.8-10.2,4.8c-3.1,0.8-1.8,5.4,1.3,4.8c5-1,8.3-4.5,11.3-8.4
						c3.1-4.1,6.4-10.6,12.2-10.9c-0.8-0.6-1.6-1.2-2.4-1.8c0.7,4.6,1.3,9.2,2,13.8C151.9,633.4,156.7,632,156.2,628.9L156.2,628.9z
						"/>
				</g>
			</g>
		</g>
	</g>
</g>
</svg>
