<?xml version="1.0" encoding="utf-8"?>
<!-- Generator: Adobe Illustrator 18.0.0, SVG Export Plug-In . SVG Version: 6.00 Build 0)  -->
<!DOCTYPE svg PUBLIC "-//W3C//DTD SVG 1.1//EN" "http://www.w3.org/Graphics/SVG/1.1/DTD/svg11.dtd">
<svg version="1.1" id="Capa_1" xmlns="http://www.w3.org/2000/svg" xmlns:xlink="http://www.w3.org/1999/xlink" x="0px" y="0px"
	 viewBox="0 0 500 500" enable-background="new 0 0 500 500" xml:space="preserve">
<g>
	<g>
		<g>
			<path fill="#FFFFFF" stroke="#FFFFFF" stroke-miterlimit="10" d="M67.3,138.4L84,61.5h13.8l16.6,76.9H98.9l-3.2-16.4h-10l-3,16.4
				H67.3z M86.8,112.3h7.9l-3.9-28.5L86.8,112.3z"/>
			<path fill="#FFFFFF" stroke="#FFFFFF" stroke-miterlimit="10" d="M128.4,138.4V61.5h15.5v66.2h15.3v10.7H128.4z"/>
			<path fill="#FFFFFF" stroke="#FFFFFF" stroke-miterlimit="10" d="M176.4,138.4V73.1h-11.3V61.5H203v11.6H192v65.3H176.4z"/>
			<path fill="#FFFFFF" stroke="#FFFFFF" stroke-miterlimit="10" d="M217.1,138.4V61.5h32.1v10.7h-16.5v20.9h11.7V104h-11.7v23.7
				h16.5v10.7H217.1z"/>
			<path fill="#FFFFFF" stroke="#FFFFFF" stroke-miterlimit="10" d="M263.8,138.4V61.5h16.9c14.9,0,24.5,5.3,24.5,20.2
				c0,6.7-0.9,15.4-10.5,19.5c3.8,12.2,7.7,24.4,12,37.2h-16.1l-8.8-35.4h-2.6v35.4H263.8z M279.3,93.5h4.4c5.2,0,6-7.6,6-10.5
				c0-2.8-0.6-10.1-5.3-10.1h-5.2V93.5z"/>
			<path fill="#FFFFFF" stroke="#FFFFFF" stroke-miterlimit="10" d="M321,138.4V61.4h11.2l16.9,40.2V61.4h12.9v76.9h-10.8
				l-16.8-42.7v42.7H321z"/>
			<path fill="#FFFFFF" stroke="#FFFFFF" stroke-miterlimit="10" d="M376,138.4l16.6-76.9h13.8l16.6,76.9h-15.3l-3.2-16.4h-10
				l-3,16.4H376z M395.5,112.3h7.9l-3.9-28.5L395.5,112.3z"/>
		</g>
	</g>
	<g>
		<g>
			<g>
				<path fill="#59704B" d="M255,340.2c2.8,9.2,3.9,7.9,6.5,14.2s7.4,11.4,12.1,16.3c11.3,11.7,23.3,23.7,38.7,29
					c21.8,7.6,46,0.4,67.1-8.9c21.2-9.3,42.1-21,65.1-22.7c-7.1-15.3-20.1-27.2-34.8-35.4s-31-13-47.3-17
					c-25.9-6.4-53.1-10.9-79.1-5.3c-7.5,1.6-15.2,4.3-20.5,9.9C257.6,326,253,324.6,255,340.2"/>
			</g>
		</g>
		<g>
			<g>
				<path fill="#59704B" d="M168.7,440.2c4.1-7.2,7.8-14.6,12.3-21.6c4.7-7.3,10.4-13.8,15.1-21.1c9.5-14.7,16.1-31,26.2-45.5
					c9.7-14,21.3-26.6,33.9-37.9c6.5-5.8,13.3-11.1,20.4-16.1c3.5-2.5,7.2-4.8,10.9-7c2.8-1.7,6.3-4.6,9.5-5.5
					c-1.3-0.2-2.6-0.3-3.9-0.5c0.1,0.1,0.2,0.1,0.4,0.2c4.8,2.9,10.4-4.1,6.1-7.9c-0.2-0.2-0.5-0.4-0.7-0.6
					c-4.1-3.5-11.2,1.1-7.9,6.1c0.1,0.1,0.2,0.3,0.3,0.4c1-2.4,2-4.9,3-7.3c-3,0.6-5.6,0.8-8,3.1c-3.4,3.2-6.2,6.9-10.2,9.4
					c-7.2,4.6-14.1,9.8-20.6,15.3c-13.8,11.5-25.8,25.1-36.8,39.3c-22.5,28.8-40.4,60.8-57.5,93c-3,5.7,5.6,10.7,8.6,5
					c16.1-30.2,32.9-60.1,53.4-87.6c10.6-14.1,22.4-27.4,35.5-39.2c6.1-5.5,12.7-10.5,19.5-15.1c3.3-2.2,6.5-4.3,9.4-7
					c1.6-1.5,3-3.2,4.5-4.7c1.4-1.4,3.1-1.4,4.9-1.7c3.1-0.6,4.7-4.8,3-7.3c-0.1-0.1-0.2-0.3-0.3-0.4c-2.6,2-5.2,4-7.9,6.1
					c0.2,0.2,0.5,0.4,0.7,0.6c2-2.6,4-5.2,6.1-7.9c-5.2-3.1-13.6,4.2-17.7,6.7c-8.3,5.1-16.1,10.8-23.7,16.8
					c-14.3,11.5-26.9,24.8-38.1,39.4c-11.6,15.1-19.5,31.8-28.8,48.3c-4.6,8-10.4,15.1-15.8,22.6c-5.6,7.8-9.8,16.4-14.4,24.7
					C156.9,440.8,165.5,445.8,168.7,440.2L168.7,440.2z"/>
			</g>
		</g>
		<g>
			<g>
				<path fill="#59704B" d="M234.8,337.7c3.5-1,7.1-2,10.6-3.1c3.4-1,8-3.2,10.7,0.2c1.6-2.8,3.2-5.6,4.9-8.4
					c-14.6-5.9-31.3-0.2-40.3,12.4c-3.8,5.3,4.9,10.2,8.6,5c6.6-9.2,18.8-11.9,29-7.8c5.2,2.1,7.5-5,4.9-8.4c-7.4-9.5-22-2.3-31,0.3
					C226,329.9,228.6,339.5,234.8,337.7L234.8,337.7z"/>
			</g>
		</g>
		<g>
			<g>
				<g>
					<path fill="#59704B" d="M191.3,351.2c-1.1,6.8-7.1,13.1-13.5,16.3c-6.4,3.2-13.3,4.1-20,4.8c-15.9,1.8-32.5,3.3-46-2.4
						c-19.2-8.1-28.4-29.1-34.1-49.9s-9.5-43.2-22.3-59.3c16.1-7.3,33.2-8.1,48.5-5c15.3,3.1,28.9,9.8,42,17.2
						c20.7,11.7,40.8,25.6,52.3,46.7c3.3,6.1,5.9,13.1,4.9,20.8c-1.1,7.7-6.8,16.2-14.4,18.3"/>
				</g>
			</g>
			<g>
				<g>
					<path fill="#59704B" d="M200.1,384.6c7.6-5.1,4.9-13.3,0.6-19.7c-2.4-3.5-3.5-7.5-6.3-10.8c-2.8-3.3-7.1-4-11-3.3
						c-4.8,0.8-4.7,8.8,0,9.6c3.5,0.6,5.6,3,7.6,5.8c1.4,1.9,6.7,8.2,3.5,10.4c-5.2,3.7-0.3,12.3,5,8.6c6.7-4.7,6.7-12.2,3.3-19.1
						c-3.3-6.6-9.3-14-16.9-15.4c0,3.2,0,6.4,0,9.6c1.8-0.3,9.4,15.3,9,15.5C189.8,379.6,194.7,388.3,200.1,384.6L200.1,384.6z"/>
				</g>
			</g>
		</g>
	</g>
</g>
</svg>
