<?xml version="1.0" encoding="utf-8"?>
<!-- Generator: Adobe Illustrator 18.0.0, SVG Export Plug-In . SVG Version: 6.00 Build 0)  -->
<!DOCTYPE svg PUBLIC "-//W3C//DTD SVG 1.1//EN" "http://www.w3.org/Graphics/SVG/1.1/DTD/svg11.dtd" [
	<!ENTITY ns_flows "http://ns.adobe.com/Flows/1.0/">
	<!ENTITY ns_extend "http://ns.adobe.com/Extensibility/1.0/">
	<!ENTITY ns_ai "http://ns.adobe.com/AdobeIllustrator/10.0/">
	<!ENTITY ns_graphs "http://ns.adobe.com/Graphs/1.0/">
]>
<svg version="1.1" id="Capa_1" xmlns:x="&ns_extend;" xmlns:i="&ns_ai;" xmlns:graph="&ns_graphs;"
	 xmlns="http://www.w3.org/2000/svg" xmlns:xlink="http://www.w3.org/1999/xlink" xmlns:a="http://ns.adobe.com/AdobeSVGViewerExtensions/3.0/"
	 x="0px" y="0px" viewBox="0 0 750 285.9" enable-background="new 0 0 750 285.9" xml:space="preserve">
<g>
	<polygon fill="#FFFFFF" points="2208,1758.2 2079.8,1758.2 2079.8,-983.8 -3.5,-983.8 -3.5,-990.8 2086.8,-990.8 2086.8,1751.2 
		2208,1751.2 	"/>
</g>
<g>
	<polygon fill="#FFFFFF" points="2148.5,3799.2 1981,3799.2 1981,-655.8 -3.5,-655.8 -3.5,-662.8 1988,-662.8 1988,3792.2 
		2148.5,3792.2 	"/>
</g>
<g>
	<g>
		<path fill="#FFFFFF" stroke="#FFFFFF" stroke-miterlimit="10" d="M73.9,108.3V69.4h8.9c3.5,0,6.1,0.8,7.9,2.4s2.6,4,2.6,7.4
			c0,5-1.9,7.7-5.6,8.2c2.3,0.6,4,1.6,5,3.2s1.6,3.8,1.6,6.6c0,3.5-0.8,6.2-2.5,8.2s-4.1,2.9-7.5,2.9H73.9z M79.4,85.6h3.2
			c2.2,0,3.8-0.5,4.7-1.5s1.3-2.7,1.3-5c0-0.8-0.1-1.4-0.2-2s-0.2-1.1-0.4-1.5s-0.4-0.7-0.8-1s-0.7-0.5-1.1-0.7s-0.8-0.3-1.5-0.4
			s-1.2-0.1-1.8-0.2s-1.3,0-2.2,0h-1.3V85.6z M79.4,104.4H83c2.3,0,3.9-0.6,4.8-1.7s1.3-3,1.3-5.6c0-2.5-0.5-4.3-1.5-5.6
			s-2.7-1.8-5-1.8h-3.2V104.4z"/>
		<path fill="#FFFFFF" stroke="#FFFFFF" stroke-miterlimit="10" d="M113.8,108.7c-1.9,0-3.6-0.3-5-0.9s-2.5-1.4-3.3-2.6
			s-1.4-2.4-1.8-3.9s-0.6-3.2-0.6-5.2V81.3c0-4,0.8-7.1,2.5-9.2s4.4-3.1,8.1-3.1c3.8,0,6.5,1.1,8.1,3.2s2.5,5.2,2.5,9.2v14.7
			c0,4-0.8,7.2-2.5,9.3S117.5,108.7,113.8,108.7z M111.1,103.9c0.7,0.3,1.6,0.5,2.6,0.5s1.9-0.2,2.6-0.5s1.2-0.8,1.6-1.5
			s0.6-1.4,0.7-2.2s0.2-1.8,0.2-3v-17c0-1.2-0.1-2.1-0.2-2.9s-0.4-1.5-0.7-2.2s-0.9-1.1-1.6-1.4s-1.6-0.5-2.6-0.5s-1.9,0.2-2.6,0.5
			s-1.2,0.8-1.6,1.4s-0.6,1.4-0.7,2.2s-0.2,1.8-0.2,2.9v17c0,1.2,0.1,2.2,0.2,3s0.4,1.5,0.7,2.2S110.4,103.6,111.1,103.9z"/>
		<path fill="#FFFFFF" stroke="#FFFFFF" stroke-miterlimit="10" d="M134.6,108.3V69.4h7.8c3.9,0,6.8,0.8,8.7,2.4s2.8,4.2,2.8,7.9
			c0,5-1.6,8-4.8,9.1l5.6,19.5h-5.2L144.2,90H140v18.2H134.6z M140,86.1h2c2.4,0,4-0.5,5.1-1.4s1.5-2.6,1.5-5.1c0-2.4-0.4-4-1.3-5
			s-2.5-1.4-4.9-1.4H140V86.1z"/>
		<path fill="#FFFFFF" stroke="#FFFFFF" stroke-miterlimit="10" d="M164.3,108.3V69.4h8.4c4.2,0,7.2,1,8.9,2.9s2.6,4.9,2.6,9v14.3
			c0,4.3-0.9,7.4-2.6,9.6s-4.6,3.2-8.5,3.2H164.3z M169.7,104.4h3c0.8,0,1.6-0.1,2.2-0.2s1.2-0.4,1.6-0.6s0.8-0.6,1.1-1.1
			s0.5-1,0.7-1.4s0.3-1,0.3-1.9s0.1-1.5,0.1-2.1s0-1.4,0-2.5V81.9c0-0.9,0-1.7,0-2.4s-0.1-1.3-0.2-1.9s-0.2-1.2-0.4-1.6
			s-0.4-0.8-0.7-1.2s-0.7-0.6-1.1-0.8s-1-0.3-1.5-0.5s-1.3-0.2-2.1-0.2h-2.9V104.4z"/>
		<path fill="#FFFFFF" stroke="#FFFFFF" stroke-miterlimit="10" d="M194.4,108.3V69.4h15v4h-9.6v12.8h7.8v3.9h-7.8v14.2h9.8v3.9
			H194.4z"/>
		<path fill="#FFFFFF" stroke="#FFFFFF" stroke-miterlimit="10" d="M248.1,108.3l8.3-38.9h5.2l8.3,38.9h-5.2l-1.8-9.8h-7.9l-1.9,9.8
			H248.1z M255.8,94.6h6.5L259,77L255.8,94.6z"/>
		<path fill="#FFFFFF" stroke="#FFFFFF" stroke-miterlimit="10" d="M287.8,108.7c-3.3,0-5.8-1-7.5-3s-2.7-4.8-2.9-8.3l4.8-1.3
			c0.3,5.6,2.2,8.3,5.5,8.3c1.4,0,2.4-0.4,3.2-1.2s1.1-1.9,1.1-3.4c0-0.8-0.1-1.6-0.3-2.3s-0.5-1.3-1-2s-0.9-1.1-1.3-1.6
			s-1-1-1.7-1.7l-6.5-5.8c-1.3-1.2-2.3-2.4-2.9-3.8s-0.9-2.9-0.9-4.8c0-2.8,0.8-5,2.4-6.6s3.9-2.4,6.7-2.4c3.1,0,5.4,0.8,7,2.4
			s2.5,4.2,2.8,7.7l-4.6,1.3c-0.1-0.8-0.1-1.6-0.3-2.2s-0.3-1.3-0.5-2s-0.6-1.2-0.9-1.6s-0.8-0.7-1.4-1s-1.3-0.3-2.1-0.3
			c-2.9,0.2-4.3,1.6-4.3,4.3c0,1.1,0.2,2.1,0.6,2.9s1,1.6,2,2.4l6.6,5.8c1.7,1.5,3.1,3.2,4.1,4.9s1.5,3.7,1.5,6
			c0,2.8-0.9,5.1-2.6,6.8S290.6,108.7,287.8,108.7z"/>
		<path fill="#FFFFFF" stroke="#FFFFFF" stroke-miterlimit="10" d="M306.2,108.3V69.4h15v4h-9.6v12.8h7.8v3.9h-7.8v14.2h9.8v3.9
			H306.2z"/>
		<path fill="#FFFFFF" stroke="#FFFFFF" stroke-miterlimit="10" d="M330.5,108.3V69.4h7.8c3.9,0,6.8,0.8,8.7,2.4s2.8,4.2,2.8,7.9
			c0,5-1.6,8-4.8,9.1l5.6,19.5h-5.2L340.1,90h-4.2v18.2H330.5z M335.9,86.1h2c2.4,0,4-0.5,5.1-1.4s1.5-2.6,1.5-5.1
			c0-2.4-0.4-4-1.3-5s-2.5-1.4-4.9-1.4h-2.4V86.1z"/>
		<path fill="#FFFFFF" stroke="#FFFFFF" stroke-miterlimit="10" d="M360.2,108.3V69.4h7.8c3.9,0,6.8,0.8,8.7,2.4s2.8,4.2,2.8,7.9
			c0,5-1.6,8-4.8,9.1l5.6,19.5h-5.2L369.8,90h-4.2v18.2H360.2z M365.6,86.1h2c2.4,0,4-0.5,5.1-1.4s1.5-2.6,1.5-5.1
			c0-2.4-0.4-4-1.3-5s-2.5-1.4-4.9-1.4h-2.4V86.1z"/>
		<path fill="#FFFFFF" stroke="#FFFFFF" stroke-miterlimit="10" d="M387.8,108.3l8.3-38.9h5.2l8.3,38.9h-5.2l-1.8-9.8h-7.9l-1.9,9.8
			H387.8z M395.5,94.6h6.5L398.7,77L395.5,94.6z"/>
		<path fill="#FFFFFF" stroke="#FFFFFF" stroke-miterlimit="10" d="M418.3,108.3V69.4h8.4c4.2,0,7.2,1,8.9,2.9s2.6,4.9,2.6,9v14.3
			c0,4.3-0.9,7.4-2.6,9.6s-4.6,3.2-8.5,3.2H418.3z M423.8,104.4h3c0.8,0,1.6-0.1,2.2-0.2s1.2-0.4,1.6-0.6s0.8-0.6,1.1-1.1
			s0.5-1,0.7-1.4s0.3-1,0.3-1.9s0.1-1.5,0.1-2.1s0-1.4,0-2.5V81.9c0-0.9,0-1.7,0-2.4s-0.1-1.3-0.2-1.9s-0.2-1.2-0.4-1.6
			s-0.4-0.8-0.7-1.2s-0.7-0.6-1.1-0.8s-1-0.3-1.5-0.5s-1.3-0.2-2.1-0.2h-2.9V104.4z"/>
		<path fill="#FFFFFF" stroke="#FFFFFF" stroke-miterlimit="10" d="M458.3,108.7c-1.9,0-3.6-0.3-5-0.9s-2.5-1.4-3.3-2.6
			s-1.4-2.4-1.8-3.9s-0.6-3.2-0.6-5.2V81.3c0-4,0.8-7.1,2.5-9.2s4.4-3.1,8.1-3.1c3.8,0,6.5,1.1,8.1,3.2s2.5,5.2,2.5,9.2v14.7
			c0,4-0.8,7.2-2.5,9.3S462.1,108.7,458.3,108.7z M455.7,103.9c0.7,0.3,1.6,0.5,2.6,0.5s1.9-0.2,2.6-0.5s1.2-0.8,1.6-1.5
			s0.6-1.4,0.7-2.2s0.2-1.8,0.2-3v-17c0-1.2-0.1-2.1-0.2-2.9s-0.4-1.5-0.7-2.2s-0.9-1.1-1.6-1.4s-1.6-0.5-2.6-0.5s-1.9,0.2-2.6,0.5
			s-1.2,0.8-1.6,1.4s-0.6,1.4-0.7,2.2s-0.2,1.8-0.2,2.9v17c0,1.2,0.1,2.2,0.2,3s0.4,1.5,0.7,2.2S455,103.6,455.7,103.9z"/>
		<path fill="#FFFFFF" stroke="#FFFFFF" stroke-miterlimit="10" d="M83.8,183.7c-1.9,0-3.6-0.3-5-0.9s-2.5-1.4-3.3-2.6
			s-1.4-2.4-1.8-3.9s-0.6-3.2-0.6-5.2v-14.7c0-4,0.8-7.1,2.5-9.2s4.4-3.1,8.1-3.1c3.8,0,6.5,1.1,8.1,3.2s2.5,5.2,2.5,9.2v14.7
			c0,4-0.8,7.2-2.5,9.3S87.6,183.7,83.8,183.7z M81.2,178.9c0.7,0.3,1.6,0.5,2.6,0.5s1.9-0.2,2.6-0.5s1.2-0.8,1.6-1.5
			s0.6-1.4,0.7-2.2s0.2-1.8,0.2-3v-17c0-1.2-0.1-2.1-0.2-2.9s-0.4-1.5-0.7-2.2s-0.9-1.1-1.6-1.4s-1.6-0.5-2.6-0.5s-1.9,0.2-2.6,0.5
			s-1.2,0.8-1.6,1.4s-0.6,1.4-0.7,2.2s-0.2,1.8-0.2,2.9v17c0,1.2,0.1,2.2,0.2,3s0.4,1.5,0.7,2.2S80.5,178.6,81.2,178.9z"/>
		<path fill="#FFFFFF" stroke="#FFFFFF" stroke-miterlimit="10" d="M104.6,183.3v-38.9h3.7l11,25.8v-25.8h4.5v38.9h-3.5l-11.2-26.6
			v26.6H104.6z"/>
		<path fill="#FFFFFF" stroke="#FFFFFF" stroke-miterlimit="10" d="M134.8,183.3v-38.9h8.4c4.2,0,7.2,1,8.9,2.9s2.6,4.9,2.6,9v14.3
			c0,4.3-0.9,7.4-2.6,9.6s-4.6,3.2-8.5,3.2H134.8z M140.2,179.4h3c0.8,0,1.6-0.1,2.2-0.2s1.2-0.4,1.6-0.6s0.8-0.6,1.1-1.1
			s0.5-1,0.7-1.4s0.3-1,0.3-1.9s0.1-1.5,0.1-2.1s0-1.4,0-2.5v-12.6c0-0.9,0-1.7,0-2.4s-0.1-1.3-0.2-1.9s-0.2-1.2-0.4-1.6
			s-0.4-0.8-0.7-1.2s-0.7-0.6-1.1-0.8s-1-0.3-1.5-0.5s-1.3-0.2-2.1-0.2h-2.9V179.4z"/>
		<path fill="#FFFFFF" stroke="#FFFFFF" stroke-miterlimit="10" d="M179.2,183c-1.2,0.4-2.7,0.6-4.3,0.6s-3.1-0.2-4.3-0.6
			s-2.2-1-3-1.8s-1.4-1.7-1.8-2.9s-0.8-2.4-0.9-3.7s-0.3-2.8-0.3-4.6v-25.8h5.2v26c0,1.1,0,2.1,0.1,2.9s0.2,1.6,0.4,2.4
			s0.5,1.5,0.9,2s0.9,0.9,1.5,1.2s1.4,0.5,2.3,0.5s1.7-0.2,2.3-0.5s1.1-0.7,1.5-1.2s0.7-1.2,0.9-2s0.4-1.6,0.4-2.4s0.1-1.8,0.1-2.9
			v-26h5.2v25.8c0,1.7-0.1,3.3-0.3,4.6s-0.5,2.5-0.9,3.7s-1.1,2.1-1.8,2.9S180.4,182.6,179.2,183z"/>
		<path fill="#FFFFFF" stroke="#FFFFFF" stroke-miterlimit="10" d="M195.7,183.3v-38.9h5.4v35h9.9v3.9H195.7z"/>
		<path fill="#FFFFFF" stroke="#FFFFFF" stroke-miterlimit="10" d="M217.4,183.3l8.3-38.9h5.2l8.3,38.9h-5.2l-1.8-9.8h-7.9l-1.9,9.8
			H217.4z M225.1,169.6h6.5l-3.3-17.6L225.1,169.6z"/>
		<path fill="#FFFFFF" stroke="#FFFFFF" stroke-miterlimit="10" d="M248,183.3v-38.9h8.4c4.2,0,7.2,1,8.9,2.9s2.6,4.9,2.6,9v14.3
			c0,4.3-0.9,7.4-2.6,9.6s-4.6,3.2-8.5,3.2H248z M253.4,179.4h3c0.8,0,1.6-0.1,2.2-0.2s1.2-0.4,1.6-0.6s0.8-0.6,1.1-1.1
			s0.5-1,0.7-1.4s0.3-1,0.3-1.9s0.1-1.5,0.1-2.1s0-1.4,0-2.5v-12.6c0-0.9,0-1.7,0-2.4s-0.1-1.3-0.2-1.9s-0.2-1.2-0.4-1.6
			s-0.4-0.8-0.7-1.2s-0.7-0.6-1.1-0.8s-1-0.3-1.5-0.5s-1.3-0.2-2.1-0.2h-2.9V179.4z"/>
		<path fill="#FFFFFF" stroke="#FFFFFF" stroke-miterlimit="10" d="M288,183.7c-1.9,0-3.6-0.3-5-0.9s-2.5-1.4-3.3-2.6
			s-1.4-2.4-1.8-3.9s-0.6-3.2-0.6-5.2v-14.7c0-4,0.8-7.1,2.5-9.2s4.4-3.1,8.1-3.1c3.8,0,6.5,1.1,8.1,3.2s2.5,5.2,2.5,9.2v14.7
			c0,4-0.8,7.2-2.5,9.3S291.7,183.7,288,183.7z M285.3,178.9c0.7,0.3,1.6,0.5,2.6,0.5s1.9-0.2,2.6-0.5s1.2-0.8,1.6-1.5
			s0.6-1.4,0.7-2.2s0.2-1.8,0.2-3v-17c0-1.2-0.1-2.1-0.2-2.9s-0.4-1.5-0.7-2.2s-0.9-1.1-1.6-1.4s-1.6-0.5-2.6-0.5s-1.9,0.2-2.6,0.5
			s-1.2,0.8-1.6,1.4s-0.6,1.4-0.7,2.2s-0.2,1.8-0.2,2.9v17c0,1.2,0.1,2.2,0.2,3s0.4,1.5,0.7,2.2S284.6,178.6,285.3,178.9z"/>
	</g>
	<g>
		<g>
			<g>
				<g>
					<path fill="#59704B" d="M497.3,187.3c9,5.6,8.9,3.7,15.6,7c6.7,3.4,14.4,4.1,21.9,4.7c17.8,1.5,36.4,2.6,53-4.2
						c23.5-9.6,38.2-33,48.9-56s19.5-47.9,37.3-66c-16.9-7.5-36.3-7.8-54.4-3.9c-18.1,3.9-35,11.8-51.4,20.3
						c-26,13.5-51.7,29.5-69.1,53.1c-5,6.8-9.4,14.6-9.7,23C489.1,173.7,484.4,175.9,497.3,187.3"/>
				</g>
			</g>
			<g>
				<g>
					<path fill="#59704B" d="M481.3,206.2c3.6-5.6,7.1-11.2,10.7-16.8c2.7-4.2,6.5-10.8,12.5-9.5c0-3.2,0-6.4,0-9.6
						c-21.4,7.4-36.2,29.4-33.7,52.1c0.7,6.3,10.7,6.4,10,0c-2-18.2,8.9-36.5,26.4-42.5c4.3-1.5,5.1-8.5,0-9.6
						c-7.7-1.7-14.3,1.7-19.2,7.6c-5.9,7.1-10.3,15.6-15.3,23.4C469.2,206.6,477.9,211.6,481.3,206.2L481.3,206.2z"/>
				</g>
			</g>
		</g>
		<g>
			<path fill="#59704B" d="M490.5,174.4c-2.7-4.6-5.4-9.3-6-14.5c-0.6-5.2,1.6-11.2,6.4-13.4c3.8-1.8,9.7-1.8,10.4-6
				c0.3-1.5-0.3-2.9-0.7-4.4c-1.4-5.5,0.8-11.8,5.3-15.3c4.5-3.5,11.2-3.9,16.1-1.1c2.9-14.9,18.2-25,33.3-26c1.5-0.1,3-0.2,4.2-1
				c1.2-0.9,1.8-2.4,2.4-3.7c2.9-6.3,8.4-11.4,15-13.4c6.6-2.1,14.2-0.9,19.7,3.2c1.8-6.2,5.9-11.9,11.8-14.4
				c5.9-2.5,13.7-0.8,17.1,4.6c2.7-5.2,7.7-9.5,13.6-10.1c5.8-0.7,12.2,3.1,13.4,8.8c2.3-0.4,3.9-2.5,6-3.7c2.7-1.6,6.3-1.5,9,0.3
				c2.6,1.8,4.1,5.1,3.6,8.2"/>
		</g>
		<g>
			<g>
				<path fill="#59704B" d="M498.3,185.4c-2.9,2.9-2.2,8.2,0.9,10.9c3.1,2.7,7.8,3,11.6,1.6c3.9-1.4,7-4.2,9.8-7.2
					c2.1,4.1,5,7.8,8.5,10.9c2.4,2.1,5.2,4,8.3,4.4c5.3,0.6,10.6-3.7,11.1-9c2.5,5.6,8,10.3,14.2,10.1c6.2-0.2,11.8-6.7,9.8-12.5
					c3.3,6.1,11.5,8.9,17.9,6.3c6.4-2.7,10.1-10.5,8.1-17.1c2.9,2.8,7.1,4.6,11,3.5c3.9-1.1,6.6-4.7,7.6-8.6c1-3.9,0.7-8,0.4-12
					c4.4,4.2,12.5,0.7,14.8-5c2.3-5.7,0.7-12.1-0.9-18c5.2,2.6,12.4,0.3,15.1-5s0.2-12.4-5-15c5.8-3.2,13.7-3.7,16.8-9.4
					c3.1-5.5-0.4-12.3-3.7-17.6c10-0.3,19.1-8.8,20-18.8c0.2-1.7,0.1-3.5-0.9-4.9c-0.9-1.4-3-2.2-4.4-1.2"/>
			</g>
			<g>
				<g>
					<path fill="#59704B" d="M496.6,183.6c-4.5,5.5-2.5,13.4,4,16.4c8.2,3.8,16.4-1.8,21.8-7.6c-1.3-0.2-2.6-0.3-3.9-0.5
						c3.7,6.8,10.1,15.2,18.3,16.4c6.8,1,13.1-4.1,14.2-10.7c-1.5,0.2-3,0.4-4.6,0.6c3.3,6.7,10.4,12.6,18.3,11.1
						c7.1-1.4,12-8.4,10.2-15.5c-1.5,0.6-3,1.3-4.6,1.9c4.3,7,13.2,10.5,21,7.3c7.8-3.2,11.5-12.1,9.6-20.1
						c-1.4,0.8-2.8,1.6-4.2,2.4c5,4.4,12.1,6.5,17.7,1.8c6.2-5.1,6.1-13.4,5.5-20.7c-1.4,0.6-2.8,1.2-4.3,1.8
						c5.1,4.1,12,2.8,16.3-1.9c5.9-6.4,3.8-16.1,1.8-23.6c-1.2,0.9-2.4,1.9-3.7,2.8c6.7,2.8,14.9,0.9,18.5-5.9
						c3.5-6.6,0.3-14.8-5.9-18.5c0,1.4,0,2.9,0,4.3c5.8-3,13.7-3.7,17.4-9.8c4.2-6.8,0.3-14.6-3.3-20.7c-0.7,1.3-1.4,2.5-2.2,3.8
						c8.9-0.6,17-5.9,20.7-14.1c2.4-5.3,3.2-19.1-6.6-15.7c-3,1-1.7,5.9,1.3,4.8c1-0.4,2.1,3,2.1,3.8c0,1.3-0.6,3-1.1,4.3
						c-0.9,2.2-2.2,4.3-3.8,6c-3.3,3.5-7.8,5.7-12.6,6c-1.8,0.1-3.2,2.1-2.2,3.8c3.3,5.5,7.6,13.6,0.6,18.2
						c-3.9,2.5-8.8,3.3-12.9,5.4c-1.7,0.9-1.6,3.4,0,4.3c9.6,5.6,2.8,20.1-7.5,15.7c-1.9-0.8-4.3,0.5-3.7,2.8
						c1.3,4.8,2.9,10.2,1.4,15.1c-1.2,4.2-6.8,8.9-11.1,5.5c-1.5-1.2-4.5-0.6-4.3,1.8c0.4,4.6,0.9,9.6-1.3,13.8
						c-3.1,5.7-8.9,5.4-13.4,1.5c-1.9-1.6-4.8-0.1-4.2,2.4c3.2,13.2-14.3,20.5-21.4,8.9c-1.5-2.4-5.3-0.9-4.6,1.9
						c1.4,5.5-4.2,10.2-9.5,9.2c-4.7-0.8-7.9-4.7-9.9-8.7c-0.9-1.8-4.2-1.5-4.6,0.6c-1.2,6.9-7.8,8.7-13.3,5.1
						c-4.4-2.9-7.6-7.5-10.1-11.9c-0.8-1.4-2.8-1.7-3.9-0.5c-3,3.2-6.4,6.5-11,7.2c-4.6,0.7-12.1-3.5-7.8-8.9
						C502.1,184.7,498.6,181.1,496.6,183.6L496.6,183.6z"/>
				</g>
			</g>
		</g>
	</g>
</g>
</svg>
