<?xml version="1.0" encoding="utf-8"?>
<!-- Generator: Adobe Illustrator 18.0.0, SVG Export Plug-In . SVG Version: 6.00 Build 0)  -->
<!DOCTYPE svg PUBLIC "-//W3C//DTD SVG 1.1//EN" "http://www.w3.org/Graphics/SVG/1.1/DTD/svg11.dtd" [
	<!ENTITY ns_flows "http://ns.adobe.com/Flows/1.0/">
	<!ENTITY ns_extend "http://ns.adobe.com/Extensibility/1.0/">
	<!ENTITY ns_ai "http://ns.adobe.com/AdobeIllustrator/10.0/">
	<!ENTITY ns_graphs "http://ns.adobe.com/Graphs/1.0/">
]>
<svg version="1.1" id="Capa_1" xmlns:x="&ns_extend;" xmlns:i="&ns_ai;" xmlns:graph="&ns_graphs;"
	 xmlns="http://www.w3.org/2000/svg" xmlns:xlink="http://www.w3.org/1999/xlink" xmlns:a="http://ns.adobe.com/AdobeSVGViewerExtensions/3.0/"
	 x="0px" y="0px" viewBox="0 0 595.3 841.9" enable-background="new 0 0 595.3 841.9" xml:space="preserve">
<g>
	<g>
		<path fill="#FFFFFF" stroke="#FFFFFF" stroke-miterlimit="10" d="M248.5,246.1c-3.4,0-6.3-0.5-8.6-1.4c-2.4-0.9-4.3-2.3-5.6-4.1
			c-1.4-1.8-2.4-3.9-3-6.3c-0.6-2.4-0.9-5.2-0.9-8.4v-21.5c0-3.3,0.3-6.1,0.9-8.5c0.6-2.4,1.6-4.5,3-6.3c1.4-1.8,3.2-3.2,5.6-4.1
			c2.4-0.9,5.3-1.4,8.7-1.4c3.3,0,6,0.4,8.3,1.2c2.3,0.8,4.1,2,5.4,3.6c1.3,1.6,2.2,3.4,2.8,5.5c0.6,2,0.9,4.4,0.9,7.1v5.3h-13v-6.1
			c0-0.9,0-1.7,0-2.1c0-0.5-0.1-1.1-0.3-1.9c-0.1-0.8-0.4-1.3-0.6-1.7c-0.3-0.4-0.7-0.7-1.3-1c-0.6-0.3-1.3-0.5-2.1-0.5
			s-1.5,0.2-2.1,0.5s-1,0.7-1.3,1.1c-0.3,0.4-0.5,1-0.7,1.7c-0.2,0.7-0.3,1.4-0.3,2c0,0.6-0.1,1.4-0.1,2.3v28.2
			c0,2.4,0.3,4.3,0.9,5.6c0.6,1.3,1.8,1.9,3.6,1.9c0.8,0,1.5-0.2,2.1-0.5c0.6-0.3,1-0.7,1.3-1.1c0.3-0.4,0.5-1,0.7-1.7
			c0.2-0.8,0.2-1.4,0.3-2s0-1.3,0-2.2v-6.3h13v5.2c0,2.2-0.2,4.1-0.5,5.9c-0.3,1.7-0.9,3.4-1.7,4.9c-0.8,1.5-1.9,2.8-3.2,3.9
			s-3,1.9-5,2.5S251.1,246.1,248.5,246.1z"/>
		<path fill="#FFFFFF" stroke="#FFFFFF" stroke-miterlimit="10" d="M297.9,246.1c-3.4,0-6.2-0.4-8.6-1.3c-2.4-0.9-4.2-2.2-5.6-4
			c-1.4-1.8-2.4-3.8-3-6.2c-0.6-2.4-0.9-5.2-0.9-8.4v-22.3c0-3.3,0.3-6.1,0.9-8.4c0.6-2.4,1.6-4.4,3-6.2c1.4-1.7,3.3-3.1,5.6-3.9
			s5.2-1.3,8.6-1.3c6.5,0,11.2,1.7,14,5c2.8,3.3,4.2,8.3,4.2,14.8v22.3c0,6.6-1.4,11.5-4.2,14.9
			C309.1,244.4,304.4,246.1,297.9,246.1z M295.9,236.2c0.6,0.3,1.3,0.4,2.1,0.4c0.8,0,1.5-0.1,2.1-0.4c0.6-0.3,1-0.6,1.3-1.1
			c0.3-0.4,0.6-1,0.7-1.7c0.2-0.7,0.3-1.3,0.3-1.9c0-0.6,0.1-1.3,0.1-2.1v-29c0-0.8,0-1.5-0.1-2.1s-0.2-1.2-0.3-1.9
			c-0.2-0.7-0.4-1.2-0.7-1.6c-0.3-0.4-0.8-0.8-1.3-1c-0.6-0.3-1.3-0.4-2.1-0.4c-0.8,0-1.5,0.1-2.1,0.4s-1,0.6-1.3,1
			s-0.6,0.9-0.7,1.6c-0.2,0.7-0.3,1.3-0.3,1.9s-0.1,1.3-0.1,2.1v29c0,0.9,0,1.6,0.1,2.1c0,0.6,0.1,1.2,0.3,1.9
			c0.2,0.7,0.4,1.2,0.7,1.7S295.3,236,295.9,236.2z"/>
		<path fill="#FFFFFF" stroke="#FFFFFF" stroke-miterlimit="10" d="M331.7,245.3v-60.4h9.4l12.4,29v-29h11.1v60.4h-9L343.1,214v31.3
			H331.7z"/>
		<path fill="#FFFFFF" stroke="#FFFFFF" stroke-miterlimit="10" d="M4.9,334.8l11.4-60.4h15.1l11.4,60.4H30.5L28.4,322h-8.8l-2,12.8
			H4.9z M20.8,314h6.4L24,290.6L20.8,314z"/>
		<path fill="#FFFFFF" stroke="#FFFFFF" stroke-miterlimit="10" d="M56.3,334.8v-60.4H72c2.3,0,4.3,0.1,6,0.3s3.5,0.7,5.2,1.4
			c1.7,0.7,3.2,1.6,4.3,2.7s2,2.7,2.7,4.6c0.6,1.8,0.9,3.9,0.9,6.3c0,0.2,0,0.3,0,0.5c-0.1,7-3,11.1-8.9,12.1
			c3.5,0.5,6.1,1.9,7.9,4.4c1.8,2.5,2.8,5.8,2.8,10.2c0,0.1,0,0.3,0,0.4c0,5.9-1.6,10.3-4.6,13.1c-3.2,2.9-7.7,4.4-13.6,4.4H56.3z
			 M69.6,298.6h2.5c2.9,0,4.8-0.6,5.8-1.9c1-1.3,1.5-3.3,1.5-6.1c0-4.8-2.6-7.1-7.8-7.1h-2.1V298.6z M69.6,325.5h2.8
			c2.9,0,4.9-0.7,6.1-2.1c1.2-1.4,1.7-3.6,1.7-6.7c0-3.4-0.6-5.8-1.8-7.2s-3.3-2.1-6.2-2.1h-2.6V325.5z"/>
		<path fill="#FFFFFF" stroke="#FFFFFF" stroke-miterlimit="10" d="M125.1,335.6c-2.7,0-5.1-0.3-7.2-0.9s-3.8-1.4-5.1-2.4
			s-2.4-2.4-3.3-4.1c-0.8-1.7-1.4-3.5-1.8-5.5c-0.3-2-0.5-4.3-0.5-7v-41.4h13.2v43.3c0,0.9,0,1.8,0.1,2.4c0,0.7,0.2,1.4,0.3,2.2
			c0.2,0.8,0.4,1.4,0.7,1.9c0.3,0.5,0.8,0.9,1.4,1.2c0.6,0.3,1.3,0.5,2.1,0.5c0.8,0,1.5-0.2,2.1-0.5c0.6-0.3,1-0.7,1.3-1.2
			c0.3-0.5,0.6-1.1,0.7-1.9c0.2-0.8,0.3-1.5,0.3-2.2c0-0.7,0.1-1.5,0.1-2.4v-43.3h13.2v41.4c0,3.4-0.3,6.2-0.9,8.6
			c-0.6,2.4-1.5,4.4-2.9,6.2c-1.3,1.7-3.2,3-5.5,3.9S128.5,335.6,125.1,335.6z"/>
		<path fill="#FFFFFF" stroke="#FFFFFF" stroke-miterlimit="10" d="M158.9,334.8v-60.4h13.3v51.4H186v9H158.9z"/>
		<path fill="#FFFFFF" stroke="#FFFFFF" stroke-miterlimit="10" d="M203.5,334.8v-50.5h-9.3v-9.9h31.8v9.9h-9.2v50.5H203.5z"/>
		<path fill="#FFFFFF" stroke="#FFFFFF" stroke-miterlimit="10" d="M235.5,334.8l11.4-60.4H262l11.4,60.4H261L259,322h-8.8l-2,12.8
			H235.5z M251.3,314h6.4l-3.2-23.4L251.3,314z"/>
		<path fill="#FFFFFF" stroke="#FFFFFF" stroke-miterlimit="10" d="M286.7,334.8l1-60.4h14.3l6.7,35.3l7.2-35.3h13.8l1,60.4h-9.5
			l-1-40.1l-7.1,40.1h-8.3l-7.4-40.4l-0.9,40.4H286.7z"/>
		<path fill="#FFFFFF" stroke="#FFFFFF" stroke-miterlimit="10" d="M346.9,334.8v-60.4h13.3v60.4H346.9z"/>
		<path fill="#FFFFFF" stroke="#FFFFFF" stroke-miterlimit="10" d="M376.7,334.8v-60.4h27.1v9.1H390v14.9h10.5v9.3H390v18h14v9
			H376.7z"/>
		<path fill="#FFFFFF" stroke="#FFFFFF" stroke-miterlimit="10" d="M417.4,334.8v-60.4h9.4l12.4,29v-29h11.1v60.4h-9l-12.5-31.3
			v31.3H417.4z"/>
		<path fill="#FFFFFF" stroke="#FFFFFF" stroke-miterlimit="10" d="M472.2,334.8v-50.5h-9.3v-9.9h31.8v9.9h-9.2v50.5H472.2z"/>
		<path fill="#FFFFFF" stroke="#FFFFFF" stroke-miterlimit="10" d="M524.7,335.6c-3.4,0-6.2-0.4-8.6-1.3c-2.4-0.9-4.2-2.2-5.6-4
			c-1.4-1.8-2.4-3.8-3-6.2c-0.6-2.4-0.9-5.2-0.9-8.4v-22.3c0-3.3,0.3-6.1,0.9-8.4c0.6-2.4,1.6-4.4,3-6.2c1.4-1.7,3.3-3.1,5.6-3.9
			s5.2-1.3,8.6-1.3c6.5,0,11.2,1.7,14,5c2.8,3.3,4.2,8.3,4.2,14.8v22.3c0,6.6-1.4,11.5-4.2,14.9
			C535.9,333.9,531.3,335.6,524.7,335.6z M522.7,325.8c0.6,0.3,1.3,0.4,2.1,0.4c0.8,0,1.5-0.1,2.1-0.4c0.6-0.3,1-0.6,1.3-1.1
			c0.3-0.4,0.6-1,0.7-1.7c0.2-0.7,0.3-1.3,0.3-1.9c0-0.6,0.1-1.3,0.1-2.1v-29c0-0.8,0-1.5-0.1-2.1s-0.2-1.2-0.3-1.9
			c-0.2-0.7-0.4-1.2-0.7-1.6c-0.3-0.4-0.8-0.8-1.3-1c-0.6-0.3-1.3-0.4-2.1-0.4c-0.8,0-1.5,0.1-2.1,0.4s-1,0.6-1.3,1
			s-0.6,0.9-0.7,1.6c-0.2,0.7-0.3,1.3-0.3,1.9s-0.1,1.3-0.1,2.1v29c0,0.9,0,1.6,0.1,2.1c0,0.6,0.1,1.2,0.3,1.9
			c0.2,0.7,0.4,1.2,0.7,1.7S522.1,325.5,522.7,325.8z"/>
		<path fill="#FFFFFF" stroke="#FFFFFF" stroke-miterlimit="10" d="M574.5,335.6c-5.7,0-10-1.5-12.8-4.6c-2.8-3-4.3-7.9-4.5-14.6
			l11.4-1.7c0,3.8,0.5,6.5,1.4,8.2c0.9,1.7,2.2,2.6,3.9,2.6c2.3,0,3.4-1.5,3.4-4.4c0-1.6-0.3-3.1-0.9-4.5s-1.3-2.5-2.1-3.5
			c-0.9-1-2-2.1-3.6-3.4l-5.4-4.6c-1.3-1.1-2.4-2.1-3.2-3.1c-0.9-0.9-1.7-2-2.5-3.3c-0.8-1.3-1.4-2.7-1.8-4.2
			c-0.4-1.6-0.6-3.3-0.6-5.1c0-5,1.5-8.9,4.5-11.7c3-2.7,7.1-4.1,12.4-4.2c1.8,0,3.4,0.2,4.9,0.6c1.5,0.4,2.7,0.9,3.7,1.5
			c1,0.6,1.9,1.4,2.7,2.4s1.4,1.9,1.8,2.9c0.4,1,0.8,2,1.1,3.2s0.5,2.3,0.6,3.3c0.1,1,0.2,2.1,0.2,3.2l-11.5,1.5
			c0-1-0.1-1.9-0.1-2.5c0-0.7-0.1-1.4-0.2-2.1c-0.1-0.8-0.2-1.4-0.4-1.8s-0.4-0.9-0.7-1.3c-0.3-0.4-0.6-0.7-1.1-0.9
			s-0.9-0.2-1.5-0.2c-1.2,0-2.1,0.5-2.7,1.5s-0.9,2-0.9,3.2c0,1.1,0.1,2.2,0.4,3.1c0.3,0.9,0.8,1.8,1.5,2.7c0.7,0.9,1.3,1.5,1.7,2
			c0.4,0.4,1.2,1.1,2.2,2l5.1,4.5c1.4,1.3,2.6,2.5,3.6,3.6c1,1.2,2,2.5,2.9,3.9s1.6,3.1,2.1,4.8c0.5,1.8,0.7,3.6,0.7,5.7
			c0,4.4-1.5,8-4.4,10.9C583.1,334.2,579.3,335.6,574.5,335.6z"/>
	</g>
	<g>
		<g>
			<g>
				<g>
					<path fill="#59704B" d="M207.9,597.8c14.1,8.8,14.1,5.8,24.6,11c10.6,5.3,22.7,6.4,34.5,7.3c28.1,2.3,57.5,4.1,83.6-6.6
						c37.1-15.1,60.3-52,77.1-88.4c16.9-36.3,30.7-75.4,58.8-104c-26.6-11.8-57.3-12.3-85.7-6.2c-28.5,6.1-55.2,18.6-81,32
						c-41,21.3-81.5,46.5-108.9,83.7c-7.9,10.7-14.8,23-15.3,36.3C194.9,576.3,187.4,579.8,207.9,597.8"/>
				</g>
			</g>
			<g>
				<g>
					<path fill="#59704B" d="M180.1,626.2c5.9-9.3,11.8-18.7,17.8-28c4.8-7.4,11.8-17.4,22-14.9c0-3.2,0-6.4,0-9.6
						c-32.5,10.9-55,45.1-51,79.4c0.7,6.3,10.7,6.4,10,0c-3.4-29.8,15-60.1,43.7-69.8c4.5-1.5,5-8.4,0-9.6
						c-11.6-2.8-21.7,3.7-28.5,12.6c-8.4,10.9-15.2,23.3-22.5,34.8C168,626.6,176.7,631.6,180.1,626.2L180.1,626.2z"/>
				</g>
			</g>
		</g>
		<g opacity="0.4">
			<g>
				<path fill="#8B9D80" d="M208.9,584.6c15-44.8,69.7-50.7,107.1-66.5c36.8-15.6,67.3-42.1,100.1-64.2
					c18.8-12.6,38.6-23.9,60.3-30.6c1.5-0.5,0.9-2.9-0.7-2.4c-39.8,12.4-72.2,39.2-105.7,62.8c-16.6,11.7-33.7,22.8-52.3,31.1
					c-21.8,9.7-45.5,14.4-67,24.6c-19.4,9.2-37.2,23.8-44.2,44.7C206,585.5,208.4,586.2,208.9,584.6L208.9,584.6z"/>
			</g>
		</g>
		<g opacity="0.14">
			<g>
				<path fill="#8D7F74" d="M303.8,594.9c-8,1-18.4,0.9-25.5-3.4c-4.2-2.5-6.8-6.5-10.2-10c-2.9-3.1-6-5.2-9.7-6.2
					c-5.3,6.8-13.1,11.8-21.6,13.6c1,3,4.2,4.6,7.3,5.1c3.1,0.5,6.3,0,9.4,0.4c7.6,0.9,13.7,6.5,21,9c8.1,2.7,17.1,1.3,24.8-2.1
					c5.4-2.4,10.3-5.6,15.1-9.1C311.1,593.5,307.5,594.4,303.8,594.9z"/>
			</g>
		</g>
		<g opacity="0.18">
			<g>
				<path fill="#8D7F74" d="M237.6,583.5c6.2,2.7,13.3-1.5,17.9-6.5c4.6-5,8.4-11.2,14.5-14.1c3.6-1.7,7.7-2.1,11.7-1.9
					c4.3,0.2,8.8,1.2,12,4.1c3.3,2.9,4.8,7.3,7.4,10.8c3.9,5,10.3,8,16.7,7.6c-3.6,13.3-18.1,20.9-31.9,22.6
					c-3.9,0.5-8.2,0.5-11.5-1.7c-3.6-2.5-5.1-7-8.2-10c-7.7-7.4-21.8-2.5-30.1-9.1"/>
			</g>
		</g>
		<g opacity="0.16">
			<g>
				<path fill="#8B9D80" d="M293.7,575.5c-1-6.3-7.3-11.3-13.6-10.9c-1,0.1-2.2,0.3-2.7,1.2c-0.7,1.3,0.2,2.8,1.2,3.9
					c2.3,2.6,4.8,5,7.6,7.1c1.4,1.1,3.1,2.2,4.9,1.9c1.8-0.3,3-2.8,1.6-3.9"/>
			</g>
		</g>
		<g opacity="0.51">
			<g>
				<path fill="#4D5E41" d="M319.8,583.5c-5.1,3.4-7.5,9.7-12,14c-7.1,6.9-18,7.5-27.9,7.6c-3.2,0.1-6.6,0.1-9.4-1.6
					c-1.4-0.9-2.6-2.2-4-3.1c-1.5-0.9-3.5-1.2-4.7,0c3.3-0.8,7,0.1,9.6,2.3c0.8,0.7,1.5,1.5,2.4,2.1c1.3,0.8,2.9,1.1,4.4,1.4
					c7.4,1.3,14.8,2.7,22.2,4c1.7,0.3,3.4,0.6,5,0.2c1.2-0.3,2.3-1,3.5-1.4c5.7-2,12.4,2.4,17.7-0.3c-0.2-2.1-3-2.7-5.2-2.7
					c-2.2,0-5-0.3-5.4-2.4c-0.3-1.1,0.3-2.2,0.9-3.2c1.6-3,3.3-5.9,4.9-8.9c-0.4-2.7-1.2-5.3-2.4-7.7"/>
			</g>
		</g>
	</g>
</g>
</svg>
