<?xml version="1.0" encoding="utf-8"?>
<!-- Generator: Adobe Illustrator 18.0.0, SVG Export Plug-In . SVG Version: 6.00 Build 0)  -->
<!DOCTYPE svg PUBLIC "-//W3C//DTD SVG 1.1//EN" "http://www.w3.org/Graphics/SVG/1.1/DTD/svg11.dtd" [
	<!ENTITY ns_flows "http://ns.adobe.com/Flows/1.0/">
	<!ENTITY ns_extend "http://ns.adobe.com/Extensibility/1.0/">
	<!ENTITY ns_ai "http://ns.adobe.com/AdobeIllustrator/10.0/">
	<!ENTITY ns_graphs "http://ns.adobe.com/Graphs/1.0/">
]>
<svg version="1.1" id="Capa_1" xmlns:x="&ns_extend;" xmlns:i="&ns_ai;" xmlns:graph="&ns_graphs;"
	 xmlns="http://www.w3.org/2000/svg" xmlns:xlink="http://www.w3.org/1999/xlink" xmlns:a="http://ns.adobe.com/AdobeSVGViewerExtensions/3.0/"
	 x="0px" y="0px" viewBox="0 321.9 595.3 198.1" enable-background="new 0 321.9 595.3 198.1" xml:space="preserve">
<g>
	<path fill="#FFFFFF" stroke="#FFFFFF" stroke-width="0.7808" stroke-miterlimit="10" d="M55.3,406.8v-30.3h6.9
		c2.8,0,4.8,0.6,6.1,1.8s2,3.1,2,5.7c0,3.9-1.5,6-4.4,6.4c1.8,0.4,3.1,1.3,3.9,2.5c0.8,1.3,1.2,3,1.2,5.1c0,2.7-0.6,4.9-1.9,6.4
		c-1.3,1.5-3.2,2.3-5.9,2.3H55.3z M59.5,389.1H62c1.7,0,3-0.4,3.6-1.2s1-2.1,1-3.9c0-0.6,0-1.1-0.1-1.6s-0.2-0.8-0.3-1.1
		c-0.1-0.3-0.3-0.6-0.6-0.8c-0.3-0.2-0.6-0.4-0.8-0.5c-0.3-0.1-0.7-0.2-1.1-0.3c-0.5-0.1-0.9-0.1-1.4-0.1c-0.4,0-1,0-1.7,0h-1V389.1
		z M59.5,403.8h2.9c1.8,0,3.1-0.4,3.8-1.3c0.7-0.9,1-2.3,1-4.3c0-1.9-0.4-3.4-1.2-4.3c-0.8-1-2.1-1.4-3.9-1.4h-2.5V403.8z"/>
	<path fill="#FFFFFF" stroke="#FFFFFF" stroke-width="0.7808" stroke-miterlimit="10" d="M86.4,407.1c-1.5,0-2.8-0.2-3.9-0.7
		c-1.1-0.5-1.9-1.1-2.6-2c-0.6-0.9-1.1-1.9-1.4-3.1s-0.4-2.5-0.4-4.1v-11.5c0-3.2,0.6-5.6,1.9-7.2c1.3-1.6,3.4-2.4,6.4-2.4
		c2.9,0,5.1,0.8,6.3,2.5c1.3,1.6,1.9,4,1.9,7.2v11.5c0,3.2-0.6,5.6-1.9,7.3C91.5,406.3,89.4,407.1,86.4,407.1z M84.4,403.5
		c0.5,0.3,1.2,0.4,2.1,0.4c0.8,0,1.5-0.1,2.1-0.4c0.5-0.3,1-0.6,1.2-1.2s0.5-1.1,0.6-1.7c0.1-0.6,0.2-1.4,0.2-2.3v-13.3
		c0-0.9-0.1-1.7-0.2-2.3c-0.1-0.6-0.3-1.2-0.6-1.7c-0.3-0.5-0.7-0.9-1.2-1.1c-0.5-0.2-1.2-0.4-2.1-0.4c-0.8,0-1.5,0.1-2.1,0.4
		c-0.5,0.2-1,0.6-1.2,1.1c-0.3,0.5-0.5,1.1-0.6,1.7c-0.1,0.6-0.2,1.4-0.2,2.3v13.3c0,0.9,0.1,1.7,0.2,2.3s0.3,1.2,0.6,1.7
		S83.8,403.2,84.4,403.5z"/>
	<path fill="#FFFFFF" stroke="#FFFFFF" stroke-width="0.7808" stroke-miterlimit="10" d="M102.7,406.8v-30.3h6.1
		c3.1,0,5.3,0.6,6.8,1.9c1.4,1.3,2.2,3.3,2.2,6.1c0,3.9-1.3,6.3-3.8,7.1l4.3,15.2h-4.1l-4-14.2h-3.3v14.2H102.7z M106.9,389.5h1.6
		c1.8,0,3.2-0.4,3.9-1.1s1.2-2,1.2-3.9c0-1.8-0.3-3.1-1-3.9c-0.7-0.7-2-1.1-3.8-1.1h-1.9V389.5z"/>
	<path fill="#FFFFFF" stroke="#FFFFFF" stroke-width="0.7808" stroke-miterlimit="10" d="M125.9,406.8v-30.3h6.6
		c3.3,0,5.6,0.7,6.9,2.2c1.3,1.5,2,3.8,2,7v11.2c0,3.3-0.7,5.8-2,7.5c-1.3,1.6-3.6,2.5-6.7,2.5H125.9z M130.1,403.8h2.4
		c0.6,0,1.2-0.1,1.7-0.2c0.5-0.1,0.9-0.3,1.2-0.5c0.3-0.2,0.6-0.5,0.8-0.9c0.2-0.4,0.4-0.8,0.5-1.1c0.1-0.3,0.2-0.8,0.3-1.5
		c0.1-0.6,0.1-1.2,0.1-1.7c0-0.5,0-1.1,0-2v-9.9c0-0.7,0-1.3,0-1.8s-0.1-1-0.1-1.5c-0.1-0.5-0.2-0.9-0.3-1.2
		c-0.1-0.3-0.3-0.6-0.6-0.9c-0.2-0.3-0.5-0.5-0.9-0.7c-0.3-0.2-0.7-0.3-1.2-0.4c-0.5-0.1-1-0.1-1.6-0.1h-2.3V403.8z"/>
	<path fill="#FFFFFF" stroke="#FFFFFF" stroke-width="0.7808" stroke-miterlimit="10" d="M149.3,406.8v-30.3h11.7v3.1h-7.5v10h6.1v3
		h-6.1v11.1h7.6v3H149.3z"/>
	<path fill="#FFFFFF" stroke="#FFFFFF" stroke-width="0.7808" stroke-miterlimit="10" d="M188.2,407.1c-1.3,0-2.4-0.2-3.3-0.5
		c-1-0.3-1.7-0.8-2.3-1.4c-0.6-0.6-1.1-1.3-1.5-2.2c-0.4-0.9-0.6-1.8-0.8-2.8c-0.1-1-0.2-2-0.2-3.2v-10.7c0-1.3,0.1-2.4,0.2-3.4
		s0.4-1.9,0.8-2.8c0.4-0.9,0.9-1.6,1.5-2.1c0.6-0.6,1.4-1,2.3-1.3c0.9-0.3,2-0.5,3.3-0.5c2.7,0,4.7,0.7,5.9,2.2s1.8,3.6,1.8,6.5v2.4
		h-4v-2.1c0-0.5,0-0.8,0-1.1s0-0.6,0-1c0-0.4-0.1-0.7-0.1-0.9c0-0.2-0.1-0.5-0.2-0.8c-0.1-0.3-0.2-0.5-0.3-0.7s-0.3-0.3-0.5-0.5
		c-0.2-0.2-0.4-0.3-0.6-0.4c-0.2-0.1-0.5-0.2-0.8-0.2s-0.7-0.1-1.1-0.1c-0.6,0-1.1,0.1-1.5,0.2s-0.8,0.3-1.1,0.6
		c-0.3,0.3-0.5,0.6-0.7,0.9c-0.2,0.3-0.3,0.8-0.4,1.3c-0.1,0.5-0.1,1-0.2,1.5s0,1.1,0,1.8v12c0,2.3,0.3,3.9,0.9,4.8
		c0.6,0.9,1.6,1.3,3.1,1.3c0.6,0,1-0.1,1.5-0.2c0.4-0.1,0.7-0.3,1-0.6c0.3-0.3,0.5-0.6,0.6-0.9c0.2-0.3,0.3-0.7,0.3-1.2
		c0.1-0.5,0.1-1,0.1-1.4s0-1,0-1.7v-2.2h4v2.3c0,1.2-0.1,2.2-0.2,3.1s-0.4,1.8-0.8,2.6c-0.4,0.8-0.8,1.5-1.4,2
		c-0.6,0.5-1.3,0.9-2.2,1.2S189.4,407.1,188.2,407.1z"/>
	<path fill="#FFFFFF" stroke="#FFFFFF" stroke-width="0.7808" stroke-miterlimit="10" d="M211.4,407.1c-1.5,0-2.8-0.2-3.9-0.7
		s-1.9-1.1-2.6-2c-0.6-0.9-1.1-1.9-1.4-3.1s-0.4-2.5-0.4-4.1v-11.5c0-3.2,0.6-5.6,1.9-7.2c1.3-1.6,3.4-2.4,6.4-2.4
		c2.9,0,5.1,0.8,6.3,2.5c1.3,1.6,1.9,4,1.9,7.2v11.5c0,3.2-0.6,5.6-1.9,7.3C216.5,406.3,214.4,407.1,211.4,407.1z M209.4,403.5
		c0.5,0.3,1.2,0.4,2.1,0.4c0.8,0,1.5-0.1,2.1-0.4s1-0.6,1.2-1.2c0.3-0.5,0.5-1.1,0.6-1.7s0.2-1.4,0.2-2.3v-13.3
		c0-0.9-0.1-1.7-0.2-2.3c-0.1-0.6-0.3-1.2-0.6-1.7c-0.3-0.5-0.7-0.9-1.2-1.1c-0.5-0.2-1.2-0.4-2.1-0.4c-0.8,0-1.5,0.1-2.1,0.4
		c-0.5,0.2-1,0.6-1.2,1.1c-0.3,0.5-0.5,1.1-0.6,1.7c-0.1,0.6-0.2,1.4-0.2,2.3v13.3c0,0.9,0.1,1.7,0.2,2.3s0.3,1.2,0.6,1.7
		C208.4,402.8,208.8,403.2,209.4,403.5z"/>
	<path fill="#FFFFFF" stroke="#FFFFFF" stroke-width="0.7808" stroke-miterlimit="10" d="M227.7,406.8v-30.3h2.9l8.6,20.1v-20.1h3.5
		v30.3H240l-8.7-20.7v20.7H227.7z"/>
	<path fill="#FFFFFF" stroke="#FFFFFF" stroke-width="0.7808" stroke-miterlimit="10" d="M263.5,406.8v-30.3h11.7v3.1h-7.5v10h6.1v3
		h-6.1v11.1h7.6v3H263.5z"/>
	<path fill="#FFFFFF" stroke="#FFFFFF" stroke-width="0.7808" stroke-miterlimit="10" d="M289.6,407.1c-2.5,0-4.5-0.8-5.8-2.4
		s-2.1-3.7-2.2-6.5l3.8-1c0.3,4.3,1.7,6.5,4.3,6.5c1.1,0,1.9-0.3,2.5-0.9c0.6-0.6,0.9-1.5,0.9-2.7c0-0.6-0.1-1.2-0.2-1.8
		c-0.2-0.5-0.4-1-0.8-1.5c-0.3-0.5-0.7-0.9-1-1.2c-0.3-0.3-0.8-0.8-1.3-1.3l-5.1-4.5c-1-0.9-1.8-1.9-2.2-2.9c-0.5-1-0.7-2.3-0.7-3.8
		c0-2.2,0.6-3.9,1.9-5.1s3-1.9,5.2-1.9c2.4,0,4.2,0.6,5.5,1.9c1.2,1.3,1.9,3.3,2.2,6l-3.6,1c0-0.7-0.1-1.2-0.2-1.8
		c-0.1-0.5-0.2-1-0.4-1.5c-0.2-0.5-0.4-0.9-0.7-1.3c-0.3-0.3-0.7-0.6-1.1-0.8c-0.5-0.2-1-0.3-1.6-0.2c-2.2,0.2-3.3,1.3-3.3,3.3
		c0,0.9,0.2,1.6,0.5,2.2c0.3,0.6,0.8,1.2,1.5,1.9l5.1,4.5c1.3,1.2,2.4,2.5,3.2,3.8c0.8,1.4,1.2,2.9,1.2,4.6c0,2.2-0.7,4-2,5.3
		C293.5,406.5,291.8,407.1,289.6,407.1z"/>
	<path fill="#FFFFFF" stroke="#FFFFFF" stroke-width="0.7808" stroke-miterlimit="10" d="M304,406.8v-30.3h7.5
		c2.6,0,4.5,0.7,5.7,2.1c1.2,1.4,1.8,3.5,1.8,6.2c0,2.5-0.6,4.4-1.9,5.8s-3.1,2.1-5.6,2.1h-3.3v14.1H304z M308.2,389.7h1.9
		c1.9,0,3.1-0.3,3.8-1s1-1.9,1-3.8c0-0.8,0-1.4-0.1-1.9c0-0.5-0.1-1-0.2-1.4c-0.1-0.4-0.3-0.8-0.5-1s-0.5-0.4-0.9-0.6
		c-0.4-0.2-0.8-0.3-1.3-0.3s-1.1-0.1-1.8-0.1h-2V389.7z"/>
	<path fill="#FFFFFF" stroke="#FFFFFF" stroke-width="0.7808" stroke-miterlimit="10" d="M325.9,406.8v-30.3h4.2v30.3H325.9z"/>
	<path fill="#FFFFFF" stroke="#FFFFFF" stroke-width="0.7808" stroke-miterlimit="10" d="M338.7,406.8v-30.3h2.9l8.6,20.1v-20.1h3.5
		v30.3h-2.7l-8.7-20.7v20.7H338.7z"/>
	<path fill="#FFFFFF" stroke="#FFFFFF" stroke-width="0.7808" stroke-miterlimit="10" d="M360.6,406.8l6.5-30.3h4.1l6.5,30.3h-4
		l-1.4-7.6H366l-1.4,7.6H360.6z M366.6,396.2h5.1l-2.5-13.7L366.6,396.2z"/>
	<path fill="#FFFFFF" stroke="#FFFFFF" stroke-width="0.7808" stroke-miterlimit="10" d="M391.6,407.1c-2.5,0-4.5-0.8-5.8-2.4
		s-2.1-3.7-2.2-6.5l3.8-1c0.3,4.3,1.7,6.5,4.3,6.5c1.1,0,1.9-0.3,2.5-0.9c0.6-0.6,0.9-1.5,0.9-2.7c0-0.6-0.1-1.2-0.2-1.8
		c-0.2-0.5-0.4-1-0.8-1.5s-0.7-0.9-1-1.2c-0.3-0.3-0.8-0.8-1.3-1.3l-5.1-4.5c-1-0.9-1.8-1.9-2.2-2.9s-0.7-2.3-0.7-3.8
		c0-2.2,0.6-3.9,1.9-5.1s3-1.9,5.2-1.9c2.4,0,4.2,0.6,5.5,1.9c1.2,1.3,1.9,3.3,2.2,6l-3.6,1c0-0.7-0.1-1.2-0.2-1.8
		c-0.1-0.5-0.2-1-0.4-1.5c-0.2-0.5-0.4-0.9-0.7-1.3c-0.3-0.3-0.7-0.6-1.1-0.8c-0.5-0.2-1-0.3-1.6-0.2c-2.2,0.2-3.3,1.3-3.3,3.3
		c0,0.9,0.2,1.6,0.5,2.2s0.8,1.2,1.5,1.9l5.1,4.5c1.3,1.2,2.4,2.5,3.2,3.8c0.8,1.4,1.2,2.9,1.2,4.6c0,2.2-0.7,4-2,5.3
		C395.5,406.5,393.7,407.1,391.6,407.1z"/>
	<path fill="#FFFFFF" stroke="#FFFFFF" stroke-width="0.7808" stroke-miterlimit="10" d="M59.9,465.4v-10.7L53.4,435h3.9l4.6,14.6
		l4.6-14.6h4L64,454.7v10.7H59.9z"/>
	<path fill="#FFFFFF" stroke="#FFFFFF" stroke-width="0.7808" stroke-miterlimit="10" d="M89.4,465.4V435h7.5c2.6,0,4.5,0.7,5.7,2.1
		c1.2,1.4,1.8,3.5,1.8,6.2c0,2.5-0.6,4.4-1.9,5.8c-1.3,1.4-3.1,2.1-5.6,2.1h-3.3v14.1H89.4z M93.6,448.2h1.9c1.9,0,3.1-0.3,3.8-1
		c0.7-0.7,1-1.9,1-3.8c0-0.8,0-1.4-0.1-1.9s-0.1-1-0.2-1.4c-0.1-0.4-0.3-0.8-0.5-1c-0.2-0.2-0.5-0.4-0.9-0.6s-0.8-0.3-1.3-0.3
		s-1.1-0.1-1.8-0.1h-2V448.2z"/>
	<path fill="#FFFFFF" stroke="#FFFFFF" stroke-width="0.7808" stroke-miterlimit="10" d="M122.3,465.2c-1,0.3-2.1,0.5-3.4,0.5
		s-2.4-0.2-3.4-0.5s-1.7-0.8-2.3-1.4c-0.6-0.6-1.1-1.3-1.4-2.2c-0.4-0.9-0.6-1.9-0.7-2.9c-0.1-1-0.2-2.2-0.2-3.6V435h4v20.3
		c0,0.9,0,1.6,0.1,2.3s0.2,1.3,0.3,1.9s0.4,1.2,0.7,1.5c0.3,0.4,0.7,0.7,1.2,1c0.5,0.3,1.1,0.4,1.8,0.4c0.7,0,1.3-0.1,1.8-0.4
		c0.5-0.3,0.9-0.6,1.2-1c0.3-0.4,0.5-0.9,0.7-1.5c0.2-0.6,0.3-1.3,0.3-1.9s0.1-1.4,0.1-2.3V435h4v20.1c0,1.4-0.1,2.5-0.2,3.6
		c-0.1,1-0.4,2-0.7,2.9c-0.4,0.9-0.8,1.7-1.4,2.2C124.1,464.4,123.3,464.9,122.3,465.2z"/>
	<path fill="#FFFFFF" stroke="#FFFFFF" stroke-width="0.7808" stroke-miterlimit="10" d="M135.3,465.4V435h2.9l8.6,20.1V435h3.5
		v30.3h-2.7l-8.7-20.7v20.7H135.3z"/>
	<path fill="#FFFFFF" stroke="#FFFFFF" stroke-width="0.7808" stroke-miterlimit="10" d="M161.9,465.4v-27.2h-5.5V435h15.1v3.1h-5.3
		v27.2H161.9z"/>
	<path fill="#FFFFFF" stroke="#FFFFFF" stroke-width="0.7808" stroke-miterlimit="10" d="M175.8,465.4l6.5-30.3h4.1l6.5,30.3h-4
		l-1.4-7.6h-6.2l-1.4,7.6H175.8z M181.8,454.7h5.1l-2.5-13.7L181.8,454.7z"/>
	<path fill="#FFFFFF" stroke="#FFFFFF" stroke-width="0.7808" stroke-miterlimit="10" d="M211.9,465.4V435h7.5
		c2.6,0,4.5,0.7,5.7,2.1s1.8,3.5,1.8,6.2c0,2.5-0.6,4.4-1.9,5.8c-1.3,1.4-3.1,2.1-5.6,2.1h-3.3v14.1H211.9z M216.2,448.2h1.9
		c1.9,0,3.1-0.3,3.8-1c0.7-0.7,1-1.9,1-3.8c0-0.8,0-1.4-0.1-1.9c0-0.5-0.1-1-0.2-1.4s-0.3-0.8-0.5-1c-0.2-0.2-0.5-0.4-0.9-0.6
		s-0.8-0.3-1.3-0.3s-1.1-0.1-1.8-0.1h-2V448.2z"/>
	<path fill="#FFFFFF" stroke="#FFFFFF" stroke-width="0.7808" stroke-miterlimit="10" d="M244.8,465.2c-1,0.3-2.1,0.5-3.4,0.5
		c-1.3,0-2.4-0.2-3.4-0.5s-1.7-0.8-2.3-1.4s-1.1-1.3-1.4-2.2c-0.4-0.9-0.6-1.9-0.7-2.9c-0.1-1-0.2-2.2-0.2-3.6V435h4v20.3
		c0,0.9,0,1.6,0.1,2.3s0.2,1.3,0.3,1.9s0.4,1.2,0.7,1.5c0.3,0.4,0.7,0.7,1.2,1c0.5,0.3,1.1,0.4,1.8,0.4s1.3-0.1,1.8-0.4
		s0.9-0.6,1.2-1c0.3-0.4,0.5-0.9,0.7-1.5s0.3-1.3,0.3-1.9s0.1-1.4,0.1-2.3V435h4v20.1c0,1.4-0.1,2.5-0.2,3.6c-0.1,1-0.4,2-0.7,2.9
		c-0.4,0.9-0.8,1.7-1.4,2.2C246.6,464.4,245.8,464.9,244.8,465.2z"/>
	<path fill="#FFFFFF" stroke="#FFFFFF" stroke-width="0.7808" stroke-miterlimit="10" d="M257.8,465.4V435h2.9l8.6,20.1V435h3.5
		v30.3h-2.7l-8.7-20.7v20.7H257.8z"/>
	<path fill="#FFFFFF" stroke="#FFFFFF" stroke-width="0.7808" stroke-miterlimit="10" d="M280.4,465.4v-3l8.9-24.3h-8.4v-3h12.9v1.8
		l-9.4,25.5h9.4v3H280.4z"/>
	<path fill="#FFFFFF" stroke="#FFFFFF" stroke-width="0.7808" stroke-miterlimit="10" d="M299,465.4l6.5-30.3h4.1l6.5,30.3h-4
		l-1.4-7.6h-6.2l-1.4,7.6H299z M305,454.7h5.1l-2.5-13.7L305,454.7z"/>
	<path fill="#FFFFFF" stroke="#FFFFFF" stroke-width="0.7808" stroke-miterlimit="10" d="M322.8,465.4V435h2.9l8.6,20.1V435h3.5
		v30.3h-2.7l-8.7-20.7v20.7H322.8z"/>
	<path fill="#FFFFFF" stroke="#FFFFFF" stroke-width="0.7808" stroke-miterlimit="10" d="M349.5,465.4v-27.2h-5.5V435h15.1v3.1h-5.3
		v27.2H349.5z"/>
	<path fill="#FFFFFF" stroke="#FFFFFF" stroke-width="0.7808" stroke-miterlimit="10" d="M365.1,465.4V435h11.7v3.1h-7.5v10h6.1v3
		h-6.1v11.1h7.6v3H365.1z"/>
</g>
</svg>
