<?xml version="1.0" encoding="utf-8"?>
<!-- Generator: Adobe Illustrator 18.0.0, SVG Export Plug-In . SVG Version: 6.00 Build 0)  -->
<!DOCTYPE svg PUBLIC "-//W3C//DTD SVG 1.1//EN" "http://www.w3.org/Graphics/SVG/1.1/DTD/svg11.dtd" [
	<!ENTITY ns_flows "http://ns.adobe.com/Flows/1.0/">
	<!ENTITY ns_extend "http://ns.adobe.com/Extensibility/1.0/">
	<!ENTITY ns_ai "http://ns.adobe.com/AdobeIllustrator/10.0/">
	<!ENTITY ns_graphs "http://ns.adobe.com/Graphs/1.0/">
]>
<svg version="1.1" id="Capa_1" xmlns:x="&ns_extend;" xmlns:i="&ns_ai;" xmlns:graph="&ns_graphs;"
	 xmlns="http://www.w3.org/2000/svg" xmlns:xlink="http://www.w3.org/1999/xlink" xmlns:a="http://ns.adobe.com/AdobeSVGViewerExtensions/3.0/"
	 x="0px" y="0px" viewBox="0 0 595.3 841.9" enable-background="new 0 0 595.3 841.9" xml:space="preserve">
<g>
	<g>
		<path fill="#FFFFFF" stroke="#FFFFFF" stroke-miterlimit="10" d="M115.5,191.4v-32.2h7c3.5,0,5.9,0.8,7.4,2.4s2.1,4.1,2.1,7.5
			v11.8c0,3.5-0.7,6.2-2.1,7.9c-1.4,1.7-3.8,2.6-7.1,2.6H115.5z M120,188.1h2.5c0.7,0,1.3-0.1,1.8-0.2c0.5-0.1,1-0.3,1.3-0.5
			c0.3-0.2,0.6-0.5,0.9-0.9c0.2-0.4,0.4-0.8,0.5-1.1s0.2-0.9,0.3-1.6c0.1-0.7,0.1-1.3,0.1-1.8c0-0.5,0-1.2,0-2.1v-10.5
			c0-0.8,0-1.4,0-2c0-0.5-0.1-1.1-0.2-1.6c-0.1-0.5-0.2-1-0.3-1.3s-0.4-0.7-0.6-1c-0.2-0.3-0.6-0.5-0.9-0.7
			c-0.4-0.2-0.8-0.3-1.3-0.4c-0.5-0.1-1.1-0.1-1.7-0.1H120V188.1z"/>
		<path fill="#FFFFFF" stroke="#FFFFFF" stroke-miterlimit="10" d="M140.6,191.4v-32.2h4.4v32.2H140.6z"/>
		<path fill="#FFFFFF" stroke="#FFFFFF" stroke-miterlimit="10" d="M161.8,191.7c-2.7,0-4.8-0.8-6.2-2.5s-2.2-4-2.4-6.9l4-1.1
			c0.3,4.6,1.8,6.9,4.6,6.9c1.2,0,2-0.3,2.6-1c0.6-0.6,0.9-1.6,0.9-2.8c0-0.7-0.1-1.3-0.2-1.9c-0.2-0.6-0.4-1.1-0.8-1.6
			s-0.7-0.9-1-1.3c-0.3-0.3-0.8-0.8-1.4-1.4l-5.4-4.8c-1.1-1-1.9-2-2.4-3.1c-0.5-1.1-0.7-2.4-0.7-4c0-2.3,0.7-4.1,2-5.4
			c1.4-1.3,3.2-2,5.5-2c2.6,0,4.5,0.6,5.8,2c1.3,1.4,2.1,3.5,2.3,6.3l-3.8,1c-0.1-0.7-0.1-1.3-0.2-1.9c-0.1-0.5-0.2-1.1-0.4-1.6
			s-0.5-1-0.8-1.3s-0.7-0.6-1.2-0.8c-0.5-0.2-1.1-0.3-1.7-0.2c-2.4,0.2-3.6,1.3-3.6,3.5c0,0.9,0.2,1.7,0.5,2.4
			c0.3,0.6,0.9,1.3,1.6,2l5.4,4.8c1.4,1.3,2.5,2.6,3.4,4.1c0.8,1.5,1.3,3.1,1.3,4.9c0,2.4-0.7,4.2-2.1,5.6
			C166,191,164.1,191.7,161.8,191.7z"/>
		<path fill="#FFFFFF" stroke="#FFFFFF" stroke-miterlimit="10" d="M177,191.4v-32.2h8c2.8,0,4.8,0.8,6.1,2.3
			c1.3,1.5,1.9,3.7,1.9,6.6c0,2.6-0.7,4.7-2,6.1c-1.4,1.5-3.3,2.2-5.9,2.2h-3.5v15H177z M181.5,173.1h2c2,0,3.3-0.3,4.1-1
			c0.7-0.7,1.1-2,1.1-4c0-0.8,0-1.5-0.1-2c0-0.5-0.1-1-0.3-1.5c-0.1-0.5-0.3-0.8-0.5-1.1c-0.2-0.3-0.5-0.5-0.9-0.7
			c-0.4-0.2-0.9-0.3-1.4-0.4c-0.5-0.1-1.2-0.1-2-0.1h-2.1V173.1z"/>
		<path fill="#FFFFFF" stroke="#FFFFFF" stroke-miterlimit="10" d="M212,191.2c-1,0.4-2.2,0.5-3.6,0.5c-1.4,0-2.6-0.2-3.6-0.5
			s-1.8-0.8-2.5-1.5c-0.6-0.6-1.1-1.4-1.5-2.4c-0.4-1-0.6-2-0.8-3.1c-0.1-1.1-0.2-2.3-0.2-3.8v-21.3h4.3v21.6c0,0.9,0,1.7,0.1,2.4
			s0.2,1.3,0.3,2c0.2,0.7,0.4,1.2,0.7,1.6c0.3,0.4,0.7,0.8,1.3,1c0.5,0.3,1.2,0.4,1.9,0.4s1.4-0.1,1.9-0.4c0.5-0.3,0.9-0.6,1.2-1
			c0.3-0.4,0.5-1,0.7-1.6c0.2-0.7,0.3-1.3,0.3-2s0.1-1.5,0.1-2.4v-21.6h4.3v21.3c0,1.4-0.1,2.7-0.2,3.8c-0.1,1.1-0.4,2.1-0.8,3.1
			c-0.4,1-0.9,1.8-1.5,2.4C213.8,190.3,213,190.8,212,191.2z"/>
		<path fill="#FFFFFF" stroke="#FFFFFF" stroke-miterlimit="10" d="M225.7,191.4v-32.2h12.5v3.3h-8v10.6h6.5v3.2h-6.5v11.8h8.1v3.2
			H225.7z"/>
		<path fill="#FFFFFF" stroke="#FFFFFF" stroke-miterlimit="10" d="M253.5,191.7c-2.7,0-4.8-0.8-6.2-2.5s-2.2-4-2.4-6.9l4-1.1
			c0.3,4.6,1.8,6.9,4.6,6.9c1.2,0,2-0.3,2.6-1c0.6-0.6,0.9-1.6,0.9-2.8c0-0.7-0.1-1.3-0.2-1.9c-0.2-0.6-0.4-1.1-0.8-1.6
			s-0.7-0.9-1-1.3c-0.3-0.3-0.8-0.8-1.4-1.4l-5.4-4.8c-1.1-1-1.9-2-2.4-3.1c-0.5-1.1-0.7-2.4-0.7-4c0-2.3,0.7-4.1,2-5.4
			c1.4-1.3,3.2-2,5.5-2c2.6,0,4.5,0.6,5.8,2c1.3,1.4,2.1,3.5,2.3,6.3l-3.8,1c-0.1-0.7-0.1-1.3-0.2-1.9c-0.1-0.5-0.2-1.1-0.4-1.6
			s-0.5-1-0.8-1.3s-0.7-0.6-1.2-0.8c-0.5-0.2-1.1-0.3-1.7-0.2c-2.4,0.2-3.6,1.3-3.6,3.5c0,0.9,0.2,1.7,0.5,2.4
			c0.3,0.6,0.9,1.3,1.6,2l5.4,4.8c1.4,1.3,2.5,2.6,3.4,4.1c0.8,1.5,1.3,3.1,1.3,4.9c0,2.4-0.7,4.2-2.1,5.6
			C257.6,191,255.8,191.7,253.5,191.7z"/>
		<path fill="#FFFFFF" stroke="#FFFFFF" stroke-miterlimit="10" d="M272,191.4v-28.9h-5.9v-3.3h16v3.3h-5.7v28.9H272z"/>
		<path fill="#FFFFFF" stroke="#FFFFFF" stroke-miterlimit="10" d="M286.7,191.4l6.9-32.2h4.3l6.9,32.2h-4.3l-1.5-8.1h-6.5l-1.5,8.1
			H286.7z M293.1,180h5.4l-2.7-14.5L293.1,180z"/>
		<path fill="#FFFFFF" stroke="#FFFFFF" stroke-miterlimit="10" d="M319.6,191.7c-2.7,0-4.8-0.8-6.2-2.5s-2.2-4-2.4-6.9l4-1.1
			c0.3,4.6,1.8,6.9,4.6,6.9c1.2,0,2-0.3,2.6-1c0.6-0.6,0.9-1.6,0.9-2.8c0-0.7-0.1-1.3-0.2-1.9c-0.2-0.6-0.4-1.1-0.8-1.6
			s-0.7-0.9-1-1.3c-0.3-0.3-0.8-0.8-1.4-1.4l-5.4-4.8c-1.1-1-1.9-2-2.4-3.1c-0.5-1.1-0.7-2.4-0.7-4c0-2.3,0.7-4.1,2-5.4
			c1.4-1.3,3.2-2,5.5-2c2.6,0,4.5,0.6,5.8,2c1.3,1.4,2.1,3.5,2.3,6.3l-3.8,1c-0.1-0.7-0.1-1.3-0.2-1.9c-0.1-0.5-0.2-1.1-0.4-1.6
			s-0.5-1-0.8-1.3s-0.7-0.6-1.2-0.8c-0.5-0.2-1.1-0.3-1.7-0.2c-2.4,0.2-3.6,1.3-3.6,3.5c0,0.9,0.2,1.7,0.5,2.4
			c0.3,0.6,0.9,1.3,1.6,2l5.4,4.8c1.4,1.3,2.5,2.6,3.4,4.1c0.8,1.5,1.3,3.1,1.3,4.9c0,2.4-0.7,4.2-2.1,5.6
			C323.8,191,321.9,191.7,319.6,191.7z"/>
		<path fill="#FFFFFF" stroke="#FFFFFF" stroke-miterlimit="10" d="M347.9,191.4v-32.2h12.5v3.3h-8v10.6h6.5v3.2h-6.5v11.8h8.1v3.2
			H347.9z"/>
		<path fill="#FFFFFF" stroke="#FFFFFF" stroke-miterlimit="10" d="M368.1,191.4v-32.2h3l9.1,21.4v-21.4h3.7v32.2h-2.9l-9.3-22v22
			H368.1z"/>
		<path fill="#FFFFFF" stroke="#FFFFFF" stroke-miterlimit="10" d="M406.1,191.4v-32.2h12.4v3.2h-7.9v10.7h6.2v3.2h-6.2v15.1H406.1z
			"/>
		<path fill="#FFFFFF" stroke="#FFFFFF" stroke-miterlimit="10" d="M433.8,191.7c-1.6,0-3-0.2-4.1-0.7s-2.1-1.2-2.7-2.1
			c-0.7-0.9-1.2-2-1.5-3.3c-0.3-1.2-0.5-2.7-0.5-4.4v-12.2c0-3.4,0.7-5.9,2-7.6c1.4-1.7,3.6-2.6,6.8-2.6c3.1,0,5.4,0.9,6.7,2.6
			c1.4,1.7,2.1,4.3,2.1,7.6v12.2c0,3.4-0.7,5.9-2.1,7.7C439.2,190.8,436.9,191.7,433.8,191.7z M431.7,187.8c0.6,0.3,1.3,0.4,2.2,0.4
			c0.9,0,1.6-0.1,2.2-0.4c0.6-0.3,1-0.7,1.3-1.2c0.3-0.6,0.5-1.2,0.6-1.8c0.1-0.7,0.2-1.5,0.2-2.5v-14.1c0-1-0.1-1.8-0.2-2.4
			c-0.1-0.6-0.3-1.2-0.6-1.8s-0.7-0.9-1.3-1.2c-0.6-0.3-1.3-0.4-2.2-0.4c-0.9,0-1.6,0.1-2.2,0.4s-1,0.7-1.3,1.2s-0.5,1.1-0.6,1.8
			c-0.1,0.6-0.2,1.5-0.2,2.4v14.1c0,1,0.1,1.8,0.2,2.5c0.1,0.7,0.3,1.3,0.6,1.8C430.6,187.1,431.1,187.5,431.7,187.8z"/>
		<path fill="#FFFFFF" stroke="#FFFFFF" stroke-miterlimit="10" d="M451.1,191.4v-32.2h6.5c3.3,0,5.7,0.7,7.2,2
			c1.5,1.3,2.3,3.5,2.3,6.5c0,4.1-1.3,6.6-4,7.5l4.6,16.2h-4.4l-4.2-15.1h-3.5v15.1H451.1z M455.6,173h1.7c2,0,3.4-0.4,4.2-1.2
			c0.8-0.8,1.3-2.2,1.3-4.2c0-2-0.4-3.3-1.1-4.1s-2.1-1.2-4.1-1.2h-2V173z"/>
		<path fill="#FFFFFF" stroke="#FFFFFF" stroke-miterlimit="10" d="M475.6,191.4l0.6-32.2h4.4l5.7,26.1l5.7-26.1h4.4l0.6,32.2h-3.6
			L493,168l-5.5,23.4H485l-5.4-23.4l-0.3,23.4H475.6z"/>
		<path fill="#FFFFFF" stroke="#FFFFFF" stroke-miterlimit="10" d="M504.1,191.4l6.9-32.2h4.3l6.9,32.2H518l-1.5-8.1h-6.5l-1.5,8.1
			H504.1z M510.5,180h5.4l-2.7-14.5L510.5,180z"/>
		<path fill="#FFFFFF" stroke="#FFFFFF" stroke-miterlimit="10" d="M197.3,244.6v-32.2h4.5v13.9h8.3v-13.9h4.5v32.2h-4.5v-15.1h-8.3
			v15.1H197.3z"/>
		<path fill="#FFFFFF" stroke="#FFFFFF" stroke-miterlimit="10" d="M231.8,244.9c-1.6,0-3-0.2-4.1-0.7s-2.1-1.2-2.7-2.1
			c-0.7-0.9-1.2-2-1.5-3.3c-0.3-1.2-0.5-2.7-0.5-4.4v-12.2c0-3.4,0.7-5.9,2-7.6c1.4-1.7,3.6-2.6,6.8-2.6c3.1,0,5.4,0.9,6.7,2.6
			c1.4,1.7,2.1,4.3,2.1,7.6v12.2c0,3.4-0.7,5.9-2.1,7.7C237.1,244,234.9,244.9,231.8,244.9z M229.6,241c0.6,0.3,1.3,0.4,2.2,0.4
			c0.9,0,1.6-0.1,2.2-0.4c0.6-0.3,1-0.7,1.3-1.2c0.3-0.6,0.5-1.2,0.6-1.8c0.1-0.7,0.2-1.5,0.2-2.5v-14.1c0-1-0.1-1.8-0.2-2.4
			c-0.1-0.6-0.3-1.2-0.6-1.8s-0.7-0.9-1.3-1.2c-0.6-0.3-1.3-0.4-2.2-0.4c-0.9,0-1.6,0.1-2.2,0.4s-1,0.7-1.3,1.2s-0.5,1.1-0.6,1.8
			c-0.1,0.6-0.2,1.5-0.2,2.4v14.1c0,1,0.1,1.8,0.2,2.5c0.1,0.7,0.3,1.3,0.6,1.8C228.6,240.3,229,240.7,229.6,241z"/>
		<path fill="#FFFFFF" stroke="#FFFFFF" stroke-miterlimit="10" d="M249,244.6v-32.2h6.5c3.3,0,5.7,0.7,7.2,2
			c1.5,1.3,2.3,3.5,2.3,6.5c0,4.1-1.3,6.6-4,7.5l4.6,16.2h-4.4l-4.2-15.1h-3.5v15.1H249z M253.5,226.2h1.7c2,0,3.4-0.4,4.2-1.2
			c0.8-0.8,1.3-2.2,1.3-4.2c0-2-0.4-3.3-1.1-4.1s-2.1-1.2-4.1-1.2h-2V226.2z"/>
		<path fill="#FFFFFF" stroke="#FFFFFF" stroke-miterlimit="10" d="M273.8,244.6v-32.2h4.4v32.2H273.8z"/>
		<path fill="#FFFFFF" stroke="#FFFFFF" stroke-miterlimit="10" d="M286.5,244.6v-3.2l9.5-25.8H287v-3.2h13.7v1.9l-10,27h10v3.2
			H286.5z"/>
		<path fill="#FFFFFF" stroke="#FFFFFF" stroke-miterlimit="10" d="M316.2,244.9c-1.6,0-3-0.2-4.1-0.7s-2.1-1.2-2.7-2.1
			c-0.7-0.9-1.2-2-1.5-3.3c-0.3-1.2-0.5-2.7-0.5-4.4v-12.2c0-3.4,0.7-5.9,2-7.6c1.4-1.7,3.6-2.6,6.8-2.6c3.1,0,5.4,0.9,6.7,2.6
			c1.4,1.7,2.1,4.3,2.1,7.6v12.2c0,3.4-0.7,5.9-2.1,7.7C321.6,244,319.3,244.9,316.2,244.9z M314,241c0.6,0.3,1.3,0.4,2.2,0.4
			c0.9,0,1.6-0.1,2.2-0.4c0.6-0.3,1-0.7,1.3-1.2c0.3-0.6,0.5-1.2,0.6-1.8c0.1-0.7,0.2-1.5,0.2-2.5v-14.1c0-1-0.1-1.8-0.2-2.4
			c-0.1-0.6-0.3-1.2-0.6-1.8s-0.7-0.9-1.3-1.2c-0.6-0.3-1.3-0.4-2.2-0.4c-0.9,0-1.6,0.1-2.2,0.4s-1,0.7-1.3,1.2s-0.5,1.1-0.6,1.8
			c-0.1,0.6-0.2,1.5-0.2,2.4v14.1c0,1,0.1,1.8,0.2,2.5c0.1,0.7,0.3,1.3,0.6,1.8C313,240.3,313.4,240.7,314,241z"/>
		<path fill="#FFFFFF" stroke="#FFFFFF" stroke-miterlimit="10" d="M333.4,244.6v-32.2h3l9.1,21.4v-21.4h3.7v32.2h-2.9l-9.3-22v22
			H333.4z"/>
		<path fill="#FFFFFF" stroke="#FFFFFF" stroke-miterlimit="10" d="M361.7,244.6v-28.9h-5.9v-3.3h16v3.3h-5.7v28.9H361.7z"/>
		<path fill="#FFFFFF" stroke="#FFFFFF" stroke-miterlimit="10" d="M376.4,244.6l6.9-32.2h4.3l6.9,32.2h-4.3l-1.5-8.1h-6.5l-1.5,8.1
			H376.4z M382.8,233.2h5.4l-2.7-14.5L382.8,233.2z"/>
		<path fill="#FFFFFF" stroke="#FFFFFF" stroke-miterlimit="10" d="M401.7,244.6v-32.2h4.5v29h8.2v3.2H401.7z"/>
		<path fill="#FFFFFF" stroke="#FFFFFF" stroke-miterlimit="10" d="M59.7,297.8v-11.4l-7-20.8H57l4.9,15.5l4.9-15.5H71L64,286.4
			v11.4H59.7z"/>
		<path fill="#FFFFFF" stroke="#FFFFFF" stroke-miterlimit="10" d="M99.2,298.1c-1.6,0-3-0.2-4.1-0.7s-2.1-1.2-2.7-2.1
			c-0.7-0.9-1.2-2-1.5-3.3c-0.3-1.2-0.5-2.7-0.5-4.4v-12.2c0-3.4,0.7-5.9,2-7.6c1.4-1.7,3.6-2.6,6.8-2.6c3.1,0,5.4,0.9,6.7,2.6
			c1.4,1.7,2.1,4.3,2.1,7.6v12.2c0,3.4-0.7,5.9-2.1,7.7C104.6,297.2,102.3,298.1,99.2,298.1z M97,294.2c0.6,0.3,1.3,0.4,2.2,0.4
			c0.9,0,1.6-0.1,2.2-0.4c0.6-0.3,1-0.7,1.3-1.2c0.3-0.6,0.5-1.2,0.6-1.8c0.1-0.7,0.2-1.5,0.2-2.5v-14.1c0-1-0.1-1.8-0.2-2.4
			c-0.1-0.6-0.3-1.2-0.6-1.8s-0.7-0.9-1.3-1.2c-0.6-0.3-1.3-0.4-2.2-0.4c-0.9,0-1.6,0.1-2.2,0.4s-1,0.7-1.3,1.2s-0.5,1.1-0.6,1.8
			c-0.1,0.6-0.2,1.5-0.2,2.4v14.1c0,1,0.1,1.8,0.2,2.5c0.1,0.7,0.3,1.3,0.6,1.8C96,293.5,96.5,293.9,97,294.2z"/>
		<path fill="#FFFFFF" stroke="#FFFFFF" stroke-miterlimit="10" d="M116.4,297.8v-32.2h6.5c3.3,0,5.7,0.7,7.2,2
			c1.5,1.3,2.3,3.5,2.3,6.5c0,4.1-1.3,6.6-4,7.5l4.6,16.2h-4.4l-4.2-15.1h-3.5v15.1H116.4z M120.9,279.4h1.7c2,0,3.4-0.4,4.2-1.2
			c0.8-0.8,1.3-2.2,1.3-4.2c0-2-0.4-3.3-1.1-4.1s-2.1-1.2-4.1-1.2h-2V279.4z"/>
		<path fill="#FFFFFF" stroke="#FFFFFF" stroke-miterlimit="10" d="M141.1,297.8v-32.2h7c3.5,0,5.9,0.8,7.4,2.4s2.1,4.1,2.1,7.5
			v11.8c0,3.5-0.7,6.2-2.1,7.9c-1.4,1.7-3.8,2.6-7.1,2.6H141.1z M145.6,294.5h2.5c0.7,0,1.3-0.1,1.8-0.2c0.5-0.1,1-0.3,1.3-0.5
			c0.3-0.2,0.6-0.5,0.9-0.9c0.2-0.4,0.4-0.8,0.5-1.1s0.2-0.9,0.3-1.6c0.1-0.7,0.1-1.3,0.1-1.8c0-0.5,0-1.2,0-2.1v-10.5
			c0-0.8,0-1.4,0-2c0-0.5-0.1-1.1-0.2-1.6c-0.1-0.5-0.2-1-0.3-1.3s-0.4-0.7-0.6-1c-0.2-0.3-0.6-0.5-0.9-0.7
			c-0.4-0.2-0.8-0.3-1.3-0.4c-0.5-0.1-1.1-0.1-1.7-0.1h-2.4V294.5z"/>
		<path fill="#FFFFFF" stroke="#FFFFFF" stroke-miterlimit="10" d="M166,297.8v-32.2h12.5v3.3h-8v10.6h6.5v3.2h-6.5v11.8h8.1v3.2
			H166z"/>
		<path fill="#FFFFFF" stroke="#FFFFFF" stroke-miterlimit="10" d="M186.2,297.8v-32.2h3l9.1,21.4v-21.4h3.7v32.2h-2.9l-9.3-22v22
			H186.2z"/>
		<path fill="#FFFFFF" stroke="#FFFFFF" stroke-miterlimit="10" d="M209.4,297.8l6.9-32.2h4.3l6.9,32.2h-4.3l-1.5-8.1h-6.5l-1.5,8.1
			H209.4z M215.7,286.4h5.4l-2.7-14.5L215.7,286.4z"/>
		<path fill="#FFFFFF" stroke="#FFFFFF" stroke-miterlimit="10" d="M234.7,297.8v-32.2h7c3.5,0,5.9,0.8,7.4,2.4s2.1,4.1,2.1,7.5
			v11.8c0,3.5-0.7,6.2-2.1,7.9c-1.4,1.7-3.8,2.6-7.1,2.6H234.7z M239.2,294.5h2.5c0.7,0,1.3-0.1,1.8-0.2c0.5-0.1,1-0.3,1.3-0.5
			c0.3-0.2,0.6-0.5,0.9-0.9c0.2-0.4,0.4-0.8,0.5-1.1s0.2-0.9,0.3-1.6c0.1-0.7,0.1-1.3,0.1-1.8c0-0.5,0-1.2,0-2.1v-10.5
			c0-0.8,0-1.4,0-2c0-0.5-0.1-1.1-0.2-1.6c-0.1-0.5-0.2-1-0.3-1.3s-0.4-0.7-0.6-1c-0.2-0.3-0.6-0.5-0.9-0.7
			c-0.4-0.2-0.8-0.3-1.3-0.4c-0.5-0.1-1.1-0.1-1.7-0.1h-2.4V294.5z"/>
		<path fill="#FFFFFF" stroke="#FFFFFF" stroke-miterlimit="10" d="M257.4,297.8l6.9-32.2h4.3l6.9,32.2h-4.3l-1.5-8.1h-6.5l-1.5,8.1
			H257.4z M263.8,286.4h5.4l-2.7-14.5L263.8,286.4z"/>
		<path fill="#FFFFFF" stroke="#FFFFFF" stroke-miterlimit="10" d="M290.3,298.1c-2.7,0-4.8-0.8-6.2-2.5s-2.2-4-2.4-6.9l4-1.1
			c0.3,4.6,1.8,6.9,4.6,6.9c1.2,0,2-0.3,2.6-1c0.6-0.6,0.9-1.6,0.9-2.8c0-0.7-0.1-1.3-0.2-1.9c-0.2-0.6-0.4-1.1-0.8-1.6
			s-0.7-0.9-1-1.3c-0.3-0.3-0.8-0.8-1.4-1.4l-5.4-4.8c-1.1-1-1.9-2-2.4-3.1c-0.5-1.1-0.7-2.4-0.7-4c0-2.3,0.7-4.1,2-5.4
			c1.4-1.3,3.2-2,5.5-2c2.6,0,4.5,0.6,5.8,2c1.3,1.4,2.1,3.5,2.3,6.3l-3.8,1c-0.1-0.7-0.1-1.3-0.2-1.9c-0.1-0.5-0.2-1.1-0.4-1.6
			s-0.5-1-0.8-1.3s-0.7-0.6-1.2-0.8c-0.5-0.2-1.1-0.3-1.7-0.2c-2.4,0.2-3.6,1.3-3.6,3.5c0,0.9,0.2,1.7,0.5,2.4
			c0.3,0.6,0.9,1.3,1.6,2l5.4,4.8c1.4,1.3,2.5,2.6,3.4,4.1c0.8,1.5,1.3,3.1,1.3,4.9c0,2.4-0.7,4.2-2.1,5.6
			C294.5,297.4,292.6,298.1,290.3,298.1z"/>
		<path fill="#FFFFFF" stroke="#FFFFFF" stroke-miterlimit="10" d="M331.7,297.8v-32.2h12.5v3.3h-8v10.6h6.5v3.2h-6.5v11.8h8.1v3.2
			H331.7z"/>
		<path fill="#FFFFFF" stroke="#FFFFFF" stroke-miterlimit="10" d="M351.8,297.8v-32.2h3l9.1,21.4v-21.4h3.7v32.2h-2.9l-9.3-22v22
			H351.8z"/>
		<path fill="#FFFFFF" stroke="#FFFFFF" stroke-miterlimit="10" d="M389.9,297.8v-32.2h12.5v3.3h-8v10.6h6.5v3.2h-6.5v11.8h8.1v3.2
			H389.9z"/>
		<path fill="#FFFFFF" stroke="#FFFFFF" stroke-miterlimit="10" d="M410.1,297.8v-32.2h4.5v29h8.2v3.2H410.1z"/>
		<path fill="#FFFFFF" stroke="#FFFFFF" stroke-miterlimit="10" d="M446.2,297.8v-28.9h-5.9v-3.3h16v3.3h-5.7v28.9H446.2z"/>
		<path fill="#FFFFFF" stroke="#FFFFFF" stroke-miterlimit="10" d="M460.9,297.8l6.9-32.2h4.3l6.9,32.2h-4.3l-1.5-8.1h-6.5l-1.5,8.1
			H460.9z M467.3,286.4h5.4l-2.7-14.5L467.3,286.4z"/>
		<path fill="#FFFFFF" stroke="#FFFFFF" stroke-miterlimit="10" d="M486.2,297.8v-32.2h4.5v29h8.2v3.2H486.2z"/>
		<path fill="#FFFFFF" stroke="#FFFFFF" stroke-miterlimit="10" d="M506,297.8v-32.2h4.5v29h8.2v3.2H506z"/>
		<path fill="#FFFFFF" stroke="#FFFFFF" stroke-miterlimit="10" d="M533.7,298.1c-1.6,0-3-0.2-4.1-0.7s-2.1-1.2-2.7-2.1
			c-0.7-0.9-1.2-2-1.5-3.3c-0.3-1.2-0.5-2.7-0.5-4.4v-12.2c0-3.4,0.7-5.9,2-7.6c1.4-1.7,3.6-2.6,6.8-2.6c3.1,0,5.4,0.9,6.7,2.6
			c1.4,1.7,2.1,4.3,2.1,7.6v12.2c0,3.4-0.7,5.9-2.1,7.7C539.1,297.2,536.8,298.1,533.7,298.1z M531.5,294.2c0.6,0.3,1.3,0.4,2.2,0.4
			c0.9,0,1.6-0.1,2.2-0.4c0.6-0.3,1-0.7,1.3-1.2c0.3-0.6,0.5-1.2,0.6-1.8c0.1-0.7,0.2-1.5,0.2-2.5v-14.1c0-1-0.1-1.8-0.2-2.4
			c-0.1-0.6-0.3-1.2-0.6-1.8s-0.7-0.9-1.3-1.2c-0.6-0.3-1.3-0.4-2.2-0.4c-0.9,0-1.6,0.1-2.2,0.4s-1,0.7-1.3,1.2s-0.5,1.1-0.6,1.8
			c-0.1,0.6-0.2,1.5-0.2,2.4v14.1c0,1,0.1,1.8,0.2,2.5c0.1,0.7,0.3,1.3,0.6,1.8C530.5,293.5,530.9,293.9,531.5,294.2z"/>
	</g>
	<g>
		<g>
			<path fill="#59704B" d="M241.9,671.7c-6,4-12.1,8.1-18.9,8.8s-14.3-2.9-17-10.7c-4.7-13.4,6.9-26.3,16.7-34.6
				c69.1-59.2,113.1-161.1,114.7-265.4c3-3.3,8.2-1,10.2,3.3s2,9.6,1.8,14.6c-3.2,67.6-18.3,134.4-44.1,194.1
				c-16.8,39-31.1,64.2-63.3,90.2"/>
		</g>
		<g>
			<g>
				<path fill="#59704B" d="M240.7,669.6c-8.9,6-23.9,14.7-31.3,1.6c-6.4-11.4,4-23.8,11.8-31.2c7.5-7,15.3-13.6,22.4-21.1
					c7.2-7.6,14.1-15.6,20.5-23.9c26.3-34,45.5-73.2,58.2-114.2c6.7-21.6,11.5-43.9,14.4-66.3c1.5-11.5,2.5-23.1,3-34.7
					c0.1-1.5-0.6-7.4,0.2-8.3c2.9-2.9,6,3.4,6.4,5.3c1.7,6.3,0.5,13.8,0.1,20.2c-3.2,51.2-13.3,102.1-30.4,150.6
					c-8.6,24.4-18.5,48.8-31.4,71.2c-11.5,20-26.5,37-44.3,51.5c-2.5,2,1.1,5.5,3.5,3.5c17-13.9,31.6-30,43-48.9
					c12.4-20.6,21.9-43.3,30.4-65.8c19.7-52.5,31-108.1,34.4-164c0.5-8.6,3.1-24.5-7.4-28.7c-2.9-1.1-7.4-0.8-8.9,2.4
					c-0.9,2-0.3,5.5-0.4,7.6c-0.1,3.3-0.3,6.6-0.4,10c-1.5,25.6-5.5,51-11.9,75.8c-12.3,47.4-33.3,93-63.6,131.6
					c-8,10.2-16.6,19.8-25.9,28.8c-9,8.7-20.1,16.3-26.4,27.4c-5.3,9.5-5.8,22.4,3.8,29.4c10.9,8,23.4,0.9,33-5.6
					C245.8,672.1,243.3,667.8,240.7,669.6L240.7,669.6z"/>
			</g>
		</g>
	</g>
	<g>
		<g>
			<path fill="#59704B" d="M270.1,579.4c-0.6,6.8-3.1,14.2-9.9,15.1c-2.2,0.3-4.6-0.3-7-0.8c-6.9-1.5-13.7-3.1-20.6-4.6
				c-5.2-1.2-10.4-2.3-15.5-4.1c-8-2.8-15.7-7-22.7-12.5c-2.6-2.1-5.5-5.2-4.5-7.9c0.8-2.3,4.1-2.4,6.6-1.2c2.5,1.3,4.4,3.5,6.5,5.5
				c7.9,7.5,18.2,11.6,28.2,14.3c10,2.8,20.1,4.6,29.8,9c3.5,1.6,7.3,3.6,10.7,3"/>
		</g>
		<g>
			<g>
				<path fill="#59704B" d="M268.9,579.4c-0.3,3.4-1,7.3-3.1,10.2c-3.1,4.3-7.5,3.9-12.2,2.9c-7.7-1.6-15.4-3.4-23.2-5.2
					c-7.6-1.7-15.1-3.9-22.1-7.4c-3.4-1.7-6.6-3.7-9.7-5.8c-1.9-1.3-3.9-2.7-5.5-4.4c-0.5-0.7-1-1.4-1.6-2.1
					c1.3-3.6,3.2-4.4,5.5-2.3c2.8,1.8,4.9,4.6,7.5,6.7c2.4,1.9,4.9,3.7,7.6,5.2c5.4,3,11.3,5.2,17.2,6.9c7.5,2.2,15.2,3.7,22.6,6.1
					c6.2,2,12.9,6.9,19.7,6.3c1.6-0.1,1.6-2.6,0-2.5c-4.3,0.4-8.1-2-11.9-3.6c-3.4-1.5-7-2.6-10.6-3.7c-7.6-2.2-15.4-3.8-22.9-6.2
					c-7.4-2.4-14.6-5.7-20.5-10.8c-3.6-3.1-7.6-9-13.1-8.2c-3.2,0.4-4.7,3.2-3.7,6.2c1.8,5.6,9.8,9.7,14.4,12.3
					c13.5,7.8,29,10.3,44,13.7c5.7,1.3,12.8,4,18,0.1c4.3-3.3,5.6-9.2,6.1-14.3C271.5,577.8,269,577.8,268.9,579.4L268.9,579.4z"/>
			</g>
		</g>
	</g>
	<g>
		<g>
			<path fill="#59704B" d="M307.1,560.8c-2.9,6.2-4.4,13.9,1.1,18c1.8,1.3,4.1,2.1,6.4,2.8c6.7,2.1,13.4,4.2,20.1,6.3
				c5.1,1.6,10.2,3.2,15.5,4.2c8.3,1.6,17.2,1.8,25.9,0.5c3.3-0.5,7.4-1.8,7.9-4.6c0.4-2.4-2.3-4.2-5.1-4.3s-5.6,0.8-8.4,1.5
				c-10.6,2.6-21.5,0.9-31.6-1.6c-10-2.6-19.7-6-30.3-7c-3.9-0.4-8.1-0.5-10.8-2.8"/>
		</g>
		<g>
			<g>
				<path fill="#59704B" d="M306,560.1c-4.2,9.4-3.9,18.5,6.9,22.2c14.3,4.9,29.5,10.6,44.6,11.9c4.5,0.4,29.7,2.4,27.7-7.6
					c-0.8-4-5.9-4.5-9.1-4.1c-4.4,0.6-8.5,2.1-13,2.5c-4.3,0.3-8.7,0.1-13-0.6c-9.1-1.3-17.7-4.2-26.6-6.5c-4.2-1.1-8.4-2-12.6-2.5
					c-4.2-0.5-8.7-0.3-12.3-2.8c-1.3-0.9-2.6,1.2-1.3,2.2c4.9,3.5,11.9,2.8,17.5,3.8c7.2,1.3,14.2,3.5,21.2,5.4
					c7,1.9,14.1,3.4,21.4,3.6c3.3,0.1,6.5-0.1,9.8-0.6c2.5-0.4,10.7-3.6,12.8-2c5.6,4-1.1,5.6-2.9,6c-2.1,0.5-4.4,0.6-6.6,0.8
					c-3.7,0.3-7.5,0.3-11.2,0c-7.8-0.5-15.2-2.5-22.5-4.8c-7.3-2.2-14.6-4.5-21.8-6.8c-4.4-1.4-8.3-3-9-8.1
					c-0.5-3.7,0.8-7.5,2.3-10.8C308.8,559.9,306.7,558.7,306,560.1L306,560.1z"/>
			</g>
		</g>
	</g>
	<g>
		<g>
			<path fill="#59704B" d="M316.1,519.4c-0.6,6.8-3.1,14.2-9.9,15.1c-2.2,0.3-4.6-0.3-7-0.8c-6.9-1.5-13.7-3.1-20.6-4.6
				c-5.2-1.2-10.4-2.3-15.5-4.1c-8-2.8-15.7-7-22.7-12.5c-2.6-2.1-5.5-5.2-4.5-7.9c0.8-2.3,4.1-2.4,6.6-1.2c2.5,1.3,4.4,3.5,6.5,5.5
				c7.9,7.5,18.2,11.6,28.2,14.3s20.1,4.6,29.8,9c3.5,1.6,7.3,3.6,10.7,3"/>
		</g>
		<g>
			<g>
				<path fill="#59704B" d="M314.9,519.4c-0.3,3.4-1,7.3-3.1,10.2c-3.1,4.3-7.5,3.9-12.2,2.9c-7.7-1.6-15.4-3.4-23.2-5.2
					c-7.6-1.7-15.1-3.9-22.1-7.4c-3.4-1.7-6.6-3.7-9.7-5.8c-1.9-1.3-3.9-2.7-5.5-4.4c-0.5-0.7-1-1.4-1.6-2.1
					c1.3-3.6,3.2-4.4,5.5-2.3c2.8,1.8,4.9,4.6,7.5,6.7c2.4,1.9,4.9,3.7,7.6,5.2c5.4,3,11.3,5.2,17.2,6.9c7.5,2.2,15.2,3.7,22.6,6.1
					c6.2,2,12.9,6.9,19.7,6.3c1.6-0.1,1.6-2.6,0-2.5c-4.3,0.4-8.1-2-11.9-3.6c-3.4-1.5-7-2.6-10.6-3.7c-7.6-2.2-15.4-3.8-22.9-6.2
					c-7.4-2.4-14.6-5.7-20.5-10.8c-3.6-3.1-7.6-9-13.1-8.2c-3.2,0.4-4.7,3.2-3.7,6.2c1.8,5.6,9.8,9.7,14.4,12.3
					c13.5,7.8,29,10.3,44,13.7c5.7,1.3,12.8,4,18,0.1c4.3-3.3,5.6-9.2,6.1-14.3C317.5,517.8,315,517.8,314.9,519.4L314.9,519.4z"/>
			</g>
		</g>
	</g>
	<g>
		<g>
			<path fill="#59704B" d="M324.4,485.9c-1.6,6.6-1.4,14.5,4.8,17.4c2,0.9,4.5,1.2,6.9,1.4c7,0.7,14,1.3,21,2c5.3,0.5,10.6,1,16,0.9
				c8.5-0.2,17.1-1.8,25.4-4.9c3.1-1.1,6.8-3.3,6.7-6.1c-0.1-2.4-3.1-3.6-5.9-3.2c-2.8,0.4-5.3,2-7.9,3.2c-9.8,4.7-20.9,5.4-31.2,5
				s-20.5-1.8-31.1-0.6c-3.9,0.4-8.1,1.2-11.1-0.5"/>
		</g>
		<g>
			<g>
				<path fill="#59704B" d="M323.2,485.6c-2.1,9.8-0.1,18.6,10.9,20.2c7.9,1.1,15.9,1.5,23.8,2.3c7.8,0.7,15.5,1.2,23.3,0.2
					c4.5-0.6,29.4-4.1,24.8-13.3c-1.9-3.8-7.4-2.8-10.5-1.6c-7.7,3.2-14.3,6.1-22.8,6.8c-8.7,0.7-17.3-0.2-26-0.6
					c-4.9-0.3-9.7-0.4-14.6-0.1c-4.6,0.3-9.4,1.7-13.7-0.2c-1.5-0.6-2.1,1.8-0.7,2.4c6.1,2.6,13.8,0.1,20.3,0
					c7.7,0,15.4,0.8,23.1,1.1c6.5,0.2,13.1,0,19.5-1.3c3.3-0.7,6.6-1.7,9.7-3c2.6-1.1,7.7-4.8,10.5-4c2.8,2.4,3.1,4.1,0.9,5.1
					c-1,0.8-2.2,1.4-3.5,1.8c-1.7,0.7-3.6,1.2-5.4,1.8c-4.1,1.2-8.2,2.1-12.4,2.6c-7.2,0.9-14.4,0.4-21.5-0.2
					c-7.6-0.7-15.2-1.3-22.7-2.1c-5.1-0.6-9.4-1.7-10.8-7.2c-0.8-3.3-0.3-6.8,0.4-10C326,484.7,323.5,484,323.2,485.6L323.2,485.6z"
					/>
			</g>
		</g>
	</g>
	<g>
		<g>
			<path fill="#59704B" d="M343.1,431.4c-0.6,6.8-3.1,14.2-9.9,15.1c-2.2,0.3-4.6-0.3-7-0.8c-6.9-1.5-13.7-3.1-20.6-4.6
				c-5.2-1.2-10.4-2.3-15.5-4.1c-8-2.8-15.7-7-22.7-12.5c-2.6-2.1-5.5-5.2-4.5-7.9c0.8-2.3,4.1-2.4,6.6-1.2s4.4,3.5,6.5,5.5
				c7.9,7.5,18.2,11.6,28.2,14.3s20.1,4.6,29.8,9c3.5,1.6,7.3,3.6,10.7,3"/>
		</g>
		<g>
			<g>
				<path fill="#59704B" d="M341.9,431.4c-0.3,3.4-1,7.3-3.1,10.2c-3.1,4.3-7.5,3.9-12.2,2.9c-7.7-1.6-15.4-3.4-23.2-5.2
					c-7.6-1.7-15.1-3.9-22.1-7.4c-3.4-1.7-6.6-3.7-9.7-5.8c-1.9-1.3-3.9-2.7-5.5-4.4c-0.5-0.7-1-1.4-1.6-2.1
					c1.3-3.6,3.2-4.4,5.5-2.3c2.8,1.8,4.9,4.6,7.5,6.7c2.4,1.9,4.9,3.7,7.6,5.2c5.4,3,11.3,5.2,17.2,6.9c7.5,2.2,15.2,3.7,22.6,6.1
					c6.2,2,12.9,6.9,19.7,6.3c1.6-0.1,1.6-2.6,0-2.5c-4.3,0.4-8.1-2-11.9-3.6c-3.4-1.5-7-2.6-10.6-3.7c-7.6-2.2-15.4-3.8-22.9-6.2
					c-7.4-2.4-14.6-5.7-20.5-10.8c-3.6-3.1-7.6-9-13.1-8.2c-3.2,0.4-4.7,3.2-3.7,6.2c1.8,5.6,9.8,9.7,14.4,12.3
					c13.5,7.8,29,10.3,44,13.7c5.7,1.3,12.8,4,18,0.1c4.3-3.3,5.6-9.2,6.1-14.3C344.5,429.8,342,429.8,341.9,431.4L341.9,431.4z"/>
			</g>
		</g>
	</g>
	<g>
		<g>
			<path fill="#59704B" d="M343.4,392.9c-1.6,6.6-1.4,14.5,4.8,17.4c2,0.9,4.5,1.2,6.9,1.4c7,0.7,14,1.3,21,2c5.3,0.5,10.6,1,16,0.9
				c8.5-0.2,17.1-1.8,25.4-4.9c3.1-1.1,6.8-3.3,6.7-6.1c-0.1-2.4-3.1-3.6-5.9-3.2c-2.8,0.4-5.3,2-7.9,3.2c-9.8,4.7-20.9,5.4-31.2,5
				s-20.5-1.8-31.1-0.6c-3.9,0.4-8.1,1.2-11.1-0.5"/>
		</g>
		<g>
			<g>
				<path fill="#59704B" d="M342.2,392.6c-2.1,9.8-0.1,18.6,10.9,20.2c7.9,1.1,15.9,1.5,23.8,2.3c7.8,0.7,15.5,1.2,23.3,0.2
					c4.5-0.6,29.4-4.1,24.8-13.3c-1.9-3.8-7.4-2.8-10.5-1.6c-7.7,3.2-14.3,6.1-22.8,6.8c-8.7,0.7-17.3-0.2-26-0.6
					c-4.9-0.3-9.7-0.4-14.6-0.1c-4.6,0.3-9.4,1.7-13.7-0.2c-1.5-0.6-2.1,1.8-0.7,2.4c6.1,2.6,13.8,0.1,20.3,0
					c7.7,0,15.4,0.8,23.1,1.1c6.5,0.2,13.1,0,19.5-1.3c3.3-0.7,6.6-1.7,9.7-3c2.6-1.1,7.7-4.8,10.5-4c2.8,2.4,3.1,4.1,0.9,5.1
					c-1,0.8-2.2,1.4-3.5,1.8c-1.7,0.7-3.6,1.2-5.4,1.8c-4.1,1.2-8.2,2.1-12.4,2.6c-7.2,0.9-14.4,0.4-21.5-0.2
					c-7.6-0.7-15.2-1.3-22.7-2.1c-5.1-0.6-9.4-1.7-10.8-7.2c-0.8-3.3-0.3-6.8,0.4-10C345,391.7,342.5,391,342.2,392.6L342.2,392.6z"
					/>
			</g>
		</g>
	</g>
</g>
</svg>
