<?xml version="1.0" encoding="utf-8"?>
<!-- Generator: Adobe Illustrator 18.0.0, SVG Export Plug-In . SVG Version: 6.00 Build 0)  -->
<!DOCTYPE svg PUBLIC "-//W3C//DTD SVG 1.1//EN" "http://www.w3.org/Graphics/SVG/1.1/DTD/svg11.dtd">
<svg version="1.1" id="Capa_1" xmlns="http://www.w3.org/2000/svg" xmlns:xlink="http://www.w3.org/1999/xlink" x="0px" y="0px"
	 viewBox="0 0 500 500" enable-background="new 0 0 500 500" xml:space="preserve">
<g>
	<g>
		<g>
			<path fill="#FFFFFF" stroke="#FFFFFF" stroke-miterlimit="10" d="M201.5,74.8V61.9h-10.8v12.9h-2.5V46.6h2.5v12.9h10.8V46.6h2.5
				v28.2H201.5z"/>
			<path fill="#FFFFFF" stroke="#FFFFFF" stroke-miterlimit="10" d="M239.5,71c-0.4,0.8-0.9,1.6-1.5,2.2s-1.4,1.1-2.2,1.5
				c-0.8,0.4-1.7,0.5-2.7,0.5h-2c-1,0-1.9-0.2-2.7-0.5c-0.8-0.4-1.6-0.9-2.2-1.5s-1.1-1.4-1.5-2.2c-0.4-0.8-0.5-1.7-0.5-2.7V53.2
				c0-1,0.2-1.9,0.5-2.7c0.4-0.8,0.9-1.6,1.5-2.2s1.4-1.1,2.2-1.5c0.8-0.4,1.7-0.5,2.7-0.5h2c1,0,1.9,0.2,2.7,0.5
				c0.8,0.4,1.6,0.9,2.2,1.5s1.1,1.4,1.5,2.2s0.5,1.7,0.5,2.7v15.1C240,69.2,239.9,70.1,239.5,71z M237.5,53.2
				c0-0.6-0.1-1.2-0.4-1.8c-0.2-0.5-0.6-1-1-1.4c-0.4-0.4-0.9-0.7-1.4-1c-0.5-0.2-1.1-0.4-1.8-0.4h-1.8c-0.6,0-1.2,0.1-1.8,0.4
				c-0.5,0.2-1,0.6-1.4,1c-0.4,0.4-0.7,0.9-1,1.4c-0.2,0.5-0.4,1.1-0.4,1.8v15.1c0,0.6,0.1,1.2,0.4,1.8c0.2,0.5,0.6,1,1,1.4
				c0.4,0.4,0.9,0.7,1.4,1c0.5,0.2,1.1,0.4,1.8,0.4h1.8c0.6,0,1.2-0.1,1.8-0.4c0.5-0.2,1-0.6,1.4-1s0.7-0.9,1-1.4
				c0.2-0.5,0.4-1.1,0.4-1.8V53.2z"/>
			<path fill="#FFFFFF" stroke="#FFFFFF" stroke-miterlimit="10" d="M272.3,71c-0.4,0.8-0.9,1.6-1.5,2.2s-1.4,1.1-2.2,1.5
				s-1.7,0.5-2.7,0.5h-0.8c-1,0-1.9-0.2-2.7-0.5c-0.8-0.4-1.6-0.9-2.2-1.5s-1.1-1.4-1.5-2.2c-0.4-0.8-0.5-1.7-0.5-2.7v-1.1l2.5-0.4
				v1.5c0,0.6,0.1,1.2,0.4,1.8c0.2,0.5,0.6,1,1,1.4c0.4,0.4,0.9,0.7,1.4,1c0.5,0.2,1.1,0.4,1.8,0.4h0.6c0.6,0,1.2-0.1,1.7-0.4
				c0.6-0.2,1-0.6,1.4-1s0.7-0.9,1-1.4c0.2-0.5,0.4-1.1,0.4-1.8V46.6h2.5v21.7C272.8,69.2,272.6,70.1,272.3,71z"/>
			<path fill="#FFFFFF" stroke="#FFFFFF" stroke-miterlimit="10" d="M303.1,68.3h-8.9l-1.8,6.6h-2.6l8.3-28.2h1.3l8.3,28.2H305
				L303.1,68.3z M294.9,65.8h7.6l-3.7-13l-0.1-1l-0.1,1L294.9,65.8z"/>
		</g>
		<g>
			<path fill="#FFFFFF" stroke="#FFFFFF" stroke-miterlimit="10" d="M56,155.9l15.8-3c0,6.7,0.6,14.7,5.9,14.7
				c3.7,0,4.6-2.6,4.6-5.9c0-6.4-4.6-12.1-9.1-16.1l-4.8-4.1c-6.1-5.1-12.3-10.8-12.3-21.8c0-12.6,8.8-20.2,21.7-20.2
				c10.9,0,19.6,8.9,19.6,19.8c0,0.3,0,0.6,0,1.8l-16.1,2.2c0-1,0.1-1.9,0.1-3.1c0-3.6-0.8-8.8-4.9-8.8c-3.7,0-5.1,3.5-5.1,6.7
				c0,5.5,2.9,8.9,6.6,12c2,1.7,3.9,3.2,5.7,4.9c7.9,7,13.8,14.3,13.8,26.1c0,11-9.1,18.4-19.8,18.4C62.9,179.5,56.6,167.9,56,155.9
				z"/>
			<path fill="#FFFFFF" stroke="#FFFFFF" stroke-miterlimit="10" d="M112.7,177.9V101h32.1v10.7h-16.5v20.9H140v10.9h-11.7v23.7
				h16.5v10.7H112.7z"/>
			<path fill="#FFFFFF" stroke="#FFFFFF" stroke-miterlimit="10" d="M159.4,177.9V101h11.2l16.9,40.2V101h12.9v76.9h-10.8
				l-16.8-42.7v42.7H159.4z"/>
			<path fill="#FFFFFF" stroke="#FFFFFF" stroke-miterlimit="10" d="M217.3,152.2v-25.5c0-15.2,5.2-27.2,22.3-27.2
				c15.9,0,21.6,10.8,21.6,25.6v6.6h-15.3v-7.1c0-5.7-0.4-13.2-6.3-13.2c-5.9,0-6.7,6.6-6.7,11.4v33.2c0,4.8,0.9,11.3,6.7,11.3
				c5.7,0,6.4-7.2,6.4-13.2v-7.9h15.2l0,6.5c-0.2,13.8-4.8,26.6-21.5,26.6C222.5,179.4,217.3,167,217.3,152.2z"/>
			<path fill="#FFFFFF" stroke="#FFFFFF" stroke-miterlimit="10" d="M277.2,177.9V101h15.5v76.9H277.2z"/>
			<path fill="#FFFFFF" stroke="#FFFFFF" stroke-miterlimit="10" d="M310.6,177.9V101h15.5v66.2h15.3v10.7H310.6z"/>
			<path fill="#FFFFFF" stroke="#FFFFFF" stroke-miterlimit="10" d="M355.7,177.9V101h15.5v66.2h15.3v10.7H355.7z"/>
			<path fill="#FFFFFF" stroke="#FFFFFF" stroke-miterlimit="10" d="M397,177.9l16.6-76.9h13.8l16.6,76.9h-15.3l-3.2-16.4h-10
				l-3,16.4H397z M416.5,151.9h7.9l-3.9-28.5L416.5,151.9z"/>
		</g>
	</g>
	<g>
		<g>
			<g>
				<path fill="#59704B" d="M201,409.4c11.3,7.1,11.3,4.6,19.8,8.9c8.5,4.2,18.2,5.1,27.7,5.9c22.6,1.8,46.2,3.3,67.2-5.3
					c29.8-12.1,48.4-41.8,62-71s24.7-60.6,47.2-83.6c-21.4-9.5-46-9.9-68.9-5c-22.9,4.9-44.4,14.9-65.1,25.7
					c-32.9,17.2-65.5,37.4-87.5,67.3c-6.4,8.6-11.9,18.4-12.3,29.1C190.6,392.1,184.6,394.9,201,409.4"/>
			</g>
		</g>
		<g>
			<g>
				<path fill="#59704B" d="M179.5,432.6c4.5-7.1,9-14.2,13.6-21.3c3.7-5.8,9.1-14.6,17.3-12.7c0-3.2,0-6.4,0-9.6
					c-26.6,9-44.9,36.7-41.7,64.8c0.7,6.3,10.7,6.4,10,0c-2.7-23.6,11.7-47.4,34.4-55.1c4.4-1.5,5.1-8.5,0-9.6
					c-9.3-2.2-17.4,2.4-23.1,9.5c-7.3,8.9-12.9,19.5-19,29.1C167.4,433.1,176.1,438.1,179.5,432.6L179.5,432.6z"/>
			</g>
		</g>
	</g>
</g>
</svg>
