<?xml version="1.0" encoding="utf-8"?>
<!-- Generator: Adobe Illustrator 18.0.0, SVG Export Plug-In . SVG Version: 6.00 Build 0)  -->
<!DOCTYPE svg PUBLIC "-//W3C//DTD SVG 1.1//EN" "http://www.w3.org/Graphics/SVG/1.1/DTD/svg11.dtd" [
	<!ENTITY ns_flows "http://ns.adobe.com/Flows/1.0/">
	<!ENTITY ns_extend "http://ns.adobe.com/Extensibility/1.0/">
	<!ENTITY ns_ai "http://ns.adobe.com/AdobeIllustrator/10.0/">
	<!ENTITY ns_graphs "http://ns.adobe.com/Graphs/1.0/">
]>
<svg version="1.1" id="Capa_1" xmlns:x="&ns_extend;" xmlns:i="&ns_ai;" xmlns:graph="&ns_graphs;"
	 xmlns="http://www.w3.org/2000/svg" xmlns:xlink="http://www.w3.org/1999/xlink" xmlns:a="http://ns.adobe.com/AdobeSVGViewerExtensions/3.0/"
	 x="0px" y="0px" viewBox="0 0 595.3 841.9" enable-background="new 0 0 595.3 841.9" xml:space="preserve">
<g>
	<g>
		<path fill="#FFFFFF" stroke="#FFFFFF" stroke-miterlimit="10" d="M190.7,240v-60.2H204v24.3h9.3v-24.3h13.3V240h-13.3v-26.4H204
			V240H190.7z"/>
		<path fill="#FFFFFF" stroke="#FFFFFF" stroke-miterlimit="10" d="M260.5,240.9c-3.3,0-6.2-0.4-8.6-1.3s-4.2-2.2-5.6-4
			c-1.4-1.8-2.4-3.8-3-6.2s-0.9-5.2-0.9-8.4v-22.2c0-3.2,0.3-6,0.9-8.4c0.6-2.4,1.6-4.4,3-6.2c1.4-1.7,3.3-3.1,5.6-3.9
			s5.2-1.3,8.6-1.3c6.5,0,11.2,1.7,14,5c2.8,3.3,4.2,8.3,4.2,14.8V221c0,6.5-1.4,11.5-4.2,14.8C271.6,239.2,267,240.9,260.5,240.9z
			 M258.4,231c0.6,0.3,1.3,0.4,2.1,0.4s1.5-0.1,2.1-0.4c0.6-0.3,1-0.6,1.3-1.1c0.3-0.4,0.6-1,0.7-1.7s0.3-1.3,0.3-1.9
			s0.1-1.3,0.1-2.1v-28.9c0-0.8,0-1.5-0.1-2.1c0-0.6-0.2-1.2-0.3-1.9c-0.2-0.7-0.4-1.2-0.7-1.6c-0.3-0.4-0.8-0.8-1.3-1
			c-0.6-0.3-1.3-0.4-2.1-0.4s-1.5,0.1-2.1,0.4s-1,0.6-1.3,1c-0.3,0.4-0.6,0.9-0.7,1.6c-0.2,0.7-0.3,1.3-0.3,1.9
			c0,0.6-0.1,1.3-0.1,2.1v28.9c0,0.8,0,1.6,0.1,2.1s0.1,1.2,0.3,1.9c0.2,0.7,0.4,1.2,0.7,1.7C257.4,230.4,257.8,230.7,258.4,231z"/>
		<path fill="#FFFFFF" stroke="#FFFFFF" stroke-miterlimit="10" d="M290.6,241.5v-9.3c0.2,0,0.3,0,0.5,0c2.6,0,4.3-0.4,5.3-1.1
			c1-0.8,1.5-2.5,1.5-5v-46.3h13.3v46.8c0,2.6-0.3,4.8-0.7,6.5c-0.4,1.8-1.2,3.3-2.3,4.6c-1.1,1.3-2.5,2.2-4.3,2.9s-4.1,0.9-6.8,0.9
			H290.6z"/>
		<path fill="#FFFFFF" stroke="#FFFFFF" stroke-miterlimit="10" d="M324.7,240l11.4-60.2h15l11.3,60.2h-12.3l-2.1-12.8h-8.8l-2,12.8
			H324.7z M340.5,219.3h6.4l-3.2-23.3L340.5,219.3z"/>
		<path fill="#FFFFFF" stroke="#FFFFFF" stroke-miterlimit="10" d="M391.9,240.9c-5.7,0-10-1.5-12.8-4.6c-2.8-3-4.3-7.9-4.5-14.6
			L386,220c0,3.8,0.5,6.5,1.4,8.2c0.9,1.7,2.1,2.6,3.9,2.6c2.3,0,3.4-1.5,3.4-4.4c0-1.6-0.3-3.1-0.9-4.5c-0.6-1.4-1.3-2.5-2.1-3.5
			c-0.8-1-2-2.1-3.6-3.4l-5.3-4.6c-1.3-1.1-2.3-2.1-3.2-3.1c-0.8-0.9-1.7-2-2.5-3.3s-1.4-2.7-1.8-4.2s-0.6-3.3-0.6-5.1
			c0-5,1.5-8.9,4.5-11.6c3-2.7,7.1-4.1,12.4-4.1c1.8,0,3.4,0.2,4.9,0.6c1.5,0.4,2.7,0.9,3.7,1.5c1,0.6,1.9,1.4,2.7,2.4
			c0.8,1,1.4,1.9,1.8,2.9c0.4,1,0.8,2,1.1,3.2c0.3,1.2,0.5,2.3,0.6,3.3s0.2,2.1,0.2,3.2l-11.5,1.5c0-1-0.1-1.9-0.1-2.5
			c0-0.7-0.1-1.4-0.2-2.1c-0.1-0.8-0.2-1.4-0.4-1.8c-0.2-0.5-0.4-0.9-0.7-1.3s-0.6-0.7-1.1-0.9c-0.4-0.2-0.9-0.2-1.5-0.2
			c-1.2,0-2.1,0.5-2.7,1.5c-0.6,1-0.9,2-0.9,3.2c0,1.1,0.1,2.2,0.4,3.1s0.8,1.8,1.5,2.7c0.7,0.9,1.3,1.5,1.7,2
			c0.4,0.4,1.2,1.1,2.2,2l5.1,4.5c1.4,1.3,2.6,2.5,3.6,3.6c1,1.2,2,2.5,2.9,3.9c0.9,1.5,1.6,3.1,2.1,4.8c0.5,1.8,0.7,3.6,0.7,5.6
			c0,4.4-1.5,8-4.4,10.8S396.6,240.9,391.9,240.9z"/>
		<path fill="#FFFFFF" stroke="#FFFFFF" stroke-miterlimit="10" d="M87,329.3l11.4-60.2h15l11.3,60.2h-12.3l-2.1-12.8h-8.8l-2,12.8
			H87z M102.8,308.6h6.4l-3.2-23.3L102.8,308.6z"/>
		<path fill="#FFFFFF" stroke="#FFFFFF" stroke-miterlimit="10" d="M138.3,329.3v-60.2h13.3v51.2h13.8v9H138.3z"/>
		<path fill="#FFFFFF" stroke="#FFFFFF" stroke-miterlimit="10" d="M175.7,329.3l11.4-60.2h15l11.3,60.2h-12.3l-2.1-12.8h-8.8
			l-2,12.8H175.7z M191.6,308.6h6.4l-3.2-23.3L191.6,308.6z"/>
		<path fill="#FFFFFF" stroke="#FFFFFF" stroke-miterlimit="10" d="M227,329.3v-60.2h16.4c2.5,0,4.8,0.1,6.8,0.4
			c2,0.3,3.8,0.8,5.5,1.5c1.7,0.7,3.1,1.7,4.2,2.9c1.1,1.2,2,2.7,2.6,4.6c0.6,1.9,0.9,4,0.9,6.5c0,3.9-0.5,7.1-1.6,9.5
			s-3,4.3-5.8,5.6l8.3,29.2h-13.8l-6.6-27h-3.7v27H227z M240.3,294.7h3.4c2.7,0,4.6-0.7,5.7-2.1c1.1-1.4,1.7-3.5,1.7-6.4
			c0-2.8-0.5-4.9-1.5-6.2c-1-1.3-2.7-2-5.2-2h-4.1V294.7z"/>
		<path fill="#FFFFFF" stroke="#FFFFFF" stroke-miterlimit="10" d="M294.6,330.2c-3.1,0-5.7-0.5-7.8-1.5c-2.2-1-3.9-2.4-5.1-4.3
			c-1.3-1.9-2.2-4.1-2.7-6.5s-0.9-5.3-0.9-8.6v-20c0-2.7,0.2-5,0.6-7.2s1-4,1.9-5.8c0.9-1.8,2-3.2,3.4-4.4c1.4-1.2,3.1-2.1,5.2-2.7
			c2.1-0.6,4.4-1,7.2-1c2.6,0,4.9,0.3,6.9,0.8c2,0.6,3.7,1.3,5,2.3c1.3,1,2.4,2.2,3.3,3.7c0.8,1.5,1.5,3.1,1.8,4.9
			c0.4,1.8,0.5,3.7,0.5,5.9v3.8h-13v-4.8c0-0.9,0-1.7-0.1-2.3c0-0.6-0.1-1.2-0.3-1.9c-0.2-0.7-0.4-1.2-0.7-1.6s-0.7-0.7-1.3-1
			c-0.6-0.3-1.3-0.4-2.1-0.4c-0.8,0-1.6,0.2-2.2,0.5c-0.6,0.3-1,0.7-1.4,1.1c-0.3,0.4-0.6,1-0.7,1.8s-0.3,1.4-0.3,2.1
			c0,0.6-0.1,1.4-0.1,2.3V313c0,2.4,0.4,4.3,1.1,5.7c0.7,1.4,2,2.1,3.9,2.1c3.5,0,5.2-2.7,5.2-8v-6.8h-5.5v-8h17.5v31.3h-8.8l-0.8-5
			C302.6,328.2,299.3,330.2,294.6,330.2z"/>
		<path fill="#FFFFFF" stroke="#FFFFFF" stroke-miterlimit="10" d="M326.7,329.3l11.4-60.2h15l11.3,60.2h-12.3l-2.1-12.8h-8.8
			l-2,12.8H326.7z M342.5,308.6h6.4l-3.2-23.3L342.5,308.6z"/>
		<path fill="#FFFFFF" stroke="#FFFFFF" stroke-miterlimit="10" d="M378,329.3v-60.2h15.1c3.9,0,7.2,0.4,9.8,1.1
			c2.6,0.7,4.7,1.9,6.2,3.5s2.6,3.6,3.3,5.9c0.6,2.3,0.9,5.2,0.9,8.7v21.7c0,3.5-0.3,6.4-1,8.8c-0.6,2.4-1.7,4.4-3.3,6
			c-1.5,1.6-3.6,2.8-6.2,3.5s-5.8,1.1-9.7,1.1H378z M391.3,320.1h2c1,0,1.9-0.1,2.6-0.2c0.7-0.1,1.3-0.4,1.8-0.7
			c0.5-0.3,0.8-0.7,1.1-1.1c0.3-0.4,0.5-0.9,0.6-1.6c0.1-0.7,0.2-1.4,0.3-2c0-0.6,0.1-1.5,0.1-2.6v-25.9c0-1.5-0.1-2.7-0.2-3.5
			c-0.1-0.8-0.4-1.6-0.8-2.3s-1.1-1.1-1.9-1.4c-0.9-0.3-2-0.4-3.5-0.4h-2V320.1z"/>
		<path fill="#FFFFFF" stroke="#FFFFFF" stroke-miterlimit="10" d="M425.2,329.3l11.4-60.2h15l11.3,60.2h-12.3l-2.1-12.8h-8.8
			l-2,12.8H425.2z M441,308.6h6.4l-3.2-23.3L441,308.6z"/>
		<path fill="#FFFFFF" stroke="#FFFFFF" stroke-miterlimit="10" d="M492.5,330.1c-5.7,0-10-1.5-12.8-4.6c-2.8-3-4.3-7.9-4.5-14.6
			l11.4-1.7c0,3.8,0.5,6.5,1.4,8.2c0.9,1.7,2.1,2.6,3.9,2.6c2.3,0,3.4-1.5,3.4-4.4c0-1.6-0.3-3.1-0.9-4.5c-0.6-1.4-1.3-2.5-2.1-3.5
			c-0.8-1-2-2.1-3.6-3.4l-5.3-4.6c-1.3-1.1-2.3-2.1-3.2-3.1c-0.8-0.9-1.7-2-2.5-3.3s-1.4-2.7-1.8-4.2s-0.6-3.3-0.6-5.1
			c0-5,1.5-8.9,4.5-11.6c3-2.7,7.1-4.1,12.4-4.1c1.8,0,3.4,0.2,4.9,0.6c1.5,0.4,2.7,0.9,3.7,1.5c1,0.6,1.9,1.4,2.7,2.4
			c0.8,1,1.4,1.9,1.8,2.9c0.4,1,0.8,2,1.1,3.2c0.3,1.2,0.5,2.3,0.6,3.3s0.2,2.1,0.2,3.2l-11.5,1.5c0-1-0.1-1.9-0.1-2.5
			c0-0.7-0.1-1.4-0.2-2.1c-0.1-0.8-0.2-1.4-0.4-1.8c-0.2-0.5-0.4-0.9-0.7-1.3s-0.6-0.7-1.1-0.9c-0.4-0.2-0.9-0.2-1.5-0.2
			c-1.2,0-2.1,0.5-2.7,1.5c-0.6,1-0.9,2-0.9,3.2c0,1.1,0.1,2.2,0.4,3.1s0.8,1.8,1.5,2.7c0.7,0.9,1.3,1.5,1.7,2
			c0.4,0.4,1.2,1.1,2.2,2l5.1,4.5c1.4,1.3,2.6,2.5,3.6,3.6c1,1.2,2,2.5,2.9,3.9c0.9,1.5,1.6,3.1,2.1,4.8c0.5,1.8,0.7,3.6,0.7,5.6
			c0,4.4-1.5,8-4.4,10.8S497.2,330.1,492.5,330.1z"/>
	</g>
	<g>
		<g>
			<g>
				<path fill="#59704B" d="M182.5,632.7c1.5,1,3.1,1.8,4.7,2.5c21.2-3.2,41.9-9.2,61.7-17.7c24.8-10.6,48-24.8,69.3-41.2
					c20.6-15.8,39.1-33,53.7-54.6c20.7-30.8,35-67,57.7-96.6c0-2-0.1-4.1-0.2-6.2c-0.2-2.7-0.5-5.5-2.1-7.8
					c-3.7-4.9-11.4-4.2-17.6-2.9c-45.4,9.5-90.5,22.3-130.5,44.8c-39.9,22.5-74.5,55.5-91.1,96.7c-8.9,22-12.2,30-15.6,53.3l-0.2,0
					C166.3,613,172.4,626.3,182.5,632.7z"/>
			</g>
			<g>
				<g>
					<path fill="#59704B" d="M182.2,633.2c5.4,3.2,7.1,2.4,13.4,1.2c6.6-1.2,13.2-2.7,19.7-4.5c12.2-3.3,24.1-7.6,35.7-12.6
						c23.1-10.1,44.7-23.2,64.8-38.4c18.5-13.9,36.1-29.4,50.2-47.9c15-19.5,25.8-41.8,37.6-63.2c5.8-10.7,11.9-21.2,18.6-31.3
						c1.6-2.4,3.2-4.7,4.9-7.1c1-1.3,2.6-2.9,3.2-4.5c0.7-1.9-0.1-5.7-0.4-7.8c-0.3-2.3-0.7-4.6-2.1-6.4c-5.1-6.9-16-3.7-22.8-2.2
						c-12.8,2.8-25.6,5.8-38.3,9.2c-46,12.6-91.4,31.2-127.9,62.6c-18.4,15.8-34.4,34.7-45.5,56.4c-5.4,10.5-9.7,21.7-13.7,32.9
						c-1,3-8.7,32.8-7.3,32.8c-0.2,0-0.4,0.1-0.5,0.3C165.6,613.9,172.4,626.7,182.2,633.2c0.7,0.4,1.3-0.6,0.6-1.1
						c-4.8-3.2-8.7-7.7-10.8-13.1c-0.8-2.2-1.4-4.5-1.4-6.8c0-0.9,0.6-8.6,1.9-8.6c0.2,0,0.6-0.2,0.6-0.5
						c5.9-39.8,23.3-78.1,51.1-107.3c31.3-32.8,72.3-54.1,114.9-68.5c22.5-7.6,45.7-13.4,68.9-18.3c5.3-1.1,12.3-2.8,17,0.7
						c3.5,2.6,3.6,6.6,3.8,10.5c0.3,4.3-1.4,6.4-3.9,9.8c-6.4,8.9-12.1,18.3-17.5,27.8c-11.1,19.6-21,40-33.3,59
						c-12.4,19.2-28.1,35.6-45.7,50.2c-20.6,17-42.9,32-66.9,43.7c-12.5,6.1-25.5,11.4-38.8,15.5c-6.1,1.9-12.4,3.6-18.6,5
						c-6.9,1.6-15,4.6-21.4,0.8C182.1,631.7,181.5,632.8,182.2,633.2z"/>
				</g>
			</g>
		</g>
		<g>
			<g>
				<path fill="#59704B" d="M221.3,587.3c-28.6,7.8-54.6,24.8-73.2,47.9c-1.3,1.6-2.6,3.3-3.1,5.4c-1.8,7.2,6.6,12.8,8.6,20
					c4.3-13.3,8.7-26.9,16.9-38.2c5.5-7.5,12.5-13.8,19.9-19.5c9.3-7.2,19.1-13.7,29.4-19.4"/>
			</g>
			<g>
				<g>
					<path fill="#59704B" d="M220.6,584.9c-20.6,5.7-39.8,15.9-56.1,29.8c-4,3.4-7.9,7.1-11.5,11c-3.4,3.6-7.6,7.6-9.8,12.2
						c-4.3,9.1,5.2,15.5,7.8,23.4c0.8,2.4,4.1,2.4,4.8,0c5.2-16.3,10.9-32.5,23.1-45.1c12-12.4,27-22.2,42-30.5
						c2.8-1.6,0.3-5.9-2.5-4.3c-15.7,8.8-31.8,19.3-44.2,32.6c-12.1,13-17.8,29.4-23.1,46c1.6,0,3.2,0,4.8,0
						c-1.2-3.8-3.4-6.8-5.6-10c-3.3-5-3.9-8.5,0-13.5c5.9-7.4,12.8-14.2,20.2-20.2c15.1-12.3,32.7-21.3,51.4-26.5
						C225,588.8,223.7,584,220.6,584.9L220.6,584.9z"/>
				</g>
			</g>
		</g>
		<g opacity="0.4">
			<g>
				<path fill="#8B9D80" d="M183.9,604c24.1-30.6,52.2-57.7,81.9-82.8c31.7-26.8,64.7-52,98.6-75.9c17.6-12.4,36.5-23.5,58.1-26.7
					c1.6-0.2,0.9-2.6-0.7-2.4c-18.6,2.8-35.4,11.3-50.9,21.6c-17.2,11.4-33.7,23.9-50.1,36.4c-32.4,24.6-64.3,50.1-93.5,78.4
					c-16.1,15.6-31.3,32.2-45.2,49.8C181.2,603.4,182.9,605.2,183.9,604L183.9,604z"/>
			</g>
		</g>
	</g>
</g>
</svg>
