<?xml version="1.0" encoding="utf-8"?>
<!-- Generator: Adobe Illustrator 18.0.0, SVG Export Plug-In . SVG Version: 6.00 Build 0)  -->
<!DOCTYPE svg PUBLIC "-//W3C//DTD SVG 1.1//EN" "http://www.w3.org/Graphics/SVG/1.1/DTD/svg11.dtd" [
	<!ENTITY ns_flows "http://ns.adobe.com/Flows/1.0/">
	<!ENTITY ns_extend "http://ns.adobe.com/Extensibility/1.0/">
	<!ENTITY ns_ai "http://ns.adobe.com/AdobeIllustrator/10.0/">
	<!ENTITY ns_graphs "http://ns.adobe.com/Graphs/1.0/">
]>
<svg version="1.1" id="Capa_1" xmlns:x="&ns_extend;" xmlns:i="&ns_ai;" xmlns:graph="&ns_graphs;"
	 xmlns="http://www.w3.org/2000/svg" xmlns:xlink="http://www.w3.org/1999/xlink" xmlns:a="http://ns.adobe.com/AdobeSVGViewerExtensions/3.0/"
	 x="0px" y="0px" viewBox="0 0 595.3 841.9" enable-background="new 0 0 595.3 841.9" xml:space="preserve">
<g>
	<g>
		<path fill="#FFFFFF" stroke="#FFFFFF" stroke-miterlimit="10" d="M186.6,223.4v-60.2h13.3v24.3h9.3v-24.3h13.3v60.2h-13.3V197
			h-9.3v26.4H186.6z"/>
		<path fill="#FFFFFF" stroke="#FFFFFF" stroke-miterlimit="10" d="M256.4,224.2c-3.3,0-6.2-0.4-8.6-1.3s-4.2-2.2-5.6-4
			c-1.4-1.8-2.4-3.8-3-6.2c-0.6-2.4-0.9-5.2-0.9-8.4v-22.2c0-3.2,0.3-6,0.9-8.4c0.6-2.4,1.6-4.4,3-6.2c1.4-1.7,3.3-3.1,5.6-3.9
			s5.2-1.3,8.6-1.3c6.5,0,11.2,1.7,14,5c2.8,3.3,4.2,8.3,4.2,14.8v22.2c0,6.5-1.4,11.5-4.2,14.8
			C267.6,222.5,262.9,224.2,256.4,224.2z M254.3,214.4c0.6,0.3,1.3,0.4,2.1,0.4s1.5-0.1,2.1-0.4c0.6-0.3,1-0.6,1.3-1.1
			c0.3-0.4,0.6-1,0.7-1.7s0.3-1.3,0.3-1.9c0-0.6,0.1-1.3,0.1-2.1v-28.9c0-0.8,0-1.5-0.1-2.1c0-0.6-0.2-1.2-0.3-1.9
			c-0.2-0.7-0.4-1.2-0.7-1.6c-0.3-0.4-0.8-0.8-1.3-1c-0.6-0.3-1.3-0.4-2.1-0.4s-1.5,0.1-2.1,0.4c-0.6,0.3-1,0.6-1.3,1
			c-0.3,0.4-0.6,0.9-0.7,1.6c-0.2,0.7-0.3,1.3-0.3,1.9c0,0.6-0.1,1.3-0.1,2.1v28.9c0,0.8,0,1.6,0.1,2.1c0,0.6,0.1,1.2,0.3,1.9
			c0.2,0.7,0.4,1.2,0.7,1.7C253.3,213.7,253.8,214.1,254.3,214.4z"/>
		<path fill="#FFFFFF" stroke="#FFFFFF" stroke-miterlimit="10" d="M286.6,224.8v-9.3c0.2,0,0.3,0,0.5,0c2.6,0,4.3-0.4,5.3-1.1
			c1-0.8,1.5-2.5,1.5-5v-46.3h13.3V210c0,2.6-0.3,4.8-0.7,6.5c-0.4,1.8-1.2,3.3-2.3,4.6c-1.1,1.3-2.5,2.2-4.3,2.9
			c-1.8,0.6-4.1,0.9-6.8,0.9H286.6z"/>
		<path fill="#FFFFFF" stroke="#FFFFFF" stroke-miterlimit="10" d="M320.6,223.4l11.4-60.2h15l11.3,60.2h-12.3l-2.1-12.8h-8.8
			l-2,12.8H320.6z M336.4,202.6h6.4l-3.2-23.3L336.4,202.6z"/>
		<path fill="#FFFFFF" stroke="#FFFFFF" stroke-miterlimit="10" d="M387.9,224.2c-5.7,0-10-1.5-12.8-4.6c-2.8-3-4.3-7.9-4.5-14.6
			l11.4-1.7c0,3.8,0.5,6.5,1.4,8.2c0.9,1.7,2.1,2.6,3.9,2.6c2.3,0,3.4-1.5,3.4-4.4c0-1.6-0.3-3.1-0.9-4.5c-0.6-1.4-1.3-2.5-2.1-3.5
			c-0.8-1-2-2.1-3.6-3.4l-5.3-4.6c-1.3-1.1-2.3-2.1-3.2-3.1c-0.8-0.9-1.7-2-2.5-3.3c-0.8-1.3-1.4-2.7-1.8-4.2
			c-0.4-1.5-0.6-3.3-0.6-5.1c0-5,1.5-8.9,4.5-11.6c3-2.7,7.1-4.1,12.4-4.1c1.8,0,3.4,0.2,4.9,0.6c1.5,0.4,2.7,0.9,3.7,1.5
			c1,0.6,1.9,1.4,2.7,2.4c0.8,1,1.4,1.9,1.8,2.9c0.4,1,0.8,2,1.1,3.2c0.3,1.2,0.5,2.3,0.6,3.3c0.1,1,0.2,2.1,0.2,3.2l-11.5,1.5
			c0-1-0.1-1.9-0.1-2.5c0-0.7-0.1-1.4-0.2-2.1c-0.1-0.8-0.2-1.4-0.4-1.8c-0.2-0.5-0.4-0.9-0.7-1.3s-0.6-0.7-1.1-0.9
			c-0.4-0.2-0.9-0.2-1.5-0.2c-1.2,0-2.1,0.5-2.7,1.5c-0.6,1-0.9,2-0.9,3.2c0,1.1,0.1,2.2,0.4,3.1s0.8,1.8,1.5,2.7
			c0.7,0.9,1.3,1.5,1.7,2c0.4,0.4,1.2,1.1,2.2,2l5.1,4.5c1.4,1.3,2.6,2.5,3.6,3.6c1,1.2,2,2.5,2.9,3.9c0.9,1.5,1.6,3.1,2.1,4.8
			c0.5,1.8,0.7,3.6,0.7,5.6c0,4.4-1.5,8-4.4,10.8C396.4,222.8,392.6,224.2,387.9,224.2z"/>
		<path fill="#FFFFFF" stroke="#FFFFFF" stroke-miterlimit="10" d="M132.4,312.7l1-60.2h14.2l6.7,35.2l7.2-35.2h13.8l1,60.2h-9.5
			l-1-40l-7.1,40h-8.3l-7.4-40.3l-0.9,40.3H132.4z"/>
		<path fill="#FFFFFF" stroke="#FFFFFF" stroke-miterlimit="10" d="M192.3,312.7v-60.2h27.1v9.1h-13.8v14.9h10.5v9.3h-10.5v18h13.9
			v9H192.3z"/>
		<path fill="#FFFFFF" stroke="#FFFFFF" stroke-miterlimit="10" d="M233,312.7v-60.2h9.4l12.4,28.9v-28.9h11v60.2h-9l-12.4-31.2
			v31.2H233z"/>
		<path fill="#FFFFFF" stroke="#FFFFFF" stroke-miterlimit="10" d="M299.4,313.5c-3.3,0-6.2-0.4-8.6-1.3s-4.2-2.2-5.6-4
			c-1.4-1.8-2.4-3.8-3-6.2c-0.6-2.4-0.9-5.2-0.9-8.4v-22.2c0-3.2,0.3-6,0.9-8.4c0.6-2.4,1.6-4.4,3-6.2c1.4-1.7,3.3-3.1,5.6-3.9
			s5.2-1.3,8.6-1.3c6.5,0,11.2,1.7,14,5c2.8,3.3,4.2,8.3,4.2,14.8v22.2c0,6.5-1.4,11.5-4.2,14.8
			C310.6,311.8,305.9,313.5,299.4,313.5z M297.3,303.7c0.6,0.3,1.3,0.4,2.1,0.4s1.5-0.1,2.1-0.4c0.6-0.3,1-0.6,1.3-1.1
			c0.3-0.4,0.6-1,0.7-1.7s0.3-1.3,0.3-1.9c0-0.6,0.1-1.3,0.1-2.1V268c0-0.8,0-1.5-0.1-2.1c0-0.6-0.2-1.2-0.3-1.9
			c-0.2-0.7-0.4-1.2-0.7-1.6c-0.3-0.4-0.8-0.8-1.3-1c-0.6-0.3-1.3-0.4-2.1-0.4s-1.5,0.1-2.1,0.4c-0.6,0.3-1,0.6-1.3,1
			c-0.3,0.4-0.6,0.9-0.7,1.6c-0.2,0.7-0.3,1.3-0.3,1.9c0,0.6-0.1,1.3-0.1,2.1v28.9c0,0.8,0,1.6,0.1,2.1c0,0.6,0.1,1.2,0.3,1.9
			c0.2,0.7,0.4,1.2,0.7,1.7C296.3,303,296.8,303.4,297.3,303.7z"/>
		<path fill="#FFFFFF" stroke="#FFFFFF" stroke-miterlimit="10" d="M333.1,312.7v-60.2h16.4c2.5,0,4.8,0.1,6.8,0.4
			c2,0.3,3.8,0.8,5.5,1.5c1.7,0.7,3.1,1.7,4.3,2.9c1.1,1.2,2,2.7,2.6,4.6s0.9,4,0.9,6.5c0,3.9-0.5,7.1-1.6,9.5
			c-1.1,2.4-3,4.3-5.8,5.6l8.3,29.2h-13.8l-6.6-27h-3.7v27H333.1z M346.4,278h3.4c2.7,0,4.6-0.7,5.7-2.1c1.1-1.4,1.7-3.5,1.7-6.4
			c0-2.8-0.5-4.9-1.5-6.2c-1-1.3-2.7-2-5.2-2h-4.1V278z"/>
		<path fill="#FFFFFF" stroke="#FFFFFF" stroke-miterlimit="10" d="M385,312.7v-60.2H412v9.1h-13.8v14.9h10.5v9.3h-10.5v18h13.9v9
			H385z"/>
		<path fill="#FFFFFF" stroke="#FFFFFF" stroke-miterlimit="10" d="M441.7,313.5c-5.7,0-10-1.5-12.8-4.6c-2.8-3-4.3-7.9-4.5-14.6
			l11.4-1.7c0,3.8,0.5,6.5,1.4,8.2c0.9,1.7,2.1,2.6,3.9,2.6c2.3,0,3.4-1.5,3.4-4.4c0-1.6-0.3-3.1-0.9-4.5c-0.6-1.4-1.3-2.5-2.1-3.5
			c-0.8-1-2-2.1-3.6-3.4l-5.3-4.6c-1.3-1.1-2.3-2.1-3.2-3.1c-0.8-0.9-1.7-2-2.5-3.3c-0.8-1.3-1.4-2.7-1.8-4.2
			c-0.4-1.5-0.6-3.3-0.6-5.1c0-5,1.5-8.9,4.5-11.6c3-2.7,7.1-4.1,12.4-4.1c1.8,0,3.4,0.2,4.9,0.6c1.5,0.4,2.7,0.9,3.7,1.5
			c1,0.6,1.9,1.4,2.7,2.4c0.8,1,1.4,1.9,1.8,2.9c0.4,1,0.8,2,1.1,3.2c0.3,1.2,0.5,2.3,0.6,3.3c0.1,1,0.2,2.1,0.2,3.2l-11.5,1.5
			c0-1-0.1-1.9-0.1-2.5c0-0.7-0.1-1.4-0.2-2.1c-0.1-0.8-0.2-1.4-0.4-1.8c-0.2-0.5-0.4-0.9-0.7-1.3s-0.6-0.7-1.1-0.9
			c-0.4-0.2-0.9-0.2-1.5-0.2c-1.2,0-2.1,0.5-2.7,1.5c-0.6,1-0.9,2-0.9,3.2c0,1.1,0.1,2.2,0.4,3.1s0.8,1.8,1.5,2.7
			c0.7,0.9,1.3,1.5,1.7,2c0.4,0.4,1.2,1.1,2.2,2l5.1,4.5c1.4,1.3,2.6,2.5,3.6,3.6c1,1.2,2,2.5,2.9,3.9c0.9,1.5,1.6,3.1,2.1,4.8
			c0.5,1.8,0.7,3.6,0.7,5.6c0,4.4-1.5,8-4.4,10.8C450.2,312.1,446.4,313.5,441.7,313.5z"/>
	</g>
	<g>
		<g opacity="0.51"  a:adobe-blending-mode="multiply">
			<ellipse fill="#7CAA9A"  a:adobe-blending-mode="normal" cx="363.9" cy="582.4" rx="99" ry="97.2"/>
		</g>
		<g>
			<g>
				<path fill="#FFFFFF" stroke="#FFFFFF" stroke-miterlimit="10" d="M382.6,605.6c-0.6,1.5-1.5,2.7-2.6,3.8
					c-1.1,1.1-2.4,1.9-3.9,2.6c-1.5,0.6-3.1,0.9-4.7,0.9h-2.1c-1.7,0-3.3-0.3-4.8-0.9c-1.5-0.6-2.8-1.5-3.9-2.6s-2-2.4-2.6-3.8
					c-0.6-1.4-1-3-1-4.7v-4c0-2.1,0.5-3.9,1.5-5.7c1-1.7,2.3-3.1,3.9-4.2c-1.6-1.1-2.9-2.5-3.9-4.2c-1-1.7-1.5-3.6-1.5-5.7v-2.4
					c0-1.7,0.3-3.2,1-4.7c0.6-1.4,1.5-2.7,2.6-3.8c1.1-1.1,2.4-1.9,3.9-2.6c1.5-0.6,3.1-0.9,4.8-0.9h2.1c1.7,0,3.3,0.3,4.7,0.9
					c1.5,0.6,2.8,1.5,3.9,2.6c1.1,1.1,2,2.4,2.6,3.8c0.6,1.5,1,3,1,4.7v2.4c0,2.1-0.5,4-1.5,5.7s-2.2,3.1-3.8,4.2
					c1.6,1.1,2.9,2.5,3.8,4.2c1,1.7,1.5,3.6,1.5,5.7v4C383.6,602.6,383.3,604.1,382.6,605.6z M379.1,574.8c0-1.1-0.2-2.1-0.6-3
					c-0.4-0.9-1-1.8-1.7-2.5c-0.7-0.7-1.6-1.3-2.5-1.7c-1-0.4-2-0.6-3.1-0.6h-1.7c-1.1,0-2.1,0.2-3.1,0.6c-1,0.4-1.8,1-2.5,1.7
					s-1.3,1.5-1.7,2.5c-0.4,0.9-0.6,2-0.6,3v2.4c0,1.1,0.2,2.1,0.6,3c0.4,0.9,1,1.8,1.7,2.5s1.6,1.3,2.5,1.7c1,0.4,2,0.6,3.1,0.6
					h1.7c1.1,0,2.1-0.2,3.1-0.6c1-0.4,1.8-1,2.5-1.7c0.7-0.7,1.3-1.5,1.7-2.5c0.4-0.9,0.6-2,0.6-3V574.8z M379.1,596.9
					c0-1.1-0.2-2.1-0.6-3c-0.4-0.9-1-1.8-1.7-2.5c-0.7-0.7-1.6-1.3-2.5-1.7c-1-0.4-2-0.6-3.1-0.6h-1.7c-1.1,0-2.1,0.2-3.1,0.6
					c-1,0.4-1.8,1-2.5,1.7s-1.3,1.5-1.7,2.5c-0.4,0.9-0.6,2-0.6,3v4c0,1.1,0.2,2.1,0.6,3c0.4,0.9,1,1.8,1.7,2.5
					c0.7,0.7,1.6,1.3,2.5,1.7c1,0.4,2,0.6,3.1,0.6h1.7c1.1,0,2.1-0.2,3.1-0.6c1-0.4,1.8-1,2.5-1.7c0.7-0.7,1.3-1.5,1.7-2.5
					c0.4-0.9,0.6-2,0.6-3V596.9z"/>
			</g>
			<g>
				<path fill="#FFFFFF" stroke="#FFFFFF" stroke-miterlimit="10" d="M399.5,610.5c-0.2,0.5-0.5,0.8-0.8,1.2
					c-0.3,0.3-0.7,0.6-1.2,0.8c-0.5,0.2-0.9,0.3-1.5,0.3h-1.1c-0.5,0-1-0.1-1.5-0.3c-0.5-0.2-0.9-0.5-1.2-0.8
					c-0.3-0.3-0.6-0.7-0.8-1.2c-0.2-0.4-0.3-0.9-0.3-1.4v-8.1c0-0.5,0.1-1,0.3-1.4c0.2-0.4,0.5-0.8,0.8-1.2c0.3-0.3,0.7-0.6,1.2-0.8
					c0.5-0.2,1-0.3,1.5-0.3h1.1c0.5,0,1,0.1,1.5,0.3c0.5,0.2,0.9,0.5,1.2,0.8c0.3,0.3,0.6,0.7,0.8,1.2c0.2,0.5,0.3,0.9,0.3,1.4v0.6
					l-1.4,0.2v-0.8c0-0.3-0.1-0.7-0.2-0.9c-0.1-0.3-0.3-0.5-0.5-0.8c-0.2-0.2-0.5-0.4-0.8-0.5c-0.3-0.1-0.6-0.2-1-0.2h-1
					c-0.3,0-0.7,0.1-1,0.2c-0.3,0.1-0.6,0.3-0.8,0.5c-0.2,0.2-0.4,0.5-0.5,0.8c-0.1,0.3-0.2,0.6-0.2,0.9v8.1c0,0.3,0.1,0.7,0.2,0.9
					c0.1,0.3,0.3,0.5,0.5,0.8c0.2,0.2,0.5,0.4,0.8,0.5c0.3,0.1,0.6,0.2,1,0.2h1c0.3,0,0.7-0.1,1-0.2c0.3-0.1,0.6-0.3,0.8-0.5
					c0.2-0.2,0.4-0.5,0.5-0.8c0.1-0.3,0.2-0.6,0.2-0.9v-0.8l1.4,0.2v0.6C399.8,609.5,399.7,610,399.5,610.5z"/>
				<path fill="#FFFFFF" stroke="#FFFFFF" stroke-miterlimit="10" d="M416.7,612.5v-10.4l-0.1,0.6l-3.6,9.7h-0.7l-3.6-9.7l-0.1-0.6
					v10.4h-1.4v-15.1h0.7l4.7,12.4l0,0.6l0-0.6l4.7-12.4h0.7v15.1H416.7z"/>
			</g>
		</g>
		<g>
			<g>
				<g>
					<line fill="#FFFFFF" x1="311.8" y1="592.4" x2="350.9" y2="592.4"/>
					<rect x="311.8" y="588.9" fill="#FFFFFF" width="39.1" height="7"/>
				</g>
			</g>
		</g>
	</g>
	<g>
		<g>
			<g>
				<g>
					<path fill="#59704B" d="M179.6,561.7c9.8,6,9.7,3.9,17,7.5c7.3,3.6,15.7,4.3,23.8,5c19.5,1.6,39.7,2.8,57.8-4.5
						c25.7-10.2,41.7-35.3,53.3-59.9c11.7-24.6,21.2-51.1,40.6-70.5c-18.4-8-39.6-8.3-59.3-4.2s-38.2,12.6-56,21.7
						c-28.3,14.5-56.4,31.5-75.3,56.7c-5.5,7.3-10.2,15.6-10.6,24.6C170.7,547.2,165.5,549.6,179.6,561.7"/>
				</g>
			</g>
			<g>
				<g>
					<path fill="#59704B" d="M161.7,581.8c3.9-6,7.8-12,11.7-18c3.1-4.7,7.4-11.7,14.1-10.3c0-3.2,0-6.4,0-9.6
						c-22.9,7.7-39.2,31-36.4,55.4c0.7,6.3,10.7,6.4,10,0c-2.2-19.8,10.1-39.4,29.1-45.7c4.4-1.5,5.1-8.6,0-9.6
						c-8.5-1.8-15.8,2.2-21,8.7c-6,7.5-10.8,16.1-16,24.2C149.6,582.1,158.3,587.2,161.7,581.8L161.7,581.8z"/>
				</g>
			</g>
		</g>
		<g>
			<g>
				<path fill="#59704B" d="M170.5,555.8c1.5-4.2-2.2-9.3-6.8-9.2c6.6-1.3,9-11.2,3.8-15.3c4.4,1.6,10-0.7,11.7-5
					c1.8-4.3-0.5-9.8-4.9-11.6c3.1,2.1,7.9,1.3,10.1-1.7s1.5-7.7-1.6-10c3.2,1.3,7.2,1,9.7-1.3c2.5-2.3,3-6.7,0.5-9.1
					c2.7,2.8,7.7,3.1,10.6,0.6c2.9-2.5,3.3-7.4,0.8-10.4c2.8,2.4,7.5,2.3,10.2-0.2c2.7-2.5,3.2-7,1-9.9c1.6,3.9,7.2,5.2,10.8,2.9
					c3.6-2.3,4.8-7.2,3.4-11.2c1.4,3.7,6.8,5.2,10.1,3c3.4-2.2,4.2-7.2,2.1-10.6c1.9,3,6.1,4.2,9.3,2.8c3.2-1.4,5.1-5.4,4.1-8.7
					c1.1,3.7,6.3,5,9.8,3.1c3.4-1.9,5.1-5.9,5.4-9.8c0.1,4.3,6.4,6.2,9.9,3.7c3.5-2.5,4.2-7.5,3.2-11.6c2,2.8,6,4,9.3,2.8
					c3.2-1.3,5.3-5,4.7-8.3c1,4.2,5.7,7.2,10,6.3c4.3-0.9,7.5-5.4,6.7-9.7c0,3.9,3.7,7.4,7.6,7.4c4,0,7.6-3.5,7.6-7.4
					c0.2,3.9,4,7.4,8,7.1c4-0.3,7.3-4.4,6.5-8.3c-0.8,4.2,2.5,8.6,6.8,9.2c4.3,0.6,8.7-2.7,9.2-7c-1.1,3.5,1.1,7.6,4.6,8.8
					c3.5,1.2,7.8-0.7,9.2-4.1"/>
			</g>
			<g>
				<g>
					<path fill="#59704B" d="M171.8,556.2c1.4-5.5-2.4-10.3-8-10.8c0.1,0.8,0.2,1.6,0.3,2.5c7.5-2.1,10.1-12.1,4.3-17.4
						c-0.4,0.7-0.8,1.4-1.2,2.1c12.2,3.5,19.3-12.9,7.8-18.9c-1.4-0.7-2.7,1.4-1.3,2.2c9.2,5,18.2-6.4,10.1-13.6
						c-0.4,0.7-0.8,1.4-1.2,2.1c4.1,1.3,9.2,1.1,11.9-2.7c2.3-3.1,1.9-6.9-0.4-9.8c-0.6,0.6-1.2,1.2-1.8,1.8c8,7,19.7-2.2,13.4-11.3
						c-0.6,0.6-1.1,1.1-1.7,1.7c8.2,5.6,18.1-3.1,12.9-11.8c-0.8-1.4-2.9-0.2-2.2,1.3c2.2,4.1,7.2,5.8,11.5,3.9
						c5-2.3,6.4-8.2,5-13.1c-0.8,0.3-1.5,0.6-2.3,1c2.1,4.2,7.7,6.1,11.8,3.4c4.2-2.7,4.7-8.2,2.5-12.3c-0.7,0.5-1.3,1-2,1.5
						c5.9,7.6,17.3,2.3,15.5-7.1c-0.8,0.2-1.6,0.4-2.4,0.7c1.6,3.9,5.5,5.7,9.6,4.6c5.3-1.4,7.4-6.8,8-11.6
						c-0.8,0.1-1.6,0.2-2.5,0.3c0.7,4.7,6.3,6.9,10.5,5.1c5.3-2.3,6-8.8,5-13.7c-0.7,0.4-1.4,0.8-2.1,1.2c5.8,6.9,16.9,2.7,16.1-6.5
						c-0.8,0.1-1.6,0.2-2.5,0.3c3.7,11.3,20.3,8.4,19.2-3.7c-0.8,0-1.7,0-2.5,0c1.2,11.1,16.6,11.2,17.8,0c-0.8,0.1-1.6,0.2-2.5,0.3
						c1.6,11.1,18,9.8,17-1.5c-0.2-1.6-2.4-1.6-2.5,0c-1.1,11.9,16,14.2,18.4,2.6c-0.8-0.2-1.6-0.4-2.4-0.7
						c-2,10.1,11.3,14.8,16.1,5.7c0.8-1.4-1.4-2.7-2.2-1.3c-3.4,6.4-13.1,3.7-11.5-3.8c0.3-1.6-2.1-2.2-2.4-0.7
						c-1.8,8.7-14.3,7-13.5-2c-0.8,0-1.7,0-2.5,0c0.8,8.8-10.9,8.8-12.1,0.8c-0.2-1.5-2.3-0.9-2.5,0.3c-0.8,7.7-11.9,8-12.8,0
						c-0.2-1.6-2.6-1.6-2.5,0c0.8,8.9-11.5,11.8-14.3,3c-0.4-1.3-2.6-1.1-2.5,0.3c0.6,7.2-7.4,10-11.8,4.7c-0.9-1-2.3,0.1-2.1,1.2
						c0.6,3.1,0.6,7.2-1.9,9.6c-2.8,2.6-8.2,1.8-8.8-2.3c-0.2-1.5-2.3-0.9-2.5,0.3c-0.4,3-1.3,6-3.8,7.9c-2.7,2-7.3,2.4-8.9-1.6
						c-0.6-1.5-2.7-1-2.4,0.7c1.4,7.1-7.2,10-11.3,4.7c-0.9-1.2-2.6,0.3-2,1.5c3.7,7.2-6.2,14-10.1,6.4c-0.6-1.3-2.7-0.4-2.3,1
						c0.9,3.4,0.5,7.7-2.9,9.8c-3.2,1.9-7.4,0.7-9.1-2.5c-0.7,0.4-1.4,0.8-2.2,1.3c3.8,6.4-3.4,12.5-9.4,8.4c-1-0.7-2.4,0.7-1.7,1.7
						c4.6,6.6-3.5,13.5-9.5,8.3c-1.2-1.1-2.8,0.5-1.8,1.8c0.4,1.5,0.7,3.1,1.1,4.6c-0.7,2.4-2.1,3.7-4.3,3.9
						c-2.1,0.7-3.7,0.5-5.8-0.2c-1.2-0.4-2.1,1.3-1.2,2.1c5.7,5.1-0.3,13.4-7.1,9.7c-0.4,0.7-0.8,1.4-1.3,2.2
						c9,4.7,3.6,17.1-5.9,14.3c-1.2-0.3-2.1,1.2-1.2,2.1c4.4,4,2.5,11.6-3.2,13.2c-1.4,0.4-1,2.3,0.3,2.5c4,0.3,6.5,3.8,5.6,7.6
						C169,557.1,171.4,557.7,171.8,556.2L171.8,556.2z"/>
				</g>
			</g>
		</g>
		<g>
			<g>
				<path fill="#59704B" d="M177.7,556.2c2.4-0.7,5.3,1.2,5.6,3.6s-2,4.9-4.6,4.8c3.1-1.9,7-3.2,10.4-1.9s5.6,5.9,3.2,8.6
					c0.4-2.8,4.5-3.7,6.9-2.2s3.5,4.4,4.5,7c0.9-3.1,4.5-5.2,7.7-4.4c3.2,0.8,5.3,4.3,4.6,7.5c0.4-3.9,4.3-7.2,8.3-7
					s7.5,3.8,7.6,7.7c0.7-3.7,4.6-6.6,8.5-6.1c3.8,0.4,7,4.1,6.8,7.9c2.6-6.9,13.8-8.3,18.1-2.3c-1.2-3.4,1.8-7.2,5.4-8
					S278,572,281,574c0.2-3.3,2.5-6.3,5.6-7.4s6.9-0.3,9.2,2c-2.2-2.5-0.7-6.7,2.1-8.4c2.8-1.8,6.4-1.7,9.8-1.5c-4.1-1-5-7-2.2-10.1
					c2.8-3.1,7.5-3.8,11.7-3.3c-2-3.2-1.8-7.5,0.3-10.6c2.1-3.1,6.1-4.8,9.9-4.3c-4-1.9-3.7-8.1-0.5-11.1c3.2-3,8-3.6,12.4-3.9
					c-4,1.4-7.2-4.7-5-8.2c2.2-3.6,6.9-4.7,11.1-5.4c-4.6,1.2-8.1-5.4-5.8-9.5c2.3-4.1,7.6-5.6,12.4-6.1c-4.4-1-6.1-7-3.9-10.9
					s6.9-5.8,11.4-6.3c-4.5-0.4-5.5-7.3-2.2-10.5c3.3-3.1,8.3-3.4,12.9-3.5c-2.7,1-5.8-1.6-5.9-4.4s1.9-5.4,4.5-6.7
					c2.5-1.3,5.5-1.7,8.3-2.1c-0.7-2.8-1.4-5.7-2.1-8.5"/>
			</g>
			<g>
				<g>
					<path fill="#59704B" d="M177.7,557.4c0.3,2,0.7,4,1,6c0.2,0.8,0.4,1.6,0.6,2.3c2-1.1,4.4-2.3,6.8-2.2c3.5,0.1,7.7,3.3,5.1,7.2
						c0.8,0.3,1.5,0.6,2.3,1c1.1-3.2,5.1-1.6,6.7,0.2c1.1,1.3,1.7,3,2.3,4.6c0.5,1.2,1.9,1.2,2.4,0c2.4-6.1,10.6-3.2,9.8,2.8
						c-0.2,1.4,2.2,1.7,2.5,0.3c1.6-7.8,12.5-7.9,13.4,0.4c0.1,1.3,2,1.8,2.5,0.3c2.1-7.4,12.4-6.4,12.8,1.4
						c0.1,1.1,1.8,1.8,2.3,0.6c2.8-6.3,11.8-7.4,16.2-2.1c0.9,1.1,2.3-0.1,2.1-1.2c-1.7-9.1,10.1-6.3,13.9-4
						c0.6,0.4,1.7,0.1,1.8-0.7c0.9-6.3,7.7-9.1,12.7-4.8c1,0.9,2.8-0.3,2-1.5c-4.6-6.9,6.8-8.2,10.8-8c1.5,0.1,1.6-2,0.3-2.5
						c-1.7-0.6-2.9-3-2.9-4.7c0-2.5,2.1-4.3,4.2-5.3c2.4-1.1,5.2-1.1,7.8-0.9c1,0.1,1.5-1.1,1.1-1.9c-3.5-6.8,1.7-13.5,9-13
						c1.3,0.1,1.6-1.7,0.6-2.3c-3.9-2.4-2.3-7.7,0.8-9.9c3-2.2,6.9-2.5,10.5-2.8c-0.1-0.8-0.2-1.6-0.3-2.5c-1.8,0.4-3.5-1.3-3.9-3
						c-0.7-3,1.6-5.1,4-6.4c2.1-1.1,4.4-1.5,6.7-1.9c1.6-0.3,0.9-2.6-0.7-2.4c-3,0.4-4.9-2.7-4.9-5.2c0-2.1,1.3-3.7,2.8-4.9
						c2.6-2,5.9-2.7,9.1-3.1c1.3-0.2,1.8-2,0.3-2.5c-4.8-1.6-4.8-7.7-1.7-10.9c2.4-2.5,6-3.4,9.3-3.9c1.2-0.2,1.2-2.2,0-2.4
						c-4.8-1-3.5-7-0.6-9.1c3.1-2.3,7.2-2.3,10.9-2.4c-0.1-0.8-0.2-1.6-0.3-2.5c-3.3,0.2-4.2-1.2-2.9-4.1c-0.6-2.4,0.2-4,2.4-4.8
						c2.3-1.3,5.2-1.6,7.7-1.9c0.8-0.1,1.4-0.7,1.2-1.6c-0.7-2.8-1.4-5.7-2.1-8.5c-0.4-1.6-2.8-0.9-2.4,0.7c0.7,2.8,1.4,5.7,2.1,8.5
						c0.4-0.5,0.8-1.1,1.2-1.6c-5.3,0.7-12.8,2.1-13.9,8.5c-0.8,4.5,3,7.9,7.4,7.2c1.4-0.2,1.1-2.5-0.3-2.5
						c-5.4,0.1-13.2,0.6-15.5,6.6c-1.5,4,0,8.9,4.5,9.8c0-0.8,0-1.6,0-2.4c-5.4,0.8-11.7,3.4-13.1,9.3c-1,4.5,1.2,8.9,5.5,10.3
						c0.1-0.8,0.2-1.6,0.3-2.5c-5.5,0.7-13.3,2.7-14.3,9.3c-0.8,4.9,3,9.6,8,8.9c-0.2-0.8-0.4-1.6-0.7-2.4
						c-4.9,0.9-12.1,2.7-12.7,8.8c-0.4,4.3,2.9,8.2,7.3,7.3c1.4-0.3,1.1-2.6-0.3-2.5c-5.5,0.4-12.4,1.2-15.1,6.7
						c-1.9,3.8-1.2,8.3,2.5,10.6c0.2-0.8,0.4-1.6,0.6-2.3c-9.4-0.6-15.5,8.3-11.2,16.8c0.4-0.6,0.7-1.3,1.1-1.9
						c-5.1-0.4-11.8,0.6-13.9,6c-1.6,4,0.2,8.4,4.2,9.8c0.1-0.8,0.2-1.6,0.3-2.5c-4.3-0.3-9.6-0.2-12.5,3.5c-2,2.5-2.2,5.6-0.5,8.2
						c0.7-0.5,1.3-1,2-1.5c-6.3-5.3-15.6-2.5-16.9,5.9c0.6-0.2,1.2-0.5,1.8-0.7c-3.8-2.3-8.6-4.1-12.9-2.2c-3.6,1.6-5.4,5.1-4.7,8.9
						c0.7-0.4,1.4-0.8,2.1-1.2c-5.3-6.5-16.6-5.1-20.1,2.6c0.8,0.2,1.6,0.4,2.3,0.6c-0.5-10.6-14.8-12.2-17.7-2.1
						c0.8,0.1,1.6,0.2,2.5,0.3c-1.1-10.8-16.1-11.9-18.3-1.1c0.8,0.1,1.6,0.2,2.5,0.3c1.2-9.4-11.3-11.9-14.7-3.4c0.8,0,1.6,0,2.4,0
						c-1.3-3.5-3.2-8-7.4-8.6c-2.9-0.4-5.5,1-6.4,3.7c-0.5,1.4,1.5,2.1,2.3,1c2-3,1.2-6.7-1.6-9.1c-4.1-3.4-9.6-1.6-13.8,0.7
						c-1,0.6-0.6,2.5,0.6,2.3c8-0.9,7.1-11.9-1-11C176.1,555.1,176.1,557.6,177.7,557.4L177.7,557.4z"/>
				</g>
			</g>
		</g>
	</g>
</g>
</svg>
