<?xml version="1.0" encoding="utf-8"?>
<!-- Generator: Adobe Illustrator 18.0.0, SVG Export Plug-In . SVG Version: 6.00 Build 0)  -->
<!DOCTYPE svg PUBLIC "-//W3C//DTD SVG 1.1//EN" "http://www.w3.org/Graphics/SVG/1.1/DTD/svg11.dtd" [
	<!ENTITY ns_flows "http://ns.adobe.com/Flows/1.0/">
	<!ENTITY ns_extend "http://ns.adobe.com/Extensibility/1.0/">
	<!ENTITY ns_ai "http://ns.adobe.com/AdobeIllustrator/10.0/">
	<!ENTITY ns_graphs "http://ns.adobe.com/Graphs/1.0/">
]>
<svg version="1.1" id="Capa_1" xmlns:x="&ns_extend;" xmlns:i="&ns_ai;" xmlns:graph="&ns_graphs;"
	 xmlns="http://www.w3.org/2000/svg" xmlns:xlink="http://www.w3.org/1999/xlink" xmlns:a="http://ns.adobe.com/AdobeSVGViewerExtensions/3.0/"
	 x="0px" y="0px" viewBox="0 0 595.3 841.9" enable-background="new 0 0 595.3 841.9" xml:space="preserve">
<g>
	<g>
		<path fill="#FFFFFF" stroke="#FFFFFF" stroke-miterlimit="10" d="M163.6,204v-60.2H177v24.3h9.3v-24.3h13.3V204h-13.3v-26.4H177
			V204H163.6z"/>
		<path fill="#FFFFFF" stroke="#FFFFFF" stroke-miterlimit="10" d="M233.4,204.8c-3.3,0-6.2-0.4-8.6-1.3s-4.2-2.2-5.6-4
			c-1.4-1.8-2.4-3.8-3-6.2c-0.6-2.4-0.9-5.2-0.9-8.4v-22.2c0-3.2,0.3-6,0.9-8.4c0.6-2.4,1.6-4.4,3-6.2c1.4-1.7,3.3-3.1,5.6-3.9
			s5.2-1.3,8.6-1.3c6.5,0,11.2,1.7,14,5c2.8,3.3,4.2,8.3,4.2,14.8V185c0,6.5-1.4,11.5-4.2,14.8C244.6,203.2,239.9,204.8,233.4,204.8
			z M231.4,195c0.6,0.3,1.3,0.4,2.1,0.4s1.5-0.1,2.1-0.4c0.6-0.3,1-0.6,1.3-1.1c0.3-0.4,0.6-1,0.7-1.7s0.3-1.3,0.3-1.9
			c0-0.6,0.1-1.3,0.1-2.1v-28.9c0-0.8,0-1.5-0.1-2.1c0-0.6-0.2-1.2-0.3-1.9c-0.2-0.7-0.4-1.2-0.7-1.6c-0.3-0.4-0.8-0.8-1.3-1
			c-0.6-0.3-1.3-0.4-2.1-0.4s-1.5,0.1-2.1,0.4c-0.6,0.3-1,0.6-1.3,1c-0.3,0.4-0.6,0.9-0.7,1.6c-0.2,0.7-0.3,1.3-0.3,1.9
			c0,0.6-0.1,1.3-0.1,2.1v28.9c0,0.8,0,1.6,0.1,2.1c0,0.6,0.1,1.2,0.3,1.9c0.2,0.7,0.4,1.2,0.7,1.7
			C230.4,194.3,230.8,194.7,231.4,195z"/>
		<path fill="#FFFFFF" stroke="#FFFFFF" stroke-miterlimit="10" d="M263.6,205.5v-9.3c0.2,0,0.3,0,0.5,0c2.6,0,4.3-0.4,5.3-1.1
			c1-0.8,1.5-2.5,1.5-5v-46.3h13.3v46.8c0,2.6-0.3,4.8-0.7,6.5c-0.4,1.8-1.2,3.3-2.3,4.6c-1.1,1.3-2.5,2.2-4.3,2.9
			c-1.8,0.6-4.1,0.9-6.8,0.9H263.6z"/>
		<path fill="#FFFFFF" stroke="#FFFFFF" stroke-miterlimit="10" d="M297.6,204l11.4-60.2h15l11.3,60.2h-12.3l-2.1-12.8h-8.8l-2,12.8
			H297.6z M313.4,183.3h6.4l-3.2-23.3L313.4,183.3z"/>
		<path fill="#FFFFFF" stroke="#FFFFFF" stroke-miterlimit="10" d="M364.9,204.8c-5.7,0-10-1.5-12.8-4.6c-2.8-3-4.3-7.9-4.5-14.6
			L359,184c0,3.8,0.5,6.5,1.4,8.2c0.9,1.7,2.1,2.6,3.9,2.6c2.3,0,3.4-1.5,3.4-4.4c0-1.6-0.3-3.1-0.9-4.5c-0.6-1.4-1.3-2.5-2.1-3.5
			c-0.8-1-2-2.1-3.6-3.4l-5.3-4.6c-1.3-1.1-2.3-2.1-3.2-3.1c-0.8-0.9-1.7-2-2.5-3.3c-0.8-1.3-1.4-2.7-1.8-4.2
			c-0.4-1.5-0.6-3.3-0.6-5.1c0-5,1.5-8.9,4.5-11.6c3-2.7,7.1-4.1,12.4-4.1c1.8,0,3.4,0.2,4.9,0.6c1.5,0.4,2.7,0.9,3.7,1.5
			c1,0.6,1.9,1.4,2.7,2.4c0.8,1,1.4,1.9,1.8,2.9c0.4,1,0.8,2,1.1,3.2c0.3,1.2,0.5,2.3,0.6,3.3c0.1,1,0.2,2.1,0.2,3.2l-11.5,1.5
			c0-1-0.1-1.9-0.1-2.5c0-0.7-0.1-1.4-0.2-2.1c-0.1-0.8-0.2-1.4-0.4-1.8c-0.2-0.5-0.4-0.9-0.7-1.3s-0.6-0.7-1.1-0.9
			c-0.4-0.2-0.9-0.2-1.5-0.2c-1.2,0-2.1,0.5-2.7,1.5c-0.6,1-0.9,2-0.9,3.2c0,1.1,0.1,2.2,0.4,3.1s0.8,1.8,1.5,2.7
			c0.7,0.9,1.3,1.5,1.7,2c0.4,0.4,1.2,1.1,2.2,2l5.1,4.5c1.4,1.3,2.6,2.5,3.6,3.6c1,1.2,2,2.5,2.9,3.9c0.9,1.5,1.6,3.1,2.1,4.8
			c0.5,1.8,0.7,3.6,0.7,5.6c0,4.4-1.5,8-4.4,10.8C373.4,203.4,369.6,204.8,364.9,204.8z"/>
		<path fill="#FFFFFF" stroke="#FFFFFF" stroke-miterlimit="10" d="M109,293.3l1-60.2h14.2l6.7,35.2l7.2-35.2h13.8l1,60.2h-9.5
			l-1-40l-7.1,40H127l-7.4-40.3l-0.9,40.3H109z"/>
		<path fill="#FFFFFF" stroke="#FFFFFF" stroke-miterlimit="10" d="M166.1,293.3l11.4-60.2h15l11.3,60.2h-12.3l-2.1-12.8h-8.8
			l-2,12.8H166.1z M181.9,272.5h6.4l-3.2-23.3L181.9,272.5z"/>
		<path fill="#FFFFFF" stroke="#FFFFFF" stroke-miterlimit="10" d="M223,293.3v-24.6L211.5,233H224l5.7,19.1l5.2-19.1H247
			l-11.3,35.6v24.6H223z"/>
		<path fill="#FFFFFF" stroke="#FFFFFF" stroke-miterlimit="10" d="M276.8,294.1c-3.3,0-6.2-0.4-8.6-1.3s-4.2-2.2-5.6-4
			c-1.4-1.8-2.4-3.8-3-6.2c-0.6-2.4-0.9-5.2-0.9-8.4V252c0-3.2,0.3-6,0.9-8.4c0.6-2.4,1.6-4.4,3-6.2c1.4-1.7,3.3-3.1,5.6-3.9
			s5.2-1.3,8.6-1.3c6.5,0,11.2,1.7,14,5c2.8,3.3,4.2,8.3,4.2,14.8v22.2c0,6.5-1.4,11.5-4.2,14.8C288,292.4,283.3,294.1,276.8,294.1z
			 M274.7,284.3c0.6,0.3,1.3,0.4,2.1,0.4s1.5-0.1,2.1-0.4c0.6-0.3,1-0.6,1.3-1.1c0.3-0.4,0.6-1,0.7-1.7s0.3-1.3,0.3-1.9
			c0-0.6,0.1-1.3,0.1-2.1v-28.9c0-0.8,0-1.5-0.1-2.1c0-0.6-0.2-1.2-0.3-1.9c-0.2-0.7-0.4-1.2-0.7-1.6c-0.3-0.4-0.8-0.8-1.3-1
			c-0.6-0.3-1.3-0.4-2.1-0.4s-1.5,0.1-2.1,0.4c-0.6,0.3-1,0.6-1.3,1c-0.3,0.4-0.6,0.9-0.7,1.6c-0.2,0.7-0.3,1.3-0.3,1.9
			c0,0.6-0.1,1.3-0.1,2.1v28.9c0,0.8,0,1.6,0.1,2.1c0,0.6,0.1,1.2,0.3,1.9c0.2,0.7,0.4,1.2,0.7,1.7
			C273.7,283.6,274.2,284,274.7,284.3z"/>
		<path fill="#FFFFFF" stroke="#FFFFFF" stroke-miterlimit="10" d="M310.5,293.3V233h16.4c2.5,0,4.8,0.1,6.8,0.4
			c2,0.3,3.8,0.8,5.5,1.5c1.7,0.7,3.1,1.7,4.3,2.9c1.1,1.2,2,2.7,2.6,4.6s0.9,4,0.9,6.5c0,3.9-0.5,7.1-1.6,9.5
			c-1.1,2.4-3,4.3-5.8,5.6l8.3,29.2h-13.8l-6.6-27h-3.7v27H310.5z M323.8,258.7h3.4c2.7,0,4.6-0.7,5.7-2.1c1.1-1.4,1.7-3.5,1.7-6.4
			c0-2.8-0.5-4.9-1.5-6.2c-1-1.3-2.7-2-5.2-2h-4.1V258.7z"/>
		<path fill="#FFFFFF" stroke="#FFFFFF" stroke-miterlimit="10" d="M362.4,293.3V233h27.1v9.1h-13.8V257h10.5v9.3h-10.5v18h13.9v9
			H362.4z"/>
		<path fill="#FFFFFF" stroke="#FFFFFF" stroke-miterlimit="10" d="M419,294.1c-5.7,0-10-1.5-12.8-4.6c-2.8-3-4.3-7.9-4.5-14.6
			l11.4-1.7c0,3.8,0.5,6.5,1.4,8.2c0.9,1.7,2.1,2.6,3.9,2.6c2.3,0,3.4-1.5,3.4-4.4c0-1.6-0.3-3.1-0.9-4.5c-0.6-1.4-1.3-2.5-2.1-3.5
			c-0.8-1-2-2.1-3.6-3.4l-5.3-4.6c-1.3-1.1-2.3-2.1-3.2-3.1c-0.8-0.9-1.7-2-2.5-3.3c-0.8-1.3-1.4-2.7-1.8-4.2
			c-0.4-1.5-0.6-3.3-0.6-5.1c0-5,1.5-8.9,4.5-11.6c3-2.7,7.1-4.1,12.4-4.1c1.8,0,3.4,0.2,4.9,0.6c1.5,0.4,2.7,0.9,3.7,1.5
			c1,0.6,1.9,1.4,2.7,2.4c0.8,1,1.4,1.9,1.8,2.9c0.4,1,0.8,2,1.1,3.2c0.3,1.2,0.5,2.3,0.6,3.3c0.1,1,0.2,2.1,0.2,3.2l-11.5,1.5
			c0-1-0.1-1.9-0.1-2.5c0-0.7-0.1-1.4-0.2-2.1c-0.1-0.8-0.2-1.4-0.4-1.8c-0.2-0.5-0.4-0.9-0.7-1.3s-0.6-0.7-1.1-0.9
			c-0.4-0.2-0.9-0.2-1.5-0.2c-1.2,0-2.1,0.5-2.7,1.5c-0.6,1-0.9,2-0.9,3.2c0,1.1,0.1,2.2,0.4,3.1s0.8,1.8,1.5,2.7
			c0.7,0.9,1.3,1.5,1.7,2c0.4,0.4,1.2,1.1,2.2,2l5.1,4.5c1.4,1.3,2.6,2.5,3.6,3.6c1,1.2,2,2.5,2.9,3.9c0.9,1.5,1.6,3.1,2.1,4.8
			c0.5,1.8,0.7,3.6,0.7,5.6c0,4.4-1.5,8-4.4,10.8C427.6,292.7,423.8,294.1,419,294.1z"/>
	</g>
	<g>
		<g opacity="0.51"  a:adobe-blending-mode="multiply">
			<ellipse fill="#7CAA9A"  a:adobe-blending-mode="normal" cx="408.6" cy="601.8" rx="99" ry="97.2"/>
		</g>
		<g>
			<g>
				<path fill="#FFFFFF" stroke="#FFFFFF" stroke-miterlimit="10" d="M427.4,625c-0.6,1.5-1.5,2.7-2.6,3.8c-1.1,1.1-2.4,1.9-3.9,2.6
					c-1.5,0.6-3.1,0.9-4.7,0.9H414c-1.7,0-3.3-0.3-4.8-0.9c-1.5-0.6-2.8-1.5-3.9-2.6s-2-2.4-2.6-3.8c-0.6-1.4-1-3-1-4.7v-4
					c0-2.1,0.5-3.9,1.5-5.7c1-1.7,2.3-3.1,3.9-4.2c-1.6-1.1-2.9-2.5-3.9-4.2c-1-1.7-1.5-3.6-1.5-5.7v-2.4c0-1.7,0.3-3.2,1-4.7
					c0.6-1.4,1.5-2.7,2.6-3.8c1.1-1.1,2.4-1.9,3.9-2.6c1.5-0.6,3.1-0.9,4.8-0.9h2.1c1.7,0,3.3,0.3,4.7,0.9c1.5,0.6,2.8,1.5,3.9,2.6
					c1.1,1.1,2,2.4,2.6,3.8c0.6,1.5,1,3,1,4.7v2.4c0,2.1-0.5,4-1.5,5.7s-2.2,3.1-3.8,4.2c1.6,1.1,2.9,2.5,3.8,4.2
					c1,1.7,1.5,3.6,1.5,5.7v4C428.3,622,428,623.5,427.4,625z M423.9,594.1c0-1.1-0.2-2.1-0.6-3c-0.4-0.9-1-1.8-1.7-2.5
					c-0.7-0.7-1.6-1.3-2.5-1.7c-1-0.4-2-0.6-3.1-0.6h-1.7c-1.1,0-2.1,0.2-3.1,0.6c-1,0.4-1.8,1-2.5,1.7s-1.3,1.5-1.7,2.5
					c-0.4,0.9-0.6,2-0.6,3v2.4c0,1.1,0.2,2.1,0.6,3c0.4,0.9,1,1.8,1.7,2.5s1.6,1.3,2.5,1.7c1,0.4,2,0.6,3.1,0.6h1.7
					c1.1,0,2.1-0.2,3.1-0.6c1-0.4,1.8-1,2.5-1.7c0.7-0.7,1.3-1.5,1.7-2.5c0.4-0.9,0.6-2,0.6-3V594.1z M423.9,616.3
					c0-1.1-0.2-2.1-0.6-3c-0.4-0.9-1-1.8-1.7-2.5c-0.7-0.7-1.6-1.3-2.5-1.7c-1-0.4-2-0.6-3.1-0.6h-1.7c-1.1,0-2.1,0.2-3.1,0.6
					c-1,0.4-1.8,1-2.5,1.7s-1.3,1.5-1.7,2.5c-0.4,0.9-0.6,2-0.6,3v4c0,1.1,0.2,2.1,0.6,3c0.4,0.9,1,1.8,1.7,2.5
					c0.7,0.7,1.6,1.3,2.5,1.7c1,0.4,2,0.6,3.1,0.6h1.7c1.1,0,2.1-0.2,3.1-0.6c1-0.4,1.8-1,2.5-1.7c0.7-0.7,1.3-1.5,1.7-2.5
					c0.4-0.9,0.6-2,0.6-3V616.3z"/>
			</g>
			<g>
				<path fill="#FFFFFF" stroke="#FFFFFF" stroke-miterlimit="10" d="M444.2,629.8c-0.2,0.5-0.5,0.8-0.8,1.2
					c-0.3,0.3-0.7,0.6-1.2,0.8c-0.5,0.2-0.9,0.3-1.5,0.3h-1.1c-0.5,0-1-0.1-1.5-0.3c-0.5-0.2-0.9-0.5-1.2-0.8
					c-0.3-0.3-0.6-0.7-0.8-1.2c-0.2-0.4-0.3-0.9-0.3-1.4v-8.1c0-0.5,0.1-1,0.3-1.4c0.2-0.4,0.5-0.8,0.8-1.2c0.3-0.3,0.7-0.6,1.2-0.8
					c0.5-0.2,1-0.3,1.5-0.3h1.1c0.5,0,1,0.1,1.5,0.3c0.5,0.2,0.9,0.5,1.2,0.8c0.3,0.3,0.6,0.7,0.8,1.2c0.2,0.5,0.3,0.9,0.3,1.4v0.6
					l-1.4,0.2v-0.8c0-0.3-0.1-0.7-0.2-0.9c-0.1-0.3-0.3-0.5-0.5-0.8c-0.2-0.2-0.5-0.4-0.8-0.5c-0.3-0.1-0.6-0.2-1-0.2h-1
					c-0.3,0-0.7,0.1-1,0.2c-0.3,0.1-0.6,0.3-0.8,0.5c-0.2,0.2-0.4,0.5-0.5,0.8c-0.1,0.3-0.2,0.6-0.2,0.9v8.1c0,0.3,0.1,0.7,0.2,0.9
					c0.1,0.3,0.3,0.5,0.5,0.8c0.2,0.2,0.5,0.4,0.8,0.5c0.3,0.1,0.6,0.2,1,0.2h1c0.3,0,0.7-0.1,1-0.2c0.3-0.1,0.6-0.3,0.8-0.5
					c0.2-0.2,0.4-0.5,0.5-0.8c0.1-0.3,0.2-0.6,0.2-0.9v-0.8l1.4,0.2v0.6C444.5,628.9,444.4,629.4,444.2,629.8z"/>
				<path fill="#FFFFFF" stroke="#FFFFFF" stroke-miterlimit="10" d="M461.5,631.9v-10.4l-0.1,0.6l-3.6,9.7h-0.7l-3.6-9.7l-0.1-0.6
					v10.4H452v-15.1h0.7l4.7,12.4l0,0.6l0-0.6l4.7-12.4h0.7v15.1H461.5z"/>
			</g>
		</g>
		<g>
			<g>
				<g>
					<line fill="#FFFFFF" x1="356.5" y1="611.8" x2="395.6" y2="611.8"/>
					<rect x="356.5" y="608.3" fill="#FFFFFF" width="39.1" height="7"/>
				</g>
			</g>
			<g>
				<g>
					<line fill="#FFFFFF" x1="376.1" y1="592.4" x2="376.1" y2="630.8"/>
					<rect x="372.6" y="592.4" fill="#FFFFFF" width="7" height="38.4"/>
				</g>
			</g>
		</g>
	</g>
	<g>
		<g>
			<g>
				<g>
					<path fill="#59704B" d="M131.1,608.2c15.8,9.6,15.7,6.3,27.5,12.1c11.8,5.8,25.3,7,38.4,8c31.4,2.5,64.1,4.5,93.3-7.2
						c41.4-16.5,67.2-56.9,86-96.6c18.8-39.7,34.3-82.5,65.6-113.7c-29.7-12.9-63.9-13.5-95.7-6.7c-31.8,6.7-61.6,20.3-90.4,35
						c-45.7,23.3-91,50.8-121.5,91.5c-8.8,11.7-16.5,25.1-17,39.6C116.7,584.7,108.3,588.6,131.1,608.2"/>
				</g>
			</g>
			<g>
				<g>
					<path fill="#59704B" d="M99.6,639c6.6-10.1,13.1-20.3,19.8-30.4c5.5-8.4,13.7-19.5,25.3-16.7c0-3.2,0-6.4,0-9.6
						c-35.6,11.7-61,48.7-56.5,86.4c0.8,6.3,10.8,6.4,10,0c-4-33.2,17.4-66.3,49.2-76.7c4.5-1.5,5-8.4,0-9.6
						c-13-3.1-24.1,4.4-31.7,14.3c-9,11.8-16.5,24.9-24.6,37.4C87.5,639.3,96.1,644.4,99.6,639L99.6,639z"/>
				</g>
			</g>
		</g>
		<g>
			<g>
				<path fill="#59704B" d="M116.5,598.6c2.4-6.7-3.6-15-10.9-14.8c10.6-2.1,14.6-18.1,6.1-24.7c7.1,2.7,16.1-1.2,18.9-8.1
					c2.9-6.9-0.8-15.8-7.8-18.7c5,3.4,12.8,2.1,16.4-2.8c3.6-4.9,2.4-12.5-2.5-16.1c5.2,2.1,11.6,1.6,15.7-2.1
					c4.1-3.7,4.8-10.8,0.8-14.7c4.3,4.6,12.3,5,17.1,0.9s5.4-12,1.3-16.7c4.5,3.8,12,3.7,16.4-0.3c4.4-4,5.1-11.3,1.6-16
					c2.5,6.3,11.7,8.4,17.5,4.7c5.8-3.7,7.8-11.6,5.6-18c2.3,6,10.9,8.4,16.4,4.8c5.4-3.6,6.8-11.6,3.4-17.1c3,4.8,9.8,6.8,15.1,4.5
					s8.2-8.6,6.6-14c1.7,6,10.2,8.1,15.7,5.1s8.2-9.6,8.8-15.8c0.2,6.9,10.3,10,15.9,6c5.6-4.1,6.8-12.1,5.1-18.7
					c3.2,4.6,9.7,6.5,15,4.4c5.2-2.1,8.5-8,7.5-13.4c1.5,6.8,9.2,11.6,16.2,10.2c7-1.4,12.1-8.8,10.8-15.7c0,6.3,5.9,12,12.3,12
					s12.3-5.7,12.3-12c0.2,6.4,6.4,12,12.9,11.5c6.5-0.5,11.8-7.2,10.5-13.4c-1.3,6.7,4,13.9,10.9,14.9c6.9,1,14-4.4,14.8-11.2
					c-1.7,5.6,1.8,12.3,7.4,14.3c5.7,1.9,12.6-1.1,14.9-6.6"/>
			</g>
			<g>
				<g>
					<path fill="#59704B" d="M117.7,599c2.3-8.1-3.9-16-12.1-16.4c0.1,0.8,0.2,1.6,0.3,2.5c11.5-2.8,15.7-18.9,6.7-26.8
						c-0.4,0.7-0.8,1.4-1.2,2.1c7.8,2.4,17.2-1,20.4-8.8c3.2-7.8-1-16.7-8.3-20.3c-1.4-0.7-2.7,1.3-1.3,2.2c5.8,3.4,13.8,2.5,18-3.1
						c4.1-5.6,2.5-13.5-2.6-17.7c-0.4,0.7-0.8,1.4-1.2,2.1c6,2.1,13.5,1.7,17.9-3.5c3.8-4.5,3.7-11-0.2-15.4
						c-0.6,0.6-1.2,1.2-1.8,1.8c5,4.7,13.3,5.6,18.7,1c5.4-4.6,5.8-12.8,1.7-18.3c-0.6,0.6-1.1,1.1-1.7,1.7c12.2,9,28.2-5,19.7-18
						c-0.9-1.4-2.9-0.2-2.2,1.3c3.1,6.4,11.2,8.8,17.6,6c7.7-3.4,10-12.7,7.7-20.3c-0.8,0.3-1.5,0.6-2.3,1c2.9,6.4,11.4,9,17.5,5.5
						c6.7-3.8,7.9-12.7,4.4-19.1c-0.7,0.4-1.4,0.8-2.2,1.3c8.6,11.8,27.3,4.1,23.9-10.5c-0.8,0.2-1.6,0.4-2.4,0.7
						c2.2,6.1,9.1,8.6,15.1,6.8c7.7-2.3,11-10.7,11.9-17.9c-0.8,0-1.7,0-2.5,0c0.7,7.1,8.7,10.5,15.1,8.4
						c8.7-2.9,10.1-13.8,8.4-21.5c-0.7,0.4-1.4,0.8-2.1,1.2c8.5,10.9,26.3,4.2,24.6-9.9c-0.8,0.1-1.6,0.2-2.5,0.3
						c2.1,7.3,9.4,12.4,17.1,11.2c8-1.3,13.4-9.1,12.4-17c-0.2-1.6-2.6-1.6-2.5,0c0.5,7.1,6.2,13.2,13.6,13.3
						c7.3,0,13.1-6.2,13.6-13.2c-0.8,0-1.7,0-2.5,0c0.8,7.2,6.8,13.3,14.3,12.7c7.5-0.6,12.5-7.8,11.5-15c-0.2-1.5-2.3-0.9-2.5,0.3
						c-0.9,7.5,4.3,15,12,16.1c7.7,1.1,14.9-4.7,16.2-12.1c0.3-1.6-2-2.3-2.4-0.7c-3.6,15.4,17.7,22.7,24.6,8.6
						c0.7-1.4-1.5-2.7-2.2-1.3c-5.6,11.3-23,6-20-6.7c-0.8-0.2-1.6-0.4-2.4-0.7c-1.1,6.2-6.9,11.3-13.4,10.2
						c-6.5-1-10.6-7.2-9.8-13.6c-0.8,0.1-1.6,0.2-2.5,0.3c1.9,14.3-19.5,15.5-20.9,1.6c-0.2-1.6-2.4-1.6-2.5,0
						c-1,13.8-21.2,13.7-22.2,0c-0.8,0-1.7,0-2.5,0c0.8,6.3-2.9,12.7-9.3,14.3c-6.7,1.7-13.5-2.8-15.3-9.2c-0.4-1.3-2.6-1.1-2.5,0.3
						c1.4,12-13.1,17.4-20.3,8.1c-0.8-1.1-2.3,0.1-2.1,1.2c1.3,5.9,0.9,13.5-4.6,17.3c-4.6,3.1-13.3,1.7-14-4.9
						c-0.2-1.6-2.3-1.6-2.5,0c-0.6,5.6-2.8,11.9-8.1,14.7c-4.8,2.6-11.9,1.1-13.9-4.3c-0.5-1.5-2.8-0.9-2.4,0.7
						c2.8,11.7-12.4,18.2-19.4,8.5c-0.9-1.3-3-0.2-2.2,1.3c2.9,5.3,2,12.9-3.9,15.9c-5,2.5-11.4,0.3-13.7-4.8
						c-0.6-1.3-2.7-0.4-2.3,1c1.8,6,0.5,13.6-5.5,16.9c-5.4,3-12.5,0.9-15.2-4.6c-0.7,0.4-1.4,0.8-2.2,1.3
						c7.2,11-6.2,22.1-16.3,14.6c-1-0.7-2.4,0.7-1.7,1.7c8.2,11-6.5,23.6-16.5,14.3c-1.2-1.1-2.8,0.6-1.8,1.8
						c3.7,4.2,2.6,10.4-1.8,13.6c-4,2.9-9,2.7-13.5,1.1c-1.1-0.4-2.2,1.3-1.2,2.1c10.3,8.6-0.9,23.6-12.3,16.9
						c-0.4,0.7-0.8,1.4-1.3,2.2c6.3,3,10,10.4,7.3,17.1c-2.8,6.7-10.7,9.5-17.4,7.4c-1.2-0.4-2.2,1.3-1.2,2.1
						c7.6,6.6,4.2,20.2-5.6,22.6c-1.4,0.3-1,2.4,0.3,2.5c6.7,0.3,11.6,6.8,9.7,13.3C114.8,599.9,117.3,600.5,117.7,599L117.7,599z"
						/>
				</g>
			</g>
		</g>
		<g>
			<g>
				<path fill="#59704B" d="M128,599.2c4-1.1,8.6,1.9,9,5.9c0.5,4-3.3,8-7.4,7.8c5-3,11.3-5.1,16.8-3.1c5.6,2,9,9.5,5.2,13.9
					c0.7-4.5,7.2-5.9,11.2-3.5c3.9,2.4,5.7,7,7.3,11.3c1.4-5,7.3-8.3,12.4-7.1s8.6,7,7.4,12c0.6-6.3,6.9-11.6,13.3-11.3
					s12.2,6.1,12.2,12.5c1.1-6,7.5-10.6,13.7-9.9s11.3,6.6,11,12.7c4.2-11.1,22.3-13.4,29.3-3.8c-1.9-5.5,3-11.6,8.7-12.9
					c5.8-1.3,11.8,1,16.7,4.2c0.3-5.3,4-10.2,9-12s11.1-0.5,14.8,3.3c-3.6-4-1.2-10.8,3.4-13.6c4.6-2.8,10.4-2.8,15.8-2.3
					c-6.6-1.5-8.1-11.2-3.6-16.3s12.1-6.1,18.8-5.4c-3.2-5.1-3-12.1,0.4-17.1s9.8-7.8,15.9-6.9c-6.4-3.1-6-13.1-0.8-17.9
					c5.2-4.8,12.9-5.8,20.1-6.3c-6.5,2.3-11.6-7.6-8-13.3c3.6-5.7,11.1-7.5,17.9-8.7c-7.5,2-13.1-8.8-9.3-15.4s12.3-9.1,20-9.9
					c-7.1-1.6-9.8-11.3-6.2-17.5c3.6-6.3,11.2-9.3,18.5-10.2c-7.3-0.6-8.8-11.8-3.6-16.9c5.2-5.1,13.4-5.5,20.8-5.7
					c-4.4,1.6-9.3-2.6-9.5-7.1c-0.2-4.6,3.1-8.7,7.2-10.9c4.1-2.2,8.8-2.8,13.5-3.3c-1.1-4.6-2.2-9.2-3.4-13.8"/>
			</g>
			<g>
				<g>
					<path fill="#59704B" d="M128.3,600.4c2.2-0.4,6,0.5,6.9,3c1.4,4.1-1.3,7.9-5.6,8.1c0.2,0.8,0.4,1.6,0.6,2.3
						c4.8-2.7,11.2-5.4,16.6-2.7c4.3,2.1,6.6,7.6,3.6,11.7c0.8,0.3,1.5,0.6,2.3,1c1.4-5.2,8.2-4.3,11.2-1.2c2.4,2.4,3.7,5.9,4.8,9.1
						c0.4,1.2,2,1.2,2.4,0c3.7-10.3,19.2-6.7,17.4,4.3c0.8,0.2,1.6,0.4,2.4,0.7c2.3-13.6,22.1-13.2,23.1,0.8
						c0.1,1.3,2.1,1.8,2.5,0.3c3.3-12.8,22-10.9,22.2,2.5c0,1.1,1.8,1.8,2.3,0.6c4.5-10.6,20.3-12.5,27.3-3.5c0.8,1,2.4-0.1,2.1-1.2
						c-1.5-6,3.7-10.8,9.3-11.5c5.2-0.7,10,1.6,14.3,4.2c0.9,0.5,1.8-0.2,1.9-1.1c1.2-10.9,13.8-15,21.7-7.8c1,0.9,2.9-0.3,2-1.5
						c-3.5-4.7-0.4-10.2,4.2-12.5c4.3-2.1,9.2-1.9,13.9-1.5c1.5,0.1,1.6-2,0.3-2.5c-6.3-2-6.6-10.4-2.6-14.7
						c4.4-4.6,11.5-5,17.4-4.5c1,0.1,1.5-1.1,1.1-1.9c-6.1-11.2,2.9-23.3,15.2-22.1c1.3,0.1,1.6-1.7,0.6-2.3
						c-5.9-3.4-4.9-11.7-0.5-16c4.9-4.8,12.8-5.4,19.2-5.9c-0.1-0.8-0.2-1.6-0.3-2.5c-8,2.1-8.9-9.7-4.7-13.8c4-3.8,10-4.9,15.2-5.9
						c-0.2-0.8-0.4-1.6-0.7-2.4c-7.9,1.5-10.8-9.3-7.2-14.7c3.9-5.7,11.8-7.4,18.2-8.2c1.3-0.2,1.8-2,0.3-2.5
						c-6.5-1.9-8.6-10.1-5.5-15.7c3.4-6.3,11.1-8.7,17.7-9.6c1.2-0.2,1.2-2.2,0-2.4c-6.6-1.1-7.2-9.7-3.6-14.1
						c4.6-5.8,13.7-5.8,20.4-6c-0.1-0.8-0.2-1.6-0.3-2.5c-8.8,2.1-9.2-9.1-4.5-13.5c4.2-4,10.5-4.7,16-5.4c0.8-0.1,1.4-0.7,1.2-1.6
						c-1.1-4.6-2.2-9.2-3.4-13.8c-0.4-1.6-2.8-0.9-2.4,0.7c1.1,4.6,2.2,9.2,3.4,13.8c0.4-0.5,0.8-1.1,1.2-1.6
						c-8.1,1-19.3,3-21.6,12.4c-1.6,6.6,4.1,13,10.8,11.3c1.4-0.3,1.1-2.5-0.3-2.5c-8.3,0.2-20.5,0.8-24.2,9.9
						c-2.4,5.9-0.3,14,6.7,15.1c0-0.8,0-1.6,0-2.4c-8.3,1.2-18.4,5.2-20.6,14.2c-1.6,6.6,1.6,13.9,8.3,15.9c0.1-0.8,0.2-1.6,0.3-2.5
						c-8.3,1-20.6,4.1-22.3,14c-1.2,7.2,4.2,15.2,12,13.7c1.6-0.3,0.9-2.7-0.7-2.4c-7.3,1.3-18.6,3.9-19.9,12.9
						c-0.9,6.2,4,13.3,10.7,11.5c1.3-0.3,1.1-2.6-0.3-2.5c-8.2,0.6-18.8,1.7-23.3,9.7c-3.2,5.7-2.6,13.4,3.4,16.8
						c0.2-0.8,0.4-1.6,0.6-2.3c-14.3-1.4-24.3,13.1-17.4,25.9c0.4-0.6,0.7-1.3,1.1-1.9c-7.8-0.7-18.3,0.7-21.7,9
						c-2.4,5.9-0.1,13.1,6.2,15.1c0.1-0.8,0.2-1.6,0.3-2.5c-6.5-0.5-14.3-0.5-19,4.7c-3.3,3.7-4.3,9-1.2,13.1c0.7-0.5,1.3-1,2-1.5
						c-9.6-8.7-24.5-3.4-26,9.6c0.6-0.4,1.3-0.7,1.9-1.1c-5.8-3.6-13.2-6.5-19.9-3.6c-5.4,2.3-8.8,7.8-7.4,13.6
						c0.7-0.4,1.4-0.8,2.1-1.2c-7.9-10.2-26.2-7.9-31.2,4c0.8,0.2,1.6,0.4,2.3,0.6c-0.2-16.2-23.1-18.7-27.1-3.1
						c0.8,0.1,1.6,0.2,2.5,0.3c-0.5-6.9-5.7-13-12.8-13.6c-7.4-0.7-14,5-15.2,12.1c-0.3,1.6,2.1,2.3,2.4,0.7
						c2.4-14.2-17.3-19-22.2-5.6c0.8,0,1.6,0,2.4,0c-1.9-5.1-4.4-11.5-10.3-13.1c-4.4-1.2-9.3,0.7-10.6,5.3c-0.4,1.4,1.5,2.1,2.3,1
						c3.3-4.5,1.5-10.4-2.6-13.8c-6.2-5.1-15-2.2-21.1,1.3c-1,0.6-0.6,2.4,0.6,2.3c4.8-0.3,9.4-4.1,8.6-9.3
						c-0.7-5.1-5.9-7.6-10.6-6.7C126.1,598.3,126.7,600.7,128.3,600.4L128.3,600.4z"/>
				</g>
			</g>
		</g>
	</g>
</g>
</svg>
