<?xml version="1.0" encoding="utf-8"?>
<!-- Generator: Adobe Illustrator 18.0.0, SVG Export Plug-In . SVG Version: 6.00 Build 0)  -->
<!DOCTYPE svg PUBLIC "-//W3C//DTD SVG 1.1//EN" "http://www.w3.org/Graphics/SVG/1.1/DTD/svg11.dtd" [
	<!ENTITY ns_flows "http://ns.adobe.com/Flows/1.0/">
	<!ENTITY ns_extend "http://ns.adobe.com/Extensibility/1.0/">
	<!ENTITY ns_ai "http://ns.adobe.com/AdobeIllustrator/10.0/">
	<!ENTITY ns_graphs "http://ns.adobe.com/Graphs/1.0/">
]>
<svg version="1.1" id="Capa_1" xmlns:x="&ns_extend;" xmlns:i="&ns_ai;" xmlns:graph="&ns_graphs;"
	 xmlns="http://www.w3.org/2000/svg" xmlns:xlink="http://www.w3.org/1999/xlink" xmlns:a="http://ns.adobe.com/AdobeSVGViewerExtensions/3.0/"
	 x="0px" y="0px" viewBox="0 0 595.3 841.9" enable-background="new 0 0 595.3 841.9" xml:space="preserve">
<g>
	<path fill="#FFFFFF" stroke="#FFFFFF" stroke-miterlimit="10" d="M68.9,342.1v-45.8H76l9.4,22v-22h8.4v45.8H87l-9.4-23.7v23.7H68.9
		z"/>
	<path fill="#FFFFFF" stroke="#FFFFFF" stroke-miterlimit="10" d="M106.2,342.1v-45.8h20.6v6.9h-10.5v11.3h8v7h-8v13.7h10.6v6.8
		H106.2z"/>
	<path fill="#FFFFFF" stroke="#FFFFFF" stroke-miterlimit="10" d="M137.1,342.1v-45.8h12.5c1.9,0,3.6,0.1,5.1,0.3
		c1.5,0.2,2.9,0.6,4.2,1.2c1.3,0.6,2.4,1.3,3.2,2.2c0.8,0.9,1.5,2.1,2,3.5c0.5,1.4,0.7,3.1,0.7,5c0,3-0.4,5.4-1.2,7.2
		c-0.8,1.8-2.3,3.2-4.4,4.2l6.3,22.2H155l-5-20.5h-2.8v20.5H137.1z M147.2,315.8h2.6c2.1,0,3.5-0.5,4.4-1.6c0.8-1.1,1.3-2.7,1.3-4.8
		c0-2.1-0.4-3.7-1.1-4.7c-0.8-1-2.1-1.5-4-1.5h-3.1V315.8z"/>
	<path fill="#FFFFFF" stroke="#FFFFFF" stroke-miterlimit="10" d="M182.5,342.1l-8.3-45.8h8.6l4.9,30.8l4.6-30.8h9.2l-8.4,45.8
		H182.5z"/>
	<path fill="#FFFFFF" stroke="#FFFFFF" stroke-miterlimit="10" d="M211.8,342.1v-45.8h10.1v45.8H211.8z"/>
	<path fill="#FFFFFF" stroke="#FFFFFF" stroke-miterlimit="10" d="M247.4,342.7c-2.5,0-4.7-0.3-6.5-1c-1.8-0.7-3.2-1.7-4.3-3
		c-1.1-1.3-1.8-2.9-2.3-4.7s-0.7-3.9-0.7-6.4v-16.9c0-2.5,0.2-4.6,0.7-6.4c0.5-1.8,1.2-3.4,2.3-4.7c1.1-1.3,2.5-2.3,4.3-3
		c1.8-0.7,4-1,6.5-1c4.9,0,8.5,1.3,10.6,3.8c2.1,2.5,3.2,6.3,3.2,11.2v16.9c0,5-1.1,8.7-3.2,11.3
		C255.9,341.5,252.4,342.7,247.4,342.7z M245.9,335.3c0.4,0.2,1,0.3,1.6,0.3c0.6,0,1.1-0.1,1.6-0.3s0.8-0.5,1-0.8
		c0.2-0.3,0.4-0.7,0.6-1.3c0.1-0.5,0.2-1,0.3-1.4c0-0.5,0.1-1,0.1-1.6v-21.9c0-0.6,0-1.1-0.1-1.6c0-0.5-0.1-0.9-0.3-1.4
		c-0.1-0.5-0.3-0.9-0.6-1.2c-0.2-0.3-0.6-0.6-1-0.8c-0.4-0.2-1-0.3-1.6-0.3c-0.6,0-1.1,0.1-1.6,0.3c-0.4,0.2-0.8,0.5-1,0.8
		c-0.2,0.3-0.4,0.7-0.6,1.2s-0.2,1-0.2,1.4c0,0.4,0,1,0,1.6v21.9c0,0.6,0,1.2,0,1.6c0,0.4,0.1,0.9,0.2,1.4c0.1,0.5,0.3,0.9,0.6,1.3
		C245.1,334.8,245.4,335,245.9,335.3z"/>
	<path fill="#FFFFFF" stroke="#FFFFFF" stroke-miterlimit="10" d="M306.3,342.7c-2.6,0-4.7-0.4-6.5-1.1s-3.2-1.8-4.3-3.1
		c-1-1.4-1.8-3-2.2-4.8s-0.7-3.9-0.7-6.3v-16.3c0-2.5,0.2-4.6,0.7-6.5c0.5-1.8,1.2-3.4,2.2-4.8c1-1.4,2.5-2.4,4.2-3.1
		c1.8-0.7,4-1,6.6-1c2.5,0,4.6,0.3,6.3,0.9c1.7,0.6,3.1,1.5,4.1,2.8c1,1.2,1.7,2.6,2.1,4.1s0.6,3.3,0.6,5.4v4h-9.9v-4.6
		c0-0.7,0-1.3,0-1.6c0-0.4-0.1-0.8-0.2-1.4c-0.1-0.6-0.3-1-0.5-1.3c-0.2-0.3-0.5-0.6-1-0.8s-1-0.3-1.6-0.3c-0.6,0-1.2,0.1-1.6,0.3
		s-0.8,0.5-1,0.8c-0.2,0.3-0.4,0.8-0.6,1.3c-0.1,0.6-0.2,1.1-0.2,1.5s0,1,0,1.7v21.3c0,1.8,0.2,3.2,0.7,4.2s1.4,1.4,2.7,1.4
		c0.6,0,1.1-0.1,1.6-0.3c0.4-0.2,0.8-0.5,1-0.8s0.4-0.8,0.5-1.3c0.1-0.6,0.2-1.1,0.2-1.5s0-1,0-1.7v-4.8h9.9v3.9
		c0,1.6-0.1,3.1-0.4,4.4c-0.3,1.3-0.7,2.6-1.3,3.7c-0.6,1.2-1.4,2.1-2.4,2.9c-1,0.8-2.2,1.4-3.8,1.9
		C310,342.5,308.3,342.7,306.3,342.7z"/>
	<path fill="#FFFFFF" stroke="#FFFFFF" stroke-miterlimit="10" d="M330.6,342.1v-45.8h20.6v6.9h-10.5v11.3h8v7h-8v13.7h10.6v6.8
		H330.6z"/>
	<path fill="#FFFFFF" stroke="#FFFFFF" stroke-miterlimit="10" d="M361.5,342.1v-45.8h7.1l9.4,22v-22h8.4v45.8h-6.8l-9.4-23.7v23.7
		H361.5z"/>
	<path fill="#FFFFFF" stroke="#FFFFFF" stroke-miterlimit="10" d="M403,342.1v-38.3h-7v-7.5h24.1v7.5h-7v38.3H403z"/>
	<path fill="#FFFFFF" stroke="#FFFFFF" stroke-miterlimit="10" d="M429.6,342.1v-45.8h12.5c1.9,0,3.6,0.1,5.1,0.3s2.9,0.6,4.2,1.2
		c1.3,0.6,2.4,1.3,3.2,2.2c0.8,0.9,1.5,2.1,2,3.5c0.5,1.4,0.7,3.1,0.7,5c0,3-0.4,5.4-1.2,7.2c-0.8,1.8-2.3,3.2-4.4,4.2l6.3,22.2
		h-10.5l-5-20.5h-2.8v20.5H429.6z M439.7,315.8h2.6c2.1,0,3.5-0.5,4.4-1.6c0.8-1.1,1.3-2.7,1.3-4.8c0-2.1-0.4-3.7-1.1-4.7
		c-0.8-1-2.1-1.5-4-1.5h-3.1V315.8z"/>
	<path fill="#FFFFFF" stroke="#FFFFFF" stroke-miterlimit="10" d="M466.9,342.1l8.7-45.8H487l8.6,45.8h-9.3l-1.6-9.7H478l-1.5,9.7
		H466.9z M478.9,326.3h4.9l-2.5-17.7L478.9,326.3z"/>
	<path fill="#FFFFFF" stroke="#FFFFFF" stroke-miterlimit="10" d="M505.8,342.1v-45.8h10.1v38.9h10.5v6.8H505.8z"/>
	<path fill="#FFFFFF" stroke="#FFFFFF" stroke-miterlimit="10" d="M120.2,409.9v-45.8h7.1l9.4,22v-22h8.4v45.8h-6.8l-9.4-23.7v23.7
		H120.2z"/>
	<path fill="#FFFFFF" stroke="#FFFFFF" stroke-miterlimit="10" d="M170.6,410.5c-2.5,0-4.7-0.3-6.5-1c-1.8-0.7-3.2-1.7-4.3-3
		c-1.1-1.3-1.8-2.9-2.3-4.7c-0.5-1.8-0.7-3.9-0.7-6.4v-16.9c0-2.5,0.2-4.6,0.7-6.4c0.5-1.8,1.2-3.4,2.3-4.7c1.1-1.3,2.5-2.3,4.3-3
		c1.8-0.7,4-1,6.5-1c4.9,0,8.5,1.3,10.6,3.8c2.1,2.5,3.2,6.3,3.2,11.2v16.9c0,5-1.1,8.7-3.2,11.3
		C179.1,409.3,175.6,410.5,170.6,410.5z M169.1,403.1c0.4,0.2,1,0.3,1.6,0.3s1.1-0.1,1.6-0.3s0.8-0.5,1-0.8c0.2-0.3,0.4-0.7,0.6-1.3
		c0.1-0.5,0.2-1,0.3-1.4c0-0.5,0.1-1,0.1-1.6V376c0-0.6,0-1.1-0.1-1.6c0-0.5-0.1-0.9-0.3-1.4c-0.1-0.5-0.3-0.9-0.6-1.2
		c-0.2-0.3-0.6-0.6-1-0.8c-0.4-0.2-1-0.3-1.6-0.3s-1.1,0.1-1.6,0.3c-0.4,0.2-0.8,0.5-1,0.8c-0.2,0.3-0.4,0.7-0.6,1.2
		c-0.1,0.5-0.2,1-0.2,1.4c0,0.4,0,1,0,1.6V398c0,0.6,0,1.2,0,1.6c0,0.4,0.1,0.9,0.2,1.4c0.1,0.5,0.3,0.9,0.6,1.3
		C168.3,402.6,168.6,402.8,169.1,403.1z"/>
	<path fill="#FFFFFF" stroke="#FFFFFF" stroke-miterlimit="10" d="M216.3,409.9v-45.8h12.5c1.9,0,3.6,0.1,5.1,0.3s2.9,0.6,4.2,1.2
		c1.3,0.6,2.4,1.3,3.2,2.2c0.8,0.9,1.5,2.1,2,3.5c0.5,1.4,0.7,3.1,0.7,5c0,3-0.4,5.4-1.2,7.2c-0.8,1.8-2.3,3.2-4.4,4.2l6.3,22.2
		h-10.5l-5-20.5h-2.8v20.5H216.3z M226.4,383.6h2.6c2.1,0,3.5-0.5,4.4-1.6c0.8-1.1,1.3-2.7,1.3-4.8c0-2.1-0.4-3.7-1.1-4.7
		c-0.8-1-2.1-1.5-4-1.5h-3.1V383.6z"/>
	<path fill="#FFFFFF" stroke="#FFFFFF" stroke-miterlimit="10" d="M268.9,410.5c-2.5,0-4.7-0.3-6.5-1c-1.8-0.7-3.2-1.7-4.3-3
		c-1.1-1.3-1.8-2.9-2.3-4.7c-0.5-1.8-0.7-3.9-0.7-6.4v-16.9c0-2.5,0.2-4.6,0.7-6.4c0.5-1.8,1.2-3.4,2.3-4.7c1.1-1.3,2.5-2.3,4.3-3
		c1.8-0.7,4-1,6.5-1c4.9,0,8.5,1.3,10.6,3.8s3.2,6.3,3.2,11.2v16.9c0,5-1.1,8.7-3.2,11.3C277.4,409.3,273.9,410.5,268.9,410.5z
		 M267.4,403.1c0.4,0.2,1,0.3,1.6,0.3s1.1-0.1,1.6-0.3s0.8-0.5,1-0.8c0.2-0.3,0.4-0.7,0.6-1.3s0.2-1,0.3-1.4c0-0.5,0.1-1,0.1-1.6
		V376c0-0.6,0-1.1-0.1-1.6c0-0.5-0.1-0.9-0.3-1.4s-0.3-0.9-0.6-1.2c-0.2-0.3-0.6-0.6-1-0.8c-0.4-0.2-1-0.3-1.6-0.3s-1.1,0.1-1.6,0.3
		c-0.4,0.2-0.8,0.5-1,0.8c-0.2,0.3-0.4,0.7-0.6,1.2c-0.1,0.5-0.2,1-0.2,1.4c0,0.4,0,1,0,1.6V398c0,0.6,0,1.2,0,1.6
		c0,0.4,0.1,0.9,0.2,1.4c0.1,0.5,0.3,0.9,0.6,1.3C266.6,402.6,266.9,402.8,267.4,403.1z"/>
	<path fill="#FFFFFF" stroke="#FFFFFF" stroke-miterlimit="10" d="M291.8,411v-7c0.1,0,0.2,0,0.4,0c1.9,0,3.3-0.3,4-0.9
		c0.8-0.6,1.2-1.9,1.2-3.8v-35.2h10.1v35.6c0,2-0.2,3.6-0.6,5s-0.9,2.5-1.7,3.5c-0.8,1-1.9,1.7-3.3,2.2c-1.4,0.5-3.1,0.7-5.2,0.7
		H291.8z"/>
	<path fill="#FFFFFF" stroke="#FFFFFF" stroke-miterlimit="10" d="M319.9,409.9v-45.8H330v45.8H319.9z"/>
	<path fill="#FFFFFF" stroke="#FFFFFF" stroke-miterlimit="10" d="M340.8,409.9v-6.1l11.1-32.8h-10.7v-6.9h20.7v5.6l-11.4,33.3H362
		v6.8H340.8z"/>
	<path fill="#FFFFFF" stroke="#FFFFFF" stroke-miterlimit="10" d="M385.7,410.5c-2.5,0-4.7-0.3-6.5-1c-1.8-0.7-3.2-1.7-4.3-3
		c-1.1-1.3-1.8-2.9-2.3-4.7s-0.7-3.9-0.7-6.4v-16.9c0-2.5,0.2-4.6,0.7-6.4c0.5-1.8,1.2-3.4,2.3-4.7c1.1-1.3,2.5-2.3,4.3-3
		c1.8-0.7,4-1,6.5-1c4.9,0,8.5,1.3,10.6,3.8c2.1,2.5,3.2,6.3,3.2,11.2v16.9c0,5-1.1,8.7-3.2,11.3
		C394.2,409.3,390.6,410.5,385.7,410.5z M384.1,403.1c0.4,0.2,1,0.3,1.6,0.3c0.6,0,1.1-0.1,1.6-0.3s0.8-0.5,1-0.8
		c0.2-0.3,0.4-0.7,0.6-1.3c0.1-0.5,0.2-1,0.3-1.4c0-0.5,0.1-1,0.1-1.6V376c0-0.6,0-1.1-0.1-1.6c0-0.5-0.1-0.9-0.3-1.4
		c-0.1-0.5-0.3-0.9-0.6-1.2c-0.2-0.3-0.6-0.6-1-0.8c-0.4-0.2-1-0.3-1.6-0.3c-0.6,0-1.1,0.1-1.6,0.3c-0.4,0.2-0.8,0.5-1,0.8
		c-0.2,0.3-0.4,0.7-0.6,1.2s-0.2,1-0.2,1.4c0,0.4,0,1,0,1.6V398c0,0.6,0,1.2,0,1.6c0,0.4,0.1,0.9,0.2,1.4c0.1,0.5,0.3,0.9,0.6,1.3
		C383.4,402.6,383.7,402.8,384.1,403.1z"/>
	<path fill="#FFFFFF" stroke="#FFFFFF" stroke-miterlimit="10" d="M437.2,409.9v-18.7l-8.7-27h9.5l4.4,14.5l3.9-14.5h9.2l-8.6,27
		v18.7H437.2z"/>
	<path fill="#FFFFFF" stroke="#FFFFFF" stroke-miterlimit="10" d="M117.1,478.4c-4.3,0-7.6-1.2-9.7-3.5s-3.3-6-3.4-11.1l8.7-1.3
		c0,2.9,0.4,5,1,6.2c0.7,1.3,1.6,1.9,2.9,1.9c1.7,0,2.6-1.1,2.6-3.3c0-1.2-0.2-2.4-0.7-3.4s-1-1.9-1.6-2.7c-0.6-0.7-1.5-1.6-2.7-2.6
		l-4.1-3.5c-1-0.8-1.8-1.6-2.4-2.3c-0.6-0.7-1.3-1.5-1.9-2.5s-1.1-2-1.4-3.2c-0.3-1.2-0.4-2.5-0.4-3.9c0-3.8,1.1-6.8,3.4-8.8
		c2.3-2.1,5.4-3.1,9.4-3.1c1.4,0,2.6,0.1,3.7,0.4c1.1,0.3,2.1,0.7,2.8,1.2c0.8,0.5,1.4,1.1,2,1.8s1,1.5,1.4,2.2
		c0.3,0.7,0.6,1.5,0.9,2.5c0.2,0.9,0.4,1.7,0.5,2.5c0.1,0.8,0.1,1.6,0.2,2.4l-8.7,1.1c0-0.8,0-1.4-0.1-1.9c0-0.5-0.1-1-0.2-1.6
		c-0.1-0.6-0.2-1-0.3-1.4s-0.3-0.7-0.5-1c-0.2-0.3-0.5-0.5-0.8-0.6c-0.3-0.1-0.7-0.2-1.1-0.2c-0.9,0-1.6,0.4-2,1.1
		c-0.5,0.7-0.7,1.5-0.7,2.4c0,0.9,0.1,1.7,0.3,2.4c0.2,0.7,0.6,1.4,1.1,2.1c0.5,0.7,1,1.2,1.3,1.5c0.3,0.3,0.9,0.8,1.7,1.5l3.9,3.4
		c1.1,1,2,1.9,2.8,2.7c0.8,0.9,1.5,1.9,2.2,3s1.2,2.3,1.6,3.7c0.4,1.3,0.5,2.8,0.5,4.3c0,3.3-1.1,6.1-3.3,8.2
		C123.6,477.3,120.7,478.4,117.1,478.4z"/>
	<path fill="#FFFFFF" stroke="#FFFFFF" stroke-miterlimit="10" d="M139.8,477.7V432h10.1v45.8H139.8z"/>
	<path fill="#FFFFFF" stroke="#FFFFFF" stroke-miterlimit="10" d="M162.3,477.7V432h7.1l9.4,22v-22h8.4v45.8h-6.8l-9.4-23.7v23.7
		H162.3z"/>
	<path fill="#FFFFFF" stroke="#FFFFFF" stroke-miterlimit="10" d="M219.7,477.7V432H235c4,0,7.1,1.1,9.1,3.4c2,2.3,3,5.6,3,9.9
		c0,1.7-0.2,3.2-0.5,4.6c-0.3,1.4-0.8,2.5-1.3,3.4c-0.6,0.9-1.3,1.7-2,2.4c-0.8,0.7-1.7,1.2-2.7,1.5c-1,0.4-2.1,0.6-3.2,0.8
		c-1.1,0.2-2.3,0.2-3.6,0.2h-4v19.5H219.7z M229.8,451.2h3.2c1.8,0,3-0.5,3.6-1.4s0.9-2.5,0.9-4.7c0-0.8,0-1.5-0.1-2
		c0-0.5-0.2-1.1-0.3-1.6s-0.4-1-0.7-1.3c-0.3-0.3-0.8-0.6-1.3-0.8c-0.6-0.2-1.3-0.3-2.1-0.3h-3.2V451.2z"/>
	<path fill="#FFFFFF" stroke="#FFFFFF" stroke-miterlimit="10" d="M257.5,477.7V432H278v6.9h-10.5v11.3h8v7h-8v13.7h10.6v6.8H257.5z
		"/>
	<path fill="#FFFFFF" stroke="#FFFFFF" stroke-miterlimit="10" d="M288.4,477.7V432h10.1v38.9h10.5v6.8H288.4z"/>
	<path fill="#FFFFFF" stroke="#FFFFFF" stroke-miterlimit="10" d="M331.6,478.4c-2.5,0-4.7-0.3-6.5-1c-1.8-0.7-3.2-1.7-4.3-3
		c-1.1-1.3-1.8-2.9-2.3-4.7c-0.5-1.8-0.7-3.9-0.7-6.4v-16.9c0-2.5,0.2-4.6,0.7-6.4c0.5-1.8,1.2-3.4,2.3-4.7c1.1-1.3,2.5-2.3,4.3-3
		c1.8-0.7,4-1,6.5-1c4.9,0,8.5,1.3,10.6,3.8c2.1,2.5,3.2,6.3,3.2,11.2v16.9c0,5-1.1,8.7-3.2,11.3
		C340.1,477.1,336.5,478.4,331.6,478.4z M330,470.9c0.4,0.2,1,0.3,1.6,0.3s1.1-0.1,1.6-0.3s0.8-0.5,1-0.8c0.2-0.3,0.4-0.7,0.6-1.3
		c0.1-0.5,0.2-1,0.3-1.4c0-0.5,0.1-1,0.1-1.6v-21.9c0-0.6,0-1.1-0.1-1.6c0-0.5-0.1-0.9-0.3-1.4c-0.1-0.5-0.3-0.9-0.6-1.2
		c-0.2-0.3-0.6-0.6-1-0.8c-0.4-0.2-1-0.3-1.6-0.3s-1.1,0.1-1.6,0.3c-0.4,0.2-0.8,0.5-1,0.8c-0.2,0.3-0.4,0.7-0.6,1.2
		c-0.1,0.5-0.2,1-0.2,1.4c0,0.4,0,1,0,1.6v21.9c0,0.6,0,1.2,0,1.6c0,0.4,0.1,0.9,0.2,1.4c0.1,0.5,0.3,0.9,0.6,1.3
		C329.3,470.4,329.6,470.7,330,470.9z"/>
	<path fill="#FFFFFF" stroke="#FFFFFF" stroke-miterlimit="10" d="M369.3,478.4c-4.3,0-7.6-1.2-9.7-3.5s-3.3-6-3.4-11.1l8.7-1.3
		c0,2.9,0.4,5,1,6.2s1.6,1.9,2.9,1.9c1.7,0,2.6-1.1,2.6-3.3c0-1.2-0.2-2.4-0.7-3.4s-1-1.9-1.6-2.7c-0.6-0.7-1.5-1.6-2.7-2.6
		l-4.1-3.5c-1-0.8-1.8-1.6-2.4-2.3c-0.6-0.7-1.3-1.5-1.9-2.5c-0.6-1-1.1-2-1.4-3.2c-0.3-1.2-0.4-2.5-0.4-3.9c0-3.8,1.1-6.8,3.4-8.8
		c2.3-2.1,5.4-3.1,9.4-3.1c1.4,0,2.6,0.1,3.7,0.4c1.1,0.3,2.1,0.7,2.8,1.2c0.8,0.5,1.4,1.1,2,1.8c0.6,0.7,1,1.5,1.4,2.2
		c0.3,0.7,0.6,1.5,0.9,2.5c0.2,0.9,0.4,1.7,0.5,2.5c0.1,0.8,0.1,1.6,0.2,2.4l-8.7,1.1c0-0.8,0-1.4-0.1-1.9c0-0.5-0.1-1-0.2-1.6
		c-0.1-0.6-0.2-1-0.3-1.4s-0.3-0.7-0.5-1c-0.2-0.3-0.5-0.5-0.8-0.6c-0.3-0.1-0.7-0.2-1.1-0.2c-0.9,0-1.6,0.4-2,1.1
		c-0.5,0.7-0.7,1.5-0.7,2.4c0,0.9,0.1,1.7,0.3,2.4s0.6,1.4,1.1,2.1c0.5,0.7,1,1.2,1.3,1.5c0.3,0.3,0.9,0.8,1.7,1.5l3.9,3.4
		c1.1,1,2,1.9,2.8,2.7c0.8,0.9,1.5,1.9,2.2,3s1.2,2.3,1.6,3.7c0.4,1.3,0.5,2.8,0.5,4.3c0,3.3-1.1,6.1-3.3,8.2
		C375.8,477.3,372.9,478.4,369.3,478.4z"/>
	<path fill="#FFFFFF" stroke="#FFFFFF" stroke-miterlimit="10" d="M412,477.7V432h20.6v6.9h-10.5v11.3h8v7h-8v13.7h10.6v6.8H412z"/>
	<path fill="#FFFFFF" stroke="#FFFFFF" stroke-miterlimit="10" d="M442.9,477.7V432h7.1l9.4,22v-22h8.4v45.8H461l-9.4-23.7v23.7
		H442.9z"/>
	<path fill="#FFFFFF" stroke="#FFFFFF" stroke-miterlimit="10" d="M97.6,545.5v-45.8h20.6v6.9h-10.5V518h8v7h-8v13.7h10.6v6.8H97.6z
		"/>
	<path fill="#FFFFFF" stroke="#FFFFFF" stroke-miterlimit="10" d="M128.5,545.5v-45.8h10.1v38.9h10.5v6.8H128.5z"/>
	<path fill="#FFFFFF" stroke="#FFFFFF" stroke-miterlimit="10" d="M179.3,545.5v-45.8h15.3c4,0,7.1,1.1,9.1,3.4c2,2.3,3,5.6,3,9.9
		c0,1.7-0.2,3.2-0.5,4.6s-0.7,2.5-1.3,3.4s-1.3,1.7-2,2.4c-0.8,0.7-1.7,1.2-2.7,1.5c-1,0.4-2.1,0.6-3.2,0.8
		c-1.1,0.2-2.3,0.2-3.6,0.2h-4v19.5H179.3z M189.4,519h3.2c1.8,0,3-0.5,3.6-1.4s0.9-2.5,0.9-4.7c0-0.8,0-1.5-0.1-2
		c0-0.5-0.2-1.1-0.3-1.6c-0.2-0.6-0.4-1-0.7-1.3c-0.3-0.3-0.8-0.6-1.3-0.8s-1.3-0.3-2.1-0.3h-3.2V519z"/>
	<path fill="#FFFFFF" stroke="#FFFFFF" stroke-miterlimit="10" d="M217,545.5v-45.8h20.6v6.9h-10.5V518h8v7h-8v13.7h10.6v6.8H217z"
		/>
	<path fill="#FFFFFF" stroke="#FFFFFF" stroke-miterlimit="10" d="M247.9,545.5v-45.8h11.5c3,0,5.5,0.3,7.5,0.8
		c2,0.5,3.6,1.4,4.7,2.6c1.2,1.2,2,2.7,2.5,4.5c0.5,1.8,0.7,4,0.7,6.6v16.5c0,2.7-0.2,4.9-0.7,6.7c-0.5,1.8-1.3,3.3-2.5,4.6
		c-1.2,1.2-2.7,2.1-4.7,2.7s-4.4,0.8-7.4,0.8H247.9z M258,538.5h1.5c0.8,0,1.4-0.1,2-0.2c0.5-0.1,1-0.3,1.4-0.5s0.6-0.5,0.9-0.8
		c0.2-0.3,0.4-0.7,0.5-1.2c0.1-0.5,0.2-1.1,0.2-1.5c0-0.5,0-1.1,0-2v-19.7c0-1.2,0-2.1-0.1-2.7c-0.1-0.6-0.3-1.2-0.6-1.7
		c-0.3-0.5-0.8-0.9-1.5-1.1c-0.7-0.2-1.5-0.3-2.7-0.3H258V538.5z"/>
	<path fill="#FFFFFF" stroke="#FFFFFF" stroke-miterlimit="10" d="M299.8,546.2c-2.1,0-3.9-0.2-5.5-0.6c-1.6-0.4-2.8-1-3.9-1.8
		s-1.8-1.8-2.5-3.1c-0.6-1.3-1.1-2.6-1.3-4.2c-0.3-1.5-0.4-3.3-0.4-5.3v-31.3h10v32.8c0,0.7,0,1.3,0.1,1.8c0,0.5,0.1,1.1,0.3,1.6
		c0.1,0.6,0.3,1.1,0.6,1.4c0.2,0.4,0.6,0.7,1,0.9c0.5,0.2,1,0.4,1.6,0.4s1.2-0.1,1.6-0.4c0.4-0.2,0.8-0.6,1-0.9
		c0.2-0.4,0.4-0.9,0.6-1.4c0.1-0.6,0.2-1.1,0.3-1.7c0-0.5,0.1-1.1,0.1-1.8v-32.8h10v31.3c0,2.5-0.2,4.7-0.6,6.5s-1.2,3.3-2.2,4.7
		s-2.4,2.3-4.2,2.9S302.4,546.2,299.8,546.2z M296.9,495.8l3.5-11.4h9.4l-7.1,11.4H296.9z"/>
	<path fill="#FFFFFF" stroke="#FFFFFF" stroke-miterlimit="10" d="M325.4,545.5v-45.8h7.1l9.4,22v-22h8.4v45.8h-6.8l-9.4-23.7v23.7
		H325.4z"/>
	<path fill="#FFFFFF" stroke="#FFFFFF" stroke-miterlimit="10" d="M375.8,546.2c-2.6,0-4.7-0.4-6.5-1.1c-1.8-0.7-3.2-1.8-4.3-3.1
		c-1-1.4-1.8-3-2.2-4.8c-0.5-1.8-0.7-3.9-0.7-6.3v-16.3c0-2.5,0.2-4.6,0.7-6.5c0.5-1.8,1.2-3.4,2.2-4.8c1-1.4,2.5-2.4,4.2-3.1
		s4-1,6.6-1c2.5,0,4.6,0.3,6.3,0.9c1.7,0.6,3.1,1.5,4.1,2.8c1,1.2,1.7,2.6,2.1,4.1c0.4,1.5,0.6,3.3,0.6,5.4v4h-9.9v-4.6
		c0-0.7,0-1.3,0-1.6c0-0.4-0.1-0.8-0.2-1.4c-0.1-0.6-0.3-1-0.5-1.3c-0.2-0.3-0.5-0.6-1-0.8s-1-0.3-1.6-0.3c-0.6,0-1.2,0.1-1.6,0.3
		c-0.4,0.2-0.8,0.5-1,0.8c-0.2,0.3-0.4,0.8-0.6,1.3c-0.1,0.6-0.2,1.1-0.2,1.5s0,1,0,1.7v21.3c0,1.8,0.2,3.2,0.7,4.2s1.4,1.4,2.7,1.4
		c0.6,0,1.1-0.1,1.6-0.3c0.4-0.2,0.8-0.5,1-0.8s0.4-0.8,0.5-1.3c0.1-0.6,0.2-1.1,0.2-1.5c0-0.4,0-1,0-1.7v-4.8h9.9v3.9
		c0,1.6-0.1,3.1-0.4,4.4c-0.3,1.3-0.7,2.6-1.3,3.7c-0.6,1.2-1.4,2.1-2.4,2.9c-1,0.8-2.2,1.4-3.8,1.9
		C379.6,545.9,377.8,546.2,375.8,546.2z"/>
	<path fill="#FFFFFF" stroke="#FFFFFF" stroke-miterlimit="10" d="M413.3,546.2c-2.1,0-3.9-0.2-5.5-0.6c-1.6-0.4-2.8-1-3.9-1.8
		c-1-0.8-1.8-1.8-2.5-3.1c-0.6-1.3-1.1-2.6-1.3-4.2s-0.4-3.3-0.4-5.3v-31.3h10v32.8c0,0.7,0,1.3,0.1,1.8c0,0.5,0.1,1.1,0.3,1.6
		c0.1,0.6,0.3,1.1,0.6,1.4s0.6,0.7,1,0.9c0.5,0.2,1,0.4,1.6,0.4c0.6,0,1.2-0.1,1.6-0.4c0.4-0.2,0.8-0.6,1-0.9
		c0.2-0.4,0.4-0.9,0.6-1.4s0.2-1.1,0.3-1.7c0-0.5,0.1-1.1,0.1-1.8v-32.8h10v31.3c0,2.5-0.2,4.7-0.6,6.5c-0.4,1.8-1.2,3.3-2.2,4.7
		s-2.4,2.3-4.2,2.9S415.9,546.2,413.3,546.2z"/>
	<path fill="#FFFFFF" stroke="#FFFFFF" stroke-miterlimit="10" d="M438.9,545.5v-45.8H449v38.9h10.5v6.8H438.9z"/>
	<path fill="#FFFFFF" stroke="#FFFFFF" stroke-miterlimit="10" d="M482.2,546.2c-2.5,0-4.7-0.3-6.5-1c-1.8-0.7-3.2-1.7-4.3-3
		c-1.1-1.3-1.8-2.9-2.3-4.7c-0.5-1.8-0.7-3.9-0.7-6.4v-16.9c0-2.5,0.2-4.6,0.7-6.4c0.5-1.8,1.2-3.4,2.3-4.7c1.1-1.3,2.5-2.3,4.3-3
		c1.8-0.7,4-1,6.5-1c4.9,0,8.5,1.3,10.6,3.8s3.2,6.3,3.2,11.2v16.9c0,5-1.1,8.7-3.2,11.3C490.6,544.9,487.1,546.2,482.2,546.2z
		 M480.6,538.7c0.4,0.2,1,0.3,1.6,0.3s1.1-0.1,1.6-0.3s0.8-0.5,1-0.8c0.2-0.3,0.4-0.7,0.6-1.3s0.2-1,0.3-1.4c0-0.5,0.1-1,0.1-1.6
		v-21.9c0-0.6,0-1.1-0.1-1.6c0-0.5-0.1-0.9-0.3-1.4s-0.3-0.9-0.6-1.2c-0.2-0.3-0.6-0.6-1-0.8c-0.4-0.2-1-0.3-1.6-0.3
		s-1.1,0.1-1.6,0.3c-0.4,0.2-0.8,0.5-1,0.8c-0.2,0.3-0.4,0.7-0.6,1.2c-0.1,0.5-0.2,1-0.2,1.4c0,0.4,0,1,0,1.6v21.9
		c0,0.6,0,1.2,0,1.6c0,0.4,0.1,0.9,0.2,1.4c0.1,0.5,0.3,0.9,0.6,1.3C479.8,538.2,480.2,538.5,480.6,538.7z"/>
</g>
</svg>
