<?xml version="1.0" encoding="utf-8"?>
<!-- Generator: Adobe Illustrator 18.0.0, SVG Export Plug-In . SVG Version: 6.00 Build 0)  -->
<!DOCTYPE svg PUBLIC "-//W3C//DTD SVG 1.1//EN" "http://www.w3.org/Graphics/SVG/1.1/DTD/svg11.dtd">
<svg version="1.1" id="Capa_1" xmlns="http://www.w3.org/2000/svg" xmlns:xlink="http://www.w3.org/1999/xlink" x="0px" y="0px"
	 viewBox="0 0 500 500" enable-background="new 0 0 500 500" xml:space="preserve">
<g>
	<g>
		<g>
			<path fill="#FFFFFF" stroke="#FFFFFF" stroke-miterlimit="10" d="M81.1,149.3V72.4H98c14.9,0,24.5,5.3,24.5,20.2
				c0,6.7-0.9,15.4-10.5,19.5c3.8,12.2,7.7,24.4,12,37.2H108l-8.8-35.4h-2.6v35.4H81.1z M96.7,104.4h4.4c5.2,0,6-7.6,6-10.5
				c0-2.8-0.6-10.1-5.3-10.1h-5.2V104.4z"/>
			<path fill="#FFFFFF" stroke="#FFFFFF" stroke-miterlimit="10" d="M137.4,120.7V72.4H153v47.8c0,12.9,0,18.5,6.9,18.5
				c6.9,0,6.9-5.6,6.9-18.5V72.4h15.5v48.3c0,15.8-2.9,30.1-22.4,30.1C140.3,150.8,137.4,136.6,137.4,120.7z"/>
			<path fill="#FFFFFF" stroke="#FFFFFF" stroke-miterlimit="10" d="M198.8,125.2V98.2c0-15.4,5.4-27.2,22.7-27.2
				c16.2,0,22,10.8,22,25.6v4.5h-14.9v-5.4c0-5.6-0.6-12.8-7.1-12.8c-6.1,0-7.1,6.3-7.1,11.4v33.2c0,5.1,1,11.3,7.1,11.3
				s7.1-6.7,7.1-11.7v-6.2h-8.8v-11.1h24.3v39.5h-10.7l-2-5.4c-2.6,4.1-8,6.9-13.1,6.9C204,150.8,198.8,137.2,198.8,125.2z"/>
			<path fill="#FFFFFF" stroke="#FFFFFF" stroke-miterlimit="10" d="M260.5,124V98.2c0-15.2,5.3-27.2,22.5-27.2
				c17.1,0,22.5,12,22.5,27.2v25.5c0,14.8-5.5,27.2-22.5,27.2C266,150.8,260.5,138.8,260.5,124z M289.9,127.5V94.3
				c0-4.9-1-11.4-7-11.4c-5.9,0-6.9,6.5-6.9,11.4v33.2c0,4.9,1,11.3,6.9,11.3C288.9,138.8,289.9,132.5,289.9,127.5z"/>
			<path fill="#FFFFFF" stroke="#FFFFFF" stroke-miterlimit="10" d="M320.2,127.3l15.8-3c0,6.7,0.6,14.7,5.9,14.7
				c3.7,0,4.6-2.6,4.6-5.9c0-6.4-4.6-12.1-9.1-16.1l-4.8-4.1c-6.1-5.1-12.3-10.8-12.3-21.8c0-12.6,8.8-20.2,21.7-20.2
				c10.9,0,19.6,8.9,19.6,19.8c0,0.3,0,0.6,0,1.8l-16.1,2.2c0-1,0.1-1.9,0.1-3.1c0-3.6-0.8-8.8-4.9-8.8c-3.7,0-5.1,3.5-5.1,6.7
				c0,5.5,2.9,8.9,6.6,12c2,1.7,3.9,3.2,5.7,4.9c7.9,7,13.8,14.3,13.8,26.1c0,11-9.1,18.4-19.8,18.4
				C327.1,150.9,320.8,139.3,320.2,127.3z"/>
			<path fill="#FFFFFF" stroke="#FFFFFF" stroke-miterlimit="10" d="M371.9,149.3l16.6-76.9h13.8l16.6,76.9h-15.3l-3.2-16.4h-10
				l-3,16.4H371.9z M391.4,123.3h7.9l-3.9-28.5L391.4,123.3z"/>
		</g>
	</g>
	<g>
		<g>
			<g>
				<g>
					<path fill="#59704B" d="M154.9,384.8c11.3,7.1,11.3,4.6,19.8,8.9s18.2,5.1,27.7,5.9c22.6,1.8,46.2,3.3,67.2-5.3
						c29.8-12.1,48.4-41.8,62-71s24.7-60.6,47.2-83.6c-21.4-9.5-46-9.9-68.9-5c-22.9,4.9-44.4,14.9-65.1,25.7
						c-32.9,17.2-65.5,37.4-87.5,67.3c-6.4,8.6-11.9,18.4-12.3,29.1C144.5,367.5,138.5,370.3,154.9,384.8"/>
				</g>
			</g>
			<g>
				<g>
					<path fill="#59704B" d="M133.5,408c4.5-7.1,9-14.2,13.6-21.3c3.7-5.8,9.1-14.6,17.3-12.7c0-3.2,0-6.4,0-9.6
						c-26.6,9-44.9,36.7-41.7,64.8c0.7,6.3,10.7,6.4,10,0c-2.7-23.6,11.7-47.4,34.4-55.1c4.4-1.5,5.1-8.5,0-9.6
						c-9.3-2.2-17.4,2.4-23.1,9.5c-7.3,8.9-12.9,19.5-19,29.1C121.3,408.5,130,413.5,133.5,408L133.5,408z"/>
				</g>
			</g>
		</g>
		<g>
			<path fill="#59704B" d="M144.4,377.7c1.8-5-2.6-11-7.9-10.9c7.6-1.5,10.5-13.3,4.4-18.1c5.1,1.9,11.6-0.9,13.6-6
				c2.1-5.1-0.6-11.6-5.6-13.8c3.6,2.5,9.2,1.6,11.8-2c2.6-3.6,1.7-9.2-1.8-11.8c3.7,1.5,8.4,1.2,11.3-1.6c2.9-2.7,3.5-8,0.6-10.8
				c3.1,3.3,8.9,3.7,12.3,0.7c3.4-3,3.9-8.8,1-12.3c3.3,2.8,8.7,2.7,11.8-0.2s3.7-8.3,1.1-11.8c1.8,4.6,8.4,6.2,12.6,3.5
				c4.2-2.7,5.6-8.6,4-13.3c1.6,4.4,7.9,6.1,11.8,3.5c3.9-2.6,4.9-8.5,2.4-12.6c2.2,3.5,7.1,5,10.8,3.3c3.8-1.7,5.9-6.3,4.7-10.3
				c1.2,4.4,7.4,6,11.3,3.7c4-2.3,5.9-7.1,6.3-11.6c0.1,5,7.4,7.4,11.5,4.4c4.1-3,4.9-8.9,3.7-13.8c2.3,3.4,7,4.8,10.8,3.3
				c3.8-1.5,6.1-5.9,5.4-9.9c1.1,5,6.6,8.6,11.7,7.5c5-1,8.7-6.5,7.8-11.5c0,4.6,4.2,8.8,8.9,8.8c4.6,0,8.9-4.2,8.9-8.8
				c0.2,4.7,4.6,8.8,9.3,8.4c4.7-0.4,8.5-5.3,7.5-9.8c-0.9,4.9,2.9,10.2,7.8,11s10.1-3.3,10.7-8.2c-1.2,4.1,1.3,9,5.3,10.5
				c4.1,1.4,9.1-0.8,10.7-4.8"/>
			<g>
				<path fill="#59704B" d="M145.6,378.1c1.6-6.2-2.7-12.1-9.1-12.5c0.1,0.8,0.2,1.6,0.3,2.5c8.6-2.3,11.6-14.2,5-20.2
					c-0.4,0.7-0.8,1.4-1.2,2.1c14.1,4.3,22.1-15.2,9-22c-1.4-0.7-2.7,1.4-1.3,2.2c10.6,6,20.6-7.7,11.5-15.8
					c-0.4,0.7-0.8,1.4-1.2,2.1c4.8,1.7,9.9,1,13.4-2.9c3-3.3,2.3-8.3-0.3-11.6c-0.6,0.6-1.2,1.2-1.8,1.8c9.1,8.4,22.5-2.9,15.3-13.2
					c-0.6,0.6-1.1,1.1-1.7,1.7c9.4,6.8,20.7-3.9,14.7-13.7c-0.9-1.4-2.9-0.2-2.2,1.3c2.4,4.9,8,6.5,13,4.6c6-2.2,7.4-9.9,5.9-15.3
					c-0.8,0.3-1.5,0.6-2.3,1c2.1,4.3,8,7,12.5,4.5c5.5-3,6.7-9.5,3.9-14.8c-0.7,0.4-1.4,0.8-2.2,1.3c6.7,9,20.1,3.1,17.9-8
					c-0.8,0.2-1.6,0.4-2.4,0.7c1.8,4.6,6.1,6.1,10.7,5.4c6.2-1,8.7-8.4,9.4-13.6c-0.8,0-1.7,0-2.5,0c0.7,5.5,6.1,7.8,11.2,6.6
					c6.8-1.6,7.6-10.8,6.5-16.3c-0.7,0.4-1.4,0.8-2.1,1.2c6.6,8.2,19.4,3,18.3-7.5c-0.8,0.1-1.6,0.2-2.5,0.3
					c4,13.3,23.3,9.6,21.9-4.3c-0.2-1.6-2.7-1.6-2.5,0c1.2,12.9,19,12.9,20.3,0c-0.8,0-1.7,0-2.5,0c0.7,5.6,4.8,9.6,10.6,9.7
					c5.6,0.1,9.4-6.1,8.8-11.1c-0.2-1.6-2.3-1.6-2.5,0c-1.4,13.8,18.3,16.6,21,3c0.3-1.6-2.1-2.2-2.4-0.7
					c-2.4,11.6,12.9,17.3,18.4,6.6c0.7-1.4-1.4-2.7-2.2-1.3c-4.1,8-15.6,4.3-13.8-4.7c-0.8-0.2-1.6-0.4-2.4-0.7
					c-2.1,10.8-17.1,8.5-16.1-2.4c-0.8,0-1.7,0-2.5,0c1.1,10-13.1,11.4-14.4,1.4c-0.2-1.6-2.3-1.6-2.5,0c-0.9,9.6-14.3,9.6-15.3,0
					c-0.8,0-1.7,0-2.5,0c1.1,10.8-13.8,14.4-17,3.7c-0.4-1.3-2.6-1.1-2.5,0.3c0.8,8.4-8.8,12.3-14.1,5.7c-0.9-1.1-2.3,0.1-2.1,1.2
					c0.9,4.2,0.6,8.3-2.3,11.7c-2.9,3.3-9.8,2.1-10.4-2.6c-0.2-1.6-2.3-1.6-2.5,0c-0.4,3.5-1.5,6.5-3.8,9.1
					c-3.1,3.4-9.6,3.1-11.4-1.5c-0.6-1.5-2.7-0.9-2.4,0.7c1.7,8.2-8.3,12.8-13.3,6c-0.9-1.3-2.9-0.2-2.2,1.3
					c1.8,3.5,1.4,7.3-1.2,10.3c-3.3,3.6-9.1,1.2-10.8-2.5c-0.6-1.3-2.7-0.4-2.3,1c1.3,4.4,0.4,8.9-3.4,11.8c-3.6,2.8-9,0.7-10.9-3
					c-0.7,0.4-1.4,0.8-2.2,1.3c4.8,7.7-4,15.6-11.3,10.3c-1-0.7-2.4,0.7-1.7,1.7c5.5,7.8-4.2,16.7-11.3,10.1
					c-1.2-1.1-2.8,0.5-1.8,1.8c3.3,4.1,0.8,9-3.5,10.7c-2.3,0.9-5,0.4-7.2-0.4c-1.2-0.4-2.1,1.3-1.2,2.1c7,6.2-0.4,16.5-8.5,11.9
					c-0.4,0.7-0.8,1.4-1.3,2.2c10.6,5.5,4.4,20.9-7,17.4c-1.2-0.4-2.1,1.2-1.2,2.1c5.2,4.8,3,14.2-3.8,16c-1.4,0.4-1,2.4,0.3,2.5
					c4.8,0.3,7.8,4.8,6.7,9.3C142.8,379,145.2,379.6,145.6,378.1L145.6,378.1z"/>
			</g>
		</g>
		<g>
			<path fill="#59704B" d="M152.7,378.1c2.8-0.8,6.2,1.4,6.5,4.3s-2.4,5.9-5.3,5.7c3.6-2.2,8.1-3.8,12.1-2.3c4,1.5,6.5,7,3.7,10.2
				c0.5-3.3,5.2-4.4,8-2.6c2.8,1.8,4.1,5.2,5.2,8.3c1-3.7,5.2-6.1,8.9-5.2s6.2,5.1,5.3,8.8c0.5-4.6,5-8.5,9.6-8.3
				c4.7,0.2,8.8,4.5,8.8,9.2c0.8-4.4,5.4-7.8,9.8-7.3s8.1,4.8,7.9,9.3c3-8.2,16.1-9.9,21.1-2.8c-1.3-4,2.1-8.5,6.3-9.5
				c4.2-1,8.5,0.7,12,3.1c0.2-3.9,2.9-7.5,6.5-8.8c3.6-1.3,8-0.4,10.7,2.4c-2.6-2.9-0.9-7.9,2.4-10c3.3-2.1,7.5-2,11.4-1.7
				c-4.8-1.1-5.8-8.3-2.6-12c3.2-3.7,8.7-4.5,13.6-3.9c-2.3-3.8-2.1-8.9,0.3-12.5c2.4-3.7,7.1-5.7,11.5-5.1
				c-4.6-2.3-4.3-9.6-0.5-13.2s9.3-4.3,14.5-4.6c-4.7,1.7-8.4-5.6-5.8-9.8c2.6-4.2,8-5.5,12.9-6.4c-5.4,1.5-9.4-6.4-6.7-11.3
				s8.8-6.7,14.4-7.3c-5.1-1.2-7.1-8.3-4.5-12.9c2.6-4.6,8.1-6.8,13.3-7.5c-5.3-0.5-6.4-8.7-2.6-12.4c3.8-3.7,9.6-4.1,14.9-4.2
				c-3.1,1.1-6.7-1.9-6.9-5.2s2.2-6.4,5.2-8s6.4-2,9.7-2.4c-0.8-3.4-1.6-6.7-2.4-10.1"/>
			<g>
				<path fill="#59704B" d="M153,379.3c0.3,2.5,0.6,5,0.8,7.6c0.2,0.8,0.4,1.6,0.6,2.3c2.7-1.6,5.2-2.6,8.4-2.7
					c4.6-0.2,8.4,4.9,5.7,8.9c0.8,0.3,1.5,0.6,2.3,1c1.7-5.5,7.2-1.3,8.6,0.8c1,1.5,1.6,3.3,2.2,5c0.4,1.2,2,1.2,2.4,0
					c2.7-7.2,12.9-4.7,11.8,3c-0.2,1.6,2.1,2.3,2.4,0.7c1.8-9.6,15-9.4,16,0.5c0.1,1.4,2.1,1.8,2.5,0.3c2.5-9,14.9-7.7,15.3,1.7
					c0,1.1,1.8,1.9,2.3,0.6c3.2-7.5,14-8.9,19.1-2.5c0.8,1.1,2.3-0.1,2.1-1.2c-0.9-4,1.9-6.8,5.4-7.9c3.8-1.2,8,1,11.1,3
					c0.9,0.6,1.8-0.2,1.9-1.1c1-7.6,9.4-10.5,15.1-5.5c1,0.9,2.8-0.3,2-1.5c-2.9-4.3,0.8-8.1,4.7-9.5c2.5-0.9,5.5-0.5,8-0.4
					c1.5,0.1,1.6-2,0.3-2.5c-5.6-2-3.7-8.9-0.1-11.6c3-2.2,7.2-2.2,10.7-1.9c1,0.1,1.5-1.1,1.1-1.9c-4.1-8,1.8-16.5,10.7-15.8
					c1.3,0.1,1.6-1.7,0.6-2.3c-4.2-2.6-3.2-8.1-0.3-11.2c3.2-3.5,9.2-3.9,13.6-4.2c-0.1-0.8-0.2-1.6-0.3-2.5c-3.5,0.8-4.8-2.8-5-5.3
					c-0.2-2.7,2.1-4.5,4-5.8c2.5-1.7,5.9-2.2,8.8-2.7c1.6-0.3,0.9-2.7-0.7-2.4c-6.8,1.1-6.7-8.1-3.9-11.4c2.8-3.3,7.9-4.2,11.9-4.7
					c1.4-0.2,1.8-2,0.3-2.5c-4.7-1.5-5.7-7-3.7-11.1c2.2-4.6,8-6.2,12.6-6.9c1.2-0.2,1.2-2.2,0-2.4c-4.9-0.9-4.7-7.2-2-10.3
					c3.2-3.7,9.6-3.7,14.1-3.8c-0.1-0.8-0.2-1.6-0.3-2.5c-5-0.9-6.5-3.4-4.4-7.5c0.9-1.5,2.1-2.7,3.7-3.5c2.5-1.6,6.2-1.9,9.1-2.3
					c0.8-0.1,1.4-0.7,1.2-1.6c-0.8-3.4-1.6-6.7-2.4-10.1c-0.4-1.6-2.8-0.9-2.4,0.7c0.8,3.4,1.6,6.7,2.4,10.1
					c0.4-0.5,0.8-1.1,1.2-1.6c-6.8,0.9-14,2.5-16,9.9c-1.3,5,3.7,9.1,8.3,8.2c1.4-0.3,1.1-2.5-0.3-2.5c-6.4,0.2-14.7,0.7-17.7,7.5
					c-2,4.5-0.1,10.6,5,11.6c0-0.8,0-1.6,0-2.4c-6.4,1-12.9,3.9-15,10.5c-1.6,5,1.3,10.7,6.2,12.3c0.1-0.8,0.2-1.6,0.3-2.5
					c-6,0.8-15.5,3.2-16.4,10.6c-0.6,5.5,3,11.4,9,10.4c-0.2-0.8-0.4-1.6-0.7-2.4c-5.1,1-14.1,3.1-14.6,9.7
					c-0.4,4.8,2.7,10.1,8.1,8.9c1.4-0.3,1.1-2.6-0.3-2.5c-6.6,0.5-14,1.6-17.5,7.9c-2.3,4.2-1.2,9.7,2.9,12.2
					c0.2-0.8,0.4-1.6,0.6-2.3c-10.9-0.8-17.8,9.9-12.8,19.5c0.4-0.6,0.7-1.3,1.1-1.9c-5.5-0.4-13.8,0.5-15.9,6.8
					c-1.6,4.7-0.3,9.8,4.7,11.6c0.1-0.8,0.2-1.6,0.3-2.5c-5.2-0.3-10.4-0.2-14.2,3.8c-2.5,2.7-2.7,6.8-0.7,9.8c0.7-0.5,1.3-1,2-1.5
					c-7.5-6.6-18-2.5-19.3,7.3c0.6-0.4,1.3-0.7,1.9-1.1c-4-2.5-9.8-5-14.5-2.7c-4.1,2.1-6.6,5.8-5.6,10.5c0.7-0.4,1.4-0.8,2.1-1.2
					c-6-7.6-19.2-5.9-23,3c0.8,0.2,1.6,0.4,2.3,0.6c-0.5-12.2-17-14.2-20.2-2.4c0.8,0.1,1.6,0.2,2.5,0.3
					c-1.2-12.6-18.5-13.8-20.9-1.2c0.8,0.2,1.6,0.4,2.4,0.7c1.5-10.8-12.8-14.5-16.7-4.3c0.8,0,1.6,0,2.4,0c-1.6-4.3-3.4-8.7-8.2-10
					c-3.3-0.9-6.5,1.1-7.5,4.2c-0.4,1.4,1.5,2.1,2.3,1c2.5-3.6,1.1-7.7-1.9-10.6c-4.3-4.1-11.3-1.5-15.6,0.9c-1,0.6-0.6,2.4,0.6,2.3
					c9.3-0.9,7.8-13.8-1.5-12.5C150.7,377.2,151.4,379.6,153,379.3L153,379.3z"/>
			</g>
		</g>
	</g>
</g>
</svg>
